solid 
 facet normal  7.055004e-01  6.736712e-02  7.055004e-01
   outer loop
     vertex  5.400608e+01  1.040882e+01  6.000000e+01
     vertex  5.000000e+01 -1.224647e-14  6.500000e+01
     vertex  5.500000e+01 -1.347111e-14  6.000000e+01
   endloop
 endfacet
 facet normal  7.032073e-01  6.925987e-02  7.076034e-01
   outer loop
     vertex  4.903926e+01  9.754516e+00  6.500000e+01
     vertex  5.000000e+01 -1.224647e-14  6.500000e+01
     vertex  5.400608e+01  1.040882e+01  6.000000e+01
   endloop
 endfacet
 facet normal  6.818674e-01  2.002143e-01  7.035419e-01
   outer loop
     vertex  5.106024e+01  2.044144e+01  6.000000e+01
     vertex  4.903926e+01  9.754516e+00  6.500000e+01
     vertex  5.400608e+01  1.040882e+01  6.000000e+01
   endloop
 endfacet
 facet normal  6.742140e-01  2.045206e-01  7.096526e-01
   outer loop
     vertex  4.619398e+01  1.913417e+01  6.500000e+01
     vertex  4.903926e+01  9.754516e+00  6.500000e+01
     vertex  5.106024e+01  2.044144e+01  6.000000e+01
   endloop
 endfacet
 facet normal  6.332755e-01  3.264762e-01  7.016947e-01
   outer loop
     vertex  4.626894e+01  2.973524e+01  6.000000e+01
     vertex  4.619398e+01  1.913417e+01  6.500000e+01
     vertex  5.106024e+01  2.044144e+01  6.000000e+01
   endloop
 endfacet
 facet normal  6.196697e-01  3.312204e-01  7.115493e-01
   outer loop
     vertex  4.157348e+01  2.777851e+01  6.500000e+01
     vertex  4.619398e+01  1.913417e+01  6.500000e+01
     vertex  4.626894e+01  2.973524e+01  6.000000e+01
   endloop
 endfacet
 facet normal  5.613836e-01  4.414770e-01  6.999618e-01
   outer loop
     vertex  3.980537e+01  3.795435e+01  6.000000e+01
     vertex  4.157348e+01  2.777851e+01  6.500000e+01
     vertex  4.626894e+01  2.973524e+01  6.000000e+01
   endloop
 endfacet
 facet normal  5.417735e-01  4.446220e-01  7.132971e-01
   outer loop
     vertex  3.535534e+01  3.535534e+01  6.500000e+01
     vertex  4.157348e+01  2.777851e+01  6.500000e+01
     vertex  3.980537e+01  3.795435e+01  6.000000e+01
   endloop
 endfacet
 facet normal  4.687234e-01  5.409356e-01  6.983459e-01
   outer loop
     vertex  3.190313e+01  4.480168e+01  6.000000e+01
     vertex  3.535534e+01  3.535534e+01  6.500000e+01
     vertex  3.980537e+01  3.795435e+01  6.000000e+01
   endloop
 endfacet
 facet normal  4.435854e-01  5.405104e-01  7.148989e-01
   outer loop
     vertex  2.777851e+01  4.157348e+01  6.500000e+01
     vertex  3.535534e+01  3.535534e+01  6.500000e+01
     vertex  3.190313e+01  4.480168e+01  6.000000e+01
   endloop
 endfacet
 facet normal  3.586086e-01  6.211284e-01  6.968496e-01
   outer loop
     vertex  2.284783e+01  5.002976e+01  6.000000e+01
     vertex  2.777851e+01  4.157348e+01  6.500000e+01
     vertex  3.190313e+01  4.480168e+01  6.000000e+01
   endloop
 endfacet
 facet normal  3.289092e-01  6.153458e-01  7.163576e-01
   outer loop
     vertex  1.913417e+01  4.619398e+01  6.500000e+01
     vertex  2.777851e+01  4.157348e+01  6.500000e+01
     vertex  2.284783e+01  5.002976e+01  6.000000e+01
   endloop
 endfacet
 facet normal  2.350147e-01  6.790304e-01  6.954753e-01
   outer loop
     vertex  1.296674e+01  5.344964e+01  6.000000e+01
     vertex  1.913417e+01  4.619398e+01  6.500000e+01
     vertex  2.284783e+01  5.002976e+01  6.000000e+01
   endloop
 endfacet
 facet normal  2.021477e-01  6.663916e-01  7.176758e-01
   outer loop
     vertex  9.754516e+00  4.903926e+01  6.500000e+01
     vertex  1.913417e+01  4.619398e+01  6.500000e+01
     vertex  1.296674e+01  5.344964e+01  6.000000e+01
   endloop
 endfacet
 facet normal  1.024322e-01  7.124319e-01  6.942251e-01
   outer loop
     vertex  2.617005e+00  5.493770e+01  6.000000e+01
     vertex  9.754516e+00  4.903926e+01  6.500000e+01
     vertex  1.296674e+01  5.344964e+01  6.000000e+01
   endloop
 endfacet
 facet normal  6.813753e-02  6.918119e-01  7.188557e-01
   outer loop
     vertex  3.061617e-15  5.000000e+01  6.500000e+01
     vertex  9.754516e+00  4.903926e+01  6.500000e+01
     vertex  2.617005e+00  5.493770e+01  6.000000e+01
   endloop
 endfacet
 facet normal -3.429897e-02  7.200241e-01  6.931010e-01
   outer loop
     vertex -7.827316e+00  5.444018e+01  6.000000e+01
     vertex  3.061617e-15  5.000000e+01  6.500000e+01
     vertex  2.617005e+00  5.493770e+01  6.000000e+01
   endloop
 endfacet
 facet normal -6.803158e-02  6.907362e-01  7.198994e-01
   outer loop
     vertex -9.754516e+00  4.903926e+01  6.500000e+01
     vertex  3.061617e-15  5.000000e+01  6.500000e+01
     vertex -7.827316e+00  5.444018e+01  6.000000e+01
   endloop
 endfacet
 facet normal -1.701701e-01  7.014507e-01  6.921048e-01
   outer loop
     vertex -1.798874e+01  5.197505e+01  6.000000e+01
     vertex -9.754516e+00  4.903926e+01  6.500000e+01
     vertex -7.827316e+00  5.444018e+01  6.000000e+01
   endloop
 endfacet
 facet normal -2.012062e-01  6.632878e-01  7.208088e-01
   outer loop
     vertex -1.913417e+01  4.619398e+01  6.500000e+01
     vertex -9.754516e+00  4.903926e+01  6.500000e+01
     vertex -1.798874e+01  5.197505e+01  6.000000e+01
   endloop
 endfacet
 facet normal -3.001901e-01  6.573246e-01  6.912382e-01
   outer loop
     vertex -1.913417e+01  4.619398e+01  6.500000e+01
     vertex -1.798874e+01  5.197505e+01  6.000000e+01
     vertex -2.750000e+01  4.763140e+01  6.000000e+01
   endloop
 endfacet
 facet normal -3.263600e-01  6.105766e-01  7.215854e-01
   outer loop
     vertex -2.777851e+01  4.157348e+01  6.500000e+01
     vertex -1.913417e+01  4.619398e+01  6.500000e+01
     vertex -2.750000e+01  4.763140e+01  6.000000e+01
   endloop
 endfacet
 facet normal -4.195726e-01  5.892072e-01  6.905025e-01
   outer loop
     vertex -2.777851e+01  4.157348e+01  6.500000e+01
     vertex -2.750000e+01  4.763140e+01  6.000000e+01
     vertex -3.601734e+01  4.156623e+01  6.000000e+01
   endloop
 endfacet
 facet normal -4.387797e-01  5.346546e-01  7.222305e-01
   outer loop
     vertex -3.535534e+01  3.535534e+01  6.500000e+01
     vertex -2.777851e+01  4.157348e+01  6.500000e+01
     vertex -3.601734e+01  4.156623e+01  6.000000e+01
   endloop
 endfacet
 facet normal -5.239152e-01  4.995521e-01  6.898989e-01
   outer loop
     vertex -3.535534e+01  3.535534e+01  6.500000e+01
     vertex -3.601734e+01  4.156623e+01  6.000000e+01
     vertex -4.323292e+01  3.399874e+01  6.000000e+01
   endloop
 endfacet
 facet normal -5.342388e-01  4.384384e-01  7.227452e-01
   outer loop
     vertex -4.157348e+01  2.777851e+01  6.500000e+01
     vertex -3.535534e+01  3.535534e+01  6.500000e+01
     vertex -4.323292e+01  3.399874e+01  6.000000e+01
   endloop
 endfacet
 facet normal -6.093652e-01  3.916152e-01  6.894285e-01
   outer loop
     vertex -4.157348e+01  2.777851e+01  6.500000e+01
     vertex -4.323292e+01  3.399874e+01  6.000000e+01
     vertex -4.888595e+01  2.520246e+01  6.000000e+01
   endloop
 endfacet
 facet normal -6.091531e-01  3.255991e-01  7.231305e-01
   outer loop
     vertex -4.619398e+01  1.913417e+01  6.500000e+01
     vertex -4.157348e+01  2.777851e+01  6.500000e+01
     vertex -4.888595e+01  2.520246e+01  6.000000e+01
   endloop
 endfacet
 facet normal -6.727641e-01  2.693341e-01  6.890919e-01
   outer loop
     vertex -4.619398e+01  1.913417e+01  6.500000e+01
     vertex -4.888595e+01  2.520246e+01  6.000000e+01
     vertex -5.277211e+01  1.549529e+01  6.000000e+01
   endloop
 endfacet
 facet normal -6.607125e-01  2.004250e-01  7.233870e-01
   outer loop
     vertex -4.903926e+01  9.754516e+00  6.500000e+01
     vertex -4.619398e+01  1.913417e+01  6.500000e+01
     vertex -5.277211e+01  1.549529e+01  6.000000e+01
   endloop
 endfacet
 facet normal -7.117669e-01  1.371818e-01  6.888897e-01
   outer loop
     vertex -4.903926e+01  9.754516e+00  6.500000e+01
     vertex -5.277211e+01  1.549529e+01  6.000000e+01
     vertex -5.475096e+01  5.228082e+00  6.000000e+01
   endloop
 endfacet
 facet normal -6.869845e-01  6.766207e-02  7.235151e-01
   outer loop
     vertex -5.000000e+01 -3.828569e-14  6.500000e+01
     vertex -4.903926e+01  9.754516e+00  6.500000e+01
     vertex -5.475096e+01  5.228082e+00  6.000000e+01
   endloop
 endfacet
 facet normal -7.249302e-01 -9.852444e-16  6.888223e-01
   outer loop
     vertex -5.000000e+01 -3.828569e-14  6.500000e+01
     vertex -5.475096e+01  5.228082e+00  6.000000e+01
     vertex -5.475096e+01 -5.228082e+00  6.000000e+01
   endloop
 endfacet
 facet normal -6.869845e-01 -6.766207e-02  7.235151e-01
   outer loop
     vertex -4.903926e+01 -9.754516e+00  6.500000e+01
     vertex -5.000000e+01 -3.828569e-14  6.500000e+01
     vertex -5.475096e+01 -5.228082e+00  6.000000e+01
   endloop
 endfacet
 facet normal -7.117669e-01 -1.371818e-01  6.888897e-01
   outer loop
     vertex -4.903926e+01 -9.754516e+00  6.500000e+01
     vertex -5.475096e+01 -5.228082e+00  6.000000e+01
     vertex -5.277211e+01 -1.549529e+01  6.000000e+01
   endloop
 endfacet
 facet normal -6.607125e-01 -2.004250e-01  7.233870e-01
   outer loop
     vertex -4.619398e+01 -1.913417e+01  6.500000e+01
     vertex -4.903926e+01 -9.754516e+00  6.500000e+01
     vertex -5.277211e+01 -1.549529e+01  6.000000e+01
   endloop
 endfacet
 facet normal -6.727641e-01 -2.693341e-01  6.890919e-01
   outer loop
     vertex -4.619398e+01 -1.913417e+01  6.500000e+01
     vertex -5.277211e+01 -1.549529e+01  6.000000e+01
     vertex -4.888595e+01 -2.520246e+01  6.000000e+01
   endloop
 endfacet
 facet normal -6.091531e-01 -3.255991e-01  7.231305e-01
   outer loop
     vertex -4.157348e+01 -2.777851e+01  6.500000e+01
     vertex -4.619398e+01 -1.913417e+01  6.500000e+01
     vertex -4.888595e+01 -2.520246e+01  6.000000e+01
   endloop
 endfacet
 facet normal -6.093652e-01 -3.916152e-01  6.894285e-01
   outer loop
     vertex -4.157348e+01 -2.777851e+01  6.500000e+01
     vertex -4.888595e+01 -2.520246e+01  6.000000e+01
     vertex -4.323292e+01 -3.399874e+01  6.000000e+01
   endloop
 endfacet
 facet normal -5.342388e-01 -4.384384e-01  7.227452e-01
   outer loop
     vertex -3.535534e+01 -3.535534e+01  6.500000e+01
     vertex -4.157348e+01 -2.777851e+01  6.500000e+01
     vertex -4.323292e+01 -3.399874e+01  6.000000e+01
   endloop
 endfacet
 facet normal -5.239152e-01 -4.995521e-01  6.898989e-01
   outer loop
     vertex -3.535534e+01 -3.535534e+01  6.500000e+01
     vertex -4.323292e+01 -3.399874e+01  6.000000e+01
     vertex -3.601734e+01 -4.156623e+01  6.000000e+01
   endloop
 endfacet
 facet normal -4.195726e-01 -5.892072e-01  6.905025e-01
   outer loop
     vertex -2.777851e+01 -4.157348e+01  6.500000e+01
     vertex -3.601734e+01 -4.156623e+01  6.000000e+01
     vertex -2.750000e+01 -4.763140e+01  6.000000e+01
   endloop
 endfacet
 facet normal -4.387797e-01 -5.346546e-01  7.222305e-01
   outer loop
     vertex -2.777851e+01 -4.157348e+01  6.500000e+01
     vertex -3.535534e+01 -3.535534e+01  6.500000e+01
     vertex -3.601734e+01 -4.156623e+01  6.000000e+01
   endloop
 endfacet
 facet normal -3.001901e-01 -6.573246e-01  6.912382e-01
   outer loop
     vertex -1.913417e+01 -4.619398e+01  6.500000e+01
     vertex -2.750000e+01 -4.763140e+01  6.000000e+01
     vertex -1.798874e+01 -5.197505e+01  6.000000e+01
   endloop
 endfacet
 facet normal -3.263600e-01 -6.105766e-01  7.215854e-01
   outer loop
     vertex -1.913417e+01 -4.619398e+01  6.500000e+01
     vertex -2.777851e+01 -4.157348e+01  6.500000e+01
     vertex -2.750000e+01 -4.763140e+01  6.000000e+01
   endloop
 endfacet
 facet normal -1.701701e-01 -7.014507e-01  6.921048e-01
   outer loop
     vertex -9.754516e+00 -4.903926e+01  6.500000e+01
     vertex -1.798874e+01 -5.197505e+01  6.000000e+01
     vertex -7.827316e+00 -5.444018e+01  6.000000e+01
   endloop
 endfacet
 facet normal -2.012062e-01 -6.632878e-01  7.208088e-01
   outer loop
     vertex -9.754516e+00 -4.903926e+01  6.500000e+01
     vertex -1.913417e+01 -4.619398e+01  6.500000e+01
     vertex -1.798874e+01 -5.197505e+01  6.000000e+01
   endloop
 endfacet
 facet normal -3.429897e-02 -7.200241e-01  6.931010e-01
   outer loop
     vertex  1.240419e-13 -5.000000e+01  6.500000e+01
     vertex -7.827316e+00 -5.444018e+01  6.000000e+01
     vertex  2.617005e+00 -5.493770e+01  6.000000e+01
   endloop
 endfacet
 facet normal -6.803158e-02 -6.907362e-01  7.198994e-01
   outer loop
     vertex  1.240419e-13 -5.000000e+01  6.500000e+01
     vertex -9.754516e+00 -4.903926e+01  6.500000e+01
     vertex -7.827316e+00 -5.444018e+01  6.000000e+01
   endloop
 endfacet
 facet normal  1.024322e-01 -7.124319e-01  6.942251e-01
   outer loop
     vertex  9.754516e+00 -4.903926e+01  6.500000e+01
     vertex  2.617005e+00 -5.493770e+01  6.000000e+01
     vertex  1.296674e+01 -5.344964e+01  6.000000e+01
   endloop
 endfacet
 facet normal  6.813753e-02 -6.918119e-01  7.188557e-01
   outer loop
     vertex  9.754516e+00 -4.903926e+01  6.500000e+01
     vertex  1.240419e-13 -5.000000e+01  6.500000e+01
     vertex  2.617005e+00 -5.493770e+01  6.000000e+01
   endloop
 endfacet
 facet normal  2.350147e-01 -6.790304e-01  6.954753e-01
   outer loop
     vertex  1.913417e+01 -4.619398e+01  6.500000e+01
     vertex  1.296674e+01 -5.344964e+01  6.000000e+01
     vertex  2.284783e+01 -5.002976e+01  6.000000e+01
   endloop
 endfacet
 facet normal  2.021477e-01 -6.663916e-01  7.176758e-01
   outer loop
     vertex  1.913417e+01 -4.619398e+01  6.500000e+01
     vertex  9.754516e+00 -4.903926e+01  6.500000e+01
     vertex  1.296674e+01 -5.344964e+01  6.000000e+01
   endloop
 endfacet
 facet normal  3.586086e-01 -6.211284e-01  6.968496e-01
   outer loop
     vertex  2.777851e+01 -4.157348e+01  6.500000e+01
     vertex  2.284783e+01 -5.002976e+01  6.000000e+01
     vertex  3.190313e+01 -4.480168e+01  6.000000e+01
   endloop
 endfacet
 facet normal  3.289092e-01 -6.153458e-01  7.163576e-01
   outer loop
     vertex  2.777851e+01 -4.157348e+01  6.500000e+01
     vertex  1.913417e+01 -4.619398e+01  6.500000e+01
     vertex  2.284783e+01 -5.002976e+01  6.000000e+01
   endloop
 endfacet
 facet normal  4.687234e-01 -5.409356e-01  6.983459e-01
   outer loop
     vertex  3.535534e+01 -3.535534e+01  6.500000e+01
     vertex  3.190313e+01 -4.480168e+01  6.000000e+01
     vertex  3.980537e+01 -3.795435e+01  6.000000e+01
   endloop
 endfacet
 facet normal  4.435854e-01 -5.405104e-01  7.148989e-01
   outer loop
     vertex  3.535534e+01 -3.535534e+01  6.500000e+01
     vertex  2.777851e+01 -4.157348e+01  6.500000e+01
     vertex  3.190313e+01 -4.480168e+01  6.000000e+01
   endloop
 endfacet
 facet normal  5.613836e-01 -4.414770e-01  6.999618e-01
   outer loop
     vertex  4.157348e+01 -2.777851e+01  6.500000e+01
     vertex  3.980537e+01 -3.795435e+01  6.000000e+01
     vertex  4.626894e+01 -2.973524e+01  6.000000e+01
   endloop
 endfacet
 facet normal  5.417735e-01 -4.446220e-01  7.132971e-01
   outer loop
     vertex  4.157348e+01 -2.777851e+01  6.500000e+01
     vertex  3.535534e+01 -3.535534e+01  6.500000e+01
     vertex  3.980537e+01 -3.795435e+01  6.000000e+01
   endloop
 endfacet
 facet normal  6.332755e-01 -3.264762e-01  7.016947e-01
   outer loop
     vertex  4.619398e+01 -1.913417e+01  6.500000e+01
     vertex  4.626894e+01 -2.973524e+01  6.000000e+01
     vertex  5.106024e+01 -2.044144e+01  6.000000e+01
   endloop
 endfacet
 facet normal  6.196697e-01 -3.312204e-01  7.115493e-01
   outer loop
     vertex  4.619398e+01 -1.913417e+01  6.500000e+01
     vertex  4.157348e+01 -2.777851e+01  6.500000e+01
     vertex  4.626894e+01 -2.973524e+01  6.000000e+01
   endloop
 endfacet
 facet normal  6.818674e-01 -2.002143e-01  7.035419e-01
   outer loop
     vertex  4.903926e+01 -9.754516e+00  6.500000e+01
     vertex  5.106024e+01 -2.044144e+01  6.000000e+01
     vertex  5.400608e+01 -1.040882e+01  6.000000e+01
   endloop
 endfacet
 facet normal  6.742140e-01 -2.045206e-01  7.096526e-01
   outer loop
     vertex  4.903926e+01 -9.754516e+00  6.500000e+01
     vertex  4.619398e+01 -1.913417e+01  6.500000e+01
     vertex  5.106024e+01 -2.044144e+01  6.000000e+01
   endloop
 endfacet
 facet normal  7.055004e-01 -6.736712e-02  7.055004e-01
   outer loop
     vertex  5.000000e+01 -1.224647e-14  6.500000e+01
     vertex  5.400608e+01 -1.040882e+01  6.000000e+01
     vertex  5.500000e+01 -1.347111e-14  6.000000e+01
   endloop
 endfacet
 facet normal  7.032073e-01 -6.925987e-02  7.076034e-01
   outer loop
     vertex  5.000000e+01 -1.224647e-14  6.500000e+01
     vertex  4.903926e+01 -9.754516e+00  6.500000e+01
     vertex  5.400608e+01 -1.040882e+01  6.000000e+01
   endloop
 endfacet
 facet normal  7.055004e-01  6.736712e-02 -7.055004e-01
   outer loop
     vertex  5.400608e+01  1.040882e+01  7.000000e+01
     vertex  5.500000e+01 -1.347111e-14  7.000000e+01
     vertex  5.000000e+01 -1.224647e-14  6.500000e+01
   endloop
 endfacet
 facet normal  7.032073e-01  6.925987e-02 -7.076034e-01
   outer loop
     vertex  5.400608e+01  1.040882e+01  7.000000e+01
     vertex  5.000000e+01 -1.224647e-14  6.500000e+01
     vertex  4.903926e+01  9.754516e+00  6.500000e+01
   endloop
 endfacet
 facet normal  6.742140e-01  2.045206e-01 -7.096526e-01
   outer loop
     vertex  5.106024e+01  2.044144e+01  7.000000e+01
     vertex  4.903926e+01  9.754516e+00  6.500000e+01
     vertex  4.619398e+01  1.913417e+01  6.500000e+01
   endloop
 endfacet
 facet normal  6.818674e-01  2.002143e-01 -7.035419e-01
   outer loop
     vertex  5.106024e+01  2.044144e+01  7.000000e+01
     vertex  5.400608e+01  1.040882e+01  7.000000e+01
     vertex  4.903926e+01  9.754516e+00  6.500000e+01
   endloop
 endfacet
 facet normal  6.196697e-01  3.312204e-01 -7.115493e-01
   outer loop
     vertex  4.626894e+01  2.973524e+01  7.000000e+01
     vertex  4.619398e+01  1.913417e+01  6.500000e+01
     vertex  4.157348e+01  2.777851e+01  6.500000e+01
   endloop
 endfacet
 facet normal  6.332755e-01  3.264762e-01 -7.016947e-01
   outer loop
     vertex  4.626894e+01  2.973524e+01  7.000000e+01
     vertex  5.106024e+01  2.044144e+01  7.000000e+01
     vertex  4.619398e+01  1.913417e+01  6.500000e+01
   endloop
 endfacet
 facet normal  5.417735e-01  4.446220e-01 -7.132971e-01
   outer loop
     vertex  3.980537e+01  3.795435e+01  7.000000e+01
     vertex  4.157348e+01  2.777851e+01  6.500000e+01
     vertex  3.535534e+01  3.535534e+01  6.500000e+01
   endloop
 endfacet
 facet normal  5.613836e-01  4.414770e-01 -6.999618e-01
   outer loop
     vertex  3.980537e+01  3.795435e+01  7.000000e+01
     vertex  4.626894e+01  2.973524e+01  7.000000e+01
     vertex  4.157348e+01  2.777851e+01  6.500000e+01
   endloop
 endfacet
 facet normal  4.435854e-01  5.405104e-01 -7.148989e-01
   outer loop
     vertex  3.190313e+01  4.480168e+01  7.000000e+01
     vertex  3.535534e+01  3.535534e+01  6.500000e+01
     vertex  2.777851e+01  4.157348e+01  6.500000e+01
   endloop
 endfacet
 facet normal  4.687234e-01  5.409356e-01 -6.983459e-01
   outer loop
     vertex  3.190313e+01  4.480168e+01  7.000000e+01
     vertex  3.980537e+01  3.795435e+01  7.000000e+01
     vertex  3.535534e+01  3.535534e+01  6.500000e+01
   endloop
 endfacet
 facet normal  3.289092e-01  6.153458e-01 -7.163576e-01
   outer loop
     vertex  2.284783e+01  5.002976e+01  7.000000e+01
     vertex  2.777851e+01  4.157348e+01  6.500000e+01
     vertex  1.913417e+01  4.619398e+01  6.500000e+01
   endloop
 endfacet
 facet normal  3.586086e-01  6.211284e-01 -6.968496e-01
   outer loop
     vertex  2.284783e+01  5.002976e+01  7.000000e+01
     vertex  3.190313e+01  4.480168e+01  7.000000e+01
     vertex  2.777851e+01  4.157348e+01  6.500000e+01
   endloop
 endfacet
 facet normal  2.021477e-01  6.663916e-01 -7.176758e-01
   outer loop
     vertex  1.296674e+01  5.344964e+01  7.000000e+01
     vertex  1.913417e+01  4.619398e+01  6.500000e+01
     vertex  9.754516e+00  4.903926e+01  6.500000e+01
   endloop
 endfacet
 facet normal  2.350147e-01  6.790304e-01 -6.954753e-01
   outer loop
     vertex  1.296674e+01  5.344964e+01  7.000000e+01
     vertex  2.284783e+01  5.002976e+01  7.000000e+01
     vertex  1.913417e+01  4.619398e+01  6.500000e+01
   endloop
 endfacet
 facet normal  6.813753e-02  6.918119e-01 -7.188557e-01
   outer loop
     vertex  2.617005e+00  5.493770e+01  7.000000e+01
     vertex  9.754516e+00  4.903926e+01  6.500000e+01
     vertex  3.061617e-15  5.000000e+01  6.500000e+01
   endloop
 endfacet
 facet normal  1.024322e-01  7.124319e-01 -6.942251e-01
   outer loop
     vertex  2.617005e+00  5.493770e+01  7.000000e+01
     vertex  1.296674e+01  5.344964e+01  7.000000e+01
     vertex  9.754516e+00  4.903926e+01  6.500000e+01
   endloop
 endfacet
 facet normal -6.803158e-02  6.907362e-01 -7.198994e-01
   outer loop
     vertex -7.827316e+00  5.444018e+01  7.000000e+01
     vertex  3.061617e-15  5.000000e+01  6.500000e+01
     vertex -9.754516e+00  4.903926e+01  6.500000e+01
   endloop
 endfacet
 facet normal -3.429897e-02  7.200241e-01 -6.931010e-01
   outer loop
     vertex -7.827316e+00  5.444018e+01  7.000000e+01
     vertex  2.617005e+00  5.493770e+01  7.000000e+01
     vertex  3.061617e-15  5.000000e+01  6.500000e+01
   endloop
 endfacet
 facet normal -1.701701e-01  7.014507e-01 -6.921048e-01
   outer loop
     vertex -1.798874e+01  5.197505e+01  7.000000e+01
     vertex -7.827316e+00  5.444018e+01  7.000000e+01
     vertex -9.754516e+00  4.903926e+01  6.500000e+01
   endloop
 endfacet
 facet normal -2.012062e-01  6.632878e-01 -7.208088e-01
   outer loop
     vertex -1.798874e+01  5.197505e+01  7.000000e+01
     vertex -9.754516e+00  4.903926e+01  6.500000e+01
     vertex -1.913417e+01  4.619398e+01  6.500000e+01
   endloop
 endfacet
 facet normal -3.001901e-01  6.573246e-01 -6.912382e-01
   outer loop
     vertex -2.750000e+01  4.763140e+01  7.000000e+01
     vertex -1.798874e+01  5.197505e+01  7.000000e+01
     vertex -1.913417e+01  4.619398e+01  6.500000e+01
   endloop
 endfacet
 facet normal -3.263600e-01  6.105766e-01 -7.215854e-01
   outer loop
     vertex -2.750000e+01  4.763140e+01  7.000000e+01
     vertex -1.913417e+01  4.619398e+01  6.500000e+01
     vertex -2.777851e+01  4.157348e+01  6.500000e+01
   endloop
 endfacet
 facet normal -4.195726e-01  5.892072e-01 -6.905025e-01
   outer loop
     vertex -3.601734e+01  4.156623e+01  7.000000e+01
     vertex -2.750000e+01  4.763140e+01  7.000000e+01
     vertex -2.777851e+01  4.157348e+01  6.500000e+01
   endloop
 endfacet
 facet normal -4.387797e-01  5.346546e-01 -7.222305e-01
   outer loop
     vertex -3.601734e+01  4.156623e+01  7.000000e+01
     vertex -2.777851e+01  4.157348e+01  6.500000e+01
     vertex -3.535534e+01  3.535534e+01  6.500000e+01
   endloop
 endfacet
 facet normal -5.239152e-01  4.995521e-01 -6.898989e-01
   outer loop
     vertex -4.323292e+01  3.399874e+01  7.000000e+01
     vertex -3.601734e+01  4.156623e+01  7.000000e+01
     vertex -3.535534e+01  3.535534e+01  6.500000e+01
   endloop
 endfacet
 facet normal -5.342388e-01  4.384384e-01 -7.227452e-01
   outer loop
     vertex -4.323292e+01  3.399874e+01  7.000000e+01
     vertex -3.535534e+01  3.535534e+01  6.500000e+01
     vertex -4.157348e+01  2.777851e+01  6.500000e+01
   endloop
 endfacet
 facet normal -6.093652e-01  3.916152e-01 -6.894285e-01
   outer loop
     vertex -4.888595e+01  2.520246e+01  7.000000e+01
     vertex -4.323292e+01  3.399874e+01  7.000000e+01
     vertex -4.157348e+01  2.777851e+01  6.500000e+01
   endloop
 endfacet
 facet normal -6.091531e-01  3.255991e-01 -7.231305e-01
   outer loop
     vertex -4.888595e+01  2.520246e+01  7.000000e+01
     vertex -4.157348e+01  2.777851e+01  6.500000e+01
     vertex -4.619398e+01  1.913417e+01  6.500000e+01
   endloop
 endfacet
 facet normal -6.727641e-01  2.693341e-01 -6.890919e-01
   outer loop
     vertex -5.277211e+01  1.549529e+01  7.000000e+01
     vertex -4.888595e+01  2.520246e+01  7.000000e+01
     vertex -4.619398e+01  1.913417e+01  6.500000e+01
   endloop
 endfacet
 facet normal -6.607125e-01  2.004250e-01 -7.233870e-01
   outer loop
     vertex -5.277211e+01  1.549529e+01  7.000000e+01
     vertex -4.619398e+01  1.913417e+01  6.500000e+01
     vertex -4.903926e+01  9.754516e+00  6.500000e+01
   endloop
 endfacet
 facet normal -7.117669e-01  1.371818e-01 -6.888897e-01
   outer loop
     vertex -5.475096e+01  5.228082e+00  7.000000e+01
     vertex -5.277211e+01  1.549529e+01  7.000000e+01
     vertex -4.903926e+01  9.754516e+00  6.500000e+01
   endloop
 endfacet
 facet normal -6.869845e-01  6.766207e-02 -7.235151e-01
   outer loop
     vertex -5.475096e+01  5.228082e+00  7.000000e+01
     vertex -4.903926e+01  9.754516e+00  6.500000e+01
     vertex -5.000000e+01 -3.828569e-14  6.500000e+01
   endloop
 endfacet
 facet normal -7.249302e-01 -9.852444e-16 -6.888223e-01
   outer loop
     vertex -5.475096e+01 -5.228082e+00  7.000000e+01
     vertex -5.475096e+01  5.228082e+00  7.000000e+01
     vertex -5.000000e+01 -3.828569e-14  6.500000e+01
   endloop
 endfacet
 facet normal -6.869845e-01 -6.766207e-02 -7.235151e-01
   outer loop
     vertex -5.475096e+01 -5.228082e+00  7.000000e+01
     vertex -5.000000e+01 -3.828569e-14  6.500000e+01
     vertex -4.903926e+01 -9.754516e+00  6.500000e+01
   endloop
 endfacet
 facet normal -7.117669e-01 -1.371818e-01 -6.888897e-01
   outer loop
     vertex -5.277211e+01 -1.549529e+01  7.000000e+01
     vertex -5.475096e+01 -5.228082e+00  7.000000e+01
     vertex -4.903926e+01 -9.754516e+00  6.500000e+01
   endloop
 endfacet
 facet normal -6.607125e-01 -2.004250e-01 -7.233870e-01
   outer loop
     vertex -5.277211e+01 -1.549529e+01  7.000000e+01
     vertex -4.903926e+01 -9.754516e+00  6.500000e+01
     vertex -4.619398e+01 -1.913417e+01  6.500000e+01
   endloop
 endfacet
 facet normal -6.727641e-01 -2.693341e-01 -6.890919e-01
   outer loop
     vertex -4.888595e+01 -2.520246e+01  7.000000e+01
     vertex -5.277211e+01 -1.549529e+01  7.000000e+01
     vertex -4.619398e+01 -1.913417e+01  6.500000e+01
   endloop
 endfacet
 facet normal -6.091531e-01 -3.255991e-01 -7.231305e-01
   outer loop
     vertex -4.888595e+01 -2.520246e+01  7.000000e+01
     vertex -4.619398e+01 -1.913417e+01  6.500000e+01
     vertex -4.157348e+01 -2.777851e+01  6.500000e+01
   endloop
 endfacet
 facet normal -6.093652e-01 -3.916152e-01 -6.894285e-01
   outer loop
     vertex -4.323292e+01 -3.399874e+01  7.000000e+01
     vertex -4.888595e+01 -2.520246e+01  7.000000e+01
     vertex -4.157348e+01 -2.777851e+01  6.500000e+01
   endloop
 endfacet
 facet normal -5.342388e-01 -4.384384e-01 -7.227452e-01
   outer loop
     vertex -4.323292e+01 -3.399874e+01  7.000000e+01
     vertex -4.157348e+01 -2.777851e+01  6.500000e+01
     vertex -3.535534e+01 -3.535534e+01  6.500000e+01
   endloop
 endfacet
 facet normal -5.239152e-01 -4.995521e-01 -6.898989e-01
   outer loop
     vertex -3.601734e+01 -4.156623e+01  7.000000e+01
     vertex -4.323292e+01 -3.399874e+01  7.000000e+01
     vertex -3.535534e+01 -3.535534e+01  6.500000e+01
   endloop
 endfacet
 facet normal -4.387797e-01 -5.346546e-01 -7.222305e-01
   outer loop
     vertex -3.601734e+01 -4.156623e+01  7.000000e+01
     vertex -3.535534e+01 -3.535534e+01  6.500000e+01
     vertex -2.777851e+01 -4.157348e+01  6.500000e+01
   endloop
 endfacet
 facet normal -3.263600e-01 -6.105766e-01 -7.215854e-01
   outer loop
     vertex -2.750000e+01 -4.763140e+01  7.000000e+01
     vertex -2.777851e+01 -4.157348e+01  6.500000e+01
     vertex -1.913417e+01 -4.619398e+01  6.500000e+01
   endloop
 endfacet
 facet normal -4.195726e-01 -5.892072e-01 -6.905025e-01
   outer loop
     vertex -2.750000e+01 -4.763140e+01  7.000000e+01
     vertex -3.601734e+01 -4.156623e+01  7.000000e+01
     vertex -2.777851e+01 -4.157348e+01  6.500000e+01
   endloop
 endfacet
 facet normal -3.001901e-01 -6.573246e-01 -6.912382e-01
   outer loop
     vertex -1.798874e+01 -5.197505e+01  7.000000e+01
     vertex -2.750000e+01 -4.763140e+01  7.000000e+01
     vertex -1.913417e+01 -4.619398e+01  6.500000e+01
   endloop
 endfacet
 facet normal -2.012062e-01 -6.632878e-01 -7.208088e-01
   outer loop
     vertex -9.754516e+00 -4.903926e+01  6.500000e+01
     vertex -1.798874e+01 -5.197505e+01  7.000000e+01
     vertex -1.913417e+01 -4.619398e+01  6.500000e+01
   endloop
 endfacet
 facet normal -1.701701e-01 -7.014507e-01 -6.921048e-01
   outer loop
     vertex -7.827316e+00 -5.444018e+01  7.000000e+01
     vertex -1.798874e+01 -5.197505e+01  7.000000e+01
     vertex -9.754516e+00 -4.903926e+01  6.500000e+01
   endloop
 endfacet
 facet normal -6.803158e-02 -6.907362e-01 -7.198994e-01
   outer loop
     vertex  1.240419e-13 -5.000000e+01  6.500000e+01
     vertex -7.827316e+00 -5.444018e+01  7.000000e+01
     vertex -9.754516e+00 -4.903926e+01  6.500000e+01
   endloop
 endfacet
 facet normal -3.429897e-02 -7.200241e-01 -6.931010e-01
   outer loop
     vertex  2.617005e+00 -5.493770e+01  7.000000e+01
     vertex -7.827316e+00 -5.444018e+01  7.000000e+01
     vertex  1.240419e-13 -5.000000e+01  6.500000e+01
   endloop
 endfacet
 facet normal  6.813753e-02 -6.918119e-01 -7.188557e-01
   outer loop
     vertex  9.754516e+00 -4.903926e+01  6.500000e+01
     vertex  2.617005e+00 -5.493770e+01  7.000000e+01
     vertex  1.240419e-13 -5.000000e+01  6.500000e+01
   endloop
 endfacet
 facet normal  1.024322e-01 -7.124319e-01 -6.942251e-01
   outer loop
     vertex  1.296674e+01 -5.344964e+01  7.000000e+01
     vertex  2.617005e+00 -5.493770e+01  7.000000e+01
     vertex  9.754516e+00 -4.903926e+01  6.500000e+01
   endloop
 endfacet
 facet normal  2.021477e-01 -6.663916e-01 -7.176758e-01
   outer loop
     vertex  1.913417e+01 -4.619398e+01  6.500000e+01
     vertex  1.296674e+01 -5.344964e+01  7.000000e+01
     vertex  9.754516e+00 -4.903926e+01  6.500000e+01
   endloop
 endfacet
 facet normal  2.350147e-01 -6.790304e-01 -6.954753e-01
   outer loop
     vertex  2.284783e+01 -5.002976e+01  7.000000e+01
     vertex  1.296674e+01 -5.344964e+01  7.000000e+01
     vertex  1.913417e+01 -4.619398e+01  6.500000e+01
   endloop
 endfacet
 facet normal  3.289092e-01 -6.153458e-01 -7.163576e-01
   outer loop
     vertex  2.777851e+01 -4.157348e+01  6.500000e+01
     vertex  2.284783e+01 -5.002976e+01  7.000000e+01
     vertex  1.913417e+01 -4.619398e+01  6.500000e+01
   endloop
 endfacet
 facet normal  3.586086e-01 -6.211284e-01 -6.968496e-01
   outer loop
     vertex  3.190313e+01 -4.480168e+01  7.000000e+01
     vertex  2.284783e+01 -5.002976e+01  7.000000e+01
     vertex  2.777851e+01 -4.157348e+01  6.500000e+01
   endloop
 endfacet
 facet normal  4.435854e-01 -5.405104e-01 -7.148989e-01
   outer loop
     vertex  3.535534e+01 -3.535534e+01  6.500000e+01
     vertex  3.190313e+01 -4.480168e+01  7.000000e+01
     vertex  2.777851e+01 -4.157348e+01  6.500000e+01
   endloop
 endfacet
 facet normal  4.687234e-01 -5.409356e-01 -6.983459e-01
   outer loop
     vertex  3.980537e+01 -3.795435e+01  7.000000e+01
     vertex  3.190313e+01 -4.480168e+01  7.000000e+01
     vertex  3.535534e+01 -3.535534e+01  6.500000e+01
   endloop
 endfacet
 facet normal  5.417735e-01 -4.446220e-01 -7.132971e-01
   outer loop
     vertex  4.157348e+01 -2.777851e+01  6.500000e+01
     vertex  3.980537e+01 -3.795435e+01  7.000000e+01
     vertex  3.535534e+01 -3.535534e+01  6.500000e+01
   endloop
 endfacet
 facet normal  5.613836e-01 -4.414770e-01 -6.999618e-01
   outer loop
     vertex  4.626894e+01 -2.973524e+01  7.000000e+01
     vertex  3.980537e+01 -3.795435e+01  7.000000e+01
     vertex  4.157348e+01 -2.777851e+01  6.500000e+01
   endloop
 endfacet
 facet normal  6.196697e-01 -3.312204e-01 -7.115493e-01
   outer loop
     vertex  4.619398e+01 -1.913417e+01  6.500000e+01
     vertex  4.626894e+01 -2.973524e+01  7.000000e+01
     vertex  4.157348e+01 -2.777851e+01  6.500000e+01
   endloop
 endfacet
 facet normal  6.332755e-01 -3.264762e-01 -7.016947e-01
   outer loop
     vertex  5.106024e+01 -2.044144e+01  7.000000e+01
     vertex  4.626894e+01 -2.973524e+01  7.000000e+01
     vertex  4.619398e+01 -1.913417e+01  6.500000e+01
   endloop
 endfacet
 facet normal  6.742140e-01 -2.045206e-01 -7.096526e-01
   outer loop
     vertex  4.903926e+01 -9.754516e+00  6.500000e+01
     vertex  5.106024e+01 -2.044144e+01  7.000000e+01
     vertex  4.619398e+01 -1.913417e+01  6.500000e+01
   endloop
 endfacet
 facet normal  6.818674e-01 -2.002143e-01 -7.035419e-01
   outer loop
     vertex  5.400608e+01 -1.040882e+01  7.000000e+01
     vertex  5.106024e+01 -2.044144e+01  7.000000e+01
     vertex  4.903926e+01 -9.754516e+00  6.500000e+01
   endloop
 endfacet
 facet normal  7.032073e-01 -6.925987e-02 -7.076034e-01
   outer loop
     vertex  5.000000e+01 -1.224647e-14  6.500000e+01
     vertex  5.400608e+01 -1.040882e+01  7.000000e+01
     vertex  4.903926e+01 -9.754516e+00  6.500000e+01
   endloop
 endfacet
 facet normal  7.055004e-01 -6.736712e-02 -7.055004e-01
   outer loop
     vertex  5.500000e+01 -1.347111e-14  7.000000e+01
     vertex  5.400608e+01 -1.040882e+01  7.000000e+01
     vertex  5.000000e+01 -1.224647e-14  6.500000e+01
   endloop
 endfacet
 facet normal  0.000000e+00  0.000000e+00 -1.000000e+00
   outer loop
     vertex -4.491064e+00 -3.978736e+00  6.000000e+01
     vertex -3.601734e+01 -4.156623e+01  6.000000e+01
     vertex -4.323292e+01 -3.399874e+01  6.000000e+01
   endloop
 endfacet
 facet normal  0.000000e+00  0.000000e+00 -1.000000e+00
   outer loop
     vertex -3.408388e+00 -4.937903e+00  6.000000e+01
     vertex -2.750000e+01 -4.763140e+01  6.000000e+01
     vertex -3.601734e+01 -4.156623e+01  6.000000e+01
   endloop
 endfacet
 facet normal -0.000000e+00  0.000000e+00 -1.000000e+00
   outer loop
     vertex -3.408388e+00 -4.937903e+00  6.000000e+01
     vertex -3.601734e+01 -4.156623e+01  6.000000e+01
     vertex -4.491064e+00 -3.978736e+00  6.000000e+01
   endloop
 endfacet
 facet normal  0.000000e+00  0.000000e+00 -1.000000e+00
   outer loop
     vertex -5.312736e+00 -2.788339e+00  6.000000e+01
     vertex -4.888595e+01 -2.520246e+01  6.000000e+01
     vertex -5.277211e+01 -1.549529e+01  6.000000e+01
   endloop
 endfacet
 facet normal  0.000000e+00  0.000000e+00 -1.000000e+00
   outer loop
     vertex -5.312736e+00 -2.788339e+00  6.000000e+01
     vertex -4.323292e+01 -3.399874e+01  6.000000e+01
     vertex -4.888595e+01 -2.520246e+01  6.000000e+01
   endloop
 endfacet
 facet normal  0.000000e+00 -0.000000e+00 -1.000000e+00
   outer loop
     vertex -5.312736e+00 -2.788339e+00  6.000000e+01
     vertex -4.491064e+00 -3.978736e+00  6.000000e+01
     vertex -4.323292e+01 -3.399874e+01  6.000000e+01
   endloop
 endfacet
 facet normal  0.000000e+00  0.000000e+00 -1.000000e+00
   outer loop
     vertex -2.127629e+00 -5.610097e+00  6.000000e+01
     vertex -1.798874e+01 -5.197505e+01  6.000000e+01
     vertex -2.750000e+01 -4.763140e+01  6.000000e+01
   endloop
 endfacet
 facet normal -0.000000e+00  0.000000e+00 -1.000000e+00
   outer loop
     vertex -2.127629e+00 -5.610097e+00  6.000000e+01
     vertex -2.750000e+01 -4.763140e+01  6.000000e+01
     vertex -3.408388e+00 -4.937903e+00  6.000000e+01
   endloop
 endfacet
 facet normal  0.000000e+00  0.000000e+00 -1.000000e+00
   outer loop
     vertex -5.825651e+00 -1.435894e+00  6.000000e+01
     vertex -5.277211e+01 -1.549529e+01  6.000000e+01
     vertex -5.475096e+01 -5.228082e+00  6.000000e+01
   endloop
 endfacet
 facet normal  0.000000e+00 -0.000000e+00 -1.000000e+00
   outer loop
     vertex -5.825651e+00 -1.435894e+00  6.000000e+01
     vertex -5.312736e+00 -2.788339e+00  6.000000e+01
     vertex -5.277211e+01 -1.549529e+01  6.000000e+01
   endloop
 endfacet
 facet normal  0.000000e+00  0.000000e+00 -1.000000e+00
   outer loop
     vertex -7.232201e-01 -5.956253e+00  6.000000e+01
     vertex -7.827316e+00 -5.444018e+01  6.000000e+01
     vertex -1.798874e+01 -5.197505e+01  6.000000e+01
   endloop
 endfacet
 facet normal  0.000000e+00 -0.000000e+00 -1.000000e+00
   outer loop
     vertex -7.232201e-01 -5.956253e+00  6.000000e+01
     vertex  2.617005e+00 -5.493770e+01  6.000000e+01
     vertex -7.827316e+00 -5.444018e+01  6.000000e+01
   endloop
 endfacet
 facet normal -0.000000e+00  0.000000e+00 -1.000000e+00
   outer loop
     vertex -7.232201e-01 -5.956253e+00  6.000000e+01
     vertex -1.798874e+01 -5.197505e+01  6.000000e+01
     vertex -2.127629e+00 -5.610097e+00  6.000000e+01
   endloop
 endfacet
 facet normal -0.000000e+00  0.000000e+00 -1.000000e+00
   outer loop
     vertex -6.000000e+00  6.063859e-15  6.000000e+01
     vertex -5.475096e+01 -5.228082e+00  6.000000e+01
     vertex -5.475096e+01  5.228082e+00  6.000000e+01
   endloop
 endfacet
 facet normal  0.000000e+00 -0.000000e+00 -1.000000e+00
   outer loop
     vertex -6.000000e+00  6.063859e-15  6.000000e+01
     vertex -5.825651e+00 -1.435894e+00  6.000000e+01
     vertex -5.475096e+01 -5.228082e+00  6.000000e+01
   endloop
 endfacet
 facet normal -0.000000e+00 -0.000000e+00 -1.000000e+00
   outer loop
     vertex  7.232201e-01 -5.956253e+00  6.000000e+01
     vertex  2.617005e+00 -5.493770e+01  6.000000e+01
     vertex -7.232201e-01 -5.956253e+00  6.000000e+01
   endloop
 endfacet
 facet normal  0.000000e+00  0.000000e+00 -1.000000e+00
   outer loop
     vertex  7.232201e-01 -5.956253e+00  6.000000e+01
     vertex  1.296674e+01 -5.344964e+01  6.000000e+01
     vertex  2.617005e+00 -5.493770e+01  6.000000e+01
   endloop
 endfacet
 facet normal  0.000000e+00  0.000000e+00 -1.000000e+00
   outer loop
     vertex -5.825651e+00  1.435894e+00  6.000000e+01
     vertex -5.475096e+01  5.228082e+00  6.000000e+01
     vertex -5.277211e+01  1.549529e+01  6.000000e+01
   endloop
 endfacet
 facet normal -0.000000e+00  0.000000e+00 -1.000000e+00
   outer loop
     vertex -5.825651e+00  1.435894e+00  6.000000e+01
     vertex -6.000000e+00  6.063859e-15  6.000000e+01
     vertex -5.475096e+01  5.228082e+00  6.000000e+01
   endloop
 endfacet
 facet normal  0.000000e+00  0.000000e+00 -1.000000e+00
   outer loop
     vertex  2.127629e+00 -5.610097e+00  6.000000e+01
     vertex  2.284783e+01 -5.002976e+01  6.000000e+01
     vertex  1.296674e+01 -5.344964e+01  6.000000e+01
   endloop
 endfacet
 facet normal  0.000000e+00 -0.000000e+00 -1.000000e+00
   outer loop
     vertex  2.127629e+00 -5.610097e+00  6.000000e+01
     vertex  1.296674e+01 -5.344964e+01  6.000000e+01
     vertex  7.232201e-01 -5.956253e+00  6.000000e+01
   endloop
 endfacet
 facet normal -0.000000e+00  0.000000e+00 -1.000000e+00
   outer loop
     vertex -5.312736e+00  2.788339e+00  6.000000e+01
     vertex -5.825651e+00  1.435894e+00  6.000000e+01
     vertex -5.277211e+01  1.549529e+01  6.000000e+01
   endloop
 endfacet
 facet normal  0.000000e+00  0.000000e+00 -1.000000e+00
   outer loop
     vertex -5.312736e+00  2.788339e+00  6.000000e+01
     vertex -4.888595e+01  2.520246e+01  6.000000e+01
     vertex -4.323292e+01  3.399874e+01  6.000000e+01
   endloop
 endfacet
 facet normal  0.000000e+00  0.000000e+00 -1.000000e+00
   outer loop
     vertex -5.312736e+00  2.788339e+00  6.000000e+01
     vertex -5.277211e+01  1.549529e+01  6.000000e+01
     vertex -4.888595e+01  2.520246e+01  6.000000e+01
   endloop
 endfacet
 facet normal  0.000000e+00 -0.000000e+00 -1.000000e+00
   outer loop
     vertex  3.408388e+00 -4.937903e+00  6.000000e+01
     vertex  2.284783e+01 -5.002976e+01  6.000000e+01
     vertex  2.127629e+00 -5.610097e+00  6.000000e+01
   endloop
 endfacet
 facet normal  0.000000e+00  0.000000e+00 -1.000000e+00
   outer loop
     vertex  3.408388e+00 -4.937903e+00  6.000000e+01
     vertex  3.190313e+01 -4.480168e+01  6.000000e+01
     vertex  2.284783e+01 -5.002976e+01  6.000000e+01
   endloop
 endfacet
 facet normal -0.000000e+00  0.000000e+00 -1.000000e+00
   outer loop
     vertex -4.491064e+00  3.978736e+00  6.000000e+01
     vertex -5.312736e+00  2.788339e+00  6.000000e+01
     vertex -4.323292e+01  3.399874e+01  6.000000e+01
   endloop
 endfacet
 facet normal -0.000000e+00  0.000000e+00 -1.000000e+00
   outer loop
     vertex  3.980537e+01 -3.795435e+01  6.000000e+01
     vertex  3.190313e+01 -4.480168e+01  6.000000e+01
     vertex  3.408388e+00 -4.937903e+00  6.000000e+01
   endloop
 endfacet
 facet normal  0.000000e+00  0.000000e+00 -1.000000e+00
   outer loop
     vertex  3.980537e+01 -3.795435e+01  6.000000e+01
     vertex  3.408388e+00 -4.937903e+00  6.000000e+01
     vertex  4.491064e+00 -3.978736e+00  6.000000e+01
   endloop
 endfacet
 facet normal  0.000000e+00 -0.000000e+00 -1.000000e+00
   outer loop
     vertex -3.601734e+01  4.156623e+01  6.000000e+01
     vertex -4.491064e+00  3.978736e+00  6.000000e+01
     vertex -4.323292e+01  3.399874e+01  6.000000e+01
   endloop
 endfacet
 facet normal  0.000000e+00  0.000000e+00 -1.000000e+00
   outer loop
     vertex -3.601734e+01  4.156623e+01  6.000000e+01
     vertex -3.408388e+00  4.937903e+00  6.000000e+01
     vertex -4.491064e+00  3.978736e+00  6.000000e+01
   endloop
 endfacet
 facet normal -0.000000e+00  0.000000e+00 -1.000000e+00
   outer loop
     vertex  4.626894e+01 -2.973524e+01  6.000000e+01
     vertex  3.980537e+01 -3.795435e+01  6.000000e+01
     vertex  4.491064e+00 -3.978736e+00  6.000000e+01
   endloop
 endfacet
 facet normal  0.000000e+00  0.000000e+00 -1.000000e+00
   outer loop
     vertex  4.626894e+01 -2.973524e+01  6.000000e+01
     vertex  4.491064e+00 -3.978736e+00  6.000000e+01
     vertex  5.312736e+00 -2.788339e+00  6.000000e+01
   endloop
 endfacet
 facet normal  0.000000e+00 -0.000000e+00 -1.000000e+00
   outer loop
     vertex -2.750000e+01  4.763140e+01  6.000000e+01
     vertex -3.408388e+00  4.937903e+00  6.000000e+01
     vertex -3.601734e+01  4.156623e+01  6.000000e+01
   endloop
 endfacet
 facet normal  0.000000e+00  0.000000e+00 -1.000000e+00
   outer loop
     vertex -2.750000e+01  4.763140e+01  6.000000e+01
     vertex -2.127629e+00  5.610097e+00  6.000000e+01
     vertex -3.408388e+00  4.937903e+00  6.000000e+01
   endloop
 endfacet
 facet normal -0.000000e+00  0.000000e+00 -1.000000e+00
   outer loop
     vertex  5.106024e+01 -2.044144e+01  6.000000e+01
     vertex  4.626894e+01 -2.973524e+01  6.000000e+01
     vertex  5.312736e+00 -2.788339e+00  6.000000e+01
   endloop
 endfacet
 facet normal  0.000000e+00  0.000000e+00 -1.000000e+00
   outer loop
     vertex  5.106024e+01 -2.044144e+01  6.000000e+01
     vertex  5.312736e+00 -2.788339e+00  6.000000e+01
     vertex  5.825651e+00 -1.435894e+00  6.000000e+01
   endloop
 endfacet
 facet normal  0.000000e+00  0.000000e+00 -1.000000e+00
   outer loop
     vertex -1.798874e+01  5.197505e+01  6.000000e+01
     vertex -7.232201e-01  5.956253e+00  6.000000e+01
     vertex -2.127629e+00  5.610097e+00  6.000000e+01
   endloop
 endfacet
 facet normal  0.000000e+00 -0.000000e+00 -1.000000e+00
   outer loop
     vertex -1.798874e+01  5.197505e+01  6.000000e+01
     vertex -2.127629e+00  5.610097e+00  6.000000e+01
     vertex -2.750000e+01  4.763140e+01  6.000000e+01
   endloop
 endfacet
 facet normal -0.000000e+00  0.000000e+00 -1.000000e+00
   outer loop
     vertex  5.400608e+01 -1.040882e+01  6.000000e+01
     vertex  5.106024e+01 -2.044144e+01  6.000000e+01
     vertex  5.825651e+00 -1.435894e+00  6.000000e+01
   endloop
 endfacet
 facet normal  0.000000e+00  0.000000e+00 -1.000000e+00
   outer loop
     vertex  5.400608e+01 -1.040882e+01  6.000000e+01
     vertex  5.825651e+00 -1.435894e+00  6.000000e+01
     vertex  6.000000e+00 -1.469576e-15  6.000000e+01
   endloop
 endfacet
 facet normal  0.000000e+00 -0.000000e+00 -1.000000e+00
   outer loop
     vertex -7.827316e+00  5.444018e+01  6.000000e+01
     vertex -7.232201e-01  5.956253e+00  6.000000e+01
     vertex -1.798874e+01  5.197505e+01  6.000000e+01
   endloop
 endfacet
 facet normal -0.000000e+00  0.000000e+00 -1.000000e+00
   outer loop
     vertex  5.500000e+01 -1.347111e-14  6.000000e+01
     vertex  5.400608e+01 -1.040882e+01  6.000000e+01
     vertex  6.000000e+00 -1.469576e-15  6.000000e+01
   endloop
 endfacet
 facet normal  0.000000e+00  0.000000e+00 -1.000000e+00
   outer loop
     vertex  2.617005e+00  5.493770e+01  6.000000e+01
     vertex  7.232201e-01  5.956253e+00  6.000000e+01
     vertex -7.232201e-01  5.956253e+00  6.000000e+01
   endloop
 endfacet
 facet normal  0.000000e+00  0.000000e+00 -1.000000e+00
   outer loop
     vertex  2.617005e+00  5.493770e+01  6.000000e+01
     vertex -7.232201e-01  5.956253e+00  6.000000e+01
     vertex -7.827316e+00  5.444018e+01  6.000000e+01
   endloop
 endfacet
 facet normal  0.000000e+00 -0.000000e+00 -1.000000e+00
   outer loop
     vertex  5.400608e+01  1.040882e+01  6.000000e+01
     vertex  5.500000e+01 -1.347111e-14  6.000000e+01
     vertex  6.000000e+00 -1.469576e-15  6.000000e+01
   endloop
 endfacet
 facet normal  0.000000e+00  0.000000e+00 -1.000000e+00
   outer loop
     vertex  5.400608e+01  1.040882e+01  6.000000e+01
     vertex  6.000000e+00 -1.469576e-15  6.000000e+01
     vertex  5.825651e+00  1.435894e+00  6.000000e+01
   endloop
 endfacet
 facet normal -0.000000e+00  0.000000e+00 -1.000000e+00
   outer loop
     vertex  1.296674e+01  5.344964e+01  6.000000e+01
     vertex  7.232201e-01  5.956253e+00  6.000000e+01
     vertex  2.617005e+00  5.493770e+01  6.000000e+01
   endloop
 endfacet
 facet normal  0.000000e+00  0.000000e+00 -1.000000e+00
   outer loop
     vertex  1.296674e+01  5.344964e+01  6.000000e+01
     vertex  2.127629e+00  5.610097e+00  6.000000e+01
     vertex  7.232201e-01  5.956253e+00  6.000000e+01
   endloop
 endfacet
 facet normal  0.000000e+00  0.000000e+00 -1.000000e+00
   outer loop
     vertex  5.106024e+01  2.044144e+01  6.000000e+01
     vertex  5.825651e+00  1.435894e+00  6.000000e+01
     vertex  5.312736e+00  2.788339e+00  6.000000e+01
   endloop
 endfacet
 facet normal  0.000000e+00 -0.000000e+00 -1.000000e+00
   outer loop
     vertex  5.106024e+01  2.044144e+01  6.000000e+01
     vertex  5.400608e+01  1.040882e+01  6.000000e+01
     vertex  5.825651e+00  1.435894e+00  6.000000e+01
   endloop
 endfacet
 facet normal -0.000000e+00  0.000000e+00 -1.000000e+00
   outer loop
     vertex  2.284783e+01  5.002976e+01  6.000000e+01
     vertex  2.127629e+00  5.610097e+00  6.000000e+01
     vertex  1.296674e+01  5.344964e+01  6.000000e+01
   endloop
 endfacet
 facet normal  0.000000e+00  0.000000e+00 -1.000000e+00
   outer loop
     vertex  2.284783e+01  5.002976e+01  6.000000e+01
     vertex  3.408388e+00  4.937903e+00  6.000000e+01
     vertex  2.127629e+00  5.610097e+00  6.000000e+01
   endloop
 endfacet
 facet normal  0.000000e+00  0.000000e+00 -1.000000e+00
   outer loop
     vertex  4.626894e+01  2.973524e+01  6.000000e+01
     vertex  5.312736e+00  2.788339e+00  6.000000e+01
     vertex  4.491064e+00  3.978736e+00  6.000000e+01
   endloop
 endfacet
 facet normal  0.000000e+00 -0.000000e+00 -1.000000e+00
   outer loop
     vertex  4.626894e+01  2.973524e+01  6.000000e+01
     vertex  5.106024e+01  2.044144e+01  6.000000e+01
     vertex  5.312736e+00  2.788339e+00  6.000000e+01
   endloop
 endfacet
 facet normal -0.000000e+00  0.000000e+00 -1.000000e+00
   outer loop
     vertex  3.190313e+01  4.480168e+01  6.000000e+01
     vertex  3.408388e+00  4.937903e+00  6.000000e+01
     vertex  2.284783e+01  5.002976e+01  6.000000e+01
   endloop
 endfacet
 facet normal  0.000000e+00  0.000000e+00 -1.000000e+00
   outer loop
     vertex  3.980537e+01  3.795435e+01  6.000000e+01
     vertex  4.491064e+00  3.978736e+00  6.000000e+01
     vertex  3.408388e+00  4.937903e+00  6.000000e+01
   endloop
 endfacet
 facet normal  0.000000e+00 -0.000000e+00 -1.000000e+00
   outer loop
     vertex  3.980537e+01  3.795435e+01  6.000000e+01
     vertex  4.626894e+01  2.973524e+01  6.000000e+01
     vertex  4.491064e+00  3.978736e+00  6.000000e+01
   endloop
 endfacet
 facet normal -0.000000e+00  0.000000e+00 -1.000000e+00
   outer loop
     vertex  3.980537e+01  3.795435e+01  6.000000e+01
     vertex  3.408388e+00  4.937903e+00  6.000000e+01
     vertex  3.190313e+01  4.480168e+01  6.000000e+01
   endloop
 endfacet
 facet normal  0.000000e+00  0.000000e+00  1.000000e+00
   outer loop
     vertex -4.491064e+00 -3.978736e+00  7.000000e+01
     vertex -4.323292e+01 -3.399874e+01  7.000000e+01
     vertex -3.601734e+01 -4.156623e+01  7.000000e+01
   endloop
 endfacet
 facet normal  0.000000e+00  0.000000e+00  1.000000e+00
   outer loop
     vertex -3.408388e+00 -4.937903e+00  7.000000e+01
     vertex -3.601734e+01 -4.156623e+01  7.000000e+01
     vertex -2.750000e+01 -4.763140e+01  7.000000e+01
   endloop
 endfacet
 facet normal  0.000000e+00  0.000000e+00  1.000000e+00
   outer loop
     vertex -3.408388e+00 -4.937903e+00  7.000000e+01
     vertex -4.491064e+00 -3.978736e+00  7.000000e+01
     vertex -3.601734e+01 -4.156623e+01  7.000000e+01
   endloop
 endfacet
 facet normal  0.000000e+00  0.000000e+00  1.000000e+00
   outer loop
     vertex -5.312736e+00 -2.788339e+00  7.000000e+01
     vertex -5.277211e+01 -1.549529e+01  7.000000e+01
     vertex -4.888595e+01 -2.520246e+01  7.000000e+01
   endloop
 endfacet
 facet normal  0.000000e+00  0.000000e+00  1.000000e+00
   outer loop
     vertex -5.312736e+00 -2.788339e+00  7.000000e+01
     vertex -4.888595e+01 -2.520246e+01  7.000000e+01
     vertex -4.323292e+01 -3.399874e+01  7.000000e+01
   endloop
 endfacet
 facet normal  0.000000e+00  0.000000e+00  1.000000e+00
   outer loop
     vertex -5.312736e+00 -2.788339e+00  7.000000e+01
     vertex -4.323292e+01 -3.399874e+01  7.000000e+01
     vertex -4.491064e+00 -3.978736e+00  7.000000e+01
   endloop
 endfacet
 facet normal  0.000000e+00  0.000000e+00  1.000000e+00
   outer loop
     vertex -2.127629e+00 -5.610097e+00  7.000000e+01
     vertex -2.750000e+01 -4.763140e+01  7.000000e+01
     vertex -1.798874e+01 -5.197505e+01  7.000000e+01
   endloop
 endfacet
 facet normal  0.000000e+00  0.000000e+00  1.000000e+00
   outer loop
     vertex -2.127629e+00 -5.610097e+00  7.000000e+01
     vertex -3.408388e+00 -4.937903e+00  7.000000e+01
     vertex -2.750000e+01 -4.763140e+01  7.000000e+01
   endloop
 endfacet
 facet normal  0.000000e+00  0.000000e+00  1.000000e+00
   outer loop
     vertex -5.825651e+00 -1.435894e+00  7.000000e+01
     vertex -5.475096e+01 -5.228082e+00  7.000000e+01
     vertex -5.277211e+01 -1.549529e+01  7.000000e+01
   endloop
 endfacet
 facet normal  0.000000e+00  0.000000e+00  1.000000e+00
   outer loop
     vertex -5.825651e+00 -1.435894e+00  7.000000e+01
     vertex -5.277211e+01 -1.549529e+01  7.000000e+01
     vertex -5.312736e+00 -2.788339e+00  7.000000e+01
   endloop
 endfacet
 facet normal  0.000000e+00  0.000000e+00  1.000000e+00
   outer loop
     vertex -7.232201e-01 -5.956253e+00  7.000000e+01
     vertex -1.798874e+01 -5.197505e+01  7.000000e+01
     vertex -7.827316e+00 -5.444018e+01  7.000000e+01
   endloop
 endfacet
 facet normal  0.000000e+00  0.000000e+00  1.000000e+00
   outer loop
     vertex -7.232201e-01 -5.956253e+00  7.000000e+01
     vertex -7.827316e+00 -5.444018e+01  7.000000e+01
     vertex  2.617005e+00 -5.493770e+01  7.000000e+01
   endloop
 endfacet
 facet normal  0.000000e+00  0.000000e+00  1.000000e+00
   outer loop
     vertex -7.232201e-01 -5.956253e+00  7.000000e+01
     vertex -2.127629e+00 -5.610097e+00  7.000000e+01
     vertex -1.798874e+01 -5.197505e+01  7.000000e+01
   endloop
 endfacet
 facet normal  0.000000e+00  0.000000e+00  1.000000e+00
   outer loop
     vertex -6.000000e+00  6.063859e-15  7.000000e+01
     vertex -5.475096e+01  5.228082e+00  7.000000e+01
     vertex -5.475096e+01 -5.228082e+00  7.000000e+01
   endloop
 endfacet
 facet normal  0.000000e+00  0.000000e+00  1.000000e+00
   outer loop
     vertex -6.000000e+00  6.063859e-15  7.000000e+01
     vertex -5.475096e+01 -5.228082e+00  7.000000e+01
     vertex -5.825651e+00 -1.435894e+00  7.000000e+01
   endloop
 endfacet
 facet normal  0.000000e+00  0.000000e+00  1.000000e+00
   outer loop
     vertex  7.232201e-01 -5.956253e+00  7.000000e+01
     vertex -7.232201e-01 -5.956253e+00  7.000000e+01
     vertex  2.617005e+00 -5.493770e+01  7.000000e+01
   endloop
 endfacet
 facet normal  0.000000e+00  0.000000e+00  1.000000e+00
   outer loop
     vertex  7.232201e-01 -5.956253e+00  7.000000e+01
     vertex  2.617005e+00 -5.493770e+01  7.000000e+01
     vertex  1.296674e+01 -5.344964e+01  7.000000e+01
   endloop
 endfacet
 facet normal  0.000000e+00  0.000000e+00  1.000000e+00
   outer loop
     vertex -5.825651e+00  1.435894e+00  7.000000e+01
     vertex -5.277211e+01  1.549529e+01  7.000000e+01
     vertex -5.475096e+01  5.228082e+00  7.000000e+01
   endloop
 endfacet
 facet normal  0.000000e+00  0.000000e+00  1.000000e+00
   outer loop
     vertex -5.825651e+00  1.435894e+00  7.000000e+01
     vertex -5.475096e+01  5.228082e+00  7.000000e+01
     vertex -6.000000e+00  6.063859e-15  7.000000e+01
   endloop
 endfacet
 facet normal  0.000000e+00  0.000000e+00  1.000000e+00
   outer loop
     vertex  2.127629e+00 -5.610097e+00  7.000000e+01
     vertex  1.296674e+01 -5.344964e+01  7.000000e+01
     vertex  2.284783e+01 -5.002976e+01  7.000000e+01
   endloop
 endfacet
 facet normal  0.000000e+00  0.000000e+00  1.000000e+00
   outer loop
     vertex  2.127629e+00 -5.610097e+00  7.000000e+01
     vertex  7.232201e-01 -5.956253e+00  7.000000e+01
     vertex  1.296674e+01 -5.344964e+01  7.000000e+01
   endloop
 endfacet
 facet normal  0.000000e+00  0.000000e+00  1.000000e+00
   outer loop
     vertex -5.312736e+00  2.788339e+00  7.000000e+01
     vertex -5.277211e+01  1.549529e+01  7.000000e+01
     vertex -5.825651e+00  1.435894e+00  7.000000e+01
   endloop
 endfacet
 facet normal  0.000000e+00  0.000000e+00  1.000000e+00
   outer loop
     vertex -5.312736e+00  2.788339e+00  7.000000e+01
     vertex -4.323292e+01  3.399874e+01  7.000000e+01
     vertex -4.888595e+01  2.520246e+01  7.000000e+01
   endloop
 endfacet
 facet normal  0.000000e+00  0.000000e+00  1.000000e+00
   outer loop
     vertex -5.312736e+00  2.788339e+00  7.000000e+01
     vertex -4.888595e+01  2.520246e+01  7.000000e+01
     vertex -5.277211e+01  1.549529e+01  7.000000e+01
   endloop
 endfacet
 facet normal  0.000000e+00  0.000000e+00  1.000000e+00
   outer loop
     vertex  3.408388e+00 -4.937903e+00  7.000000e+01
     vertex  2.127629e+00 -5.610097e+00  7.000000e+01
     vertex  2.284783e+01 -5.002976e+01  7.000000e+01
   endloop
 endfacet
 facet normal  0.000000e+00  0.000000e+00  1.000000e+00
   outer loop
     vertex  3.408388e+00 -4.937903e+00  7.000000e+01
     vertex  2.284783e+01 -5.002976e+01  7.000000e+01
     vertex  3.190313e+01 -4.480168e+01  7.000000e+01
   endloop
 endfacet
 facet normal  0.000000e+00  0.000000e+00  1.000000e+00
   outer loop
     vertex -4.491064e+00  3.978736e+00  7.000000e+01
     vertex -4.323292e+01  3.399874e+01  7.000000e+01
     vertex -5.312736e+00  2.788339e+00  7.000000e+01
   endloop
 endfacet
 facet normal  0.000000e+00  0.000000e+00  1.000000e+00
   outer loop
     vertex  3.980537e+01 -3.795435e+01  7.000000e+01
     vertex  3.408388e+00 -4.937903e+00  7.000000e+01
     vertex  3.190313e+01 -4.480168e+01  7.000000e+01
   endloop
 endfacet
 facet normal  0.000000e+00  0.000000e+00  1.000000e+00
   outer loop
     vertex  3.980537e+01 -3.795435e+01  7.000000e+01
     vertex  4.491064e+00 -3.978736e+00  7.000000e+01
     vertex  3.408388e+00 -4.937903e+00  7.000000e+01
   endloop
 endfacet
 facet normal  0.000000e+00  0.000000e+00  1.000000e+00
   outer loop
     vertex -3.601734e+01  4.156623e+01  7.000000e+01
     vertex -4.323292e+01  3.399874e+01  7.000000e+01
     vertex -4.491064e+00  3.978736e+00  7.000000e+01
   endloop
 endfacet
 facet normal  0.000000e+00  0.000000e+00  1.000000e+00
   outer loop
     vertex -3.601734e+01  4.156623e+01  7.000000e+01
     vertex -4.491064e+00  3.978736e+00  7.000000e+01
     vertex -3.408388e+00  4.937903e+00  7.000000e+01
   endloop
 endfacet
 facet normal  0.000000e+00  0.000000e+00  1.000000e+00
   outer loop
     vertex  4.626894e+01 -2.973524e+01  7.000000e+01
     vertex  4.491064e+00 -3.978736e+00  7.000000e+01
     vertex  3.980537e+01 -3.795435e+01  7.000000e+01
   endloop
 endfacet
 facet normal  0.000000e+00  0.000000e+00  1.000000e+00
   outer loop
     vertex  4.626894e+01 -2.973524e+01  7.000000e+01
     vertex  5.312736e+00 -2.788339e+00  7.000000e+01
     vertex  4.491064e+00 -3.978736e+00  7.000000e+01
   endloop
 endfacet
 facet normal  0.000000e+00  0.000000e+00  1.000000e+00
   outer loop
     vertex -2.750000e+01  4.763140e+01  7.000000e+01
     vertex -3.601734e+01  4.156623e+01  7.000000e+01
     vertex -3.408388e+00  4.937903e+00  7.000000e+01
   endloop
 endfacet
 facet normal  0.000000e+00  0.000000e+00  1.000000e+00
   outer loop
     vertex -2.750000e+01  4.763140e+01  7.000000e+01
     vertex -3.408388e+00  4.937903e+00  7.000000e+01
     vertex -2.127629e+00  5.610097e+00  7.000000e+01
   endloop
 endfacet
 facet normal  0.000000e+00  0.000000e+00  1.000000e+00
   outer loop
     vertex  5.106024e+01 -2.044144e+01  7.000000e+01
     vertex  5.312736e+00 -2.788339e+00  7.000000e+01
     vertex  4.626894e+01 -2.973524e+01  7.000000e+01
   endloop
 endfacet
 facet normal  0.000000e+00  0.000000e+00  1.000000e+00
   outer loop
     vertex  5.106024e+01 -2.044144e+01  7.000000e+01
     vertex  5.825651e+00 -1.435894e+00  7.000000e+01
     vertex  5.312736e+00 -2.788339e+00  7.000000e+01
   endloop
 endfacet
 facet normal  0.000000e+00  0.000000e+00  1.000000e+00
   outer loop
     vertex -1.798874e+01  5.197505e+01  7.000000e+01
     vertex -2.127629e+00  5.610097e+00  7.000000e+01
     vertex -7.232201e-01  5.956253e+00  7.000000e+01
   endloop
 endfacet
 facet normal  0.000000e+00  0.000000e+00  1.000000e+00
   outer loop
     vertex -1.798874e+01  5.197505e+01  7.000000e+01
     vertex -2.750000e+01  4.763140e+01  7.000000e+01
     vertex -2.127629e+00  5.610097e+00  7.000000e+01
   endloop
 endfacet
 facet normal  0.000000e+00  0.000000e+00  1.000000e+00
   outer loop
     vertex  5.400608e+01 -1.040882e+01  7.000000e+01
     vertex  5.825651e+00 -1.435894e+00  7.000000e+01
     vertex  5.106024e+01 -2.044144e+01  7.000000e+01
   endloop
 endfacet
 facet normal  0.000000e+00  0.000000e+00  1.000000e+00
   outer loop
     vertex  5.400608e+01 -1.040882e+01  7.000000e+01
     vertex  6.000000e+00 -1.469576e-15  7.000000e+01
     vertex  5.825651e+00 -1.435894e+00  7.000000e+01
   endloop
 endfacet
 facet normal  0.000000e+00  0.000000e+00  1.000000e+00
   outer loop
     vertex -7.827316e+00  5.444018e+01  7.000000e+01
     vertex -1.798874e+01  5.197505e+01  7.000000e+01
     vertex -7.232201e-01  5.956253e+00  7.000000e+01
   endloop
 endfacet
 facet normal  0.000000e+00  0.000000e+00  1.000000e+00
   outer loop
     vertex  5.500000e+01 -1.347111e-14  7.000000e+01
     vertex  6.000000e+00 -1.469576e-15  7.000000e+01
     vertex  5.400608e+01 -1.040882e+01  7.000000e+01
   endloop
 endfacet
 facet normal  0.000000e+00  0.000000e+00  1.000000e+00
   outer loop
     vertex  2.617005e+00  5.493770e+01  7.000000e+01
     vertex -7.232201e-01  5.956253e+00  7.000000e+01
     vertex  7.232201e-01  5.956253e+00  7.000000e+01
   endloop
 endfacet
 facet normal  0.000000e+00  0.000000e+00  1.000000e+00
   outer loop
     vertex  2.617005e+00  5.493770e+01  7.000000e+01
     vertex -7.827316e+00  5.444018e+01  7.000000e+01
     vertex -7.232201e-01  5.956253e+00  7.000000e+01
   endloop
 endfacet
 facet normal  0.000000e+00  0.000000e+00  1.000000e+00
   outer loop
     vertex  5.400608e+01  1.040882e+01  7.000000e+01
     vertex  6.000000e+00 -1.469576e-15  7.000000e+01
     vertex  5.500000e+01 -1.347111e-14  7.000000e+01
   endloop
 endfacet
 facet normal  0.000000e+00  0.000000e+00  1.000000e+00
   outer loop
     vertex  5.400608e+01  1.040882e+01  7.000000e+01
     vertex  5.825651e+00  1.435894e+00  7.000000e+01
     vertex  6.000000e+00 -1.469576e-15  7.000000e+01
   endloop
 endfacet
 facet normal  0.000000e+00  0.000000e+00  1.000000e+00
   outer loop
     vertex  1.296674e+01  5.344964e+01  7.000000e+01
     vertex  2.617005e+00  5.493770e+01  7.000000e+01
     vertex  7.232201e-01  5.956253e+00  7.000000e+01
   endloop
 endfacet
 facet normal  0.000000e+00  0.000000e+00  1.000000e+00
   outer loop
     vertex  1.296674e+01  5.344964e+01  7.000000e+01
     vertex  7.232201e-01  5.956253e+00  7.000000e+01
     vertex  2.127629e+00  5.610097e+00  7.000000e+01
   endloop
 endfacet
 facet normal  0.000000e+00  0.000000e+00  1.000000e+00
   outer loop
     vertex  5.106024e+01  2.044144e+01  7.000000e+01
     vertex  5.312736e+00  2.788339e+00  7.000000e+01
     vertex  5.825651e+00  1.435894e+00  7.000000e+01
   endloop
 endfacet
 facet normal  0.000000e+00  0.000000e+00  1.000000e+00
   outer loop
     vertex  5.106024e+01  2.044144e+01  7.000000e+01
     vertex  5.825651e+00  1.435894e+00  7.000000e+01
     vertex  5.400608e+01  1.040882e+01  7.000000e+01
   endloop
 endfacet
 facet normal  0.000000e+00  0.000000e+00  1.000000e+00
   outer loop
     vertex  2.284783e+01  5.002976e+01  7.000000e+01
     vertex  1.296674e+01  5.344964e+01  7.000000e+01
     vertex  2.127629e+00  5.610097e+00  7.000000e+01
   endloop
 endfacet
 facet normal  0.000000e+00  0.000000e+00  1.000000e+00
   outer loop
     vertex  2.284783e+01  5.002976e+01  7.000000e+01
     vertex  2.127629e+00  5.610097e+00  7.000000e+01
     vertex  3.408388e+00  4.937903e+00  7.000000e+01
   endloop
 endfacet
 facet normal  0.000000e+00  0.000000e+00  1.000000e+00
   outer loop
     vertex  4.626894e+01  2.973524e+01  7.000000e+01
     vertex  4.491064e+00  3.978736e+00  7.000000e+01
     vertex  5.312736e+00  2.788339e+00  7.000000e+01
   endloop
 endfacet
 facet normal  0.000000e+00  0.000000e+00  1.000000e+00
   outer loop
     vertex  4.626894e+01  2.973524e+01  7.000000e+01
     vertex  5.312736e+00  2.788339e+00  7.000000e+01
     vertex  5.106024e+01  2.044144e+01  7.000000e+01
   endloop
 endfacet
 facet normal  0.000000e+00  0.000000e+00  1.000000e+00
   outer loop
     vertex  3.190313e+01  4.480168e+01  7.000000e+01
     vertex  2.284783e+01  5.002976e+01  7.000000e+01
     vertex  3.408388e+00  4.937903e+00  7.000000e+01
   endloop
 endfacet
 facet normal  0.000000e+00  0.000000e+00  1.000000e+00
   outer loop
     vertex  3.980537e+01  3.795435e+01  7.000000e+01
     vertex  3.408388e+00  4.937903e+00  7.000000e+01
     vertex  4.491064e+00  3.978736e+00  7.000000e+01
   endloop
 endfacet
 facet normal  0.000000e+00  0.000000e+00  1.000000e+00
   outer loop
     vertex  3.980537e+01  3.795435e+01  7.000000e+01
     vertex  4.491064e+00  3.978736e+00  7.000000e+01
     vertex  4.626894e+01  2.973524e+01  7.000000e+01
   endloop
 endfacet
 facet normal  0.000000e+00  0.000000e+00  1.000000e+00
   outer loop
     vertex  3.980537e+01  3.795435e+01  7.000000e+01
     vertex  3.190313e+01  4.480168e+01  7.000000e+01
     vertex  3.408388e+00  4.937903e+00  7.000000e+01
   endloop
 endfacet
 facet normal -9.927089e-01 -1.205367e-01  0.000000e+00
   outer loop
     vertex  5.825651e+00  1.435894e+00  7.000000e+01
     vertex  6.000000e+00 -1.469576e-15  6.000000e+01
     vertex  6.000000e+00 -1.469576e-15  7.000000e+01
   endloop
 endfacet
 facet normal -9.927089e-01 -1.205367e-01 -0.000000e+00
   outer loop
     vertex  5.825651e+00  1.435894e+00  7.000000e+01
     vertex  5.825651e+00  1.435894e+00  6.000000e+01
     vertex  6.000000e+00 -1.469576e-15  6.000000e+01
   endloop
 endfacet
 facet normal -9.350162e-01 -3.546049e-01 -0.000000e+00
   outer loop
     vertex  5.312736e+00  2.788339e+00  7.000000e+01
     vertex  5.312736e+00  2.788339e+00  6.000000e+01
     vertex  5.825651e+00  1.435894e+00  6.000000e+01
   endloop
 endfacet
 facet normal -8.229839e-01 -5.680647e-01 -0.000000e+00
   outer loop
     vertex  5.312736e+00  2.788339e+00  7.000000e+01
     vertex  4.491064e+00  3.978736e+00  6.000000e+01
     vertex  5.312736e+00  2.788339e+00  6.000000e+01
   endloop
 endfacet
 facet normal -9.350162e-01 -3.546049e-01  0.000000e+00
   outer loop
     vertex  5.312736e+00  2.788339e+00  7.000000e+01
     vertex  5.825651e+00  1.435894e+00  6.000000e+01
     vertex  5.825651e+00  1.435894e+00  7.000000e+01
   endloop
 endfacet
 facet normal -8.229839e-01 -5.680647e-01 -0.000000e+00
   outer loop
     vertex  4.491064e+00  3.978736e+00  7.000000e+01
     vertex  4.491064e+00  3.978736e+00  6.000000e+01
     vertex  5.312736e+00  2.788339e+00  7.000000e+01
   endloop
 endfacet
 facet normal -6.631227e-01 -7.485107e-01 -0.000000e+00
   outer loop
     vertex  3.408388e+00  4.937903e+00  7.000000e+01
     vertex  3.408388e+00  4.937903e+00  6.000000e+01
     vertex  4.491064e+00  3.978736e+00  6.000000e+01
   endloop
 endfacet
 facet normal -6.631227e-01 -7.485107e-01  0.000000e+00
   outer loop
     vertex  3.408388e+00  4.937903e+00  7.000000e+01
     vertex  4.491064e+00  3.978736e+00  6.000000e+01
     vertex  4.491064e+00  3.978736e+00  7.000000e+01
   endloop
 endfacet
 facet normal -4.647232e-01 -8.854560e-01 -0.000000e+00
   outer loop
     vertex  2.127629e+00  5.610097e+00  7.000000e+01
     vertex  2.127629e+00  5.610097e+00  6.000000e+01
     vertex  3.408388e+00  4.937903e+00  6.000000e+01
   endloop
 endfacet
 facet normal -2.393157e-01 -9.709418e-01 -0.000000e+00
   outer loop
     vertex  2.127629e+00  5.610097e+00  7.000000e+01
     vertex  7.232201e-01  5.956253e+00  6.000000e+01
     vertex  2.127629e+00  5.610097e+00  6.000000e+01
   endloop
 endfacet
 facet normal -4.647232e-01 -8.854560e-01  0.000000e+00
   outer loop
     vertex  2.127629e+00  5.610097e+00  7.000000e+01
     vertex  3.408388e+00  4.937903e+00  6.000000e+01
     vertex  3.408388e+00  4.937903e+00  7.000000e+01
   endloop
 endfacet
 facet normal -2.393157e-01 -9.709418e-01 -0.000000e+00
   outer loop
     vertex  7.232201e-01  5.956253e+00  7.000000e+01
     vertex  7.232201e-01  5.956253e+00  6.000000e+01
     vertex  2.127629e+00  5.610097e+00  7.000000e+01
   endloop
 endfacet
 facet normal  0.000000e+00 -1.000000e+00  0.000000e+00
   outer loop
     vertex -7.232201e-01  5.956253e+00  7.000000e+01
     vertex -7.232201e-01  5.956253e+00  6.000000e+01
     vertex  7.232201e-01  5.956253e+00  6.000000e+01
   endloop
 endfacet
 facet normal  0.000000e+00 -1.000000e+00  0.000000e+00
   outer loop
     vertex -7.232201e-01  5.956253e+00  7.000000e+01
     vertex  7.232201e-01  5.956253e+00  6.000000e+01
     vertex  7.232201e-01  5.956253e+00  7.000000e+01
   endloop
 endfacet
 facet normal  2.393157e-01 -9.709418e-01  0.000000e+00
   outer loop
     vertex -2.127629e+00  5.610097e+00  7.000000e+01
     vertex -2.127629e+00  5.610097e+00  6.000000e+01
     vertex -7.232201e-01  5.956253e+00  6.000000e+01
   endloop
 endfacet
 facet normal  2.393157e-01 -9.709418e-01  0.000000e+00
   outer loop
     vertex -2.127629e+00  5.610097e+00  7.000000e+01
     vertex -7.232201e-01  5.956253e+00  6.000000e+01
     vertex -7.232201e-01  5.956253e+00  7.000000e+01
   endloop
 endfacet
 facet normal  4.647232e-01 -8.854560e-01  0.000000e+00
   outer loop
     vertex -3.408388e+00  4.937903e+00  7.000000e+01
     vertex -3.408388e+00  4.937903e+00  6.000000e+01
     vertex -2.127629e+00  5.610097e+00  6.000000e+01
   endloop
 endfacet
 facet normal  4.647232e-01 -8.854560e-01  0.000000e+00
   outer loop
     vertex -3.408388e+00  4.937903e+00  7.000000e+01
     vertex -2.127629e+00  5.610097e+00  6.000000e+01
     vertex -2.127629e+00  5.610097e+00  7.000000e+01
   endloop
 endfacet
 facet normal  6.631227e-01 -7.485107e-01  0.000000e+00
   outer loop
     vertex -4.491064e+00  3.978736e+00  7.000000e+01
     vertex -4.491064e+00  3.978736e+00  6.000000e+01
     vertex -3.408388e+00  4.937903e+00  6.000000e+01
   endloop
 endfacet
 facet normal  8.229839e-01 -5.680647e-01  0.000000e+00
   outer loop
     vertex -4.491064e+00  3.978736e+00  7.000000e+01
     vertex -5.312736e+00  2.788339e+00  6.000000e+01
     vertex -4.491064e+00  3.978736e+00  6.000000e+01
   endloop
 endfacet
 facet normal  6.631227e-01 -7.485107e-01  0.000000e+00
   outer loop
     vertex -4.491064e+00  3.978736e+00  7.000000e+01
     vertex -3.408388e+00  4.937903e+00  6.000000e+01
     vertex -3.408388e+00  4.937903e+00  7.000000e+01
   endloop
 endfacet
 facet normal  8.229839e-01 -5.680647e-01  0.000000e+00
   outer loop
     vertex -5.312736e+00  2.788339e+00  7.000000e+01
     vertex -5.312736e+00  2.788339e+00  6.000000e+01
     vertex -4.491064e+00  3.978736e+00  7.000000e+01
   endloop
 endfacet
 facet normal  9.350162e-01 -3.546049e-01  0.000000e+00
   outer loop
     vertex -5.312736e+00  2.788339e+00  7.000000e+01
     vertex -5.825651e+00  1.435894e+00  6.000000e+01
     vertex -5.312736e+00  2.788339e+00  6.000000e+01
   endloop
 endfacet
 facet normal  9.350162e-01 -3.546049e-01  0.000000e+00
   outer loop
     vertex -5.825651e+00  1.435894e+00  7.000000e+01
     vertex -5.825651e+00  1.435894e+00  6.000000e+01
     vertex -5.312736e+00  2.788339e+00  7.000000e+01
   endloop
 endfacet
 facet normal  9.927089e-01 -1.205367e-01  0.000000e+00
   outer loop
     vertex -6.000000e+00  6.063859e-15  7.000000e+01
     vertex -5.825651e+00  1.435894e+00  6.000000e+01
     vertex -5.825651e+00  1.435894e+00  7.000000e+01
   endloop
 endfacet
 facet normal  9.927089e-01 -1.205367e-01  0.000000e+00
   outer loop
     vertex -6.000000e+00  6.063859e-15  7.000000e+01
     vertex -6.000000e+00  6.063859e-15  6.000000e+01
     vertex -5.825651e+00  1.435894e+00  6.000000e+01
   endloop
 endfacet
 facet normal  9.927089e-01  1.205367e-01  0.000000e+00
   outer loop
     vertex -6.000000e+00  6.063859e-15  7.000000e+01
     vertex -5.825651e+00 -1.435894e+00  6.000000e+01
     vertex -6.000000e+00  6.063859e-15  6.000000e+01
   endloop
 endfacet
 facet normal  9.927089e-01  1.205367e-01  0.000000e+00
   outer loop
     vertex -5.825651e+00 -1.435894e+00  7.000000e+01
     vertex -5.825651e+00 -1.435894e+00  6.000000e+01
     vertex -6.000000e+00  6.063859e-15  7.000000e+01
   endloop
 endfacet
 facet normal  9.350162e-01  3.546049e-01  0.000000e+00
   outer loop
     vertex -5.825651e+00 -1.435894e+00  7.000000e+01
     vertex -5.312736e+00 -2.788339e+00  6.000000e+01
     vertex -5.825651e+00 -1.435894e+00  6.000000e+01
   endloop
 endfacet
 facet normal  9.350162e-01  3.546049e-01  0.000000e+00
   outer loop
     vertex -5.312736e+00 -2.788339e+00  7.000000e+01
     vertex -5.312736e+00 -2.788339e+00  6.000000e+01
     vertex -5.825651e+00 -1.435894e+00  7.000000e+01
   endloop
 endfacet
 facet normal  8.229839e-01  5.680647e-01  0.000000e+00
   outer loop
     vertex -4.491064e+00 -3.978736e+00  7.000000e+01
     vertex -5.312736e+00 -2.788339e+00  6.000000e+01
     vertex -5.312736e+00 -2.788339e+00  7.000000e+01
   endloop
 endfacet
 facet normal  8.229839e-01  5.680647e-01  0.000000e+00
   outer loop
     vertex -4.491064e+00 -3.978736e+00  7.000000e+01
     vertex -4.491064e+00 -3.978736e+00  6.000000e+01
     vertex -5.312736e+00 -2.788339e+00  6.000000e+01
   endloop
 endfacet
 facet normal  6.631227e-01  7.485107e-01  0.000000e+00
   outer loop
     vertex -3.408388e+00 -4.937903e+00  7.000000e+01
     vertex -4.491064e+00 -3.978736e+00  6.000000e+01
     vertex -4.491064e+00 -3.978736e+00  7.000000e+01
   endloop
 endfacet
 facet normal  6.631227e-01  7.485107e-01  0.000000e+00
   outer loop
     vertex -3.408388e+00 -4.937903e+00  7.000000e+01
     vertex -3.408388e+00 -4.937903e+00  6.000000e+01
     vertex -4.491064e+00 -3.978736e+00  6.000000e+01
   endloop
 endfacet
 facet normal  4.647232e-01  8.854560e-01  0.000000e+00
   outer loop
     vertex -2.127629e+00 -5.610097e+00  7.000000e+01
     vertex -3.408388e+00 -4.937903e+00  6.000000e+01
     vertex -3.408388e+00 -4.937903e+00  7.000000e+01
   endloop
 endfacet
 facet normal  4.647232e-01  8.854560e-01  0.000000e+00
   outer loop
     vertex -2.127629e+00 -5.610097e+00  7.000000e+01
     vertex -2.127629e+00 -5.610097e+00  6.000000e+01
     vertex -3.408388e+00 -4.937903e+00  6.000000e+01
   endloop
 endfacet
 facet normal  2.393157e-01  9.709418e-01  0.000000e+00
   outer loop
     vertex -7.232201e-01 -5.956253e+00  7.000000e+01
     vertex -2.127629e+00 -5.610097e+00  6.000000e+01
     vertex -2.127629e+00 -5.610097e+00  7.000000e+01
   endloop
 endfacet
 facet normal  2.393157e-01  9.709418e-01  0.000000e+00
   outer loop
     vertex -7.232201e-01 -5.956253e+00  7.000000e+01
     vertex -7.232201e-01 -5.956253e+00  6.000000e+01
     vertex -2.127629e+00 -5.610097e+00  6.000000e+01
   endloop
 endfacet
 facet normal  2.456177e-15  1.000000e+00  0.000000e+00
   outer loop
     vertex -7.232201e-01 -5.956253e+00  7.000000e+01
     vertex  7.232201e-01 -5.956253e+00  6.000000e+01
     vertex -7.232201e-01 -5.956253e+00  6.000000e+01
   endloop
 endfacet
 facet normal  2.456177e-15  1.000000e+00  0.000000e+00
   outer loop
     vertex  7.232201e-01 -5.956253e+00  7.000000e+01
     vertex  7.232201e-01 -5.956253e+00  6.000000e+01
     vertex -7.232201e-01 -5.956253e+00  7.000000e+01
   endloop
 endfacet
 facet normal -2.393157e-01  9.709418e-01  0.000000e+00
   outer loop
     vertex  2.127629e+00 -5.610097e+00  7.000000e+01
     vertex  7.232201e-01 -5.956253e+00  6.000000e+01
     vertex  7.232201e-01 -5.956253e+00  7.000000e+01
   endloop
 endfacet
 facet normal -2.393157e-01  9.709418e-01  0.000000e+00
   outer loop
     vertex  2.127629e+00 -5.610097e+00  7.000000e+01
     vertex  2.127629e+00 -5.610097e+00  6.000000e+01
     vertex  7.232201e-01 -5.956253e+00  6.000000e+01
   endloop
 endfacet
 facet normal -4.647232e-01  8.854560e-01  0.000000e+00
   outer loop
     vertex  3.408388e+00 -4.937903e+00  7.000000e+01
     vertex  2.127629e+00 -5.610097e+00  6.000000e+01
     vertex  2.127629e+00 -5.610097e+00  7.000000e+01
   endloop
 endfacet
 facet normal -4.647232e-01  8.854560e-01  0.000000e+00
   outer loop
     vertex  3.408388e+00 -4.937903e+00  7.000000e+01
     vertex  3.408388e+00 -4.937903e+00  6.000000e+01
     vertex  2.127629e+00 -5.610097e+00  6.000000e+01
   endloop
 endfacet
 facet normal -6.631227e-01  7.485107e-01  0.000000e+00
   outer loop
     vertex  3.408388e+00 -4.937903e+00  7.000000e+01
     vertex  4.491064e+00 -3.978736e+00  6.000000e+01
     vertex  3.408388e+00 -4.937903e+00  6.000000e+01
   endloop
 endfacet
 facet normal -6.631227e-01  7.485107e-01  0.000000e+00
   outer loop
     vertex  4.491064e+00 -3.978736e+00  7.000000e+01
     vertex  4.491064e+00 -3.978736e+00  6.000000e+01
     vertex  3.408388e+00 -4.937903e+00  7.000000e+01
   endloop
 endfacet
 facet normal -8.229839e-01  5.680647e-01  0.000000e+00
   outer loop
     vertex  4.491064e+00 -3.978736e+00  7.000000e+01
     vertex  5.312736e+00 -2.788339e+00  6.000000e+01
     vertex  4.491064e+00 -3.978736e+00  6.000000e+01
   endloop
 endfacet
 facet normal -8.229839e-01  5.680647e-01  0.000000e+00
   outer loop
     vertex  5.312736e+00 -2.788339e+00  7.000000e+01
     vertex  5.312736e+00 -2.788339e+00  6.000000e+01
     vertex  4.491064e+00 -3.978736e+00  7.000000e+01
   endloop
 endfacet
 facet normal -9.350162e-01  3.546049e-01  0.000000e+00
   outer loop
     vertex  5.825651e+00 -1.435894e+00  7.000000e+01
     vertex  5.825651e+00 -1.435894e+00  6.000000e+01
     vertex  5.312736e+00 -2.788339e+00  6.000000e+01
   endloop
 endfacet
 facet normal -9.927089e-01  1.205367e-01  0.000000e+00
   outer loop
     vertex  5.825651e+00 -1.435894e+00  7.000000e+01
     vertex  6.000000e+00 -1.469576e-15  6.000000e+01
     vertex  5.825651e+00 -1.435894e+00  6.000000e+01
   endloop
 endfacet
 facet normal -9.350162e-01  3.546049e-01  0.000000e+00
   outer loop
     vertex  5.825651e+00 -1.435894e+00  7.000000e+01
     vertex  5.312736e+00 -2.788339e+00  6.000000e+01
     vertex  5.312736e+00 -2.788339e+00  7.000000e+01
   endloop
 endfacet
 facet normal -9.927089e-01  1.205367e-01  0.000000e+00
   outer loop
     vertex  6.000000e+00 -1.469576e-15  7.000000e+01
     vertex  6.000000e+00 -1.469576e-15  6.000000e+01
     vertex  5.825651e+00 -1.435894e+00  7.000000e+01
   endloop
 endfacet
endsolid
