solid 
 facet normal  3.362391e-01  2.404830e-02  9.414696e-01
   outer loop
     vertex  9.601268e+01  1.380454e+01  0.000000e+00
     vertex  9.000000e+01 -2.204364e-14  2.500000e+00
     vertex  9.700000e+01 -2.375815e-14  0.000000e+00
   endloop
 endfacet
 facet normal  3.352562e-01  2.453759e-02  9.418074e-01
   outer loop
     vertex  8.904090e+01  1.310411e+01  2.500000e+00
     vertex  9.000000e+01 -2.204364e-14  2.500000e+00
     vertex  9.601268e+01  1.380454e+01  0.000000e+00
   endloop
 endfacet
 facet normal  3.302673e-01  7.184526e-02  9.411492e-01
   outer loop
     vertex  9.307082e+01  2.732806e+01  0.000000e+00
     vertex  8.904090e+01  1.310411e+01  2.500000e+00
     vertex  9.601268e+01  1.380454e+01  0.000000e+00
   endloop
 endfacet
 facet normal  3.272027e-01  7.288750e-02  9.421390e-01
   outer loop
     vertex  8.618405e+01  2.592892e+01  2.500000e+00
     vertex  8.904090e+01  1.310411e+01  2.500000e+00
     vertex  9.307082e+01  2.732806e+01  0.000000e+00
   endloop
 endfacet
 facet normal  3.174822e-01  1.184148e-01  9.408416e-01
   outer loop
     vertex  8.823430e+01  4.029526e+01  0.000000e+00
     vertex  8.618405e+01  2.592892e+01  2.500000e+00
     vertex  9.307082e+01  2.732806e+01  0.000000e+00
   endloop
 endfacet
 facet normal  3.122808e-01  1.194373e-01  9.424518e-01
   outer loop
     vertex  8.149034e+01  3.820110e+01  2.500000e+00
     vertex  8.618405e+01  2.592892e+01  2.500000e+00
     vertex  8.823430e+01  4.029526e+01  0.000000e+00
   endloop
 endfacet
 facet normal  2.981149e-01  1.627830e-01  9.405473e-01
   outer loop
     vertex  8.160159e+01  5.244216e+01  0.000000e+00
     vertex  8.149034e+01  3.820110e+01  2.500000e+00
     vertex  8.823430e+01  4.029526e+01  0.000000e+00
   endloop
 endfacet
 facet normal  2.908376e-01  1.632260e-01  9.427464e-01
   outer loop
     vertex  7.505980e+01  4.965910e+01  2.500000e+00
     vertex  8.149034e+01  3.820110e+01  2.500000e+00
     vertex  8.160159e+01  5.244216e+01  0.000000e+00
   endloop
 endfacet
 facet normal  2.725358e-01  2.040178e-01  9.402664e-01
   outer loop
     vertex  7.330771e+01  6.352149e+01  0.000000e+00
     vertex  7.505980e+01  4.965910e+01  2.500000e+00
     vertex  8.160159e+01  5.244216e+01  0.000000e+00
   endloop
 endfacet
 facet normal  2.633525e-01  2.033542e-01  9.430231e-01
   outer loop
     vertex  6.702950e+01  6.005869e+01  2.500000e+00
     vertex  7.505980e+01  4.965910e+01  2.500000e+00
     vertex  7.330771e+01  6.352149e+01  0.000000e+00
   endloop
 endfacet
 facet normal  2.412479e-01  2.412479e-01  9.399994e-01
   outer loop
     vertex  6.352149e+01  7.330771e+01  0.000000e+00
     vertex  6.702950e+01  6.005869e+01  2.500000e+00
     vertex  7.330771e+01  6.352149e+01  0.000000e+00
   endloop
 endfacet
 facet normal  2.304272e-01  2.390023e-01  9.432822e-01
   outer loop
     vertex  5.757057e+01  6.917824e+01  2.500000e+00
     vertex  6.702950e+01  6.005869e+01  2.500000e+00
     vertex  6.352149e+01  7.330771e+01  0.000000e+00
   endloop
 endfacet
 facet normal  2.048763e-01  2.736827e-01  9.397465e-01
   outer loop
     vertex  5.244216e+01  8.160159e+01  0.000000e+00
     vertex  5.757057e+01  6.917824e+01  2.500000e+00
     vertex  6.352149e+01  7.330771e+01  0.000000e+00
   endloop
 endfacet
 facet normal  1.927723e-01  2.694463e-01  9.435240e-01
   outer loop
     vertex  4.688463e+01  7.682338e+01  2.500000e+00
     vertex  5.757057e+01  6.917824e+01  2.500000e+00
     vertex  5.244216e+01  8.160159e+01  0.000000e+00
   endloop
 endfacet
 facet normal  1.641558e-01  3.006289e-01  9.395079e-01
   outer loop
     vertex  4.029526e+01  8.823430e+01  0.000000e+00
     vertex  4.688463e+01  7.682338e+01  2.500000e+00
     vertex  5.244216e+01  8.160159e+01  0.000000e+00
   endloop
 endfacet
 facet normal  1.511931e-01  2.940726e-01  9.437489e-01
   outer loop
     vertex  3.519942e+01  8.283116e+01  2.500000e+00
     vertex  4.688463e+01  7.682338e+01  2.500000e+00
     vertex  4.029526e+01  8.823430e+01  0.000000e+00
   endloop
 endfacet
 facet normal  1.199154e-01  3.215055e-01  9.392840e-01
   outer loop
     vertex  2.732806e+01  9.307082e+01  0.000000e+00
     vertex  3.519942e+01  8.283116e+01  2.500000e+00
     vertex  4.029526e+01  8.823430e+01  0.000000e+00
   endloop
 endfacet
 facet normal  1.065725e-01  3.123896e-01  9.439571e-01
   outer loop
     vertex  2.276400e+01  8.707353e+01  2.500000e+00
     vertex  3.519942e+01  8.283116e+01  2.500000e+00
     vertex  2.732806e+01  9.307082e+01  0.000000e+00
   endloop
 endfacet
 facet normal  7.306128e-02  3.358573e-01  9.390750e-01
   outer loop
     vertex  1.380454e+01  9.601268e+01  0.000000e+00
     vertex  2.276400e+01  8.707353e+01  2.500000e+00
     vertex  2.732806e+01  9.307082e+01  0.000000e+00
   endloop
 endfacet
 facet normal  5.985281e-02  3.240378e-01  9.441489e-01
   outer loop
     vertex  9.843409e+00  8.946009e+01  2.500000e+00
     vertex  2.276400e+01  8.707353e+01  2.500000e+00
     vertex  1.380454e+01  9.601268e+01  0.000000e+00
   endloop
 endfacet
 facet normal  2.455790e-02  3.433643e-01  9.388812e-01
   outer loop
     vertex  2.747786e-14  9.700000e+01  0.000000e+00
     vertex  9.843409e+00  8.946009e+01  2.500000e+00
     vertex  1.380454e+01  9.601268e+01  0.000000e+00
   endloop
 endfacet
 facet normal  1.201631e-02  3.287960e-01  9.443245e-01
   outer loop
     vertex -3.286982e+00  8.993996e+01  2.500000e+00
     vertex  9.843409e+00  8.946009e+01  2.500000e+00
     vertex  2.747786e-14  9.700000e+01  0.000000e+00
   endloop
 endfacet
 facet normal -2.459260e-02  3.438495e-01  9.387027e-01
   outer loop
     vertex -1.380454e+01  9.601268e+01  0.000000e+00
     vertex -3.286982e+00  8.993996e+01  2.500000e+00
     vertex  2.747786e-14  9.700000e+01  0.000000e+00
   endloop
 endfacet
 facet normal -3.593466e-02  3.265859e-01  9.444842e-01
   outer loop
     vertex -1.634732e+01  8.850291e+01  2.500000e+00
     vertex -3.286982e+00  8.993996e+01  2.500000e+00
     vertex -1.380454e+01  9.601268e+01  0.000000e+00
   endloop
 endfacet
 facet normal -7.337140e-02  3.372829e-01  9.385398e-01
   outer loop
     vertex -2.732806e+01  9.307082e+01  0.000000e+00
     vertex -1.634732e+01  8.850291e+01  2.500000e+00
     vertex -1.380454e+01  9.601268e+01  0.000000e+00
   endloop
 endfacet
 facet normal -8.299831e-02  3.174730e-01  9.446281e-01
   outer loop
     vertex -2.905924e+01  8.517958e+01  2.500000e+00
     vertex -1.634732e+01  8.850291e+01  2.500000e+00
     vertex -2.732806e+01  9.307082e+01  0.000000e+00
   endloop
 endfacet
 facet normal -1.207647e-01  3.237827e-01  9.383926e-01
   outer loop
     vertex -4.029526e+01  8.823430e+01  0.000000e+00
     vertex -2.905924e+01  8.517958e+01  2.500000e+00
     vertex -2.732806e+01  9.307082e+01  0.000000e+00
   endloop
 endfacet
 facet normal -1.281937e-01  3.016650e-01  9.447564e-01
   outer loop
     vertex -4.115181e+01  8.004079e+01  2.500000e+00
     vertex -2.905924e+01  8.517958e+01  2.500000e+00
     vertex -4.029526e+01  8.823430e+01  0.000000e+00
   endloop
 endfacet
 facet normal -1.657853e-01  3.036131e-01  9.382613e-01
   outer loop
     vertex -5.244216e+01  8.160159e+01  0.000000e+00
     vertex -4.115181e+01  8.004079e+01  2.500000e+00
     vertex -4.029526e+01  8.823430e+01  0.000000e+00
   endloop
 endfacet
 facet normal -1.705809e-01  2.795074e-01  9.448692e-01
   outer loop
     vertex -5.236730e+01  7.319608e+01  2.500000e+00
     vertex -4.115181e+01  8.004079e+01  2.500000e+00
     vertex -5.244216e+01  8.160159e+01  0.000000e+00
   endloop
 endfacet
 facet normal -2.074936e-01  2.771791e-01  9.381461e-01
   outer loop
     vertex -6.352149e+01  7.330771e+01  0.000000e+00
     vertex -5.236730e+01  7.319608e+01  2.500000e+00
     vertex -5.244216e+01  8.160159e+01  0.000000e+00
   endloop
 endfacet
 facet normal -2.092796e-01  2.514756e-01  9.449667e-01
   outer loop
     vertex -6.246668e+01  6.479131e+01  2.500000e+00
     vertex -5.236730e+01  7.319608e+01  2.500000e+00
     vertex -6.352149e+01  7.330771e+01  0.000000e+00
   endloop
 endfacet
 facet normal -2.450179e-01  2.450179e-01  9.380471e-01
   outer loop
     vertex -7.330771e+01  6.352149e+01  0.000000e+00
     vertex -6.246668e+01  6.479131e+01  2.500000e+00
     vertex -6.352149e+01  7.330771e+01  0.000000e+00
   endloop
 endfacet
 facet normal -2.434874e-01  2.181656e-01  9.450490e-01
   outer loop
     vertex -7.123468e+01  5.500563e+01  2.500000e+00
     vertex -6.246668e+01  6.479131e+01  2.500000e+00
     vertex -7.330771e+01  6.352149e+01  0.000000e+00
   endloop
 endfacet
 facet normal -2.775728e-01  2.077884e-01  9.379645e-01
   outer loop
     vertex -8.160159e+01  5.244216e+01  0.000000e+00
     vertex -7.123468e+01  5.500563e+01  2.500000e+00
     vertex -7.330771e+01  6.352149e+01  0.000000e+00
   endloop
 endfacet
 facet normal -2.724957e-01  1.802814e-01  9.451163e-01
   outer loop
     vertex -7.848445e+01  4.404761e+01  2.500000e+00
     vertex -7.123468e+01  5.500563e+01  2.500000e+00
     vertex -8.160159e+01  5.244216e+01  0.000000e+00
   endloop
 endfacet
 facet normal -3.044761e-01  1.662565e-01  9.378982e-01
   outer loop
     vertex -8.823430e+01  4.029526e+01  0.000000e+00
     vertex -7.848445e+01  4.404761e+01  2.500000e+00
     vertex -8.160159e+01  5.244216e+01  0.000000e+00
   endloop
 endfacet
 facet normal -3.251637e-01  1.212798e-01  9.378485e-01
   outer loop
     vertex -8.406145e+01  3.215078e+01  2.500000e+00
     vertex -8.823430e+01  4.029526e+01  0.000000e+00
     vertex -9.307082e+01  2.732806e+01  0.000000e+00
   endloop
 endfacet
 facet normal -2.957042e-01  1.386204e-01  9.451685e-01
   outer loop
     vertex -8.406145e+01  3.215078e+01  2.500000e+00
     vertex -7.848445e+01  4.404761e+01  2.500000e+00
     vertex -8.823430e+01  4.029526e+01  0.000000e+00
   endloop
 endfacet
 facet normal -3.392016e-01  7.378879e-02  9.378153e-01
   outer loop
     vertex -8.784683e+01  1.956872e+01  2.500000e+00
     vertex -9.307082e+01  2.732806e+01  0.000000e+00
     vertex -9.601268e+01  1.380454e+01  0.000000e+00
   endloop
 endfacet
 facet normal -3.126330e-01  9.405727e-02  9.452057e-01
   outer loop
     vertex -8.784683e+01  1.956872e+01  2.500000e+00
     vertex -8.406145e+01  3.215078e+01  2.500000e+00
     vertex -9.307082e+01  2.732806e+01  0.000000e+00
   endloop
 endfacet
 facet normal -3.462950e-01  2.476751e-02  9.377987e-01
   outer loop
     vertex -8.975991e+01  6.569578e+00  2.500000e+00
     vertex -9.601268e+01  1.380454e+01  0.000000e+00
     vertex -9.700000e+01  9.803238e-14  0.000000e+00
   endloop
 endfacet
 facet normal -3.229323e-01  4.752579e-02  9.452280e-01
   outer loop
     vertex -8.975991e+01  6.569578e+00  2.500000e+00
     vertex -8.784683e+01  1.956872e+01  2.500000e+00
     vertex -9.601268e+01  1.380454e+01  0.000000e+00
   endloop
 endfacet
 facet normal -3.462950e-01 -2.476751e-02  9.377987e-01
   outer loop
     vertex -8.975991e+01 -6.569578e+00  2.500000e+00
     vertex -9.700000e+01  9.803238e-14  0.000000e+00
     vertex -9.601268e+01 -1.380454e+01  0.000000e+00
   endloop
 endfacet
 facet normal -3.263892e-01  7.060224e-16  9.452355e-01
   outer loop
     vertex -8.975991e+01 -6.569578e+00  2.500000e+00
     vertex -8.975991e+01  6.569578e+00  2.500000e+00
     vertex -9.700000e+01  9.803238e-14  0.000000e+00
   endloop
 endfacet
 facet normal -3.392016e-01 -7.378879e-02  9.378153e-01
   outer loop
     vertex -8.784683e+01 -1.956872e+01  2.500000e+00
     vertex -9.601268e+01 -1.380454e+01  0.000000e+00
     vertex -9.307082e+01 -2.732806e+01  0.000000e+00
   endloop
 endfacet
 facet normal -3.229323e-01 -4.752579e-02  9.452280e-01
   outer loop
     vertex -8.784683e+01 -1.956872e+01  2.500000e+00
     vertex -8.975991e+01 -6.569578e+00  2.500000e+00
     vertex -9.601268e+01 -1.380454e+01  0.000000e+00
   endloop
 endfacet
 facet normal -3.251637e-01 -1.212798e-01  9.378485e-01
   outer loop
     vertex -8.406145e+01 -3.215078e+01  2.500000e+00
     vertex -9.307082e+01 -2.732806e+01  0.000000e+00
     vertex -8.823430e+01 -4.029526e+01  0.000000e+00
   endloop
 endfacet
 facet normal -3.126330e-01 -9.405727e-02  9.452057e-01
   outer loop
     vertex -8.406145e+01 -3.215078e+01  2.500000e+00
     vertex -8.784683e+01 -1.956872e+01  2.500000e+00
     vertex -9.307082e+01 -2.732806e+01  0.000000e+00
   endloop
 endfacet
 facet normal -3.044761e-01 -1.662565e-01  9.378982e-01
   outer loop
     vertex -7.848445e+01 -4.404761e+01  2.500000e+00
     vertex -8.823430e+01 -4.029526e+01  0.000000e+00
     vertex -8.160159e+01 -5.244216e+01  0.000000e+00
   endloop
 endfacet
 facet normal -2.957042e-01 -1.386204e-01  9.451685e-01
   outer loop
     vertex -7.848445e+01 -4.404761e+01  2.500000e+00
     vertex -8.406145e+01 -3.215078e+01  2.500000e+00
     vertex -8.823430e+01 -4.029526e+01  0.000000e+00
   endloop
 endfacet
 facet normal -2.775728e-01 -2.077884e-01  9.379645e-01
   outer loop
     vertex -7.123468e+01 -5.500563e+01  2.500000e+00
     vertex -8.160159e+01 -5.244216e+01  0.000000e+00
     vertex -7.330771e+01 -6.352149e+01  0.000000e+00
   endloop
 endfacet
 facet normal -2.724957e-01 -1.802814e-01  9.451163e-01
   outer loop
     vertex -7.123468e+01 -5.500563e+01  2.500000e+00
     vertex -7.848445e+01 -4.404761e+01  2.500000e+00
     vertex -8.160159e+01 -5.244216e+01  0.000000e+00
   endloop
 endfacet
 facet normal -2.450179e-01 -2.450179e-01  9.380471e-01
   outer loop
     vertex -6.246668e+01 -6.479131e+01  2.500000e+00
     vertex -7.330771e+01 -6.352149e+01  0.000000e+00
     vertex -6.352149e+01 -7.330771e+01  0.000000e+00
   endloop
 endfacet
 facet normal -2.434874e-01 -2.181656e-01  9.450490e-01
   outer loop
     vertex -6.246668e+01 -6.479131e+01  2.500000e+00
     vertex -7.123468e+01 -5.500563e+01  2.500000e+00
     vertex -7.330771e+01 -6.352149e+01  0.000000e+00
   endloop
 endfacet
 facet normal -2.092796e-01 -2.514756e-01  9.449667e-01
   outer loop
     vertex -5.236730e+01 -7.319608e+01  2.500000e+00
     vertex -6.246668e+01 -6.479131e+01  2.500000e+00
     vertex -6.352149e+01 -7.330771e+01  0.000000e+00
   endloop
 endfacet
 facet normal -2.074936e-01 -2.771791e-01  9.381461e-01
   outer loop
     vertex -5.236730e+01 -7.319608e+01  2.500000e+00
     vertex -6.352149e+01 -7.330771e+01  0.000000e+00
     vertex -5.244216e+01 -8.160159e+01  0.000000e+00
   endloop
 endfacet
 facet normal -1.705809e-01 -2.795074e-01  9.448692e-01
   outer loop
     vertex -4.115181e+01 -8.004079e+01  2.500000e+00
     vertex -5.236730e+01 -7.319608e+01  2.500000e+00
     vertex -5.244216e+01 -8.160159e+01  0.000000e+00
   endloop
 endfacet
 facet normal -1.657853e-01 -3.036131e-01  9.382613e-01
   outer loop
     vertex -4.115181e+01 -8.004079e+01  2.500000e+00
     vertex -5.244216e+01 -8.160159e+01  0.000000e+00
     vertex -4.029526e+01 -8.823430e+01  0.000000e+00
   endloop
 endfacet
 facet normal -1.281937e-01 -3.016650e-01  9.447564e-01
   outer loop
     vertex -2.905924e+01 -8.517958e+01  2.500000e+00
     vertex -4.115181e+01 -8.004079e+01  2.500000e+00
     vertex -4.029526e+01 -8.823430e+01  0.000000e+00
   endloop
 endfacet
 facet normal -1.207647e-01 -3.237827e-01  9.383926e-01
   outer loop
     vertex -2.905924e+01 -8.517958e+01  2.500000e+00
     vertex -4.029526e+01 -8.823430e+01  0.000000e+00
     vertex -2.732806e+01 -9.307082e+01  0.000000e+00
   endloop
 endfacet
 facet normal -8.299831e-02 -3.174730e-01  9.446281e-01
   outer loop
     vertex -1.634732e+01 -8.850291e+01  2.500000e+00
     vertex -2.905924e+01 -8.517958e+01  2.500000e+00
     vertex -2.732806e+01 -9.307082e+01  0.000000e+00
   endloop
 endfacet
 facet normal -7.337140e-02 -3.372829e-01  9.385398e-01
   outer loop
     vertex -1.634732e+01 -8.850291e+01  2.500000e+00
     vertex -2.732806e+01 -9.307082e+01  0.000000e+00
     vertex -1.380454e+01 -9.601268e+01  0.000000e+00
   endloop
 endfacet
 facet normal -3.593466e-02 -3.265859e-01  9.444842e-01
   outer loop
     vertex -3.286982e+00 -8.993996e+01  2.500000e+00
     vertex -1.634732e+01 -8.850291e+01  2.500000e+00
     vertex -1.380454e+01 -9.601268e+01  0.000000e+00
   endloop
 endfacet
 facet normal -2.459260e-02 -3.438495e-01  9.387027e-01
   outer loop
     vertex -3.286982e+00 -8.993996e+01  2.500000e+00
     vertex -1.380454e+01 -9.601268e+01  0.000000e+00
     vertex -1.901252e-13 -9.700000e+01  0.000000e+00
   endloop
 endfacet
 facet normal  1.201631e-02 -3.287960e-01  9.443245e-01
   outer loop
     vertex  9.843409e+00 -8.946009e+01  2.500000e+00
     vertex -3.286982e+00 -8.993996e+01  2.500000e+00
     vertex -1.901252e-13 -9.700000e+01  0.000000e+00
   endloop
 endfacet
 facet normal  2.455790e-02 -3.433643e-01  9.388812e-01
   outer loop
     vertex  9.843409e+00 -8.946009e+01  2.500000e+00
     vertex -1.901252e-13 -9.700000e+01  0.000000e+00
     vertex  1.380454e+01 -9.601268e+01  0.000000e+00
   endloop
 endfacet
 facet normal  5.985281e-02 -3.240378e-01  9.441489e-01
   outer loop
     vertex  2.276400e+01 -8.707353e+01  2.500000e+00
     vertex  9.843409e+00 -8.946009e+01  2.500000e+00
     vertex  1.380454e+01 -9.601268e+01  0.000000e+00
   endloop
 endfacet
 facet normal  7.306128e-02 -3.358573e-01  9.390750e-01
   outer loop
     vertex  2.276400e+01 -8.707353e+01  2.500000e+00
     vertex  1.380454e+01 -9.601268e+01  0.000000e+00
     vertex  2.732806e+01 -9.307082e+01  0.000000e+00
   endloop
 endfacet
 facet normal  1.065725e-01 -3.123896e-01  9.439571e-01
   outer loop
     vertex  3.519942e+01 -8.283116e+01  2.500000e+00
     vertex  2.276400e+01 -8.707353e+01  2.500000e+00
     vertex  2.732806e+01 -9.307082e+01  0.000000e+00
   endloop
 endfacet
 facet normal  1.199154e-01 -3.215055e-01  9.392840e-01
   outer loop
     vertex  3.519942e+01 -8.283116e+01  2.500000e+00
     vertex  2.732806e+01 -9.307082e+01  0.000000e+00
     vertex  4.029526e+01 -8.823430e+01  0.000000e+00
   endloop
 endfacet
 facet normal  1.511931e-01 -2.940726e-01  9.437489e-01
   outer loop
     vertex  4.688463e+01 -7.682338e+01  2.500000e+00
     vertex  3.519942e+01 -8.283116e+01  2.500000e+00
     vertex  4.029526e+01 -8.823430e+01  0.000000e+00
   endloop
 endfacet
 facet normal  1.641558e-01 -3.006289e-01  9.395079e-01
   outer loop
     vertex  4.688463e+01 -7.682338e+01  2.500000e+00
     vertex  4.029526e+01 -8.823430e+01  0.000000e+00
     vertex  5.244216e+01 -8.160159e+01  0.000000e+00
   endloop
 endfacet
 facet normal  1.927723e-01 -2.694463e-01  9.435240e-01
   outer loop
     vertex  5.757057e+01 -6.917824e+01  2.500000e+00
     vertex  4.688463e+01 -7.682338e+01  2.500000e+00
     vertex  5.244216e+01 -8.160159e+01  0.000000e+00
   endloop
 endfacet
 facet normal  2.048763e-01 -2.736827e-01  9.397465e-01
   outer loop
     vertex  5.757057e+01 -6.917824e+01  2.500000e+00
     vertex  5.244216e+01 -8.160159e+01  0.000000e+00
     vertex  6.352149e+01 -7.330771e+01  0.000000e+00
   endloop
 endfacet
 facet normal  2.304272e-01 -2.390023e-01  9.432822e-01
   outer loop
     vertex  6.702950e+01 -6.005869e+01  2.500000e+00
     vertex  5.757057e+01 -6.917824e+01  2.500000e+00
     vertex  6.352149e+01 -7.330771e+01  0.000000e+00
   endloop
 endfacet
 facet normal  2.412479e-01 -2.412479e-01  9.399994e-01
   outer loop
     vertex  6.702950e+01 -6.005869e+01  2.500000e+00
     vertex  6.352149e+01 -7.330771e+01  0.000000e+00
     vertex  7.330771e+01 -6.352149e+01  0.000000e+00
   endloop
 endfacet
 facet normal  2.633525e-01 -2.033542e-01  9.430231e-01
   outer loop
     vertex  7.505980e+01 -4.965910e+01  2.500000e+00
     vertex  6.702950e+01 -6.005869e+01  2.500000e+00
     vertex  7.330771e+01 -6.352149e+01  0.000000e+00
   endloop
 endfacet
 facet normal  2.725358e-01 -2.040178e-01  9.402664e-01
   outer loop
     vertex  7.505980e+01 -4.965910e+01  2.500000e+00
     vertex  7.330771e+01 -6.352149e+01  0.000000e+00
     vertex  8.160159e+01 -5.244216e+01  0.000000e+00
   endloop
 endfacet
 facet normal  2.908376e-01 -1.632260e-01  9.427464e-01
   outer loop
     vertex  8.149034e+01 -3.820110e+01  2.500000e+00
     vertex  7.505980e+01 -4.965910e+01  2.500000e+00
     vertex  8.160159e+01 -5.244216e+01  0.000000e+00
   endloop
 endfacet
 facet normal  2.981149e-01 -1.627830e-01  9.405473e-01
   outer loop
     vertex  8.149034e+01 -3.820110e+01  2.500000e+00
     vertex  8.160159e+01 -5.244216e+01  0.000000e+00
     vertex  8.823430e+01 -4.029526e+01  0.000000e+00
   endloop
 endfacet
 facet normal  3.122808e-01 -1.194373e-01  9.424518e-01
   outer loop
     vertex  8.618405e+01 -2.592892e+01  2.500000e+00
     vertex  8.149034e+01 -3.820110e+01  2.500000e+00
     vertex  8.823430e+01 -4.029526e+01  0.000000e+00
   endloop
 endfacet
 facet normal  3.174822e-01 -1.184148e-01  9.408416e-01
   outer loop
     vertex  8.618405e+01 -2.592892e+01  2.500000e+00
     vertex  8.823430e+01 -4.029526e+01  0.000000e+00
     vertex  9.307082e+01 -2.732806e+01  0.000000e+00
   endloop
 endfacet
 facet normal  3.272027e-01 -7.288750e-02  9.421390e-01
   outer loop
     vertex  8.904090e+01 -1.310411e+01  2.500000e+00
     vertex  8.618405e+01 -2.592892e+01  2.500000e+00
     vertex  9.307082e+01 -2.732806e+01  0.000000e+00
   endloop
 endfacet
 facet normal  3.302673e-01 -7.184526e-02  9.411492e-01
   outer loop
     vertex  8.904090e+01 -1.310411e+01  2.500000e+00
     vertex  9.307082e+01 -2.732806e+01  0.000000e+00
     vertex  9.601268e+01 -1.380454e+01  0.000000e+00
   endloop
 endfacet
 facet normal  3.352562e-01 -2.453759e-02  9.418074e-01
   outer loop
     vertex  9.000000e+01 -2.204364e-14  2.500000e+00
     vertex  8.904090e+01 -1.310411e+01  2.500000e+00
     vertex  9.601268e+01 -1.380454e+01  0.000000e+00
   endloop
 endfacet
 facet normal  3.362391e-01 -2.404830e-02  9.414696e-01
   outer loop
     vertex  9.000000e+01 -2.204364e-14  2.500000e+00
     vertex  9.601268e+01 -1.380454e+01  0.000000e+00
     vertex  9.700000e+01 -2.375815e-14  0.000000e+00
   endloop
 endfacet
 facet normal  3.362391e-01  2.404830e-02 -9.414696e-01
   outer loop
     vertex  9.601268e+01  1.380454e+01  5.000000e+00
     vertex  9.700000e+01 -2.375815e-14  5.000000e+00
     vertex  9.000000e+01 -2.204364e-14  2.500000e+00
   endloop
 endfacet
 facet normal  3.352562e-01  2.453759e-02 -9.418074e-01
   outer loop
     vertex  9.601268e+01  1.380454e+01  5.000000e+00
     vertex  9.000000e+01 -2.204364e-14  2.500000e+00
     vertex  8.904090e+01  1.310411e+01  2.500000e+00
   endloop
 endfacet
 facet normal  3.272027e-01  7.288750e-02 -9.421390e-01
   outer loop
     vertex  9.307082e+01  2.732806e+01  5.000000e+00
     vertex  8.904090e+01  1.310411e+01  2.500000e+00
     vertex  8.618405e+01  2.592892e+01  2.500000e+00
   endloop
 endfacet
 facet normal  3.302673e-01  7.184526e-02 -9.411492e-01
   outer loop
     vertex  9.307082e+01  2.732806e+01  5.000000e+00
     vertex  9.601268e+01  1.380454e+01  5.000000e+00
     vertex  8.904090e+01  1.310411e+01  2.500000e+00
   endloop
 endfacet
 facet normal  3.122808e-01  1.194373e-01 -9.424518e-01
   outer loop
     vertex  8.823430e+01  4.029526e+01  5.000000e+00
     vertex  8.618405e+01  2.592892e+01  2.500000e+00
     vertex  8.149034e+01  3.820110e+01  2.500000e+00
   endloop
 endfacet
 facet normal  3.174822e-01  1.184148e-01 -9.408416e-01
   outer loop
     vertex  8.823430e+01  4.029526e+01  5.000000e+00
     vertex  9.307082e+01  2.732806e+01  5.000000e+00
     vertex  8.618405e+01  2.592892e+01  2.500000e+00
   endloop
 endfacet
 facet normal  2.981149e-01  1.627830e-01 -9.405473e-01
   outer loop
     vertex  8.160159e+01  5.244216e+01  5.000000e+00
     vertex  8.823430e+01  4.029526e+01  5.000000e+00
     vertex  8.149034e+01  3.820110e+01  2.500000e+00
   endloop
 endfacet
 facet normal  2.908376e-01  1.632260e-01 -9.427464e-01
   outer loop
     vertex  8.160159e+01  5.244216e+01  5.000000e+00
     vertex  8.149034e+01  3.820110e+01  2.500000e+00
     vertex  7.505980e+01  4.965910e+01  2.500000e+00
   endloop
 endfacet
 facet normal  2.725358e-01  2.040178e-01 -9.402664e-01
   outer loop
     vertex  7.330771e+01  6.352149e+01  5.000000e+00
     vertex  8.160159e+01  5.244216e+01  5.000000e+00
     vertex  7.505980e+01  4.965910e+01  2.500000e+00
   endloop
 endfacet
 facet normal  2.633525e-01  2.033542e-01 -9.430231e-01
   outer loop
     vertex  7.330771e+01  6.352149e+01  5.000000e+00
     vertex  7.505980e+01  4.965910e+01  2.500000e+00
     vertex  6.702950e+01  6.005869e+01  2.500000e+00
   endloop
 endfacet
 facet normal  2.412479e-01  2.412479e-01 -9.399994e-01
   outer loop
     vertex  6.352149e+01  7.330771e+01  5.000000e+00
     vertex  7.330771e+01  6.352149e+01  5.000000e+00
     vertex  6.702950e+01  6.005869e+01  2.500000e+00
   endloop
 endfacet
 facet normal  2.304272e-01  2.390023e-01 -9.432822e-01
   outer loop
     vertex  6.352149e+01  7.330771e+01  5.000000e+00
     vertex  6.702950e+01  6.005869e+01  2.500000e+00
     vertex  5.757057e+01  6.917824e+01  2.500000e+00
   endloop
 endfacet
 facet normal  2.048763e-01  2.736827e-01 -9.397465e-01
   outer loop
     vertex  5.244216e+01  8.160159e+01  5.000000e+00
     vertex  6.352149e+01  7.330771e+01  5.000000e+00
     vertex  5.757057e+01  6.917824e+01  2.500000e+00
   endloop
 endfacet
 facet normal  1.927723e-01  2.694463e-01 -9.435240e-01
   outer loop
     vertex  5.244216e+01  8.160159e+01  5.000000e+00
     vertex  5.757057e+01  6.917824e+01  2.500000e+00
     vertex  4.688463e+01  7.682338e+01  2.500000e+00
   endloop
 endfacet
 facet normal  1.641558e-01  3.006289e-01 -9.395079e-01
   outer loop
     vertex  4.029526e+01  8.823430e+01  5.000000e+00
     vertex  5.244216e+01  8.160159e+01  5.000000e+00
     vertex  4.688463e+01  7.682338e+01  2.500000e+00
   endloop
 endfacet
 facet normal  1.511931e-01  2.940726e-01 -9.437489e-01
   outer loop
     vertex  4.029526e+01  8.823430e+01  5.000000e+00
     vertex  4.688463e+01  7.682338e+01  2.500000e+00
     vertex  3.519942e+01  8.283116e+01  2.500000e+00
   endloop
 endfacet
 facet normal  1.199154e-01  3.215055e-01 -9.392840e-01
   outer loop
     vertex  2.732806e+01  9.307082e+01  5.000000e+00
     vertex  4.029526e+01  8.823430e+01  5.000000e+00
     vertex  3.519942e+01  8.283116e+01  2.500000e+00
   endloop
 endfacet
 facet normal  1.065725e-01  3.123896e-01 -9.439571e-01
   outer loop
     vertex  2.732806e+01  9.307082e+01  5.000000e+00
     vertex  3.519942e+01  8.283116e+01  2.500000e+00
     vertex  2.276400e+01  8.707353e+01  2.500000e+00
   endloop
 endfacet
 facet normal  7.306128e-02  3.358573e-01 -9.390750e-01
   outer loop
     vertex  1.380454e+01  9.601268e+01  5.000000e+00
     vertex  2.732806e+01  9.307082e+01  5.000000e+00
     vertex  2.276400e+01  8.707353e+01  2.500000e+00
   endloop
 endfacet
 facet normal  5.985281e-02  3.240378e-01 -9.441489e-01
   outer loop
     vertex  1.380454e+01  9.601268e+01  5.000000e+00
     vertex  2.276400e+01  8.707353e+01  2.500000e+00
     vertex  9.843409e+00  8.946009e+01  2.500000e+00
   endloop
 endfacet
 facet normal  2.455790e-02  3.433643e-01 -9.388812e-01
   outer loop
     vertex  2.747786e-14  9.700000e+01  5.000000e+00
     vertex  1.380454e+01  9.601268e+01  5.000000e+00
     vertex  9.843409e+00  8.946009e+01  2.500000e+00
   endloop
 endfacet
 facet normal  1.201631e-02  3.287960e-01 -9.443245e-01
   outer loop
     vertex  2.747786e-14  9.700000e+01  5.000000e+00
     vertex  9.843409e+00  8.946009e+01  2.500000e+00
     vertex -3.286982e+00  8.993996e+01  2.500000e+00
   endloop
 endfacet
 facet normal -2.459260e-02  3.438495e-01 -9.387027e-01
   outer loop
     vertex -1.380454e+01  9.601268e+01  5.000000e+00
     vertex  2.747786e-14  9.700000e+01  5.000000e+00
     vertex -3.286982e+00  8.993996e+01  2.500000e+00
   endloop
 endfacet
 facet normal -3.593466e-02  3.265859e-01 -9.444842e-01
   outer loop
     vertex -1.380454e+01  9.601268e+01  5.000000e+00
     vertex -3.286982e+00  8.993996e+01  2.500000e+00
     vertex -1.634732e+01  8.850291e+01  2.500000e+00
   endloop
 endfacet
 facet normal -7.337140e-02  3.372829e-01 -9.385398e-01
   outer loop
     vertex -2.732806e+01  9.307082e+01  5.000000e+00
     vertex -1.380454e+01  9.601268e+01  5.000000e+00
     vertex -1.634732e+01  8.850291e+01  2.500000e+00
   endloop
 endfacet
 facet normal -8.299831e-02  3.174730e-01 -9.446281e-01
   outer loop
     vertex -2.732806e+01  9.307082e+01  5.000000e+00
     vertex -1.634732e+01  8.850291e+01  2.500000e+00
     vertex -2.905924e+01  8.517958e+01  2.500000e+00
   endloop
 endfacet
 facet normal -1.207647e-01  3.237827e-01 -9.383926e-01
   outer loop
     vertex -4.029526e+01  8.823430e+01  5.000000e+00
     vertex -2.732806e+01  9.307082e+01  5.000000e+00
     vertex -2.905924e+01  8.517958e+01  2.500000e+00
   endloop
 endfacet
 facet normal -1.281937e-01  3.016650e-01 -9.447564e-01
   outer loop
     vertex -4.029526e+01  8.823430e+01  5.000000e+00
     vertex -2.905924e+01  8.517958e+01  2.500000e+00
     vertex -4.115181e+01  8.004079e+01  2.500000e+00
   endloop
 endfacet
 facet normal -1.657853e-01  3.036131e-01 -9.382613e-01
   outer loop
     vertex -5.244216e+01  8.160159e+01  5.000000e+00
     vertex -4.029526e+01  8.823430e+01  5.000000e+00
     vertex -4.115181e+01  8.004079e+01  2.500000e+00
   endloop
 endfacet
 facet normal -1.705809e-01  2.795074e-01 -9.448692e-01
   outer loop
     vertex -5.244216e+01  8.160159e+01  5.000000e+00
     vertex -4.115181e+01  8.004079e+01  2.500000e+00
     vertex -5.236730e+01  7.319608e+01  2.500000e+00
   endloop
 endfacet
 facet normal -2.074936e-01  2.771791e-01 -9.381461e-01
   outer loop
     vertex -6.352149e+01  7.330771e+01  5.000000e+00
     vertex -5.244216e+01  8.160159e+01  5.000000e+00
     vertex -5.236730e+01  7.319608e+01  2.500000e+00
   endloop
 endfacet
 facet normal -2.092796e-01  2.514756e-01 -9.449667e-01
   outer loop
     vertex -6.352149e+01  7.330771e+01  5.000000e+00
     vertex -5.236730e+01  7.319608e+01  2.500000e+00
     vertex -6.246668e+01  6.479131e+01  2.500000e+00
   endloop
 endfacet
 facet normal -2.450179e-01  2.450179e-01 -9.380471e-01
   outer loop
     vertex -7.330771e+01  6.352149e+01  5.000000e+00
     vertex -6.352149e+01  7.330771e+01  5.000000e+00
     vertex -6.246668e+01  6.479131e+01  2.500000e+00
   endloop
 endfacet
 facet normal -2.434874e-01  2.181656e-01 -9.450490e-01
   outer loop
     vertex -7.330771e+01  6.352149e+01  5.000000e+00
     vertex -6.246668e+01  6.479131e+01  2.500000e+00
     vertex -7.123468e+01  5.500563e+01  2.500000e+00
   endloop
 endfacet
 facet normal -2.724957e-01  1.802814e-01 -9.451163e-01
   outer loop
     vertex -8.160159e+01  5.244216e+01  5.000000e+00
     vertex -7.123468e+01  5.500563e+01  2.500000e+00
     vertex -7.848445e+01  4.404761e+01  2.500000e+00
   endloop
 endfacet
 facet normal -2.775728e-01  2.077884e-01 -9.379645e-01
   outer loop
     vertex -8.160159e+01  5.244216e+01  5.000000e+00
     vertex -7.330771e+01  6.352149e+01  5.000000e+00
     vertex -7.123468e+01  5.500563e+01  2.500000e+00
   endloop
 endfacet
 facet normal -2.957042e-01  1.386204e-01 -9.451685e-01
   outer loop
     vertex -8.823430e+01  4.029526e+01  5.000000e+00
     vertex -7.848445e+01  4.404761e+01  2.500000e+00
     vertex -8.406145e+01  3.215078e+01  2.500000e+00
   endloop
 endfacet
 facet normal -3.044761e-01  1.662565e-01 -9.378982e-01
   outer loop
     vertex -8.823430e+01  4.029526e+01  5.000000e+00
     vertex -8.160159e+01  5.244216e+01  5.000000e+00
     vertex -7.848445e+01  4.404761e+01  2.500000e+00
   endloop
 endfacet
 facet normal -3.126330e-01  9.405727e-02 -9.452057e-01
   outer loop
     vertex -9.307082e+01  2.732806e+01  5.000000e+00
     vertex -8.406145e+01  3.215078e+01  2.500000e+00
     vertex -8.784683e+01  1.956872e+01  2.500000e+00
   endloop
 endfacet
 facet normal -3.251637e-01  1.212798e-01 -9.378485e-01
   outer loop
     vertex -9.307082e+01  2.732806e+01  5.000000e+00
     vertex -8.823430e+01  4.029526e+01  5.000000e+00
     vertex -8.406145e+01  3.215078e+01  2.500000e+00
   endloop
 endfacet
 facet normal -3.229323e-01  4.752579e-02 -9.452280e-01
   outer loop
     vertex -9.601268e+01  1.380454e+01  5.000000e+00
     vertex -8.784683e+01  1.956872e+01  2.500000e+00
     vertex -8.975991e+01  6.569578e+00  2.500000e+00
   endloop
 endfacet
 facet normal -3.392016e-01  7.378879e-02 -9.378153e-01
   outer loop
     vertex -9.601268e+01  1.380454e+01  5.000000e+00
     vertex -9.307082e+01  2.732806e+01  5.000000e+00
     vertex -8.784683e+01  1.956872e+01  2.500000e+00
   endloop
 endfacet
 facet normal -3.263892e-01  7.060224e-16 -9.452355e-01
   outer loop
     vertex -9.700000e+01  9.803238e-14  5.000000e+00
     vertex -8.975991e+01  6.569578e+00  2.500000e+00
     vertex -8.975991e+01 -6.569578e+00  2.500000e+00
   endloop
 endfacet
 facet normal -3.462950e-01  2.476751e-02 -9.377987e-01
   outer loop
     vertex -9.700000e+01  9.803238e-14  5.000000e+00
     vertex -9.601268e+01  1.380454e+01  5.000000e+00
     vertex -8.975991e+01  6.569578e+00  2.500000e+00
   endloop
 endfacet
 facet normal -3.229323e-01 -4.752579e-02 -9.452280e-01
   outer loop
     vertex -9.601268e+01 -1.380454e+01  5.000000e+00
     vertex -8.975991e+01 -6.569578e+00  2.500000e+00
     vertex -8.784683e+01 -1.956872e+01  2.500000e+00
   endloop
 endfacet
 facet normal -3.462950e-01 -2.476751e-02 -9.377987e-01
   outer loop
     vertex -9.601268e+01 -1.380454e+01  5.000000e+00
     vertex -9.700000e+01  9.803238e-14  5.000000e+00
     vertex -8.975991e+01 -6.569578e+00  2.500000e+00
   endloop
 endfacet
 facet normal -3.126330e-01 -9.405727e-02 -9.452057e-01
   outer loop
     vertex -9.307082e+01 -2.732806e+01  5.000000e+00
     vertex -8.784683e+01 -1.956872e+01  2.500000e+00
     vertex -8.406145e+01 -3.215078e+01  2.500000e+00
   endloop
 endfacet
 facet normal -3.392016e-01 -7.378879e-02 -9.378153e-01
   outer loop
     vertex -9.307082e+01 -2.732806e+01  5.000000e+00
     vertex -9.601268e+01 -1.380454e+01  5.000000e+00
     vertex -8.784683e+01 -1.956872e+01  2.500000e+00
   endloop
 endfacet
 facet normal -3.251637e-01 -1.212798e-01 -9.378485e-01
   outer loop
     vertex -8.823430e+01 -4.029526e+01  5.000000e+00
     vertex -9.307082e+01 -2.732806e+01  5.000000e+00
     vertex -8.406145e+01 -3.215078e+01  2.500000e+00
   endloop
 endfacet
 facet normal -2.957042e-01 -1.386204e-01 -9.451685e-01
   outer loop
     vertex -7.848445e+01 -4.404761e+01  2.500000e+00
     vertex -8.823430e+01 -4.029526e+01  5.000000e+00
     vertex -8.406145e+01 -3.215078e+01  2.500000e+00
   endloop
 endfacet
 facet normal -3.044761e-01 -1.662565e-01 -9.378982e-01
   outer loop
     vertex -8.160159e+01 -5.244216e+01  5.000000e+00
     vertex -8.823430e+01 -4.029526e+01  5.000000e+00
     vertex -7.848445e+01 -4.404761e+01  2.500000e+00
   endloop
 endfacet
 facet normal -2.724957e-01 -1.802814e-01 -9.451163e-01
   outer loop
     vertex -7.123468e+01 -5.500563e+01  2.500000e+00
     vertex -8.160159e+01 -5.244216e+01  5.000000e+00
     vertex -7.848445e+01 -4.404761e+01  2.500000e+00
   endloop
 endfacet
 facet normal -2.775728e-01 -2.077884e-01 -9.379645e-01
   outer loop
     vertex -7.330771e+01 -6.352149e+01  5.000000e+00
     vertex -8.160159e+01 -5.244216e+01  5.000000e+00
     vertex -7.123468e+01 -5.500563e+01  2.500000e+00
   endloop
 endfacet
 facet normal -2.434874e-01 -2.181656e-01 -9.450490e-01
   outer loop
     vertex -6.246668e+01 -6.479131e+01  2.500000e+00
     vertex -7.330771e+01 -6.352149e+01  5.000000e+00
     vertex -7.123468e+01 -5.500563e+01  2.500000e+00
   endloop
 endfacet
 facet normal -2.450179e-01 -2.450179e-01 -9.380471e-01
   outer loop
     vertex -6.352149e+01 -7.330771e+01  5.000000e+00
     vertex -7.330771e+01 -6.352149e+01  5.000000e+00
     vertex -6.246668e+01 -6.479131e+01  2.500000e+00
   endloop
 endfacet
 facet normal -2.092796e-01 -2.514756e-01 -9.449667e-01
   outer loop
     vertex -5.236730e+01 -7.319608e+01  2.500000e+00
     vertex -6.352149e+01 -7.330771e+01  5.000000e+00
     vertex -6.246668e+01 -6.479131e+01  2.500000e+00
   endloop
 endfacet
 facet normal -2.074936e-01 -2.771791e-01 -9.381461e-01
   outer loop
     vertex -5.244216e+01 -8.160159e+01  5.000000e+00
     vertex -6.352149e+01 -7.330771e+01  5.000000e+00
     vertex -5.236730e+01 -7.319608e+01  2.500000e+00
   endloop
 endfacet
 facet normal -1.705809e-01 -2.795074e-01 -9.448692e-01
   outer loop
     vertex -4.115181e+01 -8.004079e+01  2.500000e+00
     vertex -5.244216e+01 -8.160159e+01  5.000000e+00
     vertex -5.236730e+01 -7.319608e+01  2.500000e+00
   endloop
 endfacet
 facet normal -1.657853e-01 -3.036131e-01 -9.382613e-01
   outer loop
     vertex -4.029526e+01 -8.823430e+01  5.000000e+00
     vertex -5.244216e+01 -8.160159e+01  5.000000e+00
     vertex -4.115181e+01 -8.004079e+01  2.500000e+00
   endloop
 endfacet
 facet normal -1.281937e-01 -3.016650e-01 -9.447564e-01
   outer loop
     vertex -2.905924e+01 -8.517958e+01  2.500000e+00
     vertex -4.029526e+01 -8.823430e+01  5.000000e+00
     vertex -4.115181e+01 -8.004079e+01  2.500000e+00
   endloop
 endfacet
 facet normal -1.207647e-01 -3.237827e-01 -9.383926e-01
   outer loop
     vertex -2.732806e+01 -9.307082e+01  5.000000e+00
     vertex -4.029526e+01 -8.823430e+01  5.000000e+00
     vertex -2.905924e+01 -8.517958e+01  2.500000e+00
   endloop
 endfacet
 facet normal -8.299831e-02 -3.174730e-01 -9.446281e-01
   outer loop
     vertex -1.634732e+01 -8.850291e+01  2.500000e+00
     vertex -2.732806e+01 -9.307082e+01  5.000000e+00
     vertex -2.905924e+01 -8.517958e+01  2.500000e+00
   endloop
 endfacet
 facet normal -7.337140e-02 -3.372829e-01 -9.385398e-01
   outer loop
     vertex -1.380454e+01 -9.601268e+01  5.000000e+00
     vertex -2.732806e+01 -9.307082e+01  5.000000e+00
     vertex -1.634732e+01 -8.850291e+01  2.500000e+00
   endloop
 endfacet
 facet normal -3.593466e-02 -3.265859e-01 -9.444842e-01
   outer loop
     vertex -3.286982e+00 -8.993996e+01  2.500000e+00
     vertex -1.380454e+01 -9.601268e+01  5.000000e+00
     vertex -1.634732e+01 -8.850291e+01  2.500000e+00
   endloop
 endfacet
 facet normal -2.459260e-02 -3.438495e-01 -9.387027e-01
   outer loop
     vertex -1.901252e-13 -9.700000e+01  5.000000e+00
     vertex -1.380454e+01 -9.601268e+01  5.000000e+00
     vertex -3.286982e+00 -8.993996e+01  2.500000e+00
   endloop
 endfacet
 facet normal  1.201631e-02 -3.287960e-01 -9.443245e-01
   outer loop
     vertex  9.843409e+00 -8.946009e+01  2.500000e+00
     vertex -1.901252e-13 -9.700000e+01  5.000000e+00
     vertex -3.286982e+00 -8.993996e+01  2.500000e+00
   endloop
 endfacet
 facet normal  2.455790e-02 -3.433643e-01 -9.388812e-01
   outer loop
     vertex  1.380454e+01 -9.601268e+01  5.000000e+00
     vertex -1.901252e-13 -9.700000e+01  5.000000e+00
     vertex  9.843409e+00 -8.946009e+01  2.500000e+00
   endloop
 endfacet
 facet normal  5.985281e-02 -3.240378e-01 -9.441489e-01
   outer loop
     vertex  2.276400e+01 -8.707353e+01  2.500000e+00
     vertex  1.380454e+01 -9.601268e+01  5.000000e+00
     vertex  9.843409e+00 -8.946009e+01  2.500000e+00
   endloop
 endfacet
 facet normal  7.306128e-02 -3.358573e-01 -9.390750e-01
   outer loop
     vertex  2.732806e+01 -9.307082e+01  5.000000e+00
     vertex  1.380454e+01 -9.601268e+01  5.000000e+00
     vertex  2.276400e+01 -8.707353e+01  2.500000e+00
   endloop
 endfacet
 facet normal  1.065725e-01 -3.123896e-01 -9.439571e-01
   outer loop
     vertex  3.519942e+01 -8.283116e+01  2.500000e+00
     vertex  2.732806e+01 -9.307082e+01  5.000000e+00
     vertex  2.276400e+01 -8.707353e+01  2.500000e+00
   endloop
 endfacet
 facet normal  1.199154e-01 -3.215055e-01 -9.392840e-01
   outer loop
     vertex  4.029526e+01 -8.823430e+01  5.000000e+00
     vertex  2.732806e+01 -9.307082e+01  5.000000e+00
     vertex  3.519942e+01 -8.283116e+01  2.500000e+00
   endloop
 endfacet
 facet normal  1.511931e-01 -2.940726e-01 -9.437489e-01
   outer loop
     vertex  4.688463e+01 -7.682338e+01  2.500000e+00
     vertex  4.029526e+01 -8.823430e+01  5.000000e+00
     vertex  3.519942e+01 -8.283116e+01  2.500000e+00
   endloop
 endfacet
 facet normal  1.641558e-01 -3.006289e-01 -9.395079e-01
   outer loop
     vertex  5.244216e+01 -8.160159e+01  5.000000e+00
     vertex  4.029526e+01 -8.823430e+01  5.000000e+00
     vertex  4.688463e+01 -7.682338e+01  2.500000e+00
   endloop
 endfacet
 facet normal  1.927723e-01 -2.694463e-01 -9.435240e-01
   outer loop
     vertex  5.757057e+01 -6.917824e+01  2.500000e+00
     vertex  5.244216e+01 -8.160159e+01  5.000000e+00
     vertex  4.688463e+01 -7.682338e+01  2.500000e+00
   endloop
 endfacet
 facet normal  2.048763e-01 -2.736827e-01 -9.397465e-01
   outer loop
     vertex  6.352149e+01 -7.330771e+01  5.000000e+00
     vertex  5.244216e+01 -8.160159e+01  5.000000e+00
     vertex  5.757057e+01 -6.917824e+01  2.500000e+00
   endloop
 endfacet
 facet normal  2.304272e-01 -2.390023e-01 -9.432822e-01
   outer loop
     vertex  6.702950e+01 -6.005869e+01  2.500000e+00
     vertex  6.352149e+01 -7.330771e+01  5.000000e+00
     vertex  5.757057e+01 -6.917824e+01  2.500000e+00
   endloop
 endfacet
 facet normal  2.412479e-01 -2.412479e-01 -9.399994e-01
   outer loop
     vertex  7.330771e+01 -6.352149e+01  5.000000e+00
     vertex  6.352149e+01 -7.330771e+01  5.000000e+00
     vertex  6.702950e+01 -6.005869e+01  2.500000e+00
   endloop
 endfacet
 facet normal  2.633525e-01 -2.033542e-01 -9.430231e-01
   outer loop
     vertex  7.505980e+01 -4.965910e+01  2.500000e+00
     vertex  7.330771e+01 -6.352149e+01  5.000000e+00
     vertex  6.702950e+01 -6.005869e+01  2.500000e+00
   endloop
 endfacet
 facet normal  2.725358e-01 -2.040178e-01 -9.402664e-01
   outer loop
     vertex  8.160159e+01 -5.244216e+01  5.000000e+00
     vertex  7.330771e+01 -6.352149e+01  5.000000e+00
     vertex  7.505980e+01 -4.965910e+01  2.500000e+00
   endloop
 endfacet
 facet normal  2.908376e-01 -1.632260e-01 -9.427464e-01
   outer loop
     vertex  8.149034e+01 -3.820110e+01  2.500000e+00
     vertex  8.160159e+01 -5.244216e+01  5.000000e+00
     vertex  7.505980e+01 -4.965910e+01  2.500000e+00
   endloop
 endfacet
 facet normal  2.981149e-01 -1.627830e-01 -9.405473e-01
   outer loop
     vertex  8.823430e+01 -4.029526e+01  5.000000e+00
     vertex  8.160159e+01 -5.244216e+01  5.000000e+00
     vertex  8.149034e+01 -3.820110e+01  2.500000e+00
   endloop
 endfacet
 facet normal  3.122808e-01 -1.194373e-01 -9.424518e-01
   outer loop
     vertex  8.618405e+01 -2.592892e+01  2.500000e+00
     vertex  8.823430e+01 -4.029526e+01  5.000000e+00
     vertex  8.149034e+01 -3.820110e+01  2.500000e+00
   endloop
 endfacet
 facet normal  3.174822e-01 -1.184148e-01 -9.408416e-01
   outer loop
     vertex  9.307082e+01 -2.732806e+01  5.000000e+00
     vertex  8.823430e+01 -4.029526e+01  5.000000e+00
     vertex  8.618405e+01 -2.592892e+01  2.500000e+00
   endloop
 endfacet
 facet normal  3.272027e-01 -7.288750e-02 -9.421390e-01
   outer loop
     vertex  8.904090e+01 -1.310411e+01  2.500000e+00
     vertex  9.307082e+01 -2.732806e+01  5.000000e+00
     vertex  8.618405e+01 -2.592892e+01  2.500000e+00
   endloop
 endfacet
 facet normal  3.302673e-01 -7.184526e-02 -9.411492e-01
   outer loop
     vertex  9.601268e+01 -1.380454e+01  5.000000e+00
     vertex  9.307082e+01 -2.732806e+01  5.000000e+00
     vertex  8.904090e+01 -1.310411e+01  2.500000e+00
   endloop
 endfacet
 facet normal  3.352562e-01 -2.453759e-02 -9.418074e-01
   outer loop
     vertex  9.000000e+01 -2.204364e-14  2.500000e+00
     vertex  9.601268e+01 -1.380454e+01  5.000000e+00
     vertex  8.904090e+01 -1.310411e+01  2.500000e+00
   endloop
 endfacet
 facet normal  3.362391e-01 -2.404830e-02 -9.414696e-01
   outer loop
     vertex  9.700000e+01 -2.375815e-14  5.000000e+00
     vertex  9.601268e+01 -1.380454e+01  5.000000e+00
     vertex  9.000000e+01 -2.204364e-14  2.500000e+00
   endloop
 endfacet
 facet normal  0.000000e+00  0.000000e+00 -1.000000e+00
   outer loop
     vertex -2.994043e+00 -2.652491e+00  0.000000e+00
     vertex -7.330771e+01 -6.352149e+01  0.000000e+00
     vertex -8.160159e+01 -5.244216e+01  0.000000e+00
   endloop
 endfacet
 facet normal  0.000000e+00  0.000000e+00 -1.000000e+00
   outer loop
     vertex -2.994043e+00 -2.652491e+00  0.000000e+00
     vertex -6.352149e+01 -7.330771e+01  0.000000e+00
     vertex -7.330771e+01 -6.352149e+01  0.000000e+00
   endloop
 endfacet
 facet normal  0.000000e+00  0.000000e+00 -1.000000e+00
   outer loop
     vertex -2.272259e+00 -3.291935e+00  0.000000e+00
     vertex -5.244216e+01 -8.160159e+01  0.000000e+00
     vertex -6.352149e+01 -7.330771e+01  0.000000e+00
   endloop
 endfacet
 facet normal  0.000000e+00  0.000000e+00 -1.000000e+00
   outer loop
     vertex -2.272259e+00 -3.291935e+00  0.000000e+00
     vertex -4.029526e+01 -8.823430e+01  0.000000e+00
     vertex -5.244216e+01 -8.160159e+01  0.000000e+00
   endloop
 endfacet
 facet normal -0.000000e+00  0.000000e+00 -1.000000e+00
   outer loop
     vertex -2.272259e+00 -3.291935e+00  0.000000e+00
     vertex -6.352149e+01 -7.330771e+01  0.000000e+00
     vertex -2.994043e+00 -2.652491e+00  0.000000e+00
   endloop
 endfacet
 facet normal  0.000000e+00  0.000000e+00 -1.000000e+00
   outer loop
     vertex -3.541824e+00 -1.858893e+00  0.000000e+00
     vertex -8.160159e+01 -5.244216e+01  0.000000e+00
     vertex -8.823430e+01 -4.029526e+01  0.000000e+00
   endloop
 endfacet
 facet normal  0.000000e+00 -0.000000e+00 -1.000000e+00
   outer loop
     vertex -3.541824e+00 -1.858893e+00  0.000000e+00
     vertex -2.994043e+00 -2.652491e+00  0.000000e+00
     vertex -8.160159e+01 -5.244216e+01  0.000000e+00
   endloop
 endfacet
 facet normal  0.000000e+00  0.000000e+00 -1.000000e+00
   outer loop
     vertex -1.418420e+00 -3.740065e+00  0.000000e+00
     vertex -2.732806e+01 -9.307082e+01  0.000000e+00
     vertex -4.029526e+01 -8.823430e+01  0.000000e+00
   endloop
 endfacet
 facet normal -0.000000e+00  0.000000e+00 -1.000000e+00
   outer loop
     vertex -1.418420e+00 -3.740065e+00  0.000000e+00
     vertex -4.029526e+01 -8.823430e+01  0.000000e+00
     vertex -2.272259e+00 -3.291935e+00  0.000000e+00
   endloop
 endfacet
 facet normal  0.000000e+00 -0.000000e+00 -1.000000e+00
   outer loop
     vertex -3.883767e+00 -9.572627e-01  0.000000e+00
     vertex -3.541824e+00 -1.858893e+00  0.000000e+00
     vertex -8.823430e+01 -4.029526e+01  0.000000e+00
   endloop
 endfacet
 facet normal  0.000000e+00  0.000000e+00 -1.000000e+00
   outer loop
     vertex -3.883767e+00 -9.572627e-01  0.000000e+00
     vertex -9.307082e+01 -2.732806e+01  0.000000e+00
     vertex -9.601268e+01 -1.380454e+01  0.000000e+00
   endloop
 endfacet
 facet normal  0.000000e+00  0.000000e+00 -1.000000e+00
   outer loop
     vertex -3.883767e+00 -9.572627e-01  0.000000e+00
     vertex -8.823430e+01 -4.029526e+01  0.000000e+00
     vertex -9.307082e+01 -2.732806e+01  0.000000e+00
   endloop
 endfacet
 facet normal -0.000000e+00  0.000000e+00 -1.000000e+00
   outer loop
     vertex -4.821467e-01 -3.970835e+00  0.000000e+00
     vertex -2.732806e+01 -9.307082e+01  0.000000e+00
     vertex -1.418420e+00 -3.740065e+00  0.000000e+00
   endloop
 endfacet
 facet normal  0.000000e+00  0.000000e+00 -1.000000e+00
   outer loop
     vertex -4.821467e-01 -3.970835e+00  0.000000e+00
     vertex -1.380454e+01 -9.601268e+01  0.000000e+00
     vertex -2.732806e+01 -9.307082e+01  0.000000e+00
   endloop
 endfacet
 facet normal  0.000000e+00 -0.000000e+00 -1.000000e+00
   outer loop
     vertex -4.821467e-01 -3.970835e+00  0.000000e+00
     vertex -1.901252e-13 -9.700000e+01  0.000000e+00
     vertex -1.380454e+01 -9.601268e+01  0.000000e+00
   endloop
 endfacet
 facet normal  0.000000e+00  0.000000e+00 -1.000000e+00
   outer loop
     vertex -4.000000e+00  4.042572e-15  0.000000e+00
     vertex -9.700000e+01  9.803238e-14  0.000000e+00
     vertex -9.601268e+01  1.380454e+01  0.000000e+00
   endloop
 endfacet
 facet normal -0.000000e+00  0.000000e+00 -1.000000e+00
   outer loop
     vertex -4.000000e+00  4.042572e-15  0.000000e+00
     vertex -9.601268e+01 -1.380454e+01  0.000000e+00
     vertex -9.700000e+01  9.803238e-14  0.000000e+00
   endloop
 endfacet
 facet normal  0.000000e+00 -0.000000e+00 -1.000000e+00
   outer loop
     vertex -4.000000e+00  4.042572e-15  0.000000e+00
     vertex -3.883767e+00 -9.572627e-01  0.000000e+00
     vertex -9.601268e+01 -1.380454e+01  0.000000e+00
   endloop
 endfacet
 facet normal -0.000000e+00  0.000000e+00 -1.000000e+00
   outer loop
     vertex  4.821467e-01 -3.970835e+00  0.000000e+00
     vertex -1.901252e-13 -9.700000e+01  0.000000e+00
     vertex -4.821467e-01 -3.970835e+00  0.000000e+00
   endloop
 endfacet
 facet normal  0.000000e+00 -0.000000e+00 -1.000000e+00
   outer loop
     vertex  4.821467e-01 -3.970835e+00  0.000000e+00
     vertex  1.380454e+01 -9.601268e+01  0.000000e+00
     vertex -1.901252e-13 -9.700000e+01  0.000000e+00
   endloop
 endfacet
 facet normal  0.000000e+00  0.000000e+00 -1.000000e+00
   outer loop
     vertex  4.821467e-01 -3.970835e+00  0.000000e+00
     vertex  2.732806e+01 -9.307082e+01  0.000000e+00
     vertex  1.380454e+01 -9.601268e+01  0.000000e+00
   endloop
 endfacet
 facet normal -0.000000e+00  0.000000e+00 -1.000000e+00
   outer loop
     vertex -3.883767e+00  9.572627e-01  0.000000e+00
     vertex -4.000000e+00  4.042572e-15  0.000000e+00
     vertex -9.601268e+01  1.380454e+01  0.000000e+00
   endloop
 endfacet
 facet normal  0.000000e+00  0.000000e+00 -1.000000e+00
   outer loop
     vertex -3.883767e+00  9.572627e-01  0.000000e+00
     vertex -9.307082e+01  2.732806e+01  0.000000e+00
     vertex -8.823430e+01  4.029526e+01  0.000000e+00
   endloop
 endfacet
 facet normal  0.000000e+00  0.000000e+00 -1.000000e+00
   outer loop
     vertex -3.883767e+00  9.572627e-01  0.000000e+00
     vertex -9.601268e+01  1.380454e+01  0.000000e+00
     vertex -9.307082e+01  2.732806e+01  0.000000e+00
   endloop
 endfacet
 facet normal  0.000000e+00  0.000000e+00 -1.000000e+00
   outer loop
     vertex  1.418420e+00 -3.740065e+00  0.000000e+00
     vertex  4.029526e+01 -8.823430e+01  0.000000e+00
     vertex  2.732806e+01 -9.307082e+01  0.000000e+00
   endloop
 endfacet
 facet normal  0.000000e+00 -0.000000e+00 -1.000000e+00
   outer loop
     vertex  1.418420e+00 -3.740065e+00  0.000000e+00
     vertex  2.732806e+01 -9.307082e+01  0.000000e+00
     vertex  4.821467e-01 -3.970835e+00  0.000000e+00
   endloop
 endfacet
 facet normal -0.000000e+00  0.000000e+00 -1.000000e+00
   outer loop
     vertex -3.541824e+00  1.858893e+00  0.000000e+00
     vertex -3.883767e+00  9.572627e-01  0.000000e+00
     vertex -8.823430e+01  4.029526e+01  0.000000e+00
   endloop
 endfacet
 facet normal  0.000000e+00  0.000000e+00 -1.000000e+00
   outer loop
     vertex -3.541824e+00  1.858893e+00  0.000000e+00
     vertex -8.823430e+01  4.029526e+01  0.000000e+00
     vertex -8.160159e+01  5.244216e+01  0.000000e+00
   endloop
 endfacet
 facet normal  0.000000e+00  0.000000e+00 -1.000000e+00
   outer loop
     vertex  2.272259e+00 -3.291935e+00  0.000000e+00
     vertex  5.244216e+01 -8.160159e+01  0.000000e+00
     vertex  4.029526e+01 -8.823430e+01  0.000000e+00
   endloop
 endfacet
 facet normal  0.000000e+00 -0.000000e+00 -1.000000e+00
   outer loop
     vertex  2.272259e+00 -3.291935e+00  0.000000e+00
     vertex  4.029526e+01 -8.823430e+01  0.000000e+00
     vertex  1.418420e+00 -3.740065e+00  0.000000e+00
   endloop
 endfacet
 facet normal  0.000000e+00  0.000000e+00 -1.000000e+00
   outer loop
     vertex  2.272259e+00 -3.291935e+00  0.000000e+00
     vertex  6.352149e+01 -7.330771e+01  0.000000e+00
     vertex  5.244216e+01 -8.160159e+01  0.000000e+00
   endloop
 endfacet
 facet normal  0.000000e+00  0.000000e+00 -1.000000e+00
   outer loop
     vertex -2.994043e+00  2.652491e+00  0.000000e+00
     vertex -8.160159e+01  5.244216e+01  0.000000e+00
     vertex -7.330771e+01  6.352149e+01  0.000000e+00
   endloop
 endfacet
 facet normal -0.000000e+00  0.000000e+00 -1.000000e+00
   outer loop
     vertex -2.994043e+00  2.652491e+00  0.000000e+00
     vertex -3.541824e+00  1.858893e+00  0.000000e+00
     vertex -8.160159e+01  5.244216e+01  0.000000e+00
   endloop
 endfacet
 facet normal  0.000000e+00 -0.000000e+00 -1.000000e+00
   outer loop
     vertex  2.994043e+00 -2.652491e+00  0.000000e+00
     vertex  6.352149e+01 -7.330771e+01  0.000000e+00
     vertex  2.272259e+00 -3.291935e+00  0.000000e+00
   endloop
 endfacet
 facet normal -0.000000e+00  0.000000e+00 -1.000000e+00
   outer loop
     vertex  7.330771e+01 -6.352149e+01  0.000000e+00
     vertex  6.352149e+01 -7.330771e+01  0.000000e+00
     vertex  2.994043e+00 -2.652491e+00  0.000000e+00
   endloop
 endfacet
 facet normal  0.000000e+00 -0.000000e+00 -1.000000e+00
   outer loop
     vertex -6.352149e+01  7.330771e+01  0.000000e+00
     vertex -2.994043e+00  2.652491e+00  0.000000e+00
     vertex -7.330771e+01  6.352149e+01  0.000000e+00
   endloop
 endfacet
 facet normal  0.000000e+00  0.000000e+00 -1.000000e+00
   outer loop
     vertex -6.352149e+01  7.330771e+01  0.000000e+00
     vertex -2.272259e+00  3.291935e+00  0.000000e+00
     vertex -2.994043e+00  2.652491e+00  0.000000e+00
   endloop
 endfacet
 facet normal -0.000000e+00  0.000000e+00 -1.000000e+00
   outer loop
     vertex  8.160159e+01 -5.244216e+01  0.000000e+00
     vertex  7.330771e+01 -6.352149e+01  0.000000e+00
     vertex  2.994043e+00 -2.652491e+00  0.000000e+00
   endloop
 endfacet
 facet normal  0.000000e+00  0.000000e+00 -1.000000e+00
   outer loop
     vertex  8.160159e+01 -5.244216e+01  0.000000e+00
     vertex  2.994043e+00 -2.652491e+00  0.000000e+00
     vertex  3.541824e+00 -1.858893e+00  0.000000e+00
   endloop
 endfacet
 facet normal  0.000000e+00 -0.000000e+00 -1.000000e+00
   outer loop
     vertex -5.244216e+01  8.160159e+01  0.000000e+00
     vertex -2.272259e+00  3.291935e+00  0.000000e+00
     vertex -6.352149e+01  7.330771e+01  0.000000e+00
   endloop
 endfacet
 facet normal  0.000000e+00  0.000000e+00 -1.000000e+00
   outer loop
     vertex  8.823430e+01 -4.029526e+01  0.000000e+00
     vertex  3.541824e+00 -1.858893e+00  0.000000e+00
     vertex  3.883767e+00 -9.572627e-01  0.000000e+00
   endloop
 endfacet
 facet normal -0.000000e+00  0.000000e+00 -1.000000e+00
   outer loop
     vertex  8.823430e+01 -4.029526e+01  0.000000e+00
     vertex  8.160159e+01 -5.244216e+01  0.000000e+00
     vertex  3.541824e+00 -1.858893e+00  0.000000e+00
   endloop
 endfacet
 facet normal  0.000000e+00  0.000000e+00 -1.000000e+00
   outer loop
     vertex -4.029526e+01  8.823430e+01  0.000000e+00
     vertex -1.418420e+00  3.740065e+00  0.000000e+00
     vertex -2.272259e+00  3.291935e+00  0.000000e+00
   endloop
 endfacet
 facet normal  0.000000e+00 -0.000000e+00 -1.000000e+00
   outer loop
     vertex -4.029526e+01  8.823430e+01  0.000000e+00
     vertex -2.272259e+00  3.291935e+00  0.000000e+00
     vertex -5.244216e+01  8.160159e+01  0.000000e+00
   endloop
 endfacet
 facet normal -0.000000e+00  0.000000e+00 -1.000000e+00
   outer loop
     vertex  9.307082e+01 -2.732806e+01  0.000000e+00
     vertex  8.823430e+01 -4.029526e+01  0.000000e+00
     vertex  3.883767e+00 -9.572627e-01  0.000000e+00
   endloop
 endfacet
 facet normal  0.000000e+00 -0.000000e+00 -1.000000e+00
   outer loop
     vertex -2.732806e+01  9.307082e+01  0.000000e+00
     vertex -1.418420e+00  3.740065e+00  0.000000e+00
     vertex -4.029526e+01  8.823430e+01  0.000000e+00
   endloop
 endfacet
 facet normal  0.000000e+00  0.000000e+00 -1.000000e+00
   outer loop
     vertex -2.732806e+01  9.307082e+01  0.000000e+00
     vertex -4.821467e-01  3.970835e+00  0.000000e+00
     vertex -1.418420e+00  3.740065e+00  0.000000e+00
   endloop
 endfacet
 facet normal -0.000000e+00  0.000000e+00 -1.000000e+00
   outer loop
     vertex  9.601268e+01 -1.380454e+01  0.000000e+00
     vertex  9.307082e+01 -2.732806e+01  0.000000e+00
     vertex  3.883767e+00 -9.572627e-01  0.000000e+00
   endloop
 endfacet
 facet normal  0.000000e+00  0.000000e+00 -1.000000e+00
   outer loop
     vertex  9.601268e+01 -1.380454e+01  0.000000e+00
     vertex  3.883767e+00 -9.572627e-01  0.000000e+00
     vertex  4.000000e+00 -9.797174e-16  0.000000e+00
   endloop
 endfacet
 facet normal  0.000000e+00 -0.000000e+00 -1.000000e+00
   outer loop
     vertex -1.380454e+01  9.601268e+01  0.000000e+00
     vertex -4.821467e-01  3.970835e+00  0.000000e+00
     vertex -2.732806e+01  9.307082e+01  0.000000e+00
   endloop
 endfacet
 facet normal -0.000000e+00  0.000000e+00 -1.000000e+00
   outer loop
     vertex  9.700000e+01 -2.375815e-14  0.000000e+00
     vertex  9.601268e+01 -1.380454e+01  0.000000e+00
     vertex  4.000000e+00 -9.797174e-16  0.000000e+00
   endloop
 endfacet
 facet normal  0.000000e+00 -0.000000e+00 -1.000000e+00
   outer loop
     vertex  2.747786e-14  9.700000e+01  0.000000e+00
     vertex  4.821467e-01  3.970835e+00  0.000000e+00
     vertex -4.821467e-01  3.970835e+00  0.000000e+00
   endloop
 endfacet
 facet normal  0.000000e+00  0.000000e+00 -1.000000e+00
   outer loop
     vertex  2.747786e-14  9.700000e+01  0.000000e+00
     vertex -4.821467e-01  3.970835e+00  0.000000e+00
     vertex -1.380454e+01  9.601268e+01  0.000000e+00
   endloop
 endfacet
 facet normal  0.000000e+00  0.000000e+00 -1.000000e+00
   outer loop
     vertex  9.601268e+01  1.380454e+01  0.000000e+00
     vertex  4.000000e+00 -9.797174e-16  0.000000e+00
     vertex  3.883767e+00  9.572627e-01  0.000000e+00
   endloop
 endfacet
 facet normal  0.000000e+00 -0.000000e+00 -1.000000e+00
   outer loop
     vertex  9.601268e+01  1.380454e+01  0.000000e+00
     vertex  9.700000e+01 -2.375815e-14  0.000000e+00
     vertex  4.000000e+00 -9.797174e-16  0.000000e+00
   endloop
 endfacet
 facet normal -0.000000e+00  0.000000e+00 -1.000000e+00
   outer loop
     vertex  1.380454e+01  9.601268e+01  0.000000e+00
     vertex  4.821467e-01  3.970835e+00  0.000000e+00
     vertex  2.747786e-14  9.700000e+01  0.000000e+00
   endloop
 endfacet
 facet normal  0.000000e+00  0.000000e+00 -1.000000e+00
   outer loop
     vertex  2.732806e+01  9.307082e+01  0.000000e+00
     vertex  1.418420e+00  3.740065e+00  0.000000e+00
     vertex  4.821467e-01  3.970835e+00  0.000000e+00
   endloop
 endfacet
 facet normal -0.000000e+00  0.000000e+00 -1.000000e+00
   outer loop
     vertex  2.732806e+01  9.307082e+01  0.000000e+00
     vertex  4.821467e-01  3.970835e+00  0.000000e+00
     vertex  1.380454e+01  9.601268e+01  0.000000e+00
   endloop
 endfacet
 facet normal  0.000000e+00 -0.000000e+00 -1.000000e+00
   outer loop
     vertex  9.307082e+01  2.732806e+01  0.000000e+00
     vertex  9.601268e+01  1.380454e+01  0.000000e+00
     vertex  3.883767e+00  9.572627e-01  0.000000e+00
   endloop
 endfacet
 facet normal  0.000000e+00  0.000000e+00 -1.000000e+00
   outer loop
     vertex  8.823430e+01  4.029526e+01  0.000000e+00
     vertex  3.883767e+00  9.572627e-01  0.000000e+00
     vertex  3.541824e+00  1.858893e+00  0.000000e+00
   endloop
 endfacet
 facet normal  0.000000e+00 -0.000000e+00 -1.000000e+00
   outer loop
     vertex  8.823430e+01  4.029526e+01  0.000000e+00
     vertex  9.307082e+01  2.732806e+01  0.000000e+00
     vertex  3.883767e+00  9.572627e-01  0.000000e+00
   endloop
 endfacet
 facet normal  0.000000e+00  0.000000e+00 -1.000000e+00
   outer loop
     vertex  4.029526e+01  8.823430e+01  0.000000e+00
     vertex  2.272259e+00  3.291935e+00  0.000000e+00
     vertex  1.418420e+00  3.740065e+00  0.000000e+00
   endloop
 endfacet
 facet normal -0.000000e+00  0.000000e+00 -1.000000e+00
   outer loop
     vertex  4.029526e+01  8.823430e+01  0.000000e+00
     vertex  1.418420e+00  3.740065e+00  0.000000e+00
     vertex  2.732806e+01  9.307082e+01  0.000000e+00
   endloop
 endfacet
 facet normal -0.000000e+00  0.000000e+00 -1.000000e+00
   outer loop
     vertex  5.244216e+01  8.160159e+01  0.000000e+00
     vertex  2.272259e+00  3.291935e+00  0.000000e+00
     vertex  4.029526e+01  8.823430e+01  0.000000e+00
   endloop
 endfacet
 facet normal  0.000000e+00 -0.000000e+00 -1.000000e+00
   outer loop
     vertex  8.160159e+01  5.244216e+01  0.000000e+00
     vertex  8.823430e+01  4.029526e+01  0.000000e+00
     vertex  3.541824e+00  1.858893e+00  0.000000e+00
   endloop
 endfacet
 facet normal  0.000000e+00  0.000000e+00 -1.000000e+00
   outer loop
     vertex  8.160159e+01  5.244216e+01  0.000000e+00
     vertex  3.541824e+00  1.858893e+00  0.000000e+00
     vertex  2.994043e+00  2.652491e+00  0.000000e+00
   endloop
 endfacet
 facet normal  0.000000e+00 -0.000000e+00 -1.000000e+00
   outer loop
     vertex  7.330771e+01  6.352149e+01  0.000000e+00
     vertex  8.160159e+01  5.244216e+01  0.000000e+00
     vertex  2.994043e+00  2.652491e+00  0.000000e+00
   endloop
 endfacet
 facet normal -0.000000e+00  0.000000e+00 -1.000000e+00
   outer loop
     vertex  6.352149e+01  7.330771e+01  0.000000e+00
     vertex  2.272259e+00  3.291935e+00  0.000000e+00
     vertex  5.244216e+01  8.160159e+01  0.000000e+00
   endloop
 endfacet
 facet normal  0.000000e+00 -0.000000e+00 -1.000000e+00
   outer loop
     vertex  6.352149e+01  7.330771e+01  0.000000e+00
     vertex  7.330771e+01  6.352149e+01  0.000000e+00
     vertex  2.994043e+00  2.652491e+00  0.000000e+00
   endloop
 endfacet
 facet normal  0.000000e+00  0.000000e+00 -1.000000e+00
   outer loop
     vertex  6.352149e+01  7.330771e+01  0.000000e+00
     vertex  2.994043e+00  2.652491e+00  0.000000e+00
     vertex  2.272259e+00  3.291935e+00  0.000000e+00
   endloop
 endfacet
 facet normal  0.000000e+00  0.000000e+00  1.000000e+00
   outer loop
     vertex -2.994043e+00 -2.652491e+00  5.000000e+00
     vertex -8.160159e+01 -5.244216e+01  5.000000e+00
     vertex -7.330771e+01 -6.352149e+01  5.000000e+00
   endloop
 endfacet
 facet normal  0.000000e+00  0.000000e+00  1.000000e+00
   outer loop
     vertex -2.994043e+00 -2.652491e+00  5.000000e+00
     vertex -7.330771e+01 -6.352149e+01  5.000000e+00
     vertex -6.352149e+01 -7.330771e+01  5.000000e+00
   endloop
 endfacet
 facet normal  0.000000e+00  0.000000e+00  1.000000e+00
   outer loop
     vertex -2.272259e+00 -3.291935e+00  5.000000e+00
     vertex -6.352149e+01 -7.330771e+01  5.000000e+00
     vertex -5.244216e+01 -8.160159e+01  5.000000e+00
   endloop
 endfacet
 facet normal  0.000000e+00  0.000000e+00  1.000000e+00
   outer loop
     vertex -2.272259e+00 -3.291935e+00  5.000000e+00
     vertex -5.244216e+01 -8.160159e+01  5.000000e+00
     vertex -4.029526e+01 -8.823430e+01  5.000000e+00
   endloop
 endfacet
 facet normal  0.000000e+00  0.000000e+00  1.000000e+00
   outer loop
     vertex -2.272259e+00 -3.291935e+00  5.000000e+00
     vertex -2.994043e+00 -2.652491e+00  5.000000e+00
     vertex -6.352149e+01 -7.330771e+01  5.000000e+00
   endloop
 endfacet
 facet normal  0.000000e+00  0.000000e+00  1.000000e+00
   outer loop
     vertex -3.541824e+00 -1.858893e+00  5.000000e+00
     vertex -8.823430e+01 -4.029526e+01  5.000000e+00
     vertex -8.160159e+01 -5.244216e+01  5.000000e+00
   endloop
 endfacet
 facet normal  0.000000e+00  0.000000e+00  1.000000e+00
   outer loop
     vertex -3.541824e+00 -1.858893e+00  5.000000e+00
     vertex -8.160159e+01 -5.244216e+01  5.000000e+00
     vertex -2.994043e+00 -2.652491e+00  5.000000e+00
   endloop
 endfacet
 facet normal  0.000000e+00  0.000000e+00  1.000000e+00
   outer loop
     vertex -1.418420e+00 -3.740065e+00  5.000000e+00
     vertex -4.029526e+01 -8.823430e+01  5.000000e+00
     vertex -2.732806e+01 -9.307082e+01  5.000000e+00
   endloop
 endfacet
 facet normal  0.000000e+00  0.000000e+00  1.000000e+00
   outer loop
     vertex -1.418420e+00 -3.740065e+00  5.000000e+00
     vertex -2.272259e+00 -3.291935e+00  5.000000e+00
     vertex -4.029526e+01 -8.823430e+01  5.000000e+00
   endloop
 endfacet
 facet normal  0.000000e+00  0.000000e+00  1.000000e+00
   outer loop
     vertex -3.883767e+00 -9.572627e-01  5.000000e+00
     vertex -8.823430e+01 -4.029526e+01  5.000000e+00
     vertex -3.541824e+00 -1.858893e+00  5.000000e+00
   endloop
 endfacet
 facet normal  0.000000e+00  0.000000e+00  1.000000e+00
   outer loop
     vertex -3.883767e+00 -9.572627e-01  5.000000e+00
     vertex -9.601268e+01 -1.380454e+01  5.000000e+00
     vertex -9.307082e+01 -2.732806e+01  5.000000e+00
   endloop
 endfacet
 facet normal  0.000000e+00  0.000000e+00  1.000000e+00
   outer loop
     vertex -3.883767e+00 -9.572627e-01  5.000000e+00
     vertex -9.307082e+01 -2.732806e+01  5.000000e+00
     vertex -8.823430e+01 -4.029526e+01  5.000000e+00
   endloop
 endfacet
 facet normal  0.000000e+00  0.000000e+00  1.000000e+00
   outer loop
     vertex -4.821467e-01 -3.970835e+00  5.000000e+00
     vertex -1.418420e+00 -3.740065e+00  5.000000e+00
     vertex -2.732806e+01 -9.307082e+01  5.000000e+00
   endloop
 endfacet
 facet normal  0.000000e+00  0.000000e+00  1.000000e+00
   outer loop
     vertex -4.821467e-01 -3.970835e+00  5.000000e+00
     vertex -2.732806e+01 -9.307082e+01  5.000000e+00
     vertex -1.380454e+01 -9.601268e+01  5.000000e+00
   endloop
 endfacet
 facet normal  0.000000e+00  0.000000e+00  1.000000e+00
   outer loop
     vertex -4.821467e-01 -3.970835e+00  5.000000e+00
     vertex -1.380454e+01 -9.601268e+01  5.000000e+00
     vertex -1.901252e-13 -9.700000e+01  5.000000e+00
   endloop
 endfacet
 facet normal  0.000000e+00  0.000000e+00  1.000000e+00
   outer loop
     vertex -4.000000e+00  4.042572e-15  5.000000e+00
     vertex -9.601268e+01  1.380454e+01  5.000000e+00
     vertex -9.700000e+01  9.803238e-14  5.000000e+00
   endloop
 endfacet
 facet normal  0.000000e+00  0.000000e+00  1.000000e+00
   outer loop
     vertex -4.000000e+00  4.042572e-15  5.000000e+00
     vertex -9.700000e+01  9.803238e-14  5.000000e+00
     vertex -9.601268e+01 -1.380454e+01  5.000000e+00
   endloop
 endfacet
 facet normal  0.000000e+00  0.000000e+00  1.000000e+00
   outer loop
     vertex -4.000000e+00  4.042572e-15  5.000000e+00
     vertex -9.601268e+01 -1.380454e+01  5.000000e+00
     vertex -3.883767e+00 -9.572627e-01  5.000000e+00
   endloop
 endfacet
 facet normal  0.000000e+00  0.000000e+00  1.000000e+00
   outer loop
     vertex  4.821467e-01 -3.970835e+00  5.000000e+00
     vertex -4.821467e-01 -3.970835e+00  5.000000e+00
     vertex -1.901252e-13 -9.700000e+01  5.000000e+00
   endloop
 endfacet
 facet normal  0.000000e+00  0.000000e+00  1.000000e+00
   outer loop
     vertex  4.821467e-01 -3.970835e+00  5.000000e+00
     vertex -1.901252e-13 -9.700000e+01  5.000000e+00
     vertex  1.380454e+01 -9.601268e+01  5.000000e+00
   endloop
 endfacet
 facet normal  0.000000e+00  0.000000e+00  1.000000e+00
   outer loop
     vertex  4.821467e-01 -3.970835e+00  5.000000e+00
     vertex  1.380454e+01 -9.601268e+01  5.000000e+00
     vertex  2.732806e+01 -9.307082e+01  5.000000e+00
   endloop
 endfacet
 facet normal  0.000000e+00  0.000000e+00  1.000000e+00
   outer loop
     vertex -3.883767e+00  9.572627e-01  5.000000e+00
     vertex -9.601268e+01  1.380454e+01  5.000000e+00
     vertex -4.000000e+00  4.042572e-15  5.000000e+00
   endloop
 endfacet
 facet normal  0.000000e+00  0.000000e+00  1.000000e+00
   outer loop
     vertex -3.883767e+00  9.572627e-01  5.000000e+00
     vertex -8.823430e+01  4.029526e+01  5.000000e+00
     vertex -9.307082e+01  2.732806e+01  5.000000e+00
   endloop
 endfacet
 facet normal  0.000000e+00  0.000000e+00  1.000000e+00
   outer loop
     vertex -3.883767e+00  9.572627e-01  5.000000e+00
     vertex -9.307082e+01  2.732806e+01  5.000000e+00
     vertex -9.601268e+01  1.380454e+01  5.000000e+00
   endloop
 endfacet
 facet normal  0.000000e+00  0.000000e+00  1.000000e+00
   outer loop
     vertex  1.418420e+00 -3.740065e+00  5.000000e+00
     vertex  2.732806e+01 -9.307082e+01  5.000000e+00
     vertex  4.029526e+01 -8.823430e+01  5.000000e+00
   endloop
 endfacet
 facet normal  0.000000e+00  0.000000e+00  1.000000e+00
   outer loop
     vertex  1.418420e+00 -3.740065e+00  5.000000e+00
     vertex  4.821467e-01 -3.970835e+00  5.000000e+00
     vertex  2.732806e+01 -9.307082e+01  5.000000e+00
   endloop
 endfacet
 facet normal  0.000000e+00  0.000000e+00  1.000000e+00
   outer loop
     vertex -3.541824e+00  1.858893e+00  5.000000e+00
     vertex -8.823430e+01  4.029526e+01  5.000000e+00
     vertex -3.883767e+00  9.572627e-01  5.000000e+00
   endloop
 endfacet
 facet normal  0.000000e+00  0.000000e+00  1.000000e+00
   outer loop
     vertex -3.541824e+00  1.858893e+00  5.000000e+00
     vertex -8.160159e+01  5.244216e+01  5.000000e+00
     vertex -8.823430e+01  4.029526e+01  5.000000e+00
   endloop
 endfacet
 facet normal  0.000000e+00  0.000000e+00  1.000000e+00
   outer loop
     vertex  2.272259e+00 -3.291935e+00  5.000000e+00
     vertex  4.029526e+01 -8.823430e+01  5.000000e+00
     vertex  5.244216e+01 -8.160159e+01  5.000000e+00
   endloop
 endfacet
 facet normal  0.000000e+00  0.000000e+00  1.000000e+00
   outer loop
     vertex  2.272259e+00 -3.291935e+00  5.000000e+00
     vertex  1.418420e+00 -3.740065e+00  5.000000e+00
     vertex  4.029526e+01 -8.823430e+01  5.000000e+00
   endloop
 endfacet
 facet normal  0.000000e+00  0.000000e+00  1.000000e+00
   outer loop
     vertex  2.272259e+00 -3.291935e+00  5.000000e+00
     vertex  5.244216e+01 -8.160159e+01  5.000000e+00
     vertex  6.352149e+01 -7.330771e+01  5.000000e+00
   endloop
 endfacet
 facet normal  0.000000e+00  0.000000e+00  1.000000e+00
   outer loop
     vertex -2.994043e+00  2.652491e+00  5.000000e+00
     vertex -7.330771e+01  6.352149e+01  5.000000e+00
     vertex -8.160159e+01  5.244216e+01  5.000000e+00
   endloop
 endfacet
 facet normal  0.000000e+00  0.000000e+00  1.000000e+00
   outer loop
     vertex -2.994043e+00  2.652491e+00  5.000000e+00
     vertex -8.160159e+01  5.244216e+01  5.000000e+00
     vertex -3.541824e+00  1.858893e+00  5.000000e+00
   endloop
 endfacet
 facet normal  0.000000e+00  0.000000e+00  1.000000e+00
   outer loop
     vertex  2.994043e+00 -2.652491e+00  5.000000e+00
     vertex  2.272259e+00 -3.291935e+00  5.000000e+00
     vertex  6.352149e+01 -7.330771e+01  5.000000e+00
   endloop
 endfacet
 facet normal  0.000000e+00  0.000000e+00  1.000000e+00
   outer loop
     vertex  7.330771e+01 -6.352149e+01  5.000000e+00
     vertex  2.994043e+00 -2.652491e+00  5.000000e+00
     vertex  6.352149e+01 -7.330771e+01  5.000000e+00
   endloop
 endfacet
 facet normal  0.000000e+00  0.000000e+00  1.000000e+00
   outer loop
     vertex -6.352149e+01  7.330771e+01  5.000000e+00
     vertex -7.330771e+01  6.352149e+01  5.000000e+00
     vertex -2.994043e+00  2.652491e+00  5.000000e+00
   endloop
 endfacet
 facet normal  0.000000e+00  0.000000e+00  1.000000e+00
   outer loop
     vertex -6.352149e+01  7.330771e+01  5.000000e+00
     vertex -2.994043e+00  2.652491e+00  5.000000e+00
     vertex -2.272259e+00  3.291935e+00  5.000000e+00
   endloop
 endfacet
 facet normal  0.000000e+00  0.000000e+00  1.000000e+00
   outer loop
     vertex  8.160159e+01 -5.244216e+01  5.000000e+00
     vertex  2.994043e+00 -2.652491e+00  5.000000e+00
     vertex  7.330771e+01 -6.352149e+01  5.000000e+00
   endloop
 endfacet
 facet normal  0.000000e+00  0.000000e+00  1.000000e+00
   outer loop
     vertex  8.160159e+01 -5.244216e+01  5.000000e+00
     vertex  3.541824e+00 -1.858893e+00  5.000000e+00
     vertex  2.994043e+00 -2.652491e+00  5.000000e+00
   endloop
 endfacet
 facet normal  0.000000e+00  0.000000e+00  1.000000e+00
   outer loop
     vertex -5.244216e+01  8.160159e+01  5.000000e+00
     vertex -6.352149e+01  7.330771e+01  5.000000e+00
     vertex -2.272259e+00  3.291935e+00  5.000000e+00
   endloop
 endfacet
 facet normal  0.000000e+00  0.000000e+00  1.000000e+00
   outer loop
     vertex  8.823430e+01 -4.029526e+01  5.000000e+00
     vertex  3.883767e+00 -9.572627e-01  5.000000e+00
     vertex  3.541824e+00 -1.858893e+00  5.000000e+00
   endloop
 endfacet
 facet normal  0.000000e+00  0.000000e+00  1.000000e+00
   outer loop
     vertex  8.823430e+01 -4.029526e+01  5.000000e+00
     vertex  3.541824e+00 -1.858893e+00  5.000000e+00
     vertex  8.160159e+01 -5.244216e+01  5.000000e+00
   endloop
 endfacet
 facet normal  0.000000e+00  0.000000e+00  1.000000e+00
   outer loop
     vertex -4.029526e+01  8.823430e+01  5.000000e+00
     vertex -2.272259e+00  3.291935e+00  5.000000e+00
     vertex -1.418420e+00  3.740065e+00  5.000000e+00
   endloop
 endfacet
 facet normal  0.000000e+00  0.000000e+00  1.000000e+00
   outer loop
     vertex -4.029526e+01  8.823430e+01  5.000000e+00
     vertex -5.244216e+01  8.160159e+01  5.000000e+00
     vertex -2.272259e+00  3.291935e+00  5.000000e+00
   endloop
 endfacet
 facet normal  0.000000e+00  0.000000e+00  1.000000e+00
   outer loop
     vertex  9.307082e+01 -2.732806e+01  5.000000e+00
     vertex  3.883767e+00 -9.572627e-01  5.000000e+00
     vertex  8.823430e+01 -4.029526e+01  5.000000e+00
   endloop
 endfacet
 facet normal  0.000000e+00  0.000000e+00  1.000000e+00
   outer loop
     vertex -2.732806e+01  9.307082e+01  5.000000e+00
     vertex -4.029526e+01  8.823430e+01  5.000000e+00
     vertex -1.418420e+00  3.740065e+00  5.000000e+00
   endloop
 endfacet
 facet normal  0.000000e+00  0.000000e+00  1.000000e+00
   outer loop
     vertex -2.732806e+01  9.307082e+01  5.000000e+00
     vertex -1.418420e+00  3.740065e+00  5.000000e+00
     vertex -4.821467e-01  3.970835e+00  5.000000e+00
   endloop
 endfacet
 facet normal  0.000000e+00  0.000000e+00  1.000000e+00
   outer loop
     vertex  9.601268e+01 -1.380454e+01  5.000000e+00
     vertex  3.883767e+00 -9.572627e-01  5.000000e+00
     vertex  9.307082e+01 -2.732806e+01  5.000000e+00
   endloop
 endfacet
 facet normal  0.000000e+00  0.000000e+00  1.000000e+00
   outer loop
     vertex  9.601268e+01 -1.380454e+01  5.000000e+00
     vertex  4.000000e+00 -9.797174e-16  5.000000e+00
     vertex  3.883767e+00 -9.572627e-01  5.000000e+00
   endloop
 endfacet
 facet normal  0.000000e+00  0.000000e+00  1.000000e+00
   outer loop
     vertex -1.380454e+01  9.601268e+01  5.000000e+00
     vertex -2.732806e+01  9.307082e+01  5.000000e+00
     vertex -4.821467e-01  3.970835e+00  5.000000e+00
   endloop
 endfacet
 facet normal  0.000000e+00  0.000000e+00  1.000000e+00
   outer loop
     vertex  9.700000e+01 -2.375815e-14  5.000000e+00
     vertex  4.000000e+00 -9.797174e-16  5.000000e+00
     vertex  9.601268e+01 -1.380454e+01  5.000000e+00
   endloop
 endfacet
 facet normal  0.000000e+00  0.000000e+00  1.000000e+00
   outer loop
     vertex  2.747786e-14  9.700000e+01  5.000000e+00
     vertex -4.821467e-01  3.970835e+00  5.000000e+00
     vertex  4.821467e-01  3.970835e+00  5.000000e+00
   endloop
 endfacet
 facet normal  0.000000e+00  0.000000e+00  1.000000e+00
   outer loop
     vertex  2.747786e-14  9.700000e+01  5.000000e+00
     vertex -1.380454e+01  9.601268e+01  5.000000e+00
     vertex -4.821467e-01  3.970835e+00  5.000000e+00
   endloop
 endfacet
 facet normal  0.000000e+00  0.000000e+00  1.000000e+00
   outer loop
     vertex  9.601268e+01  1.380454e+01  5.000000e+00
     vertex  3.883767e+00  9.572627e-01  5.000000e+00
     vertex  4.000000e+00 -9.797174e-16  5.000000e+00
   endloop
 endfacet
 facet normal  0.000000e+00  0.000000e+00  1.000000e+00
   outer loop
     vertex  9.601268e+01  1.380454e+01  5.000000e+00
     vertex  4.000000e+00 -9.797174e-16  5.000000e+00
     vertex  9.700000e+01 -2.375815e-14  5.000000e+00
   endloop
 endfacet
 facet normal  0.000000e+00  0.000000e+00  1.000000e+00
   outer loop
     vertex  1.380454e+01  9.601268e+01  5.000000e+00
     vertex  2.747786e-14  9.700000e+01  5.000000e+00
     vertex  4.821467e-01  3.970835e+00  5.000000e+00
   endloop
 endfacet
 facet normal  0.000000e+00  0.000000e+00  1.000000e+00
   outer loop
     vertex  2.732806e+01  9.307082e+01  5.000000e+00
     vertex  4.821467e-01  3.970835e+00  5.000000e+00
     vertex  1.418420e+00  3.740065e+00  5.000000e+00
   endloop
 endfacet
 facet normal  0.000000e+00  0.000000e+00  1.000000e+00
   outer loop
     vertex  2.732806e+01  9.307082e+01  5.000000e+00
     vertex  1.380454e+01  9.601268e+01  5.000000e+00
     vertex  4.821467e-01  3.970835e+00  5.000000e+00
   endloop
 endfacet
 facet normal  0.000000e+00  0.000000e+00  1.000000e+00
   outer loop
     vertex  9.307082e+01  2.732806e+01  5.000000e+00
     vertex  3.883767e+00  9.572627e-01  5.000000e+00
     vertex  9.601268e+01  1.380454e+01  5.000000e+00
   endloop
 endfacet
 facet normal  0.000000e+00  0.000000e+00  1.000000e+00
   outer loop
     vertex  8.823430e+01  4.029526e+01  5.000000e+00
     vertex  3.541824e+00  1.858893e+00  5.000000e+00
     vertex  3.883767e+00  9.572627e-01  5.000000e+00
   endloop
 endfacet
 facet normal  0.000000e+00  0.000000e+00  1.000000e+00
   outer loop
     vertex  8.823430e+01  4.029526e+01  5.000000e+00
     vertex  3.883767e+00  9.572627e-01  5.000000e+00
     vertex  9.307082e+01  2.732806e+01  5.000000e+00
   endloop
 endfacet
 facet normal  0.000000e+00  0.000000e+00  1.000000e+00
   outer loop
     vertex  4.029526e+01  8.823430e+01  5.000000e+00
     vertex  1.418420e+00  3.740065e+00  5.000000e+00
     vertex  2.272259e+00  3.291935e+00  5.000000e+00
   endloop
 endfacet
 facet normal  0.000000e+00  0.000000e+00  1.000000e+00
   outer loop
     vertex  4.029526e+01  8.823430e+01  5.000000e+00
     vertex  2.732806e+01  9.307082e+01  5.000000e+00
     vertex  1.418420e+00  3.740065e+00  5.000000e+00
   endloop
 endfacet
 facet normal  0.000000e+00  0.000000e+00  1.000000e+00
   outer loop
     vertex  5.244216e+01  8.160159e+01  5.000000e+00
     vertex  4.029526e+01  8.823430e+01  5.000000e+00
     vertex  2.272259e+00  3.291935e+00  5.000000e+00
   endloop
 endfacet
 facet normal  0.000000e+00  0.000000e+00  1.000000e+00
   outer loop
     vertex  8.160159e+01  5.244216e+01  5.000000e+00
     vertex  3.541824e+00  1.858893e+00  5.000000e+00
     vertex  8.823430e+01  4.029526e+01  5.000000e+00
   endloop
 endfacet
 facet normal  0.000000e+00  0.000000e+00  1.000000e+00
   outer loop
     vertex  8.160159e+01  5.244216e+01  5.000000e+00
     vertex  2.994043e+00  2.652491e+00  5.000000e+00
     vertex  3.541824e+00  1.858893e+00  5.000000e+00
   endloop
 endfacet
 facet normal  0.000000e+00  0.000000e+00  1.000000e+00
   outer loop
     vertex  7.330771e+01  6.352149e+01  5.000000e+00
     vertex  2.994043e+00  2.652491e+00  5.000000e+00
     vertex  8.160159e+01  5.244216e+01  5.000000e+00
   endloop
 endfacet
 facet normal  0.000000e+00  0.000000e+00  1.000000e+00
   outer loop
     vertex  6.352149e+01  7.330771e+01  5.000000e+00
     vertex  5.244216e+01  8.160159e+01  5.000000e+00
     vertex  2.272259e+00  3.291935e+00  5.000000e+00
   endloop
 endfacet
 facet normal  0.000000e+00  0.000000e+00  1.000000e+00
   outer loop
     vertex  6.352149e+01  7.330771e+01  5.000000e+00
     vertex  2.994043e+00  2.652491e+00  5.000000e+00
     vertex  7.330771e+01  6.352149e+01  5.000000e+00
   endloop
 endfacet
 facet normal  0.000000e+00  0.000000e+00  1.000000e+00
   outer loop
     vertex  6.352149e+01  7.330771e+01  5.000000e+00
     vertex  2.272259e+00  3.291935e+00  5.000000e+00
     vertex  2.994043e+00  2.652491e+00  5.000000e+00
   endloop
 endfacet
 facet normal -9.927089e-01 -1.205367e-01  0.000000e+00
   outer loop
     vertex  3.883767e+00  9.572627e-01  5.000000e+00
     vertex  4.000000e+00 -9.797174e-16  0.000000e+00
     vertex  4.000000e+00 -9.797174e-16  5.000000e+00
   endloop
 endfacet
 facet normal -9.927089e-01 -1.205367e-01 -0.000000e+00
   outer loop
     vertex  3.883767e+00  9.572627e-01  5.000000e+00
     vertex  3.883767e+00  9.572627e-01  0.000000e+00
     vertex  4.000000e+00 -9.797174e-16  0.000000e+00
   endloop
 endfacet
 facet normal -9.350162e-01 -3.546049e-01 -0.000000e+00
   outer loop
     vertex  3.541824e+00  1.858893e+00  5.000000e+00
     vertex  3.541824e+00  1.858893e+00  0.000000e+00
     vertex  3.883767e+00  9.572627e-01  0.000000e+00
   endloop
 endfacet
 facet normal -8.229839e-01 -5.680647e-01 -0.000000e+00
   outer loop
     vertex  3.541824e+00  1.858893e+00  5.000000e+00
     vertex  2.994043e+00  2.652491e+00  0.000000e+00
     vertex  3.541824e+00  1.858893e+00  0.000000e+00
   endloop
 endfacet
 facet normal -9.350162e-01 -3.546049e-01  0.000000e+00
   outer loop
     vertex  3.541824e+00  1.858893e+00  5.000000e+00
     vertex  3.883767e+00  9.572627e-01  0.000000e+00
     vertex  3.883767e+00  9.572627e-01  5.000000e+00
   endloop
 endfacet
 facet normal -8.229839e-01 -5.680647e-01 -0.000000e+00
   outer loop
     vertex  2.994043e+00  2.652491e+00  5.000000e+00
     vertex  2.994043e+00  2.652491e+00  0.000000e+00
     vertex  3.541824e+00  1.858893e+00  5.000000e+00
   endloop
 endfacet
 facet normal -6.631227e-01 -7.485107e-01 -0.000000e+00
   outer loop
     vertex  2.272259e+00  3.291935e+00  5.000000e+00
     vertex  2.272259e+00  3.291935e+00  0.000000e+00
     vertex  2.994043e+00  2.652491e+00  0.000000e+00
   endloop
 endfacet
 facet normal -6.631227e-01 -7.485107e-01  0.000000e+00
   outer loop
     vertex  2.272259e+00  3.291935e+00  5.000000e+00
     vertex  2.994043e+00  2.652491e+00  0.000000e+00
     vertex  2.994043e+00  2.652491e+00  5.000000e+00
   endloop
 endfacet
 facet normal -4.647232e-01 -8.854560e-01 -0.000000e+00
   outer loop
     vertex  1.418420e+00  3.740065e+00  5.000000e+00
     vertex  1.418420e+00  3.740065e+00  0.000000e+00
     vertex  2.272259e+00  3.291935e+00  0.000000e+00
   endloop
 endfacet
 facet normal -2.393157e-01 -9.709418e-01 -0.000000e+00
   outer loop
     vertex  1.418420e+00  3.740065e+00  5.000000e+00
     vertex  4.821467e-01  3.970835e+00  0.000000e+00
     vertex  1.418420e+00  3.740065e+00  0.000000e+00
   endloop
 endfacet
 facet normal -4.647232e-01 -8.854560e-01  0.000000e+00
   outer loop
     vertex  1.418420e+00  3.740065e+00  5.000000e+00
     vertex  2.272259e+00  3.291935e+00  0.000000e+00
     vertex  2.272259e+00  3.291935e+00  5.000000e+00
   endloop
 endfacet
 facet normal -2.393157e-01 -9.709418e-01 -0.000000e+00
   outer loop
     vertex  4.821467e-01  3.970835e+00  5.000000e+00
     vertex  4.821467e-01  3.970835e+00  0.000000e+00
     vertex  1.418420e+00  3.740065e+00  5.000000e+00
   endloop
 endfacet
 facet normal  0.000000e+00 -1.000000e+00  0.000000e+00
   outer loop
     vertex -4.821467e-01  3.970835e+00  5.000000e+00
     vertex -4.821467e-01  3.970835e+00  0.000000e+00
     vertex  4.821467e-01  3.970835e+00  0.000000e+00
   endloop
 endfacet
 facet normal  0.000000e+00 -1.000000e+00  0.000000e+00
   outer loop
     vertex -4.821467e-01  3.970835e+00  5.000000e+00
     vertex  4.821467e-01  3.970835e+00  0.000000e+00
     vertex  4.821467e-01  3.970835e+00  5.000000e+00
   endloop
 endfacet
 facet normal  2.393157e-01 -9.709418e-01  0.000000e+00
   outer loop
     vertex -1.418420e+00  3.740065e+00  5.000000e+00
     vertex -1.418420e+00  3.740065e+00  0.000000e+00
     vertex -4.821467e-01  3.970835e+00  0.000000e+00
   endloop
 endfacet
 facet normal  2.393157e-01 -9.709418e-01  0.000000e+00
   outer loop
     vertex -1.418420e+00  3.740065e+00  5.000000e+00
     vertex -4.821467e-01  3.970835e+00  0.000000e+00
     vertex -4.821467e-01  3.970835e+00  5.000000e+00
   endloop
 endfacet
 facet normal  4.647232e-01 -8.854560e-01  0.000000e+00
   outer loop
     vertex -2.272259e+00  3.291935e+00  5.000000e+00
     vertex -2.272259e+00  3.291935e+00  0.000000e+00
     vertex -1.418420e+00  3.740065e+00  0.000000e+00
   endloop
 endfacet
 facet normal  4.647232e-01 -8.854560e-01  0.000000e+00
   outer loop
     vertex -2.272259e+00  3.291935e+00  5.000000e+00
     vertex -1.418420e+00  3.740065e+00  0.000000e+00
     vertex -1.418420e+00  3.740065e+00  5.000000e+00
   endloop
 endfacet
 facet normal  6.631227e-01 -7.485107e-01  0.000000e+00
   outer loop
     vertex -2.994043e+00  2.652491e+00  5.000000e+00
     vertex -2.994043e+00  2.652491e+00  0.000000e+00
     vertex -2.272259e+00  3.291935e+00  0.000000e+00
   endloop
 endfacet
 facet normal  8.229839e-01 -5.680647e-01  0.000000e+00
   outer loop
     vertex -2.994043e+00  2.652491e+00  5.000000e+00
     vertex -3.541824e+00  1.858893e+00  0.000000e+00
     vertex -2.994043e+00  2.652491e+00  0.000000e+00
   endloop
 endfacet
 facet normal  6.631227e-01 -7.485107e-01  0.000000e+00
   outer loop
     vertex -2.994043e+00  2.652491e+00  5.000000e+00
     vertex -2.272259e+00  3.291935e+00  0.000000e+00
     vertex -2.272259e+00  3.291935e+00  5.000000e+00
   endloop
 endfacet
 facet normal  8.229839e-01 -5.680647e-01  0.000000e+00
   outer loop
     vertex -3.541824e+00  1.858893e+00  5.000000e+00
     vertex -3.541824e+00  1.858893e+00  0.000000e+00
     vertex -2.994043e+00  2.652491e+00  5.000000e+00
   endloop
 endfacet
 facet normal  9.350162e-01 -3.546049e-01  0.000000e+00
   outer loop
     vertex -3.541824e+00  1.858893e+00  5.000000e+00
     vertex -3.883767e+00  9.572627e-01  0.000000e+00
     vertex -3.541824e+00  1.858893e+00  0.000000e+00
   endloop
 endfacet
 facet normal  9.350162e-01 -3.546049e-01  0.000000e+00
   outer loop
     vertex -3.883767e+00  9.572627e-01  5.000000e+00
     vertex -3.883767e+00  9.572627e-01  0.000000e+00
     vertex -3.541824e+00  1.858893e+00  5.000000e+00
   endloop
 endfacet
 facet normal  9.927089e-01 -1.205367e-01  0.000000e+00
   outer loop
     vertex -4.000000e+00  4.042572e-15  5.000000e+00
     vertex -3.883767e+00  9.572627e-01  0.000000e+00
     vertex -3.883767e+00  9.572627e-01  5.000000e+00
   endloop
 endfacet
 facet normal  9.927089e-01 -1.205367e-01  0.000000e+00
   outer loop
     vertex -4.000000e+00  4.042572e-15  5.000000e+00
     vertex -4.000000e+00  4.042572e-15  0.000000e+00
     vertex -3.883767e+00  9.572627e-01  0.000000e+00
   endloop
 endfacet
 facet normal  9.927089e-01  1.205367e-01  0.000000e+00
   outer loop
     vertex -4.000000e+00  4.042572e-15  5.000000e+00
     vertex -3.883767e+00 -9.572627e-01  0.000000e+00
     vertex -4.000000e+00  4.042572e-15  0.000000e+00
   endloop
 endfacet
 facet normal  9.927089e-01  1.205367e-01  0.000000e+00
   outer loop
     vertex -3.883767e+00 -9.572627e-01  5.000000e+00
     vertex -3.883767e+00 -9.572627e-01  0.000000e+00
     vertex -4.000000e+00  4.042572e-15  5.000000e+00
   endloop
 endfacet
 facet normal  9.350162e-01  3.546049e-01  0.000000e+00
   outer loop
     vertex -3.541824e+00 -1.858893e+00  5.000000e+00
     vertex -3.883767e+00 -9.572627e-01  0.000000e+00
     vertex -3.883767e+00 -9.572627e-01  5.000000e+00
   endloop
 endfacet
 facet normal  9.350162e-01  3.546049e-01  0.000000e+00
   outer loop
     vertex -3.541824e+00 -1.858893e+00  5.000000e+00
     vertex -3.541824e+00 -1.858893e+00  0.000000e+00
     vertex -3.883767e+00 -9.572627e-01  0.000000e+00
   endloop
 endfacet
 facet normal  8.229839e-01  5.680647e-01  0.000000e+00
   outer loop
     vertex -2.994043e+00 -2.652491e+00  5.000000e+00
     vertex -3.541824e+00 -1.858893e+00  0.000000e+00
     vertex -3.541824e+00 -1.858893e+00  5.000000e+00
   endloop
 endfacet
 facet normal  8.229839e-01  5.680647e-01  0.000000e+00
   outer loop
     vertex -2.994043e+00 -2.652491e+00  5.000000e+00
     vertex -2.994043e+00 -2.652491e+00  0.000000e+00
     vertex -3.541824e+00 -1.858893e+00  0.000000e+00
   endloop
 endfacet
 facet normal  6.631227e-01  7.485107e-01  0.000000e+00
   outer loop
     vertex -2.272259e+00 -3.291935e+00  5.000000e+00
     vertex -2.994043e+00 -2.652491e+00  0.000000e+00
     vertex -2.994043e+00 -2.652491e+00  5.000000e+00
   endloop
 endfacet
 facet normal  6.631227e-01  7.485107e-01  0.000000e+00
   outer loop
     vertex -2.272259e+00 -3.291935e+00  5.000000e+00
     vertex -2.272259e+00 -3.291935e+00  0.000000e+00
     vertex -2.994043e+00 -2.652491e+00  0.000000e+00
   endloop
 endfacet
 facet normal  4.647232e-01  8.854560e-01  0.000000e+00
   outer loop
     vertex -1.418420e+00 -3.740065e+00  5.000000e+00
     vertex -2.272259e+00 -3.291935e+00  0.000000e+00
     vertex -2.272259e+00 -3.291935e+00  5.000000e+00
   endloop
 endfacet
 facet normal  4.647232e-01  8.854560e-01  0.000000e+00
   outer loop
     vertex -1.418420e+00 -3.740065e+00  5.000000e+00
     vertex -1.418420e+00 -3.740065e+00  0.000000e+00
     vertex -2.272259e+00 -3.291935e+00  0.000000e+00
   endloop
 endfacet
 facet normal  2.393157e-01  9.709418e-01  0.000000e+00
   outer loop
     vertex -4.821467e-01 -3.970835e+00  5.000000e+00
     vertex -1.418420e+00 -3.740065e+00  0.000000e+00
     vertex -1.418420e+00 -3.740065e+00  5.000000e+00
   endloop
 endfacet
 facet normal  2.393157e-01  9.709418e-01  0.000000e+00
   outer loop
     vertex -4.821467e-01 -3.970835e+00  5.000000e+00
     vertex -4.821467e-01 -3.970835e+00  0.000000e+00
     vertex -1.418420e+00 -3.740065e+00  0.000000e+00
   endloop
 endfacet
 facet normal  2.302666e-15  1.000000e+00  0.000000e+00
   outer loop
     vertex -4.821467e-01 -3.970835e+00  5.000000e+00
     vertex  4.821467e-01 -3.970835e+00  0.000000e+00
     vertex -4.821467e-01 -3.970835e+00  0.000000e+00
   endloop
 endfacet
 facet normal  2.302666e-15  1.000000e+00  0.000000e+00
   outer loop
     vertex  4.821467e-01 -3.970835e+00  5.000000e+00
     vertex  4.821467e-01 -3.970835e+00  0.000000e+00
     vertex -4.821467e-01 -3.970835e+00  5.000000e+00
   endloop
 endfacet
 facet normal -2.393157e-01  9.709418e-01  0.000000e+00
   outer loop
     vertex  1.418420e+00 -3.740065e+00  5.000000e+00
     vertex  4.821467e-01 -3.970835e+00  0.000000e+00
     vertex  4.821467e-01 -3.970835e+00  5.000000e+00
   endloop
 endfacet
 facet normal -2.393157e-01  9.709418e-01  0.000000e+00
   outer loop
     vertex  1.418420e+00 -3.740065e+00  5.000000e+00
     vertex  1.418420e+00 -3.740065e+00  0.000000e+00
     vertex  4.821467e-01 -3.970835e+00  0.000000e+00
   endloop
 endfacet
 facet normal -4.647232e-01  8.854560e-01  0.000000e+00
   outer loop
     vertex  2.272259e+00 -3.291935e+00  5.000000e+00
     vertex  1.418420e+00 -3.740065e+00  0.000000e+00
     vertex  1.418420e+00 -3.740065e+00  5.000000e+00
   endloop
 endfacet
 facet normal -4.647232e-01  8.854560e-01  0.000000e+00
   outer loop
     vertex  2.272259e+00 -3.291935e+00  5.000000e+00
     vertex  2.272259e+00 -3.291935e+00  0.000000e+00
     vertex  1.418420e+00 -3.740065e+00  0.000000e+00
   endloop
 endfacet
 facet normal -6.631227e-01  7.485107e-01  0.000000e+00
   outer loop
     vertex  2.272259e+00 -3.291935e+00  5.000000e+00
     vertex  2.994043e+00 -2.652491e+00  0.000000e+00
     vertex  2.272259e+00 -3.291935e+00  0.000000e+00
   endloop
 endfacet
 facet normal -6.631227e-01  7.485107e-01  0.000000e+00
   outer loop
     vertex  2.994043e+00 -2.652491e+00  5.000000e+00
     vertex  2.994043e+00 -2.652491e+00  0.000000e+00
     vertex  2.272259e+00 -3.291935e+00  5.000000e+00
   endloop
 endfacet
 facet normal -8.229839e-01  5.680647e-01  0.000000e+00
   outer loop
     vertex  2.994043e+00 -2.652491e+00  5.000000e+00
     vertex  3.541824e+00 -1.858893e+00  0.000000e+00
     vertex  2.994043e+00 -2.652491e+00  0.000000e+00
   endloop
 endfacet
 facet normal -8.229839e-01  5.680647e-01  0.000000e+00
   outer loop
     vertex  3.541824e+00 -1.858893e+00  5.000000e+00
     vertex  3.541824e+00 -1.858893e+00  0.000000e+00
     vertex  2.994043e+00 -2.652491e+00  5.000000e+00
   endloop
 endfacet
 facet normal -9.350162e-01  3.546049e-01  0.000000e+00
   outer loop
     vertex  3.883767e+00 -9.572627e-01  5.000000e+00
     vertex  3.883767e+00 -9.572627e-01  0.000000e+00
     vertex  3.541824e+00 -1.858893e+00  0.000000e+00
   endloop
 endfacet
 facet normal -9.927089e-01  1.205367e-01  0.000000e+00
   outer loop
     vertex  3.883767e+00 -9.572627e-01  5.000000e+00
     vertex  4.000000e+00 -9.797174e-16  0.000000e+00
     vertex  3.883767e+00 -9.572627e-01  0.000000e+00
   endloop
 endfacet
 facet normal -9.350162e-01  3.546049e-01  0.000000e+00
   outer loop
     vertex  3.883767e+00 -9.572627e-01  5.000000e+00
     vertex  3.541824e+00 -1.858893e+00  0.000000e+00
     vertex  3.541824e+00 -1.858893e+00  5.000000e+00
   endloop
 endfacet
 facet normal -9.927089e-01  1.205367e-01  0.000000e+00
   outer loop
     vertex  4.000000e+00 -9.797174e-16  5.000000e+00
     vertex  4.000000e+00 -9.797174e-16  0.000000e+00
     vertex  3.883767e+00 -9.572627e-01  5.000000e+00
   endloop
 endfacet
endsolid
