solid 
 facet normal  3.362243e-01  2.581346e-02  9.414281e-01
   outer loop
     vertex  8.103899e+01  1.251724e+01  6.000000e+01
     vertex  7.500000e+01 -1.836970e-14  6.250000e+01
     vertex  8.200000e+01 -2.008421e-14  6.000000e+01
   endloop
 endfacet
 facet normal  3.341182e-01  2.697281e-02  9.421452e-01
   outer loop
     vertex  7.402877e+01  1.203085e+01  6.250000e+01
     vertex  7.500000e+01 -1.836970e-14  6.250000e+01
     vertex  8.103899e+01  1.251724e+01  6.000000e+01
   endloop
 endfacet
 facet normal  3.301376e-01  7.725517e-02  9.407661e-01
   outer loop
     vertex  7.817850e+01  2.474109e+01  6.000000e+01
     vertex  7.402877e+01  1.203085e+01  6.250000e+01
     vertex  8.103899e+01  1.251724e+01  6.000000e+01
   endloop
 endfacet
 facet normal  3.236537e-01  7.977346e-02  9.428067e-01
   outer loop
     vertex  7.114023e+01  2.375010e+01  6.250000e+01
     vertex  7.402877e+01  1.203085e+01  6.250000e+01
     vertex  7.817850e+01  2.474109e+01  6.000000e+01
   endloop
 endfacet
 facet normal  3.160148e-01  1.273654e-01  9.401663e-01
   outer loop
     vertex  7.348558e+01  3.638503e+01  6.000000e+01
     vertex  7.114023e+01  2.375010e+01  6.250000e+01
     vertex  7.817850e+01  2.474109e+01  6.000000e+01
   endloop
 endfacet
 facet normal  3.051606e-01  1.300168e-01  9.433836e-01
   outer loop
     vertex  6.640920e+01  3.485424e+01  6.250000e+01
     vertex  7.114023e+01  2.375010e+01  6.250000e+01
     vertex  7.348558e+01  3.638503e+01  6.000000e+01
   endloop
 endfacet
 facet normal  2.941337e-01  1.748640e-01  9.396318e-01
   outer loop
     vertex  6.707021e+01  4.717613e+01  6.000000e+01
     vertex  6.640920e+01  3.485424e+01  6.250000e+01
     vertex  7.348558e+01  3.638503e+01  6.000000e+01
   endloop
 endfacet
 facet normal  2.791585e-01  1.765291e-01  9.438792e-01
   outer loop
     vertex  5.995821e+01  4.505567e+01  6.250000e+01
     vertex  6.640920e+01  3.485424e+01  6.250000e+01
     vertex  6.707021e+01  4.717613e+01  6.000000e+01
   endloop
 endfacet
 facet normal  2.649797e-01  2.185271e-01  9.391654e-01
   outer loop
     vertex  5.908277e+01  5.686147e+01  6.000000e+01
     vertex  5.995821e+01  4.505567e+01  6.250000e+01
     vertex  6.707021e+01  4.717613e+01  6.000000e+01
   endloop
 endfacet
 facet normal  2.463317e-01  2.182309e-01  9.442965e-01
   outer loop
     vertex  5.195433e+01  5.409018e+01  6.250000e+01
     vertex  5.995821e+01  4.505567e+01  6.250000e+01
     vertex  5.908277e+01  5.686147e+01  6.000000e+01
   endloop
 endfacet
 facet normal  2.292351e-01  2.572217e-01  9.387695e-01
   outer loop
     vertex  4.971048e+01  6.521402e+01  6.000000e+01
     vertex  5.195433e+01  5.409018e+01  6.250000e+01
     vertex  5.908277e+01  5.686147e+01  6.000000e+01
   endloop
 endfacet
 facet normal  2.075146e-01  2.541593e-01  9.446379e-01
   outer loop
     vertex  4.260486e+01  6.172379e+01  6.250000e+01
     vertex  5.195433e+01  5.409018e+01  6.250000e+01
     vertex  4.971048e+01  6.521402e+01  6.000000e+01
   endloop
 endfacet
 facet normal  1.877620e-01  2.899380e-01  9.384463e-01
   outer loop
     vertex  3.917303e+01  7.203800e+01  6.000000e+01
     vertex  4.260486e+01  6.172379e+01  6.250000e+01
     vertex  4.971048e+01  6.521402e+01  6.000000e+01
   endloop
 endfacet
 facet normal  1.636720e-01  2.834882e-01  9.449053e-01
   outer loop
     vertex  3.215194e+01  6.775878e+01  6.250000e+01
     vertex  4.260486e+01  6.172379e+01  6.250000e+01
     vertex  3.917303e+01  7.203800e+01  6.000000e+01
   endloop
 endfacet
 facet normal  1.415789e-01  3.158181e-01  9.381974e-01
   outer loop
     vertex  2.771738e+01  7.717348e+01  6.000000e+01
     vertex  3.215194e+01  6.775878e+01  6.250000e+01
     vertex  3.917303e+01  7.203800e+01  6.000000e+01
   endloop
 endfacet
 facet normal  1.158781e-01  3.055454e-01  9.451002e-01
   outer loop
     vertex  2.086631e+01  7.203886e+01  6.250000e+01
     vertex  3.215194e+01  6.775878e+01  6.250000e+01
     vertex  2.771738e+01  7.717348e+01  6.000000e+01
   endloop
 endfacet
 facet normal  9.183458e-02  3.341811e-01  9.380242e-01
   outer loop
     vertex  2.086631e+01  7.203886e+01  6.250000e+01
     vertex  2.771738e+01  7.717348e+01  6.000000e+01
     vertex  1.561207e+01  8.050008e+01  6.000000e+01
   endloop
 endfacet
 facet normal  6.529307e-02  3.198266e-01  9.452237e-01
   outer loop
     vertex  9.040251e+00  7.445317e+01  6.250000e+01
     vertex  2.086631e+01  7.203886e+01  6.250000e+01
     vertex  1.561207e+01  8.050008e+01  6.000000e+01
   endloop
 endfacet
 facet normal  3.977576e-02  3.445425e-01  9.379277e-01
   outer loop
     vertex  9.040251e+00  7.445317e+01  6.250000e+01
     vertex  1.561207e+01  8.050008e+01  6.000000e+01
     vertex  3.140824e+00  8.193983e+01  6.000000e+01
   endloop
 endfacet
 facet normal  1.313759e-02  3.260059e-01  9.452765e-01
   outer loop
     vertex -3.019946e+00  7.493917e+01  6.250000e+01
     vertex  9.040251e+00  7.445317e+01  6.250000e+01
     vertex  3.140824e+00  8.193983e+01  6.000000e+01
   endloop
 endfacet
 facet normal -1.328657e-02  3.466286e-01  9.379083e-01
   outer loop
     vertex -3.019946e+00  7.493917e+01  6.250000e+01
     vertex  3.140824e+00  8.193983e+01  6.000000e+01
     vertex -9.404041e+00  8.145897e+01  6.000000e+01
   endloop
 endfacet
 facet normal -3.933370e-02  3.239422e-01  9.452589e-01
   outer loop
     vertex -1.500193e+01  7.348430e+01  6.250000e+01
     vertex -3.019946e+00  7.493917e+01  6.250000e+01
     vertex -9.404041e+00  8.145897e+01  6.000000e+01
   endloop
 endfacet
 facet normal -6.601363e-02  3.403842e-01  9.379663e-01
   outer loop
     vertex -1.500193e+01  7.348430e+01  6.250000e+01
     vertex -9.404041e+00  8.145897e+01  6.000000e+01
     vertex -2.172848e+01  7.906879e+01  6.000000e+01
   endloop
 endfacet
 facet normal -9.085928e-02  3.136826e-01  9.451708e-01
   outer loop
     vertex -2.659537e+01  7.012622e+01  6.250000e+01
     vertex -1.500193e+01  7.348430e+01  6.250000e+01
     vertex -2.172848e+01  7.906879e+01  6.000000e+01
   endloop
 endfacet
 facet normal -1.170759e-01  3.259744e-01  9.381012e-01
   outer loop
     vertex -2.659537e+01  7.012622e+01  6.250000e+01
     vertex -2.172848e+01  7.906879e+01  6.000000e+01
     vertex -3.354363e+01  7.482530e+01  6.000000e+01
   endloop
 endfacet
 facet normal -1.401981e-01  2.954613e-01  9.450117e-01
   outer loop
     vertex -3.750000e+01  6.495191e+01  6.250000e+01
     vertex -2.659537e+01  7.012622e+01  6.250000e+01
     vertex -3.354363e+01  7.482530e+01  6.000000e+01
   endloop
 endfacet
 facet normal -1.651901e-01  3.037796e-01  9.383124e-01
   outer loop
     vertex -3.750000e+01  6.495191e+01  6.250000e+01
     vertex -3.354363e+01  7.482530e+01  6.000000e+01
     vertex -4.457254e+01  6.882796e+01  6.000000e+01
   endloop
 endfacet
 facet normal -1.861566e-01  2.696944e-01  9.447807e-01
   outer loop
     vertex -4.743340e+01  5.809537e+01  6.250000e+01
     vertex -3.750000e+01  6.495191e+01  6.250000e+01
     vertex -4.457254e+01  6.882796e+01  6.000000e+01
   endloop
 endfacet
 facet normal -2.091543e-01  2.743847e-01  9.385987e-01
   outer loop
     vertex -4.743340e+01  5.809537e+01  6.250000e+01
     vertex -4.457254e+01  6.882796e+01  6.000000e+01
     vertex -5.455671e+01  6.121736e+01  6.000000e+01
   endloop
 endfacet
 facet normal -2.276145e-01  2.369718e-01  9.444766e-01
   outer loop
     vertex -5.613831e+01  4.973420e+01  6.250000e+01
     vertex -4.743340e+01  5.809537e+01  6.250000e+01
     vertex -5.455671e+01  6.121736e+01  6.000000e+01
   endloop
 endfacet
 facet normal -2.478813e-01  2.385619e-01  9.389585e-01
   outer loop
     vertex -5.613831e+01  4.973420e+01  6.250000e+01
     vertex -5.455671e+01  6.121736e+01  6.000000e+01
     vertex -6.326211e+01  5.217188e+01  6.000000e+01
   endloop
 endfacet
 facet normal -2.635493e-01  1.980445e-01  9.440975e-01
   outer loop
     vertex -6.338926e+01  4.008494e+01  6.250000e+01
     vertex -5.613831e+01  4.973420e+01  6.250000e+01
     vertex -6.326211e+01  5.217188e+01  6.000000e+01
   endloop
 endfacet
 facet normal -2.804276e-01  1.972483e-01  9.393900e-01
   outer loop
     vertex -6.338926e+01  4.008494e+01  6.250000e+01
     vertex -6.326211e+01  5.217188e+01  6.000000e+01
     vertex -7.048471e+01  4.190353e+01  6.000000e+01
   endloop
 endfacet
 facet normal -2.930591e-01  1.538093e-01  9.436414e-01
   outer loop
     vertex -6.899846e+01  2.939750e+01  6.250000e+01
     vertex -6.338926e+01  4.008494e+01  6.250000e+01
     vertex -7.048471e+01  4.190353e+01  6.000000e+01
   endloop
 endfacet
 facet normal -3.060185e-01  1.515194e-01  9.398907e-01
   outer loop
     vertex -6.899846e+01  2.939750e+01  6.250000e+01
     vertex -7.048471e+01  4.190353e+01  6.000000e+01
     vertex -7.605520e+01  3.065300e+01  6.000000e+01
   endloop
 endfacet
 facet normal -3.153823e-01  1.052901e-01  9.431055e-01
   outer loop
     vertex -7.282064e+01  1.794867e+01  6.250000e+01
     vertex -6.899846e+01  2.939750e+01  6.250000e+01
     vertex -7.605520e+01  3.065300e+01  6.000000e+01
   endloop
 endfacet
 facet normal -3.240683e-01  1.025576e-01  9.404582e-01
   outer loop
     vertex -7.282064e+01  1.794867e+01  6.250000e+01
     vertex -7.605520e+01  3.065300e+01  6.000000e+01
     vertex -7.984302e+01  1.868399e+01  6.000000e+01
   endloop
 endfacet
 facet normal -3.341945e-01  5.161951e-02  9.410895e-01
   outer loop
     vertex -7.475680e+01  6.034993e+00  6.250000e+01
     vertex -7.984302e+01  1.868399e+01  6.000000e+01
     vertex -8.175940e+01  6.277039e+00  6.000000e+01
   endloop
 endfacet
 facet normal -3.299151e-01  5.361642e-02  9.424868e-01
   outer loop
     vertex -7.475680e+01  6.034993e+00  6.250000e+01
     vertex -7.282064e+01  1.794867e+01  6.250000e+01
     vertex -7.984302e+01  1.868399e+01  6.000000e+01
   endloop
 endfacet
 facet normal -3.362257e-01  3.805979e-16  9.417814e-01
   outer loop
     vertex -8.175940e+01 -6.277039e+00  6.000000e+01
     vertex -7.475680e+01  6.034993e+00  6.250000e+01
     vertex -8.175940e+01  6.277039e+00  6.000000e+01
   endloop
 endfacet
 facet normal -3.362257e-01 -3.958625e-16  9.417814e-01
   outer loop
     vertex -7.475680e+01 -6.034993e+00  6.250000e+01
     vertex -7.475680e+01  6.034993e+00  6.250000e+01
     vertex -8.175940e+01 -6.277039e+00  6.000000e+01
   endloop
 endfacet
 facet normal -3.341945e-01 -5.161951e-02  9.410895e-01
   outer loop
     vertex -7.984302e+01 -1.868399e+01  6.000000e+01
     vertex -7.475680e+01 -6.034993e+00  6.250000e+01
     vertex -8.175940e+01 -6.277039e+00  6.000000e+01
   endloop
 endfacet
 facet normal -3.299151e-01 -5.361642e-02  9.424868e-01
   outer loop
     vertex -7.282064e+01 -1.794867e+01  6.250000e+01
     vertex -7.475680e+01 -6.034993e+00  6.250000e+01
     vertex -7.984302e+01 -1.868399e+01  6.000000e+01
   endloop
 endfacet
 facet normal -3.240683e-01 -1.025576e-01  9.404582e-01
   outer loop
     vertex -7.605520e+01 -3.065300e+01  6.000000e+01
     vertex -7.282064e+01 -1.794867e+01  6.250000e+01
     vertex -7.984302e+01 -1.868399e+01  6.000000e+01
   endloop
 endfacet
 facet normal -3.153823e-01 -1.052901e-01  9.431055e-01
   outer loop
     vertex -6.899846e+01 -2.939750e+01  6.250000e+01
     vertex -7.282064e+01 -1.794867e+01  6.250000e+01
     vertex -7.605520e+01 -3.065300e+01  6.000000e+01
   endloop
 endfacet
 facet normal -3.060185e-01 -1.515194e-01  9.398907e-01
   outer loop
     vertex -7.048471e+01 -4.190353e+01  6.000000e+01
     vertex -6.899846e+01 -2.939750e+01  6.250000e+01
     vertex -7.605520e+01 -3.065300e+01  6.000000e+01
   endloop
 endfacet
 facet normal -2.930591e-01 -1.538093e-01  9.436414e-01
   outer loop
     vertex -6.338926e+01 -4.008494e+01  6.250000e+01
     vertex -6.899846e+01 -2.939750e+01  6.250000e+01
     vertex -7.048471e+01 -4.190353e+01  6.000000e+01
   endloop
 endfacet
 facet normal -2.804276e-01 -1.972483e-01  9.393900e-01
   outer loop
     vertex -6.326211e+01 -5.217188e+01  6.000000e+01
     vertex -6.338926e+01 -4.008494e+01  6.250000e+01
     vertex -7.048471e+01 -4.190353e+01  6.000000e+01
   endloop
 endfacet
 facet normal -2.635493e-01 -1.980445e-01  9.440975e-01
   outer loop
     vertex -5.613831e+01 -4.973420e+01  6.250000e+01
     vertex -6.338926e+01 -4.008494e+01  6.250000e+01
     vertex -6.326211e+01 -5.217188e+01  6.000000e+01
   endloop
 endfacet
 facet normal -2.478813e-01 -2.385619e-01  9.389585e-01
   outer loop
     vertex -5.455671e+01 -6.121736e+01  6.000000e+01
     vertex -5.613831e+01 -4.973420e+01  6.250000e+01
     vertex -6.326211e+01 -5.217188e+01  6.000000e+01
   endloop
 endfacet
 facet normal -2.276145e-01 -2.369718e-01  9.444766e-01
   outer loop
     vertex -4.743340e+01 -5.809537e+01  6.250000e+01
     vertex -5.613831e+01 -4.973420e+01  6.250000e+01
     vertex -5.455671e+01 -6.121736e+01  6.000000e+01
   endloop
 endfacet
 facet normal -2.091543e-01 -2.743847e-01  9.385987e-01
   outer loop
     vertex -4.457254e+01 -6.882796e+01  6.000000e+01
     vertex -4.743340e+01 -5.809537e+01  6.250000e+01
     vertex -5.455671e+01 -6.121736e+01  6.000000e+01
   endloop
 endfacet
 facet normal -1.861566e-01 -2.696944e-01  9.447807e-01
   outer loop
     vertex -3.750000e+01 -6.495191e+01  6.250000e+01
     vertex -4.743340e+01 -5.809537e+01  6.250000e+01
     vertex -4.457254e+01 -6.882796e+01  6.000000e+01
   endloop
 endfacet
 facet normal -1.651901e-01 -3.037796e-01  9.383124e-01
   outer loop
     vertex -3.354363e+01 -7.482530e+01  6.000000e+01
     vertex -3.750000e+01 -6.495191e+01  6.250000e+01
     vertex -4.457254e+01 -6.882796e+01  6.000000e+01
   endloop
 endfacet
 facet normal -1.170759e-01 -3.259744e-01  9.381012e-01
   outer loop
     vertex -2.659537e+01 -7.012622e+01  6.250000e+01
     vertex -3.354363e+01 -7.482530e+01  6.000000e+01
     vertex -2.172848e+01 -7.906879e+01  6.000000e+01
   endloop
 endfacet
 facet normal -1.401981e-01 -2.954613e-01  9.450117e-01
   outer loop
     vertex -2.659537e+01 -7.012622e+01  6.250000e+01
     vertex -3.750000e+01 -6.495191e+01  6.250000e+01
     vertex -3.354363e+01 -7.482530e+01  6.000000e+01
   endloop
 endfacet
 facet normal -6.601363e-02 -3.403842e-01  9.379663e-01
   outer loop
     vertex -1.500193e+01 -7.348430e+01  6.250000e+01
     vertex -2.172848e+01 -7.906879e+01  6.000000e+01
     vertex -9.404041e+00 -8.145897e+01  6.000000e+01
   endloop
 endfacet
 facet normal -9.085928e-02 -3.136826e-01  9.451708e-01
   outer loop
     vertex -1.500193e+01 -7.348430e+01  6.250000e+01
     vertex -2.659537e+01 -7.012622e+01  6.250000e+01
     vertex -2.172848e+01 -7.906879e+01  6.000000e+01
   endloop
 endfacet
 facet normal -1.328657e-02 -3.466286e-01  9.379083e-01
   outer loop
     vertex -3.019946e+00 -7.493917e+01  6.250000e+01
     vertex -9.404041e+00 -8.145897e+01  6.000000e+01
     vertex  3.140824e+00 -8.193983e+01  6.000000e+01
   endloop
 endfacet
 facet normal -3.933370e-02 -3.239422e-01  9.452589e-01
   outer loop
     vertex -3.019946e+00 -7.493917e+01  6.250000e+01
     vertex -1.500193e+01 -7.348430e+01  6.250000e+01
     vertex -9.404041e+00 -8.145897e+01  6.000000e+01
   endloop
 endfacet
 facet normal  1.313759e-02 -3.260059e-01  9.452765e-01
   outer loop
     vertex  9.040251e+00 -7.445317e+01  6.250000e+01
     vertex -3.019946e+00 -7.493917e+01  6.250000e+01
     vertex  3.140824e+00 -8.193983e+01  6.000000e+01
   endloop
 endfacet
 facet normal  3.977576e-02 -3.445425e-01  9.379277e-01
   outer loop
     vertex  9.040251e+00 -7.445317e+01  6.250000e+01
     vertex  3.140824e+00 -8.193983e+01  6.000000e+01
     vertex  1.561207e+01 -8.050008e+01  6.000000e+01
   endloop
 endfacet
 facet normal  6.529307e-02 -3.198266e-01  9.452237e-01
   outer loop
     vertex  2.086631e+01 -7.203886e+01  6.250000e+01
     vertex  9.040251e+00 -7.445317e+01  6.250000e+01
     vertex  1.561207e+01 -8.050008e+01  6.000000e+01
   endloop
 endfacet
 facet normal  9.183458e-02 -3.341811e-01  9.380242e-01
   outer loop
     vertex  2.086631e+01 -7.203886e+01  6.250000e+01
     vertex  1.561207e+01 -8.050008e+01  6.000000e+01
     vertex  2.771738e+01 -7.717348e+01  6.000000e+01
   endloop
 endfacet
 facet normal  1.158781e-01 -3.055454e-01  9.451002e-01
   outer loop
     vertex  3.215194e+01 -6.775878e+01  6.250000e+01
     vertex  2.086631e+01 -7.203886e+01  6.250000e+01
     vertex  2.771738e+01 -7.717348e+01  6.000000e+01
   endloop
 endfacet
 facet normal  1.415789e-01 -3.158181e-01  9.381974e-01
   outer loop
     vertex  3.215194e+01 -6.775878e+01  6.250000e+01
     vertex  2.771738e+01 -7.717348e+01  6.000000e+01
     vertex  3.917303e+01 -7.203800e+01  6.000000e+01
   endloop
 endfacet
 facet normal  1.636720e-01 -2.834882e-01  9.449053e-01
   outer loop
     vertex  4.260486e+01 -6.172379e+01  6.250000e+01
     vertex  3.215194e+01 -6.775878e+01  6.250000e+01
     vertex  3.917303e+01 -7.203800e+01  6.000000e+01
   endloop
 endfacet
 facet normal  1.877620e-01 -2.899380e-01  9.384463e-01
   outer loop
     vertex  4.260486e+01 -6.172379e+01  6.250000e+01
     vertex  3.917303e+01 -7.203800e+01  6.000000e+01
     vertex  4.971048e+01 -6.521402e+01  6.000000e+01
   endloop
 endfacet
 facet normal  2.075146e-01 -2.541593e-01  9.446379e-01
   outer loop
     vertex  5.195433e+01 -5.409018e+01  6.250000e+01
     vertex  4.260486e+01 -6.172379e+01  6.250000e+01
     vertex  4.971048e+01 -6.521402e+01  6.000000e+01
   endloop
 endfacet
 facet normal  2.292351e-01 -2.572217e-01  9.387695e-01
   outer loop
     vertex  5.195433e+01 -5.409018e+01  6.250000e+01
     vertex  4.971048e+01 -6.521402e+01  6.000000e+01
     vertex  5.908277e+01 -5.686147e+01  6.000000e+01
   endloop
 endfacet
 facet normal  2.463317e-01 -2.182309e-01  9.442965e-01
   outer loop
     vertex  5.995821e+01 -4.505567e+01  6.250000e+01
     vertex  5.195433e+01 -5.409018e+01  6.250000e+01
     vertex  5.908277e+01 -5.686147e+01  6.000000e+01
   endloop
 endfacet
 facet normal  2.649797e-01 -2.185271e-01  9.391654e-01
   outer loop
     vertex  5.995821e+01 -4.505567e+01  6.250000e+01
     vertex  5.908277e+01 -5.686147e+01  6.000000e+01
     vertex  6.707021e+01 -4.717613e+01  6.000000e+01
   endloop
 endfacet
 facet normal  2.791585e-01 -1.765291e-01  9.438792e-01
   outer loop
     vertex  6.640920e+01 -3.485424e+01  6.250000e+01
     vertex  5.995821e+01 -4.505567e+01  6.250000e+01
     vertex  6.707021e+01 -4.717613e+01  6.000000e+01
   endloop
 endfacet
 facet normal  2.941337e-01 -1.748640e-01  9.396318e-01
   outer loop
     vertex  6.640920e+01 -3.485424e+01  6.250000e+01
     vertex  6.707021e+01 -4.717613e+01  6.000000e+01
     vertex  7.348558e+01 -3.638503e+01  6.000000e+01
   endloop
 endfacet
 facet normal  3.051606e-01 -1.300168e-01  9.433836e-01
   outer loop
     vertex  7.114023e+01 -2.375010e+01  6.250000e+01
     vertex  6.640920e+01 -3.485424e+01  6.250000e+01
     vertex  7.348558e+01 -3.638503e+01  6.000000e+01
   endloop
 endfacet
 facet normal  3.160148e-01 -1.273654e-01  9.401663e-01
   outer loop
     vertex  7.114023e+01 -2.375010e+01  6.250000e+01
     vertex  7.348558e+01 -3.638503e+01  6.000000e+01
     vertex  7.817850e+01 -2.474109e+01  6.000000e+01
   endloop
 endfacet
 facet normal  3.236537e-01 -7.977346e-02  9.428067e-01
   outer loop
     vertex  7.402877e+01 -1.203085e+01  6.250000e+01
     vertex  7.114023e+01 -2.375010e+01  6.250000e+01
     vertex  7.817850e+01 -2.474109e+01  6.000000e+01
   endloop
 endfacet
 facet normal  3.301376e-01 -7.725517e-02  9.407661e-01
   outer loop
     vertex  7.402877e+01 -1.203085e+01  6.250000e+01
     vertex  7.817850e+01 -2.474109e+01  6.000000e+01
     vertex  8.103899e+01 -1.251724e+01  6.000000e+01
   endloop
 endfacet
 facet normal  3.341182e-01 -2.697281e-02  9.421452e-01
   outer loop
     vertex  7.500000e+01 -1.836970e-14  6.250000e+01
     vertex  7.402877e+01 -1.203085e+01  6.250000e+01
     vertex  8.103899e+01 -1.251724e+01  6.000000e+01
   endloop
 endfacet
 facet normal  3.362243e-01 -2.581346e-02  9.414281e-01
   outer loop
     vertex  7.500000e+01 -1.836970e-14  6.250000e+01
     vertex  8.103899e+01 -1.251724e+01  6.000000e+01
     vertex  8.200000e+01 -2.008421e-14  6.000000e+01
   endloop
 endfacet
 facet normal  3.362243e-01  2.581346e-02 -9.414281e-01
   outer loop
     vertex  8.103899e+01  1.251724e+01  6.500000e+01
     vertex  8.200000e+01 -2.008421e-14  6.500000e+01
     vertex  7.500000e+01 -1.836970e-14  6.250000e+01
   endloop
 endfacet
 facet normal  3.341182e-01  2.697281e-02 -9.421452e-01
   outer loop
     vertex  8.103899e+01  1.251724e+01  6.500000e+01
     vertex  7.500000e+01 -1.836970e-14  6.250000e+01
     vertex  7.402877e+01  1.203085e+01  6.250000e+01
   endloop
 endfacet
 facet normal  3.236537e-01  7.977346e-02 -9.428067e-01
   outer loop
     vertex  7.817850e+01  2.474109e+01  6.500000e+01
     vertex  7.402877e+01  1.203085e+01  6.250000e+01
     vertex  7.114023e+01  2.375010e+01  6.250000e+01
   endloop
 endfacet
 facet normal  3.301376e-01  7.725517e-02 -9.407661e-01
   outer loop
     vertex  7.817850e+01  2.474109e+01  6.500000e+01
     vertex  8.103899e+01  1.251724e+01  6.500000e+01
     vertex  7.402877e+01  1.203085e+01  6.250000e+01
   endloop
 endfacet
 facet normal  3.051606e-01  1.300168e-01 -9.433836e-01
   outer loop
     vertex  7.348558e+01  3.638503e+01  6.500000e+01
     vertex  7.114023e+01  2.375010e+01  6.250000e+01
     vertex  6.640920e+01  3.485424e+01  6.250000e+01
   endloop
 endfacet
 facet normal  3.160148e-01  1.273654e-01 -9.401663e-01
   outer loop
     vertex  7.348558e+01  3.638503e+01  6.500000e+01
     vertex  7.817850e+01  2.474109e+01  6.500000e+01
     vertex  7.114023e+01  2.375010e+01  6.250000e+01
   endloop
 endfacet
 facet normal  2.941337e-01  1.748640e-01 -9.396318e-01
   outer loop
     vertex  6.707021e+01  4.717613e+01  6.500000e+01
     vertex  7.348558e+01  3.638503e+01  6.500000e+01
     vertex  6.640920e+01  3.485424e+01  6.250000e+01
   endloop
 endfacet
 facet normal  2.791585e-01  1.765291e-01 -9.438792e-01
   outer loop
     vertex  6.707021e+01  4.717613e+01  6.500000e+01
     vertex  6.640920e+01  3.485424e+01  6.250000e+01
     vertex  5.995821e+01  4.505567e+01  6.250000e+01
   endloop
 endfacet
 facet normal  2.649797e-01  2.185271e-01 -9.391654e-01
   outer loop
     vertex  5.908277e+01  5.686147e+01  6.500000e+01
     vertex  6.707021e+01  4.717613e+01  6.500000e+01
     vertex  5.995821e+01  4.505567e+01  6.250000e+01
   endloop
 endfacet
 facet normal  2.463317e-01  2.182309e-01 -9.442965e-01
   outer loop
     vertex  5.908277e+01  5.686147e+01  6.500000e+01
     vertex  5.995821e+01  4.505567e+01  6.250000e+01
     vertex  5.195433e+01  5.409018e+01  6.250000e+01
   endloop
 endfacet
 facet normal  2.292351e-01  2.572217e-01 -9.387695e-01
   outer loop
     vertex  4.971048e+01  6.521402e+01  6.500000e+01
     vertex  5.908277e+01  5.686147e+01  6.500000e+01
     vertex  5.195433e+01  5.409018e+01  6.250000e+01
   endloop
 endfacet
 facet normal  2.075146e-01  2.541593e-01 -9.446379e-01
   outer loop
     vertex  4.971048e+01  6.521402e+01  6.500000e+01
     vertex  5.195433e+01  5.409018e+01  6.250000e+01
     vertex  4.260486e+01  6.172379e+01  6.250000e+01
   endloop
 endfacet
 facet normal  1.877620e-01  2.899380e-01 -9.384463e-01
   outer loop
     vertex  3.917303e+01  7.203800e+01  6.500000e+01
     vertex  4.971048e+01  6.521402e+01  6.500000e+01
     vertex  4.260486e+01  6.172379e+01  6.250000e+01
   endloop
 endfacet
 facet normal  1.636720e-01  2.834882e-01 -9.449053e-01
   outer loop
     vertex  3.917303e+01  7.203800e+01  6.500000e+01
     vertex  4.260486e+01  6.172379e+01  6.250000e+01
     vertex  3.215194e+01  6.775878e+01  6.250000e+01
   endloop
 endfacet
 facet normal  1.415789e-01  3.158181e-01 -9.381974e-01
   outer loop
     vertex  2.771738e+01  7.717348e+01  6.500000e+01
     vertex  3.917303e+01  7.203800e+01  6.500000e+01
     vertex  3.215194e+01  6.775878e+01  6.250000e+01
   endloop
 endfacet
 facet normal  1.158781e-01  3.055454e-01 -9.451002e-01
   outer loop
     vertex  2.771738e+01  7.717348e+01  6.500000e+01
     vertex  3.215194e+01  6.775878e+01  6.250000e+01
     vertex  2.086631e+01  7.203886e+01  6.250000e+01
   endloop
 endfacet
 facet normal  9.183458e-02  3.341811e-01 -9.380242e-01
   outer loop
     vertex  1.561207e+01  8.050008e+01  6.500000e+01
     vertex  2.771738e+01  7.717348e+01  6.500000e+01
     vertex  2.086631e+01  7.203886e+01  6.250000e+01
   endloop
 endfacet
 facet normal  6.529307e-02  3.198266e-01 -9.452237e-01
   outer loop
     vertex  1.561207e+01  8.050008e+01  6.500000e+01
     vertex  2.086631e+01  7.203886e+01  6.250000e+01
     vertex  9.040251e+00  7.445317e+01  6.250000e+01
   endloop
 endfacet
 facet normal  3.977576e-02  3.445425e-01 -9.379277e-01
   outer loop
     vertex  3.140824e+00  8.193983e+01  6.500000e+01
     vertex  1.561207e+01  8.050008e+01  6.500000e+01
     vertex  9.040251e+00  7.445317e+01  6.250000e+01
   endloop
 endfacet
 facet normal  1.313759e-02  3.260059e-01 -9.452765e-01
   outer loop
     vertex  3.140824e+00  8.193983e+01  6.500000e+01
     vertex  9.040251e+00  7.445317e+01  6.250000e+01
     vertex -3.019946e+00  7.493917e+01  6.250000e+01
   endloop
 endfacet
 facet normal -1.328657e-02  3.466286e-01 -9.379083e-01
   outer loop
     vertex -9.404041e+00  8.145897e+01  6.500000e+01
     vertex  3.140824e+00  8.193983e+01  6.500000e+01
     vertex -3.019946e+00  7.493917e+01  6.250000e+01
   endloop
 endfacet
 facet normal -3.933370e-02  3.239422e-01 -9.452589e-01
   outer loop
     vertex -9.404041e+00  8.145897e+01  6.500000e+01
     vertex -3.019946e+00  7.493917e+01  6.250000e+01
     vertex -1.500193e+01  7.348430e+01  6.250000e+01
   endloop
 endfacet
 facet normal -6.601363e-02  3.403842e-01 -9.379663e-01
   outer loop
     vertex -2.172848e+01  7.906879e+01  6.500000e+01
     vertex -9.404041e+00  8.145897e+01  6.500000e+01
     vertex -1.500193e+01  7.348430e+01  6.250000e+01
   endloop
 endfacet
 facet normal -9.085928e-02  3.136826e-01 -9.451708e-01
   outer loop
     vertex -2.172848e+01  7.906879e+01  6.500000e+01
     vertex -1.500193e+01  7.348430e+01  6.250000e+01
     vertex -2.659537e+01  7.012622e+01  6.250000e+01
   endloop
 endfacet
 facet normal -1.170759e-01  3.259744e-01 -9.381012e-01
   outer loop
     vertex -3.354363e+01  7.482530e+01  6.500000e+01
     vertex -2.172848e+01  7.906879e+01  6.500000e+01
     vertex -2.659537e+01  7.012622e+01  6.250000e+01
   endloop
 endfacet
 facet normal -1.401981e-01  2.954613e-01 -9.450117e-01
   outer loop
     vertex -3.750000e+01  6.495191e+01  6.250000e+01
     vertex -3.354363e+01  7.482530e+01  6.500000e+01
     vertex -2.659537e+01  7.012622e+01  6.250000e+01
   endloop
 endfacet
 facet normal -1.651901e-01  3.037796e-01 -9.383124e-01
   outer loop
     vertex -4.457254e+01  6.882796e+01  6.500000e+01
     vertex -3.354363e+01  7.482530e+01  6.500000e+01
     vertex -3.750000e+01  6.495191e+01  6.250000e+01
   endloop
 endfacet
 facet normal -1.861566e-01  2.696944e-01 -9.447807e-01
   outer loop
     vertex -4.743340e+01  5.809537e+01  6.250000e+01
     vertex -4.457254e+01  6.882796e+01  6.500000e+01
     vertex -3.750000e+01  6.495191e+01  6.250000e+01
   endloop
 endfacet
 facet normal -2.091543e-01  2.743847e-01 -9.385987e-01
   outer loop
     vertex -5.455671e+01  6.121736e+01  6.500000e+01
     vertex -4.457254e+01  6.882796e+01  6.500000e+01
     vertex -4.743340e+01  5.809537e+01  6.250000e+01
   endloop
 endfacet
 facet normal -2.276145e-01  2.369718e-01 -9.444766e-01
   outer loop
     vertex -5.613831e+01  4.973420e+01  6.250000e+01
     vertex -5.455671e+01  6.121736e+01  6.500000e+01
     vertex -4.743340e+01  5.809537e+01  6.250000e+01
   endloop
 endfacet
 facet normal -2.478813e-01  2.385619e-01 -9.389585e-01
   outer loop
     vertex -6.326211e+01  5.217188e+01  6.500000e+01
     vertex -5.455671e+01  6.121736e+01  6.500000e+01
     vertex -5.613831e+01  4.973420e+01  6.250000e+01
   endloop
 endfacet
 facet normal -2.635493e-01  1.980445e-01 -9.440975e-01
   outer loop
     vertex -6.338926e+01  4.008494e+01  6.250000e+01
     vertex -6.326211e+01  5.217188e+01  6.500000e+01
     vertex -5.613831e+01  4.973420e+01  6.250000e+01
   endloop
 endfacet
 facet normal -2.804276e-01  1.972483e-01 -9.393900e-01
   outer loop
     vertex -7.048471e+01  4.190353e+01  6.500000e+01
     vertex -6.326211e+01  5.217188e+01  6.500000e+01
     vertex -6.338926e+01  4.008494e+01  6.250000e+01
   endloop
 endfacet
 facet normal -2.930591e-01  1.538093e-01 -9.436414e-01
   outer loop
     vertex -6.899846e+01  2.939750e+01  6.250000e+01
     vertex -7.048471e+01  4.190353e+01  6.500000e+01
     vertex -6.338926e+01  4.008494e+01  6.250000e+01
   endloop
 endfacet
 facet normal -3.060185e-01  1.515194e-01 -9.398907e-01
   outer loop
     vertex -7.605520e+01  3.065300e+01  6.500000e+01
     vertex -7.048471e+01  4.190353e+01  6.500000e+01
     vertex -6.899846e+01  2.939750e+01  6.250000e+01
   endloop
 endfacet
 facet normal -3.153823e-01  1.052901e-01 -9.431055e-01
   outer loop
     vertex -7.282064e+01  1.794867e+01  6.250000e+01
     vertex -7.605520e+01  3.065300e+01  6.500000e+01
     vertex -6.899846e+01  2.939750e+01  6.250000e+01
   endloop
 endfacet
 facet normal -3.240683e-01  1.025576e-01 -9.404582e-01
   outer loop
     vertex -7.984302e+01  1.868399e+01  6.500000e+01
     vertex -7.605520e+01  3.065300e+01  6.500000e+01
     vertex -7.282064e+01  1.794867e+01  6.250000e+01
   endloop
 endfacet
 facet normal -3.299151e-01  5.361642e-02 -9.424868e-01
   outer loop
     vertex -7.475680e+01  6.034993e+00  6.250000e+01
     vertex -7.984302e+01  1.868399e+01  6.500000e+01
     vertex -7.282064e+01  1.794867e+01  6.250000e+01
   endloop
 endfacet
 facet normal -3.341945e-01  5.161951e-02 -9.410895e-01
   outer loop
     vertex -8.175940e+01  6.277039e+00  6.500000e+01
     vertex -7.984302e+01  1.868399e+01  6.500000e+01
     vertex -7.475680e+01  6.034993e+00  6.250000e+01
   endloop
 endfacet
 facet normal -3.362257e-01 -3.958625e-16 -9.417814e-01
   outer loop
     vertex -8.175940e+01 -6.277039e+00  6.500000e+01
     vertex -7.475680e+01  6.034993e+00  6.250000e+01
     vertex -7.475680e+01 -6.034993e+00  6.250000e+01
   endloop
 endfacet
 facet normal -3.362257e-01  3.805979e-16 -9.417814e-01
   outer loop
     vertex -8.175940e+01 -6.277039e+00  6.500000e+01
     vertex -8.175940e+01  6.277039e+00  6.500000e+01
     vertex -7.475680e+01  6.034993e+00  6.250000e+01
   endloop
 endfacet
 facet normal -3.299151e-01 -5.361642e-02 -9.424868e-01
   outer loop
     vertex -7.984302e+01 -1.868399e+01  6.500000e+01
     vertex -7.475680e+01 -6.034993e+00  6.250000e+01
     vertex -7.282064e+01 -1.794867e+01  6.250000e+01
   endloop
 endfacet
 facet normal -3.341945e-01 -5.161951e-02 -9.410895e-01
   outer loop
     vertex -7.984302e+01 -1.868399e+01  6.500000e+01
     vertex -8.175940e+01 -6.277039e+00  6.500000e+01
     vertex -7.475680e+01 -6.034993e+00  6.250000e+01
   endloop
 endfacet
 facet normal -3.153823e-01 -1.052901e-01 -9.431055e-01
   outer loop
     vertex -7.605520e+01 -3.065300e+01  6.500000e+01
     vertex -7.282064e+01 -1.794867e+01  6.250000e+01
     vertex -6.899846e+01 -2.939750e+01  6.250000e+01
   endloop
 endfacet
 facet normal -3.240683e-01 -1.025576e-01 -9.404582e-01
   outer loop
     vertex -7.605520e+01 -3.065300e+01  6.500000e+01
     vertex -7.984302e+01 -1.868399e+01  6.500000e+01
     vertex -7.282064e+01 -1.794867e+01  6.250000e+01
   endloop
 endfacet
 facet normal -2.930591e-01 -1.538093e-01 -9.436414e-01
   outer loop
     vertex -7.048471e+01 -4.190353e+01  6.500000e+01
     vertex -6.899846e+01 -2.939750e+01  6.250000e+01
     vertex -6.338926e+01 -4.008494e+01  6.250000e+01
   endloop
 endfacet
 facet normal -3.060185e-01 -1.515194e-01 -9.398907e-01
   outer loop
     vertex -7.048471e+01 -4.190353e+01  6.500000e+01
     vertex -7.605520e+01 -3.065300e+01  6.500000e+01
     vertex -6.899846e+01 -2.939750e+01  6.250000e+01
   endloop
 endfacet
 facet normal -2.635493e-01 -1.980445e-01 -9.440975e-01
   outer loop
     vertex -6.326211e+01 -5.217188e+01  6.500000e+01
     vertex -6.338926e+01 -4.008494e+01  6.250000e+01
     vertex -5.613831e+01 -4.973420e+01  6.250000e+01
   endloop
 endfacet
 facet normal -2.804276e-01 -1.972483e-01 -9.393900e-01
   outer loop
     vertex -6.326211e+01 -5.217188e+01  6.500000e+01
     vertex -7.048471e+01 -4.190353e+01  6.500000e+01
     vertex -6.338926e+01 -4.008494e+01  6.250000e+01
   endloop
 endfacet
 facet normal -2.276145e-01 -2.369718e-01 -9.444766e-01
   outer loop
     vertex -5.455671e+01 -6.121736e+01  6.500000e+01
     vertex -5.613831e+01 -4.973420e+01  6.250000e+01
     vertex -4.743340e+01 -5.809537e+01  6.250000e+01
   endloop
 endfacet
 facet normal -2.478813e-01 -2.385619e-01 -9.389585e-01
   outer loop
     vertex -5.455671e+01 -6.121736e+01  6.500000e+01
     vertex -6.326211e+01 -5.217188e+01  6.500000e+01
     vertex -5.613831e+01 -4.973420e+01  6.250000e+01
   endloop
 endfacet
 facet normal -1.861566e-01 -2.696944e-01 -9.447807e-01
   outer loop
     vertex -4.457254e+01 -6.882796e+01  6.500000e+01
     vertex -4.743340e+01 -5.809537e+01  6.250000e+01
     vertex -3.750000e+01 -6.495191e+01  6.250000e+01
   endloop
 endfacet
 facet normal -2.091543e-01 -2.743847e-01 -9.385987e-01
   outer loop
     vertex -4.457254e+01 -6.882796e+01  6.500000e+01
     vertex -5.455671e+01 -6.121736e+01  6.500000e+01
     vertex -4.743340e+01 -5.809537e+01  6.250000e+01
   endloop
 endfacet
 facet normal -1.401981e-01 -2.954613e-01 -9.450117e-01
   outer loop
     vertex -3.354363e+01 -7.482530e+01  6.500000e+01
     vertex -3.750000e+01 -6.495191e+01  6.250000e+01
     vertex -2.659537e+01 -7.012622e+01  6.250000e+01
   endloop
 endfacet
 facet normal -1.651901e-01 -3.037796e-01 -9.383124e-01
   outer loop
     vertex -3.354363e+01 -7.482530e+01  6.500000e+01
     vertex -4.457254e+01 -6.882796e+01  6.500000e+01
     vertex -3.750000e+01 -6.495191e+01  6.250000e+01
   endloop
 endfacet
 facet normal -9.085928e-02 -3.136826e-01 -9.451708e-01
   outer loop
     vertex -2.172848e+01 -7.906879e+01  6.500000e+01
     vertex -2.659537e+01 -7.012622e+01  6.250000e+01
     vertex -1.500193e+01 -7.348430e+01  6.250000e+01
   endloop
 endfacet
 facet normal -1.170759e-01 -3.259744e-01 -9.381012e-01
   outer loop
     vertex -2.172848e+01 -7.906879e+01  6.500000e+01
     vertex -3.354363e+01 -7.482530e+01  6.500000e+01
     vertex -2.659537e+01 -7.012622e+01  6.250000e+01
   endloop
 endfacet
 facet normal -3.933370e-02 -3.239422e-01 -9.452589e-01
   outer loop
     vertex -9.404041e+00 -8.145897e+01  6.500000e+01
     vertex -1.500193e+01 -7.348430e+01  6.250000e+01
     vertex -3.019946e+00 -7.493917e+01  6.250000e+01
   endloop
 endfacet
 facet normal -6.601363e-02 -3.403842e-01 -9.379663e-01
   outer loop
     vertex -9.404041e+00 -8.145897e+01  6.500000e+01
     vertex -2.172848e+01 -7.906879e+01  6.500000e+01
     vertex -1.500193e+01 -7.348430e+01  6.250000e+01
   endloop
 endfacet
 facet normal -1.328657e-02 -3.466286e-01 -9.379083e-01
   outer loop
     vertex  3.140824e+00 -8.193983e+01  6.500000e+01
     vertex -9.404041e+00 -8.145897e+01  6.500000e+01
     vertex -3.019946e+00 -7.493917e+01  6.250000e+01
   endloop
 endfacet
 facet normal  1.313759e-02 -3.260059e-01 -9.452765e-01
   outer loop
     vertex  3.140824e+00 -8.193983e+01  6.500000e+01
     vertex -3.019946e+00 -7.493917e+01  6.250000e+01
     vertex  9.040251e+00 -7.445317e+01  6.250000e+01
   endloop
 endfacet
 facet normal  3.977576e-02 -3.445425e-01 -9.379277e-01
   outer loop
     vertex  1.561207e+01 -8.050008e+01  6.500000e+01
     vertex  3.140824e+00 -8.193983e+01  6.500000e+01
     vertex  9.040251e+00 -7.445317e+01  6.250000e+01
   endloop
 endfacet
 facet normal  6.529307e-02 -3.198266e-01 -9.452237e-01
   outer loop
     vertex  1.561207e+01 -8.050008e+01  6.500000e+01
     vertex  9.040251e+00 -7.445317e+01  6.250000e+01
     vertex  2.086631e+01 -7.203886e+01  6.250000e+01
   endloop
 endfacet
 facet normal  9.183458e-02 -3.341811e-01 -9.380242e-01
   outer loop
     vertex  2.771738e+01 -7.717348e+01  6.500000e+01
     vertex  1.561207e+01 -8.050008e+01  6.500000e+01
     vertex  2.086631e+01 -7.203886e+01  6.250000e+01
   endloop
 endfacet
 facet normal  1.158781e-01 -3.055454e-01 -9.451002e-01
   outer loop
     vertex  3.215194e+01 -6.775878e+01  6.250000e+01
     vertex  2.771738e+01 -7.717348e+01  6.500000e+01
     vertex  2.086631e+01 -7.203886e+01  6.250000e+01
   endloop
 endfacet
 facet normal  1.415789e-01 -3.158181e-01 -9.381974e-01
   outer loop
     vertex  3.917303e+01 -7.203800e+01  6.500000e+01
     vertex  2.771738e+01 -7.717348e+01  6.500000e+01
     vertex  3.215194e+01 -6.775878e+01  6.250000e+01
   endloop
 endfacet
 facet normal  1.636720e-01 -2.834882e-01 -9.449053e-01
   outer loop
     vertex  4.260486e+01 -6.172379e+01  6.250000e+01
     vertex  3.917303e+01 -7.203800e+01  6.500000e+01
     vertex  3.215194e+01 -6.775878e+01  6.250000e+01
   endloop
 endfacet
 facet normal  1.877620e-01 -2.899380e-01 -9.384463e-01
   outer loop
     vertex  4.971048e+01 -6.521402e+01  6.500000e+01
     vertex  3.917303e+01 -7.203800e+01  6.500000e+01
     vertex  4.260486e+01 -6.172379e+01  6.250000e+01
   endloop
 endfacet
 facet normal  2.075146e-01 -2.541593e-01 -9.446379e-01
   outer loop
     vertex  5.195433e+01 -5.409018e+01  6.250000e+01
     vertex  4.971048e+01 -6.521402e+01  6.500000e+01
     vertex  4.260486e+01 -6.172379e+01  6.250000e+01
   endloop
 endfacet
 facet normal  2.292351e-01 -2.572217e-01 -9.387695e-01
   outer loop
     vertex  5.908277e+01 -5.686147e+01  6.500000e+01
     vertex  4.971048e+01 -6.521402e+01  6.500000e+01
     vertex  5.195433e+01 -5.409018e+01  6.250000e+01
   endloop
 endfacet
 facet normal  2.463317e-01 -2.182309e-01 -9.442965e-01
   outer loop
     vertex  5.995821e+01 -4.505567e+01  6.250000e+01
     vertex  5.908277e+01 -5.686147e+01  6.500000e+01
     vertex  5.195433e+01 -5.409018e+01  6.250000e+01
   endloop
 endfacet
 facet normal  2.649797e-01 -2.185271e-01 -9.391654e-01
   outer loop
     vertex  6.707021e+01 -4.717613e+01  6.500000e+01
     vertex  5.908277e+01 -5.686147e+01  6.500000e+01
     vertex  5.995821e+01 -4.505567e+01  6.250000e+01
   endloop
 endfacet
 facet normal  2.791585e-01 -1.765291e-01 -9.438792e-01
   outer loop
     vertex  6.640920e+01 -3.485424e+01  6.250000e+01
     vertex  6.707021e+01 -4.717613e+01  6.500000e+01
     vertex  5.995821e+01 -4.505567e+01  6.250000e+01
   endloop
 endfacet
 facet normal  2.941337e-01 -1.748640e-01 -9.396318e-01
   outer loop
     vertex  7.348558e+01 -3.638503e+01  6.500000e+01
     vertex  6.707021e+01 -4.717613e+01  6.500000e+01
     vertex  6.640920e+01 -3.485424e+01  6.250000e+01
   endloop
 endfacet
 facet normal  3.051606e-01 -1.300168e-01 -9.433836e-01
   outer loop
     vertex  7.114023e+01 -2.375010e+01  6.250000e+01
     vertex  7.348558e+01 -3.638503e+01  6.500000e+01
     vertex  6.640920e+01 -3.485424e+01  6.250000e+01
   endloop
 endfacet
 facet normal  3.160148e-01 -1.273654e-01 -9.401663e-01
   outer loop
     vertex  7.817850e+01 -2.474109e+01  6.500000e+01
     vertex  7.348558e+01 -3.638503e+01  6.500000e+01
     vertex  7.114023e+01 -2.375010e+01  6.250000e+01
   endloop
 endfacet
 facet normal  3.236537e-01 -7.977346e-02 -9.428067e-01
   outer loop
     vertex  7.402877e+01 -1.203085e+01  6.250000e+01
     vertex  7.817850e+01 -2.474109e+01  6.500000e+01
     vertex  7.114023e+01 -2.375010e+01  6.250000e+01
   endloop
 endfacet
 facet normal  3.301376e-01 -7.725517e-02 -9.407661e-01
   outer loop
     vertex  8.103899e+01 -1.251724e+01  6.500000e+01
     vertex  7.817850e+01 -2.474109e+01  6.500000e+01
     vertex  7.402877e+01 -1.203085e+01  6.250000e+01
   endloop
 endfacet
 facet normal  3.341182e-01 -2.697281e-02 -9.421452e-01
   outer loop
     vertex  7.500000e+01 -1.836970e-14  6.250000e+01
     vertex  8.103899e+01 -1.251724e+01  6.500000e+01
     vertex  7.402877e+01 -1.203085e+01  6.250000e+01
   endloop
 endfacet
 facet normal  3.362243e-01 -2.581346e-02 -9.414281e-01
   outer loop
     vertex  8.200000e+01 -2.008421e-14  6.500000e+01
     vertex  8.103899e+01 -1.251724e+01  6.500000e+01
     vertex  7.500000e+01 -1.836970e-14  6.250000e+01
   endloop
 endfacet
 facet normal  0.000000e+00  0.000000e+00 -1.000000e+00
   outer loop
     vertex -2.994043e+00 -2.652491e+00  6.000000e+01
     vertex -6.326211e+01 -5.217188e+01  6.000000e+01
     vertex -7.048471e+01 -4.190353e+01  6.000000e+01
   endloop
 endfacet
 facet normal  0.000000e+00  0.000000e+00 -1.000000e+00
   outer loop
     vertex -2.994043e+00 -2.652491e+00  6.000000e+01
     vertex -5.455671e+01 -6.121736e+01  6.000000e+01
     vertex -6.326211e+01 -5.217188e+01  6.000000e+01
   endloop
 endfacet
 facet normal  0.000000e+00  0.000000e+00 -1.000000e+00
   outer loop
     vertex -2.272259e+00 -3.291935e+00  6.000000e+01
     vertex -4.457254e+01 -6.882796e+01  6.000000e+01
     vertex -5.455671e+01 -6.121736e+01  6.000000e+01
   endloop
 endfacet
 facet normal  0.000000e+00  0.000000e+00 -1.000000e+00
   outer loop
     vertex -2.272259e+00 -3.291935e+00  6.000000e+01
     vertex -3.354363e+01 -7.482530e+01  6.000000e+01
     vertex -4.457254e+01 -6.882796e+01  6.000000e+01
   endloop
 endfacet
 facet normal -0.000000e+00  0.000000e+00 -1.000000e+00
   outer loop
     vertex -2.272259e+00 -3.291935e+00  6.000000e+01
     vertex -5.455671e+01 -6.121736e+01  6.000000e+01
     vertex -2.994043e+00 -2.652491e+00  6.000000e+01
   endloop
 endfacet
 facet normal  0.000000e+00  0.000000e+00 -1.000000e+00
   outer loop
     vertex -3.541824e+00 -1.858893e+00  6.000000e+01
     vertex -7.048471e+01 -4.190353e+01  6.000000e+01
     vertex -7.605520e+01 -3.065300e+01  6.000000e+01
   endloop
 endfacet
 facet normal  0.000000e+00 -0.000000e+00 -1.000000e+00
   outer loop
     vertex -3.541824e+00 -1.858893e+00  6.000000e+01
     vertex -2.994043e+00 -2.652491e+00  6.000000e+01
     vertex -7.048471e+01 -4.190353e+01  6.000000e+01
   endloop
 endfacet
 facet normal  0.000000e+00  0.000000e+00 -1.000000e+00
   outer loop
     vertex -1.418420e+00 -3.740065e+00  6.000000e+01
     vertex -2.172848e+01 -7.906879e+01  6.000000e+01
     vertex -3.354363e+01 -7.482530e+01  6.000000e+01
   endloop
 endfacet
 facet normal -0.000000e+00  0.000000e+00 -1.000000e+00
   outer loop
     vertex -1.418420e+00 -3.740065e+00  6.000000e+01
     vertex -3.354363e+01 -7.482530e+01  6.000000e+01
     vertex -2.272259e+00 -3.291935e+00  6.000000e+01
   endloop
 endfacet
 facet normal  0.000000e+00 -0.000000e+00 -1.000000e+00
   outer loop
     vertex -3.883767e+00 -9.572627e-01  6.000000e+01
     vertex -3.541824e+00 -1.858893e+00  6.000000e+01
     vertex -7.605520e+01 -3.065300e+01  6.000000e+01
   endloop
 endfacet
 facet normal  0.000000e+00  0.000000e+00 -1.000000e+00
   outer loop
     vertex -3.883767e+00 -9.572627e-01  6.000000e+01
     vertex -7.984302e+01 -1.868399e+01  6.000000e+01
     vertex -8.175940e+01 -6.277039e+00  6.000000e+01
   endloop
 endfacet
 facet normal  0.000000e+00  0.000000e+00 -1.000000e+00
   outer loop
     vertex -3.883767e+00 -9.572627e-01  6.000000e+01
     vertex -7.605520e+01 -3.065300e+01  6.000000e+01
     vertex -7.984302e+01 -1.868399e+01  6.000000e+01
   endloop
 endfacet
 facet normal -0.000000e+00  0.000000e+00 -1.000000e+00
   outer loop
     vertex -4.821467e-01 -3.970835e+00  6.000000e+01
     vertex -2.172848e+01 -7.906879e+01  6.000000e+01
     vertex -1.418420e+00 -3.740065e+00  6.000000e+01
   endloop
 endfacet
 facet normal  0.000000e+00  0.000000e+00 -1.000000e+00
   outer loop
     vertex -4.821467e-01 -3.970835e+00  6.000000e+01
     vertex -9.404041e+00 -8.145897e+01  6.000000e+01
     vertex -2.172848e+01 -7.906879e+01  6.000000e+01
   endloop
 endfacet
 facet normal  0.000000e+00 -0.000000e+00 -1.000000e+00
   outer loop
     vertex -4.821467e-01 -3.970835e+00  6.000000e+01
     vertex  3.140824e+00 -8.193983e+01  6.000000e+01
     vertex -9.404041e+00 -8.145897e+01  6.000000e+01
   endloop
 endfacet
 facet normal  0.000000e+00 -0.000000e+00 -1.000000e+00
   outer loop
     vertex -4.000000e+00  4.042572e-15  6.000000e+01
     vertex -3.883767e+00 -9.572627e-01  6.000000e+01
     vertex -8.175940e+01 -6.277039e+00  6.000000e+01
   endloop
 endfacet
 facet normal -0.000000e+00  0.000000e+00 -1.000000e+00
   outer loop
     vertex -4.000000e+00  4.042572e-15  6.000000e+01
     vertex -8.175940e+01 -6.277039e+00  6.000000e+01
     vertex -8.175940e+01  6.277039e+00  6.000000e+01
   endloop
 endfacet
 facet normal  0.000000e+00  0.000000e+00 -1.000000e+00
   outer loop
     vertex  4.821467e-01 -3.970835e+00  6.000000e+01
     vertex  1.561207e+01 -8.050008e+01  6.000000e+01
     vertex  3.140824e+00 -8.193983e+01  6.000000e+01
   endloop
 endfacet
 facet normal -0.000000e+00 -0.000000e+00 -1.000000e+00
   outer loop
     vertex  4.821467e-01 -3.970835e+00  6.000000e+01
     vertex  3.140824e+00 -8.193983e+01  6.000000e+01
     vertex -4.821467e-01 -3.970835e+00  6.000000e+01
   endloop
 endfacet
 facet normal  0.000000e+00  0.000000e+00 -1.000000e+00
   outer loop
     vertex -3.883767e+00  9.572627e-01  6.000000e+01
     vertex -7.984302e+01  1.868399e+01  6.000000e+01
     vertex -7.605520e+01  3.065300e+01  6.000000e+01
   endloop
 endfacet
 facet normal  0.000000e+00  0.000000e+00 -1.000000e+00
   outer loop
     vertex -3.883767e+00  9.572627e-01  6.000000e+01
     vertex -8.175940e+01  6.277039e+00  6.000000e+01
     vertex -7.984302e+01  1.868399e+01  6.000000e+01
   endloop
 endfacet
 facet normal -0.000000e+00  0.000000e+00 -1.000000e+00
   outer loop
     vertex -3.883767e+00  9.572627e-01  6.000000e+01
     vertex -4.000000e+00  4.042572e-15  6.000000e+01
     vertex -8.175940e+01  6.277039e+00  6.000000e+01
   endloop
 endfacet
 facet normal  0.000000e+00  0.000000e+00 -1.000000e+00
   outer loop
     vertex  1.418420e+00 -3.740065e+00  6.000000e+01
     vertex  2.771738e+01 -7.717348e+01  6.000000e+01
     vertex  1.561207e+01 -8.050008e+01  6.000000e+01
   endloop
 endfacet
 facet normal  0.000000e+00  0.000000e+00 -1.000000e+00
   outer loop
     vertex  1.418420e+00 -3.740065e+00  6.000000e+01
     vertex  3.917303e+01 -7.203800e+01  6.000000e+01
     vertex  2.771738e+01 -7.717348e+01  6.000000e+01
   endloop
 endfacet
 facet normal  0.000000e+00 -0.000000e+00 -1.000000e+00
   outer loop
     vertex  1.418420e+00 -3.740065e+00  6.000000e+01
     vertex  1.561207e+01 -8.050008e+01  6.000000e+01
     vertex  4.821467e-01 -3.970835e+00  6.000000e+01
   endloop
 endfacet
 facet normal -0.000000e+00  0.000000e+00 -1.000000e+00
   outer loop
     vertex -3.541824e+00  1.858893e+00  6.000000e+01
     vertex -3.883767e+00  9.572627e-01  6.000000e+01
     vertex -7.605520e+01  3.065300e+01  6.000000e+01
   endloop
 endfacet
 facet normal  0.000000e+00  0.000000e+00 -1.000000e+00
   outer loop
     vertex -3.541824e+00  1.858893e+00  6.000000e+01
     vertex -7.605520e+01  3.065300e+01  6.000000e+01
     vertex -7.048471e+01  4.190353e+01  6.000000e+01
   endloop
 endfacet
 facet normal  0.000000e+00 -0.000000e+00 -1.000000e+00
   outer loop
     vertex  2.272259e+00 -3.291935e+00  6.000000e+01
     vertex  3.917303e+01 -7.203800e+01  6.000000e+01
     vertex  1.418420e+00 -3.740065e+00  6.000000e+01
   endloop
 endfacet
 facet normal  0.000000e+00  0.000000e+00 -1.000000e+00
   outer loop
     vertex  2.272259e+00 -3.291935e+00  6.000000e+01
     vertex  4.971048e+01 -6.521402e+01  6.000000e+01
     vertex  3.917303e+01 -7.203800e+01  6.000000e+01
   endloop
 endfacet
 facet normal -0.000000e+00  0.000000e+00 -1.000000e+00
   outer loop
     vertex -2.994043e+00  2.652491e+00  6.000000e+01
     vertex -3.541824e+00  1.858893e+00  6.000000e+01
     vertex -7.048471e+01  4.190353e+01  6.000000e+01
   endloop
 endfacet
 facet normal  0.000000e+00  0.000000e+00 -1.000000e+00
   outer loop
     vertex -2.994043e+00  2.652491e+00  6.000000e+01
     vertex -7.048471e+01  4.190353e+01  6.000000e+01
     vertex -6.326211e+01  5.217188e+01  6.000000e+01
   endloop
 endfacet
 facet normal  0.000000e+00 -0.000000e+00 -1.000000e+00
   outer loop
     vertex  2.994043e+00 -2.652491e+00  6.000000e+01
     vertex  4.971048e+01 -6.521402e+01  6.000000e+01
     vertex  2.272259e+00 -3.291935e+00  6.000000e+01
   endloop
 endfacet
 facet normal -0.000000e+00  0.000000e+00 -1.000000e+00
   outer loop
     vertex  5.908277e+01 -5.686147e+01  6.000000e+01
     vertex  4.971048e+01 -6.521402e+01  6.000000e+01
     vertex  2.994043e+00 -2.652491e+00  6.000000e+01
   endloop
 endfacet
 facet normal  0.000000e+00 -0.000000e+00 -1.000000e+00
   outer loop
     vertex -5.455671e+01  6.121736e+01  6.000000e+01
     vertex -2.994043e+00  2.652491e+00  6.000000e+01
     vertex -6.326211e+01  5.217188e+01  6.000000e+01
   endloop
 endfacet
 facet normal  0.000000e+00  0.000000e+00 -1.000000e+00
   outer loop
     vertex -5.455671e+01  6.121736e+01  6.000000e+01
     vertex -2.272259e+00  3.291935e+00  6.000000e+01
     vertex -2.994043e+00  2.652491e+00  6.000000e+01
   endloop
 endfacet
 facet normal -0.000000e+00  0.000000e+00 -1.000000e+00
   outer loop
     vertex  6.707021e+01 -4.717613e+01  6.000000e+01
     vertex  5.908277e+01 -5.686147e+01  6.000000e+01
     vertex  2.994043e+00 -2.652491e+00  6.000000e+01
   endloop
 endfacet
 facet normal  0.000000e+00  0.000000e+00 -1.000000e+00
   outer loop
     vertex  6.707021e+01 -4.717613e+01  6.000000e+01
     vertex  2.994043e+00 -2.652491e+00  6.000000e+01
     vertex  3.541824e+00 -1.858893e+00  6.000000e+01
   endloop
 endfacet
 facet normal  0.000000e+00 -0.000000e+00 -1.000000e+00
   outer loop
     vertex -4.457254e+01  6.882796e+01  6.000000e+01
     vertex -2.272259e+00  3.291935e+00  6.000000e+01
     vertex -5.455671e+01  6.121736e+01  6.000000e+01
   endloop
 endfacet
 facet normal -0.000000e+00  0.000000e+00 -1.000000e+00
   outer loop
     vertex  7.348558e+01 -3.638503e+01  6.000000e+01
     vertex  6.707021e+01 -4.717613e+01  6.000000e+01
     vertex  3.541824e+00 -1.858893e+00  6.000000e+01
   endloop
 endfacet
 facet normal  0.000000e+00  0.000000e+00 -1.000000e+00
   outer loop
     vertex -3.354363e+01  7.482530e+01  6.000000e+01
     vertex -1.418420e+00  3.740065e+00  6.000000e+01
     vertex -2.272259e+00  3.291935e+00  6.000000e+01
   endloop
 endfacet
 facet normal  0.000000e+00 -0.000000e+00 -1.000000e+00
   outer loop
     vertex -3.354363e+01  7.482530e+01  6.000000e+01
     vertex -2.272259e+00  3.291935e+00  6.000000e+01
     vertex -4.457254e+01  6.882796e+01  6.000000e+01
   endloop
 endfacet
 facet normal -0.000000e+00  0.000000e+00 -1.000000e+00
   outer loop
     vertex  7.817850e+01 -2.474109e+01  6.000000e+01
     vertex  7.348558e+01 -3.638503e+01  6.000000e+01
     vertex  3.541824e+00 -1.858893e+00  6.000000e+01
   endloop
 endfacet
 facet normal  0.000000e+00  0.000000e+00 -1.000000e+00
   outer loop
     vertex  7.817850e+01 -2.474109e+01  6.000000e+01
     vertex  3.541824e+00 -1.858893e+00  6.000000e+01
     vertex  3.883767e+00 -9.572627e-01  6.000000e+01
   endloop
 endfacet
 facet normal  0.000000e+00  0.000000e+00 -1.000000e+00
   outer loop
     vertex -2.172848e+01  7.906879e+01  6.000000e+01
     vertex -4.821467e-01  3.970835e+00  6.000000e+01
     vertex -1.418420e+00  3.740065e+00  6.000000e+01
   endloop
 endfacet
 facet normal  0.000000e+00 -0.000000e+00 -1.000000e+00
   outer loop
     vertex -2.172848e+01  7.906879e+01  6.000000e+01
     vertex -1.418420e+00  3.740065e+00  6.000000e+01
     vertex -3.354363e+01  7.482530e+01  6.000000e+01
   endloop
 endfacet
 facet normal  0.000000e+00  0.000000e+00 -1.000000e+00
   outer loop
     vertex  8.103899e+01 -1.251724e+01  6.000000e+01
     vertex  3.883767e+00 -9.572627e-01  6.000000e+01
     vertex  4.000000e+00 -9.797174e-16  6.000000e+01
   endloop
 endfacet
 facet normal -0.000000e+00  0.000000e+00 -1.000000e+00
   outer loop
     vertex  8.103899e+01 -1.251724e+01  6.000000e+01
     vertex  7.817850e+01 -2.474109e+01  6.000000e+01
     vertex  3.883767e+00 -9.572627e-01  6.000000e+01
   endloop
 endfacet
 facet normal  0.000000e+00 -0.000000e+00 -1.000000e+00
   outer loop
     vertex -9.404041e+00  8.145897e+01  6.000000e+01
     vertex -4.821467e-01  3.970835e+00  6.000000e+01
     vertex -2.172848e+01  7.906879e+01  6.000000e+01
   endloop
 endfacet
 facet normal -0.000000e+00  0.000000e+00 -1.000000e+00
   outer loop
     vertex  8.200000e+01 -2.008421e-14  6.000000e+01
     vertex  8.103899e+01 -1.251724e+01  6.000000e+01
     vertex  4.000000e+00 -9.797174e-16  6.000000e+01
   endloop
 endfacet
 facet normal  0.000000e+00  0.000000e+00 -1.000000e+00
   outer loop
     vertex  3.140824e+00  8.193983e+01  6.000000e+01
     vertex  4.821467e-01  3.970835e+00  6.000000e+01
     vertex -4.821467e-01  3.970835e+00  6.000000e+01
   endloop
 endfacet
 facet normal  0.000000e+00  0.000000e+00 -1.000000e+00
   outer loop
     vertex  3.140824e+00  8.193983e+01  6.000000e+01
     vertex -4.821467e-01  3.970835e+00  6.000000e+01
     vertex -9.404041e+00  8.145897e+01  6.000000e+01
   endloop
 endfacet
 facet normal  0.000000e+00  0.000000e+00 -1.000000e+00
   outer loop
     vertex  8.103899e+01  1.251724e+01  6.000000e+01
     vertex  4.000000e+00 -9.797174e-16  6.000000e+01
     vertex  3.883767e+00  9.572627e-01  6.000000e+01
   endloop
 endfacet
 facet normal  0.000000e+00 -0.000000e+00 -1.000000e+00
   outer loop
     vertex  8.103899e+01  1.251724e+01  6.000000e+01
     vertex  8.200000e+01 -2.008421e-14  6.000000e+01
     vertex  4.000000e+00 -9.797174e-16  6.000000e+01
   endloop
 endfacet
 facet normal -0.000000e+00  0.000000e+00 -1.000000e+00
   outer loop
     vertex  1.561207e+01  8.050008e+01  6.000000e+01
     vertex  4.821467e-01  3.970835e+00  6.000000e+01
     vertex  3.140824e+00  8.193983e+01  6.000000e+01
   endloop
 endfacet
 facet normal  0.000000e+00  0.000000e+00 -1.000000e+00
   outer loop
     vertex  1.561207e+01  8.050008e+01  6.000000e+01
     vertex  1.418420e+00  3.740065e+00  6.000000e+01
     vertex  4.821467e-01  3.970835e+00  6.000000e+01
   endloop
 endfacet
 facet normal  0.000000e+00  0.000000e+00 -1.000000e+00
   outer loop
     vertex  7.817850e+01  2.474109e+01  6.000000e+01
     vertex  3.883767e+00  9.572627e-01  6.000000e+01
     vertex  3.541824e+00  1.858893e+00  6.000000e+01
   endloop
 endfacet
 facet normal  0.000000e+00 -0.000000e+00 -1.000000e+00
   outer loop
     vertex  7.817850e+01  2.474109e+01  6.000000e+01
     vertex  8.103899e+01  1.251724e+01  6.000000e+01
     vertex  3.883767e+00  9.572627e-01  6.000000e+01
   endloop
 endfacet
 facet normal -0.000000e+00  0.000000e+00 -1.000000e+00
   outer loop
     vertex  2.771738e+01  7.717348e+01  6.000000e+01
     vertex  1.418420e+00  3.740065e+00  6.000000e+01
     vertex  1.561207e+01  8.050008e+01  6.000000e+01
   endloop
 endfacet
 facet normal  0.000000e+00 -0.000000e+00 -1.000000e+00
   outer loop
     vertex  7.348558e+01  3.638503e+01  6.000000e+01
     vertex  7.817850e+01  2.474109e+01  6.000000e+01
     vertex  3.541824e+00  1.858893e+00  6.000000e+01
   endloop
 endfacet
 facet normal  0.000000e+00  0.000000e+00 -1.000000e+00
   outer loop
     vertex  3.917303e+01  7.203800e+01  6.000000e+01
     vertex  2.272259e+00  3.291935e+00  6.000000e+01
     vertex  1.418420e+00  3.740065e+00  6.000000e+01
   endloop
 endfacet
 facet normal -0.000000e+00  0.000000e+00 -1.000000e+00
   outer loop
     vertex  3.917303e+01  7.203800e+01  6.000000e+01
     vertex  1.418420e+00  3.740065e+00  6.000000e+01
     vertex  2.771738e+01  7.717348e+01  6.000000e+01
   endloop
 endfacet
 facet normal  0.000000e+00  0.000000e+00 -1.000000e+00
   outer loop
     vertex  6.707021e+01  4.717613e+01  6.000000e+01
     vertex  3.541824e+00  1.858893e+00  6.000000e+01
     vertex  2.994043e+00  2.652491e+00  6.000000e+01
   endloop
 endfacet
 facet normal  0.000000e+00 -0.000000e+00 -1.000000e+00
   outer loop
     vertex  6.707021e+01  4.717613e+01  6.000000e+01
     vertex  7.348558e+01  3.638503e+01  6.000000e+01
     vertex  3.541824e+00  1.858893e+00  6.000000e+01
   endloop
 endfacet
 facet normal  0.000000e+00  0.000000e+00 -1.000000e+00
   outer loop
     vertex  4.971048e+01  6.521402e+01  6.000000e+01
     vertex  2.994043e+00  2.652491e+00  6.000000e+01
     vertex  2.272259e+00  3.291935e+00  6.000000e+01
   endloop
 endfacet
 facet normal -0.000000e+00  0.000000e+00 -1.000000e+00
   outer loop
     vertex  4.971048e+01  6.521402e+01  6.000000e+01
     vertex  2.272259e+00  3.291935e+00  6.000000e+01
     vertex  3.917303e+01  7.203800e+01  6.000000e+01
   endloop
 endfacet
 facet normal -0.000000e+00  0.000000e+00 -1.000000e+00
   outer loop
     vertex  5.908277e+01  5.686147e+01  6.000000e+01
     vertex  2.994043e+00  2.652491e+00  6.000000e+01
     vertex  4.971048e+01  6.521402e+01  6.000000e+01
   endloop
 endfacet
 facet normal  0.000000e+00 -0.000000e+00 -1.000000e+00
   outer loop
     vertex  5.908277e+01  5.686147e+01  6.000000e+01
     vertex  6.707021e+01  4.717613e+01  6.000000e+01
     vertex  2.994043e+00  2.652491e+00  6.000000e+01
   endloop
 endfacet
 facet normal  0.000000e+00  0.000000e+00  1.000000e+00
   outer loop
     vertex -2.994043e+00 -2.652491e+00  6.500000e+01
     vertex -7.048471e+01 -4.190353e+01  6.500000e+01
     vertex -6.326211e+01 -5.217188e+01  6.500000e+01
   endloop
 endfacet
 facet normal  0.000000e+00  0.000000e+00  1.000000e+00
   outer loop
     vertex -2.994043e+00 -2.652491e+00  6.500000e+01
     vertex -6.326211e+01 -5.217188e+01  6.500000e+01
     vertex -5.455671e+01 -6.121736e+01  6.500000e+01
   endloop
 endfacet
 facet normal  0.000000e+00  0.000000e+00  1.000000e+00
   outer loop
     vertex -2.272259e+00 -3.291935e+00  6.500000e+01
     vertex -5.455671e+01 -6.121736e+01  6.500000e+01
     vertex -4.457254e+01 -6.882796e+01  6.500000e+01
   endloop
 endfacet
 facet normal  0.000000e+00  0.000000e+00  1.000000e+00
   outer loop
     vertex -2.272259e+00 -3.291935e+00  6.500000e+01
     vertex -4.457254e+01 -6.882796e+01  6.500000e+01
     vertex -3.354363e+01 -7.482530e+01  6.500000e+01
   endloop
 endfacet
 facet normal  0.000000e+00  0.000000e+00  1.000000e+00
   outer loop
     vertex -2.272259e+00 -3.291935e+00  6.500000e+01
     vertex -2.994043e+00 -2.652491e+00  6.500000e+01
     vertex -5.455671e+01 -6.121736e+01  6.500000e+01
   endloop
 endfacet
 facet normal  0.000000e+00  0.000000e+00  1.000000e+00
   outer loop
     vertex -3.541824e+00 -1.858893e+00  6.500000e+01
     vertex -7.605520e+01 -3.065300e+01  6.500000e+01
     vertex -7.048471e+01 -4.190353e+01  6.500000e+01
   endloop
 endfacet
 facet normal  0.000000e+00  0.000000e+00  1.000000e+00
   outer loop
     vertex -3.541824e+00 -1.858893e+00  6.500000e+01
     vertex -7.048471e+01 -4.190353e+01  6.500000e+01
     vertex -2.994043e+00 -2.652491e+00  6.500000e+01
   endloop
 endfacet
 facet normal  0.000000e+00  0.000000e+00  1.000000e+00
   outer loop
     vertex -1.418420e+00 -3.740065e+00  6.500000e+01
     vertex -3.354363e+01 -7.482530e+01  6.500000e+01
     vertex -2.172848e+01 -7.906879e+01  6.500000e+01
   endloop
 endfacet
 facet normal  0.000000e+00  0.000000e+00  1.000000e+00
   outer loop
     vertex -1.418420e+00 -3.740065e+00  6.500000e+01
     vertex -2.272259e+00 -3.291935e+00  6.500000e+01
     vertex -3.354363e+01 -7.482530e+01  6.500000e+01
   endloop
 endfacet
 facet normal  0.000000e+00  0.000000e+00  1.000000e+00
   outer loop
     vertex -3.883767e+00 -9.572627e-01  6.500000e+01
     vertex -7.605520e+01 -3.065300e+01  6.500000e+01
     vertex -3.541824e+00 -1.858893e+00  6.500000e+01
   endloop
 endfacet
 facet normal  0.000000e+00  0.000000e+00  1.000000e+00
   outer loop
     vertex -3.883767e+00 -9.572627e-01  6.500000e+01
     vertex -8.175940e+01 -6.277039e+00  6.500000e+01
     vertex -7.984302e+01 -1.868399e+01  6.500000e+01
   endloop
 endfacet
 facet normal  0.000000e+00  0.000000e+00  1.000000e+00
   outer loop
     vertex -3.883767e+00 -9.572627e-01  6.500000e+01
     vertex -7.984302e+01 -1.868399e+01  6.500000e+01
     vertex -7.605520e+01 -3.065300e+01  6.500000e+01
   endloop
 endfacet
 facet normal  0.000000e+00  0.000000e+00  1.000000e+00
   outer loop
     vertex -4.821467e-01 -3.970835e+00  6.500000e+01
     vertex -1.418420e+00 -3.740065e+00  6.500000e+01
     vertex -2.172848e+01 -7.906879e+01  6.500000e+01
   endloop
 endfacet
 facet normal  0.000000e+00  0.000000e+00  1.000000e+00
   outer loop
     vertex -4.821467e-01 -3.970835e+00  6.500000e+01
     vertex -2.172848e+01 -7.906879e+01  6.500000e+01
     vertex -9.404041e+00 -8.145897e+01  6.500000e+01
   endloop
 endfacet
 facet normal  0.000000e+00  0.000000e+00  1.000000e+00
   outer loop
     vertex -4.821467e-01 -3.970835e+00  6.500000e+01
     vertex -9.404041e+00 -8.145897e+01  6.500000e+01
     vertex  3.140824e+00 -8.193983e+01  6.500000e+01
   endloop
 endfacet
 facet normal  0.000000e+00  0.000000e+00  1.000000e+00
   outer loop
     vertex -4.000000e+00  4.042572e-15  6.500000e+01
     vertex -8.175940e+01 -6.277039e+00  6.500000e+01
     vertex -3.883767e+00 -9.572627e-01  6.500000e+01
   endloop
 endfacet
 facet normal  0.000000e+00  0.000000e+00  1.000000e+00
   outer loop
     vertex -4.000000e+00  4.042572e-15  6.500000e+01
     vertex -8.175940e+01  6.277039e+00  6.500000e+01
     vertex -8.175940e+01 -6.277039e+00  6.500000e+01
   endloop
 endfacet
 facet normal  0.000000e+00  0.000000e+00  1.000000e+00
   outer loop
     vertex  4.821467e-01 -3.970835e+00  6.500000e+01
     vertex  3.140824e+00 -8.193983e+01  6.500000e+01
     vertex  1.561207e+01 -8.050008e+01  6.500000e+01
   endloop
 endfacet
 facet normal  0.000000e+00  0.000000e+00  1.000000e+00
   outer loop
     vertex  4.821467e-01 -3.970835e+00  6.500000e+01
     vertex -4.821467e-01 -3.970835e+00  6.500000e+01
     vertex  3.140824e+00 -8.193983e+01  6.500000e+01
   endloop
 endfacet
 facet normal  0.000000e+00  0.000000e+00  1.000000e+00
   outer loop
     vertex -3.883767e+00  9.572627e-01  6.500000e+01
     vertex -7.605520e+01  3.065300e+01  6.500000e+01
     vertex -7.984302e+01  1.868399e+01  6.500000e+01
   endloop
 endfacet
 facet normal  0.000000e+00  0.000000e+00  1.000000e+00
   outer loop
     vertex -3.883767e+00  9.572627e-01  6.500000e+01
     vertex -7.984302e+01  1.868399e+01  6.500000e+01
     vertex -8.175940e+01  6.277039e+00  6.500000e+01
   endloop
 endfacet
 facet normal  0.000000e+00  0.000000e+00  1.000000e+00
   outer loop
     vertex -3.883767e+00  9.572627e-01  6.500000e+01
     vertex -8.175940e+01  6.277039e+00  6.500000e+01
     vertex -4.000000e+00  4.042572e-15  6.500000e+01
   endloop
 endfacet
 facet normal  0.000000e+00  0.000000e+00  1.000000e+00
   outer loop
     vertex  1.418420e+00 -3.740065e+00  6.500000e+01
     vertex  1.561207e+01 -8.050008e+01  6.500000e+01
     vertex  2.771738e+01 -7.717348e+01  6.500000e+01
   endloop
 endfacet
 facet normal  0.000000e+00  0.000000e+00  1.000000e+00
   outer loop
     vertex  1.418420e+00 -3.740065e+00  6.500000e+01
     vertex  2.771738e+01 -7.717348e+01  6.500000e+01
     vertex  3.917303e+01 -7.203800e+01  6.500000e+01
   endloop
 endfacet
 facet normal  0.000000e+00  0.000000e+00  1.000000e+00
   outer loop
     vertex  1.418420e+00 -3.740065e+00  6.500000e+01
     vertex  4.821467e-01 -3.970835e+00  6.500000e+01
     vertex  1.561207e+01 -8.050008e+01  6.500000e+01
   endloop
 endfacet
 facet normal  0.000000e+00  0.000000e+00  1.000000e+00
   outer loop
     vertex -3.541824e+00  1.858893e+00  6.500000e+01
     vertex -7.605520e+01  3.065300e+01  6.500000e+01
     vertex -3.883767e+00  9.572627e-01  6.500000e+01
   endloop
 endfacet
 facet normal  0.000000e+00  0.000000e+00  1.000000e+00
   outer loop
     vertex -3.541824e+00  1.858893e+00  6.500000e+01
     vertex -7.048471e+01  4.190353e+01  6.500000e+01
     vertex -7.605520e+01  3.065300e+01  6.500000e+01
   endloop
 endfacet
 facet normal  0.000000e+00  0.000000e+00  1.000000e+00
   outer loop
     vertex  2.272259e+00 -3.291935e+00  6.500000e+01
     vertex  1.418420e+00 -3.740065e+00  6.500000e+01
     vertex  3.917303e+01 -7.203800e+01  6.500000e+01
   endloop
 endfacet
 facet normal  0.000000e+00  0.000000e+00  1.000000e+00
   outer loop
     vertex  2.272259e+00 -3.291935e+00  6.500000e+01
     vertex  3.917303e+01 -7.203800e+01  6.500000e+01
     vertex  4.971048e+01 -6.521402e+01  6.500000e+01
   endloop
 endfacet
 facet normal  0.000000e+00  0.000000e+00  1.000000e+00
   outer loop
     vertex -2.994043e+00  2.652491e+00  6.500000e+01
     vertex -7.048471e+01  4.190353e+01  6.500000e+01
     vertex -3.541824e+00  1.858893e+00  6.500000e+01
   endloop
 endfacet
 facet normal  0.000000e+00  0.000000e+00  1.000000e+00
   outer loop
     vertex -2.994043e+00  2.652491e+00  6.500000e+01
     vertex -6.326211e+01  5.217188e+01  6.500000e+01
     vertex -7.048471e+01  4.190353e+01  6.500000e+01
   endloop
 endfacet
 facet normal  0.000000e+00  0.000000e+00  1.000000e+00
   outer loop
     vertex  2.994043e+00 -2.652491e+00  6.500000e+01
     vertex  2.272259e+00 -3.291935e+00  6.500000e+01
     vertex  4.971048e+01 -6.521402e+01  6.500000e+01
   endloop
 endfacet
 facet normal  0.000000e+00  0.000000e+00  1.000000e+00
   outer loop
     vertex  5.908277e+01 -5.686147e+01  6.500000e+01
     vertex  2.994043e+00 -2.652491e+00  6.500000e+01
     vertex  4.971048e+01 -6.521402e+01  6.500000e+01
   endloop
 endfacet
 facet normal  0.000000e+00  0.000000e+00  1.000000e+00
   outer loop
     vertex -5.455671e+01  6.121736e+01  6.500000e+01
     vertex -6.326211e+01  5.217188e+01  6.500000e+01
     vertex -2.994043e+00  2.652491e+00  6.500000e+01
   endloop
 endfacet
 facet normal  0.000000e+00  0.000000e+00  1.000000e+00
   outer loop
     vertex -5.455671e+01  6.121736e+01  6.500000e+01
     vertex -2.994043e+00  2.652491e+00  6.500000e+01
     vertex -2.272259e+00  3.291935e+00  6.500000e+01
   endloop
 endfacet
 facet normal  0.000000e+00  0.000000e+00  1.000000e+00
   outer loop
     vertex  6.707021e+01 -4.717613e+01  6.500000e+01
     vertex  2.994043e+00 -2.652491e+00  6.500000e+01
     vertex  5.908277e+01 -5.686147e+01  6.500000e+01
   endloop
 endfacet
 facet normal  0.000000e+00  0.000000e+00  1.000000e+00
   outer loop
     vertex  6.707021e+01 -4.717613e+01  6.500000e+01
     vertex  3.541824e+00 -1.858893e+00  6.500000e+01
     vertex  2.994043e+00 -2.652491e+00  6.500000e+01
   endloop
 endfacet
 facet normal  0.000000e+00  0.000000e+00  1.000000e+00
   outer loop
     vertex -4.457254e+01  6.882796e+01  6.500000e+01
     vertex -5.455671e+01  6.121736e+01  6.500000e+01
     vertex -2.272259e+00  3.291935e+00  6.500000e+01
   endloop
 endfacet
 facet normal  0.000000e+00  0.000000e+00  1.000000e+00
   outer loop
     vertex  7.348558e+01 -3.638503e+01  6.500000e+01
     vertex  3.541824e+00 -1.858893e+00  6.500000e+01
     vertex  6.707021e+01 -4.717613e+01  6.500000e+01
   endloop
 endfacet
 facet normal  0.000000e+00  0.000000e+00  1.000000e+00
   outer loop
     vertex -3.354363e+01  7.482530e+01  6.500000e+01
     vertex -2.272259e+00  3.291935e+00  6.500000e+01
     vertex -1.418420e+00  3.740065e+00  6.500000e+01
   endloop
 endfacet
 facet normal  0.000000e+00  0.000000e+00  1.000000e+00
   outer loop
     vertex -3.354363e+01  7.482530e+01  6.500000e+01
     vertex -4.457254e+01  6.882796e+01  6.500000e+01
     vertex -2.272259e+00  3.291935e+00  6.500000e+01
   endloop
 endfacet
 facet normal  0.000000e+00  0.000000e+00  1.000000e+00
   outer loop
     vertex  7.817850e+01 -2.474109e+01  6.500000e+01
     vertex  3.541824e+00 -1.858893e+00  6.500000e+01
     vertex  7.348558e+01 -3.638503e+01  6.500000e+01
   endloop
 endfacet
 facet normal  0.000000e+00  0.000000e+00  1.000000e+00
   outer loop
     vertex  7.817850e+01 -2.474109e+01  6.500000e+01
     vertex  3.883767e+00 -9.572627e-01  6.500000e+01
     vertex  3.541824e+00 -1.858893e+00  6.500000e+01
   endloop
 endfacet
 facet normal  0.000000e+00  0.000000e+00  1.000000e+00
   outer loop
     vertex -2.172848e+01  7.906879e+01  6.500000e+01
     vertex -1.418420e+00  3.740065e+00  6.500000e+01
     vertex -4.821467e-01  3.970835e+00  6.500000e+01
   endloop
 endfacet
 facet normal  0.000000e+00  0.000000e+00  1.000000e+00
   outer loop
     vertex -2.172848e+01  7.906879e+01  6.500000e+01
     vertex -3.354363e+01  7.482530e+01  6.500000e+01
     vertex -1.418420e+00  3.740065e+00  6.500000e+01
   endloop
 endfacet
 facet normal  0.000000e+00  0.000000e+00  1.000000e+00
   outer loop
     vertex  8.103899e+01 -1.251724e+01  6.500000e+01
     vertex  4.000000e+00 -9.797174e-16  6.500000e+01
     vertex  3.883767e+00 -9.572627e-01  6.500000e+01
   endloop
 endfacet
 facet normal  0.000000e+00  0.000000e+00  1.000000e+00
   outer loop
     vertex  8.103899e+01 -1.251724e+01  6.500000e+01
     vertex  3.883767e+00 -9.572627e-01  6.500000e+01
     vertex  7.817850e+01 -2.474109e+01  6.500000e+01
   endloop
 endfacet
 facet normal  0.000000e+00  0.000000e+00  1.000000e+00
   outer loop
     vertex -9.404041e+00  8.145897e+01  6.500000e+01
     vertex -2.172848e+01  7.906879e+01  6.500000e+01
     vertex -4.821467e-01  3.970835e+00  6.500000e+01
   endloop
 endfacet
 facet normal  0.000000e+00  0.000000e+00  1.000000e+00
   outer loop
     vertex  8.200000e+01 -2.008421e-14  6.500000e+01
     vertex  4.000000e+00 -9.797174e-16  6.500000e+01
     vertex  8.103899e+01 -1.251724e+01  6.500000e+01
   endloop
 endfacet
 facet normal  0.000000e+00  0.000000e+00  1.000000e+00
   outer loop
     vertex  3.140824e+00  8.193983e+01  6.500000e+01
     vertex -4.821467e-01  3.970835e+00  6.500000e+01
     vertex  4.821467e-01  3.970835e+00  6.500000e+01
   endloop
 endfacet
 facet normal  0.000000e+00  0.000000e+00  1.000000e+00
   outer loop
     vertex  3.140824e+00  8.193983e+01  6.500000e+01
     vertex -9.404041e+00  8.145897e+01  6.500000e+01
     vertex -4.821467e-01  3.970835e+00  6.500000e+01
   endloop
 endfacet
 facet normal  0.000000e+00  0.000000e+00  1.000000e+00
   outer loop
     vertex  8.103899e+01  1.251724e+01  6.500000e+01
     vertex  3.883767e+00  9.572627e-01  6.500000e+01
     vertex  4.000000e+00 -9.797174e-16  6.500000e+01
   endloop
 endfacet
 facet normal  0.000000e+00  0.000000e+00  1.000000e+00
   outer loop
     vertex  8.103899e+01  1.251724e+01  6.500000e+01
     vertex  4.000000e+00 -9.797174e-16  6.500000e+01
     vertex  8.200000e+01 -2.008421e-14  6.500000e+01
   endloop
 endfacet
 facet normal  0.000000e+00  0.000000e+00  1.000000e+00
   outer loop
     vertex  1.561207e+01  8.050008e+01  6.500000e+01
     vertex  3.140824e+00  8.193983e+01  6.500000e+01
     vertex  4.821467e-01  3.970835e+00  6.500000e+01
   endloop
 endfacet
 facet normal  0.000000e+00  0.000000e+00  1.000000e+00
   outer loop
     vertex  1.561207e+01  8.050008e+01  6.500000e+01
     vertex  4.821467e-01  3.970835e+00  6.500000e+01
     vertex  1.418420e+00  3.740065e+00  6.500000e+01
   endloop
 endfacet
 facet normal  0.000000e+00  0.000000e+00  1.000000e+00
   outer loop
     vertex  7.817850e+01  2.474109e+01  6.500000e+01
     vertex  3.541824e+00  1.858893e+00  6.500000e+01
     vertex  3.883767e+00  9.572627e-01  6.500000e+01
   endloop
 endfacet
 facet normal  0.000000e+00  0.000000e+00  1.000000e+00
   outer loop
     vertex  7.817850e+01  2.474109e+01  6.500000e+01
     vertex  3.883767e+00  9.572627e-01  6.500000e+01
     vertex  8.103899e+01  1.251724e+01  6.500000e+01
   endloop
 endfacet
 facet normal  0.000000e+00  0.000000e+00  1.000000e+00
   outer loop
     vertex  2.771738e+01  7.717348e+01  6.500000e+01
     vertex  1.561207e+01  8.050008e+01  6.500000e+01
     vertex  1.418420e+00  3.740065e+00  6.500000e+01
   endloop
 endfacet
 facet normal  0.000000e+00  0.000000e+00  1.000000e+00
   outer loop
     vertex  7.348558e+01  3.638503e+01  6.500000e+01
     vertex  3.541824e+00  1.858893e+00  6.500000e+01
     vertex  7.817850e+01  2.474109e+01  6.500000e+01
   endloop
 endfacet
 facet normal  0.000000e+00  0.000000e+00  1.000000e+00
   outer loop
     vertex  3.917303e+01  7.203800e+01  6.500000e+01
     vertex  1.418420e+00  3.740065e+00  6.500000e+01
     vertex  2.272259e+00  3.291935e+00  6.500000e+01
   endloop
 endfacet
 facet normal  0.000000e+00  0.000000e+00  1.000000e+00
   outer loop
     vertex  3.917303e+01  7.203800e+01  6.500000e+01
     vertex  2.771738e+01  7.717348e+01  6.500000e+01
     vertex  1.418420e+00  3.740065e+00  6.500000e+01
   endloop
 endfacet
 facet normal  0.000000e+00  0.000000e+00  1.000000e+00
   outer loop
     vertex  6.707021e+01  4.717613e+01  6.500000e+01
     vertex  2.994043e+00  2.652491e+00  6.500000e+01
     vertex  3.541824e+00  1.858893e+00  6.500000e+01
   endloop
 endfacet
 facet normal  0.000000e+00  0.000000e+00  1.000000e+00
   outer loop
     vertex  6.707021e+01  4.717613e+01  6.500000e+01
     vertex  3.541824e+00  1.858893e+00  6.500000e+01
     vertex  7.348558e+01  3.638503e+01  6.500000e+01
   endloop
 endfacet
 facet normal  0.000000e+00  0.000000e+00  1.000000e+00
   outer loop
     vertex  4.971048e+01  6.521402e+01  6.500000e+01
     vertex  2.272259e+00  3.291935e+00  6.500000e+01
     vertex  2.994043e+00  2.652491e+00  6.500000e+01
   endloop
 endfacet
 facet normal  0.000000e+00  0.000000e+00  1.000000e+00
   outer loop
     vertex  4.971048e+01  6.521402e+01  6.500000e+01
     vertex  3.917303e+01  7.203800e+01  6.500000e+01
     vertex  2.272259e+00  3.291935e+00  6.500000e+01
   endloop
 endfacet
 facet normal  0.000000e+00  0.000000e+00  1.000000e+00
   outer loop
     vertex  5.908277e+01  5.686147e+01  6.500000e+01
     vertex  4.971048e+01  6.521402e+01  6.500000e+01
     vertex  2.994043e+00  2.652491e+00  6.500000e+01
   endloop
 endfacet
 facet normal  0.000000e+00  0.000000e+00  1.000000e+00
   outer loop
     vertex  5.908277e+01  5.686147e+01  6.500000e+01
     vertex  2.994043e+00  2.652491e+00  6.500000e+01
     vertex  6.707021e+01  4.717613e+01  6.500000e+01
   endloop
 endfacet
 facet normal -9.927089e-01 -1.205367e-01  0.000000e+00
   outer loop
     vertex  3.883767e+00  9.572627e-01  6.500000e+01
     vertex  4.000000e+00 -9.797174e-16  6.000000e+01
     vertex  4.000000e+00 -9.797174e-16  6.500000e+01
   endloop
 endfacet
 facet normal -9.927089e-01 -1.205367e-01 -0.000000e+00
   outer loop
     vertex  3.883767e+00  9.572627e-01  6.500000e+01
     vertex  3.883767e+00  9.572627e-01  6.000000e+01
     vertex  4.000000e+00 -9.797174e-16  6.000000e+01
   endloop
 endfacet
 facet normal -9.350162e-01 -3.546049e-01 -0.000000e+00
   outer loop
     vertex  3.541824e+00  1.858893e+00  6.500000e+01
     vertex  3.541824e+00  1.858893e+00  6.000000e+01
     vertex  3.883767e+00  9.572627e-01  6.000000e+01
   endloop
 endfacet
 facet normal -8.229839e-01 -5.680647e-01 -0.000000e+00
   outer loop
     vertex  3.541824e+00  1.858893e+00  6.500000e+01
     vertex  2.994043e+00  2.652491e+00  6.000000e+01
     vertex  3.541824e+00  1.858893e+00  6.000000e+01
   endloop
 endfacet
 facet normal -9.350162e-01 -3.546049e-01  0.000000e+00
   outer loop
     vertex  3.541824e+00  1.858893e+00  6.500000e+01
     vertex  3.883767e+00  9.572627e-01  6.000000e+01
     vertex  3.883767e+00  9.572627e-01  6.500000e+01
   endloop
 endfacet
 facet normal -8.229839e-01 -5.680647e-01 -0.000000e+00
   outer loop
     vertex  2.994043e+00  2.652491e+00  6.500000e+01
     vertex  2.994043e+00  2.652491e+00  6.000000e+01
     vertex  3.541824e+00  1.858893e+00  6.500000e+01
   endloop
 endfacet
 facet normal -6.631227e-01 -7.485107e-01 -0.000000e+00
   outer loop
     vertex  2.272259e+00  3.291935e+00  6.500000e+01
     vertex  2.272259e+00  3.291935e+00  6.000000e+01
     vertex  2.994043e+00  2.652491e+00  6.000000e+01
   endloop
 endfacet
 facet normal -6.631227e-01 -7.485107e-01  0.000000e+00
   outer loop
     vertex  2.272259e+00  3.291935e+00  6.500000e+01
     vertex  2.994043e+00  2.652491e+00  6.000000e+01
     vertex  2.994043e+00  2.652491e+00  6.500000e+01
   endloop
 endfacet
 facet normal -4.647232e-01 -8.854560e-01 -0.000000e+00
   outer loop
     vertex  1.418420e+00  3.740065e+00  6.500000e+01
     vertex  1.418420e+00  3.740065e+00  6.000000e+01
     vertex  2.272259e+00  3.291935e+00  6.000000e+01
   endloop
 endfacet
 facet normal -2.393157e-01 -9.709418e-01 -0.000000e+00
   outer loop
     vertex  1.418420e+00  3.740065e+00  6.500000e+01
     vertex  4.821467e-01  3.970835e+00  6.000000e+01
     vertex  1.418420e+00  3.740065e+00  6.000000e+01
   endloop
 endfacet
 facet normal -4.647232e-01 -8.854560e-01  0.000000e+00
   outer loop
     vertex  1.418420e+00  3.740065e+00  6.500000e+01
     vertex  2.272259e+00  3.291935e+00  6.000000e+01
     vertex  2.272259e+00  3.291935e+00  6.500000e+01
   endloop
 endfacet
 facet normal -2.393157e-01 -9.709418e-01 -0.000000e+00
   outer loop
     vertex  4.821467e-01  3.970835e+00  6.500000e+01
     vertex  4.821467e-01  3.970835e+00  6.000000e+01
     vertex  1.418420e+00  3.740065e+00  6.500000e+01
   endloop
 endfacet
 facet normal  0.000000e+00 -1.000000e+00  0.000000e+00
   outer loop
     vertex -4.821467e-01  3.970835e+00  6.500000e+01
     vertex -4.821467e-01  3.970835e+00  6.000000e+01
     vertex  4.821467e-01  3.970835e+00  6.000000e+01
   endloop
 endfacet
 facet normal  0.000000e+00 -1.000000e+00  0.000000e+00
   outer loop
     vertex -4.821467e-01  3.970835e+00  6.500000e+01
     vertex  4.821467e-01  3.970835e+00  6.000000e+01
     vertex  4.821467e-01  3.970835e+00  6.500000e+01
   endloop
 endfacet
 facet normal  2.393157e-01 -9.709418e-01  0.000000e+00
   outer loop
     vertex -1.418420e+00  3.740065e+00  6.500000e+01
     vertex -1.418420e+00  3.740065e+00  6.000000e+01
     vertex -4.821467e-01  3.970835e+00  6.000000e+01
   endloop
 endfacet
 facet normal  2.393157e-01 -9.709418e-01  0.000000e+00
   outer loop
     vertex -1.418420e+00  3.740065e+00  6.500000e+01
     vertex -4.821467e-01  3.970835e+00  6.000000e+01
     vertex -4.821467e-01  3.970835e+00  6.500000e+01
   endloop
 endfacet
 facet normal  4.647232e-01 -8.854560e-01  0.000000e+00
   outer loop
     vertex -2.272259e+00  3.291935e+00  6.500000e+01
     vertex -2.272259e+00  3.291935e+00  6.000000e+01
     vertex -1.418420e+00  3.740065e+00  6.000000e+01
   endloop
 endfacet
 facet normal  4.647232e-01 -8.854560e-01  0.000000e+00
   outer loop
     vertex -2.272259e+00  3.291935e+00  6.500000e+01
     vertex -1.418420e+00  3.740065e+00  6.000000e+01
     vertex -1.418420e+00  3.740065e+00  6.500000e+01
   endloop
 endfacet
 facet normal  6.631227e-01 -7.485107e-01  0.000000e+00
   outer loop
     vertex -2.994043e+00  2.652491e+00  6.500000e+01
     vertex -2.994043e+00  2.652491e+00  6.000000e+01
     vertex -2.272259e+00  3.291935e+00  6.000000e+01
   endloop
 endfacet
 facet normal  8.229839e-01 -5.680647e-01  0.000000e+00
   outer loop
     vertex -2.994043e+00  2.652491e+00  6.500000e+01
     vertex -3.541824e+00  1.858893e+00  6.000000e+01
     vertex -2.994043e+00  2.652491e+00  6.000000e+01
   endloop
 endfacet
 facet normal  6.631227e-01 -7.485107e-01  0.000000e+00
   outer loop
     vertex -2.994043e+00  2.652491e+00  6.500000e+01
     vertex -2.272259e+00  3.291935e+00  6.000000e+01
     vertex -2.272259e+00  3.291935e+00  6.500000e+01
   endloop
 endfacet
 facet normal  8.229839e-01 -5.680647e-01  0.000000e+00
   outer loop
     vertex -3.541824e+00  1.858893e+00  6.500000e+01
     vertex -3.541824e+00  1.858893e+00  6.000000e+01
     vertex -2.994043e+00  2.652491e+00  6.500000e+01
   endloop
 endfacet
 facet normal  9.350162e-01 -3.546049e-01  0.000000e+00
   outer loop
     vertex -3.541824e+00  1.858893e+00  6.500000e+01
     vertex -3.883767e+00  9.572627e-01  6.000000e+01
     vertex -3.541824e+00  1.858893e+00  6.000000e+01
   endloop
 endfacet
 facet normal  9.350162e-01 -3.546049e-01  0.000000e+00
   outer loop
     vertex -3.883767e+00  9.572627e-01  6.500000e+01
     vertex -3.883767e+00  9.572627e-01  6.000000e+01
     vertex -3.541824e+00  1.858893e+00  6.500000e+01
   endloop
 endfacet
 facet normal  9.927089e-01 -1.205367e-01  0.000000e+00
   outer loop
     vertex -4.000000e+00  4.042572e-15  6.500000e+01
     vertex -3.883767e+00  9.572627e-01  6.000000e+01
     vertex -3.883767e+00  9.572627e-01  6.500000e+01
   endloop
 endfacet
 facet normal  9.927089e-01 -1.205367e-01  0.000000e+00
   outer loop
     vertex -4.000000e+00  4.042572e-15  6.500000e+01
     vertex -4.000000e+00  4.042572e-15  6.000000e+01
     vertex -3.883767e+00  9.572627e-01  6.000000e+01
   endloop
 endfacet
 facet normal  9.927089e-01  1.205367e-01  0.000000e+00
   outer loop
     vertex -4.000000e+00  4.042572e-15  6.500000e+01
     vertex -3.883767e+00 -9.572627e-01  6.000000e+01
     vertex -4.000000e+00  4.042572e-15  6.000000e+01
   endloop
 endfacet
 facet normal  9.927089e-01  1.205367e-01  0.000000e+00
   outer loop
     vertex -3.883767e+00 -9.572627e-01  6.500000e+01
     vertex -3.883767e+00 -9.572627e-01  6.000000e+01
     vertex -4.000000e+00  4.042572e-15  6.500000e+01
   endloop
 endfacet
 facet normal  9.350162e-01  3.546049e-01  0.000000e+00
   outer loop
     vertex -3.541824e+00 -1.858893e+00  6.500000e+01
     vertex -3.883767e+00 -9.572627e-01  6.000000e+01
     vertex -3.883767e+00 -9.572627e-01  6.500000e+01
   endloop
 endfacet
 facet normal  9.350162e-01  3.546049e-01  0.000000e+00
   outer loop
     vertex -3.541824e+00 -1.858893e+00  6.500000e+01
     vertex -3.541824e+00 -1.858893e+00  6.000000e+01
     vertex -3.883767e+00 -9.572627e-01  6.000000e+01
   endloop
 endfacet
 facet normal  8.229839e-01  5.680647e-01  0.000000e+00
   outer loop
     vertex -2.994043e+00 -2.652491e+00  6.500000e+01
     vertex -3.541824e+00 -1.858893e+00  6.000000e+01
     vertex -3.541824e+00 -1.858893e+00  6.500000e+01
   endloop
 endfacet
 facet normal  8.229839e-01  5.680647e-01  0.000000e+00
   outer loop
     vertex -2.994043e+00 -2.652491e+00  6.500000e+01
     vertex -2.994043e+00 -2.652491e+00  6.000000e+01
     vertex -3.541824e+00 -1.858893e+00  6.000000e+01
   endloop
 endfacet
 facet normal  6.631227e-01  7.485107e-01  0.000000e+00
   outer loop
     vertex -2.272259e+00 -3.291935e+00  6.500000e+01
     vertex -2.994043e+00 -2.652491e+00  6.000000e+01
     vertex -2.994043e+00 -2.652491e+00  6.500000e+01
   endloop
 endfacet
 facet normal  6.631227e-01  7.485107e-01  0.000000e+00
   outer loop
     vertex -2.272259e+00 -3.291935e+00  6.500000e+01
     vertex -2.272259e+00 -3.291935e+00  6.000000e+01
     vertex -2.994043e+00 -2.652491e+00  6.000000e+01
   endloop
 endfacet
 facet normal  4.647232e-01  8.854560e-01  0.000000e+00
   outer loop
     vertex -1.418420e+00 -3.740065e+00  6.500000e+01
     vertex -2.272259e+00 -3.291935e+00  6.000000e+01
     vertex -2.272259e+00 -3.291935e+00  6.500000e+01
   endloop
 endfacet
 facet normal  4.647232e-01  8.854560e-01  0.000000e+00
   outer loop
     vertex -1.418420e+00 -3.740065e+00  6.500000e+01
     vertex -1.418420e+00 -3.740065e+00  6.000000e+01
     vertex -2.272259e+00 -3.291935e+00  6.000000e+01
   endloop
 endfacet
 facet normal  2.393157e-01  9.709418e-01  0.000000e+00
   outer loop
     vertex -4.821467e-01 -3.970835e+00  6.500000e+01
     vertex -1.418420e+00 -3.740065e+00  6.000000e+01
     vertex -1.418420e+00 -3.740065e+00  6.500000e+01
   endloop
 endfacet
 facet normal  2.393157e-01  9.709418e-01  0.000000e+00
   outer loop
     vertex -4.821467e-01 -3.970835e+00  6.500000e+01
     vertex -4.821467e-01 -3.970835e+00  6.000000e+01
     vertex -1.418420e+00 -3.740065e+00  6.000000e+01
   endloop
 endfacet
 facet normal  2.302666e-15  1.000000e+00  0.000000e+00
   outer loop
     vertex -4.821467e-01 -3.970835e+00  6.500000e+01
     vertex  4.821467e-01 -3.970835e+00  6.000000e+01
     vertex -4.821467e-01 -3.970835e+00  6.000000e+01
   endloop
 endfacet
 facet normal  2.302666e-15  1.000000e+00  0.000000e+00
   outer loop
     vertex  4.821467e-01 -3.970835e+00  6.500000e+01
     vertex  4.821467e-01 -3.970835e+00  6.000000e+01
     vertex -4.821467e-01 -3.970835e+00  6.500000e+01
   endloop
 endfacet
 facet normal -2.393157e-01  9.709418e-01  0.000000e+00
   outer loop
     vertex  1.418420e+00 -3.740065e+00  6.500000e+01
     vertex  4.821467e-01 -3.970835e+00  6.000000e+01
     vertex  4.821467e-01 -3.970835e+00  6.500000e+01
   endloop
 endfacet
 facet normal -2.393157e-01  9.709418e-01  0.000000e+00
   outer loop
     vertex  1.418420e+00 -3.740065e+00  6.500000e+01
     vertex  1.418420e+00 -3.740065e+00  6.000000e+01
     vertex  4.821467e-01 -3.970835e+00  6.000000e+01
   endloop
 endfacet
 facet normal -4.647232e-01  8.854560e-01  0.000000e+00
   outer loop
     vertex  2.272259e+00 -3.291935e+00  6.500000e+01
     vertex  1.418420e+00 -3.740065e+00  6.000000e+01
     vertex  1.418420e+00 -3.740065e+00  6.500000e+01
   endloop
 endfacet
 facet normal -4.647232e-01  8.854560e-01  0.000000e+00
   outer loop
     vertex  2.272259e+00 -3.291935e+00  6.500000e+01
     vertex  2.272259e+00 -3.291935e+00  6.000000e+01
     vertex  1.418420e+00 -3.740065e+00  6.000000e+01
   endloop
 endfacet
 facet normal -6.631227e-01  7.485107e-01  0.000000e+00
   outer loop
     vertex  2.272259e+00 -3.291935e+00  6.500000e+01
     vertex  2.994043e+00 -2.652491e+00  6.000000e+01
     vertex  2.272259e+00 -3.291935e+00  6.000000e+01
   endloop
 endfacet
 facet normal -6.631227e-01  7.485107e-01  0.000000e+00
   outer loop
     vertex  2.994043e+00 -2.652491e+00  6.500000e+01
     vertex  2.994043e+00 -2.652491e+00  6.000000e+01
     vertex  2.272259e+00 -3.291935e+00  6.500000e+01
   endloop
 endfacet
 facet normal -8.229839e-01  5.680647e-01  0.000000e+00
   outer loop
     vertex  2.994043e+00 -2.652491e+00  6.500000e+01
     vertex  3.541824e+00 -1.858893e+00  6.000000e+01
     vertex  2.994043e+00 -2.652491e+00  6.000000e+01
   endloop
 endfacet
 facet normal -8.229839e-01  5.680647e-01  0.000000e+00
   outer loop
     vertex  3.541824e+00 -1.858893e+00  6.500000e+01
     vertex  3.541824e+00 -1.858893e+00  6.000000e+01
     vertex  2.994043e+00 -2.652491e+00  6.500000e+01
   endloop
 endfacet
 facet normal -9.350162e-01  3.546049e-01  0.000000e+00
   outer loop
     vertex  3.883767e+00 -9.572627e-01  6.500000e+01
     vertex  3.883767e+00 -9.572627e-01  6.000000e+01
     vertex  3.541824e+00 -1.858893e+00  6.000000e+01
   endloop
 endfacet
 facet normal -9.927089e-01  1.205367e-01  0.000000e+00
   outer loop
     vertex  3.883767e+00 -9.572627e-01  6.500000e+01
     vertex  4.000000e+00 -9.797174e-16  6.000000e+01
     vertex  3.883767e+00 -9.572627e-01  6.000000e+01
   endloop
 endfacet
 facet normal -9.350162e-01  3.546049e-01  0.000000e+00
   outer loop
     vertex  3.883767e+00 -9.572627e-01  6.500000e+01
     vertex  3.541824e+00 -1.858893e+00  6.000000e+01
     vertex  3.541824e+00 -1.858893e+00  6.500000e+01
   endloop
 endfacet
 facet normal -9.927089e-01  1.205367e-01  0.000000e+00
   outer loop
     vertex  4.000000e+00 -9.797174e-16  6.500000e+01
     vertex  4.000000e+00 -9.797174e-16  6.000000e+01
     vertex  3.883767e+00 -9.572627e-01  6.500000e+01
   endloop
 endfacet
endsolid
