solid 
 facet normal  5.803970e-01  5.378170e-02  8.125558e-01
   outer loop
     vertex  5.602947e+01  1.047372e+01  6.000000e+01
     vertex  5.000000e+01 -1.224647e-14  6.500000e+01
     vertex  5.700000e+01 -1.396097e-14  6.000000e+01
   endloop
 endfacet
 facet normal  5.769628e-01  5.682587e-02  8.147912e-01
   outer loop
     vertex  4.903926e+01  9.754516e+00  6.500000e+01
     vertex  5.000000e+01 -1.224647e-14  6.500000e+01
     vertex  5.602947e+01  1.047372e+01  6.000000e+01
   endloop
 endfacet
 facet normal  5.632949e-01  1.602712e-01  8.105627e-01
   outer loop
     vertex  5.315092e+01  2.059077e+01  6.000000e+01
     vertex  4.903926e+01  9.754516e+00  6.500000e+01
     vertex  5.602947e+01  1.047372e+01  6.000000e+01
   endloop
 endfacet
 facet normal  5.520140e-01  1.674516e-01  8.168479e-01
   outer loop
     vertex  4.619398e+01  1.913417e+01  6.500000e+01
     vertex  4.903926e+01  9.754516e+00  6.500000e+01
     vertex  5.315092e+01  2.059077e+01  6.000000e+01
   endloop
 endfacet
 facet normal  5.264165e-01  2.621243e-01  8.088118e-01
   outer loop
     vertex  4.846238e+01  3.000663e+01  6.000000e+01
     vertex  4.619398e+01  1.913417e+01  6.500000e+01
     vertex  5.315092e+01  2.059077e+01  6.000000e+01
   endloop
 endfacet
 facet normal  4.709288e-01  3.556289e-01  8.073129e-01
   outer loop
     vertex  4.157348e+01  2.777851e+01  6.500000e+01
     vertex  4.846238e+01  3.000663e+01  6.000000e+01
     vertex  4.212351e+01  3.840065e+01  6.000000e+01
   endloop
 endfacet
 facet normal  5.065605e-01  2.707622e-01  8.185868e-01
   outer loop
     vertex  4.157348e+01  2.777851e+01  6.500000e+01
     vertex  4.619398e+01  1.913417e+01  6.500000e+01
     vertex  4.846238e+01  3.000663e+01  6.000000e+01
   endloop
 endfacet
 facet normal  3.987026e-01  4.373559e-01  8.060745e-01
   outer loop
     vertex  3.535534e+01  3.535534e+01  6.500000e+01
     vertex  4.212351e+01  3.840065e+01  6.000000e+01
     vertex  3.435017e+01  4.548698e+01  6.000000e+01
   endloop
 endfacet
 facet normal  4.424217e-01  3.630861e-01  8.200192e-01
   outer loop
     vertex  3.535534e+01  3.535534e+01  6.500000e+01
     vertex  4.157348e+01  2.777851e+01  6.500000e+01
     vertex  4.212351e+01  3.840065e+01  6.000000e+01
   endloop
 endfacet
 facet normal  3.122449e-01  5.042928e-01  8.051037e-01
   outer loop
     vertex  2.777851e+01  4.157348e+01  6.500000e+01
     vertex  3.435017e+01  4.548698e+01  6.000000e+01
     vertex  2.540709e+01  5.102431e+01  6.000000e+01
   endloop
 endfacet
 facet normal  3.620521e-01  4.411618e-01  8.211544e-01
   outer loop
     vertex  2.777851e+01  4.157348e+01  6.500000e+01
     vertex  3.535534e+01  3.535534e+01  6.500000e+01
     vertex  3.435017e+01  4.548698e+01  6.000000e+01
   endloop
 endfacet
 facet normal  2.146063e-01  5.539628e-01  8.044062e-01
   outer loop
     vertex  1.913417e+01  4.619398e+01  6.500000e+01
     vertex  2.540709e+01  5.102431e+01  6.000000e+01
     vertex  1.559879e+01  5.482406e+01  6.000000e+01
   endloop
 endfacet
 facet normal  2.684549e-01  5.022437e-01  8.219995e-01
   outer loop
     vertex  1.913417e+01  4.619398e+01  6.500000e+01
     vertex  2.777851e+01  4.157348e+01  6.500000e+01
     vertex  2.540709e+01  5.102431e+01  6.000000e+01
   endloop
 endfacet
 facet normal  1.650786e-01  5.441912e-01  8.225601e-01
   outer loop
     vertex  9.754516e+00  4.903926e+01  6.500000e+01
     vertex  1.913417e+01  4.619398e+01  6.500000e+01
     vertex  1.559879e+01  5.482406e+01  6.000000e+01
   endloop
 endfacet
 facet normal  1.092663e-01  5.845231e-01  8.039861e-01
   outer loop
     vertex  9.754516e+00  4.903926e+01  6.500000e+01
     vertex  1.559879e+01  5.482406e+01  6.000000e+01
     vertex  5.259296e+00  5.675685e+01  6.000000e+01
   endloop
 endfacet
 facet normal  5.570059e-02  5.655375e-01  8.228394e-01
   outer loop
     vertex  3.061617e-15  5.000000e+01  6.500000e+01
     vertex  9.754516e+00  4.903926e+01  6.500000e+01
     vertex  5.259296e+00  5.675685e+01  6.000000e+01
   endloop
 endfacet
 facet normal  4.018196e-16  5.948378e-01  8.038457e-01
   outer loop
     vertex  3.061617e-15  5.000000e+01  6.500000e+01
     vertex  5.259296e+00  5.675685e+01  6.000000e+01
     vertex -5.259296e+00  5.675685e+01  6.000000e+01
   endloop
 endfacet
 facet normal -5.570059e-02  5.655375e-01  8.228394e-01
   outer loop
     vertex -9.754516e+00  4.903926e+01  6.500000e+01
     vertex  3.061617e-15  5.000000e+01  6.500000e+01
     vertex -5.259296e+00  5.675685e+01  6.000000e+01
   endloop
 endfacet
 facet normal -1.092663e-01  5.845231e-01  8.039861e-01
   outer loop
     vertex -9.754516e+00  4.903926e+01  6.500000e+01
     vertex -5.259296e+00  5.675685e+01  6.000000e+01
     vertex -1.559879e+01  5.482406e+01  6.000000e+01
   endloop
 endfacet
 facet normal -1.650786e-01  5.441912e-01  8.225601e-01
   outer loop
     vertex -1.913417e+01  4.619398e+01  6.500000e+01
     vertex -9.754516e+00  4.903926e+01  6.500000e+01
     vertex -1.559879e+01  5.482406e+01  6.000000e+01
   endloop
 endfacet
 facet normal -2.146063e-01  5.539628e-01  8.044062e-01
   outer loop
     vertex -1.913417e+01  4.619398e+01  6.500000e+01
     vertex -1.559879e+01  5.482406e+01  6.000000e+01
     vertex -2.540709e+01  5.102431e+01  6.000000e+01
   endloop
 endfacet
 facet normal -2.684549e-01  5.022437e-01  8.219995e-01
   outer loop
     vertex -2.777851e+01  4.157348e+01  6.500000e+01
     vertex -1.913417e+01  4.619398e+01  6.500000e+01
     vertex -2.540709e+01  5.102431e+01  6.000000e+01
   endloop
 endfacet
 facet normal -3.122449e-01  5.042928e-01  8.051037e-01
   outer loop
     vertex -2.777851e+01  4.157348e+01  6.500000e+01
     vertex -2.540709e+01  5.102431e+01  6.000000e+01
     vertex -3.435017e+01  4.548698e+01  6.000000e+01
   endloop
 endfacet
 facet normal -3.620521e-01  4.411618e-01  8.211544e-01
   outer loop
     vertex -3.535534e+01  3.535534e+01  6.500000e+01
     vertex -2.777851e+01  4.157348e+01  6.500000e+01
     vertex -3.435017e+01  4.548698e+01  6.000000e+01
   endloop
 endfacet
 facet normal -3.987026e-01  4.373559e-01  8.060745e-01
   outer loop
     vertex -3.535534e+01  3.535534e+01  6.500000e+01
     vertex -3.435017e+01  4.548698e+01  6.000000e+01
     vertex -4.212351e+01  3.840065e+01  6.000000e+01
   endloop
 endfacet
 facet normal -4.424217e-01  3.630861e-01  8.200192e-01
   outer loop
     vertex -4.157348e+01  2.777851e+01  6.500000e+01
     vertex -3.535534e+01  3.535534e+01  6.500000e+01
     vertex -4.212351e+01  3.840065e+01  6.000000e+01
   endloop
 endfacet
 facet normal -4.709288e-01  3.556289e-01  8.073129e-01
   outer loop
     vertex -4.157348e+01  2.777851e+01  6.500000e+01
     vertex -4.212351e+01  3.840065e+01  6.000000e+01
     vertex -4.846238e+01  3.000663e+01  6.000000e+01
   endloop
 endfacet
 facet normal -5.065605e-01  2.707622e-01  8.185868e-01
   outer loop
     vertex -4.619398e+01  1.913417e+01  6.500000e+01
     vertex -4.157348e+01  2.777851e+01  6.500000e+01
     vertex -4.846238e+01  3.000663e+01  6.000000e+01
   endloop
 endfacet
 facet normal -5.264165e-01  2.621243e-01  8.088118e-01
   outer loop
     vertex -4.619398e+01  1.913417e+01  6.500000e+01
     vertex -4.846238e+01  3.000663e+01  6.000000e+01
     vertex -5.315092e+01  2.059077e+01  6.000000e+01
   endloop
 endfacet
 facet normal -5.520140e-01  1.674516e-01  8.168479e-01
   outer loop
     vertex -4.903926e+01  9.754516e+00  6.500000e+01
     vertex -4.619398e+01  1.913417e+01  6.500000e+01
     vertex -5.315092e+01  2.059077e+01  6.000000e+01
   endloop
 endfacet
 facet normal -5.632949e-01  1.602712e-01  8.105627e-01
   outer loop
     vertex -4.903926e+01  9.754516e+00  6.500000e+01
     vertex -5.315092e+01  2.059077e+01  6.000000e+01
     vertex -5.602947e+01  1.047372e+01  6.000000e+01
   endloop
 endfacet
 facet normal -5.769628e-01  5.682587e-02  8.147912e-01
   outer loop
     vertex -5.000000e+01 -3.828569e-14  6.500000e+01
     vertex -4.903926e+01  9.754516e+00  6.500000e+01
     vertex -5.602947e+01  1.047372e+01  6.000000e+01
   endloop
 endfacet
 facet normal -5.803970e-01  5.378170e-02  8.125558e-01
   outer loop
     vertex -5.000000e+01 -3.828569e-14  6.500000e+01
     vertex -5.602947e+01  1.047372e+01  6.000000e+01
     vertex -5.700000e+01  5.760666e-14  6.000000e+01
   endloop
 endfacet
 facet normal -5.803970e-01 -5.378170e-02  8.125558e-01
   outer loop
     vertex -5.602947e+01 -1.047372e+01  6.000000e+01
     vertex -5.000000e+01 -3.828569e-14  6.500000e+01
     vertex -5.700000e+01  5.760666e-14  6.000000e+01
   endloop
 endfacet
 facet normal -5.769628e-01 -5.682587e-02  8.147912e-01
   outer loop
     vertex -4.903926e+01 -9.754516e+00  6.500000e+01
     vertex -5.000000e+01 -3.828569e-14  6.500000e+01
     vertex -5.602947e+01 -1.047372e+01  6.000000e+01
   endloop
 endfacet
 facet normal -5.632949e-01 -1.602712e-01  8.105627e-01
   outer loop
     vertex -5.315092e+01 -2.059077e+01  6.000000e+01
     vertex -4.903926e+01 -9.754516e+00  6.500000e+01
     vertex -5.602947e+01 -1.047372e+01  6.000000e+01
   endloop
 endfacet
 facet normal -5.520140e-01 -1.674516e-01  8.168479e-01
   outer loop
     vertex -4.619398e+01 -1.913417e+01  6.500000e+01
     vertex -4.903926e+01 -9.754516e+00  6.500000e+01
     vertex -5.315092e+01 -2.059077e+01  6.000000e+01
   endloop
 endfacet
 facet normal -5.264165e-01 -2.621243e-01  8.088118e-01
   outer loop
     vertex -4.846238e+01 -3.000663e+01  6.000000e+01
     vertex -4.619398e+01 -1.913417e+01  6.500000e+01
     vertex -5.315092e+01 -2.059077e+01  6.000000e+01
   endloop
 endfacet
 facet normal -5.065605e-01 -2.707622e-01  8.185868e-01
   outer loop
     vertex -4.157348e+01 -2.777851e+01  6.500000e+01
     vertex -4.619398e+01 -1.913417e+01  6.500000e+01
     vertex -4.846238e+01 -3.000663e+01  6.000000e+01
   endloop
 endfacet
 facet normal -4.709288e-01 -3.556289e-01  8.073129e-01
   outer loop
     vertex -4.157348e+01 -2.777851e+01  6.500000e+01
     vertex -4.846238e+01 -3.000663e+01  6.000000e+01
     vertex -4.212351e+01 -3.840065e+01  6.000000e+01
   endloop
 endfacet
 facet normal -4.424217e-01 -3.630861e-01  8.200192e-01
   outer loop
     vertex -3.535534e+01 -3.535534e+01  6.500000e+01
     vertex -4.157348e+01 -2.777851e+01  6.500000e+01
     vertex -4.212351e+01 -3.840065e+01  6.000000e+01
   endloop
 endfacet
 facet normal -3.987026e-01 -4.373559e-01  8.060745e-01
   outer loop
     vertex -3.535534e+01 -3.535534e+01  6.500000e+01
     vertex -4.212351e+01 -3.840065e+01  6.000000e+01
     vertex -3.435017e+01 -4.548698e+01  6.000000e+01
   endloop
 endfacet
 facet normal -3.122449e-01 -5.042928e-01  8.051037e-01
   outer loop
     vertex -2.777851e+01 -4.157348e+01  6.500000e+01
     vertex -3.435017e+01 -4.548698e+01  6.000000e+01
     vertex -2.540709e+01 -5.102431e+01  6.000000e+01
   endloop
 endfacet
 facet normal -3.620521e-01 -4.411618e-01  8.211544e-01
   outer loop
     vertex -2.777851e+01 -4.157348e+01  6.500000e+01
     vertex -3.535534e+01 -3.535534e+01  6.500000e+01
     vertex -3.435017e+01 -4.548698e+01  6.000000e+01
   endloop
 endfacet
 facet normal -2.684549e-01 -5.022437e-01  8.219995e-01
   outer loop
     vertex -1.913417e+01 -4.619398e+01  6.500000e+01
     vertex -2.777851e+01 -4.157348e+01  6.500000e+01
     vertex -2.540709e+01 -5.102431e+01  6.000000e+01
   endloop
 endfacet
 facet normal -2.146063e-01 -5.539628e-01  8.044062e-01
   outer loop
     vertex -1.913417e+01 -4.619398e+01  6.500000e+01
     vertex -2.540709e+01 -5.102431e+01  6.000000e+01
     vertex -1.559879e+01 -5.482406e+01  6.000000e+01
   endloop
 endfacet
 facet normal -1.092663e-01 -5.845231e-01  8.039861e-01
   outer loop
     vertex -9.754516e+00 -4.903926e+01  6.500000e+01
     vertex -1.559879e+01 -5.482406e+01  6.000000e+01
     vertex -5.259296e+00 -5.675685e+01  6.000000e+01
   endloop
 endfacet
 facet normal -1.650786e-01 -5.441912e-01  8.225601e-01
   outer loop
     vertex -9.754516e+00 -4.903926e+01  6.500000e+01
     vertex -1.913417e+01 -4.619398e+01  6.500000e+01
     vertex -1.559879e+01 -5.482406e+01  6.000000e+01
   endloop
 endfacet
 facet normal  4.018196e-16 -5.948378e-01  8.038457e-01
   outer loop
     vertex  1.240419e-13 -5.000000e+01  6.500000e+01
     vertex -5.259296e+00 -5.675685e+01  6.000000e+01
     vertex  5.259296e+00 -5.675685e+01  6.000000e+01
   endloop
 endfacet
 facet normal -5.570059e-02 -5.655375e-01  8.228394e-01
   outer loop
     vertex  1.240419e-13 -5.000000e+01  6.500000e+01
     vertex -9.754516e+00 -4.903926e+01  6.500000e+01
     vertex -5.259296e+00 -5.675685e+01  6.000000e+01
   endloop
 endfacet
 facet normal  1.092663e-01 -5.845231e-01  8.039861e-01
   outer loop
     vertex  9.754516e+00 -4.903926e+01  6.500000e+01
     vertex  5.259296e+00 -5.675685e+01  6.000000e+01
     vertex  1.559879e+01 -5.482406e+01  6.000000e+01
   endloop
 endfacet
 facet normal  5.570059e-02 -5.655375e-01  8.228394e-01
   outer loop
     vertex  9.754516e+00 -4.903926e+01  6.500000e+01
     vertex  1.240419e-13 -5.000000e+01  6.500000e+01
     vertex  5.259296e+00 -5.675685e+01  6.000000e+01
   endloop
 endfacet
 facet normal  2.146063e-01 -5.539628e-01  8.044062e-01
   outer loop
     vertex  1.913417e+01 -4.619398e+01  6.500000e+01
     vertex  1.559879e+01 -5.482406e+01  6.000000e+01
     vertex  2.540709e+01 -5.102431e+01  6.000000e+01
   endloop
 endfacet
 facet normal  1.650786e-01 -5.441912e-01  8.225601e-01
   outer loop
     vertex  1.913417e+01 -4.619398e+01  6.500000e+01
     vertex  9.754516e+00 -4.903926e+01  6.500000e+01
     vertex  1.559879e+01 -5.482406e+01  6.000000e+01
   endloop
 endfacet
 facet normal  3.122449e-01 -5.042928e-01  8.051037e-01
   outer loop
     vertex  2.777851e+01 -4.157348e+01  6.500000e+01
     vertex  2.540709e+01 -5.102431e+01  6.000000e+01
     vertex  3.435017e+01 -4.548698e+01  6.000000e+01
   endloop
 endfacet
 facet normal  2.684549e-01 -5.022437e-01  8.219995e-01
   outer loop
     vertex  2.777851e+01 -4.157348e+01  6.500000e+01
     vertex  1.913417e+01 -4.619398e+01  6.500000e+01
     vertex  2.540709e+01 -5.102431e+01  6.000000e+01
   endloop
 endfacet
 facet normal  3.987026e-01 -4.373559e-01  8.060745e-01
   outer loop
     vertex  3.535534e+01 -3.535534e+01  6.500000e+01
     vertex  3.435017e+01 -4.548698e+01  6.000000e+01
     vertex  4.212351e+01 -3.840065e+01  6.000000e+01
   endloop
 endfacet
 facet normal  3.620521e-01 -4.411618e-01  8.211544e-01
   outer loop
     vertex  3.535534e+01 -3.535534e+01  6.500000e+01
     vertex  2.777851e+01 -4.157348e+01  6.500000e+01
     vertex  3.435017e+01 -4.548698e+01  6.000000e+01
   endloop
 endfacet
 facet normal  4.709288e-01 -3.556289e-01  8.073129e-01
   outer loop
     vertex  4.157348e+01 -2.777851e+01  6.500000e+01
     vertex  4.212351e+01 -3.840065e+01  6.000000e+01
     vertex  4.846238e+01 -3.000663e+01  6.000000e+01
   endloop
 endfacet
 facet normal  4.424217e-01 -3.630861e-01  8.200192e-01
   outer loop
     vertex  4.157348e+01 -2.777851e+01  6.500000e+01
     vertex  3.535534e+01 -3.535534e+01  6.500000e+01
     vertex  4.212351e+01 -3.840065e+01  6.000000e+01
   endloop
 endfacet
 facet normal  5.264165e-01 -2.621243e-01  8.088118e-01
   outer loop
     vertex  4.619398e+01 -1.913417e+01  6.500000e+01
     vertex  4.846238e+01 -3.000663e+01  6.000000e+01
     vertex  5.315092e+01 -2.059077e+01  6.000000e+01
   endloop
 endfacet
 facet normal  5.065605e-01 -2.707622e-01  8.185868e-01
   outer loop
     vertex  4.619398e+01 -1.913417e+01  6.500000e+01
     vertex  4.157348e+01 -2.777851e+01  6.500000e+01
     vertex  4.846238e+01 -3.000663e+01  6.000000e+01
   endloop
 endfacet
 facet normal  5.632949e-01 -1.602712e-01  8.105627e-01
   outer loop
     vertex  4.903926e+01 -9.754516e+00  6.500000e+01
     vertex  5.315092e+01 -2.059077e+01  6.000000e+01
     vertex  5.602947e+01 -1.047372e+01  6.000000e+01
   endloop
 endfacet
 facet normal  5.520140e-01 -1.674516e-01  8.168479e-01
   outer loop
     vertex  4.903926e+01 -9.754516e+00  6.500000e+01
     vertex  4.619398e+01 -1.913417e+01  6.500000e+01
     vertex  5.315092e+01 -2.059077e+01  6.000000e+01
   endloop
 endfacet
 facet normal  5.769628e-01 -5.682587e-02  8.147912e-01
   outer loop
     vertex  5.000000e+01 -1.224647e-14  6.500000e+01
     vertex  4.903926e+01 -9.754516e+00  6.500000e+01
     vertex  5.602947e+01 -1.047372e+01  6.000000e+01
   endloop
 endfacet
 facet normal  5.803970e-01 -5.378170e-02  8.125558e-01
   outer loop
     vertex  5.000000e+01 -1.224647e-14  6.500000e+01
     vertex  5.602947e+01 -1.047372e+01  6.000000e+01
     vertex  5.700000e+01 -1.396097e-14  6.000000e+01
   endloop
 endfacet
 facet normal  5.803970e-01  5.378170e-02 -8.125558e-01
   outer loop
     vertex  5.602947e+01  1.047372e+01  7.000000e+01
     vertex  5.700000e+01 -1.396097e-14  7.000000e+01
     vertex  5.000000e+01 -1.224647e-14  6.500000e+01
   endloop
 endfacet
 facet normal  5.769628e-01  5.682587e-02 -8.147912e-01
   outer loop
     vertex  5.602947e+01  1.047372e+01  7.000000e+01
     vertex  5.000000e+01 -1.224647e-14  6.500000e+01
     vertex  4.903926e+01  9.754516e+00  6.500000e+01
   endloop
 endfacet
 facet normal  5.520140e-01  1.674516e-01 -8.168479e-01
   outer loop
     vertex  5.315092e+01  2.059077e+01  7.000000e+01
     vertex  4.903926e+01  9.754516e+00  6.500000e+01
     vertex  4.619398e+01  1.913417e+01  6.500000e+01
   endloop
 endfacet
 facet normal  5.632949e-01  1.602712e-01 -8.105627e-01
   outer loop
     vertex  5.315092e+01  2.059077e+01  7.000000e+01
     vertex  5.602947e+01  1.047372e+01  7.000000e+01
     vertex  4.903926e+01  9.754516e+00  6.500000e+01
   endloop
 endfacet
 facet normal  5.065605e-01  2.707622e-01 -8.185868e-01
   outer loop
     vertex  4.846238e+01  3.000663e+01  7.000000e+01
     vertex  4.619398e+01  1.913417e+01  6.500000e+01
     vertex  4.157348e+01  2.777851e+01  6.500000e+01
   endloop
 endfacet
 facet normal  5.264165e-01  2.621243e-01 -8.088118e-01
   outer loop
     vertex  4.846238e+01  3.000663e+01  7.000000e+01
     vertex  5.315092e+01  2.059077e+01  7.000000e+01
     vertex  4.619398e+01  1.913417e+01  6.500000e+01
   endloop
 endfacet
 facet normal  4.424217e-01  3.630861e-01 -8.200192e-01
   outer loop
     vertex  4.212351e+01  3.840065e+01  7.000000e+01
     vertex  4.157348e+01  2.777851e+01  6.500000e+01
     vertex  3.535534e+01  3.535534e+01  6.500000e+01
   endloop
 endfacet
 facet normal  4.709288e-01  3.556289e-01 -8.073129e-01
   outer loop
     vertex  4.212351e+01  3.840065e+01  7.000000e+01
     vertex  4.846238e+01  3.000663e+01  7.000000e+01
     vertex  4.157348e+01  2.777851e+01  6.500000e+01
   endloop
 endfacet
 facet normal  3.620521e-01  4.411618e-01 -8.211544e-01
   outer loop
     vertex  3.435017e+01  4.548698e+01  7.000000e+01
     vertex  3.535534e+01  3.535534e+01  6.500000e+01
     vertex  2.777851e+01  4.157348e+01  6.500000e+01
   endloop
 endfacet
 facet normal  3.987026e-01  4.373559e-01 -8.060745e-01
   outer loop
     vertex  3.435017e+01  4.548698e+01  7.000000e+01
     vertex  4.212351e+01  3.840065e+01  7.000000e+01
     vertex  3.535534e+01  3.535534e+01  6.500000e+01
   endloop
 endfacet
 facet normal  2.684549e-01  5.022437e-01 -8.219995e-01
   outer loop
     vertex  2.540709e+01  5.102431e+01  7.000000e+01
     vertex  2.777851e+01  4.157348e+01  6.500000e+01
     vertex  1.913417e+01  4.619398e+01  6.500000e+01
   endloop
 endfacet
 facet normal  3.122449e-01  5.042928e-01 -8.051037e-01
   outer loop
     vertex  2.540709e+01  5.102431e+01  7.000000e+01
     vertex  3.435017e+01  4.548698e+01  7.000000e+01
     vertex  2.777851e+01  4.157348e+01  6.500000e+01
   endloop
 endfacet
 facet normal  1.650786e-01  5.441912e-01 -8.225601e-01
   outer loop
     vertex  1.559879e+01  5.482406e+01  7.000000e+01
     vertex  1.913417e+01  4.619398e+01  6.500000e+01
     vertex  9.754516e+00  4.903926e+01  6.500000e+01
   endloop
 endfacet
 facet normal  2.146063e-01  5.539628e-01 -8.044062e-01
   outer loop
     vertex  1.559879e+01  5.482406e+01  7.000000e+01
     vertex  2.540709e+01  5.102431e+01  7.000000e+01
     vertex  1.913417e+01  4.619398e+01  6.500000e+01
   endloop
 endfacet
 facet normal  1.092663e-01  5.845231e-01 -8.039861e-01
   outer loop
     vertex  5.259296e+00  5.675685e+01  7.000000e+01
     vertex  1.559879e+01  5.482406e+01  7.000000e+01
     vertex  9.754516e+00  4.903926e+01  6.500000e+01
   endloop
 endfacet
 facet normal  5.570059e-02  5.655375e-01 -8.228394e-01
   outer loop
     vertex  5.259296e+00  5.675685e+01  7.000000e+01
     vertex  9.754516e+00  4.903926e+01  6.500000e+01
     vertex  3.061617e-15  5.000000e+01  6.500000e+01
   endloop
 endfacet
 facet normal  4.018196e-16  5.948378e-01 -8.038457e-01
   outer loop
     vertex -5.259296e+00  5.675685e+01  7.000000e+01
     vertex  5.259296e+00  5.675685e+01  7.000000e+01
     vertex  3.061617e-15  5.000000e+01  6.500000e+01
   endloop
 endfacet
 facet normal -5.570059e-02  5.655375e-01 -8.228394e-01
   outer loop
     vertex -5.259296e+00  5.675685e+01  7.000000e+01
     vertex  3.061617e-15  5.000000e+01  6.500000e+01
     vertex -9.754516e+00  4.903926e+01  6.500000e+01
   endloop
 endfacet
 facet normal -1.092663e-01  5.845231e-01 -8.039861e-01
   outer loop
     vertex -1.559879e+01  5.482406e+01  7.000000e+01
     vertex -5.259296e+00  5.675685e+01  7.000000e+01
     vertex -9.754516e+00  4.903926e+01  6.500000e+01
   endloop
 endfacet
 facet normal -1.650786e-01  5.441912e-01 -8.225601e-01
   outer loop
     vertex -1.559879e+01  5.482406e+01  7.000000e+01
     vertex -9.754516e+00  4.903926e+01  6.500000e+01
     vertex -1.913417e+01  4.619398e+01  6.500000e+01
   endloop
 endfacet
 facet normal -2.146063e-01  5.539628e-01 -8.044062e-01
   outer loop
     vertex -2.540709e+01  5.102431e+01  7.000000e+01
     vertex -1.559879e+01  5.482406e+01  7.000000e+01
     vertex -1.913417e+01  4.619398e+01  6.500000e+01
   endloop
 endfacet
 facet normal -2.684549e-01  5.022437e-01 -8.219995e-01
   outer loop
     vertex -2.540709e+01  5.102431e+01  7.000000e+01
     vertex -1.913417e+01  4.619398e+01  6.500000e+01
     vertex -2.777851e+01  4.157348e+01  6.500000e+01
   endloop
 endfacet
 facet normal -3.122449e-01  5.042928e-01 -8.051037e-01
   outer loop
     vertex -3.435017e+01  4.548698e+01  7.000000e+01
     vertex -2.540709e+01  5.102431e+01  7.000000e+01
     vertex -2.777851e+01  4.157348e+01  6.500000e+01
   endloop
 endfacet
 facet normal -3.620521e-01  4.411618e-01 -8.211544e-01
   outer loop
     vertex -3.435017e+01  4.548698e+01  7.000000e+01
     vertex -2.777851e+01  4.157348e+01  6.500000e+01
     vertex -3.535534e+01  3.535534e+01  6.500000e+01
   endloop
 endfacet
 facet normal -3.987026e-01  4.373559e-01 -8.060745e-01
   outer loop
     vertex -4.212351e+01  3.840065e+01  7.000000e+01
     vertex -3.435017e+01  4.548698e+01  7.000000e+01
     vertex -3.535534e+01  3.535534e+01  6.500000e+01
   endloop
 endfacet
 facet normal -4.424217e-01  3.630861e-01 -8.200192e-01
   outer loop
     vertex -4.212351e+01  3.840065e+01  7.000000e+01
     vertex -3.535534e+01  3.535534e+01  6.500000e+01
     vertex -4.157348e+01  2.777851e+01  6.500000e+01
   endloop
 endfacet
 facet normal -4.709288e-01  3.556289e-01 -8.073129e-01
   outer loop
     vertex -4.846238e+01  3.000663e+01  7.000000e+01
     vertex -4.212351e+01  3.840065e+01  7.000000e+01
     vertex -4.157348e+01  2.777851e+01  6.500000e+01
   endloop
 endfacet
 facet normal -5.065605e-01  2.707622e-01 -8.185868e-01
   outer loop
     vertex -4.619398e+01  1.913417e+01  6.500000e+01
     vertex -4.846238e+01  3.000663e+01  7.000000e+01
     vertex -4.157348e+01  2.777851e+01  6.500000e+01
   endloop
 endfacet
 facet normal -5.264165e-01  2.621243e-01 -8.088118e-01
   outer loop
     vertex -5.315092e+01  2.059077e+01  7.000000e+01
     vertex -4.846238e+01  3.000663e+01  7.000000e+01
     vertex -4.619398e+01  1.913417e+01  6.500000e+01
   endloop
 endfacet
 facet normal -5.520140e-01  1.674516e-01 -8.168479e-01
   outer loop
     vertex -4.903926e+01  9.754516e+00  6.500000e+01
     vertex -5.315092e+01  2.059077e+01  7.000000e+01
     vertex -4.619398e+01  1.913417e+01  6.500000e+01
   endloop
 endfacet
 facet normal -5.632949e-01  1.602712e-01 -8.105627e-01
   outer loop
     vertex -5.602947e+01  1.047372e+01  7.000000e+01
     vertex -5.315092e+01  2.059077e+01  7.000000e+01
     vertex -4.903926e+01  9.754516e+00  6.500000e+01
   endloop
 endfacet
 facet normal -5.769628e-01  5.682587e-02 -8.147912e-01
   outer loop
     vertex -5.000000e+01 -3.828569e-14  6.500000e+01
     vertex -5.602947e+01  1.047372e+01  7.000000e+01
     vertex -4.903926e+01  9.754516e+00  6.500000e+01
   endloop
 endfacet
 facet normal -5.803970e-01  5.378170e-02 -8.125558e-01
   outer loop
     vertex -5.700000e+01  5.760666e-14  7.000000e+01
     vertex -5.602947e+01  1.047372e+01  7.000000e+01
     vertex -5.000000e+01 -3.828569e-14  6.500000e+01
   endloop
 endfacet
 facet normal -5.803970e-01 -5.378170e-02 -8.125558e-01
   outer loop
     vertex -5.602947e+01 -1.047372e+01  7.000000e+01
     vertex -5.700000e+01  5.760666e-14  7.000000e+01
     vertex -5.000000e+01 -3.828569e-14  6.500000e+01
   endloop
 endfacet
 facet normal -5.769628e-01 -5.682587e-02 -8.147912e-01
   outer loop
     vertex -5.602947e+01 -1.047372e+01  7.000000e+01
     vertex -5.000000e+01 -3.828569e-14  6.500000e+01
     vertex -4.903926e+01 -9.754516e+00  6.500000e+01
   endloop
 endfacet
 facet normal -5.632949e-01 -1.602712e-01 -8.105627e-01
   outer loop
     vertex -5.315092e+01 -2.059077e+01  7.000000e+01
     vertex -5.602947e+01 -1.047372e+01  7.000000e+01
     vertex -4.903926e+01 -9.754516e+00  6.500000e+01
   endloop
 endfacet
 facet normal -5.520140e-01 -1.674516e-01 -8.168479e-01
   outer loop
     vertex -5.315092e+01 -2.059077e+01  7.000000e+01
     vertex -4.903926e+01 -9.754516e+00  6.500000e+01
     vertex -4.619398e+01 -1.913417e+01  6.500000e+01
   endloop
 endfacet
 facet normal -5.264165e-01 -2.621243e-01 -8.088118e-01
   outer loop
     vertex -4.846238e+01 -3.000663e+01  7.000000e+01
     vertex -5.315092e+01 -2.059077e+01  7.000000e+01
     vertex -4.619398e+01 -1.913417e+01  6.500000e+01
   endloop
 endfacet
 facet normal -5.065605e-01 -2.707622e-01 -8.185868e-01
   outer loop
     vertex -4.846238e+01 -3.000663e+01  7.000000e+01
     vertex -4.619398e+01 -1.913417e+01  6.500000e+01
     vertex -4.157348e+01 -2.777851e+01  6.500000e+01
   endloop
 endfacet
 facet normal -4.709288e-01 -3.556289e-01 -8.073129e-01
   outer loop
     vertex -4.212351e+01 -3.840065e+01  7.000000e+01
     vertex -4.846238e+01 -3.000663e+01  7.000000e+01
     vertex -4.157348e+01 -2.777851e+01  6.500000e+01
   endloop
 endfacet
 facet normal -4.424217e-01 -3.630861e-01 -8.200192e-01
   outer loop
     vertex -4.212351e+01 -3.840065e+01  7.000000e+01
     vertex -4.157348e+01 -2.777851e+01  6.500000e+01
     vertex -3.535534e+01 -3.535534e+01  6.500000e+01
   endloop
 endfacet
 facet normal -3.620521e-01 -4.411618e-01 -8.211544e-01
   outer loop
     vertex -3.435017e+01 -4.548698e+01  7.000000e+01
     vertex -3.535534e+01 -3.535534e+01  6.500000e+01
     vertex -2.777851e+01 -4.157348e+01  6.500000e+01
   endloop
 endfacet
 facet normal -3.987026e-01 -4.373559e-01 -8.060745e-01
   outer loop
     vertex -3.435017e+01 -4.548698e+01  7.000000e+01
     vertex -4.212351e+01 -3.840065e+01  7.000000e+01
     vertex -3.535534e+01 -3.535534e+01  6.500000e+01
   endloop
 endfacet
 facet normal -2.684549e-01 -5.022437e-01 -8.219995e-01
   outer loop
     vertex -2.540709e+01 -5.102431e+01  7.000000e+01
     vertex -2.777851e+01 -4.157348e+01  6.500000e+01
     vertex -1.913417e+01 -4.619398e+01  6.500000e+01
   endloop
 endfacet
 facet normal -3.122449e-01 -5.042928e-01 -8.051037e-01
   outer loop
     vertex -2.540709e+01 -5.102431e+01  7.000000e+01
     vertex -3.435017e+01 -4.548698e+01  7.000000e+01
     vertex -2.777851e+01 -4.157348e+01  6.500000e+01
   endloop
 endfacet
 facet normal -1.650786e-01 -5.441912e-01 -8.225601e-01
   outer loop
     vertex -1.559879e+01 -5.482406e+01  7.000000e+01
     vertex -1.913417e+01 -4.619398e+01  6.500000e+01
     vertex -9.754516e+00 -4.903926e+01  6.500000e+01
   endloop
 endfacet
 facet normal -2.146063e-01 -5.539628e-01 -8.044062e-01
   outer loop
     vertex -1.559879e+01 -5.482406e+01  7.000000e+01
     vertex -2.540709e+01 -5.102431e+01  7.000000e+01
     vertex -1.913417e+01 -4.619398e+01  6.500000e+01
   endloop
 endfacet
 facet normal -5.570059e-02 -5.655375e-01 -8.228394e-01
   outer loop
     vertex -5.259296e+00 -5.675685e+01  7.000000e+01
     vertex -9.754516e+00 -4.903926e+01  6.500000e+01
     vertex  1.240419e-13 -5.000000e+01  6.500000e+01
   endloop
 endfacet
 facet normal -1.092663e-01 -5.845231e-01 -8.039861e-01
   outer loop
     vertex -5.259296e+00 -5.675685e+01  7.000000e+01
     vertex -1.559879e+01 -5.482406e+01  7.000000e+01
     vertex -9.754516e+00 -4.903926e+01  6.500000e+01
   endloop
 endfacet
 facet normal  5.570059e-02 -5.655375e-01 -8.228394e-01
   outer loop
     vertex  5.259296e+00 -5.675685e+01  7.000000e+01
     vertex  1.240419e-13 -5.000000e+01  6.500000e+01
     vertex  9.754516e+00 -4.903926e+01  6.500000e+01
   endloop
 endfacet
 facet normal  4.018196e-16 -5.948378e-01 -8.038457e-01
   outer loop
     vertex  5.259296e+00 -5.675685e+01  7.000000e+01
     vertex -5.259296e+00 -5.675685e+01  7.000000e+01
     vertex  1.240419e-13 -5.000000e+01  6.500000e+01
   endloop
 endfacet
 facet normal  1.650786e-01 -5.441912e-01 -8.225601e-01
   outer loop
     vertex  1.559879e+01 -5.482406e+01  7.000000e+01
     vertex  9.754516e+00 -4.903926e+01  6.500000e+01
     vertex  1.913417e+01 -4.619398e+01  6.500000e+01
   endloop
 endfacet
 facet normal  1.092663e-01 -5.845231e-01 -8.039861e-01
   outer loop
     vertex  1.559879e+01 -5.482406e+01  7.000000e+01
     vertex  5.259296e+00 -5.675685e+01  7.000000e+01
     vertex  9.754516e+00 -4.903926e+01  6.500000e+01
   endloop
 endfacet
 facet normal  2.684549e-01 -5.022437e-01 -8.219995e-01
   outer loop
     vertex  2.540709e+01 -5.102431e+01  7.000000e+01
     vertex  1.913417e+01 -4.619398e+01  6.500000e+01
     vertex  2.777851e+01 -4.157348e+01  6.500000e+01
   endloop
 endfacet
 facet normal  2.146063e-01 -5.539628e-01 -8.044062e-01
   outer loop
     vertex  2.540709e+01 -5.102431e+01  7.000000e+01
     vertex  1.559879e+01 -5.482406e+01  7.000000e+01
     vertex  1.913417e+01 -4.619398e+01  6.500000e+01
   endloop
 endfacet
 facet normal  3.620521e-01 -4.411618e-01 -8.211544e-01
   outer loop
     vertex  3.435017e+01 -4.548698e+01  7.000000e+01
     vertex  2.777851e+01 -4.157348e+01  6.500000e+01
     vertex  3.535534e+01 -3.535534e+01  6.500000e+01
   endloop
 endfacet
 facet normal  3.122449e-01 -5.042928e-01 -8.051037e-01
   outer loop
     vertex  3.435017e+01 -4.548698e+01  7.000000e+01
     vertex  2.540709e+01 -5.102431e+01  7.000000e+01
     vertex  2.777851e+01 -4.157348e+01  6.500000e+01
   endloop
 endfacet
 facet normal  4.424217e-01 -3.630861e-01 -8.200192e-01
   outer loop
     vertex  4.212351e+01 -3.840065e+01  7.000000e+01
     vertex  3.535534e+01 -3.535534e+01  6.500000e+01
     vertex  4.157348e+01 -2.777851e+01  6.500000e+01
   endloop
 endfacet
 facet normal  3.987026e-01 -4.373559e-01 -8.060745e-01
   outer loop
     vertex  4.212351e+01 -3.840065e+01  7.000000e+01
     vertex  3.435017e+01 -4.548698e+01  7.000000e+01
     vertex  3.535534e+01 -3.535534e+01  6.500000e+01
   endloop
 endfacet
 facet normal  4.709288e-01 -3.556289e-01 -8.073129e-01
   outer loop
     vertex  4.846238e+01 -3.000663e+01  7.000000e+01
     vertex  4.212351e+01 -3.840065e+01  7.000000e+01
     vertex  4.157348e+01 -2.777851e+01  6.500000e+01
   endloop
 endfacet
 facet normal  5.065605e-01 -2.707622e-01 -8.185868e-01
   outer loop
     vertex  4.619398e+01 -1.913417e+01  6.500000e+01
     vertex  4.846238e+01 -3.000663e+01  7.000000e+01
     vertex  4.157348e+01 -2.777851e+01  6.500000e+01
   endloop
 endfacet
 facet normal  5.264165e-01 -2.621243e-01 -8.088118e-01
   outer loop
     vertex  5.315092e+01 -2.059077e+01  7.000000e+01
     vertex  4.846238e+01 -3.000663e+01  7.000000e+01
     vertex  4.619398e+01 -1.913417e+01  6.500000e+01
   endloop
 endfacet
 facet normal  5.520140e-01 -1.674516e-01 -8.168479e-01
   outer loop
     vertex  4.903926e+01 -9.754516e+00  6.500000e+01
     vertex  5.315092e+01 -2.059077e+01  7.000000e+01
     vertex  4.619398e+01 -1.913417e+01  6.500000e+01
   endloop
 endfacet
 facet normal  5.632949e-01 -1.602712e-01 -8.105627e-01
   outer loop
     vertex  5.602947e+01 -1.047372e+01  7.000000e+01
     vertex  5.315092e+01 -2.059077e+01  7.000000e+01
     vertex  4.903926e+01 -9.754516e+00  6.500000e+01
   endloop
 endfacet
 facet normal  5.769628e-01 -5.682587e-02 -8.147912e-01
   outer loop
     vertex  5.000000e+01 -1.224647e-14  6.500000e+01
     vertex  5.602947e+01 -1.047372e+01  7.000000e+01
     vertex  4.903926e+01 -9.754516e+00  6.500000e+01
   endloop
 endfacet
 facet normal  5.803970e-01 -5.378170e-02 -8.125558e-01
   outer loop
     vertex  5.700000e+01 -1.396097e-14  7.000000e+01
     vertex  5.602947e+01 -1.047372e+01  7.000000e+01
     vertex  5.000000e+01 -1.224647e-14  6.500000e+01
   endloop
 endfacet
 facet normal  0.000000e+00  0.000000e+00 -1.000000e+00
   outer loop
     vertex -2.245532e+00 -1.989368e+00  6.000000e+01
     vertex -4.212351e+01 -3.840065e+01  6.000000e+01
     vertex -4.846238e+01 -3.000663e+01  6.000000e+01
   endloop
 endfacet
 facet normal  0.000000e+00  0.000000e+00 -1.000000e+00
   outer loop
     vertex -2.245532e+00 -1.989368e+00  6.000000e+01
     vertex -3.435017e+01 -4.548698e+01  6.000000e+01
     vertex -4.212351e+01 -3.840065e+01  6.000000e+01
   endloop
 endfacet
 facet normal  0.000000e+00  0.000000e+00 -1.000000e+00
   outer loop
     vertex -1.704194e+00 -2.468952e+00  6.000000e+01
     vertex -2.540709e+01 -5.102431e+01  6.000000e+01
     vertex -3.435017e+01 -4.548698e+01  6.000000e+01
   endloop
 endfacet
 facet normal -0.000000e+00  0.000000e+00 -1.000000e+00
   outer loop
     vertex -1.704194e+00 -2.468952e+00  6.000000e+01
     vertex -3.435017e+01 -4.548698e+01  6.000000e+01
     vertex -2.245532e+00 -1.989368e+00  6.000000e+01
   endloop
 endfacet
 facet normal  0.000000e+00  0.000000e+00 -1.000000e+00
   outer loop
     vertex -2.656368e+00 -1.394170e+00  6.000000e+01
     vertex -4.846238e+01 -3.000663e+01  6.000000e+01
     vertex -5.315092e+01 -2.059077e+01  6.000000e+01
   endloop
 endfacet
 facet normal  0.000000e+00 -0.000000e+00 -1.000000e+00
   outer loop
     vertex -2.656368e+00 -1.394170e+00  6.000000e+01
     vertex -2.245532e+00 -1.989368e+00  6.000000e+01
     vertex -4.846238e+01 -3.000663e+01  6.000000e+01
   endloop
 endfacet
 facet normal  0.000000e+00  0.000000e+00 -1.000000e+00
   outer loop
     vertex -1.063815e+00 -2.805049e+00  6.000000e+01
     vertex -1.559879e+01 -5.482406e+01  6.000000e+01
     vertex -2.540709e+01 -5.102431e+01  6.000000e+01
   endloop
 endfacet
 facet normal -0.000000e+00  0.000000e+00 -1.000000e+00
   outer loop
     vertex -1.063815e+00 -2.805049e+00  6.000000e+01
     vertex -2.540709e+01 -5.102431e+01  6.000000e+01
     vertex -1.704194e+00 -2.468952e+00  6.000000e+01
   endloop
 endfacet
 facet normal  0.000000e+00 -0.000000e+00 -1.000000e+00
   outer loop
     vertex -2.912825e+00 -7.179470e-01  6.000000e+01
     vertex -2.656368e+00 -1.394170e+00  6.000000e+01
     vertex -5.315092e+01 -2.059077e+01  6.000000e+01
   endloop
 endfacet
 facet normal  0.000000e+00  0.000000e+00 -1.000000e+00
   outer loop
     vertex -2.912825e+00 -7.179470e-01  6.000000e+01
     vertex -5.315092e+01 -2.059077e+01  6.000000e+01
     vertex -5.602947e+01 -1.047372e+01  6.000000e+01
   endloop
 endfacet
 facet normal  0.000000e+00  0.000000e+00 -1.000000e+00
   outer loop
     vertex -3.616100e-01 -2.978127e+00  6.000000e+01
     vertex -5.259296e+00 -5.675685e+01  6.000000e+01
     vertex -1.559879e+01 -5.482406e+01  6.000000e+01
   endloop
 endfacet
 facet normal -0.000000e+00  0.000000e+00 -1.000000e+00
   outer loop
     vertex -3.616100e-01 -2.978127e+00  6.000000e+01
     vertex -1.559879e+01 -5.482406e+01  6.000000e+01
     vertex -1.063815e+00 -2.805049e+00  6.000000e+01
   endloop
 endfacet
 facet normal  0.000000e+00  0.000000e+00 -1.000000e+00
   outer loop
     vertex -3.000000e+00  3.031929e-15  6.000000e+01
     vertex -5.700000e+01  5.760666e-14  6.000000e+01
     vertex -5.602947e+01  1.047372e+01  6.000000e+01
   endloop
 endfacet
 facet normal -0.000000e+00  0.000000e+00 -1.000000e+00
   outer loop
     vertex -3.000000e+00  3.031929e-15  6.000000e+01
     vertex -5.602947e+01 -1.047372e+01  6.000000e+01
     vertex -5.700000e+01  5.760666e-14  6.000000e+01
   endloop
 endfacet
 facet normal  0.000000e+00 -0.000000e+00 -1.000000e+00
   outer loop
     vertex -3.000000e+00  3.031929e-15  6.000000e+01
     vertex -2.912825e+00 -7.179470e-01  6.000000e+01
     vertex -5.602947e+01 -1.047372e+01  6.000000e+01
   endloop
 endfacet
 facet normal  0.000000e+00 -0.000000e+00 -1.000000e+00
   outer loop
     vertex  3.616100e-01 -2.978127e+00  6.000000e+01
     vertex  5.259296e+00 -5.675685e+01  6.000000e+01
     vertex -5.259296e+00 -5.675685e+01  6.000000e+01
   endloop
 endfacet
 facet normal  0.000000e+00  0.000000e+00 -1.000000e+00
   outer loop
     vertex  3.616100e-01 -2.978127e+00  6.000000e+01
     vertex  1.559879e+01 -5.482406e+01  6.000000e+01
     vertex  5.259296e+00 -5.675685e+01  6.000000e+01
   endloop
 endfacet
 facet normal -0.000000e+00  0.000000e+00 -1.000000e+00
   outer loop
     vertex  3.616100e-01 -2.978127e+00  6.000000e+01
     vertex -5.259296e+00 -5.675685e+01  6.000000e+01
     vertex -3.616100e-01 -2.978127e+00  6.000000e+01
   endloop
 endfacet
 facet normal  0.000000e+00  0.000000e+00 -1.000000e+00
   outer loop
     vertex -2.912825e+00  7.179470e-01  6.000000e+01
     vertex -5.602947e+01  1.047372e+01  6.000000e+01
     vertex -5.315092e+01  2.059077e+01  6.000000e+01
   endloop
 endfacet
 facet normal -0.000000e+00  0.000000e+00 -1.000000e+00
   outer loop
     vertex -2.912825e+00  7.179470e-01  6.000000e+01
     vertex -3.000000e+00  3.031929e-15  6.000000e+01
     vertex -5.602947e+01  1.047372e+01  6.000000e+01
   endloop
 endfacet
 facet normal  0.000000e+00  0.000000e+00 -1.000000e+00
   outer loop
     vertex  1.063815e+00 -2.805049e+00  6.000000e+01
     vertex  2.540709e+01 -5.102431e+01  6.000000e+01
     vertex  1.559879e+01 -5.482406e+01  6.000000e+01
   endloop
 endfacet
 facet normal  0.000000e+00 -0.000000e+00 -1.000000e+00
   outer loop
     vertex  1.063815e+00 -2.805049e+00  6.000000e+01
     vertex  1.559879e+01 -5.482406e+01  6.000000e+01
     vertex  3.616100e-01 -2.978127e+00  6.000000e+01
   endloop
 endfacet
 facet normal  0.000000e+00  0.000000e+00 -1.000000e+00
   outer loop
     vertex -2.656368e+00  1.394170e+00  6.000000e+01
     vertex -5.315092e+01  2.059077e+01  6.000000e+01
     vertex -4.846238e+01  3.000663e+01  6.000000e+01
   endloop
 endfacet
 facet normal -0.000000e+00  0.000000e+00 -1.000000e+00
   outer loop
     vertex -2.656368e+00  1.394170e+00  6.000000e+01
     vertex -2.912825e+00  7.179470e-01  6.000000e+01
     vertex -5.315092e+01  2.059077e+01  6.000000e+01
   endloop
 endfacet
 facet normal  0.000000e+00 -0.000000e+00 -1.000000e+00
   outer loop
     vertex  1.704194e+00 -2.468952e+00  6.000000e+01
     vertex  2.540709e+01 -5.102431e+01  6.000000e+01
     vertex  1.063815e+00 -2.805049e+00  6.000000e+01
   endloop
 endfacet
 facet normal  0.000000e+00  0.000000e+00 -1.000000e+00
   outer loop
     vertex  1.704194e+00 -2.468952e+00  6.000000e+01
     vertex  3.435017e+01 -4.548698e+01  6.000000e+01
     vertex  2.540709e+01 -5.102431e+01  6.000000e+01
   endloop
 endfacet
 facet normal  0.000000e+00  0.000000e+00 -1.000000e+00
   outer loop
     vertex -2.245532e+00  1.989368e+00  6.000000e+01
     vertex -4.846238e+01  3.000663e+01  6.000000e+01
     vertex -4.212351e+01  3.840065e+01  6.000000e+01
   endloop
 endfacet
 facet normal -0.000000e+00  0.000000e+00 -1.000000e+00
   outer loop
     vertex -2.245532e+00  1.989368e+00  6.000000e+01
     vertex -2.656368e+00  1.394170e+00  6.000000e+01
     vertex -4.846238e+01  3.000663e+01  6.000000e+01
   endloop
 endfacet
 facet normal  0.000000e+00 -0.000000e+00 -1.000000e+00
   outer loop
     vertex  2.245532e+00 -1.989368e+00  6.000000e+01
     vertex  3.435017e+01 -4.548698e+01  6.000000e+01
     vertex  1.704194e+00 -2.468952e+00  6.000000e+01
   endloop
 endfacet
 facet normal -0.000000e+00  0.000000e+00 -1.000000e+00
   outer loop
     vertex  4.212351e+01 -3.840065e+01  6.000000e+01
     vertex  3.435017e+01 -4.548698e+01  6.000000e+01
     vertex  2.245532e+00 -1.989368e+00  6.000000e+01
   endloop
 endfacet
 facet normal  0.000000e+00  0.000000e+00 -1.000000e+00
   outer loop
     vertex -3.435017e+01  4.548698e+01  6.000000e+01
     vertex -1.704194e+00  2.468952e+00  6.000000e+01
     vertex -2.245532e+00  1.989368e+00  6.000000e+01
   endloop
 endfacet
 facet normal  0.000000e+00 -0.000000e+00 -1.000000e+00
   outer loop
     vertex -3.435017e+01  4.548698e+01  6.000000e+01
     vertex -2.245532e+00  1.989368e+00  6.000000e+01
     vertex -4.212351e+01  3.840065e+01  6.000000e+01
   endloop
 endfacet
 facet normal  0.000000e+00  0.000000e+00 -1.000000e+00
   outer loop
     vertex  4.846238e+01 -3.000663e+01  6.000000e+01
     vertex  2.245532e+00 -1.989368e+00  6.000000e+01
     vertex  2.656368e+00 -1.394170e+00  6.000000e+01
   endloop
 endfacet
 facet normal -0.000000e+00  0.000000e+00 -1.000000e+00
   outer loop
     vertex  4.846238e+01 -3.000663e+01  6.000000e+01
     vertex  4.212351e+01 -3.840065e+01  6.000000e+01
     vertex  2.245532e+00 -1.989368e+00  6.000000e+01
   endloop
 endfacet
 facet normal  0.000000e+00  0.000000e+00 -1.000000e+00
   outer loop
     vertex -2.540709e+01  5.102431e+01  6.000000e+01
     vertex -1.063815e+00  2.805049e+00  6.000000e+01
     vertex -1.704194e+00  2.468952e+00  6.000000e+01
   endloop
 endfacet
 facet normal  0.000000e+00 -0.000000e+00 -1.000000e+00
   outer loop
     vertex -2.540709e+01  5.102431e+01  6.000000e+01
     vertex -1.704194e+00  2.468952e+00  6.000000e+01
     vertex -3.435017e+01  4.548698e+01  6.000000e+01
   endloop
 endfacet
 facet normal -0.000000e+00  0.000000e+00 -1.000000e+00
   outer loop
     vertex  5.315092e+01 -2.059077e+01  6.000000e+01
     vertex  4.846238e+01 -3.000663e+01  6.000000e+01
     vertex  2.656368e+00 -1.394170e+00  6.000000e+01
   endloop
 endfacet
 facet normal  0.000000e+00  0.000000e+00 -1.000000e+00
   outer loop
     vertex  5.315092e+01 -2.059077e+01  6.000000e+01
     vertex  2.656368e+00 -1.394170e+00  6.000000e+01
     vertex  2.912825e+00 -7.179470e-01  6.000000e+01
   endloop
 endfacet
 facet normal  0.000000e+00  0.000000e+00 -1.000000e+00
   outer loop
     vertex -1.559879e+01  5.482406e+01  6.000000e+01
     vertex -3.616100e-01  2.978127e+00  6.000000e+01
     vertex -1.063815e+00  2.805049e+00  6.000000e+01
   endloop
 endfacet
 facet normal  0.000000e+00 -0.000000e+00 -1.000000e+00
   outer loop
     vertex -1.559879e+01  5.482406e+01  6.000000e+01
     vertex -1.063815e+00  2.805049e+00  6.000000e+01
     vertex -2.540709e+01  5.102431e+01  6.000000e+01
   endloop
 endfacet
 facet normal -0.000000e+00  0.000000e+00 -1.000000e+00
   outer loop
     vertex  5.602947e+01 -1.047372e+01  6.000000e+01
     vertex  5.315092e+01 -2.059077e+01  6.000000e+01
     vertex  2.912825e+00 -7.179470e-01  6.000000e+01
   endloop
 endfacet
 facet normal  0.000000e+00  0.000000e+00 -1.000000e+00
   outer loop
     vertex  5.602947e+01 -1.047372e+01  6.000000e+01
     vertex  2.912825e+00 -7.179470e-01  6.000000e+01
     vertex  3.000000e+00 -7.347881e-16  6.000000e+01
   endloop
 endfacet
 facet normal  0.000000e+00 -0.000000e+00 -1.000000e+00
   outer loop
     vertex -5.259296e+00  5.675685e+01  6.000000e+01
     vertex -3.616100e-01  2.978127e+00  6.000000e+01
     vertex -1.559879e+01  5.482406e+01  6.000000e+01
   endloop
 endfacet
 facet normal -0.000000e+00  0.000000e+00 -1.000000e+00
   outer loop
     vertex  5.700000e+01 -1.396097e-14  6.000000e+01
     vertex  5.602947e+01 -1.047372e+01  6.000000e+01
     vertex  3.000000e+00 -7.347881e-16  6.000000e+01
   endloop
 endfacet
 facet normal -0.000000e+00  0.000000e+00 -1.000000e+00
   outer loop
     vertex  5.259296e+00  5.675685e+01  6.000000e+01
     vertex -3.616100e-01  2.978127e+00  6.000000e+01
     vertex -5.259296e+00  5.675685e+01  6.000000e+01
   endloop
 endfacet
 facet normal  0.000000e+00  0.000000e+00 -1.000000e+00
   outer loop
     vertex  5.259296e+00  5.675685e+01  6.000000e+01
     vertex  3.616100e-01  2.978127e+00  6.000000e+01
     vertex -3.616100e-01  2.978127e+00  6.000000e+01
   endloop
 endfacet
 facet normal  0.000000e+00  0.000000e+00 -1.000000e+00
   outer loop
     vertex  5.602947e+01  1.047372e+01  6.000000e+01
     vertex  3.000000e+00 -7.347881e-16  6.000000e+01
     vertex  2.912825e+00  7.179470e-01  6.000000e+01
   endloop
 endfacet
 facet normal  0.000000e+00 -0.000000e+00 -1.000000e+00
   outer loop
     vertex  5.602947e+01  1.047372e+01  6.000000e+01
     vertex  5.700000e+01 -1.396097e-14  6.000000e+01
     vertex  3.000000e+00 -7.347881e-16  6.000000e+01
   endloop
 endfacet
 facet normal  0.000000e+00  0.000000e+00 -1.000000e+00
   outer loop
     vertex  1.559879e+01  5.482406e+01  6.000000e+01
     vertex  1.063815e+00  2.805049e+00  6.000000e+01
     vertex  3.616100e-01  2.978127e+00  6.000000e+01
   endloop
 endfacet
 facet normal -0.000000e+00  0.000000e+00 -1.000000e+00
   outer loop
     vertex  1.559879e+01  5.482406e+01  6.000000e+01
     vertex  3.616100e-01  2.978127e+00  6.000000e+01
     vertex  5.259296e+00  5.675685e+01  6.000000e+01
   endloop
 endfacet
 facet normal  0.000000e+00  0.000000e+00 -1.000000e+00
   outer loop
     vertex  5.315092e+01  2.059077e+01  6.000000e+01
     vertex  2.912825e+00  7.179470e-01  6.000000e+01
     vertex  2.656368e+00  1.394170e+00  6.000000e+01
   endloop
 endfacet
 facet normal  0.000000e+00 -0.000000e+00 -1.000000e+00
   outer loop
     vertex  5.315092e+01  2.059077e+01  6.000000e+01
     vertex  5.602947e+01  1.047372e+01  6.000000e+01
     vertex  2.912825e+00  7.179470e-01  6.000000e+01
   endloop
 endfacet
 facet normal -0.000000e+00  0.000000e+00 -1.000000e+00
   outer loop
     vertex  2.540709e+01  5.102431e+01  6.000000e+01
     vertex  1.063815e+00  2.805049e+00  6.000000e+01
     vertex  1.559879e+01  5.482406e+01  6.000000e+01
   endloop
 endfacet
 facet normal  0.000000e+00  0.000000e+00 -1.000000e+00
   outer loop
     vertex  2.540709e+01  5.102431e+01  6.000000e+01
     vertex  1.704194e+00  2.468952e+00  6.000000e+01
     vertex  1.063815e+00  2.805049e+00  6.000000e+01
   endloop
 endfacet
 facet normal  0.000000e+00  0.000000e+00 -1.000000e+00
   outer loop
     vertex  4.846238e+01  3.000663e+01  6.000000e+01
     vertex  2.656368e+00  1.394170e+00  6.000000e+01
     vertex  2.245532e+00  1.989368e+00  6.000000e+01
   endloop
 endfacet
 facet normal  0.000000e+00 -0.000000e+00 -1.000000e+00
   outer loop
     vertex  4.846238e+01  3.000663e+01  6.000000e+01
     vertex  5.315092e+01  2.059077e+01  6.000000e+01
     vertex  2.656368e+00  1.394170e+00  6.000000e+01
   endloop
 endfacet
 facet normal  0.000000e+00  0.000000e+00 -1.000000e+00
   outer loop
     vertex  3.435017e+01  4.548698e+01  6.000000e+01
     vertex  2.245532e+00  1.989368e+00  6.000000e+01
     vertex  1.704194e+00  2.468952e+00  6.000000e+01
   endloop
 endfacet
 facet normal -0.000000e+00  0.000000e+00 -1.000000e+00
   outer loop
     vertex  3.435017e+01  4.548698e+01  6.000000e+01
     vertex  1.704194e+00  2.468952e+00  6.000000e+01
     vertex  2.540709e+01  5.102431e+01  6.000000e+01
   endloop
 endfacet
 facet normal -0.000000e+00  0.000000e+00 -1.000000e+00
   outer loop
     vertex  4.212351e+01  3.840065e+01  6.000000e+01
     vertex  2.245532e+00  1.989368e+00  6.000000e+01
     vertex  3.435017e+01  4.548698e+01  6.000000e+01
   endloop
 endfacet
 facet normal  0.000000e+00 -0.000000e+00 -1.000000e+00
   outer loop
     vertex  4.212351e+01  3.840065e+01  6.000000e+01
     vertex  4.846238e+01  3.000663e+01  6.000000e+01
     vertex  2.245532e+00  1.989368e+00  6.000000e+01
   endloop
 endfacet
 facet normal  0.000000e+00  0.000000e+00  1.000000e+00
   outer loop
     vertex -2.245532e+00 -1.989368e+00  7.000000e+01
     vertex -4.846238e+01 -3.000663e+01  7.000000e+01
     vertex -4.212351e+01 -3.840065e+01  7.000000e+01
   endloop
 endfacet
 facet normal  0.000000e+00  0.000000e+00  1.000000e+00
   outer loop
     vertex -2.245532e+00 -1.989368e+00  7.000000e+01
     vertex -4.212351e+01 -3.840065e+01  7.000000e+01
     vertex -3.435017e+01 -4.548698e+01  7.000000e+01
   endloop
 endfacet
 facet normal  0.000000e+00  0.000000e+00  1.000000e+00
   outer loop
     vertex -1.704194e+00 -2.468952e+00  7.000000e+01
     vertex -3.435017e+01 -4.548698e+01  7.000000e+01
     vertex -2.540709e+01 -5.102431e+01  7.000000e+01
   endloop
 endfacet
 facet normal  0.000000e+00  0.000000e+00  1.000000e+00
   outer loop
     vertex -1.704194e+00 -2.468952e+00  7.000000e+01
     vertex -2.245532e+00 -1.989368e+00  7.000000e+01
     vertex -3.435017e+01 -4.548698e+01  7.000000e+01
   endloop
 endfacet
 facet normal  0.000000e+00  0.000000e+00  1.000000e+00
   outer loop
     vertex -2.656368e+00 -1.394170e+00  7.000000e+01
     vertex -5.315092e+01 -2.059077e+01  7.000000e+01
     vertex -4.846238e+01 -3.000663e+01  7.000000e+01
   endloop
 endfacet
 facet normal  0.000000e+00  0.000000e+00  1.000000e+00
   outer loop
     vertex -2.656368e+00 -1.394170e+00  7.000000e+01
     vertex -4.846238e+01 -3.000663e+01  7.000000e+01
     vertex -2.245532e+00 -1.989368e+00  7.000000e+01
   endloop
 endfacet
 facet normal  0.000000e+00  0.000000e+00  1.000000e+00
   outer loop
     vertex -1.063815e+00 -2.805049e+00  7.000000e+01
     vertex -2.540709e+01 -5.102431e+01  7.000000e+01
     vertex -1.559879e+01 -5.482406e+01  7.000000e+01
   endloop
 endfacet
 facet normal  0.000000e+00  0.000000e+00  1.000000e+00
   outer loop
     vertex -1.063815e+00 -2.805049e+00  7.000000e+01
     vertex -1.704194e+00 -2.468952e+00  7.000000e+01
     vertex -2.540709e+01 -5.102431e+01  7.000000e+01
   endloop
 endfacet
 facet normal  0.000000e+00  0.000000e+00  1.000000e+00
   outer loop
     vertex -2.912825e+00 -7.179470e-01  7.000000e+01
     vertex -5.315092e+01 -2.059077e+01  7.000000e+01
     vertex -2.656368e+00 -1.394170e+00  7.000000e+01
   endloop
 endfacet
 facet normal  0.000000e+00  0.000000e+00  1.000000e+00
   outer loop
     vertex -2.912825e+00 -7.179470e-01  7.000000e+01
     vertex -5.602947e+01 -1.047372e+01  7.000000e+01
     vertex -5.315092e+01 -2.059077e+01  7.000000e+01
   endloop
 endfacet
 facet normal  0.000000e+00  0.000000e+00  1.000000e+00
   outer loop
     vertex -3.616100e-01 -2.978127e+00  7.000000e+01
     vertex -1.559879e+01 -5.482406e+01  7.000000e+01
     vertex -5.259296e+00 -5.675685e+01  7.000000e+01
   endloop
 endfacet
 facet normal  0.000000e+00  0.000000e+00  1.000000e+00
   outer loop
     vertex -3.616100e-01 -2.978127e+00  7.000000e+01
     vertex -1.063815e+00 -2.805049e+00  7.000000e+01
     vertex -1.559879e+01 -5.482406e+01  7.000000e+01
   endloop
 endfacet
 facet normal  0.000000e+00  0.000000e+00  1.000000e+00
   outer loop
     vertex -3.000000e+00  3.031929e-15  7.000000e+01
     vertex -5.602947e+01  1.047372e+01  7.000000e+01
     vertex -5.700000e+01  5.760666e-14  7.000000e+01
   endloop
 endfacet
 facet normal  0.000000e+00  0.000000e+00  1.000000e+00
   outer loop
     vertex -3.000000e+00  3.031929e-15  7.000000e+01
     vertex -5.700000e+01  5.760666e-14  7.000000e+01
     vertex -5.602947e+01 -1.047372e+01  7.000000e+01
   endloop
 endfacet
 facet normal  0.000000e+00  0.000000e+00  1.000000e+00
   outer loop
     vertex -3.000000e+00  3.031929e-15  7.000000e+01
     vertex -5.602947e+01 -1.047372e+01  7.000000e+01
     vertex -2.912825e+00 -7.179470e-01  7.000000e+01
   endloop
 endfacet
 facet normal  0.000000e+00  0.000000e+00  1.000000e+00
   outer loop
     vertex  3.616100e-01 -2.978127e+00  7.000000e+01
     vertex -5.259296e+00 -5.675685e+01  7.000000e+01
     vertex  5.259296e+00 -5.675685e+01  7.000000e+01
   endloop
 endfacet
 facet normal  0.000000e+00  0.000000e+00  1.000000e+00
   outer loop
     vertex  3.616100e-01 -2.978127e+00  7.000000e+01
     vertex  5.259296e+00 -5.675685e+01  7.000000e+01
     vertex  1.559879e+01 -5.482406e+01  7.000000e+01
   endloop
 endfacet
 facet normal  0.000000e+00  0.000000e+00  1.000000e+00
   outer loop
     vertex  3.616100e-01 -2.978127e+00  7.000000e+01
     vertex -3.616100e-01 -2.978127e+00  7.000000e+01
     vertex -5.259296e+00 -5.675685e+01  7.000000e+01
   endloop
 endfacet
 facet normal  0.000000e+00  0.000000e+00  1.000000e+00
   outer loop
     vertex -2.912825e+00  7.179470e-01  7.000000e+01
     vertex -5.315092e+01  2.059077e+01  7.000000e+01
     vertex -5.602947e+01  1.047372e+01  7.000000e+01
   endloop
 endfacet
 facet normal  0.000000e+00  0.000000e+00  1.000000e+00
   outer loop
     vertex -2.912825e+00  7.179470e-01  7.000000e+01
     vertex -5.602947e+01  1.047372e+01  7.000000e+01
     vertex -3.000000e+00  3.031929e-15  7.000000e+01
   endloop
 endfacet
 facet normal  0.000000e+00  0.000000e+00  1.000000e+00
   outer loop
     vertex  1.063815e+00 -2.805049e+00  7.000000e+01
     vertex  1.559879e+01 -5.482406e+01  7.000000e+01
     vertex  2.540709e+01 -5.102431e+01  7.000000e+01
   endloop
 endfacet
 facet normal  0.000000e+00  0.000000e+00  1.000000e+00
   outer loop
     vertex  1.063815e+00 -2.805049e+00  7.000000e+01
     vertex  3.616100e-01 -2.978127e+00  7.000000e+01
     vertex  1.559879e+01 -5.482406e+01  7.000000e+01
   endloop
 endfacet
 facet normal  0.000000e+00  0.000000e+00  1.000000e+00
   outer loop
     vertex -2.656368e+00  1.394170e+00  7.000000e+01
     vertex -4.846238e+01  3.000663e+01  7.000000e+01
     vertex -5.315092e+01  2.059077e+01  7.000000e+01
   endloop
 endfacet
 facet normal  0.000000e+00  0.000000e+00  1.000000e+00
   outer loop
     vertex -2.656368e+00  1.394170e+00  7.000000e+01
     vertex -5.315092e+01  2.059077e+01  7.000000e+01
     vertex -2.912825e+00  7.179470e-01  7.000000e+01
   endloop
 endfacet
 facet normal  0.000000e+00  0.000000e+00  1.000000e+00
   outer loop
     vertex  1.704194e+00 -2.468952e+00  7.000000e+01
     vertex  1.063815e+00 -2.805049e+00  7.000000e+01
     vertex  2.540709e+01 -5.102431e+01  7.000000e+01
   endloop
 endfacet
 facet normal  0.000000e+00  0.000000e+00  1.000000e+00
   outer loop
     vertex  1.704194e+00 -2.468952e+00  7.000000e+01
     vertex  2.540709e+01 -5.102431e+01  7.000000e+01
     vertex  3.435017e+01 -4.548698e+01  7.000000e+01
   endloop
 endfacet
 facet normal  0.000000e+00  0.000000e+00  1.000000e+00
   outer loop
     vertex -2.245532e+00  1.989368e+00  7.000000e+01
     vertex -4.212351e+01  3.840065e+01  7.000000e+01
     vertex -4.846238e+01  3.000663e+01  7.000000e+01
   endloop
 endfacet
 facet normal  0.000000e+00  0.000000e+00  1.000000e+00
   outer loop
     vertex -2.245532e+00  1.989368e+00  7.000000e+01
     vertex -4.846238e+01  3.000663e+01  7.000000e+01
     vertex -2.656368e+00  1.394170e+00  7.000000e+01
   endloop
 endfacet
 facet normal  0.000000e+00  0.000000e+00  1.000000e+00
   outer loop
     vertex  2.245532e+00 -1.989368e+00  7.000000e+01
     vertex  1.704194e+00 -2.468952e+00  7.000000e+01
     vertex  3.435017e+01 -4.548698e+01  7.000000e+01
   endloop
 endfacet
 facet normal  0.000000e+00  0.000000e+00  1.000000e+00
   outer loop
     vertex  4.212351e+01 -3.840065e+01  7.000000e+01
     vertex  2.245532e+00 -1.989368e+00  7.000000e+01
     vertex  3.435017e+01 -4.548698e+01  7.000000e+01
   endloop
 endfacet
 facet normal  0.000000e+00  0.000000e+00  1.000000e+00
   outer loop
     vertex -3.435017e+01  4.548698e+01  7.000000e+01
     vertex -2.245532e+00  1.989368e+00  7.000000e+01
     vertex -1.704194e+00  2.468952e+00  7.000000e+01
   endloop
 endfacet
 facet normal  0.000000e+00  0.000000e+00  1.000000e+00
   outer loop
     vertex -3.435017e+01  4.548698e+01  7.000000e+01
     vertex -4.212351e+01  3.840065e+01  7.000000e+01
     vertex -2.245532e+00  1.989368e+00  7.000000e+01
   endloop
 endfacet
 facet normal  0.000000e+00  0.000000e+00  1.000000e+00
   outer loop
     vertex  4.846238e+01 -3.000663e+01  7.000000e+01
     vertex  2.656368e+00 -1.394170e+00  7.000000e+01
     vertex  2.245532e+00 -1.989368e+00  7.000000e+01
   endloop
 endfacet
 facet normal  0.000000e+00  0.000000e+00  1.000000e+00
   outer loop
     vertex  4.846238e+01 -3.000663e+01  7.000000e+01
     vertex  2.245532e+00 -1.989368e+00  7.000000e+01
     vertex  4.212351e+01 -3.840065e+01  7.000000e+01
   endloop
 endfacet
 facet normal  0.000000e+00  0.000000e+00  1.000000e+00
   outer loop
     vertex -2.540709e+01  5.102431e+01  7.000000e+01
     vertex -1.704194e+00  2.468952e+00  7.000000e+01
     vertex -1.063815e+00  2.805049e+00  7.000000e+01
   endloop
 endfacet
 facet normal  0.000000e+00  0.000000e+00  1.000000e+00
   outer loop
     vertex -2.540709e+01  5.102431e+01  7.000000e+01
     vertex -3.435017e+01  4.548698e+01  7.000000e+01
     vertex -1.704194e+00  2.468952e+00  7.000000e+01
   endloop
 endfacet
 facet normal  0.000000e+00  0.000000e+00  1.000000e+00
   outer loop
     vertex  5.315092e+01 -2.059077e+01  7.000000e+01
     vertex  2.656368e+00 -1.394170e+00  7.000000e+01
     vertex  4.846238e+01 -3.000663e+01  7.000000e+01
   endloop
 endfacet
 facet normal  0.000000e+00  0.000000e+00  1.000000e+00
   outer loop
     vertex  5.315092e+01 -2.059077e+01  7.000000e+01
     vertex  2.912825e+00 -7.179470e-01  7.000000e+01
     vertex  2.656368e+00 -1.394170e+00  7.000000e+01
   endloop
 endfacet
 facet normal  0.000000e+00  0.000000e+00  1.000000e+00
   outer loop
     vertex -1.559879e+01  5.482406e+01  7.000000e+01
     vertex -1.063815e+00  2.805049e+00  7.000000e+01
     vertex -3.616100e-01  2.978127e+00  7.000000e+01
   endloop
 endfacet
 facet normal  0.000000e+00  0.000000e+00  1.000000e+00
   outer loop
     vertex -1.559879e+01  5.482406e+01  7.000000e+01
     vertex -2.540709e+01  5.102431e+01  7.000000e+01
     vertex -1.063815e+00  2.805049e+00  7.000000e+01
   endloop
 endfacet
 facet normal  0.000000e+00  0.000000e+00  1.000000e+00
   outer loop
     vertex  5.602947e+01 -1.047372e+01  7.000000e+01
     vertex  2.912825e+00 -7.179470e-01  7.000000e+01
     vertex  5.315092e+01 -2.059077e+01  7.000000e+01
   endloop
 endfacet
 facet normal  0.000000e+00  0.000000e+00  1.000000e+00
   outer loop
     vertex  5.602947e+01 -1.047372e+01  7.000000e+01
     vertex  3.000000e+00 -7.347881e-16  7.000000e+01
     vertex  2.912825e+00 -7.179470e-01  7.000000e+01
   endloop
 endfacet
 facet normal  0.000000e+00  0.000000e+00  1.000000e+00
   outer loop
     vertex -5.259296e+00  5.675685e+01  7.000000e+01
     vertex -1.559879e+01  5.482406e+01  7.000000e+01
     vertex -3.616100e-01  2.978127e+00  7.000000e+01
   endloop
 endfacet
 facet normal  0.000000e+00  0.000000e+00  1.000000e+00
   outer loop
     vertex  5.700000e+01 -1.396097e-14  7.000000e+01
     vertex  3.000000e+00 -7.347881e-16  7.000000e+01
     vertex  5.602947e+01 -1.047372e+01  7.000000e+01
   endloop
 endfacet
 facet normal  0.000000e+00  0.000000e+00  1.000000e+00
   outer loop
     vertex  5.259296e+00  5.675685e+01  7.000000e+01
     vertex -5.259296e+00  5.675685e+01  7.000000e+01
     vertex -3.616100e-01  2.978127e+00  7.000000e+01
   endloop
 endfacet
 facet normal  0.000000e+00  0.000000e+00  1.000000e+00
   outer loop
     vertex  5.259296e+00  5.675685e+01  7.000000e+01
     vertex -3.616100e-01  2.978127e+00  7.000000e+01
     vertex  3.616100e-01  2.978127e+00  7.000000e+01
   endloop
 endfacet
 facet normal  0.000000e+00  0.000000e+00  1.000000e+00
   outer loop
     vertex  5.602947e+01  1.047372e+01  7.000000e+01
     vertex  2.912825e+00  7.179470e-01  7.000000e+01
     vertex  3.000000e+00 -7.347881e-16  7.000000e+01
   endloop
 endfacet
 facet normal  0.000000e+00  0.000000e+00  1.000000e+00
   outer loop
     vertex  5.602947e+01  1.047372e+01  7.000000e+01
     vertex  3.000000e+00 -7.347881e-16  7.000000e+01
     vertex  5.700000e+01 -1.396097e-14  7.000000e+01
   endloop
 endfacet
 facet normal  0.000000e+00  0.000000e+00  1.000000e+00
   outer loop
     vertex  1.559879e+01  5.482406e+01  7.000000e+01
     vertex  3.616100e-01  2.978127e+00  7.000000e+01
     vertex  1.063815e+00  2.805049e+00  7.000000e+01
   endloop
 endfacet
 facet normal  0.000000e+00  0.000000e+00  1.000000e+00
   outer loop
     vertex  1.559879e+01  5.482406e+01  7.000000e+01
     vertex  5.259296e+00  5.675685e+01  7.000000e+01
     vertex  3.616100e-01  2.978127e+00  7.000000e+01
   endloop
 endfacet
 facet normal  0.000000e+00  0.000000e+00  1.000000e+00
   outer loop
     vertex  5.315092e+01  2.059077e+01  7.000000e+01
     vertex  2.656368e+00  1.394170e+00  7.000000e+01
     vertex  2.912825e+00  7.179470e-01  7.000000e+01
   endloop
 endfacet
 facet normal  0.000000e+00  0.000000e+00  1.000000e+00
   outer loop
     vertex  5.315092e+01  2.059077e+01  7.000000e+01
     vertex  2.912825e+00  7.179470e-01  7.000000e+01
     vertex  5.602947e+01  1.047372e+01  7.000000e+01
   endloop
 endfacet
 facet normal  0.000000e+00  0.000000e+00  1.000000e+00
   outer loop
     vertex  2.540709e+01  5.102431e+01  7.000000e+01
     vertex  1.559879e+01  5.482406e+01  7.000000e+01
     vertex  1.063815e+00  2.805049e+00  7.000000e+01
   endloop
 endfacet
 facet normal  0.000000e+00  0.000000e+00  1.000000e+00
   outer loop
     vertex  2.540709e+01  5.102431e+01  7.000000e+01
     vertex  1.063815e+00  2.805049e+00  7.000000e+01
     vertex  1.704194e+00  2.468952e+00  7.000000e+01
   endloop
 endfacet
 facet normal  0.000000e+00  0.000000e+00  1.000000e+00
   outer loop
     vertex  4.846238e+01  3.000663e+01  7.000000e+01
     vertex  2.245532e+00  1.989368e+00  7.000000e+01
     vertex  2.656368e+00  1.394170e+00  7.000000e+01
   endloop
 endfacet
 facet normal  0.000000e+00  0.000000e+00  1.000000e+00
   outer loop
     vertex  4.846238e+01  3.000663e+01  7.000000e+01
     vertex  2.656368e+00  1.394170e+00  7.000000e+01
     vertex  5.315092e+01  2.059077e+01  7.000000e+01
   endloop
 endfacet
 facet normal  0.000000e+00  0.000000e+00  1.000000e+00
   outer loop
     vertex  3.435017e+01  4.548698e+01  7.000000e+01
     vertex  1.704194e+00  2.468952e+00  7.000000e+01
     vertex  2.245532e+00  1.989368e+00  7.000000e+01
   endloop
 endfacet
 facet normal  0.000000e+00  0.000000e+00  1.000000e+00
   outer loop
     vertex  3.435017e+01  4.548698e+01  7.000000e+01
     vertex  2.540709e+01  5.102431e+01  7.000000e+01
     vertex  1.704194e+00  2.468952e+00  7.000000e+01
   endloop
 endfacet
 facet normal  0.000000e+00  0.000000e+00  1.000000e+00
   outer loop
     vertex  4.212351e+01  3.840065e+01  7.000000e+01
     vertex  3.435017e+01  4.548698e+01  7.000000e+01
     vertex  2.245532e+00  1.989368e+00  7.000000e+01
   endloop
 endfacet
 facet normal  0.000000e+00  0.000000e+00  1.000000e+00
   outer loop
     vertex  4.212351e+01  3.840065e+01  7.000000e+01
     vertex  2.245532e+00  1.989368e+00  7.000000e+01
     vertex  4.846238e+01  3.000663e+01  7.000000e+01
   endloop
 endfacet
 facet normal -9.927089e-01 -1.205367e-01  0.000000e+00
   outer loop
     vertex  2.912825e+00  7.179470e-01  7.000000e+01
     vertex  3.000000e+00 -7.347881e-16  6.000000e+01
     vertex  3.000000e+00 -7.347881e-16  7.000000e+01
   endloop
 endfacet
 facet normal -9.927089e-01 -1.205367e-01 -0.000000e+00
   outer loop
     vertex  2.912825e+00  7.179470e-01  7.000000e+01
     vertex  2.912825e+00  7.179470e-01  6.000000e+01
     vertex  3.000000e+00 -7.347881e-16  6.000000e+01
   endloop
 endfacet
 facet normal -9.350162e-01 -3.546049e-01 -0.000000e+00
   outer loop
     vertex  2.656368e+00  1.394170e+00  7.000000e+01
     vertex  2.656368e+00  1.394170e+00  6.000000e+01
     vertex  2.912825e+00  7.179470e-01  6.000000e+01
   endloop
 endfacet
 facet normal -8.229839e-01 -5.680647e-01 -0.000000e+00
   outer loop
     vertex  2.656368e+00  1.394170e+00  7.000000e+01
     vertex  2.245532e+00  1.989368e+00  6.000000e+01
     vertex  2.656368e+00  1.394170e+00  6.000000e+01
   endloop
 endfacet
 facet normal -9.350162e-01 -3.546049e-01  0.000000e+00
   outer loop
     vertex  2.656368e+00  1.394170e+00  7.000000e+01
     vertex  2.912825e+00  7.179470e-01  6.000000e+01
     vertex  2.912825e+00  7.179470e-01  7.000000e+01
   endloop
 endfacet
 facet normal -8.229839e-01 -5.680647e-01 -0.000000e+00
   outer loop
     vertex  2.245532e+00  1.989368e+00  7.000000e+01
     vertex  2.245532e+00  1.989368e+00  6.000000e+01
     vertex  2.656368e+00  1.394170e+00  7.000000e+01
   endloop
 endfacet
 facet normal -6.631227e-01 -7.485107e-01 -0.000000e+00
   outer loop
     vertex  1.704194e+00  2.468952e+00  7.000000e+01
     vertex  1.704194e+00  2.468952e+00  6.000000e+01
     vertex  2.245532e+00  1.989368e+00  6.000000e+01
   endloop
 endfacet
 facet normal -6.631227e-01 -7.485107e-01  0.000000e+00
   outer loop
     vertex  1.704194e+00  2.468952e+00  7.000000e+01
     vertex  2.245532e+00  1.989368e+00  6.000000e+01
     vertex  2.245532e+00  1.989368e+00  7.000000e+01
   endloop
 endfacet
 facet normal -4.647232e-01 -8.854560e-01 -0.000000e+00
   outer loop
     vertex  1.063815e+00  2.805049e+00  7.000000e+01
     vertex  1.063815e+00  2.805049e+00  6.000000e+01
     vertex  1.704194e+00  2.468952e+00  6.000000e+01
   endloop
 endfacet
 facet normal -2.393157e-01 -9.709418e-01 -0.000000e+00
   outer loop
     vertex  1.063815e+00  2.805049e+00  7.000000e+01
     vertex  3.616100e-01  2.978127e+00  6.000000e+01
     vertex  1.063815e+00  2.805049e+00  6.000000e+01
   endloop
 endfacet
 facet normal -4.647232e-01 -8.854560e-01  0.000000e+00
   outer loop
     vertex  1.063815e+00  2.805049e+00  7.000000e+01
     vertex  1.704194e+00  2.468952e+00  6.000000e+01
     vertex  1.704194e+00  2.468952e+00  7.000000e+01
   endloop
 endfacet
 facet normal -2.393157e-01 -9.709418e-01 -0.000000e+00
   outer loop
     vertex  3.616100e-01  2.978127e+00  7.000000e+01
     vertex  3.616100e-01  2.978127e+00  6.000000e+01
     vertex  1.063815e+00  2.805049e+00  7.000000e+01
   endloop
 endfacet
 facet normal  0.000000e+00 -1.000000e+00  0.000000e+00
   outer loop
     vertex -3.616100e-01  2.978127e+00  7.000000e+01
     vertex -3.616100e-01  2.978127e+00  6.000000e+01
     vertex  3.616100e-01  2.978127e+00  6.000000e+01
   endloop
 endfacet
 facet normal  0.000000e+00 -1.000000e+00  0.000000e+00
   outer loop
     vertex -3.616100e-01  2.978127e+00  7.000000e+01
     vertex  3.616100e-01  2.978127e+00  6.000000e+01
     vertex  3.616100e-01  2.978127e+00  7.000000e+01
   endloop
 endfacet
 facet normal  2.393157e-01 -9.709418e-01  0.000000e+00
   outer loop
     vertex -1.063815e+00  2.805049e+00  7.000000e+01
     vertex -1.063815e+00  2.805049e+00  6.000000e+01
     vertex -3.616100e-01  2.978127e+00  6.000000e+01
   endloop
 endfacet
 facet normal  2.393157e-01 -9.709418e-01  0.000000e+00
   outer loop
     vertex -1.063815e+00  2.805049e+00  7.000000e+01
     vertex -3.616100e-01  2.978127e+00  6.000000e+01
     vertex -3.616100e-01  2.978127e+00  7.000000e+01
   endloop
 endfacet
 facet normal  4.647232e-01 -8.854560e-01  0.000000e+00
   outer loop
     vertex -1.704194e+00  2.468952e+00  7.000000e+01
     vertex -1.704194e+00  2.468952e+00  6.000000e+01
     vertex -1.063815e+00  2.805049e+00  6.000000e+01
   endloop
 endfacet
 facet normal  4.647232e-01 -8.854560e-01  0.000000e+00
   outer loop
     vertex -1.704194e+00  2.468952e+00  7.000000e+01
     vertex -1.063815e+00  2.805049e+00  6.000000e+01
     vertex -1.063815e+00  2.805049e+00  7.000000e+01
   endloop
 endfacet
 facet normal  6.631227e-01 -7.485107e-01  0.000000e+00
   outer loop
     vertex -2.245532e+00  1.989368e+00  7.000000e+01
     vertex -2.245532e+00  1.989368e+00  6.000000e+01
     vertex -1.704194e+00  2.468952e+00  6.000000e+01
   endloop
 endfacet
 facet normal  8.229839e-01 -5.680647e-01  0.000000e+00
   outer loop
     vertex -2.245532e+00  1.989368e+00  7.000000e+01
     vertex -2.656368e+00  1.394170e+00  6.000000e+01
     vertex -2.245532e+00  1.989368e+00  6.000000e+01
   endloop
 endfacet
 facet normal  6.631227e-01 -7.485107e-01  0.000000e+00
   outer loop
     vertex -2.245532e+00  1.989368e+00  7.000000e+01
     vertex -1.704194e+00  2.468952e+00  6.000000e+01
     vertex -1.704194e+00  2.468952e+00  7.000000e+01
   endloop
 endfacet
 facet normal  8.229839e-01 -5.680647e-01  0.000000e+00
   outer loop
     vertex -2.656368e+00  1.394170e+00  7.000000e+01
     vertex -2.656368e+00  1.394170e+00  6.000000e+01
     vertex -2.245532e+00  1.989368e+00  7.000000e+01
   endloop
 endfacet
 facet normal  9.350162e-01 -3.546049e-01  0.000000e+00
   outer loop
     vertex -2.656368e+00  1.394170e+00  7.000000e+01
     vertex -2.912825e+00  7.179470e-01  6.000000e+01
     vertex -2.656368e+00  1.394170e+00  6.000000e+01
   endloop
 endfacet
 facet normal  9.350162e-01 -3.546049e-01  0.000000e+00
   outer loop
     vertex -2.912825e+00  7.179470e-01  7.000000e+01
     vertex -2.912825e+00  7.179470e-01  6.000000e+01
     vertex -2.656368e+00  1.394170e+00  7.000000e+01
   endloop
 endfacet
 facet normal  9.927089e-01 -1.205367e-01  0.000000e+00
   outer loop
     vertex -3.000000e+00  3.031929e-15  7.000000e+01
     vertex -2.912825e+00  7.179470e-01  6.000000e+01
     vertex -2.912825e+00  7.179470e-01  7.000000e+01
   endloop
 endfacet
 facet normal  9.927089e-01 -1.205367e-01  0.000000e+00
   outer loop
     vertex -3.000000e+00  3.031929e-15  7.000000e+01
     vertex -3.000000e+00  3.031929e-15  6.000000e+01
     vertex -2.912825e+00  7.179470e-01  6.000000e+01
   endloop
 endfacet
 facet normal  9.927089e-01  1.205367e-01  0.000000e+00
   outer loop
     vertex -3.000000e+00  3.031929e-15  7.000000e+01
     vertex -2.912825e+00 -7.179470e-01  6.000000e+01
     vertex -3.000000e+00  3.031929e-15  6.000000e+01
   endloop
 endfacet
 facet normal  9.927089e-01  1.205367e-01  0.000000e+00
   outer loop
     vertex -2.912825e+00 -7.179470e-01  7.000000e+01
     vertex -2.912825e+00 -7.179470e-01  6.000000e+01
     vertex -3.000000e+00  3.031929e-15  7.000000e+01
   endloop
 endfacet
 facet normal  9.350162e-01  3.546049e-01  0.000000e+00
   outer loop
     vertex -2.912825e+00 -7.179470e-01  7.000000e+01
     vertex -2.656368e+00 -1.394170e+00  6.000000e+01
     vertex -2.912825e+00 -7.179470e-01  6.000000e+01
   endloop
 endfacet
 facet normal  9.350162e-01  3.546049e-01  0.000000e+00
   outer loop
     vertex -2.656368e+00 -1.394170e+00  7.000000e+01
     vertex -2.656368e+00 -1.394170e+00  6.000000e+01
     vertex -2.912825e+00 -7.179470e-01  7.000000e+01
   endloop
 endfacet
 facet normal  8.229839e-01  5.680647e-01  0.000000e+00
   outer loop
     vertex -2.245532e+00 -1.989368e+00  7.000000e+01
     vertex -2.656368e+00 -1.394170e+00  6.000000e+01
     vertex -2.656368e+00 -1.394170e+00  7.000000e+01
   endloop
 endfacet
 facet normal  8.229839e-01  5.680647e-01  0.000000e+00
   outer loop
     vertex -2.245532e+00 -1.989368e+00  7.000000e+01
     vertex -2.245532e+00 -1.989368e+00  6.000000e+01
     vertex -2.656368e+00 -1.394170e+00  6.000000e+01
   endloop
 endfacet
 facet normal  6.631227e-01  7.485107e-01  0.000000e+00
   outer loop
     vertex -1.704194e+00 -2.468952e+00  7.000000e+01
     vertex -2.245532e+00 -1.989368e+00  6.000000e+01
     vertex -2.245532e+00 -1.989368e+00  7.000000e+01
   endloop
 endfacet
 facet normal  6.631227e-01  7.485107e-01  0.000000e+00
   outer loop
     vertex -1.704194e+00 -2.468952e+00  7.000000e+01
     vertex -1.704194e+00 -2.468952e+00  6.000000e+01
     vertex -2.245532e+00 -1.989368e+00  6.000000e+01
   endloop
 endfacet
 facet normal  4.647232e-01  8.854560e-01  0.000000e+00
   outer loop
     vertex -1.063815e+00 -2.805049e+00  7.000000e+01
     vertex -1.704194e+00 -2.468952e+00  6.000000e+01
     vertex -1.704194e+00 -2.468952e+00  7.000000e+01
   endloop
 endfacet
 facet normal  4.647232e-01  8.854560e-01  0.000000e+00
   outer loop
     vertex -1.063815e+00 -2.805049e+00  7.000000e+01
     vertex -1.063815e+00 -2.805049e+00  6.000000e+01
     vertex -1.704194e+00 -2.468952e+00  6.000000e+01
   endloop
 endfacet
 facet normal  2.393157e-01  9.709418e-01  0.000000e+00
   outer loop
     vertex -3.616100e-01 -2.978127e+00  7.000000e+01
     vertex -1.063815e+00 -2.805049e+00  6.000000e+01
     vertex -1.063815e+00 -2.805049e+00  7.000000e+01
   endloop
 endfacet
 facet normal  2.393157e-01  9.709418e-01  0.000000e+00
   outer loop
     vertex -3.616100e-01 -2.978127e+00  7.000000e+01
     vertex -3.616100e-01 -2.978127e+00  6.000000e+01
     vertex -1.063815e+00 -2.805049e+00  6.000000e+01
   endloop
 endfacet
 facet normal  2.456177e-15  1.000000e+00  0.000000e+00
   outer loop
     vertex -3.616100e-01 -2.978127e+00  7.000000e+01
     vertex  3.616100e-01 -2.978127e+00  6.000000e+01
     vertex -3.616100e-01 -2.978127e+00  6.000000e+01
   endloop
 endfacet
 facet normal  2.456177e-15  1.000000e+00  0.000000e+00
   outer loop
     vertex  3.616100e-01 -2.978127e+00  7.000000e+01
     vertex  3.616100e-01 -2.978127e+00  6.000000e+01
     vertex -3.616100e-01 -2.978127e+00  7.000000e+01
   endloop
 endfacet
 facet normal -2.393157e-01  9.709418e-01  0.000000e+00
   outer loop
     vertex  1.063815e+00 -2.805049e+00  7.000000e+01
     vertex  3.616100e-01 -2.978127e+00  6.000000e+01
     vertex  3.616100e-01 -2.978127e+00  7.000000e+01
   endloop
 endfacet
 facet normal -2.393157e-01  9.709418e-01  0.000000e+00
   outer loop
     vertex  1.063815e+00 -2.805049e+00  7.000000e+01
     vertex  1.063815e+00 -2.805049e+00  6.000000e+01
     vertex  3.616100e-01 -2.978127e+00  6.000000e+01
   endloop
 endfacet
 facet normal -4.647232e-01  8.854560e-01  0.000000e+00
   outer loop
     vertex  1.704194e+00 -2.468952e+00  7.000000e+01
     vertex  1.063815e+00 -2.805049e+00  6.000000e+01
     vertex  1.063815e+00 -2.805049e+00  7.000000e+01
   endloop
 endfacet
 facet normal -4.647232e-01  8.854560e-01  0.000000e+00
   outer loop
     vertex  1.704194e+00 -2.468952e+00  7.000000e+01
     vertex  1.704194e+00 -2.468952e+00  6.000000e+01
     vertex  1.063815e+00 -2.805049e+00  6.000000e+01
   endloop
 endfacet
 facet normal -6.631227e-01  7.485107e-01  0.000000e+00
   outer loop
     vertex  1.704194e+00 -2.468952e+00  7.000000e+01
     vertex  2.245532e+00 -1.989368e+00  6.000000e+01
     vertex  1.704194e+00 -2.468952e+00  6.000000e+01
   endloop
 endfacet
 facet normal -6.631227e-01  7.485107e-01  0.000000e+00
   outer loop
     vertex  2.245532e+00 -1.989368e+00  7.000000e+01
     vertex  2.245532e+00 -1.989368e+00  6.000000e+01
     vertex  1.704194e+00 -2.468952e+00  7.000000e+01
   endloop
 endfacet
 facet normal -8.229839e-01  5.680647e-01  0.000000e+00
   outer loop
     vertex  2.245532e+00 -1.989368e+00  7.000000e+01
     vertex  2.656368e+00 -1.394170e+00  6.000000e+01
     vertex  2.245532e+00 -1.989368e+00  6.000000e+01
   endloop
 endfacet
 facet normal -8.229839e-01  5.680647e-01  0.000000e+00
   outer loop
     vertex  2.656368e+00 -1.394170e+00  7.000000e+01
     vertex  2.656368e+00 -1.394170e+00  6.000000e+01
     vertex  2.245532e+00 -1.989368e+00  7.000000e+01
   endloop
 endfacet
 facet normal -9.350162e-01  3.546049e-01  0.000000e+00
   outer loop
     vertex  2.912825e+00 -7.179470e-01  7.000000e+01
     vertex  2.912825e+00 -7.179470e-01  6.000000e+01
     vertex  2.656368e+00 -1.394170e+00  6.000000e+01
   endloop
 endfacet
 facet normal -9.927089e-01  1.205367e-01  0.000000e+00
   outer loop
     vertex  2.912825e+00 -7.179470e-01  7.000000e+01
     vertex  3.000000e+00 -7.347881e-16  6.000000e+01
     vertex  2.912825e+00 -7.179470e-01  6.000000e+01
   endloop
 endfacet
 facet normal -9.350162e-01  3.546049e-01  0.000000e+00
   outer loop
     vertex  2.912825e+00 -7.179470e-01  7.000000e+01
     vertex  2.656368e+00 -1.394170e+00  6.000000e+01
     vertex  2.656368e+00 -1.394170e+00  7.000000e+01
   endloop
 endfacet
 facet normal -9.927089e-01  1.205367e-01  0.000000e+00
   outer loop
     vertex  3.000000e+00 -7.347881e-16  7.000000e+01
     vertex  3.000000e+00 -7.347881e-16  6.000000e+01
     vertex  2.912825e+00 -7.179470e-01  7.000000e+01
   endloop
 endfacet
endsolid
