solid 
 facet normal  9.967573e-01  8.046657e-02  0.000000e+00
   outer loop
     vertex  7.402877e+01  1.203085e+01  1.000000e+00
     vertex  7.500000e+01 -1.836970e-14  1.000000e+00
     vertex  7.500000e+01 -1.836970e-14  0.000000e+00
   endloop
 endfacet
 facet normal  9.967573e-01  8.046657e-02  0.000000e+00
   outer loop
     vertex  7.402877e+01  1.203085e+01  1.000000e+00
     vertex  7.500000e+01 -1.836970e-14  0.000000e+00
     vertex  7.402877e+01  1.203085e+01  0.000000e+00
   endloop
 endfacet
 facet normal  9.709418e-01  2.393157e-01  0.000000e+00
   outer loop
     vertex  7.114023e+01  2.375010e+01  1.000000e+00
     vertex  7.402877e+01  1.203085e+01  0.000000e+00
     vertex  7.114023e+01  2.375010e+01  0.000000e+00
   endloop
 endfacet
 facet normal  9.709418e-01  2.393157e-01  0.000000e+00
   outer loop
     vertex  7.114023e+01  2.375010e+01  1.000000e+00
     vertex  7.402877e+01  1.203085e+01  1.000000e+00
     vertex  7.402877e+01  1.203085e+01  0.000000e+00
   endloop
 endfacet
 facet normal  9.199794e-01  3.919666e-01  0.000000e+00
   outer loop
     vertex  6.640920e+01  3.485424e+01  1.000000e+00
     vertex  7.114023e+01  2.375010e+01  0.000000e+00
     vertex  6.640920e+01  3.485424e+01  0.000000e+00
   endloop
 endfacet
 facet normal  9.199794e-01  3.919666e-01  0.000000e+00
   outer loop
     vertex  6.640920e+01  3.485424e+01  1.000000e+00
     vertex  7.114023e+01  2.375010e+01  1.000000e+00
     vertex  7.114023e+01  2.375010e+01  0.000000e+00
   endloop
 endfacet
 facet normal  8.451901e-01  5.344658e-01  0.000000e+00
   outer loop
     vertex  5.995821e+01  4.505567e+01  1.000000e+00
     vertex  6.640920e+01  3.485424e+01  0.000000e+00
     vertex  5.995821e+01  4.505567e+01  0.000000e+00
   endloop
 endfacet
 facet normal  7.485107e-01  6.631227e-01  0.000000e+00
   outer loop
     vertex  5.995821e+01  4.505567e+01  1.000000e+00
     vertex  5.995821e+01  4.505567e+01  0.000000e+00
     vertex  5.195433e+01  5.409018e+01  0.000000e+00
   endloop
 endfacet
 facet normal  8.451901e-01  5.344658e-01  0.000000e+00
   outer loop
     vertex  5.995821e+01  4.505567e+01  1.000000e+00
     vertex  6.640920e+01  3.485424e+01  1.000000e+00
     vertex  6.640920e+01  3.485424e+01  0.000000e+00
   endloop
 endfacet
 facet normal  7.485107e-01  6.631227e-01  0.000000e+00
   outer loop
     vertex  5.195433e+01  5.409018e+01  1.000000e+00
     vertex  5.995821e+01  4.505567e+01  1.000000e+00
     vertex  5.195433e+01  5.409018e+01  0.000000e+00
   endloop
 endfacet
 facet normal  6.324454e-01  7.746050e-01  0.000000e+00
   outer loop
     vertex  4.260486e+01  6.172379e+01  1.000000e+00
     vertex  5.195433e+01  5.409018e+01  1.000000e+00
     vertex  5.195433e+01  5.409018e+01  0.000000e+00
   endloop
 endfacet
 facet normal  6.324454e-01  7.746050e-01  0.000000e+00
   outer loop
     vertex  4.260486e+01  6.172379e+01  1.000000e+00
     vertex  5.195433e+01  5.409018e+01  0.000000e+00
     vertex  4.260486e+01  6.172379e+01  0.000000e+00
   endloop
 endfacet
 facet normal  5.000000e-01  8.660254e-01  0.000000e+00
   outer loop
     vertex  3.215194e+01  6.775878e+01  1.000000e+00
     vertex  4.260486e+01  6.172379e+01  1.000000e+00
     vertex  4.260486e+01  6.172379e+01  0.000000e+00
   endloop
 endfacet
 facet normal  5.000000e-01  8.660254e-01  0.000000e+00
   outer loop
     vertex  3.215194e+01  6.775878e+01  1.000000e+00
     vertex  4.260486e+01  6.172379e+01  0.000000e+00
     vertex  3.215194e+01  6.775878e+01  0.000000e+00
   endloop
 endfacet
 facet normal  3.546049e-01  9.350162e-01  0.000000e+00
   outer loop
     vertex  2.086631e+01  7.203886e+01  1.000000e+00
     vertex  3.215194e+01  6.775878e+01  1.000000e+00
     vertex  3.215194e+01  6.775878e+01  0.000000e+00
   endloop
 endfacet
 facet normal  3.546049e-01  9.350162e-01  0.000000e+00
   outer loop
     vertex  2.086631e+01  7.203886e+01  1.000000e+00
     vertex  3.215194e+01  6.775878e+01  0.000000e+00
     vertex  2.086631e+01  7.203886e+01  0.000000e+00
   endloop
 endfacet
 facet normal  2.000257e-01  9.797907e-01  0.000000e+00
   outer loop
     vertex  9.040251e+00  7.445317e+01  1.000000e+00
     vertex  2.086631e+01  7.203886e+01  1.000000e+00
     vertex  2.086631e+01  7.203886e+01  0.000000e+00
   endloop
 endfacet
 facet normal  2.000257e-01  9.797907e-01  0.000000e+00
   outer loop
     vertex  9.040251e+00  7.445317e+01  1.000000e+00
     vertex  2.086631e+01  7.203886e+01  0.000000e+00
     vertex  9.040251e+00  7.445317e+01  0.000000e+00
   endloop
 endfacet
 facet normal  4.026594e-02  9.991890e-01  0.000000e+00
   outer loop
     vertex -3.019946e+00  7.493917e+01  1.000000e+00
     vertex  9.040251e+00  7.445317e+01  1.000000e+00
     vertex  9.040251e+00  7.445317e+01  0.000000e+00
   endloop
 endfacet
 facet normal  4.026594e-02  9.991890e-01  0.000000e+00
   outer loop
     vertex -3.019946e+00  7.493917e+01  1.000000e+00
     vertex  9.040251e+00  7.445317e+01  0.000000e+00
     vertex -3.019946e+00  7.493917e+01  0.000000e+00
   endloop
 endfacet
 facet normal -1.205367e-01  9.927089e-01  0.000000e+00
   outer loop
     vertex -1.500193e+01  7.348430e+01  1.000000e+00
     vertex -3.019946e+00  7.493917e+01  1.000000e+00
     vertex -3.019946e+00  7.493917e+01  0.000000e+00
   endloop
 endfacet
 facet normal -1.205367e-01  9.927089e-01  0.000000e+00
   outer loop
     vertex -1.500193e+01  7.348430e+01  1.000000e+00
     vertex -3.019946e+00  7.493917e+01  0.000000e+00
     vertex -1.500193e+01  7.348430e+01  0.000000e+00
   endloop
 endfacet
 facet normal -2.782175e-01  9.605181e-01  0.000000e+00
   outer loop
     vertex -2.659537e+01  7.012622e+01  1.000000e+00
     vertex -1.500193e+01  7.348430e+01  1.000000e+00
     vertex -1.500193e+01  7.348430e+01  0.000000e+00
   endloop
 endfacet
 facet normal -2.782175e-01  9.605181e-01  0.000000e+00
   outer loop
     vertex -2.659537e+01  7.012622e+01  1.000000e+00
     vertex -1.500193e+01  7.348430e+01  0.000000e+00
     vertex -2.659537e+01  7.012622e+01  0.000000e+00
   endloop
 endfacet
 facet normal -4.286926e-01  9.034504e-01  0.000000e+00
   outer loop
     vertex -3.750000e+01  6.495191e+01  1.000000e+00
     vertex -2.659537e+01  7.012622e+01  1.000000e+00
     vertex -2.659537e+01  7.012622e+01  0.000000e+00
   endloop
 endfacet
 facet normal -4.286926e-01  9.034504e-01  0.000000e+00
   outer loop
     vertex -3.750000e+01  6.495191e+01  1.000000e+00
     vertex -2.659537e+01  7.012622e+01  0.000000e+00
     vertex -3.750000e+01  6.495191e+01  0.000000e+00
   endloop
 endfacet
 facet normal -5.680647e-01  8.229839e-01  0.000000e+00
   outer loop
     vertex -4.743340e+01  5.809537e+01  1.000000e+00
     vertex -3.750000e+01  6.495191e+01  1.000000e+00
     vertex -3.750000e+01  6.495191e+01  0.000000e+00
   endloop
 endfacet
 facet normal -5.680647e-01  8.229839e-01  0.000000e+00
   outer loop
     vertex -4.743340e+01  5.809537e+01  1.000000e+00
     vertex -3.750000e+01  6.495191e+01  0.000000e+00
     vertex -4.743340e+01  5.809537e+01  0.000000e+00
   endloop
 endfacet
 facet normal -6.927244e-01  7.212024e-01  0.000000e+00
   outer loop
     vertex -5.613831e+01  4.973420e+01  1.000000e+00
     vertex -4.743340e+01  5.809537e+01  1.000000e+00
     vertex -4.743340e+01  5.809537e+01  0.000000e+00
   endloop
 endfacet
 facet normal -6.927244e-01  7.212024e-01  0.000000e+00
   outer loop
     vertex -5.613831e+01  4.973420e+01  1.000000e+00
     vertex -4.743340e+01  5.809537e+01  0.000000e+00
     vertex -5.613831e+01  4.973420e+01  0.000000e+00
   endloop
 endfacet
 facet normal -7.994428e-01  6.007423e-01  0.000000e+00
   outer loop
     vertex -6.338926e+01  4.008494e+01  1.000000e+00
     vertex -5.613831e+01  4.973420e+01  1.000000e+00
     vertex -5.613831e+01  4.973420e+01  0.000000e+00
   endloop
 endfacet
 facet normal -7.994428e-01  6.007423e-01  0.000000e+00
   outer loop
     vertex -6.338926e+01  4.008494e+01  1.000000e+00
     vertex -5.613831e+01  4.973420e+01  0.000000e+00
     vertex -6.338926e+01  4.008494e+01  0.000000e+00
   endloop
 endfacet
 facet normal -8.854560e-01  4.647232e-01  0.000000e+00
   outer loop
     vertex -6.899846e+01  2.939750e+01  1.000000e+00
     vertex -6.338926e+01  4.008494e+01  1.000000e+00
     vertex -6.338926e+01  4.008494e+01  0.000000e+00
   endloop
 endfacet
 facet normal -8.854560e-01  4.647232e-01  0.000000e+00
   outer loop
     vertex -6.899846e+01  2.939750e+01  1.000000e+00
     vertex -6.338926e+01  4.008494e+01  0.000000e+00
     vertex -6.899846e+01  2.939750e+01  0.000000e+00
   endloop
 endfacet
 facet normal -9.485364e-01  3.166680e-01  0.000000e+00
   outer loop
     vertex -7.282064e+01  1.794867e+01  1.000000e+00
     vertex -6.899846e+01  2.939750e+01  1.000000e+00
     vertex -6.899846e+01  2.939750e+01  0.000000e+00
   endloop
 endfacet
 facet normal -9.485364e-01  3.166680e-01  0.000000e+00
   outer loop
     vertex -7.282064e+01  1.794867e+01  1.000000e+00
     vertex -6.899846e+01  2.939750e+01  0.000000e+00
     vertex -7.282064e+01  1.794867e+01  0.000000e+00
   endloop
 endfacet
 facet normal -9.870503e-01  1.604113e-01  0.000000e+00
   outer loop
     vertex -7.475680e+01  6.034993e+00  1.000000e+00
     vertex -7.282064e+01  1.794867e+01  0.000000e+00
     vertex -7.475680e+01  6.034993e+00  0.000000e+00
   endloop
 endfacet
 facet normal -9.870503e-01  1.604113e-01  0.000000e+00
   outer loop
     vertex -7.475680e+01  6.034993e+00  1.000000e+00
     vertex -7.282064e+01  1.794867e+01  1.000000e+00
     vertex -7.282064e+01  1.794867e+01  0.000000e+00
   endloop
 endfacet
 facet normal -1.000000e+00 -1.177371e-15 -0.000000e+00
   outer loop
     vertex -7.475680e+01 -6.034993e+00  1.000000e+00
     vertex -7.475680e+01  6.034993e+00  0.000000e+00
     vertex -7.475680e+01 -6.034993e+00  0.000000e+00
   endloop
 endfacet
 facet normal -1.000000e+00 -1.177371e-15  0.000000e+00
   outer loop
     vertex -7.475680e+01 -6.034993e+00  1.000000e+00
     vertex -7.475680e+01  6.034993e+00  1.000000e+00
     vertex -7.475680e+01  6.034993e+00  0.000000e+00
   endloop
 endfacet
 facet normal -9.870503e-01 -1.604113e-01 -0.000000e+00
   outer loop
     vertex -7.282064e+01 -1.794867e+01  1.000000e+00
     vertex -7.475680e+01 -6.034993e+00  0.000000e+00
     vertex -7.282064e+01 -1.794867e+01  0.000000e+00
   endloop
 endfacet
 facet normal -9.485364e-01 -3.166680e-01 -0.000000e+00
   outer loop
     vertex -7.282064e+01 -1.794867e+01  1.000000e+00
     vertex -7.282064e+01 -1.794867e+01  0.000000e+00
     vertex -6.899846e+01 -2.939750e+01  0.000000e+00
   endloop
 endfacet
 facet normal -9.870503e-01 -1.604113e-01  0.000000e+00
   outer loop
     vertex -7.282064e+01 -1.794867e+01  1.000000e+00
     vertex -7.475680e+01 -6.034993e+00  1.000000e+00
     vertex -7.475680e+01 -6.034993e+00  0.000000e+00
   endloop
 endfacet
 facet normal -9.485364e-01 -3.166680e-01 -0.000000e+00
   outer loop
     vertex -6.899846e+01 -2.939750e+01  1.000000e+00
     vertex -7.282064e+01 -1.794867e+01  1.000000e+00
     vertex -6.899846e+01 -2.939750e+01  0.000000e+00
   endloop
 endfacet
 facet normal -8.854560e-01 -4.647232e-01 -0.000000e+00
   outer loop
     vertex -6.338926e+01 -4.008494e+01  1.000000e+00
     vertex -6.899846e+01 -2.939750e+01  0.000000e+00
     vertex -6.338926e+01 -4.008494e+01  0.000000e+00
   endloop
 endfacet
 facet normal -7.994428e-01 -6.007423e-01 -0.000000e+00
   outer loop
     vertex -6.338926e+01 -4.008494e+01  1.000000e+00
     vertex -6.338926e+01 -4.008494e+01  0.000000e+00
     vertex -5.613831e+01 -4.973420e+01  0.000000e+00
   endloop
 endfacet
 facet normal -8.854560e-01 -4.647232e-01  0.000000e+00
   outer loop
     vertex -6.338926e+01 -4.008494e+01  1.000000e+00
     vertex -6.899846e+01 -2.939750e+01  1.000000e+00
     vertex -6.899846e+01 -2.939750e+01  0.000000e+00
   endloop
 endfacet
 facet normal -7.994428e-01 -6.007423e-01 -0.000000e+00
   outer loop
     vertex -5.613831e+01 -4.973420e+01  1.000000e+00
     vertex -6.338926e+01 -4.008494e+01  1.000000e+00
     vertex -5.613831e+01 -4.973420e+01  0.000000e+00
   endloop
 endfacet
 facet normal -6.927244e-01 -7.212024e-01 -0.000000e+00
   outer loop
     vertex -4.743340e+01 -5.809537e+01  1.000000e+00
     vertex -5.613831e+01 -4.973420e+01  0.000000e+00
     vertex -4.743340e+01 -5.809537e+01  0.000000e+00
   endloop
 endfacet
 facet normal -5.680647e-01 -8.229839e-01 -0.000000e+00
   outer loop
     vertex -4.743340e+01 -5.809537e+01  1.000000e+00
     vertex -4.743340e+01 -5.809537e+01  0.000000e+00
     vertex -3.750000e+01 -6.495191e+01  0.000000e+00
   endloop
 endfacet
 facet normal -6.927244e-01 -7.212024e-01  0.000000e+00
   outer loop
     vertex -4.743340e+01 -5.809537e+01  1.000000e+00
     vertex -5.613831e+01 -4.973420e+01  1.000000e+00
     vertex -5.613831e+01 -4.973420e+01  0.000000e+00
   endloop
 endfacet
 facet normal -5.680647e-01 -8.229839e-01 -0.000000e+00
   outer loop
     vertex -3.750000e+01 -6.495191e+01  1.000000e+00
     vertex -4.743340e+01 -5.809537e+01  1.000000e+00
     vertex -3.750000e+01 -6.495191e+01  0.000000e+00
   endloop
 endfacet
 facet normal -4.286926e-01 -9.034504e-01 -0.000000e+00
   outer loop
     vertex -2.659537e+01 -7.012622e+01  1.000000e+00
     vertex -3.750000e+01 -6.495191e+01  0.000000e+00
     vertex -2.659537e+01 -7.012622e+01  0.000000e+00
   endloop
 endfacet
 facet normal -4.286926e-01 -9.034504e-01  0.000000e+00
   outer loop
     vertex -2.659537e+01 -7.012622e+01  1.000000e+00
     vertex -3.750000e+01 -6.495191e+01  1.000000e+00
     vertex -3.750000e+01 -6.495191e+01  0.000000e+00
   endloop
 endfacet
 facet normal -2.782175e-01 -9.605181e-01 -0.000000e+00
   outer loop
     vertex -1.500193e+01 -7.348430e+01  1.000000e+00
     vertex -2.659537e+01 -7.012622e+01  0.000000e+00
     vertex -1.500193e+01 -7.348430e+01  0.000000e+00
   endloop
 endfacet
 facet normal -1.205367e-01 -9.927089e-01 -0.000000e+00
   outer loop
     vertex -1.500193e+01 -7.348430e+01  1.000000e+00
     vertex -1.500193e+01 -7.348430e+01  0.000000e+00
     vertex -3.019946e+00 -7.493917e+01  0.000000e+00
   endloop
 endfacet
 facet normal -2.782175e-01 -9.605181e-01  0.000000e+00
   outer loop
     vertex -1.500193e+01 -7.348430e+01  1.000000e+00
     vertex -2.659537e+01 -7.012622e+01  1.000000e+00
     vertex -2.659537e+01 -7.012622e+01  0.000000e+00
   endloop
 endfacet
 facet normal -1.205367e-01 -9.927089e-01 -0.000000e+00
   outer loop
     vertex -3.019946e+00 -7.493917e+01  1.000000e+00
     vertex -1.500193e+01 -7.348430e+01  1.000000e+00
     vertex -3.019946e+00 -7.493917e+01  0.000000e+00
   endloop
 endfacet
 facet normal  4.026594e-02 -9.991890e-01  0.000000e+00
   outer loop
     vertex  9.040251e+00 -7.445317e+01  1.000000e+00
     vertex -3.019946e+00 -7.493917e+01  1.000000e+00
     vertex -3.019946e+00 -7.493917e+01  0.000000e+00
   endloop
 endfacet
 facet normal  4.026594e-02 -9.991890e-01  0.000000e+00
   outer loop
     vertex  9.040251e+00 -7.445317e+01  1.000000e+00
     vertex -3.019946e+00 -7.493917e+01  0.000000e+00
     vertex  9.040251e+00 -7.445317e+01  0.000000e+00
   endloop
 endfacet
 facet normal  2.000257e-01 -9.797907e-01  0.000000e+00
   outer loop
     vertex  9.040251e+00 -7.445317e+01  1.000000e+00
     vertex  9.040251e+00 -7.445317e+01  0.000000e+00
     vertex  2.086631e+01 -7.203886e+01  0.000000e+00
   endloop
 endfacet
 facet normal  2.000257e-01 -9.797907e-01  0.000000e+00
   outer loop
     vertex  2.086631e+01 -7.203886e+01  1.000000e+00
     vertex  9.040251e+00 -7.445317e+01  1.000000e+00
     vertex  2.086631e+01 -7.203886e+01  0.000000e+00
   endloop
 endfacet
 facet normal  3.546049e-01 -9.350162e-01  0.000000e+00
   outer loop
     vertex  3.215194e+01 -6.775878e+01  1.000000e+00
     vertex  2.086631e+01 -7.203886e+01  1.000000e+00
     vertex  2.086631e+01 -7.203886e+01  0.000000e+00
   endloop
 endfacet
 facet normal  3.546049e-01 -9.350162e-01  0.000000e+00
   outer loop
     vertex  3.215194e+01 -6.775878e+01  1.000000e+00
     vertex  2.086631e+01 -7.203886e+01  0.000000e+00
     vertex  3.215194e+01 -6.775878e+01  0.000000e+00
   endloop
 endfacet
 facet normal  5.000000e-01 -8.660254e-01  0.000000e+00
   outer loop
     vertex  4.260486e+01 -6.172379e+01  1.000000e+00
     vertex  3.215194e+01 -6.775878e+01  1.000000e+00
     vertex  3.215194e+01 -6.775878e+01  0.000000e+00
   endloop
 endfacet
 facet normal  5.000000e-01 -8.660254e-01  0.000000e+00
   outer loop
     vertex  4.260486e+01 -6.172379e+01  1.000000e+00
     vertex  3.215194e+01 -6.775878e+01  0.000000e+00
     vertex  4.260486e+01 -6.172379e+01  0.000000e+00
   endloop
 endfacet
 facet normal  6.324454e-01 -7.746050e-01  0.000000e+00
   outer loop
     vertex  4.260486e+01 -6.172379e+01  1.000000e+00
     vertex  4.260486e+01 -6.172379e+01  0.000000e+00
     vertex  5.195433e+01 -5.409018e+01  0.000000e+00
   endloop
 endfacet
 facet normal  6.324454e-01 -7.746050e-01  0.000000e+00
   outer loop
     vertex  5.195433e+01 -5.409018e+01  1.000000e+00
     vertex  4.260486e+01 -6.172379e+01  1.000000e+00
     vertex  5.195433e+01 -5.409018e+01  0.000000e+00
   endloop
 endfacet
 facet normal  7.485107e-01 -6.631227e-01  0.000000e+00
   outer loop
     vertex  5.995821e+01 -4.505567e+01  1.000000e+00
     vertex  5.195433e+01 -5.409018e+01  1.000000e+00
     vertex  5.195433e+01 -5.409018e+01  0.000000e+00
   endloop
 endfacet
 facet normal  7.485107e-01 -6.631227e-01  0.000000e+00
   outer loop
     vertex  5.995821e+01 -4.505567e+01  1.000000e+00
     vertex  5.195433e+01 -5.409018e+01  0.000000e+00
     vertex  5.995821e+01 -4.505567e+01  0.000000e+00
   endloop
 endfacet
 facet normal  8.451901e-01 -5.344658e-01  0.000000e+00
   outer loop
     vertex  5.995821e+01 -4.505567e+01  1.000000e+00
     vertex  5.995821e+01 -4.505567e+01  0.000000e+00
     vertex  6.640920e+01 -3.485424e+01  0.000000e+00
   endloop
 endfacet
 facet normal  8.451901e-01 -5.344658e-01  0.000000e+00
   outer loop
     vertex  6.640920e+01 -3.485424e+01  1.000000e+00
     vertex  5.995821e+01 -4.505567e+01  1.000000e+00
     vertex  6.640920e+01 -3.485424e+01  0.000000e+00
   endloop
 endfacet
 facet normal  9.199794e-01 -3.919666e-01  0.000000e+00
   outer loop
     vertex  7.114023e+01 -2.375010e+01  1.000000e+00
     vertex  6.640920e+01 -3.485424e+01  1.000000e+00
     vertex  6.640920e+01 -3.485424e+01  0.000000e+00
   endloop
 endfacet
 facet normal  9.199794e-01 -3.919666e-01  0.000000e+00
   outer loop
     vertex  7.114023e+01 -2.375010e+01  1.000000e+00
     vertex  6.640920e+01 -3.485424e+01  0.000000e+00
     vertex  7.114023e+01 -2.375010e+01  0.000000e+00
   endloop
 endfacet
 facet normal  9.709418e-01 -2.393157e-01  0.000000e+00
   outer loop
     vertex  7.114023e+01 -2.375010e+01  1.000000e+00
     vertex  7.114023e+01 -2.375010e+01  0.000000e+00
     vertex  7.402877e+01 -1.203085e+01  0.000000e+00
   endloop
 endfacet
 facet normal  9.709418e-01 -2.393157e-01  0.000000e+00
   outer loop
     vertex  7.402877e+01 -1.203085e+01  1.000000e+00
     vertex  7.114023e+01 -2.375010e+01  1.000000e+00
     vertex  7.402877e+01 -1.203085e+01  0.000000e+00
   endloop
 endfacet
 facet normal  9.967573e-01 -8.046657e-02  0.000000e+00
   outer loop
     vertex  7.500000e+01 -1.836970e-14  1.000000e+00
     vertex  7.402877e+01 -1.203085e+01  1.000000e+00
     vertex  7.402877e+01 -1.203085e+01  0.000000e+00
   endloop
 endfacet
 facet normal  9.967573e-01 -8.046657e-02  0.000000e+00
   outer loop
     vertex  7.500000e+01 -1.836970e-14  1.000000e+00
     vertex  7.402877e+01 -1.203085e+01  0.000000e+00
     vertex  7.500000e+01 -1.836970e-14  0.000000e+00
   endloop
 endfacet
 facet normal  0.000000e+00  0.000000e+00  1.000000e+00
   outer loop
     vertex -8.982129e+00 -7.957472e+00  1.000000e+00
     vertex -6.338926e+01 -4.008494e+01  1.000000e+00
     vertex -5.613831e+01 -4.973420e+01  1.000000e+00
   endloop
 endfacet
 facet normal  0.000000e+00  0.000000e+00  1.000000e+00
   outer loop
     vertex -8.982129e+00 -7.957472e+00  1.000000e+00
     vertex -5.613831e+01 -4.973420e+01  1.000000e+00
     vertex -4.743340e+01 -5.809537e+01  1.000000e+00
   endloop
 endfacet
 facet normal  0.000000e+00  0.000000e+00  1.000000e+00
   outer loop
     vertex -6.816777e+00 -9.875806e+00  1.000000e+00
     vertex -4.743340e+01 -5.809537e+01  1.000000e+00
     vertex -3.750000e+01 -6.495191e+01  1.000000e+00
   endloop
 endfacet
 facet normal  0.000000e+00  0.000000e+00  1.000000e+00
   outer loop
     vertex -6.816777e+00 -9.875806e+00  1.000000e+00
     vertex -8.982129e+00 -7.957472e+00  1.000000e+00
     vertex -4.743340e+01 -5.809537e+01  1.000000e+00
   endloop
 endfacet
 facet normal  0.000000e+00  0.000000e+00  1.000000e+00
   outer loop
     vertex -1.062547e+01 -5.576678e+00  1.000000e+00
     vertex -6.899846e+01 -2.939750e+01  1.000000e+00
     vertex -6.338926e+01 -4.008494e+01  1.000000e+00
   endloop
 endfacet
 facet normal  0.000000e+00  0.000000e+00  1.000000e+00
   outer loop
     vertex -1.062547e+01 -5.576678e+00  1.000000e+00
     vertex -6.338926e+01 -4.008494e+01  1.000000e+00
     vertex -8.982129e+00 -7.957472e+00  1.000000e+00
   endloop
 endfacet
 facet normal  0.000000e+00  0.000000e+00  1.000000e+00
   outer loop
     vertex -4.255259e+00 -1.122019e+01  1.000000e+00
     vertex -3.750000e+01 -6.495191e+01  1.000000e+00
     vertex -2.659537e+01 -7.012622e+01  1.000000e+00
   endloop
 endfacet
 facet normal  0.000000e+00  0.000000e+00  1.000000e+00
   outer loop
     vertex -4.255259e+00 -1.122019e+01  1.000000e+00
     vertex -2.659537e+01 -7.012622e+01  1.000000e+00
     vertex -1.500193e+01 -7.348430e+01  1.000000e+00
   endloop
 endfacet
 facet normal  0.000000e+00  0.000000e+00  1.000000e+00
   outer loop
     vertex -4.255259e+00 -1.122019e+01  1.000000e+00
     vertex -6.816777e+00 -9.875806e+00  1.000000e+00
     vertex -3.750000e+01 -6.495191e+01  1.000000e+00
   endloop
 endfacet
 facet normal  0.000000e+00  0.000000e+00  1.000000e+00
   outer loop
     vertex -1.165130e+01 -2.871788e+00  1.000000e+00
     vertex -6.899846e+01 -2.939750e+01  1.000000e+00
     vertex -1.062547e+01 -5.576678e+00  1.000000e+00
   endloop
 endfacet
 facet normal  0.000000e+00  0.000000e+00  1.000000e+00
   outer loop
     vertex -1.165130e+01 -2.871788e+00  1.000000e+00
     vertex -7.475680e+01 -6.034993e+00  1.000000e+00
     vertex -7.282064e+01 -1.794867e+01  1.000000e+00
   endloop
 endfacet
 facet normal  0.000000e+00  0.000000e+00  1.000000e+00
   outer loop
     vertex -1.165130e+01 -2.871788e+00  1.000000e+00
     vertex -7.282064e+01 -1.794867e+01  1.000000e+00
     vertex -6.899846e+01 -2.939750e+01  1.000000e+00
   endloop
 endfacet
 facet normal  0.000000e+00  0.000000e+00  1.000000e+00
   outer loop
     vertex -1.446440e+00 -1.191251e+01  1.000000e+00
     vertex -1.500193e+01 -7.348430e+01  1.000000e+00
     vertex -3.019946e+00 -7.493917e+01  1.000000e+00
   endloop
 endfacet
 facet normal  0.000000e+00  0.000000e+00  1.000000e+00
   outer loop
     vertex -1.446440e+00 -1.191251e+01  1.000000e+00
     vertex -4.255259e+00 -1.122019e+01  1.000000e+00
     vertex -1.500193e+01 -7.348430e+01  1.000000e+00
   endloop
 endfacet
 facet normal  0.000000e+00  0.000000e+00  1.000000e+00
   outer loop
     vertex -1.200000e+01  1.212772e-14  1.000000e+00
     vertex -7.475680e+01 -6.034993e+00  1.000000e+00
     vertex -1.165130e+01 -2.871788e+00  1.000000e+00
   endloop
 endfacet
 facet normal  0.000000e+00  0.000000e+00  1.000000e+00
   outer loop
     vertex -1.200000e+01  1.212772e-14  1.000000e+00
     vertex -7.475680e+01  6.034993e+00  1.000000e+00
     vertex -7.475680e+01 -6.034993e+00  1.000000e+00
   endloop
 endfacet
 facet normal  0.000000e+00  0.000000e+00  1.000000e+00
   outer loop
     vertex  1.446440e+00 -1.191251e+01  1.000000e+00
     vertex -1.446440e+00 -1.191251e+01  1.000000e+00
     vertex -3.019946e+00 -7.493917e+01  1.000000e+00
   endloop
 endfacet
 facet normal  0.000000e+00  0.000000e+00  1.000000e+00
   outer loop
     vertex  1.446440e+00 -1.191251e+01  1.000000e+00
     vertex -3.019946e+00 -7.493917e+01  1.000000e+00
     vertex  9.040251e+00 -7.445317e+01  1.000000e+00
   endloop
 endfacet
 facet normal  0.000000e+00  0.000000e+00  1.000000e+00
   outer loop
     vertex  1.446440e+00 -1.191251e+01  1.000000e+00
     vertex  9.040251e+00 -7.445317e+01  1.000000e+00
     vertex  2.086631e+01 -7.203886e+01  1.000000e+00
   endloop
 endfacet
 facet normal  0.000000e+00  0.000000e+00  1.000000e+00
   outer loop
     vertex -1.165130e+01  2.871788e+00  1.000000e+00
     vertex -7.475680e+01  6.034993e+00  1.000000e+00
     vertex -1.200000e+01  1.212772e-14  1.000000e+00
   endloop
 endfacet
 facet normal  0.000000e+00  0.000000e+00  1.000000e+00
   outer loop
     vertex -1.165130e+01  2.871788e+00  1.000000e+00
     vertex -6.899846e+01  2.939750e+01  1.000000e+00
     vertex -7.282064e+01  1.794867e+01  1.000000e+00
   endloop
 endfacet
 facet normal  0.000000e+00  0.000000e+00  1.000000e+00
   outer loop
     vertex -1.165130e+01  2.871788e+00  1.000000e+00
     vertex -7.282064e+01  1.794867e+01  1.000000e+00
     vertex -7.475680e+01  6.034993e+00  1.000000e+00
   endloop
 endfacet
 facet normal  0.000000e+00  0.000000e+00  1.000000e+00
   outer loop
     vertex  4.255259e+00 -1.122019e+01  1.000000e+00
     vertex  2.086631e+01 -7.203886e+01  1.000000e+00
     vertex  3.215194e+01 -6.775878e+01  1.000000e+00
   endloop
 endfacet
 facet normal  0.000000e+00  0.000000e+00  1.000000e+00
   outer loop
     vertex  4.255259e+00 -1.122019e+01  1.000000e+00
     vertex  1.446440e+00 -1.191251e+01  1.000000e+00
     vertex  2.086631e+01 -7.203886e+01  1.000000e+00
   endloop
 endfacet
 facet normal  0.000000e+00  0.000000e+00  1.000000e+00
   outer loop
     vertex -1.062547e+01  5.576678e+00  1.000000e+00
     vertex -6.338926e+01  4.008494e+01  1.000000e+00
     vertex -6.899846e+01  2.939750e+01  1.000000e+00
   endloop
 endfacet
 facet normal  0.000000e+00  0.000000e+00  1.000000e+00
   outer loop
     vertex -1.062547e+01  5.576678e+00  1.000000e+00
     vertex -6.899846e+01  2.939750e+01  1.000000e+00
     vertex -1.165130e+01  2.871788e+00  1.000000e+00
   endloop
 endfacet
 facet normal  0.000000e+00  0.000000e+00  1.000000e+00
   outer loop
     vertex  6.816777e+00 -9.875806e+00  1.000000e+00
     vertex  3.215194e+01 -6.775878e+01  1.000000e+00
     vertex  4.260486e+01 -6.172379e+01  1.000000e+00
   endloop
 endfacet
 facet normal  0.000000e+00  0.000000e+00  1.000000e+00
   outer loop
     vertex  6.816777e+00 -9.875806e+00  1.000000e+00
     vertex  4.255259e+00 -1.122019e+01  1.000000e+00
     vertex  3.215194e+01 -6.775878e+01  1.000000e+00
   endloop
 endfacet
 facet normal  0.000000e+00  0.000000e+00  1.000000e+00
   outer loop
     vertex  5.195433e+01 -5.409018e+01  1.000000e+00
     vertex  6.816777e+00 -9.875806e+00  1.000000e+00
     vertex  4.260486e+01 -6.172379e+01  1.000000e+00
   endloop
 endfacet
 facet normal  0.000000e+00  0.000000e+00  1.000000e+00
   outer loop
     vertex -8.982129e+00  7.957472e+00  1.000000e+00
     vertex -6.338926e+01  4.008494e+01  1.000000e+00
     vertex -1.062547e+01  5.576678e+00  1.000000e+00
   endloop
 endfacet
 facet normal  0.000000e+00  0.000000e+00  1.000000e+00
   outer loop
     vertex -8.982129e+00  7.957472e+00  1.000000e+00
     vertex -5.613831e+01  4.973420e+01  1.000000e+00
     vertex -6.338926e+01  4.008494e+01  1.000000e+00
   endloop
 endfacet
 facet normal  0.000000e+00  0.000000e+00  1.000000e+00
   outer loop
     vertex  8.982129e+00 -7.957472e+00  1.000000e+00
     vertex  6.816777e+00 -9.875806e+00  1.000000e+00
     vertex  5.195433e+01 -5.409018e+01  1.000000e+00
   endloop
 endfacet
 facet normal  0.000000e+00  0.000000e+00  1.000000e+00
   outer loop
     vertex -4.743340e+01  5.809537e+01  1.000000e+00
     vertex -5.613831e+01  4.973420e+01  1.000000e+00
     vertex -8.982129e+00  7.957472e+00  1.000000e+00
   endloop
 endfacet
 facet normal  0.000000e+00  0.000000e+00  1.000000e+00
   outer loop
     vertex -4.743340e+01  5.809537e+01  1.000000e+00
     vertex -8.982129e+00  7.957472e+00  1.000000e+00
     vertex -6.816777e+00  9.875806e+00  1.000000e+00
   endloop
 endfacet
 facet normal  0.000000e+00  0.000000e+00  1.000000e+00
   outer loop
     vertex  5.995821e+01 -4.505567e+01  1.000000e+00
     vertex  8.982129e+00 -7.957472e+00  1.000000e+00
     vertex  5.195433e+01 -5.409018e+01  1.000000e+00
   endloop
 endfacet
 facet normal  0.000000e+00  0.000000e+00  1.000000e+00
   outer loop
     vertex  5.995821e+01 -4.505567e+01  1.000000e+00
     vertex  1.062547e+01 -5.576678e+00  1.000000e+00
     vertex  8.982129e+00 -7.957472e+00  1.000000e+00
   endloop
 endfacet
 facet normal  0.000000e+00  0.000000e+00  1.000000e+00
   outer loop
     vertex -3.750000e+01  6.495191e+01  1.000000e+00
     vertex -6.816777e+00  9.875806e+00  1.000000e+00
     vertex -4.255259e+00  1.122019e+01  1.000000e+00
   endloop
 endfacet
 facet normal  0.000000e+00  0.000000e+00  1.000000e+00
   outer loop
     vertex -3.750000e+01  6.495191e+01  1.000000e+00
     vertex -4.743340e+01  5.809537e+01  1.000000e+00
     vertex -6.816777e+00  9.875806e+00  1.000000e+00
   endloop
 endfacet
 facet normal  0.000000e+00  0.000000e+00  1.000000e+00
   outer loop
     vertex  6.640920e+01 -3.485424e+01  1.000000e+00
     vertex  1.062547e+01 -5.576678e+00  1.000000e+00
     vertex  5.995821e+01 -4.505567e+01  1.000000e+00
   endloop
 endfacet
 facet normal  0.000000e+00  0.000000e+00  1.000000e+00
   outer loop
     vertex -2.659537e+01  7.012622e+01  1.000000e+00
     vertex -3.750000e+01  6.495191e+01  1.000000e+00
     vertex -4.255259e+00  1.122019e+01  1.000000e+00
   endloop
 endfacet
 facet normal  0.000000e+00  0.000000e+00  1.000000e+00
   outer loop
     vertex  7.114023e+01 -2.375010e+01  1.000000e+00
     vertex  1.062547e+01 -5.576678e+00  1.000000e+00
     vertex  6.640920e+01 -3.485424e+01  1.000000e+00
   endloop
 endfacet
 facet normal  0.000000e+00  0.000000e+00  1.000000e+00
   outer loop
     vertex  7.114023e+01 -2.375010e+01  1.000000e+00
     vertex  1.165130e+01 -2.871788e+00  1.000000e+00
     vertex  1.062547e+01 -5.576678e+00  1.000000e+00
   endloop
 endfacet
 facet normal  0.000000e+00  0.000000e+00  1.000000e+00
   outer loop
     vertex -1.500193e+01  7.348430e+01  1.000000e+00
     vertex -4.255259e+00  1.122019e+01  1.000000e+00
     vertex -1.446440e+00  1.191251e+01  1.000000e+00
   endloop
 endfacet
 facet normal  0.000000e+00  0.000000e+00  1.000000e+00
   outer loop
     vertex -1.500193e+01  7.348430e+01  1.000000e+00
     vertex -2.659537e+01  7.012622e+01  1.000000e+00
     vertex -4.255259e+00  1.122019e+01  1.000000e+00
   endloop
 endfacet
 facet normal  0.000000e+00  0.000000e+00  1.000000e+00
   outer loop
     vertex  7.402877e+01 -1.203085e+01  1.000000e+00
     vertex  1.200000e+01 -2.939152e-15  1.000000e+00
     vertex  1.165130e+01 -2.871788e+00  1.000000e+00
   endloop
 endfacet
 facet normal  0.000000e+00  0.000000e+00  1.000000e+00
   outer loop
     vertex  7.402877e+01 -1.203085e+01  1.000000e+00
     vertex  1.165130e+01 -2.871788e+00  1.000000e+00
     vertex  7.114023e+01 -2.375010e+01  1.000000e+00
   endloop
 endfacet
 facet normal  0.000000e+00  0.000000e+00  1.000000e+00
   outer loop
     vertex -3.019946e+00  7.493917e+01  1.000000e+00
     vertex -1.446440e+00  1.191251e+01  1.000000e+00
     vertex  1.446440e+00  1.191251e+01  1.000000e+00
   endloop
 endfacet
 facet normal  0.000000e+00  0.000000e+00  1.000000e+00
   outer loop
     vertex -3.019946e+00  7.493917e+01  1.000000e+00
     vertex -1.500193e+01  7.348430e+01  1.000000e+00
     vertex -1.446440e+00  1.191251e+01  1.000000e+00
   endloop
 endfacet
 facet normal  0.000000e+00  0.000000e+00  1.000000e+00
   outer loop
     vertex  7.500000e+01 -1.836970e-14  1.000000e+00
     vertex  1.200000e+01 -2.939152e-15  1.000000e+00
     vertex  7.402877e+01 -1.203085e+01  1.000000e+00
   endloop
 endfacet
 facet normal  0.000000e+00  0.000000e+00  1.000000e+00
   outer loop
     vertex  9.040251e+00  7.445317e+01  1.000000e+00
     vertex -3.019946e+00  7.493917e+01  1.000000e+00
     vertex  1.446440e+00  1.191251e+01  1.000000e+00
   endloop
 endfacet
 facet normal  0.000000e+00  0.000000e+00  1.000000e+00
   outer loop
     vertex  7.402877e+01  1.203085e+01  1.000000e+00
     vertex  1.165130e+01  2.871788e+00  1.000000e+00
     vertex  1.200000e+01 -2.939152e-15  1.000000e+00
   endloop
 endfacet
 facet normal  0.000000e+00  0.000000e+00  1.000000e+00
   outer loop
     vertex  7.402877e+01  1.203085e+01  1.000000e+00
     vertex  1.200000e+01 -2.939152e-15  1.000000e+00
     vertex  7.500000e+01 -1.836970e-14  1.000000e+00
   endloop
 endfacet
 facet normal  0.000000e+00  0.000000e+00  1.000000e+00
   outer loop
     vertex  2.086631e+01  7.203886e+01  1.000000e+00
     vertex  1.446440e+00  1.191251e+01  1.000000e+00
     vertex  4.255259e+00  1.122019e+01  1.000000e+00
   endloop
 endfacet
 facet normal  0.000000e+00  0.000000e+00  1.000000e+00
   outer loop
     vertex  2.086631e+01  7.203886e+01  1.000000e+00
     vertex  9.040251e+00  7.445317e+01  1.000000e+00
     vertex  1.446440e+00  1.191251e+01  1.000000e+00
   endloop
 endfacet
 facet normal  0.000000e+00  0.000000e+00  1.000000e+00
   outer loop
     vertex  7.114023e+01  2.375010e+01  1.000000e+00
     vertex  1.062547e+01  5.576678e+00  1.000000e+00
     vertex  1.165130e+01  2.871788e+00  1.000000e+00
   endloop
 endfacet
 facet normal  0.000000e+00  0.000000e+00  1.000000e+00
   outer loop
     vertex  7.114023e+01  2.375010e+01  1.000000e+00
     vertex  1.165130e+01  2.871788e+00  1.000000e+00
     vertex  7.402877e+01  1.203085e+01  1.000000e+00
   endloop
 endfacet
 facet normal  0.000000e+00  0.000000e+00  1.000000e+00
   outer loop
     vertex  3.215194e+01  6.775878e+01  1.000000e+00
     vertex  4.255259e+00  1.122019e+01  1.000000e+00
     vertex  6.816777e+00  9.875806e+00  1.000000e+00
   endloop
 endfacet
 facet normal  0.000000e+00  0.000000e+00  1.000000e+00
   outer loop
     vertex  3.215194e+01  6.775878e+01  1.000000e+00
     vertex  2.086631e+01  7.203886e+01  1.000000e+00
     vertex  4.255259e+00  1.122019e+01  1.000000e+00
   endloop
 endfacet
 facet normal  0.000000e+00  0.000000e+00  1.000000e+00
   outer loop
     vertex  6.640920e+01  3.485424e+01  1.000000e+00
     vertex  1.062547e+01  5.576678e+00  1.000000e+00
     vertex  7.114023e+01  2.375010e+01  1.000000e+00
   endloop
 endfacet
 facet normal  0.000000e+00  0.000000e+00  1.000000e+00
   outer loop
     vertex  4.260486e+01  6.172379e+01  1.000000e+00
     vertex  3.215194e+01  6.775878e+01  1.000000e+00
     vertex  6.816777e+00  9.875806e+00  1.000000e+00
   endloop
 endfacet
 facet normal  0.000000e+00  0.000000e+00  1.000000e+00
   outer loop
     vertex  5.995821e+01  4.505567e+01  1.000000e+00
     vertex  8.982129e+00  7.957472e+00  1.000000e+00
     vertex  1.062547e+01  5.576678e+00  1.000000e+00
   endloop
 endfacet
 facet normal  0.000000e+00  0.000000e+00  1.000000e+00
   outer loop
     vertex  5.995821e+01  4.505567e+01  1.000000e+00
     vertex  1.062547e+01  5.576678e+00  1.000000e+00
     vertex  6.640920e+01  3.485424e+01  1.000000e+00
   endloop
 endfacet
 facet normal  0.000000e+00  0.000000e+00  1.000000e+00
   outer loop
     vertex  5.195433e+01  5.409018e+01  1.000000e+00
     vertex  6.816777e+00  9.875806e+00  1.000000e+00
     vertex  8.982129e+00  7.957472e+00  1.000000e+00
   endloop
 endfacet
 facet normal  0.000000e+00  0.000000e+00  1.000000e+00
   outer loop
     vertex  5.195433e+01  5.409018e+01  1.000000e+00
     vertex  4.260486e+01  6.172379e+01  1.000000e+00
     vertex  6.816777e+00  9.875806e+00  1.000000e+00
   endloop
 endfacet
 facet normal  0.000000e+00  0.000000e+00  1.000000e+00
   outer loop
     vertex  5.195433e+01  5.409018e+01  1.000000e+00
     vertex  8.982129e+00  7.957472e+00  1.000000e+00
     vertex  5.995821e+01  4.505567e+01  1.000000e+00
   endloop
 endfacet
 facet normal  0.000000e+00  0.000000e+00 -1.000000e+00
   outer loop
     vertex -8.982129e+00 -7.957472e+00  0.000000e+00
     vertex -5.613831e+01 -4.973420e+01  0.000000e+00
     vertex -6.338926e+01 -4.008494e+01  0.000000e+00
   endloop
 endfacet
 facet normal  0.000000e+00  0.000000e+00 -1.000000e+00
   outer loop
     vertex -8.982129e+00 -7.957472e+00  0.000000e+00
     vertex -4.743340e+01 -5.809537e+01  0.000000e+00
     vertex -5.613831e+01 -4.973420e+01  0.000000e+00
   endloop
 endfacet
 facet normal  0.000000e+00  0.000000e+00 -1.000000e+00
   outer loop
     vertex -6.816777e+00 -9.875806e+00  0.000000e+00
     vertex -3.750000e+01 -6.495191e+01  0.000000e+00
     vertex -4.743340e+01 -5.809537e+01  0.000000e+00
   endloop
 endfacet
 facet normal -0.000000e+00  0.000000e+00 -1.000000e+00
   outer loop
     vertex -6.816777e+00 -9.875806e+00  0.000000e+00
     vertex -4.743340e+01 -5.809537e+01  0.000000e+00
     vertex -8.982129e+00 -7.957472e+00  0.000000e+00
   endloop
 endfacet
 facet normal  0.000000e+00  0.000000e+00 -1.000000e+00
   outer loop
     vertex -1.062547e+01 -5.576678e+00  0.000000e+00
     vertex -6.338926e+01 -4.008494e+01  0.000000e+00
     vertex -6.899846e+01 -2.939750e+01  0.000000e+00
   endloop
 endfacet
 facet normal  0.000000e+00 -0.000000e+00 -1.000000e+00
   outer loop
     vertex -1.062547e+01 -5.576678e+00  0.000000e+00
     vertex -8.982129e+00 -7.957472e+00  0.000000e+00
     vertex -6.338926e+01 -4.008494e+01  0.000000e+00
   endloop
 endfacet
 facet normal  0.000000e+00  0.000000e+00 -1.000000e+00
   outer loop
     vertex -4.255259e+00 -1.122019e+01  0.000000e+00
     vertex -2.659537e+01 -7.012622e+01  0.000000e+00
     vertex -3.750000e+01 -6.495191e+01  0.000000e+00
   endloop
 endfacet
 facet normal  0.000000e+00  0.000000e+00 -1.000000e+00
   outer loop
     vertex -4.255259e+00 -1.122019e+01  0.000000e+00
     vertex -1.500193e+01 -7.348430e+01  0.000000e+00
     vertex -2.659537e+01 -7.012622e+01  0.000000e+00
   endloop
 endfacet
 facet normal -0.000000e+00  0.000000e+00 -1.000000e+00
   outer loop
     vertex -4.255259e+00 -1.122019e+01  0.000000e+00
     vertex -3.750000e+01 -6.495191e+01  0.000000e+00
     vertex -6.816777e+00 -9.875806e+00  0.000000e+00
   endloop
 endfacet
 facet normal  0.000000e+00 -0.000000e+00 -1.000000e+00
   outer loop
     vertex -1.165130e+01 -2.871788e+00  0.000000e+00
     vertex -1.062547e+01 -5.576678e+00  0.000000e+00
     vertex -6.899846e+01 -2.939750e+01  0.000000e+00
   endloop
 endfacet
 facet normal  0.000000e+00  0.000000e+00 -1.000000e+00
   outer loop
     vertex -1.165130e+01 -2.871788e+00  0.000000e+00
     vertex -7.282064e+01 -1.794867e+01  0.000000e+00
     vertex -7.475680e+01 -6.034993e+00  0.000000e+00
   endloop
 endfacet
 facet normal  0.000000e+00  0.000000e+00 -1.000000e+00
   outer loop
     vertex -1.165130e+01 -2.871788e+00  0.000000e+00
     vertex -6.899846e+01 -2.939750e+01  0.000000e+00
     vertex -7.282064e+01 -1.794867e+01  0.000000e+00
   endloop
 endfacet
 facet normal  0.000000e+00  0.000000e+00 -1.000000e+00
   outer loop
     vertex -1.446440e+00 -1.191251e+01  0.000000e+00
     vertex -3.019946e+00 -7.493917e+01  0.000000e+00
     vertex -1.500193e+01 -7.348430e+01  0.000000e+00
   endloop
 endfacet
 facet normal -0.000000e+00  0.000000e+00 -1.000000e+00
   outer loop
     vertex -1.446440e+00 -1.191251e+01  0.000000e+00
     vertex -1.500193e+01 -7.348430e+01  0.000000e+00
     vertex -4.255259e+00 -1.122019e+01  0.000000e+00
   endloop
 endfacet
 facet normal  0.000000e+00 -0.000000e+00 -1.000000e+00
   outer loop
     vertex -1.200000e+01  1.212772e-14  0.000000e+00
     vertex -1.165130e+01 -2.871788e+00  0.000000e+00
     vertex -7.475680e+01 -6.034993e+00  0.000000e+00
   endloop
 endfacet
 facet normal -0.000000e+00  0.000000e+00 -1.000000e+00
   outer loop
     vertex -1.200000e+01  1.212772e-14  0.000000e+00
     vertex -7.475680e+01 -6.034993e+00  0.000000e+00
     vertex -7.475680e+01  6.034993e+00  0.000000e+00
   endloop
 endfacet
 facet normal -0.000000e+00  0.000000e+00 -1.000000e+00
   outer loop
     vertex  1.446440e+00 -1.191251e+01  0.000000e+00
     vertex -3.019946e+00 -7.493917e+01  0.000000e+00
     vertex -1.446440e+00 -1.191251e+01  0.000000e+00
   endloop
 endfacet
 facet normal  0.000000e+00 -0.000000e+00 -1.000000e+00
   outer loop
     vertex  1.446440e+00 -1.191251e+01  0.000000e+00
     vertex  9.040251e+00 -7.445317e+01  0.000000e+00
     vertex -3.019946e+00 -7.493917e+01  0.000000e+00
   endloop
 endfacet
 facet normal  0.000000e+00  0.000000e+00 -1.000000e+00
   outer loop
     vertex  1.446440e+00 -1.191251e+01  0.000000e+00
     vertex  2.086631e+01 -7.203886e+01  0.000000e+00
     vertex  9.040251e+00 -7.445317e+01  0.000000e+00
   endloop
 endfacet
 facet normal -0.000000e+00  0.000000e+00 -1.000000e+00
   outer loop
     vertex -1.165130e+01  2.871788e+00  0.000000e+00
     vertex -1.200000e+01  1.212772e-14  0.000000e+00
     vertex -7.475680e+01  6.034993e+00  0.000000e+00
   endloop
 endfacet
 facet normal  0.000000e+00  0.000000e+00 -1.000000e+00
   outer loop
     vertex -1.165130e+01  2.871788e+00  0.000000e+00
     vertex -7.282064e+01  1.794867e+01  0.000000e+00
     vertex -6.899846e+01  2.939750e+01  0.000000e+00
   endloop
 endfacet
 facet normal  0.000000e+00  0.000000e+00 -1.000000e+00
   outer loop
     vertex -1.165130e+01  2.871788e+00  0.000000e+00
     vertex -7.475680e+01  6.034993e+00  0.000000e+00
     vertex -7.282064e+01  1.794867e+01  0.000000e+00
   endloop
 endfacet
 facet normal  0.000000e+00  0.000000e+00 -1.000000e+00
   outer loop
     vertex  4.255259e+00 -1.122019e+01  0.000000e+00
     vertex  3.215194e+01 -6.775878e+01  0.000000e+00
     vertex  2.086631e+01 -7.203886e+01  0.000000e+00
   endloop
 endfacet
 facet normal  0.000000e+00 -0.000000e+00 -1.000000e+00
   outer loop
     vertex  4.255259e+00 -1.122019e+01  0.000000e+00
     vertex  2.086631e+01 -7.203886e+01  0.000000e+00
     vertex  1.446440e+00 -1.191251e+01  0.000000e+00
   endloop
 endfacet
 facet normal  0.000000e+00  0.000000e+00 -1.000000e+00
   outer loop
     vertex -1.062547e+01  5.576678e+00  0.000000e+00
     vertex -6.899846e+01  2.939750e+01  0.000000e+00
     vertex -6.338926e+01  4.008494e+01  0.000000e+00
   endloop
 endfacet
 facet normal -0.000000e+00  0.000000e+00 -1.000000e+00
   outer loop
     vertex -1.062547e+01  5.576678e+00  0.000000e+00
     vertex -1.165130e+01  2.871788e+00  0.000000e+00
     vertex -6.899846e+01  2.939750e+01  0.000000e+00
   endloop
 endfacet
 facet normal  0.000000e+00  0.000000e+00 -1.000000e+00
   outer loop
     vertex  6.816777e+00 -9.875806e+00  0.000000e+00
     vertex  4.260486e+01 -6.172379e+01  0.000000e+00
     vertex  3.215194e+01 -6.775878e+01  0.000000e+00
   endloop
 endfacet
 facet normal  0.000000e+00 -0.000000e+00 -1.000000e+00
   outer loop
     vertex  6.816777e+00 -9.875806e+00  0.000000e+00
     vertex  3.215194e+01 -6.775878e+01  0.000000e+00
     vertex  4.255259e+00 -1.122019e+01  0.000000e+00
   endloop
 endfacet
 facet normal -0.000000e+00  0.000000e+00 -1.000000e+00
   outer loop
     vertex  5.195433e+01 -5.409018e+01  0.000000e+00
     vertex  4.260486e+01 -6.172379e+01  0.000000e+00
     vertex  6.816777e+00 -9.875806e+00  0.000000e+00
   endloop
 endfacet
 facet normal -0.000000e+00  0.000000e+00 -1.000000e+00
   outer loop
     vertex -8.982129e+00  7.957472e+00  0.000000e+00
     vertex -1.062547e+01  5.576678e+00  0.000000e+00
     vertex -6.338926e+01  4.008494e+01  0.000000e+00
   endloop
 endfacet
 facet normal  0.000000e+00  0.000000e+00 -1.000000e+00
   outer loop
     vertex -8.982129e+00  7.957472e+00  0.000000e+00
     vertex -6.338926e+01  4.008494e+01  0.000000e+00
     vertex -5.613831e+01  4.973420e+01  0.000000e+00
   endloop
 endfacet
 facet normal  0.000000e+00 -0.000000e+00 -1.000000e+00
   outer loop
     vertex  8.982129e+00 -7.957472e+00  0.000000e+00
     vertex  5.195433e+01 -5.409018e+01  0.000000e+00
     vertex  6.816777e+00 -9.875806e+00  0.000000e+00
   endloop
 endfacet
 facet normal  0.000000e+00 -0.000000e+00 -1.000000e+00
   outer loop
     vertex -4.743340e+01  5.809537e+01  0.000000e+00
     vertex -8.982129e+00  7.957472e+00  0.000000e+00
     vertex -5.613831e+01  4.973420e+01  0.000000e+00
   endloop
 endfacet
 facet normal  0.000000e+00  0.000000e+00 -1.000000e+00
   outer loop
     vertex -4.743340e+01  5.809537e+01  0.000000e+00
     vertex -6.816777e+00  9.875806e+00  0.000000e+00
     vertex -8.982129e+00  7.957472e+00  0.000000e+00
   endloop
 endfacet
 facet normal -0.000000e+00  0.000000e+00 -1.000000e+00
   outer loop
     vertex  5.995821e+01 -4.505567e+01  0.000000e+00
     vertex  5.195433e+01 -5.409018e+01  0.000000e+00
     vertex  8.982129e+00 -7.957472e+00  0.000000e+00
   endloop
 endfacet
 facet normal  0.000000e+00  0.000000e+00 -1.000000e+00
   outer loop
     vertex  5.995821e+01 -4.505567e+01  0.000000e+00
     vertex  8.982129e+00 -7.957472e+00  0.000000e+00
     vertex  1.062547e+01 -5.576678e+00  0.000000e+00
   endloop
 endfacet
 facet normal  0.000000e+00  0.000000e+00 -1.000000e+00
   outer loop
     vertex -3.750000e+01  6.495191e+01  0.000000e+00
     vertex -4.255259e+00  1.122019e+01  0.000000e+00
     vertex -6.816777e+00  9.875806e+00  0.000000e+00
   endloop
 endfacet
 facet normal  0.000000e+00 -0.000000e+00 -1.000000e+00
   outer loop
     vertex -3.750000e+01  6.495191e+01  0.000000e+00
     vertex -6.816777e+00  9.875806e+00  0.000000e+00
     vertex -4.743340e+01  5.809537e+01  0.000000e+00
   endloop
 endfacet
 facet normal -0.000000e+00  0.000000e+00 -1.000000e+00
   outer loop
     vertex  6.640920e+01 -3.485424e+01  0.000000e+00
     vertex  5.995821e+01 -4.505567e+01  0.000000e+00
     vertex  1.062547e+01 -5.576678e+00  0.000000e+00
   endloop
 endfacet
 facet normal  0.000000e+00 -0.000000e+00 -1.000000e+00
   outer loop
     vertex -2.659537e+01  7.012622e+01  0.000000e+00
     vertex -4.255259e+00  1.122019e+01  0.000000e+00
     vertex -3.750000e+01  6.495191e+01  0.000000e+00
   endloop
 endfacet
 facet normal -0.000000e+00  0.000000e+00 -1.000000e+00
   outer loop
     vertex  7.114023e+01 -2.375010e+01  0.000000e+00
     vertex  6.640920e+01 -3.485424e+01  0.000000e+00
     vertex  1.062547e+01 -5.576678e+00  0.000000e+00
   endloop
 endfacet
 facet normal  0.000000e+00  0.000000e+00 -1.000000e+00
   outer loop
     vertex  7.114023e+01 -2.375010e+01  0.000000e+00
     vertex  1.062547e+01 -5.576678e+00  0.000000e+00
     vertex  1.165130e+01 -2.871788e+00  0.000000e+00
   endloop
 endfacet
 facet normal  0.000000e+00  0.000000e+00 -1.000000e+00
   outer loop
     vertex -1.500193e+01  7.348430e+01  0.000000e+00
     vertex -1.446440e+00  1.191251e+01  0.000000e+00
     vertex -4.255259e+00  1.122019e+01  0.000000e+00
   endloop
 endfacet
 facet normal  0.000000e+00 -0.000000e+00 -1.000000e+00
   outer loop
     vertex -1.500193e+01  7.348430e+01  0.000000e+00
     vertex -4.255259e+00  1.122019e+01  0.000000e+00
     vertex -2.659537e+01  7.012622e+01  0.000000e+00
   endloop
 endfacet
 facet normal  0.000000e+00  0.000000e+00 -1.000000e+00
   outer loop
     vertex  7.402877e+01 -1.203085e+01  0.000000e+00
     vertex  1.165130e+01 -2.871788e+00  0.000000e+00
     vertex  1.200000e+01 -2.939152e-15  0.000000e+00
   endloop
 endfacet
 facet normal -0.000000e+00  0.000000e+00 -1.000000e+00
   outer loop
     vertex  7.402877e+01 -1.203085e+01  0.000000e+00
     vertex  7.114023e+01 -2.375010e+01  0.000000e+00
     vertex  1.165130e+01 -2.871788e+00  0.000000e+00
   endloop
 endfacet
 facet normal  0.000000e+00  0.000000e+00 -1.000000e+00
   outer loop
     vertex -3.019946e+00  7.493917e+01  0.000000e+00
     vertex  1.446440e+00  1.191251e+01  0.000000e+00
     vertex -1.446440e+00  1.191251e+01  0.000000e+00
   endloop
 endfacet
 facet normal  0.000000e+00 -0.000000e+00 -1.000000e+00
   outer loop
     vertex -3.019946e+00  7.493917e+01  0.000000e+00
     vertex -1.446440e+00  1.191251e+01  0.000000e+00
     vertex -1.500193e+01  7.348430e+01  0.000000e+00
   endloop
 endfacet
 facet normal -0.000000e+00  0.000000e+00 -1.000000e+00
   outer loop
     vertex  7.500000e+01 -1.836970e-14  0.000000e+00
     vertex  7.402877e+01 -1.203085e+01  0.000000e+00
     vertex  1.200000e+01 -2.939152e-15  0.000000e+00
   endloop
 endfacet
 facet normal -0.000000e+00  0.000000e+00 -1.000000e+00
   outer loop
     vertex  9.040251e+00  7.445317e+01  0.000000e+00
     vertex  1.446440e+00  1.191251e+01  0.000000e+00
     vertex -3.019946e+00  7.493917e+01  0.000000e+00
   endloop
 endfacet
 facet normal  0.000000e+00  0.000000e+00 -1.000000e+00
   outer loop
     vertex  7.402877e+01  1.203085e+01  0.000000e+00
     vertex  1.200000e+01 -2.939152e-15  0.000000e+00
     vertex  1.165130e+01  2.871788e+00  0.000000e+00
   endloop
 endfacet
 facet normal  0.000000e+00 -0.000000e+00 -1.000000e+00
   outer loop
     vertex  7.402877e+01  1.203085e+01  0.000000e+00
     vertex  7.500000e+01 -1.836970e-14  0.000000e+00
     vertex  1.200000e+01 -2.939152e-15  0.000000e+00
   endloop
 endfacet
 facet normal  0.000000e+00  0.000000e+00 -1.000000e+00
   outer loop
     vertex  2.086631e+01  7.203886e+01  0.000000e+00
     vertex  4.255259e+00  1.122019e+01  0.000000e+00
     vertex  1.446440e+00  1.191251e+01  0.000000e+00
   endloop
 endfacet
 facet normal -0.000000e+00  0.000000e+00 -1.000000e+00
   outer loop
     vertex  2.086631e+01  7.203886e+01  0.000000e+00
     vertex  1.446440e+00  1.191251e+01  0.000000e+00
     vertex  9.040251e+00  7.445317e+01  0.000000e+00
   endloop
 endfacet
 facet normal  0.000000e+00  0.000000e+00 -1.000000e+00
   outer loop
     vertex  7.114023e+01  2.375010e+01  0.000000e+00
     vertex  1.165130e+01  2.871788e+00  0.000000e+00
     vertex  1.062547e+01  5.576678e+00  0.000000e+00
   endloop
 endfacet
 facet normal  0.000000e+00 -0.000000e+00 -1.000000e+00
   outer loop
     vertex  7.114023e+01  2.375010e+01  0.000000e+00
     vertex  7.402877e+01  1.203085e+01  0.000000e+00
     vertex  1.165130e+01  2.871788e+00  0.000000e+00
   endloop
 endfacet
 facet normal  0.000000e+00  0.000000e+00 -1.000000e+00
   outer loop
     vertex  3.215194e+01  6.775878e+01  0.000000e+00
     vertex  6.816777e+00  9.875806e+00  0.000000e+00
     vertex  4.255259e+00  1.122019e+01  0.000000e+00
   endloop
 endfacet
 facet normal -0.000000e+00  0.000000e+00 -1.000000e+00
   outer loop
     vertex  3.215194e+01  6.775878e+01  0.000000e+00
     vertex  4.255259e+00  1.122019e+01  0.000000e+00
     vertex  2.086631e+01  7.203886e+01  0.000000e+00
   endloop
 endfacet
 facet normal  0.000000e+00 -0.000000e+00 -1.000000e+00
   outer loop
     vertex  6.640920e+01  3.485424e+01  0.000000e+00
     vertex  7.114023e+01  2.375010e+01  0.000000e+00
     vertex  1.062547e+01  5.576678e+00  0.000000e+00
   endloop
 endfacet
 facet normal -0.000000e+00  0.000000e+00 -1.000000e+00
   outer loop
     vertex  4.260486e+01  6.172379e+01  0.000000e+00
     vertex  6.816777e+00  9.875806e+00  0.000000e+00
     vertex  3.215194e+01  6.775878e+01  0.000000e+00
   endloop
 endfacet
 facet normal  0.000000e+00  0.000000e+00 -1.000000e+00
   outer loop
     vertex  5.995821e+01  4.505567e+01  0.000000e+00
     vertex  1.062547e+01  5.576678e+00  0.000000e+00
     vertex  8.982129e+00  7.957472e+00  0.000000e+00
   endloop
 endfacet
 facet normal  0.000000e+00 -0.000000e+00 -1.000000e+00
   outer loop
     vertex  5.995821e+01  4.505567e+01  0.000000e+00
     vertex  6.640920e+01  3.485424e+01  0.000000e+00
     vertex  1.062547e+01  5.576678e+00  0.000000e+00
   endloop
 endfacet
 facet normal  0.000000e+00  0.000000e+00 -1.000000e+00
   outer loop
     vertex  5.195433e+01  5.409018e+01  0.000000e+00
     vertex  8.982129e+00  7.957472e+00  0.000000e+00
     vertex  6.816777e+00  9.875806e+00  0.000000e+00
   endloop
 endfacet
 facet normal -0.000000e+00  0.000000e+00 -1.000000e+00
   outer loop
     vertex  5.195433e+01  5.409018e+01  0.000000e+00
     vertex  6.816777e+00  9.875806e+00  0.000000e+00
     vertex  4.260486e+01  6.172379e+01  0.000000e+00
   endloop
 endfacet
 facet normal  0.000000e+00 -0.000000e+00 -1.000000e+00
   outer loop
     vertex  5.195433e+01  5.409018e+01  0.000000e+00
     vertex  5.995821e+01  4.505567e+01  0.000000e+00
     vertex  8.982129e+00  7.957472e+00  0.000000e+00
   endloop
 endfacet
 facet normal  9.927089e-01  1.205367e-01  0.000000e+00
   outer loop
     vertex  1.165130e+01  2.871788e+00  5.000000e+00
     vertex  1.200000e+01 -2.939152e-15  5.000000e+00
     vertex  1.200000e+01 -2.939152e-15  1.000000e+00
   endloop
 endfacet
 facet normal  9.927089e-01  1.205367e-01  0.000000e+00
   outer loop
     vertex  1.165130e+01  2.871788e+00  5.000000e+00
     vertex  1.200000e+01 -2.939152e-15  1.000000e+00
     vertex  1.165130e+01  2.871788e+00  1.000000e+00
   endloop
 endfacet
 facet normal  9.350162e-01  3.546049e-01  0.000000e+00
   outer loop
     vertex  1.165130e+01  2.871788e+00  5.000000e+00
     vertex  1.165130e+01  2.871788e+00  1.000000e+00
     vertex  1.062547e+01  5.576678e+00  1.000000e+00
   endloop
 endfacet
 facet normal  9.350162e-01  3.546049e-01  0.000000e+00
   outer loop
     vertex  1.062547e+01  5.576678e+00  5.000000e+00
     vertex  1.165130e+01  2.871788e+00  5.000000e+00
     vertex  1.062547e+01  5.576678e+00  1.000000e+00
   endloop
 endfacet
 facet normal  8.229839e-01  5.680647e-01  0.000000e+00
   outer loop
     vertex  8.982129e+00  7.957472e+00  5.000000e+00
     vertex  1.062547e+01  5.576678e+00  1.000000e+00
     vertex  8.982129e+00  7.957472e+00  1.000000e+00
   endloop
 endfacet
 facet normal  8.229839e-01  5.680647e-01  0.000000e+00
   outer loop
     vertex  8.982129e+00  7.957472e+00  5.000000e+00
     vertex  1.062547e+01  5.576678e+00  5.000000e+00
     vertex  1.062547e+01  5.576678e+00  1.000000e+00
   endloop
 endfacet
 facet normal  6.631227e-01  7.485107e-01  0.000000e+00
   outer loop
     vertex  6.816777e+00  9.875806e+00  5.000000e+00
     vertex  8.982129e+00  7.957472e+00  1.000000e+00
     vertex  6.816777e+00  9.875806e+00  1.000000e+00
   endloop
 endfacet
 facet normal  6.631227e-01  7.485107e-01  0.000000e+00
   outer loop
     vertex  6.816777e+00  9.875806e+00  5.000000e+00
     vertex  8.982129e+00  7.957472e+00  5.000000e+00
     vertex  8.982129e+00  7.957472e+00  1.000000e+00
   endloop
 endfacet
 facet normal  4.647232e-01  8.854560e-01  0.000000e+00
   outer loop
     vertex  4.255259e+00  1.122019e+01  5.000000e+00
     vertex  6.816777e+00  9.875806e+00  1.000000e+00
     vertex  4.255259e+00  1.122019e+01  1.000000e+00
   endloop
 endfacet
 facet normal  4.647232e-01  8.854560e-01  0.000000e+00
   outer loop
     vertex  4.255259e+00  1.122019e+01  5.000000e+00
     vertex  6.816777e+00  9.875806e+00  5.000000e+00
     vertex  6.816777e+00  9.875806e+00  1.000000e+00
   endloop
 endfacet
 facet normal  2.393157e-01  9.709418e-01  0.000000e+00
   outer loop
     vertex  1.446440e+00  1.191251e+01  5.000000e+00
     vertex  4.255259e+00  1.122019e+01  1.000000e+00
     vertex  1.446440e+00  1.191251e+01  1.000000e+00
   endloop
 endfacet
 facet normal  2.393157e-01  9.709418e-01  0.000000e+00
   outer loop
     vertex  1.446440e+00  1.191251e+01  5.000000e+00
     vertex  4.255259e+00  1.122019e+01  5.000000e+00
     vertex  4.255259e+00  1.122019e+01  1.000000e+00
   endloop
 endfacet
 facet normal  0.000000e+00  1.000000e+00  0.000000e+00
   outer loop
     vertex -1.446440e+00  1.191251e+01  5.000000e+00
     vertex  1.446440e+00  1.191251e+01  1.000000e+00
     vertex -1.446440e+00  1.191251e+01  1.000000e+00
   endloop
 endfacet
 facet normal -0.000000e+00  1.000000e+00  0.000000e+00
   outer loop
     vertex -1.446440e+00  1.191251e+01  5.000000e+00
     vertex  1.446440e+00  1.191251e+01  5.000000e+00
     vertex  1.446440e+00  1.191251e+01  1.000000e+00
   endloop
 endfacet
 facet normal -2.393157e-01  9.709418e-01  0.000000e+00
   outer loop
     vertex -4.255259e+00  1.122019e+01  5.000000e+00
     vertex -1.446440e+00  1.191251e+01  1.000000e+00
     vertex -4.255259e+00  1.122019e+01  1.000000e+00
   endloop
 endfacet
 facet normal -4.647232e-01  8.854560e-01  0.000000e+00
   outer loop
     vertex -4.255259e+00  1.122019e+01  5.000000e+00
     vertex -4.255259e+00  1.122019e+01  1.000000e+00
     vertex -6.816777e+00  9.875806e+00  1.000000e+00
   endloop
 endfacet
 facet normal -2.393157e-01  9.709418e-01  0.000000e+00
   outer loop
     vertex -4.255259e+00  1.122019e+01  5.000000e+00
     vertex -1.446440e+00  1.191251e+01  5.000000e+00
     vertex -1.446440e+00  1.191251e+01  1.000000e+00
   endloop
 endfacet
 facet normal -4.647232e-01  8.854560e-01  0.000000e+00
   outer loop
     vertex -6.816777e+00  9.875806e+00  5.000000e+00
     vertex -4.255259e+00  1.122019e+01  5.000000e+00
     vertex -6.816777e+00  9.875806e+00  1.000000e+00
   endloop
 endfacet
 facet normal -6.631227e-01  7.485107e-01  0.000000e+00
   outer loop
     vertex -8.982129e+00  7.957472e+00  5.000000e+00
     vertex -6.816777e+00  9.875806e+00  1.000000e+00
     vertex -8.982129e+00  7.957472e+00  1.000000e+00
   endloop
 endfacet
 facet normal -6.631227e-01  7.485107e-01  0.000000e+00
   outer loop
     vertex -8.982129e+00  7.957472e+00  5.000000e+00
     vertex -6.816777e+00  9.875806e+00  5.000000e+00
     vertex -6.816777e+00  9.875806e+00  1.000000e+00
   endloop
 endfacet
 facet normal -8.229839e-01  5.680647e-01  0.000000e+00
   outer loop
     vertex -1.062547e+01  5.576678e+00  5.000000e+00
     vertex -8.982129e+00  7.957472e+00  1.000000e+00
     vertex -1.062547e+01  5.576678e+00  1.000000e+00
   endloop
 endfacet
 facet normal -8.229839e-01  5.680647e-01  0.000000e+00
   outer loop
     vertex -1.062547e+01  5.576678e+00  5.000000e+00
     vertex -8.982129e+00  7.957472e+00  5.000000e+00
     vertex -8.982129e+00  7.957472e+00  1.000000e+00
   endloop
 endfacet
 facet normal -9.350162e-01  3.546049e-01  0.000000e+00
   outer loop
     vertex -1.165130e+01  2.871788e+00  5.000000e+00
     vertex -1.062547e+01  5.576678e+00  5.000000e+00
     vertex -1.062547e+01  5.576678e+00  1.000000e+00
   endloop
 endfacet
 facet normal -9.350162e-01  3.546049e-01  0.000000e+00
   outer loop
     vertex -1.165130e+01  2.871788e+00  5.000000e+00
     vertex -1.062547e+01  5.576678e+00  1.000000e+00
     vertex -1.165130e+01  2.871788e+00  1.000000e+00
   endloop
 endfacet
 facet normal -9.927089e-01  1.205367e-01  0.000000e+00
   outer loop
     vertex -1.200000e+01  1.212772e-14  5.000000e+00
     vertex -1.165130e+01  2.871788e+00  5.000000e+00
     vertex -1.165130e+01  2.871788e+00  1.000000e+00
   endloop
 endfacet
 facet normal -9.927089e-01  1.205367e-01  0.000000e+00
   outer loop
     vertex -1.200000e+01  1.212772e-14  5.000000e+00
     vertex -1.165130e+01  2.871788e+00  1.000000e+00
     vertex -1.200000e+01  1.212772e-14  1.000000e+00
   endloop
 endfacet
 facet normal -9.927089e-01 -1.205367e-01  0.000000e+00
   outer loop
     vertex -1.165130e+01 -2.871788e+00  5.000000e+00
     vertex -1.200000e+01  1.212772e-14  5.000000e+00
     vertex -1.200000e+01  1.212772e-14  1.000000e+00
   endloop
 endfacet
 facet normal -9.927089e-01 -1.205367e-01 -0.000000e+00
   outer loop
     vertex -1.165130e+01 -2.871788e+00  5.000000e+00
     vertex -1.200000e+01  1.212772e-14  1.000000e+00
     vertex -1.165130e+01 -2.871788e+00  1.000000e+00
   endloop
 endfacet
 facet normal -9.350162e-01 -3.546049e-01  0.000000e+00
   outer loop
     vertex -1.062547e+01 -5.576678e+00  5.000000e+00
     vertex -1.165130e+01 -2.871788e+00  5.000000e+00
     vertex -1.165130e+01 -2.871788e+00  1.000000e+00
   endloop
 endfacet
 facet normal -9.350162e-01 -3.546049e-01 -0.000000e+00
   outer loop
     vertex -1.062547e+01 -5.576678e+00  5.000000e+00
     vertex -1.165130e+01 -2.871788e+00  1.000000e+00
     vertex -1.062547e+01 -5.576678e+00  1.000000e+00
   endloop
 endfacet
 facet normal -8.229839e-01 -5.680647e-01  0.000000e+00
   outer loop
     vertex -8.982129e+00 -7.957472e+00  5.000000e+00
     vertex -1.062547e+01 -5.576678e+00  5.000000e+00
     vertex -1.062547e+01 -5.576678e+00  1.000000e+00
   endloop
 endfacet
 facet normal -8.229839e-01 -5.680647e-01 -0.000000e+00
   outer loop
     vertex -8.982129e+00 -7.957472e+00  5.000000e+00
     vertex -1.062547e+01 -5.576678e+00  1.000000e+00
     vertex -8.982129e+00 -7.957472e+00  1.000000e+00
   endloop
 endfacet
 facet normal -6.631227e-01 -7.485107e-01  0.000000e+00
   outer loop
     vertex -6.816777e+00 -9.875806e+00  5.000000e+00
     vertex -8.982129e+00 -7.957472e+00  5.000000e+00
     vertex -8.982129e+00 -7.957472e+00  1.000000e+00
   endloop
 endfacet
 facet normal -6.631227e-01 -7.485107e-01 -0.000000e+00
   outer loop
     vertex -6.816777e+00 -9.875806e+00  5.000000e+00
     vertex -8.982129e+00 -7.957472e+00  1.000000e+00
     vertex -6.816777e+00 -9.875806e+00  1.000000e+00
   endloop
 endfacet
 facet normal -4.647232e-01 -8.854560e-01  0.000000e+00
   outer loop
     vertex -4.255259e+00 -1.122019e+01  5.000000e+00
     vertex -6.816777e+00 -9.875806e+00  5.000000e+00
     vertex -6.816777e+00 -9.875806e+00  1.000000e+00
   endloop
 endfacet
 facet normal -4.647232e-01 -8.854560e-01 -0.000000e+00
   outer loop
     vertex -4.255259e+00 -1.122019e+01  5.000000e+00
     vertex -6.816777e+00 -9.875806e+00  1.000000e+00
     vertex -4.255259e+00 -1.122019e+01  1.000000e+00
   endloop
 endfacet
 facet normal -2.393157e-01 -9.709418e-01 -0.000000e+00
   outer loop
     vertex -4.255259e+00 -1.122019e+01  5.000000e+00
     vertex -4.255259e+00 -1.122019e+01  1.000000e+00
     vertex -1.446440e+00 -1.191251e+01  1.000000e+00
   endloop
 endfacet
 facet normal -2.393157e-01 -9.709418e-01 -0.000000e+00
   outer loop
     vertex -1.446440e+00 -1.191251e+01  5.000000e+00
     vertex -4.255259e+00 -1.122019e+01  5.000000e+00
     vertex -1.446440e+00 -1.191251e+01  1.000000e+00
   endloop
 endfacet
 facet normal -2.456177e-15 -1.000000e+00  0.000000e+00
   outer loop
     vertex  1.446440e+00 -1.191251e+01  5.000000e+00
     vertex -1.446440e+00 -1.191251e+01  5.000000e+00
     vertex -1.446440e+00 -1.191251e+01  1.000000e+00
   endloop
 endfacet
 facet normal -2.456177e-15 -1.000000e+00 -0.000000e+00
   outer loop
     vertex  1.446440e+00 -1.191251e+01  5.000000e+00
     vertex -1.446440e+00 -1.191251e+01  1.000000e+00
     vertex  1.446440e+00 -1.191251e+01  1.000000e+00
   endloop
 endfacet
 facet normal  2.393157e-01 -9.709418e-01  0.000000e+00
   outer loop
     vertex  4.255259e+00 -1.122019e+01  5.000000e+00
     vertex  1.446440e+00 -1.191251e+01  5.000000e+00
     vertex  1.446440e+00 -1.191251e+01  1.000000e+00
   endloop
 endfacet
 facet normal  2.393157e-01 -9.709418e-01  0.000000e+00
   outer loop
     vertex  4.255259e+00 -1.122019e+01  5.000000e+00
     vertex  1.446440e+00 -1.191251e+01  1.000000e+00
     vertex  4.255259e+00 -1.122019e+01  1.000000e+00
   endloop
 endfacet
 facet normal  4.647232e-01 -8.854560e-01  0.000000e+00
   outer loop
     vertex  4.255259e+00 -1.122019e+01  5.000000e+00
     vertex  4.255259e+00 -1.122019e+01  1.000000e+00
     vertex  6.816777e+00 -9.875806e+00  1.000000e+00
   endloop
 endfacet
 facet normal  4.647232e-01 -8.854560e-01  0.000000e+00
   outer loop
     vertex  6.816777e+00 -9.875806e+00  5.000000e+00
     vertex  4.255259e+00 -1.122019e+01  5.000000e+00
     vertex  6.816777e+00 -9.875806e+00  1.000000e+00
   endloop
 endfacet
 facet normal  6.631227e-01 -7.485107e-01  0.000000e+00
   outer loop
     vertex  8.982129e+00 -7.957472e+00  5.000000e+00
     vertex  6.816777e+00 -9.875806e+00  5.000000e+00
     vertex  6.816777e+00 -9.875806e+00  1.000000e+00
   endloop
 endfacet
 facet normal  6.631227e-01 -7.485107e-01  0.000000e+00
   outer loop
     vertex  8.982129e+00 -7.957472e+00  5.000000e+00
     vertex  6.816777e+00 -9.875806e+00  1.000000e+00
     vertex  8.982129e+00 -7.957472e+00  1.000000e+00
   endloop
 endfacet
 facet normal  8.229839e-01 -5.680647e-01  0.000000e+00
   outer loop
     vertex  1.062547e+01 -5.576678e+00  5.000000e+00
     vertex  8.982129e+00 -7.957472e+00  1.000000e+00
     vertex  1.062547e+01 -5.576678e+00  1.000000e+00
   endloop
 endfacet
 facet normal  8.229839e-01 -5.680647e-01  0.000000e+00
   outer loop
     vertex  1.062547e+01 -5.576678e+00  5.000000e+00
     vertex  8.982129e+00 -7.957472e+00  5.000000e+00
     vertex  8.982129e+00 -7.957472e+00  1.000000e+00
   endloop
 endfacet
 facet normal  9.350162e-01 -3.546049e-01  0.000000e+00
   outer loop
     vertex  1.165130e+01 -2.871788e+00  5.000000e+00
     vertex  1.062547e+01 -5.576678e+00  1.000000e+00
     vertex  1.165130e+01 -2.871788e+00  1.000000e+00
   endloop
 endfacet
 facet normal  9.927089e-01 -1.205367e-01  0.000000e+00
   outer loop
     vertex  1.165130e+01 -2.871788e+00  5.000000e+00
     vertex  1.165130e+01 -2.871788e+00  1.000000e+00
     vertex  1.200000e+01 -2.939152e-15  1.000000e+00
   endloop
 endfacet
 facet normal  9.350162e-01 -3.546049e-01  0.000000e+00
   outer loop
     vertex  1.165130e+01 -2.871788e+00  5.000000e+00
     vertex  1.062547e+01 -5.576678e+00  5.000000e+00
     vertex  1.062547e+01 -5.576678e+00  1.000000e+00
   endloop
 endfacet
 facet normal  9.927089e-01 -1.205367e-01  0.000000e+00
   outer loop
     vertex  1.200000e+01 -2.939152e-15  5.000000e+00
     vertex  1.165130e+01 -2.871788e+00  5.000000e+00
     vertex  1.200000e+01 -2.939152e-15  1.000000e+00
   endloop
 endfacet
 facet normal  0.000000e+00  0.000000e+00 -1.000000e+00
   outer loop
     vertex -4.949747e+00 -4.949747e+00  0.000000e+00
     vertex -8.982129e+00 -7.957472e+00  0.000000e+00
     vertex -1.062547e+01 -5.576678e+00  0.000000e+00
   endloop
 endfacet
 facet normal  0.000000e+00  0.000000e+00 -1.000000e+00
   outer loop
     vertex -4.949747e+00 -4.949747e+00  0.000000e+00
     vertex -6.816777e+00 -9.875806e+00  0.000000e+00
     vertex -8.982129e+00 -7.957472e+00  0.000000e+00
   endloop
 endfacet
 facet normal  0.000000e+00 -0.000000e+00 -1.000000e+00
   outer loop
     vertex -4.949747e+00 -4.949747e+00  0.000000e+00
     vertex -4.255259e+00 -1.122019e+01  0.000000e+00
     vertex -6.816777e+00 -9.875806e+00  0.000000e+00
   endloop
 endfacet
 facet normal  0.000000e+00  0.000000e+00 -1.000000e+00
   outer loop
     vertex -7.000000e+00  8.572528e-16  0.000000e+00
     vertex -1.200000e+01  1.212772e-14  0.000000e+00
     vertex -1.165130e+01  2.871788e+00  0.000000e+00
   endloop
 endfacet
 facet normal -0.000000e+00  0.000000e+00 -1.000000e+00
   outer loop
     vertex -7.000000e+00  8.572528e-16  0.000000e+00
     vertex -1.165130e+01 -2.871788e+00  0.000000e+00
     vertex -1.200000e+01  1.212772e-14  0.000000e+00
   endloop
 endfacet
 facet normal  0.000000e+00  0.000000e+00 -1.000000e+00
   outer loop
     vertex -7.000000e+00  8.572528e-16  0.000000e+00
     vertex -1.062547e+01 -5.576678e+00  0.000000e+00
     vertex -1.165130e+01 -2.871788e+00  0.000000e+00
   endloop
 endfacet
 facet normal  0.000000e+00 -0.000000e+00 -1.000000e+00
   outer loop
     vertex -7.000000e+00  8.572528e-16  0.000000e+00
     vertex -4.949747e+00 -4.949747e+00  0.000000e+00
     vertex -1.062547e+01 -5.576678e+00  0.000000e+00
   endloop
 endfacet
 facet normal  0.000000e+00  0.000000e+00 -1.000000e+00
   outer loop
     vertex -1.285879e-15 -7.000000e+00  0.000000e+00
     vertex -1.446440e+00 -1.191251e+01  0.000000e+00
     vertex -4.255259e+00 -1.122019e+01  0.000000e+00
   endloop
 endfacet
 facet normal  0.000000e+00 -0.000000e+00 -1.000000e+00
   outer loop
     vertex -1.285879e-15 -7.000000e+00  0.000000e+00
     vertex  1.446440e+00 -1.191251e+01  0.000000e+00
     vertex -1.446440e+00 -1.191251e+01  0.000000e+00
   endloop
 endfacet
 facet normal -0.000000e+00  0.000000e+00 -1.000000e+00
   outer loop
     vertex -1.285879e-15 -7.000000e+00  0.000000e+00
     vertex -4.255259e+00 -1.122019e+01  0.000000e+00
     vertex -4.949747e+00 -4.949747e+00  0.000000e+00
   endloop
 endfacet
 facet normal -0.000000e+00  0.000000e+00 -1.000000e+00
   outer loop
     vertex  4.255259e+00 -1.122019e+01  0.000000e+00
     vertex  1.446440e+00 -1.191251e+01  0.000000e+00
     vertex -1.285879e-15 -7.000000e+00  0.000000e+00
   endloop
 endfacet
 facet normal  0.000000e+00 -0.000000e+00 -1.000000e+00
   outer loop
     vertex -1.062547e+01  5.576678e+00  0.000000e+00
     vertex -7.000000e+00  8.572528e-16  0.000000e+00
     vertex -1.165130e+01  2.871788e+00  0.000000e+00
   endloop
 endfacet
 facet normal  0.000000e+00  0.000000e+00 -1.000000e+00
   outer loop
     vertex -4.949747e+00  4.949747e+00  0.000000e+00
     vertex -1.062547e+01  5.576678e+00  0.000000e+00
     vertex -8.982129e+00  7.957472e+00  0.000000e+00
   endloop
 endfacet
 facet normal -0.000000e+00  0.000000e+00 -1.000000e+00
   outer loop
     vertex -4.949747e+00  4.949747e+00  0.000000e+00
     vertex -7.000000e+00  8.572528e-16  0.000000e+00
     vertex -1.062547e+01  5.576678e+00  0.000000e+00
   endloop
 endfacet
 facet normal  0.000000e+00 -0.000000e+00 -1.000000e+00
   outer loop
     vertex  4.949747e+00 -4.949747e+00  0.000000e+00
     vertex  6.816777e+00 -9.875806e+00  0.000000e+00
     vertex  4.255259e+00 -1.122019e+01  0.000000e+00
   endloop
 endfacet
 facet normal  0.000000e+00  0.000000e+00 -1.000000e+00
   outer loop
     vertex  4.949747e+00 -4.949747e+00  0.000000e+00
     vertex  4.255259e+00 -1.122019e+01  0.000000e+00
     vertex -1.285879e-15 -7.000000e+00  0.000000e+00
   endloop
 endfacet
 facet normal -0.000000e+00  0.000000e+00 -1.000000e+00
   outer loop
     vertex  8.982129e+00 -7.957472e+00  0.000000e+00
     vertex  6.816777e+00 -9.875806e+00  0.000000e+00
     vertex  4.949747e+00 -4.949747e+00  0.000000e+00
   endloop
 endfacet
 facet normal  0.000000e+00 -0.000000e+00 -1.000000e+00
   outer loop
     vertex -6.816777e+00  9.875806e+00  0.000000e+00
     vertex -4.949747e+00  4.949747e+00  0.000000e+00
     vertex -8.982129e+00  7.957472e+00  0.000000e+00
   endloop
 endfacet
 facet normal -0.000000e+00  0.000000e+00 -1.000000e+00
   outer loop
     vertex  1.062547e+01 -5.576678e+00  0.000000e+00
     vertex  8.982129e+00 -7.957472e+00  0.000000e+00
     vertex  4.949747e+00 -4.949747e+00  0.000000e+00
   endloop
 endfacet
 facet normal  0.000000e+00  0.000000e+00 -1.000000e+00
   outer loop
     vertex -4.255259e+00  1.122019e+01  0.000000e+00
     vertex -4.949747e+00  4.949747e+00  0.000000e+00
     vertex -6.816777e+00  9.875806e+00  0.000000e+00
   endloop
 endfacet
 facet normal -0.000000e+00  0.000000e+00 -1.000000e+00
   outer loop
     vertex  4.286264e-16  7.000000e+00  0.000000e+00
     vertex -4.949747e+00  4.949747e+00  0.000000e+00
     vertex -4.255259e+00  1.122019e+01  0.000000e+00
   endloop
 endfacet
 facet normal  0.000000e+00 -0.000000e+00 -1.000000e+00
   outer loop
     vertex  7.000000e+00  0.000000e+00  0.000000e+00
     vertex  1.062547e+01 -5.576678e+00  0.000000e+00
     vertex  4.949747e+00 -4.949747e+00  0.000000e+00
   endloop
 endfacet
 facet normal -0.000000e+00  0.000000e+00 -1.000000e+00
   outer loop
     vertex  1.165130e+01 -2.871788e+00  0.000000e+00
     vertex  1.062547e+01 -5.576678e+00  0.000000e+00
     vertex  7.000000e+00  0.000000e+00  0.000000e+00
   endloop
 endfacet
 facet normal  0.000000e+00 -0.000000e+00 -1.000000e+00
   outer loop
     vertex -1.446440e+00  1.191251e+01  0.000000e+00
     vertex  4.286264e-16  7.000000e+00  0.000000e+00
     vertex -4.255259e+00  1.122019e+01  0.000000e+00
   endloop
 endfacet
 facet normal -0.000000e+00  0.000000e+00 -1.000000e+00
   outer loop
     vertex  1.200000e+01 -2.939152e-15  0.000000e+00
     vertex  1.165130e+01 -2.871788e+00  0.000000e+00
     vertex  7.000000e+00  0.000000e+00  0.000000e+00
   endloop
 endfacet
 facet normal -0.000000e+00  0.000000e+00 -1.000000e+00
   outer loop
     vertex  1.446440e+00  1.191251e+01  0.000000e+00
     vertex  4.286264e-16  7.000000e+00  0.000000e+00
     vertex -1.446440e+00  1.191251e+01  0.000000e+00
   endloop
 endfacet
 facet normal  0.000000e+00 -0.000000e+00 -1.000000e+00
   outer loop
     vertex  1.165130e+01  2.871788e+00  0.000000e+00
     vertex  1.200000e+01 -2.939152e-15  0.000000e+00
     vertex  7.000000e+00  0.000000e+00  0.000000e+00
   endloop
 endfacet
 facet normal  0.000000e+00 -0.000000e+00 -1.000000e+00
   outer loop
     vertex  4.255259e+00  1.122019e+01  0.000000e+00
     vertex  4.949747e+00  4.949747e+00  0.000000e+00
     vertex  4.286264e-16  7.000000e+00  0.000000e+00
   endloop
 endfacet
 facet normal -0.000000e+00  0.000000e+00 -1.000000e+00
   outer loop
     vertex  4.255259e+00  1.122019e+01  0.000000e+00
     vertex  4.286264e-16  7.000000e+00  0.000000e+00
     vertex  1.446440e+00  1.191251e+01  0.000000e+00
   endloop
 endfacet
 facet normal  0.000000e+00  0.000000e+00 -1.000000e+00
   outer loop
     vertex  1.062547e+01  5.576678e+00  0.000000e+00
     vertex  7.000000e+00  0.000000e+00  0.000000e+00
     vertex  4.949747e+00  4.949747e+00  0.000000e+00
   endloop
 endfacet
 facet normal  0.000000e+00 -0.000000e+00 -1.000000e+00
   outer loop
     vertex  1.062547e+01  5.576678e+00  0.000000e+00
     vertex  1.165130e+01  2.871788e+00  0.000000e+00
     vertex  7.000000e+00  0.000000e+00  0.000000e+00
   endloop
 endfacet
 facet normal -0.000000e+00  0.000000e+00 -1.000000e+00
   outer loop
     vertex  6.816777e+00  9.875806e+00  0.000000e+00
     vertex  4.949747e+00  4.949747e+00  0.000000e+00
     vertex  4.255259e+00  1.122019e+01  0.000000e+00
   endloop
 endfacet
 facet normal -0.000000e+00  0.000000e+00 -1.000000e+00
   outer loop
     vertex  8.982129e+00  7.957472e+00  0.000000e+00
     vertex  4.949747e+00  4.949747e+00  0.000000e+00
     vertex  6.816777e+00  9.875806e+00  0.000000e+00
   endloop
 endfacet
 facet normal  0.000000e+00 -0.000000e+00 -1.000000e+00
   outer loop
     vertex  8.982129e+00  7.957472e+00  0.000000e+00
     vertex  1.062547e+01  5.576678e+00  0.000000e+00
     vertex  4.949747e+00  4.949747e+00  0.000000e+00
   endloop
 endfacet
 facet normal  0.000000e+00  0.000000e+00  1.000000e+00
   outer loop
     vertex -4.949747e+00 -4.949747e+00  5.000000e+00
     vertex -1.062547e+01 -5.576678e+00  5.000000e+00
     vertex -8.982129e+00 -7.957472e+00  5.000000e+00
   endloop
 endfacet
 facet normal  0.000000e+00  0.000000e+00  1.000000e+00
   outer loop
     vertex -4.949747e+00 -4.949747e+00  5.000000e+00
     vertex -8.982129e+00 -7.957472e+00  5.000000e+00
     vertex -6.816777e+00 -9.875806e+00  5.000000e+00
   endloop
 endfacet
 facet normal  0.000000e+00  0.000000e+00  1.000000e+00
   outer loop
     vertex -4.949747e+00 -4.949747e+00  5.000000e+00
     vertex -6.816777e+00 -9.875806e+00  5.000000e+00
     vertex -4.255259e+00 -1.122019e+01  5.000000e+00
   endloop
 endfacet
 facet normal  0.000000e+00  0.000000e+00  1.000000e+00
   outer loop
     vertex -7.000000e+00  8.572528e-16  5.000000e+00
     vertex -1.165130e+01  2.871788e+00  5.000000e+00
     vertex -1.200000e+01  1.212772e-14  5.000000e+00
   endloop
 endfacet
 facet normal  0.000000e+00  0.000000e+00  1.000000e+00
   outer loop
     vertex -7.000000e+00  8.572528e-16  5.000000e+00
     vertex -1.200000e+01  1.212772e-14  5.000000e+00
     vertex -1.165130e+01 -2.871788e+00  5.000000e+00
   endloop
 endfacet
 facet normal  0.000000e+00  0.000000e+00  1.000000e+00
   outer loop
     vertex -7.000000e+00  8.572528e-16  5.000000e+00
     vertex -1.165130e+01 -2.871788e+00  5.000000e+00
     vertex -1.062547e+01 -5.576678e+00  5.000000e+00
   endloop
 endfacet
 facet normal  0.000000e+00  0.000000e+00  1.000000e+00
   outer loop
     vertex -7.000000e+00  8.572528e-16  5.000000e+00
     vertex -1.062547e+01 -5.576678e+00  5.000000e+00
     vertex -4.949747e+00 -4.949747e+00  5.000000e+00
   endloop
 endfacet
 facet normal  0.000000e+00  0.000000e+00  1.000000e+00
   outer loop
     vertex -1.285879e-15 -7.000000e+00  5.000000e+00
     vertex -4.255259e+00 -1.122019e+01  5.000000e+00
     vertex -1.446440e+00 -1.191251e+01  5.000000e+00
   endloop
 endfacet
 facet normal  0.000000e+00  0.000000e+00  1.000000e+00
   outer loop
     vertex -1.285879e-15 -7.000000e+00  5.000000e+00
     vertex -1.446440e+00 -1.191251e+01  5.000000e+00
     vertex  1.446440e+00 -1.191251e+01  5.000000e+00
   endloop
 endfacet
 facet normal  0.000000e+00  0.000000e+00  1.000000e+00
   outer loop
     vertex -1.285879e-15 -7.000000e+00  5.000000e+00
     vertex -4.949747e+00 -4.949747e+00  5.000000e+00
     vertex -4.255259e+00 -1.122019e+01  5.000000e+00
   endloop
 endfacet
 facet normal  0.000000e+00  0.000000e+00  1.000000e+00
   outer loop
     vertex  4.255259e+00 -1.122019e+01  5.000000e+00
     vertex -1.285879e-15 -7.000000e+00  5.000000e+00
     vertex  1.446440e+00 -1.191251e+01  5.000000e+00
   endloop
 endfacet
 facet normal  0.000000e+00  0.000000e+00  1.000000e+00
   outer loop
     vertex -1.062547e+01  5.576678e+00  5.000000e+00
     vertex -1.165130e+01  2.871788e+00  5.000000e+00
     vertex -7.000000e+00  8.572528e-16  5.000000e+00
   endloop
 endfacet
 facet normal  0.000000e+00  0.000000e+00  1.000000e+00
   outer loop
     vertex -4.949747e+00  4.949747e+00  5.000000e+00
     vertex -8.982129e+00  7.957472e+00  5.000000e+00
     vertex -1.062547e+01  5.576678e+00  5.000000e+00
   endloop
 endfacet
 facet normal  0.000000e+00  0.000000e+00  1.000000e+00
   outer loop
     vertex -4.949747e+00  4.949747e+00  5.000000e+00
     vertex -1.062547e+01  5.576678e+00  5.000000e+00
     vertex -7.000000e+00  8.572528e-16  5.000000e+00
   endloop
 endfacet
 facet normal  0.000000e+00  0.000000e+00  1.000000e+00
   outer loop
     vertex  4.949747e+00 -4.949747e+00  5.000000e+00
     vertex  4.255259e+00 -1.122019e+01  5.000000e+00
     vertex  6.816777e+00 -9.875806e+00  5.000000e+00
   endloop
 endfacet
 facet normal  0.000000e+00  0.000000e+00  1.000000e+00
   outer loop
     vertex  4.949747e+00 -4.949747e+00  5.000000e+00
     vertex -1.285879e-15 -7.000000e+00  5.000000e+00
     vertex  4.255259e+00 -1.122019e+01  5.000000e+00
   endloop
 endfacet
 facet normal  0.000000e+00  0.000000e+00  1.000000e+00
   outer loop
     vertex  8.982129e+00 -7.957472e+00  5.000000e+00
     vertex  4.949747e+00 -4.949747e+00  5.000000e+00
     vertex  6.816777e+00 -9.875806e+00  5.000000e+00
   endloop
 endfacet
 facet normal  0.000000e+00  0.000000e+00  1.000000e+00
   outer loop
     vertex -6.816777e+00  9.875806e+00  5.000000e+00
     vertex -8.982129e+00  7.957472e+00  5.000000e+00
     vertex -4.949747e+00  4.949747e+00  5.000000e+00
   endloop
 endfacet
 facet normal  0.000000e+00  0.000000e+00  1.000000e+00
   outer loop
     vertex  1.062547e+01 -5.576678e+00  5.000000e+00
     vertex  4.949747e+00 -4.949747e+00  5.000000e+00
     vertex  8.982129e+00 -7.957472e+00  5.000000e+00
   endloop
 endfacet
 facet normal  0.000000e+00  0.000000e+00  1.000000e+00
   outer loop
     vertex -4.255259e+00  1.122019e+01  5.000000e+00
     vertex -6.816777e+00  9.875806e+00  5.000000e+00
     vertex -4.949747e+00  4.949747e+00  5.000000e+00
   endloop
 endfacet
 facet normal  0.000000e+00  0.000000e+00  1.000000e+00
   outer loop
     vertex  4.286264e-16  7.000000e+00  5.000000e+00
     vertex -4.255259e+00  1.122019e+01  5.000000e+00
     vertex -4.949747e+00  4.949747e+00  5.000000e+00
   endloop
 endfacet
 facet normal  0.000000e+00  0.000000e+00  1.000000e+00
   outer loop
     vertex  7.000000e+00  0.000000e+00  5.000000e+00
     vertex  4.949747e+00 -4.949747e+00  5.000000e+00
     vertex  1.062547e+01 -5.576678e+00  5.000000e+00
   endloop
 endfacet
 facet normal  0.000000e+00  0.000000e+00  1.000000e+00
   outer loop
     vertex  1.165130e+01 -2.871788e+00  5.000000e+00
     vertex  7.000000e+00  0.000000e+00  5.000000e+00
     vertex  1.062547e+01 -5.576678e+00  5.000000e+00
   endloop
 endfacet
 facet normal  0.000000e+00  0.000000e+00  1.000000e+00
   outer loop
     vertex -1.446440e+00  1.191251e+01  5.000000e+00
     vertex -4.255259e+00  1.122019e+01  5.000000e+00
     vertex  4.286264e-16  7.000000e+00  5.000000e+00
   endloop
 endfacet
 facet normal  0.000000e+00  0.000000e+00  1.000000e+00
   outer loop
     vertex  1.200000e+01 -2.939152e-15  5.000000e+00
     vertex  7.000000e+00  0.000000e+00  5.000000e+00
     vertex  1.165130e+01 -2.871788e+00  5.000000e+00
   endloop
 endfacet
 facet normal  0.000000e+00  0.000000e+00  1.000000e+00
   outer loop
     vertex  1.446440e+00  1.191251e+01  5.000000e+00
     vertex -1.446440e+00  1.191251e+01  5.000000e+00
     vertex  4.286264e-16  7.000000e+00  5.000000e+00
   endloop
 endfacet
 facet normal  0.000000e+00  0.000000e+00  1.000000e+00
   outer loop
     vertex  1.165130e+01  2.871788e+00  5.000000e+00
     vertex  7.000000e+00  0.000000e+00  5.000000e+00
     vertex  1.200000e+01 -2.939152e-15  5.000000e+00
   endloop
 endfacet
 facet normal  0.000000e+00  0.000000e+00  1.000000e+00
   outer loop
     vertex  4.255259e+00  1.122019e+01  5.000000e+00
     vertex  4.286264e-16  7.000000e+00  5.000000e+00
     vertex  4.949747e+00  4.949747e+00  5.000000e+00
   endloop
 endfacet
 facet normal  0.000000e+00  0.000000e+00  1.000000e+00
   outer loop
     vertex  4.255259e+00  1.122019e+01  5.000000e+00
     vertex  1.446440e+00  1.191251e+01  5.000000e+00
     vertex  4.286264e-16  7.000000e+00  5.000000e+00
   endloop
 endfacet
 facet normal  0.000000e+00  0.000000e+00  1.000000e+00
   outer loop
     vertex  1.062547e+01  5.576678e+00  5.000000e+00
     vertex  4.949747e+00  4.949747e+00  5.000000e+00
     vertex  7.000000e+00  0.000000e+00  5.000000e+00
   endloop
 endfacet
 facet normal  0.000000e+00  0.000000e+00  1.000000e+00
   outer loop
     vertex  1.062547e+01  5.576678e+00  5.000000e+00
     vertex  7.000000e+00  0.000000e+00  5.000000e+00
     vertex  1.165130e+01  2.871788e+00  5.000000e+00
   endloop
 endfacet
 facet normal  0.000000e+00  0.000000e+00  1.000000e+00
   outer loop
     vertex  6.816777e+00  9.875806e+00  5.000000e+00
     vertex  4.255259e+00  1.122019e+01  5.000000e+00
     vertex  4.949747e+00  4.949747e+00  5.000000e+00
   endloop
 endfacet
 facet normal  0.000000e+00  0.000000e+00  1.000000e+00
   outer loop
     vertex  8.982129e+00  7.957472e+00  5.000000e+00
     vertex  6.816777e+00  9.875806e+00  5.000000e+00
     vertex  4.949747e+00  4.949747e+00  5.000000e+00
   endloop
 endfacet
 facet normal  0.000000e+00  0.000000e+00  1.000000e+00
   outer loop
     vertex  8.982129e+00  7.957472e+00  5.000000e+00
     vertex  4.949747e+00  4.949747e+00  5.000000e+00
     vertex  1.062547e+01  5.576678e+00  5.000000e+00
   endloop
 endfacet
 facet normal -9.238795e-01 -3.826834e-01  0.000000e+00
   outer loop
     vertex  4.949747e+00  4.949747e+00  0.000000e+00
     vertex  7.000000e+00  0.000000e+00  0.000000e+00
     vertex  7.000000e+00  0.000000e+00  5.000000e+00
   endloop
 endfacet
 facet normal -9.238795e-01 -3.826834e-01  0.000000e+00
   outer loop
     vertex  4.949747e+00  4.949747e+00  0.000000e+00
     vertex  7.000000e+00  0.000000e+00  5.000000e+00
     vertex  4.949747e+00  4.949747e+00  5.000000e+00
   endloop
 endfacet
 facet normal -3.826834e-01 -9.238795e-01  0.000000e+00
   outer loop
     vertex  4.286264e-16  7.000000e+00  0.000000e+00
     vertex  4.949747e+00  4.949747e+00  0.000000e+00
     vertex  4.949747e+00  4.949747e+00  5.000000e+00
   endloop
 endfacet
 facet normal -3.826834e-01 -9.238795e-01  0.000000e+00
   outer loop
     vertex  4.286264e-16  7.000000e+00  0.000000e+00
     vertex  4.949747e+00  4.949747e+00  5.000000e+00
     vertex  4.286264e-16  7.000000e+00  5.000000e+00
   endloop
 endfacet
 facet normal  3.826834e-01 -9.238795e-01  0.000000e+00
   outer loop
     vertex -4.949747e+00  4.949747e+00  0.000000e+00
     vertex  4.286264e-16  7.000000e+00  0.000000e+00
     vertex  4.286264e-16  7.000000e+00  5.000000e+00
   endloop
 endfacet
 facet normal  3.826834e-01 -9.238795e-01  0.000000e+00
   outer loop
     vertex -4.949747e+00  4.949747e+00  0.000000e+00
     vertex  4.286264e-16  7.000000e+00  5.000000e+00
     vertex -4.949747e+00  4.949747e+00  5.000000e+00
   endloop
 endfacet
 facet normal  9.238795e-01 -3.826834e-01  0.000000e+00
   outer loop
     vertex -7.000000e+00  8.572528e-16  0.000000e+00
     vertex -4.949747e+00  4.949747e+00  0.000000e+00
     vertex -4.949747e+00  4.949747e+00  5.000000e+00
   endloop
 endfacet
 facet normal  9.238795e-01 -3.826834e-01  0.000000e+00
   outer loop
     vertex -7.000000e+00  8.572528e-16  0.000000e+00
     vertex -4.949747e+00  4.949747e+00  5.000000e+00
     vertex -7.000000e+00  8.572528e-16  5.000000e+00
   endloop
 endfacet
 facet normal  9.238795e-01  3.826834e-01  0.000000e+00
   outer loop
     vertex -4.949747e+00 -4.949747e+00  0.000000e+00
     vertex -7.000000e+00  8.572528e-16  0.000000e+00
     vertex -7.000000e+00  8.572528e-16  5.000000e+00
   endloop
 endfacet
 facet normal  9.238795e-01  3.826834e-01 -0.000000e+00
   outer loop
     vertex -4.949747e+00 -4.949747e+00  0.000000e+00
     vertex -7.000000e+00  8.572528e-16  5.000000e+00
     vertex -4.949747e+00 -4.949747e+00  5.000000e+00
   endloop
 endfacet
 facet normal  3.826834e-01  9.238795e-01  0.000000e+00
   outer loop
     vertex -1.285879e-15 -7.000000e+00  0.000000e+00
     vertex -4.949747e+00 -4.949747e+00  0.000000e+00
     vertex -4.949747e+00 -4.949747e+00  5.000000e+00
   endloop
 endfacet
 facet normal  3.826834e-01  9.238795e-01 -0.000000e+00
   outer loop
     vertex -1.285879e-15 -7.000000e+00  0.000000e+00
     vertex -4.949747e+00 -4.949747e+00  5.000000e+00
     vertex -1.285879e-15 -7.000000e+00  5.000000e+00
   endloop
 endfacet
 facet normal -3.826834e-01  9.238795e-01  0.000000e+00
   outer loop
     vertex  4.949747e+00 -4.949747e+00  0.000000e+00
     vertex -1.285879e-15 -7.000000e+00  0.000000e+00
     vertex -1.285879e-15 -7.000000e+00  5.000000e+00
   endloop
 endfacet
 facet normal -3.826834e-01  9.238795e-01  0.000000e+00
   outer loop
     vertex  4.949747e+00 -4.949747e+00  0.000000e+00
     vertex -1.285879e-15 -7.000000e+00  5.000000e+00
     vertex  4.949747e+00 -4.949747e+00  5.000000e+00
   endloop
 endfacet
 facet normal -9.238795e-01  3.826834e-01  0.000000e+00
   outer loop
     vertex  7.000000e+00  0.000000e+00  0.000000e+00
     vertex  4.949747e+00 -4.949747e+00  0.000000e+00
     vertex  4.949747e+00 -4.949747e+00  5.000000e+00
   endloop
 endfacet
 facet normal -9.238795e-01  3.826834e-01  0.000000e+00
   outer loop
     vertex  7.000000e+00  0.000000e+00  0.000000e+00
     vertex  4.949747e+00 -4.949747e+00  5.000000e+00
     vertex  7.000000e+00  0.000000e+00  5.000000e+00
   endloop
 endfacet
endsolid
