solid 
 facet normal  3.360563e-01  4.080462e-02  9.409576e-01
   outer loop
     vertex  1.905000e+02 -2.571758e-15  1.192500e+02
     vertex  1.940000e+02 -3.429011e-15  1.180000e+02
     vertex  1.935932e+02  3.350419e+00  1.180000e+02
   endloop
 endfacet
 facet normal  3.360563e-01  4.080462e-02  9.409576e-01
   outer loop
     vertex  1.867966e+02  1.675210e+00  1.205000e+02
     vertex  1.870000e+02 -1.714506e-15  1.205000e+02
     vertex  1.905000e+02 -2.571758e-15  1.192500e+02
   endloop
 endfacet
 facet normal  3.360563e-01 -4.080462e-02  9.409576e-01
   outer loop
     vertex  1.905000e+02 -2.571758e-15  1.192500e+02
     vertex  1.935932e+02 -3.350419e+00  1.180000e+02
     vertex  1.940000e+02 -3.429011e-15  1.180000e+02
   endloop
 endfacet
 facet normal  3.360563e-01 -4.080462e-02  9.409576e-01
   outer loop
     vertex  1.870000e+02 -1.714506e-15  1.205000e+02
     vertex  1.867966e+02 -1.675210e+00  1.205000e+02
     vertex  1.905000e+02 -2.571758e-15  1.192500e+02
   endloop
 endfacet
 facet normal  3.165259e-01  1.200424e-01  9.409576e-01
   outer loop
     vertex  1.892973e+02  4.879593e+00  1.192500e+02
     vertex  1.861982e+02  3.253062e+00  1.205000e+02
     vertex  1.867966e+02  1.675210e+00  1.205000e+02
   endloop
 endfacet
 facet normal  2.786002e-01  1.923038e-01  9.409576e-01
   outer loop
     vertex  1.892973e+02  4.879593e+00  1.192500e+02
     vertex  1.852396e+02  4.641859e+00  1.205000e+02
     vertex  1.861982e+02  3.253062e+00  1.205000e+02
   endloop
 endfacet
 facet normal  3.165259e-01  1.200424e-01  9.409576e-01
   outer loop
     vertex  1.892973e+02  4.879593e+00  1.192500e+02
     vertex  1.935932e+02  3.350419e+00  1.180000e+02
     vertex  1.923964e+02  6.506124e+00  1.180000e+02
   endloop
 endfacet
 facet normal  2.786002e-01  1.923038e-01  9.409576e-01
   outer loop
     vertex  1.892973e+02  4.879593e+00  1.192500e+02
     vertex  1.923964e+02  6.506124e+00  1.180000e+02
     vertex  1.904792e+02  9.283717e+00  1.180000e+02
   endloop
 endfacet
 facet normal  3.030278e-01  7.468965e-02  9.500503e-01
   outer loop
     vertex  1.892973e+02  4.879593e+00  1.192500e+02
     vertex  1.905000e+02 -2.571758e-15  1.192500e+02
     vertex  1.935932e+02  3.350419e+00  1.180000e+02
   endloop
 endfacet
 facet normal  3.537679e-01  8.719595e-02  9.312600e-01
   outer loop
     vertex  1.892973e+02  4.879593e+00  1.192500e+02
     vertex  1.867966e+02  1.675210e+00  1.205000e+02
     vertex  1.905000e+02 -2.571758e-15  1.192500e+02
   endloop
 endfacet
 facet normal  2.244833e-01  2.533892e-01  9.409576e-01
   outer loop
     vertex  1.859647e+02  8.641331e+00  1.192500e+02
     vertex  1.839765e+02  5.760887e+00  1.205000e+02
     vertex  1.852396e+02  4.641859e+00  1.205000e+02
   endloop
 endfacet
 facet normal  1.573202e-01  2.997486e-01  9.409576e-01
   outer loop
     vertex  1.859647e+02  8.641331e+00  1.192500e+02
     vertex  1.824822e+02  6.545114e+00  1.205000e+02
     vertex  1.839765e+02  5.760887e+00  1.205000e+02
   endloop
 endfacet
 facet normal  2.244833e-01  2.533892e-01  9.409576e-01
   outer loop
     vertex  1.859647e+02  8.641331e+00  1.192500e+02
     vertex  1.904792e+02  9.283717e+00  1.180000e+02
     vertex  1.879529e+02  1.152177e+01  1.180000e+02
   endloop
 endfacet
 facet normal  1.573202e-01  2.997486e-01  9.409576e-01
   outer loop
     vertex  1.859647e+02  8.641331e+00  1.192500e+02
     vertex  1.879529e+02  1.152177e+01  1.180000e+02
     vertex  1.849645e+02  1.309023e+01  1.180000e+02
   endloop
 endfacet
 facet normal  2.727239e-01  2.416123e-01  9.312600e-01
   outer loop
     vertex  1.859647e+02  8.641331e+00  1.192500e+02
     vertex  1.852396e+02  4.641859e+00  1.205000e+02
     vertex  1.892973e+02  4.879593e+00  1.192500e+02
   endloop
 endfacet
 facet normal  2.336078e-01  2.069585e-01  9.500503e-01
   outer loop
     vertex  1.859647e+02  8.641331e+00  1.192500e+02
     vertex  1.892973e+02  4.879593e+00  1.192500e+02
     vertex  1.904792e+02  9.283717e+00  1.180000e+02
   endloop
 endfacet
 facet normal  1.292022e-01  3.406782e-01  9.312600e-01
   outer loop
     vertex  1.812656e+02  1.042344e+01  1.192500e+02
     vertex  1.824822e+02  6.545114e+00  1.205000e+02
     vertex  1.859647e+02  8.641331e+00  1.192500e+02
   endloop
 endfacet
 facet normal  8.101422e-02  3.286876e-01  9.409576e-01
   outer loop
     vertex  1.812656e+02  1.042344e+01  1.192500e+02
     vertex  1.808438e+02  6.948962e+00  1.205000e+02
     vertex  1.824822e+02  6.545114e+00  1.205000e+02
   endloop
 endfacet
 facet normal  0.000000e+00  3.385245e-01  9.409576e-01
   outer loop
     vertex  1.812656e+02  1.042344e+01  1.192500e+02
     vertex  1.791562e+02  6.948962e+00  1.205000e+02
     vertex  1.808438e+02  6.948962e+00  1.205000e+02
   endloop
 endfacet
 facet normal  1.106710e-01  2.918156e-01  9.500503e-01
   outer loop
     vertex  1.812656e+02  1.042344e+01  1.192500e+02
     vertex  1.859647e+02  8.641331e+00  1.192500e+02
     vertex  1.849645e+02  1.309023e+01  1.180000e+02
   endloop
 endfacet
 facet normal  8.101422e-02  3.286876e-01  9.409576e-01
   outer loop
     vertex  1.812656e+02  1.042344e+01  1.192500e+02
     vertex  1.849645e+02  1.309023e+01  1.180000e+02
     vertex  1.816875e+02  1.389792e+01  1.180000e+02
   endloop
 endfacet
 facet normal  0.000000e+00  3.385245e-01  9.409576e-01
   outer loop
     vertex  1.812656e+02  1.042344e+01  1.192500e+02
     vertex  1.816875e+02  1.389792e+01  1.180000e+02
     vertex  1.783125e+02  1.389792e+01  1.180000e+02
   endloop
 endfacet
 facet normal -8.101422e-02  3.286876e-01  9.409576e-01
   outer loop
     vertex  1.762766e+02  9.817671e+00  1.192500e+02
     vertex  1.775178e+02  6.545114e+00  1.205000e+02
     vertex  1.791562e+02  6.948962e+00  1.205000e+02
   endloop
 endfacet
 facet normal -1.573202e-01  2.997486e-01  9.409576e-01
   outer loop
     vertex  1.762766e+02  9.817671e+00  1.192500e+02
     vertex  1.760235e+02  5.760887e+00  1.205000e+02
     vertex  1.775178e+02  6.545114e+00  1.205000e+02
   endloop
 endfacet
 facet normal -8.101422e-02  3.286876e-01  9.409576e-01
   outer loop
     vertex  1.762766e+02  9.817671e+00  1.192500e+02
     vertex  1.783125e+02  1.389792e+01  1.180000e+02
     vertex  1.750355e+02  1.309023e+01  1.180000e+02
   endloop
 endfacet
 facet normal -1.573202e-01  2.997486e-01  9.409576e-01
   outer loop
     vertex  1.762766e+02  9.817671e+00  1.192500e+02
     vertex  1.750355e+02  1.309023e+01  1.180000e+02
     vertex  1.720471e+02  1.152177e+01  1.180000e+02
   endloop
 endfacet
 facet normal -4.391819e-02  3.616988e-01  9.312600e-01
   outer loop
     vertex  1.762766e+02  9.817671e+00  1.192500e+02
     vertex  1.791562e+02  6.948962e+00  1.205000e+02
     vertex  1.812656e+02  1.042344e+01  1.192500e+02
   endloop
 endfacet
 facet normal -3.761911e-02  3.098212e-01  9.500503e-01
   outer loop
     vertex  1.762766e+02  9.817671e+00  1.192500e+02
     vertex  1.812656e+02  1.042344e+01  1.192500e+02
     vertex  1.783125e+02  1.389792e+01  1.180000e+02
   endloop
 endfacet
 facet normal -2.244833e-01  2.533892e-01  9.409576e-01
   outer loop
     vertex  1.721406e+02  6.962788e+00  1.192500e+02
     vertex  1.747604e+02  4.641859e+00  1.205000e+02
     vertex  1.760235e+02  5.760887e+00  1.205000e+02
   endloop
 endfacet
 facet normal -2.786002e-01  1.923038e-01  9.409576e-01
   outer loop
     vertex  1.721406e+02  6.962788e+00  1.192500e+02
     vertex  1.738018e+02  3.253062e+00  1.205000e+02
     vertex  1.747604e+02  4.641859e+00  1.205000e+02
   endloop
 endfacet
 facet normal -2.244833e-01  2.533892e-01  9.409576e-01
   outer loop
     vertex  1.721406e+02  6.962788e+00  1.192500e+02
     vertex  1.720471e+02  1.152177e+01  1.180000e+02
     vertex  1.695208e+02  9.283717e+00  1.180000e+02
   endloop
 endfacet
 facet normal -2.786002e-01  1.923038e-01  9.409576e-01
   outer loop
     vertex  1.721406e+02  6.962788e+00  1.192500e+02
     vertex  1.695208e+02  9.283717e+00  1.180000e+02
     vertex  1.676036e+02  6.506124e+00  1.180000e+02
   endloop
 endfacet
 facet normal -2.069774e-01  2.998586e-01  9.312600e-01
   outer loop
     vertex  1.721406e+02  6.962788e+00  1.192500e+02
     vertex  1.760235e+02  5.760887e+00  1.205000e+02
     vertex  1.762766e+02  9.817671e+00  1.192500e+02
   endloop
 endfacet
 facet normal -1.772912e-01  2.568506e-01  9.500503e-01
   outer loop
     vertex  1.721406e+02  6.962788e+00  1.192500e+02
     vertex  1.762766e+02  9.817671e+00  1.192500e+02
     vertex  1.720471e+02  1.152177e+01  1.180000e+02
   endloop
 endfacet
 facet normal -3.165259e-01  1.200424e-01  9.409576e-01
   outer loop
     vertex  1.698051e+02  2.512814e+00  1.192500e+02
     vertex  1.732034e+02  1.675210e+00  1.205000e+02
     vertex  1.738018e+02  3.253062e+00  1.205000e+02
   endloop
 endfacet
 facet normal -3.360563e-01  4.080462e-02  9.409576e-01
   outer loop
     vertex  1.698051e+02  2.512814e+00  1.192500e+02
     vertex  1.730000e+02  7.074502e-15  1.205000e+02
     vertex  1.732034e+02  1.675210e+00  1.205000e+02
   endloop
 endfacet
 facet normal -2.763480e-01  1.450386e-01  9.500503e-01
   outer loop
     vertex  1.698051e+02  2.512814e+00  1.192500e+02
     vertex  1.721406e+02  6.962788e+00  1.192500e+02
     vertex  1.676036e+02  6.506124e+00  1.180000e+02
   endloop
 endfacet
 facet normal -3.165259e-01  1.200424e-01  9.409576e-01
   outer loop
     vertex  1.698051e+02  2.512814e+00  1.192500e+02
     vertex  1.676036e+02  6.506124e+00  1.180000e+02
     vertex  1.664068e+02  3.350419e+00  1.180000e+02
   endloop
 endfacet
 facet normal -3.360563e-01  4.080462e-02  9.409576e-01
   outer loop
     vertex  1.698051e+02  2.512814e+00  1.192500e+02
     vertex  1.664068e+02  3.350419e+00  1.180000e+02
     vertex  1.660000e+02  1.414900e-14  1.180000e+02
   endloop
 endfacet
 facet normal -3.226207e-01  1.693244e-01  9.312600e-01
   outer loop
     vertex  1.698051e+02  2.512814e+00  1.192500e+02
     vertex  1.738018e+02  3.253062e+00  1.205000e+02
     vertex  1.721406e+02  6.962788e+00  1.192500e+02
   endloop
 endfacet
 facet normal -3.120968e-01  1.765018e-15  9.500503e-01
   outer loop
     vertex  1.698051e+02 -2.512814e+00  1.192500e+02
     vertex  1.698051e+02  2.512814e+00  1.192500e+02
     vertex  1.660000e+02  1.414900e-14  1.180000e+02
   endloop
 endfacet
 facet normal -3.360563e-01 -4.080462e-02  9.409576e-01
   outer loop
     vertex  1.698051e+02 -2.512814e+00  1.192500e+02
     vertex  1.732034e+02 -1.675210e+00  1.205000e+02
     vertex  1.730000e+02  7.074502e-15  1.205000e+02
   endloop
 endfacet
 facet normal -3.165259e-01 -1.200424e-01  9.409576e-01
   outer loop
     vertex  1.698051e+02 -2.512814e+00  1.192500e+02
     vertex  1.738018e+02 -3.253062e+00  1.205000e+02
     vertex  1.732034e+02 -1.675210e+00  1.205000e+02
   endloop
 endfacet
 facet normal -3.360563e-01 -4.080462e-02  9.409576e-01
   outer loop
     vertex  1.698051e+02 -2.512814e+00  1.192500e+02
     vertex  1.660000e+02  1.414900e-14  1.180000e+02
     vertex  1.664068e+02 -3.350419e+00  1.180000e+02
   endloop
 endfacet
 facet normal -3.165259e-01 -1.200424e-01  9.409576e-01
   outer loop
     vertex  1.698051e+02 -2.512814e+00  1.192500e+02
     vertex  1.664068e+02 -3.350419e+00  1.180000e+02
     vertex  1.676036e+02 -6.506124e+00  1.180000e+02
   endloop
 endfacet
 facet normal -3.643554e-01  2.060558e-15  9.312600e-01
   outer loop
     vertex  1.698051e+02 -2.512814e+00  1.192500e+02
     vertex  1.730000e+02  7.074502e-15  1.205000e+02
     vertex  1.698051e+02  2.512814e+00  1.192500e+02
   endloop
 endfacet
 facet normal -2.786002e-01 -1.923038e-01  9.409576e-01
   outer loop
     vertex  1.721406e+02 -6.962788e+00  1.192500e+02
     vertex  1.747604e+02 -4.641859e+00  1.205000e+02
     vertex  1.738018e+02 -3.253062e+00  1.205000e+02
   endloop
 endfacet
 facet normal -2.244833e-01 -2.533892e-01  9.409576e-01
   outer loop
     vertex  1.721406e+02 -6.962788e+00  1.192500e+02
     vertex  1.760235e+02 -5.760887e+00  1.205000e+02
     vertex  1.747604e+02 -4.641859e+00  1.205000e+02
   endloop
 endfacet
 facet normal -2.786002e-01 -1.923038e-01  9.409576e-01
   outer loop
     vertex  1.721406e+02 -6.962788e+00  1.192500e+02
     vertex  1.676036e+02 -6.506124e+00  1.180000e+02
     vertex  1.695208e+02 -9.283717e+00  1.180000e+02
   endloop
 endfacet
 facet normal -2.244833e-01 -2.533892e-01  9.409576e-01
   outer loop
     vertex  1.721406e+02 -6.962788e+00  1.192500e+02
     vertex  1.695208e+02 -9.283717e+00  1.180000e+02
     vertex  1.720471e+02 -1.152177e+01  1.180000e+02
   endloop
 endfacet
 facet normal -3.226207e-01 -1.693244e-01  9.312600e-01
   outer loop
     vertex  1.721406e+02 -6.962788e+00  1.192500e+02
     vertex  1.738018e+02 -3.253062e+00  1.205000e+02
     vertex  1.698051e+02 -2.512814e+00  1.192500e+02
   endloop
 endfacet
 facet normal -2.763480e-01 -1.450386e-01  9.500503e-01
   outer loop
     vertex  1.721406e+02 -6.962788e+00  1.192500e+02
     vertex  1.698051e+02 -2.512814e+00  1.192500e+02
     vertex  1.676036e+02 -6.506124e+00  1.180000e+02
   endloop
 endfacet
 facet normal -1.573202e-01 -2.997486e-01  9.409576e-01
   outer loop
     vertex  1.762766e+02 -9.817671e+00  1.192500e+02
     vertex  1.775178e+02 -6.545114e+00  1.205000e+02
     vertex  1.760235e+02 -5.760887e+00  1.205000e+02
   endloop
 endfacet
 facet normal -8.101422e-02 -3.286876e-01  9.409576e-01
   outer loop
     vertex  1.762766e+02 -9.817671e+00  1.192500e+02
     vertex  1.791562e+02 -6.948962e+00  1.205000e+02
     vertex  1.775178e+02 -6.545114e+00  1.205000e+02
   endloop
 endfacet
 facet normal -1.573202e-01 -2.997486e-01  9.409576e-01
   outer loop
     vertex  1.762766e+02 -9.817671e+00  1.192500e+02
     vertex  1.720471e+02 -1.152177e+01  1.180000e+02
     vertex  1.750355e+02 -1.309023e+01  1.180000e+02
   endloop
 endfacet
 facet normal -8.101422e-02 -3.286876e-01  9.409576e-01
   outer loop
     vertex  1.762766e+02 -9.817671e+00  1.192500e+02
     vertex  1.750355e+02 -1.309023e+01  1.180000e+02
     vertex  1.783125e+02 -1.389792e+01  1.180000e+02
   endloop
 endfacet
 facet normal -2.069774e-01 -2.998586e-01  9.312600e-01
   outer loop
     vertex  1.762766e+02 -9.817671e+00  1.192500e+02
     vertex  1.760235e+02 -5.760887e+00  1.205000e+02
     vertex  1.721406e+02 -6.962788e+00  1.192500e+02
   endloop
 endfacet
 facet normal -1.772912e-01 -2.568506e-01  9.500503e-01
   outer loop
     vertex  1.762766e+02 -9.817671e+00  1.192500e+02
     vertex  1.721406e+02 -6.962788e+00  1.192500e+02
     vertex  1.720471e+02 -1.152177e+01  1.180000e+02
   endloop
 endfacet
 facet normal -5.701551e-16 -3.385245e-01  9.409576e-01
   outer loop
     vertex  1.812656e+02 -1.042344e+01  1.192500e+02
     vertex  1.808438e+02 -6.948962e+00  1.205000e+02
     vertex  1.791562e+02 -6.948962e+00  1.205000e+02
   endloop
 endfacet
 facet normal  8.101422e-02 -3.286876e-01  9.409576e-01
   outer loop
     vertex  1.812656e+02 -1.042344e+01  1.192500e+02
     vertex  1.824822e+02 -6.545114e+00  1.205000e+02
     vertex  1.808438e+02 -6.948962e+00  1.205000e+02
   endloop
 endfacet
 facet normal -4.391819e-02 -3.616988e-01  9.312600e-01
   outer loop
     vertex  1.812656e+02 -1.042344e+01  1.192500e+02
     vertex  1.791562e+02 -6.948962e+00  1.205000e+02
     vertex  1.762766e+02 -9.817671e+00  1.192500e+02
   endloop
 endfacet
 facet normal -7.126939e-16 -3.385245e-01  9.409576e-01
   outer loop
     vertex  1.812656e+02 -1.042344e+01  1.192500e+02
     vertex  1.783125e+02 -1.389792e+01  1.180000e+02
     vertex  1.816875e+02 -1.389792e+01  1.180000e+02
   endloop
 endfacet
 facet normal  8.101422e-02 -3.286876e-01  9.409576e-01
   outer loop
     vertex  1.812656e+02 -1.042344e+01  1.192500e+02
     vertex  1.816875e+02 -1.389792e+01  1.180000e+02
     vertex  1.849645e+02 -1.309023e+01  1.180000e+02
   endloop
 endfacet
 facet normal -3.761911e-02 -3.098212e-01  9.500503e-01
   outer loop
     vertex  1.812656e+02 -1.042344e+01  1.192500e+02
     vertex  1.762766e+02 -9.817671e+00  1.192500e+02
     vertex  1.783125e+02 -1.389792e+01  1.180000e+02
   endloop
 endfacet
 facet normal  1.292022e-01 -3.406782e-01  9.312600e-01
   outer loop
     vertex  1.859647e+02 -8.641331e+00  1.192500e+02
     vertex  1.824822e+02 -6.545114e+00  1.205000e+02
     vertex  1.812656e+02 -1.042344e+01  1.192500e+02
   endloop
 endfacet
 facet normal  1.106710e-01 -2.918156e-01  9.500503e-01
   outer loop
     vertex  1.859647e+02 -8.641331e+00  1.192500e+02
     vertex  1.812656e+02 -1.042344e+01  1.192500e+02
     vertex  1.849645e+02 -1.309023e+01  1.180000e+02
   endloop
 endfacet
 facet normal  1.573202e-01 -2.997486e-01  9.409576e-01
   outer loop
     vertex  1.859647e+02 -8.641331e+00  1.192500e+02
     vertex  1.839765e+02 -5.760887e+00  1.205000e+02
     vertex  1.824822e+02 -6.545114e+00  1.205000e+02
   endloop
 endfacet
 facet normal  2.244833e-01 -2.533892e-01  9.409576e-01
   outer loop
     vertex  1.859647e+02 -8.641331e+00  1.192500e+02
     vertex  1.852396e+02 -4.641859e+00  1.205000e+02
     vertex  1.839765e+02 -5.760887e+00  1.205000e+02
   endloop
 endfacet
 facet normal  1.573202e-01 -2.997486e-01  9.409576e-01
   outer loop
     vertex  1.859647e+02 -8.641331e+00  1.192500e+02
     vertex  1.849645e+02 -1.309023e+01  1.180000e+02
     vertex  1.879529e+02 -1.152177e+01  1.180000e+02
   endloop
 endfacet
 facet normal  2.244833e-01 -2.533892e-01  9.409576e-01
   outer loop
     vertex  1.859647e+02 -8.641331e+00  1.192500e+02
     vertex  1.879529e+02 -1.152177e+01  1.180000e+02
     vertex  1.904792e+02 -9.283717e+00  1.180000e+02
   endloop
 endfacet
 facet normal  2.336078e-01 -2.069585e-01  9.500503e-01
   outer loop
     vertex  1.892973e+02 -4.879593e+00  1.192500e+02
     vertex  1.859647e+02 -8.641331e+00  1.192500e+02
     vertex  1.904792e+02 -9.283717e+00  1.180000e+02
   endloop
 endfacet
 facet normal  2.727239e-01 -2.416123e-01  9.312600e-01
   outer loop
     vertex  1.892973e+02 -4.879593e+00  1.192500e+02
     vertex  1.852396e+02 -4.641859e+00  1.205000e+02
     vertex  1.859647e+02 -8.641331e+00  1.192500e+02
   endloop
 endfacet
 facet normal  2.786002e-01 -1.923038e-01  9.409576e-01
   outer loop
     vertex  1.892973e+02 -4.879593e+00  1.192500e+02
     vertex  1.861982e+02 -3.253062e+00  1.205000e+02
     vertex  1.852396e+02 -4.641859e+00  1.205000e+02
   endloop
 endfacet
 facet normal  3.165259e-01 -1.200424e-01  9.409576e-01
   outer loop
     vertex  1.892973e+02 -4.879593e+00  1.192500e+02
     vertex  1.867966e+02 -1.675210e+00  1.205000e+02
     vertex  1.861982e+02 -3.253062e+00  1.205000e+02
   endloop
 endfacet
 facet normal  2.786002e-01 -1.923038e-01  9.409576e-01
   outer loop
     vertex  1.892973e+02 -4.879593e+00  1.192500e+02
     vertex  1.904792e+02 -9.283717e+00  1.180000e+02
     vertex  1.923964e+02 -6.506124e+00  1.180000e+02
   endloop
 endfacet
 facet normal  3.165259e-01 -1.200424e-01  9.409576e-01
   outer loop
     vertex  1.892973e+02 -4.879593e+00  1.192500e+02
     vertex  1.923964e+02 -6.506124e+00  1.180000e+02
     vertex  1.935932e+02 -3.350419e+00  1.180000e+02
   endloop
 endfacet
 facet normal  3.030278e-01 -7.468965e-02  9.500503e-01
   outer loop
     vertex  1.892973e+02 -4.879593e+00  1.192500e+02
     vertex  1.935932e+02 -3.350419e+00  1.180000e+02
     vertex  1.905000e+02 -2.571758e-15  1.192500e+02
   endloop
 endfacet
 facet normal  3.537679e-01 -8.719595e-02  9.312600e-01
   outer loop
     vertex  1.892973e+02 -4.879593e+00  1.192500e+02
     vertex  1.905000e+02 -2.571758e-15  1.192500e+02
     vertex  1.867966e+02 -1.675210e+00  1.205000e+02
   endloop
 endfacet
 facet normal  3.360563e-01  4.080462e-02 -9.409576e-01
   outer loop
     vertex  1.905000e+02 -2.571758e-15  1.217500e+02
     vertex  1.870000e+02 -1.714506e-15  1.205000e+02
     vertex  1.867966e+02  1.675210e+00  1.205000e+02
   endloop
 endfacet
 facet normal  3.360563e-01  4.080462e-02 -9.409576e-01
   outer loop
     vertex  1.935932e+02  3.350419e+00  1.230000e+02
     vertex  1.940000e+02 -3.429011e-15  1.230000e+02
     vertex  1.905000e+02 -2.571758e-15  1.217500e+02
   endloop
 endfacet
 facet normal  3.360563e-01 -4.080462e-02 -9.409576e-01
   outer loop
     vertex  1.905000e+02 -2.571758e-15  1.217500e+02
     vertex  1.867966e+02 -1.675210e+00  1.205000e+02
     vertex  1.870000e+02 -1.714506e-15  1.205000e+02
   endloop
 endfacet
 facet normal  3.360563e-01 -4.080462e-02 -9.409576e-01
   outer loop
     vertex  1.940000e+02 -3.429011e-15  1.230000e+02
     vertex  1.935932e+02 -3.350419e+00  1.230000e+02
     vertex  1.905000e+02 -2.571758e-15  1.217500e+02
   endloop
 endfacet
 facet normal  3.165259e-01  1.200424e-01 -9.409576e-01
   outer loop
     vertex  1.892973e+02  4.879593e+00  1.217500e+02
     vertex  1.923964e+02  6.506124e+00  1.230000e+02
     vertex  1.935932e+02  3.350419e+00  1.230000e+02
   endloop
 endfacet
 facet normal  2.786002e-01  1.923038e-01 -9.409576e-01
   outer loop
     vertex  1.892973e+02  4.879593e+00  1.217500e+02
     vertex  1.904792e+02  9.283717e+00  1.230000e+02
     vertex  1.923964e+02  6.506124e+00  1.230000e+02
   endloop
 endfacet
 facet normal  3.165259e-01  1.200424e-01 -9.409576e-01
   outer loop
     vertex  1.892973e+02  4.879593e+00  1.217500e+02
     vertex  1.867966e+02  1.675210e+00  1.205000e+02
     vertex  1.861982e+02  3.253062e+00  1.205000e+02
   endloop
 endfacet
 facet normal  2.786002e-01  1.923038e-01 -9.409576e-01
   outer loop
     vertex  1.892973e+02  4.879593e+00  1.217500e+02
     vertex  1.861982e+02  3.253062e+00  1.205000e+02
     vertex  1.852396e+02  4.641859e+00  1.205000e+02
   endloop
 endfacet
 facet normal  3.537679e-01  8.719595e-02 -9.312600e-01
   outer loop
     vertex  1.892973e+02  4.879593e+00  1.217500e+02
     vertex  1.905000e+02 -2.571758e-15  1.217500e+02
     vertex  1.867966e+02  1.675210e+00  1.205000e+02
   endloop
 endfacet
 facet normal  3.030278e-01  7.468965e-02 -9.500503e-01
   outer loop
     vertex  1.892973e+02  4.879593e+00  1.217500e+02
     vertex  1.935932e+02  3.350419e+00  1.230000e+02
     vertex  1.905000e+02 -2.571758e-15  1.217500e+02
   endloop
 endfacet
 facet normal  2.244833e-01  2.533892e-01 -9.409576e-01
   outer loop
     vertex  1.859647e+02  8.641331e+00  1.217500e+02
     vertex  1.879529e+02  1.152177e+01  1.230000e+02
     vertex  1.904792e+02  9.283717e+00  1.230000e+02
   endloop
 endfacet
 facet normal  1.573202e-01  2.997486e-01 -9.409576e-01
   outer loop
     vertex  1.859647e+02  8.641331e+00  1.217500e+02
     vertex  1.849645e+02  1.309023e+01  1.230000e+02
     vertex  1.879529e+02  1.152177e+01  1.230000e+02
   endloop
 endfacet
 facet normal  2.244833e-01  2.533892e-01 -9.409576e-01
   outer loop
     vertex  1.859647e+02  8.641331e+00  1.217500e+02
     vertex  1.852396e+02  4.641859e+00  1.205000e+02
     vertex  1.839765e+02  5.760887e+00  1.205000e+02
   endloop
 endfacet
 facet normal  1.573202e-01  2.997486e-01 -9.409576e-01
   outer loop
     vertex  1.859647e+02  8.641331e+00  1.217500e+02
     vertex  1.839765e+02  5.760887e+00  1.205000e+02
     vertex  1.824822e+02  6.545114e+00  1.205000e+02
   endloop
 endfacet
 facet normal  2.336078e-01  2.069585e-01 -9.500503e-01
   outer loop
     vertex  1.859647e+02  8.641331e+00  1.217500e+02
     vertex  1.904792e+02  9.283717e+00  1.230000e+02
     vertex  1.892973e+02  4.879593e+00  1.217500e+02
   endloop
 endfacet
 facet normal  2.727239e-01  2.416123e-01 -9.312600e-01
   outer loop
     vertex  1.859647e+02  8.641331e+00  1.217500e+02
     vertex  1.892973e+02  4.879593e+00  1.217500e+02
     vertex  1.852396e+02  4.641859e+00  1.205000e+02
   endloop
 endfacet
 facet normal  1.106710e-01  2.918156e-01 -9.500503e-01
   outer loop
     vertex  1.812656e+02  1.042344e+01  1.217500e+02
     vertex  1.849645e+02  1.309023e+01  1.230000e+02
     vertex  1.859647e+02  8.641331e+00  1.217500e+02
   endloop
 endfacet
 facet normal  8.101422e-02  3.286876e-01 -9.409576e-01
   outer loop
     vertex  1.812656e+02  1.042344e+01  1.217500e+02
     vertex  1.816875e+02  1.389792e+01  1.230000e+02
     vertex  1.849645e+02  1.309023e+01  1.230000e+02
   endloop
 endfacet
 facet normal  0.000000e+00  3.385245e-01 -9.409576e-01
   outer loop
     vertex  1.812656e+02  1.042344e+01  1.217500e+02
     vertex  1.783125e+02  1.389792e+01  1.230000e+02
     vertex  1.816875e+02  1.389792e+01  1.230000e+02
   endloop
 endfacet
 facet normal  1.292022e-01  3.406782e-01 -9.312600e-01
   outer loop
     vertex  1.812656e+02  1.042344e+01  1.217500e+02
     vertex  1.859647e+02  8.641331e+00  1.217500e+02
     vertex  1.824822e+02  6.545114e+00  1.205000e+02
   endloop
 endfacet
 facet normal  8.101422e-02  3.286876e-01 -9.409576e-01
   outer loop
     vertex  1.812656e+02  1.042344e+01  1.217500e+02
     vertex  1.824822e+02  6.545114e+00  1.205000e+02
     vertex  1.808438e+02  6.948962e+00  1.205000e+02
   endloop
 endfacet
 facet normal  0.000000e+00  3.385245e-01 -9.409576e-01
   outer loop
     vertex  1.812656e+02  1.042344e+01  1.217500e+02
     vertex  1.808438e+02  6.948962e+00  1.205000e+02
     vertex  1.791562e+02  6.948962e+00  1.205000e+02
   endloop
 endfacet
 facet normal -8.101422e-02  3.286876e-01 -9.409576e-01
   outer loop
     vertex  1.762766e+02  9.817671e+00  1.217500e+02
     vertex  1.750355e+02  1.309023e+01  1.230000e+02
     vertex  1.783125e+02  1.389792e+01  1.230000e+02
   endloop
 endfacet
 facet normal -1.573202e-01  2.997486e-01 -9.409576e-01
   outer loop
     vertex  1.762766e+02  9.817671e+00  1.217500e+02
     vertex  1.720471e+02  1.152177e+01  1.230000e+02
     vertex  1.750355e+02  1.309023e+01  1.230000e+02
   endloop
 endfacet
 facet normal -8.101422e-02  3.286876e-01 -9.409576e-01
   outer loop
     vertex  1.762766e+02  9.817671e+00  1.217500e+02
     vertex  1.791562e+02  6.948962e+00  1.205000e+02
     vertex  1.775178e+02  6.545114e+00  1.205000e+02
   endloop
 endfacet
 facet normal -1.573202e-01  2.997486e-01 -9.409576e-01
   outer loop
     vertex  1.762766e+02  9.817671e+00  1.217500e+02
     vertex  1.775178e+02  6.545114e+00  1.205000e+02
     vertex  1.760235e+02  5.760887e+00  1.205000e+02
   endloop
 endfacet
 facet normal -3.761911e-02  3.098212e-01 -9.500503e-01
   outer loop
     vertex  1.762766e+02  9.817671e+00  1.217500e+02
     vertex  1.783125e+02  1.389792e+01  1.230000e+02
     vertex  1.812656e+02  1.042344e+01  1.217500e+02
   endloop
 endfacet
 facet normal -4.391819e-02  3.616988e-01 -9.312600e-01
   outer loop
     vertex  1.762766e+02  9.817671e+00  1.217500e+02
     vertex  1.812656e+02  1.042344e+01  1.217500e+02
     vertex  1.791562e+02  6.948962e+00  1.205000e+02
   endloop
 endfacet
 facet normal -2.244833e-01  2.533892e-01 -9.409576e-01
   outer loop
     vertex  1.721406e+02  6.962788e+00  1.217500e+02
     vertex  1.695208e+02  9.283717e+00  1.230000e+02
     vertex  1.720471e+02  1.152177e+01  1.230000e+02
   endloop
 endfacet
 facet normal -2.786002e-01  1.923038e-01 -9.409576e-01
   outer loop
     vertex  1.721406e+02  6.962788e+00  1.217500e+02
     vertex  1.676036e+02  6.506124e+00  1.230000e+02
     vertex  1.695208e+02  9.283717e+00  1.230000e+02
   endloop
 endfacet
 facet normal -2.244833e-01  2.533892e-01 -9.409576e-01
   outer loop
     vertex  1.721406e+02  6.962788e+00  1.217500e+02
     vertex  1.760235e+02  5.760887e+00  1.205000e+02
     vertex  1.747604e+02  4.641859e+00  1.205000e+02
   endloop
 endfacet
 facet normal -2.786002e-01  1.923038e-01 -9.409576e-01
   outer loop
     vertex  1.721406e+02  6.962788e+00  1.217500e+02
     vertex  1.747604e+02  4.641859e+00  1.205000e+02
     vertex  1.738018e+02  3.253062e+00  1.205000e+02
   endloop
 endfacet
 facet normal -1.772912e-01  2.568506e-01 -9.500503e-01
   outer loop
     vertex  1.721406e+02  6.962788e+00  1.217500e+02
     vertex  1.720471e+02  1.152177e+01  1.230000e+02
     vertex  1.762766e+02  9.817671e+00  1.217500e+02
   endloop
 endfacet
 facet normal -2.069774e-01  2.998586e-01 -9.312600e-01
   outer loop
     vertex  1.721406e+02  6.962788e+00  1.217500e+02
     vertex  1.762766e+02  9.817671e+00  1.217500e+02
     vertex  1.760235e+02  5.760887e+00  1.205000e+02
   endloop
 endfacet
 facet normal -3.165259e-01  1.200424e-01 -9.409576e-01
   outer loop
     vertex  1.698051e+02  2.512814e+00  1.217500e+02
     vertex  1.664068e+02  3.350419e+00  1.230000e+02
     vertex  1.676036e+02  6.506124e+00  1.230000e+02
   endloop
 endfacet
 facet normal -3.360563e-01  4.080462e-02 -9.409576e-01
   outer loop
     vertex  1.698051e+02  2.512814e+00  1.217500e+02
     vertex  1.660000e+02  1.414900e-14  1.230000e+02
     vertex  1.664068e+02  3.350419e+00  1.230000e+02
   endloop
 endfacet
 facet normal -3.226207e-01  1.693244e-01 -9.312600e-01
   outer loop
     vertex  1.698051e+02  2.512814e+00  1.217500e+02
     vertex  1.721406e+02  6.962788e+00  1.217500e+02
     vertex  1.738018e+02  3.253062e+00  1.205000e+02
   endloop
 endfacet
 facet normal -3.165259e-01  1.200424e-01 -9.409576e-01
   outer loop
     vertex  1.698051e+02  2.512814e+00  1.217500e+02
     vertex  1.738018e+02  3.253062e+00  1.205000e+02
     vertex  1.732034e+02  1.675210e+00  1.205000e+02
   endloop
 endfacet
 facet normal -3.360563e-01  4.080462e-02 -9.409576e-01
   outer loop
     vertex  1.698051e+02  2.512814e+00  1.217500e+02
     vertex  1.732034e+02  1.675210e+00  1.205000e+02
     vertex  1.730000e+02  7.074502e-15  1.205000e+02
   endloop
 endfacet
 facet normal -2.763480e-01  1.450386e-01 -9.500503e-01
   outer loop
     vertex  1.698051e+02  2.512814e+00  1.217500e+02
     vertex  1.676036e+02  6.506124e+00  1.230000e+02
     vertex  1.721406e+02  6.962788e+00  1.217500e+02
   endloop
 endfacet
 facet normal -3.643554e-01  2.060558e-15 -9.312600e-01
   outer loop
     vertex  1.698051e+02 -2.512814e+00  1.217500e+02
     vertex  1.698051e+02  2.512814e+00  1.217500e+02
     vertex  1.730000e+02  7.074502e-15  1.205000e+02
   endloop
 endfacet
 facet normal -3.360563e-01 -4.080462e-02 -9.409576e-01
   outer loop
     vertex  1.698051e+02 -2.512814e+00  1.217500e+02
     vertex  1.664068e+02 -3.350419e+00  1.230000e+02
     vertex  1.660000e+02  1.414900e-14  1.230000e+02
   endloop
 endfacet
 facet normal -3.165259e-01 -1.200424e-01 -9.409576e-01
   outer loop
     vertex  1.698051e+02 -2.512814e+00  1.217500e+02
     vertex  1.676036e+02 -6.506124e+00  1.230000e+02
     vertex  1.664068e+02 -3.350419e+00  1.230000e+02
   endloop
 endfacet
 facet normal -3.360563e-01 -4.080462e-02 -9.409576e-01
   outer loop
     vertex  1.698051e+02 -2.512814e+00  1.217500e+02
     vertex  1.730000e+02  7.074502e-15  1.205000e+02
     vertex  1.732034e+02 -1.675210e+00  1.205000e+02
   endloop
 endfacet
 facet normal -3.165259e-01 -1.200424e-01 -9.409576e-01
   outer loop
     vertex  1.698051e+02 -2.512814e+00  1.217500e+02
     vertex  1.732034e+02 -1.675210e+00  1.205000e+02
     vertex  1.738018e+02 -3.253062e+00  1.205000e+02
   endloop
 endfacet
 facet normal -3.120968e-01  1.765018e-15 -9.500503e-01
   outer loop
     vertex  1.698051e+02 -2.512814e+00  1.217500e+02
     vertex  1.660000e+02  1.414900e-14  1.230000e+02
     vertex  1.698051e+02  2.512814e+00  1.217500e+02
   endloop
 endfacet
 facet normal -2.786002e-01 -1.923038e-01 -9.409576e-01
   outer loop
     vertex  1.721406e+02 -6.962788e+00  1.217500e+02
     vertex  1.695208e+02 -9.283717e+00  1.230000e+02
     vertex  1.676036e+02 -6.506124e+00  1.230000e+02
   endloop
 endfacet
 facet normal -2.244833e-01 -2.533892e-01 -9.409576e-01
   outer loop
     vertex  1.721406e+02 -6.962788e+00  1.217500e+02
     vertex  1.720471e+02 -1.152177e+01  1.230000e+02
     vertex  1.695208e+02 -9.283717e+00  1.230000e+02
   endloop
 endfacet
 facet normal -2.786002e-01 -1.923038e-01 -9.409576e-01
   outer loop
     vertex  1.721406e+02 -6.962788e+00  1.217500e+02
     vertex  1.738018e+02 -3.253062e+00  1.205000e+02
     vertex  1.747604e+02 -4.641859e+00  1.205000e+02
   endloop
 endfacet
 facet normal -2.244833e-01 -2.533892e-01 -9.409576e-01
   outer loop
     vertex  1.721406e+02 -6.962788e+00  1.217500e+02
     vertex  1.747604e+02 -4.641859e+00  1.205000e+02
     vertex  1.760235e+02 -5.760887e+00  1.205000e+02
   endloop
 endfacet
 facet normal -2.763480e-01 -1.450386e-01 -9.500503e-01
   outer loop
     vertex  1.721406e+02 -6.962788e+00  1.217500e+02
     vertex  1.676036e+02 -6.506124e+00  1.230000e+02
     vertex  1.698051e+02 -2.512814e+00  1.217500e+02
   endloop
 endfacet
 facet normal -3.226207e-01 -1.693244e-01 -9.312600e-01
   outer loop
     vertex  1.721406e+02 -6.962788e+00  1.217500e+02
     vertex  1.698051e+02 -2.512814e+00  1.217500e+02
     vertex  1.738018e+02 -3.253062e+00  1.205000e+02
   endloop
 endfacet
 facet normal -1.573202e-01 -2.997486e-01 -9.409576e-01
   outer loop
     vertex  1.762766e+02 -9.817671e+00  1.217500e+02
     vertex  1.750355e+02 -1.309023e+01  1.230000e+02
     vertex  1.720471e+02 -1.152177e+01  1.230000e+02
   endloop
 endfacet
 facet normal -8.101422e-02 -3.286876e-01 -9.409576e-01
   outer loop
     vertex  1.762766e+02 -9.817671e+00  1.217500e+02
     vertex  1.783125e+02 -1.389792e+01  1.230000e+02
     vertex  1.750355e+02 -1.309023e+01  1.230000e+02
   endloop
 endfacet
 facet normal -1.573202e-01 -2.997486e-01 -9.409576e-01
   outer loop
     vertex  1.762766e+02 -9.817671e+00  1.217500e+02
     vertex  1.760235e+02 -5.760887e+00  1.205000e+02
     vertex  1.775178e+02 -6.545114e+00  1.205000e+02
   endloop
 endfacet
 facet normal -8.101422e-02 -3.286876e-01 -9.409576e-01
   outer loop
     vertex  1.762766e+02 -9.817671e+00  1.217500e+02
     vertex  1.775178e+02 -6.545114e+00  1.205000e+02
     vertex  1.791562e+02 -6.948962e+00  1.205000e+02
   endloop
 endfacet
 facet normal -1.772912e-01 -2.568506e-01 -9.500503e-01
   outer loop
     vertex  1.762766e+02 -9.817671e+00  1.217500e+02
     vertex  1.720471e+02 -1.152177e+01  1.230000e+02
     vertex  1.721406e+02 -6.962788e+00  1.217500e+02
   endloop
 endfacet
 facet normal -2.069774e-01 -2.998586e-01 -9.312600e-01
   outer loop
     vertex  1.762766e+02 -9.817671e+00  1.217500e+02
     vertex  1.721406e+02 -6.962788e+00  1.217500e+02
     vertex  1.760235e+02 -5.760887e+00  1.205000e+02
   endloop
 endfacet
 facet normal -7.126939e-16 -3.385245e-01 -9.409576e-01
   outer loop
     vertex  1.812656e+02 -1.042344e+01  1.217500e+02
     vertex  1.816875e+02 -1.389792e+01  1.230000e+02
     vertex  1.783125e+02 -1.389792e+01  1.230000e+02
   endloop
 endfacet
 facet normal  8.101422e-02 -3.286876e-01 -9.409576e-01
   outer loop
     vertex  1.812656e+02 -1.042344e+01  1.217500e+02
     vertex  1.849645e+02 -1.309023e+01  1.230000e+02
     vertex  1.816875e+02 -1.389792e+01  1.230000e+02
   endloop
 endfacet
 facet normal -3.761911e-02 -3.098212e-01 -9.500503e-01
   outer loop
     vertex  1.812656e+02 -1.042344e+01  1.217500e+02
     vertex  1.783125e+02 -1.389792e+01  1.230000e+02
     vertex  1.762766e+02 -9.817671e+00  1.217500e+02
   endloop
 endfacet
 facet normal -5.701551e-16 -3.385245e-01 -9.409576e-01
   outer loop
     vertex  1.812656e+02 -1.042344e+01  1.217500e+02
     vertex  1.791562e+02 -6.948962e+00  1.205000e+02
     vertex  1.808438e+02 -6.948962e+00  1.205000e+02
   endloop
 endfacet
 facet normal  8.101422e-02 -3.286876e-01 -9.409576e-01
   outer loop
     vertex  1.812656e+02 -1.042344e+01  1.217500e+02
     vertex  1.808438e+02 -6.948962e+00  1.205000e+02
     vertex  1.824822e+02 -6.545114e+00  1.205000e+02
   endloop
 endfacet
 facet normal -4.391819e-02 -3.616988e-01 -9.312600e-01
   outer loop
     vertex  1.812656e+02 -1.042344e+01  1.217500e+02
     vertex  1.762766e+02 -9.817671e+00  1.217500e+02
     vertex  1.791562e+02 -6.948962e+00  1.205000e+02
   endloop
 endfacet
 facet normal  1.106710e-01 -2.918156e-01 -9.500503e-01
   outer loop
     vertex  1.859647e+02 -8.641331e+00  1.217500e+02
     vertex  1.849645e+02 -1.309023e+01  1.230000e+02
     vertex  1.812656e+02 -1.042344e+01  1.217500e+02
   endloop
 endfacet
 facet normal  1.292022e-01 -3.406782e-01 -9.312600e-01
   outer loop
     vertex  1.859647e+02 -8.641331e+00  1.217500e+02
     vertex  1.812656e+02 -1.042344e+01  1.217500e+02
     vertex  1.824822e+02 -6.545114e+00  1.205000e+02
   endloop
 endfacet
 facet normal  1.573202e-01 -2.997486e-01 -9.409576e-01
   outer loop
     vertex  1.859647e+02 -8.641331e+00  1.217500e+02
     vertex  1.879529e+02 -1.152177e+01  1.230000e+02
     vertex  1.849645e+02 -1.309023e+01  1.230000e+02
   endloop
 endfacet
 facet normal  2.244833e-01 -2.533892e-01 -9.409576e-01
   outer loop
     vertex  1.859647e+02 -8.641331e+00  1.217500e+02
     vertex  1.904792e+02 -9.283717e+00  1.230000e+02
     vertex  1.879529e+02 -1.152177e+01  1.230000e+02
   endloop
 endfacet
 facet normal  1.573202e-01 -2.997486e-01 -9.409576e-01
   outer loop
     vertex  1.859647e+02 -8.641331e+00  1.217500e+02
     vertex  1.824822e+02 -6.545114e+00  1.205000e+02
     vertex  1.839765e+02 -5.760887e+00  1.205000e+02
   endloop
 endfacet
 facet normal  2.244833e-01 -2.533892e-01 -9.409576e-01
   outer loop
     vertex  1.859647e+02 -8.641331e+00  1.217500e+02
     vertex  1.839765e+02 -5.760887e+00  1.205000e+02
     vertex  1.852396e+02 -4.641859e+00  1.205000e+02
   endloop
 endfacet
 facet normal  2.727239e-01 -2.416123e-01 -9.312600e-01
   outer loop
     vertex  1.892973e+02 -4.879593e+00  1.217500e+02
     vertex  1.859647e+02 -8.641331e+00  1.217500e+02
     vertex  1.852396e+02 -4.641859e+00  1.205000e+02
   endloop
 endfacet
 facet normal  2.336078e-01 -2.069585e-01 -9.500503e-01
   outer loop
     vertex  1.892973e+02 -4.879593e+00  1.217500e+02
     vertex  1.904792e+02 -9.283717e+00  1.230000e+02
     vertex  1.859647e+02 -8.641331e+00  1.217500e+02
   endloop
 endfacet
 facet normal  2.786002e-01 -1.923038e-01 -9.409576e-01
   outer loop
     vertex  1.892973e+02 -4.879593e+00  1.217500e+02
     vertex  1.923964e+02 -6.506124e+00  1.230000e+02
     vertex  1.904792e+02 -9.283717e+00  1.230000e+02
   endloop
 endfacet
 facet normal  3.165259e-01 -1.200424e-01 -9.409576e-01
   outer loop
     vertex  1.892973e+02 -4.879593e+00  1.217500e+02
     vertex  1.935932e+02 -3.350419e+00  1.230000e+02
     vertex  1.923964e+02 -6.506124e+00  1.230000e+02
   endloop
 endfacet
 facet normal  2.786002e-01 -1.923038e-01 -9.409576e-01
   outer loop
     vertex  1.892973e+02 -4.879593e+00  1.217500e+02
     vertex  1.852396e+02 -4.641859e+00  1.205000e+02
     vertex  1.861982e+02 -3.253062e+00  1.205000e+02
   endloop
 endfacet
 facet normal  3.165259e-01 -1.200424e-01 -9.409576e-01
   outer loop
     vertex  1.892973e+02 -4.879593e+00  1.217500e+02
     vertex  1.861982e+02 -3.253062e+00  1.205000e+02
     vertex  1.867966e+02 -1.675210e+00  1.205000e+02
   endloop
 endfacet
 facet normal  3.537679e-01 -8.719595e-02 -9.312600e-01
   outer loop
     vertex  1.892973e+02 -4.879593e+00  1.217500e+02
     vertex  1.867966e+02 -1.675210e+00  1.205000e+02
     vertex  1.905000e+02 -2.571758e-15  1.217500e+02
   endloop
 endfacet
 facet normal  3.030278e-01 -7.468965e-02 -9.500503e-01
   outer loop
     vertex  1.892973e+02 -4.879593e+00  1.217500e+02
     vertex  1.905000e+02 -2.571758e-15  1.217500e+02
     vertex  1.935932e+02 -3.350419e+00  1.230000e+02
   endloop
 endfacet
 facet normal  0.000000e+00  0.000000e+00 -1.000000e+00
   outer loop
     vertex  1.794319e+02 -8.229839e-01  1.180000e+02
     vertex  1.720471e+02 -1.152177e+01  1.180000e+02
     vertex  1.695208e+02 -9.283717e+00  1.180000e+02
   endloop
 endfacet
 facet normal -0.000000e+00  0.000000e+00 -1.000000e+00
   outer loop
     vertex  1.794319e+02 -8.229839e-01  1.180000e+02
     vertex  1.695208e+02 -9.283717e+00  1.180000e+02
     vertex  1.792515e+02 -6.631227e-01  1.180000e+02
   endloop
 endfacet
 facet normal  0.000000e+00  0.000000e+00 -1.000000e+00
   outer loop
     vertex  1.791145e+02 -4.647232e-01  1.180000e+02
     vertex  1.676036e+02 -6.506124e+00  1.180000e+02
     vertex  1.664068e+02 -3.350419e+00  1.180000e+02
   endloop
 endfacet
 facet normal  0.000000e+00  0.000000e+00 -1.000000e+00
   outer loop
     vertex  1.791145e+02 -4.647232e-01  1.180000e+02
     vertex  1.695208e+02 -9.283717e+00  1.180000e+02
     vertex  1.676036e+02 -6.506124e+00  1.180000e+02
   endloop
 endfacet
 facet normal  0.000000e+00 -0.000000e+00 -1.000000e+00
   outer loop
     vertex  1.791145e+02 -4.647232e-01  1.180000e+02
     vertex  1.792515e+02 -6.631227e-01  1.180000e+02
     vertex  1.695208e+02 -9.283717e+00  1.180000e+02
   endloop
 endfacet
 facet normal  0.000000e+00  0.000000e+00 -1.000000e+00
   outer loop
     vertex  1.796454e+02 -9.350162e-01  1.180000e+02
     vertex  1.750355e+02 -1.309023e+01  1.180000e+02
     vertex  1.720471e+02 -1.152177e+01  1.180000e+02
   endloop
 endfacet
 facet normal -0.000000e+00  0.000000e+00 -1.000000e+00
   outer loop
     vertex  1.796454e+02 -9.350162e-01  1.180000e+02
     vertex  1.720471e+02 -1.152177e+01  1.180000e+02
     vertex  1.794319e+02 -8.229839e-01  1.180000e+02
   endloop
 endfacet
 facet normal  0.000000e+00 -0.000000e+00 -1.000000e+00
   outer loop
     vertex  1.790291e+02 -2.393157e-01  1.180000e+02
     vertex  1.791145e+02 -4.647232e-01  1.180000e+02
     vertex  1.664068e+02 -3.350419e+00  1.180000e+02
   endloop
 endfacet
 facet normal  0.000000e+00  0.000000e+00 -1.000000e+00
   outer loop
     vertex  1.798795e+02 -9.927089e-01  1.180000e+02
     vertex  1.783125e+02 -1.389792e+01  1.180000e+02
     vertex  1.750355e+02 -1.309023e+01  1.180000e+02
   endloop
 endfacet
 facet normal -0.000000e+00  0.000000e+00 -1.000000e+00
   outer loop
     vertex  1.798795e+02 -9.927089e-01  1.180000e+02
     vertex  1.750355e+02 -1.309023e+01  1.180000e+02
     vertex  1.796454e+02 -9.350162e-01  1.180000e+02
   endloop
 endfacet
 facet normal -0.000000e+00  0.000000e+00 -1.000000e+00
   outer loop
     vertex  1.790000e+02  1.010643e-15  1.180000e+02
     vertex  1.664068e+02 -3.350419e+00  1.180000e+02
     vertex  1.660000e+02  1.414900e-14  1.180000e+02
   endloop
 endfacet
 facet normal  0.000000e+00 -0.000000e+00 -1.000000e+00
   outer loop
     vertex  1.790000e+02  1.010643e-15  1.180000e+02
     vertex  1.790291e+02 -2.393157e-01  1.180000e+02
     vertex  1.664068e+02 -3.350419e+00  1.180000e+02
   endloop
 endfacet
 facet normal  0.000000e+00 -0.000000e+00 -1.000000e+00
   outer loop
     vertex  1.801205e+02 -9.927089e-01  1.180000e+02
     vertex  1.816875e+02 -1.389792e+01  1.180000e+02
     vertex  1.783125e+02 -1.389792e+01  1.180000e+02
   endloop
 endfacet
 facet normal -0.000000e+00  0.000000e+00 -1.000000e+00
   outer loop
     vertex  1.801205e+02 -9.927089e-01  1.180000e+02
     vertex  1.783125e+02 -1.389792e+01  1.180000e+02
     vertex  1.798795e+02 -9.927089e-01  1.180000e+02
   endloop
 endfacet
 facet normal -0.000000e+00  0.000000e+00 -1.000000e+00
   outer loop
     vertex  1.790291e+02  2.393157e-01  1.180000e+02
     vertex  1.660000e+02  1.414900e-14  1.180000e+02
     vertex  1.664068e+02  3.350419e+00  1.180000e+02
   endloop
 endfacet
 facet normal  0.000000e+00  0.000000e+00 -1.000000e+00
   outer loop
     vertex  1.790291e+02  2.393157e-01  1.180000e+02
     vertex  1.790000e+02  1.010643e-15  1.180000e+02
     vertex  1.660000e+02  1.414900e-14  1.180000e+02
   endloop
 endfacet
 facet normal  0.000000e+00  0.000000e+00 -1.000000e+00
   outer loop
     vertex  1.803546e+02 -9.350162e-01  1.180000e+02
     vertex  1.849645e+02 -1.309023e+01  1.180000e+02
     vertex  1.816875e+02 -1.389792e+01  1.180000e+02
   endloop
 endfacet
 facet normal  0.000000e+00 -0.000000e+00 -1.000000e+00
   outer loop
     vertex  1.803546e+02 -9.350162e-01  1.180000e+02
     vertex  1.816875e+02 -1.389792e+01  1.180000e+02
     vertex  1.801205e+02 -9.927089e-01  1.180000e+02
   endloop
 endfacet
 facet normal  0.000000e+00  0.000000e+00 -1.000000e+00
   outer loop
     vertex  1.791145e+02  4.647232e-01  1.180000e+02
     vertex  1.664068e+02  3.350419e+00  1.180000e+02
     vertex  1.676036e+02  6.506124e+00  1.180000e+02
   endloop
 endfacet
 facet normal -0.000000e+00  0.000000e+00 -1.000000e+00
   outer loop
     vertex  1.791145e+02  4.647232e-01  1.180000e+02
     vertex  1.790291e+02  2.393157e-01  1.180000e+02
     vertex  1.664068e+02  3.350419e+00  1.180000e+02
   endloop
 endfacet
 facet normal  0.000000e+00  0.000000e+00 -1.000000e+00
   outer loop
     vertex  1.805681e+02 -8.229839e-01  1.180000e+02
     vertex  1.879529e+02 -1.152177e+01  1.180000e+02
     vertex  1.849645e+02 -1.309023e+01  1.180000e+02
   endloop
 endfacet
 facet normal  0.000000e+00 -0.000000e+00 -1.000000e+00
   outer loop
     vertex  1.805681e+02 -8.229839e-01  1.180000e+02
     vertex  1.849645e+02 -1.309023e+01  1.180000e+02
     vertex  1.803546e+02 -9.350162e-01  1.180000e+02
   endloop
 endfacet
 facet normal  0.000000e+00  0.000000e+00 -1.000000e+00
   outer loop
     vertex  1.792515e+02  6.631227e-01  1.180000e+02
     vertex  1.676036e+02  6.506124e+00  1.180000e+02
     vertex  1.695208e+02  9.283717e+00  1.180000e+02
   endloop
 endfacet
 facet normal -0.000000e+00  0.000000e+00 -1.000000e+00
   outer loop
     vertex  1.792515e+02  6.631227e-01  1.180000e+02
     vertex  1.791145e+02  4.647232e-01  1.180000e+02
     vertex  1.676036e+02  6.506124e+00  1.180000e+02
   endloop
 endfacet
 facet normal -0.000000e+00  0.000000e+00 -1.000000e+00
   outer loop
     vertex  1.904792e+02 -9.283717e+00  1.180000e+02
     vertex  1.879529e+02 -1.152177e+01  1.180000e+02
     vertex  1.805681e+02 -8.229839e-01  1.180000e+02
   endloop
 endfacet
 facet normal  0.000000e+00  0.000000e+00 -1.000000e+00
   outer loop
     vertex  1.904792e+02 -9.283717e+00  1.180000e+02
     vertex  1.805681e+02 -8.229839e-01  1.180000e+02
     vertex  1.807485e+02 -6.631227e-01  1.180000e+02
   endloop
 endfacet
 facet normal  0.000000e+00  0.000000e+00 -1.000000e+00
   outer loop
     vertex  1.904792e+02 -9.283717e+00  1.180000e+02
     vertex  1.807485e+02 -6.631227e-01  1.180000e+02
     vertex  1.808855e+02 -4.647232e-01  1.180000e+02
   endloop
 endfacet
 facet normal  0.000000e+00 -0.000000e+00 -1.000000e+00
   outer loop
     vertex  1.720471e+02  1.152177e+01  1.180000e+02
     vertex  1.792515e+02  6.631227e-01  1.180000e+02
     vertex  1.695208e+02  9.283717e+00  1.180000e+02
   endloop
 endfacet
 facet normal  0.000000e+00  0.000000e+00 -1.000000e+00
   outer loop
     vertex  1.720471e+02  1.152177e+01  1.180000e+02
     vertex  1.796454e+02  9.350162e-01  1.180000e+02
     vertex  1.794319e+02  8.229839e-01  1.180000e+02
   endloop
 endfacet
 facet normal  0.000000e+00  0.000000e+00 -1.000000e+00
   outer loop
     vertex  1.720471e+02  1.152177e+01  1.180000e+02
     vertex  1.794319e+02  8.229839e-01  1.180000e+02
     vertex  1.792515e+02  6.631227e-01  1.180000e+02
   endloop
 endfacet
 facet normal -0.000000e+00  0.000000e+00 -1.000000e+00
   outer loop
     vertex  1.923964e+02 -6.506124e+00  1.180000e+02
     vertex  1.904792e+02 -9.283717e+00  1.180000e+02
     vertex  1.808855e+02 -4.647232e-01  1.180000e+02
   endloop
 endfacet
 facet normal  0.000000e+00  0.000000e+00 -1.000000e+00
   outer loop
     vertex  1.750355e+02  1.309023e+01  1.180000e+02
     vertex  1.798795e+02  9.927089e-01  1.180000e+02
     vertex  1.796454e+02  9.350162e-01  1.180000e+02
   endloop
 endfacet
 facet normal  0.000000e+00 -0.000000e+00 -1.000000e+00
   outer loop
     vertex  1.750355e+02  1.309023e+01  1.180000e+02
     vertex  1.796454e+02  9.350162e-01  1.180000e+02
     vertex  1.720471e+02  1.152177e+01  1.180000e+02
   endloop
 endfacet
 facet normal -0.000000e+00  0.000000e+00 -1.000000e+00
   outer loop
     vertex  1.935932e+02 -3.350419e+00  1.180000e+02
     vertex  1.923964e+02 -6.506124e+00  1.180000e+02
     vertex  1.808855e+02 -4.647232e-01  1.180000e+02
   endloop
 endfacet
 facet normal  0.000000e+00  0.000000e+00 -1.000000e+00
   outer loop
     vertex  1.935932e+02 -3.350419e+00  1.180000e+02
     vertex  1.808855e+02 -4.647232e-01  1.180000e+02
     vertex  1.809709e+02 -2.393157e-01  1.180000e+02
   endloop
 endfacet
 facet normal  0.000000e+00  0.000000e+00 -1.000000e+00
   outer loop
     vertex  1.783125e+02  1.389792e+01  1.180000e+02
     vertex  1.801205e+02  9.927089e-01  1.180000e+02
     vertex  1.798795e+02  9.927089e-01  1.180000e+02
   endloop
 endfacet
 facet normal  0.000000e+00 -0.000000e+00 -1.000000e+00
   outer loop
     vertex  1.783125e+02  1.389792e+01  1.180000e+02
     vertex  1.798795e+02  9.927089e-01  1.180000e+02
     vertex  1.750355e+02  1.309023e+01  1.180000e+02
   endloop
 endfacet
 facet normal  0.000000e+00  0.000000e+00 -1.000000e+00
   outer loop
     vertex  1.940000e+02 -3.429011e-15  1.180000e+02
     vertex  1.810000e+02 -2.449294e-16  1.180000e+02
     vertex  1.809709e+02  2.393157e-01  1.180000e+02
   endloop
 endfacet
 facet normal  0.000000e+00  0.000000e+00 -1.000000e+00
   outer loop
     vertex  1.940000e+02 -3.429011e-15  1.180000e+02
     vertex  1.935932e+02 -3.350419e+00  1.180000e+02
     vertex  1.809709e+02 -2.393157e-01  1.180000e+02
   endloop
 endfacet
 facet normal -0.000000e+00  0.000000e+00 -1.000000e+00
   outer loop
     vertex  1.940000e+02 -3.429011e-15  1.180000e+02
     vertex  1.809709e+02 -2.393157e-01  1.180000e+02
     vertex  1.810000e+02 -2.449294e-16  1.180000e+02
   endloop
 endfacet
 facet normal -0.000000e+00  0.000000e+00 -1.000000e+00
   outer loop
     vertex  1.816875e+02  1.389792e+01  1.180000e+02
     vertex  1.801205e+02  9.927089e-01  1.180000e+02
     vertex  1.783125e+02  1.389792e+01  1.180000e+02
   endloop
 endfacet
 facet normal  0.000000e+00 -0.000000e+00 -1.000000e+00
   outer loop
     vertex  1.935932e+02  3.350419e+00  1.180000e+02
     vertex  1.940000e+02 -3.429011e-15  1.180000e+02
     vertex  1.809709e+02  2.393157e-01  1.180000e+02
   endloop
 endfacet
 facet normal  0.000000e+00  0.000000e+00 -1.000000e+00
   outer loop
     vertex  1.935932e+02  3.350419e+00  1.180000e+02
     vertex  1.809709e+02  2.393157e-01  1.180000e+02
     vertex  1.808855e+02  4.647232e-01  1.180000e+02
   endloop
 endfacet
 facet normal  0.000000e+00  0.000000e+00 -1.000000e+00
   outer loop
     vertex  1.849645e+02  1.309023e+01  1.180000e+02
     vertex  1.803546e+02  9.350162e-01  1.180000e+02
     vertex  1.801205e+02  9.927089e-01  1.180000e+02
   endloop
 endfacet
 facet normal -0.000000e+00  0.000000e+00 -1.000000e+00
   outer loop
     vertex  1.849645e+02  1.309023e+01  1.180000e+02
     vertex  1.801205e+02  9.927089e-01  1.180000e+02
     vertex  1.816875e+02  1.389792e+01  1.180000e+02
   endloop
 endfacet
 facet normal  0.000000e+00 -0.000000e+00 -1.000000e+00
   outer loop
     vertex  1.923964e+02  6.506124e+00  1.180000e+02
     vertex  1.935932e+02  3.350419e+00  1.180000e+02
     vertex  1.808855e+02  4.647232e-01  1.180000e+02
   endloop
 endfacet
 facet normal  0.000000e+00  0.000000e+00 -1.000000e+00
   outer loop
     vertex  1.879529e+02  1.152177e+01  1.180000e+02
     vertex  1.805681e+02  8.229839e-01  1.180000e+02
     vertex  1.803546e+02  9.350162e-01  1.180000e+02
   endloop
 endfacet
 facet normal -0.000000e+00  0.000000e+00 -1.000000e+00
   outer loop
     vertex  1.879529e+02  1.152177e+01  1.180000e+02
     vertex  1.803546e+02  9.350162e-01  1.180000e+02
     vertex  1.849645e+02  1.309023e+01  1.180000e+02
   endloop
 endfacet
 facet normal  0.000000e+00 -0.000000e+00 -1.000000e+00
   outer loop
     vertex  1.904792e+02  9.283717e+00  1.180000e+02
     vertex  1.923964e+02  6.506124e+00  1.180000e+02
     vertex  1.808855e+02  4.647232e-01  1.180000e+02
   endloop
 endfacet
 facet normal  0.000000e+00  0.000000e+00 -1.000000e+00
   outer loop
     vertex  1.904792e+02  9.283717e+00  1.180000e+02
     vertex  1.808855e+02  4.647232e-01  1.180000e+02
     vertex  1.807485e+02  6.631227e-01  1.180000e+02
   endloop
 endfacet
 facet normal  0.000000e+00  0.000000e+00 -1.000000e+00
   outer loop
     vertex  1.904792e+02  9.283717e+00  1.180000e+02
     vertex  1.807485e+02  6.631227e-01  1.180000e+02
     vertex  1.805681e+02  8.229839e-01  1.180000e+02
   endloop
 endfacet
 facet normal -0.000000e+00  0.000000e+00 -1.000000e+00
   outer loop
     vertex  1.904792e+02  9.283717e+00  1.180000e+02
     vertex  1.805681e+02  8.229839e-01  1.180000e+02
     vertex  1.879529e+02  1.152177e+01  1.180000e+02
   endloop
 endfacet
 facet normal  0.000000e+00  0.000000e+00  1.000000e+00
   outer loop
     vertex  1.794319e+02 -8.229839e-01  1.230000e+02
     vertex  1.695208e+02 -9.283717e+00  1.230000e+02
     vertex  1.720471e+02 -1.152177e+01  1.230000e+02
   endloop
 endfacet
 facet normal  0.000000e+00  0.000000e+00  1.000000e+00
   outer loop
     vertex  1.794319e+02 -8.229839e-01  1.230000e+02
     vertex  1.792515e+02 -6.631227e-01  1.230000e+02
     vertex  1.695208e+02 -9.283717e+00  1.230000e+02
   endloop
 endfacet
 facet normal  0.000000e+00  0.000000e+00  1.000000e+00
   outer loop
     vertex  1.791145e+02 -4.647232e-01  1.230000e+02
     vertex  1.664068e+02 -3.350419e+00  1.230000e+02
     vertex  1.676036e+02 -6.506124e+00  1.230000e+02
   endloop
 endfacet
 facet normal  0.000000e+00  0.000000e+00  1.000000e+00
   outer loop
     vertex  1.791145e+02 -4.647232e-01  1.230000e+02
     vertex  1.676036e+02 -6.506124e+00  1.230000e+02
     vertex  1.695208e+02 -9.283717e+00  1.230000e+02
   endloop
 endfacet
 facet normal  0.000000e+00  0.000000e+00  1.000000e+00
   outer loop
     vertex  1.791145e+02 -4.647232e-01  1.230000e+02
     vertex  1.695208e+02 -9.283717e+00  1.230000e+02
     vertex  1.792515e+02 -6.631227e-01  1.230000e+02
   endloop
 endfacet
 facet normal  0.000000e+00  0.000000e+00  1.000000e+00
   outer loop
     vertex  1.796454e+02 -9.350162e-01  1.230000e+02
     vertex  1.720471e+02 -1.152177e+01  1.230000e+02
     vertex  1.750355e+02 -1.309023e+01  1.230000e+02
   endloop
 endfacet
 facet normal  0.000000e+00  0.000000e+00  1.000000e+00
   outer loop
     vertex  1.796454e+02 -9.350162e-01  1.230000e+02
     vertex  1.794319e+02 -8.229839e-01  1.230000e+02
     vertex  1.720471e+02 -1.152177e+01  1.230000e+02
   endloop
 endfacet
 facet normal  0.000000e+00  0.000000e+00  1.000000e+00
   outer loop
     vertex  1.790291e+02 -2.393157e-01  1.230000e+02
     vertex  1.664068e+02 -3.350419e+00  1.230000e+02
     vertex  1.791145e+02 -4.647232e-01  1.230000e+02
   endloop
 endfacet
 facet normal  0.000000e+00  0.000000e+00  1.000000e+00
   outer loop
     vertex  1.798795e+02 -9.927089e-01  1.230000e+02
     vertex  1.750355e+02 -1.309023e+01  1.230000e+02
     vertex  1.783125e+02 -1.389792e+01  1.230000e+02
   endloop
 endfacet
 facet normal  0.000000e+00  0.000000e+00  1.000000e+00
   outer loop
     vertex  1.798795e+02 -9.927089e-01  1.230000e+02
     vertex  1.796454e+02 -9.350162e-01  1.230000e+02
     vertex  1.750355e+02 -1.309023e+01  1.230000e+02
   endloop
 endfacet
 facet normal  0.000000e+00  0.000000e+00  1.000000e+00
   outer loop
     vertex  1.790000e+02  1.010643e-15  1.230000e+02
     vertex  1.660000e+02  1.414900e-14  1.230000e+02
     vertex  1.664068e+02 -3.350419e+00  1.230000e+02
   endloop
 endfacet
 facet normal  0.000000e+00  0.000000e+00  1.000000e+00
   outer loop
     vertex  1.790000e+02  1.010643e-15  1.230000e+02
     vertex  1.664068e+02 -3.350419e+00  1.230000e+02
     vertex  1.790291e+02 -2.393157e-01  1.230000e+02
   endloop
 endfacet
 facet normal  0.000000e+00  0.000000e+00  1.000000e+00
   outer loop
     vertex  1.801205e+02 -9.927089e-01  1.230000e+02
     vertex  1.783125e+02 -1.389792e+01  1.230000e+02
     vertex  1.816875e+02 -1.389792e+01  1.230000e+02
   endloop
 endfacet
 facet normal  0.000000e+00  0.000000e+00  1.000000e+00
   outer loop
     vertex  1.801205e+02 -9.927089e-01  1.230000e+02
     vertex  1.798795e+02 -9.927089e-01  1.230000e+02
     vertex  1.783125e+02 -1.389792e+01  1.230000e+02
   endloop
 endfacet
 facet normal  0.000000e+00  0.000000e+00  1.000000e+00
   outer loop
     vertex  1.790291e+02  2.393157e-01  1.230000e+02
     vertex  1.664068e+02  3.350419e+00  1.230000e+02
     vertex  1.660000e+02  1.414900e-14  1.230000e+02
   endloop
 endfacet
 facet normal  0.000000e+00  0.000000e+00  1.000000e+00
   outer loop
     vertex  1.790291e+02  2.393157e-01  1.230000e+02
     vertex  1.660000e+02  1.414900e-14  1.230000e+02
     vertex  1.790000e+02  1.010643e-15  1.230000e+02
   endloop
 endfacet
 facet normal  0.000000e+00  0.000000e+00  1.000000e+00
   outer loop
     vertex  1.803546e+02 -9.350162e-01  1.230000e+02
     vertex  1.816875e+02 -1.389792e+01  1.230000e+02
     vertex  1.849645e+02 -1.309023e+01  1.230000e+02
   endloop
 endfacet
 facet normal  0.000000e+00  0.000000e+00  1.000000e+00
   outer loop
     vertex  1.803546e+02 -9.350162e-01  1.230000e+02
     vertex  1.801205e+02 -9.927089e-01  1.230000e+02
     vertex  1.816875e+02 -1.389792e+01  1.230000e+02
   endloop
 endfacet
 facet normal  0.000000e+00  0.000000e+00  1.000000e+00
   outer loop
     vertex  1.791145e+02  4.647232e-01  1.230000e+02
     vertex  1.676036e+02  6.506124e+00  1.230000e+02
     vertex  1.664068e+02  3.350419e+00  1.230000e+02
   endloop
 endfacet
 facet normal  0.000000e+00  0.000000e+00  1.000000e+00
   outer loop
     vertex  1.791145e+02  4.647232e-01  1.230000e+02
     vertex  1.664068e+02  3.350419e+00  1.230000e+02
     vertex  1.790291e+02  2.393157e-01  1.230000e+02
   endloop
 endfacet
 facet normal  0.000000e+00  0.000000e+00  1.000000e+00
   outer loop
     vertex  1.805681e+02 -8.229839e-01  1.230000e+02
     vertex  1.849645e+02 -1.309023e+01  1.230000e+02
     vertex  1.879529e+02 -1.152177e+01  1.230000e+02
   endloop
 endfacet
 facet normal  0.000000e+00  0.000000e+00  1.000000e+00
   outer loop
     vertex  1.805681e+02 -8.229839e-01  1.230000e+02
     vertex  1.803546e+02 -9.350162e-01  1.230000e+02
     vertex  1.849645e+02 -1.309023e+01  1.230000e+02
   endloop
 endfacet
 facet normal  0.000000e+00  0.000000e+00  1.000000e+00
   outer loop
     vertex  1.792515e+02  6.631227e-01  1.230000e+02
     vertex  1.695208e+02  9.283717e+00  1.230000e+02
     vertex  1.676036e+02  6.506124e+00  1.230000e+02
   endloop
 endfacet
 facet normal  0.000000e+00  0.000000e+00  1.000000e+00
   outer loop
     vertex  1.792515e+02  6.631227e-01  1.230000e+02
     vertex  1.676036e+02  6.506124e+00  1.230000e+02
     vertex  1.791145e+02  4.647232e-01  1.230000e+02
   endloop
 endfacet
 facet normal  0.000000e+00  0.000000e+00  1.000000e+00
   outer loop
     vertex  1.904792e+02 -9.283717e+00  1.230000e+02
     vertex  1.805681e+02 -8.229839e-01  1.230000e+02
     vertex  1.879529e+02 -1.152177e+01  1.230000e+02
   endloop
 endfacet
 facet normal  0.000000e+00  0.000000e+00  1.000000e+00
   outer loop
     vertex  1.904792e+02 -9.283717e+00  1.230000e+02
     vertex  1.807485e+02 -6.631227e-01  1.230000e+02
     vertex  1.805681e+02 -8.229839e-01  1.230000e+02
   endloop
 endfacet
 facet normal  0.000000e+00  0.000000e+00  1.000000e+00
   outer loop
     vertex  1.904792e+02 -9.283717e+00  1.230000e+02
     vertex  1.808855e+02 -4.647232e-01  1.230000e+02
     vertex  1.807485e+02 -6.631227e-01  1.230000e+02
   endloop
 endfacet
 facet normal  0.000000e+00  0.000000e+00  1.000000e+00
   outer loop
     vertex  1.720471e+02  1.152177e+01  1.230000e+02
     vertex  1.695208e+02  9.283717e+00  1.230000e+02
     vertex  1.792515e+02  6.631227e-01  1.230000e+02
   endloop
 endfacet
 facet normal  0.000000e+00  0.000000e+00  1.000000e+00
   outer loop
     vertex  1.720471e+02  1.152177e+01  1.230000e+02
     vertex  1.794319e+02  8.229839e-01  1.230000e+02
     vertex  1.796454e+02  9.350162e-01  1.230000e+02
   endloop
 endfacet
 facet normal  0.000000e+00  0.000000e+00  1.000000e+00
   outer loop
     vertex  1.720471e+02  1.152177e+01  1.230000e+02
     vertex  1.792515e+02  6.631227e-01  1.230000e+02
     vertex  1.794319e+02  8.229839e-01  1.230000e+02
   endloop
 endfacet
 facet normal  0.000000e+00  0.000000e+00  1.000000e+00
   outer loop
     vertex  1.923964e+02 -6.506124e+00  1.230000e+02
     vertex  1.808855e+02 -4.647232e-01  1.230000e+02
     vertex  1.904792e+02 -9.283717e+00  1.230000e+02
   endloop
 endfacet
 facet normal  0.000000e+00  0.000000e+00  1.000000e+00
   outer loop
     vertex  1.750355e+02  1.309023e+01  1.230000e+02
     vertex  1.796454e+02  9.350162e-01  1.230000e+02
     vertex  1.798795e+02  9.927089e-01  1.230000e+02
   endloop
 endfacet
 facet normal  0.000000e+00  0.000000e+00  1.000000e+00
   outer loop
     vertex  1.750355e+02  1.309023e+01  1.230000e+02
     vertex  1.720471e+02  1.152177e+01  1.230000e+02
     vertex  1.796454e+02  9.350162e-01  1.230000e+02
   endloop
 endfacet
 facet normal  0.000000e+00  0.000000e+00  1.000000e+00
   outer loop
     vertex  1.935932e+02 -3.350419e+00  1.230000e+02
     vertex  1.808855e+02 -4.647232e-01  1.230000e+02
     vertex  1.923964e+02 -6.506124e+00  1.230000e+02
   endloop
 endfacet
 facet normal  0.000000e+00  0.000000e+00  1.000000e+00
   outer loop
     vertex  1.935932e+02 -3.350419e+00  1.230000e+02
     vertex  1.809709e+02 -2.393157e-01  1.230000e+02
     vertex  1.808855e+02 -4.647232e-01  1.230000e+02
   endloop
 endfacet
 facet normal  0.000000e+00  0.000000e+00  1.000000e+00
   outer loop
     vertex  1.783125e+02  1.389792e+01  1.230000e+02
     vertex  1.798795e+02  9.927089e-01  1.230000e+02
     vertex  1.801205e+02  9.927089e-01  1.230000e+02
   endloop
 endfacet
 facet normal  0.000000e+00  0.000000e+00  1.000000e+00
   outer loop
     vertex  1.783125e+02  1.389792e+01  1.230000e+02
     vertex  1.750355e+02  1.309023e+01  1.230000e+02
     vertex  1.798795e+02  9.927089e-01  1.230000e+02
   endloop
 endfacet
 facet normal  0.000000e+00  0.000000e+00  1.000000e+00
   outer loop
     vertex  1.940000e+02 -3.429011e-15  1.230000e+02
     vertex  1.809709e+02  2.393157e-01  1.230000e+02
     vertex  1.810000e+02 -2.449294e-16  1.230000e+02
   endloop
 endfacet
 facet normal  0.000000e+00  0.000000e+00  1.000000e+00
   outer loop
     vertex  1.940000e+02 -3.429011e-15  1.230000e+02
     vertex  1.809709e+02 -2.393157e-01  1.230000e+02
     vertex  1.935932e+02 -3.350419e+00  1.230000e+02
   endloop
 endfacet
 facet normal  0.000000e+00  0.000000e+00  1.000000e+00
   outer loop
     vertex  1.940000e+02 -3.429011e-15  1.230000e+02
     vertex  1.810000e+02 -2.449294e-16  1.230000e+02
     vertex  1.809709e+02 -2.393157e-01  1.230000e+02
   endloop
 endfacet
 facet normal  0.000000e+00  0.000000e+00  1.000000e+00
   outer loop
     vertex  1.816875e+02  1.389792e+01  1.230000e+02
     vertex  1.783125e+02  1.389792e+01  1.230000e+02
     vertex  1.801205e+02  9.927089e-01  1.230000e+02
   endloop
 endfacet
 facet normal  0.000000e+00  0.000000e+00  1.000000e+00
   outer loop
     vertex  1.935932e+02  3.350419e+00  1.230000e+02
     vertex  1.809709e+02  2.393157e-01  1.230000e+02
     vertex  1.940000e+02 -3.429011e-15  1.230000e+02
   endloop
 endfacet
 facet normal  0.000000e+00  0.000000e+00  1.000000e+00
   outer loop
     vertex  1.935932e+02  3.350419e+00  1.230000e+02
     vertex  1.808855e+02  4.647232e-01  1.230000e+02
     vertex  1.809709e+02  2.393157e-01  1.230000e+02
   endloop
 endfacet
 facet normal  0.000000e+00  0.000000e+00  1.000000e+00
   outer loop
     vertex  1.849645e+02  1.309023e+01  1.230000e+02
     vertex  1.801205e+02  9.927089e-01  1.230000e+02
     vertex  1.803546e+02  9.350162e-01  1.230000e+02
   endloop
 endfacet
 facet normal  0.000000e+00  0.000000e+00  1.000000e+00
   outer loop
     vertex  1.849645e+02  1.309023e+01  1.230000e+02
     vertex  1.816875e+02  1.389792e+01  1.230000e+02
     vertex  1.801205e+02  9.927089e-01  1.230000e+02
   endloop
 endfacet
 facet normal  0.000000e+00  0.000000e+00  1.000000e+00
   outer loop
     vertex  1.923964e+02  6.506124e+00  1.230000e+02
     vertex  1.808855e+02  4.647232e-01  1.230000e+02
     vertex  1.935932e+02  3.350419e+00  1.230000e+02
   endloop
 endfacet
 facet normal  0.000000e+00  0.000000e+00  1.000000e+00
   outer loop
     vertex  1.879529e+02  1.152177e+01  1.230000e+02
     vertex  1.803546e+02  9.350162e-01  1.230000e+02
     vertex  1.805681e+02  8.229839e-01  1.230000e+02
   endloop
 endfacet
 facet normal  0.000000e+00  0.000000e+00  1.000000e+00
   outer loop
     vertex  1.879529e+02  1.152177e+01  1.230000e+02
     vertex  1.849645e+02  1.309023e+01  1.230000e+02
     vertex  1.803546e+02  9.350162e-01  1.230000e+02
   endloop
 endfacet
 facet normal  0.000000e+00  0.000000e+00  1.000000e+00
   outer loop
     vertex  1.904792e+02  9.283717e+00  1.230000e+02
     vertex  1.808855e+02  4.647232e-01  1.230000e+02
     vertex  1.923964e+02  6.506124e+00  1.230000e+02
   endloop
 endfacet
 facet normal  0.000000e+00  0.000000e+00  1.000000e+00
   outer loop
     vertex  1.904792e+02  9.283717e+00  1.230000e+02
     vertex  1.807485e+02  6.631227e-01  1.230000e+02
     vertex  1.808855e+02  4.647232e-01  1.230000e+02
   endloop
 endfacet
 facet normal  0.000000e+00  0.000000e+00  1.000000e+00
   outer loop
     vertex  1.904792e+02  9.283717e+00  1.230000e+02
     vertex  1.805681e+02  8.229839e-01  1.230000e+02
     vertex  1.807485e+02  6.631227e-01  1.230000e+02
   endloop
 endfacet
 facet normal  0.000000e+00  0.000000e+00  1.000000e+00
   outer loop
     vertex  1.904792e+02  9.283717e+00  1.230000e+02
     vertex  1.879529e+02  1.152177e+01  1.230000e+02
     vertex  1.805681e+02  8.229839e-01  1.230000e+02
   endloop
 endfacet
 facet normal -9.927089e-01 -1.205367e-01  0.000000e+00
   outer loop
     vertex  1.809709e+02  2.393157e-01  1.230000e+02
     vertex  1.810000e+02 -2.449294e-16  1.180000e+02
     vertex  1.810000e+02 -2.449294e-16  1.230000e+02
   endloop
 endfacet
 facet normal -9.927089e-01 -1.205367e-01 -0.000000e+00
   outer loop
     vertex  1.809709e+02  2.393157e-01  1.230000e+02
     vertex  1.809709e+02  2.393157e-01  1.180000e+02
     vertex  1.810000e+02 -2.449294e-16  1.180000e+02
   endloop
 endfacet
 facet normal -9.350162e-01 -3.546049e-01 -0.000000e+00
   outer loop
     vertex  1.808855e+02  4.647232e-01  1.230000e+02
     vertex  1.808855e+02  4.647232e-01  1.180000e+02
     vertex  1.809709e+02  2.393157e-01  1.180000e+02
   endloop
 endfacet
 facet normal -8.229839e-01 -5.680647e-01 -0.000000e+00
   outer loop
     vertex  1.808855e+02  4.647232e-01  1.230000e+02
     vertex  1.807485e+02  6.631227e-01  1.180000e+02
     vertex  1.808855e+02  4.647232e-01  1.180000e+02
   endloop
 endfacet
 facet normal -9.350162e-01 -3.546049e-01  0.000000e+00
   outer loop
     vertex  1.808855e+02  4.647232e-01  1.230000e+02
     vertex  1.809709e+02  2.393157e-01  1.180000e+02
     vertex  1.809709e+02  2.393157e-01  1.230000e+02
   endloop
 endfacet
 facet normal -8.229839e-01 -5.680647e-01 -0.000000e+00
   outer loop
     vertex  1.807485e+02  6.631227e-01  1.230000e+02
     vertex  1.807485e+02  6.631227e-01  1.180000e+02
     vertex  1.808855e+02  4.647232e-01  1.230000e+02
   endloop
 endfacet
 facet normal -6.631227e-01 -7.485107e-01 -0.000000e+00
   outer loop
     vertex  1.805681e+02  8.229839e-01  1.230000e+02
     vertex  1.805681e+02  8.229839e-01  1.180000e+02
     vertex  1.807485e+02  6.631227e-01  1.180000e+02
   endloop
 endfacet
 facet normal -6.631227e-01 -7.485107e-01  0.000000e+00
   outer loop
     vertex  1.805681e+02  8.229839e-01  1.230000e+02
     vertex  1.807485e+02  6.631227e-01  1.180000e+02
     vertex  1.807485e+02  6.631227e-01  1.230000e+02
   endloop
 endfacet
 facet normal -4.647232e-01 -8.854560e-01 -0.000000e+00
   outer loop
     vertex  1.803546e+02  9.350162e-01  1.230000e+02
     vertex  1.803546e+02  9.350162e-01  1.180000e+02
     vertex  1.805681e+02  8.229839e-01  1.180000e+02
   endloop
 endfacet
 facet normal -2.393157e-01 -9.709418e-01 -0.000000e+00
   outer loop
     vertex  1.803546e+02  9.350162e-01  1.230000e+02
     vertex  1.801205e+02  9.927089e-01  1.180000e+02
     vertex  1.803546e+02  9.350162e-01  1.180000e+02
   endloop
 endfacet
 facet normal -4.647232e-01 -8.854560e-01  0.000000e+00
   outer loop
     vertex  1.803546e+02  9.350162e-01  1.230000e+02
     vertex  1.805681e+02  8.229839e-01  1.180000e+02
     vertex  1.805681e+02  8.229839e-01  1.230000e+02
   endloop
 endfacet
 facet normal -2.393157e-01 -9.709418e-01 -0.000000e+00
   outer loop
     vertex  1.801205e+02  9.927089e-01  1.230000e+02
     vertex  1.801205e+02  9.927089e-01  1.180000e+02
     vertex  1.803546e+02  9.350162e-01  1.230000e+02
   endloop
 endfacet
 facet normal  0.000000e+00 -1.000000e+00  0.000000e+00
   outer loop
     vertex  1.798795e+02  9.927089e-01  1.230000e+02
     vertex  1.798795e+02  9.927089e-01  1.180000e+02
     vertex  1.801205e+02  9.927089e-01  1.180000e+02
   endloop
 endfacet
 facet normal  0.000000e+00 -1.000000e+00  0.000000e+00
   outer loop
     vertex  1.798795e+02  9.927089e-01  1.230000e+02
     vertex  1.801205e+02  9.927089e-01  1.180000e+02
     vertex  1.801205e+02  9.927089e-01  1.230000e+02
   endloop
 endfacet
 facet normal  2.393157e-01 -9.709418e-01  0.000000e+00
   outer loop
     vertex  1.796454e+02  9.350162e-01  1.230000e+02
     vertex  1.796454e+02  9.350162e-01  1.180000e+02
     vertex  1.798795e+02  9.927089e-01  1.180000e+02
   endloop
 endfacet
 facet normal  2.393157e-01 -9.709418e-01  0.000000e+00
   outer loop
     vertex  1.796454e+02  9.350162e-01  1.230000e+02
     vertex  1.798795e+02  9.927089e-01  1.180000e+02
     vertex  1.798795e+02  9.927089e-01  1.230000e+02
   endloop
 endfacet
 facet normal  4.647232e-01 -8.854560e-01  0.000000e+00
   outer loop
     vertex  1.794319e+02  8.229839e-01  1.230000e+02
     vertex  1.794319e+02  8.229839e-01  1.180000e+02
     vertex  1.796454e+02  9.350162e-01  1.180000e+02
   endloop
 endfacet
 facet normal  4.647232e-01 -8.854560e-01  0.000000e+00
   outer loop
     vertex  1.794319e+02  8.229839e-01  1.230000e+02
     vertex  1.796454e+02  9.350162e-01  1.180000e+02
     vertex  1.796454e+02  9.350162e-01  1.230000e+02
   endloop
 endfacet
 facet normal  6.631227e-01 -7.485107e-01  0.000000e+00
   outer loop
     vertex  1.792515e+02  6.631227e-01  1.230000e+02
     vertex  1.792515e+02  6.631227e-01  1.180000e+02
     vertex  1.794319e+02  8.229839e-01  1.180000e+02
   endloop
 endfacet
 facet normal  8.229839e-01 -5.680647e-01  0.000000e+00
   outer loop
     vertex  1.792515e+02  6.631227e-01  1.230000e+02
     vertex  1.791145e+02  4.647232e-01  1.180000e+02
     vertex  1.792515e+02  6.631227e-01  1.180000e+02
   endloop
 endfacet
 facet normal  6.631227e-01 -7.485107e-01  0.000000e+00
   outer loop
     vertex  1.792515e+02  6.631227e-01  1.230000e+02
     vertex  1.794319e+02  8.229839e-01  1.180000e+02
     vertex  1.794319e+02  8.229839e-01  1.230000e+02
   endloop
 endfacet
 facet normal  8.229839e-01 -5.680647e-01  0.000000e+00
   outer loop
     vertex  1.791145e+02  4.647232e-01  1.230000e+02
     vertex  1.791145e+02  4.647232e-01  1.180000e+02
     vertex  1.792515e+02  6.631227e-01  1.230000e+02
   endloop
 endfacet
 facet normal  9.350162e-01 -3.546049e-01  0.000000e+00
   outer loop
     vertex  1.791145e+02  4.647232e-01  1.230000e+02
     vertex  1.790291e+02  2.393157e-01  1.180000e+02
     vertex  1.791145e+02  4.647232e-01  1.180000e+02
   endloop
 endfacet
 facet normal  9.350162e-01 -3.546049e-01  0.000000e+00
   outer loop
     vertex  1.790291e+02  2.393157e-01  1.230000e+02
     vertex  1.790291e+02  2.393157e-01  1.180000e+02
     vertex  1.791145e+02  4.647232e-01  1.230000e+02
   endloop
 endfacet
 facet normal  9.927089e-01 -1.205367e-01  0.000000e+00
   outer loop
     vertex  1.790000e+02  1.010643e-15  1.230000e+02
     vertex  1.790291e+02  2.393157e-01  1.180000e+02
     vertex  1.790291e+02  2.393157e-01  1.230000e+02
   endloop
 endfacet
 facet normal  9.927089e-01 -1.205367e-01  0.000000e+00
   outer loop
     vertex  1.790000e+02  1.010643e-15  1.230000e+02
     vertex  1.790000e+02  1.010643e-15  1.180000e+02
     vertex  1.790291e+02  2.393157e-01  1.180000e+02
   endloop
 endfacet
 facet normal  9.927089e-01  1.205367e-01  0.000000e+00
   outer loop
     vertex  1.790000e+02  1.010643e-15  1.230000e+02
     vertex  1.790291e+02 -2.393157e-01  1.180000e+02
     vertex  1.790000e+02  1.010643e-15  1.180000e+02
   endloop
 endfacet
 facet normal  9.927089e-01  1.205367e-01  0.000000e+00
   outer loop
     vertex  1.790291e+02 -2.393157e-01  1.230000e+02
     vertex  1.790291e+02 -2.393157e-01  1.180000e+02
     vertex  1.790000e+02  1.010643e-15  1.230000e+02
   endloop
 endfacet
 facet normal  9.350162e-01  3.546049e-01  0.000000e+00
   outer loop
     vertex  1.791145e+02 -4.647232e-01  1.230000e+02
     vertex  1.790291e+02 -2.393157e-01  1.180000e+02
     vertex  1.790291e+02 -2.393157e-01  1.230000e+02
   endloop
 endfacet
 facet normal  9.350162e-01  3.546049e-01  0.000000e+00
   outer loop
     vertex  1.791145e+02 -4.647232e-01  1.230000e+02
     vertex  1.791145e+02 -4.647232e-01  1.180000e+02
     vertex  1.790291e+02 -2.393157e-01  1.180000e+02
   endloop
 endfacet
 facet normal  8.229839e-01  5.680647e-01  0.000000e+00
   outer loop
     vertex  1.792515e+02 -6.631227e-01  1.230000e+02
     vertex  1.791145e+02 -4.647232e-01  1.180000e+02
     vertex  1.791145e+02 -4.647232e-01  1.230000e+02
   endloop
 endfacet
 facet normal  8.229839e-01  5.680647e-01  0.000000e+00
   outer loop
     vertex  1.792515e+02 -6.631227e-01  1.230000e+02
     vertex  1.792515e+02 -6.631227e-01  1.180000e+02
     vertex  1.791145e+02 -4.647232e-01  1.180000e+02
   endloop
 endfacet
 facet normal  6.631227e-01  7.485107e-01  0.000000e+00
   outer loop
     vertex  1.794319e+02 -8.229839e-01  1.230000e+02
     vertex  1.792515e+02 -6.631227e-01  1.180000e+02
     vertex  1.792515e+02 -6.631227e-01  1.230000e+02
   endloop
 endfacet
 facet normal  6.631227e-01  7.485107e-01  0.000000e+00
   outer loop
     vertex  1.794319e+02 -8.229839e-01  1.230000e+02
     vertex  1.794319e+02 -8.229839e-01  1.180000e+02
     vertex  1.792515e+02 -6.631227e-01  1.180000e+02
   endloop
 endfacet
 facet normal  4.647232e-01  8.854560e-01  0.000000e+00
   outer loop
     vertex  1.796454e+02 -9.350162e-01  1.230000e+02
     vertex  1.794319e+02 -8.229839e-01  1.180000e+02
     vertex  1.794319e+02 -8.229839e-01  1.230000e+02
   endloop
 endfacet
 facet normal  4.647232e-01  8.854560e-01  0.000000e+00
   outer loop
     vertex  1.796454e+02 -9.350162e-01  1.230000e+02
     vertex  1.796454e+02 -9.350162e-01  1.180000e+02
     vertex  1.794319e+02 -8.229839e-01  1.180000e+02
   endloop
 endfacet
 facet normal  2.393157e-01  9.709418e-01  0.000000e+00
   outer loop
     vertex  1.798795e+02 -9.927089e-01  1.230000e+02
     vertex  1.796454e+02 -9.350162e-01  1.180000e+02
     vertex  1.796454e+02 -9.350162e-01  1.230000e+02
   endloop
 endfacet
 facet normal  2.393157e-01  9.709418e-01  0.000000e+00
   outer loop
     vertex  1.798795e+02 -9.927089e-01  1.230000e+02
     vertex  1.798795e+02 -9.927089e-01  1.180000e+02
     vertex  1.796454e+02 -9.350162e-01  1.180000e+02
   endloop
 endfacet
 facet normal  2.302666e-15  1.000000e+00  0.000000e+00
   outer loop
     vertex  1.798795e+02 -9.927089e-01  1.230000e+02
     vertex  1.801205e+02 -9.927089e-01  1.180000e+02
     vertex  1.798795e+02 -9.927089e-01  1.180000e+02
   endloop
 endfacet
 facet normal  2.302666e-15  1.000000e+00  0.000000e+00
   outer loop
     vertex  1.801205e+02 -9.927089e-01  1.230000e+02
     vertex  1.801205e+02 -9.927089e-01  1.180000e+02
     vertex  1.798795e+02 -9.927089e-01  1.230000e+02
   endloop
 endfacet
 facet normal -2.393157e-01  9.709418e-01  0.000000e+00
   outer loop
     vertex  1.803546e+02 -9.350162e-01  1.230000e+02
     vertex  1.801205e+02 -9.927089e-01  1.180000e+02
     vertex  1.801205e+02 -9.927089e-01  1.230000e+02
   endloop
 endfacet
 facet normal -2.393157e-01  9.709418e-01  0.000000e+00
   outer loop
     vertex  1.803546e+02 -9.350162e-01  1.230000e+02
     vertex  1.803546e+02 -9.350162e-01  1.180000e+02
     vertex  1.801205e+02 -9.927089e-01  1.180000e+02
   endloop
 endfacet
 facet normal -4.647232e-01  8.854560e-01  0.000000e+00
   outer loop
     vertex  1.805681e+02 -8.229839e-01  1.230000e+02
     vertex  1.803546e+02 -9.350162e-01  1.180000e+02
     vertex  1.803546e+02 -9.350162e-01  1.230000e+02
   endloop
 endfacet
 facet normal -4.647232e-01  8.854560e-01  0.000000e+00
   outer loop
     vertex  1.805681e+02 -8.229839e-01  1.230000e+02
     vertex  1.805681e+02 -8.229839e-01  1.180000e+02
     vertex  1.803546e+02 -9.350162e-01  1.180000e+02
   endloop
 endfacet
 facet normal -6.631227e-01  7.485107e-01  0.000000e+00
   outer loop
     vertex  1.805681e+02 -8.229839e-01  1.230000e+02
     vertex  1.807485e+02 -6.631227e-01  1.180000e+02
     vertex  1.805681e+02 -8.229839e-01  1.180000e+02
   endloop
 endfacet
 facet normal -6.631227e-01  7.485107e-01  0.000000e+00
   outer loop
     vertex  1.807485e+02 -6.631227e-01  1.230000e+02
     vertex  1.807485e+02 -6.631227e-01  1.180000e+02
     vertex  1.805681e+02 -8.229839e-01  1.230000e+02
   endloop
 endfacet
 facet normal -8.229839e-01  5.680647e-01  0.000000e+00
   outer loop
     vertex  1.807485e+02 -6.631227e-01  1.230000e+02
     vertex  1.808855e+02 -4.647232e-01  1.180000e+02
     vertex  1.807485e+02 -6.631227e-01  1.180000e+02
   endloop
 endfacet
 facet normal -8.229839e-01  5.680647e-01  0.000000e+00
   outer loop
     vertex  1.808855e+02 -4.647232e-01  1.230000e+02
     vertex  1.808855e+02 -4.647232e-01  1.180000e+02
     vertex  1.807485e+02 -6.631227e-01  1.230000e+02
   endloop
 endfacet
 facet normal -9.350162e-01  3.546049e-01  0.000000e+00
   outer loop
     vertex  1.809709e+02 -2.393157e-01  1.230000e+02
     vertex  1.809709e+02 -2.393157e-01  1.180000e+02
     vertex  1.808855e+02 -4.647232e-01  1.180000e+02
   endloop
 endfacet
 facet normal -9.927089e-01  1.205367e-01  0.000000e+00
   outer loop
     vertex  1.809709e+02 -2.393157e-01  1.230000e+02
     vertex  1.810000e+02 -2.449294e-16  1.180000e+02
     vertex  1.809709e+02 -2.393157e-01  1.180000e+02
   endloop
 endfacet
 facet normal -9.350162e-01  3.546049e-01  0.000000e+00
   outer loop
     vertex  1.809709e+02 -2.393157e-01  1.230000e+02
     vertex  1.808855e+02 -4.647232e-01  1.180000e+02
     vertex  1.808855e+02 -4.647232e-01  1.230000e+02
   endloop
 endfacet
 facet normal -9.927089e-01  1.205367e-01  0.000000e+00
   outer loop
     vertex  1.810000e+02 -2.449294e-16  1.230000e+02
     vertex  1.810000e+02 -2.449294e-16  1.180000e+02
     vertex  1.809709e+02 -2.393157e-01  1.230000e+02
   endloop
 endfacet
endsolid
