solid 
 facet normal  3.360563e-01  4.080462e-02  9.409576e-01
   outer loop
     vertex  1.605000e+02 -2.571758e-15  6.125000e+01
     vertex  1.640000e+02 -3.429011e-15  6.000000e+01
     vertex  1.635932e+02  3.350419e+00  6.000000e+01
   endloop
 endfacet
 facet normal  3.360563e-01  4.080462e-02  9.409576e-01
   outer loop
     vertex  1.567966e+02  1.675210e+00  6.250000e+01
     vertex  1.570000e+02 -1.714506e-15  6.250000e+01
     vertex  1.605000e+02 -2.571758e-15  6.125000e+01
   endloop
 endfacet
 facet normal  3.360563e-01 -4.080462e-02  9.409576e-01
   outer loop
     vertex  1.605000e+02 -2.571758e-15  6.125000e+01
     vertex  1.635932e+02 -3.350419e+00  6.000000e+01
     vertex  1.640000e+02 -3.429011e-15  6.000000e+01
   endloop
 endfacet
 facet normal  3.360563e-01 -4.080462e-02  9.409576e-01
   outer loop
     vertex  1.570000e+02 -1.714506e-15  6.250000e+01
     vertex  1.567966e+02 -1.675210e+00  6.250000e+01
     vertex  1.605000e+02 -2.571758e-15  6.125000e+01
   endloop
 endfacet
 facet normal  3.165259e-01  1.200424e-01  9.409576e-01
   outer loop
     vertex  1.592973e+02  4.879593e+00  6.125000e+01
     vertex  1.561982e+02  3.253062e+00  6.250000e+01
     vertex  1.567966e+02  1.675210e+00  6.250000e+01
   endloop
 endfacet
 facet normal  2.786002e-01  1.923038e-01  9.409576e-01
   outer loop
     vertex  1.592973e+02  4.879593e+00  6.125000e+01
     vertex  1.552396e+02  4.641859e+00  6.250000e+01
     vertex  1.561982e+02  3.253062e+00  6.250000e+01
   endloop
 endfacet
 facet normal  3.165259e-01  1.200424e-01  9.409576e-01
   outer loop
     vertex  1.592973e+02  4.879593e+00  6.125000e+01
     vertex  1.635932e+02  3.350419e+00  6.000000e+01
     vertex  1.623964e+02  6.506124e+00  6.000000e+01
   endloop
 endfacet
 facet normal  2.786002e-01  1.923038e-01  9.409576e-01
   outer loop
     vertex  1.592973e+02  4.879593e+00  6.125000e+01
     vertex  1.623964e+02  6.506124e+00  6.000000e+01
     vertex  1.604792e+02  9.283717e+00  6.000000e+01
   endloop
 endfacet
 facet normal  3.030278e-01  7.468965e-02  9.500503e-01
   outer loop
     vertex  1.592973e+02  4.879593e+00  6.125000e+01
     vertex  1.605000e+02 -2.571758e-15  6.125000e+01
     vertex  1.635932e+02  3.350419e+00  6.000000e+01
   endloop
 endfacet
 facet normal  3.537679e-01  8.719595e-02  9.312600e-01
   outer loop
     vertex  1.592973e+02  4.879593e+00  6.125000e+01
     vertex  1.567966e+02  1.675210e+00  6.250000e+01
     vertex  1.605000e+02 -2.571758e-15  6.125000e+01
   endloop
 endfacet
 facet normal  2.244833e-01  2.533892e-01  9.409576e-01
   outer loop
     vertex  1.559647e+02  8.641331e+00  6.125000e+01
     vertex  1.539765e+02  5.760887e+00  6.250000e+01
     vertex  1.552396e+02  4.641859e+00  6.250000e+01
   endloop
 endfacet
 facet normal  1.573202e-01  2.997486e-01  9.409576e-01
   outer loop
     vertex  1.559647e+02  8.641331e+00  6.125000e+01
     vertex  1.524822e+02  6.545114e+00  6.250000e+01
     vertex  1.539765e+02  5.760887e+00  6.250000e+01
   endloop
 endfacet
 facet normal  2.244833e-01  2.533892e-01  9.409576e-01
   outer loop
     vertex  1.559647e+02  8.641331e+00  6.125000e+01
     vertex  1.604792e+02  9.283717e+00  6.000000e+01
     vertex  1.579529e+02  1.152177e+01  6.000000e+01
   endloop
 endfacet
 facet normal  1.573202e-01  2.997486e-01  9.409576e-01
   outer loop
     vertex  1.559647e+02  8.641331e+00  6.125000e+01
     vertex  1.579529e+02  1.152177e+01  6.000000e+01
     vertex  1.549645e+02  1.309023e+01  6.000000e+01
   endloop
 endfacet
 facet normal  2.727239e-01  2.416123e-01  9.312600e-01
   outer loop
     vertex  1.559647e+02  8.641331e+00  6.125000e+01
     vertex  1.552396e+02  4.641859e+00  6.250000e+01
     vertex  1.592973e+02  4.879593e+00  6.125000e+01
   endloop
 endfacet
 facet normal  2.336078e-01  2.069585e-01  9.500503e-01
   outer loop
     vertex  1.559647e+02  8.641331e+00  6.125000e+01
     vertex  1.592973e+02  4.879593e+00  6.125000e+01
     vertex  1.604792e+02  9.283717e+00  6.000000e+01
   endloop
 endfacet
 facet normal  1.292022e-01  3.406782e-01  9.312600e-01
   outer loop
     vertex  1.512656e+02  1.042344e+01  6.125000e+01
     vertex  1.524822e+02  6.545114e+00  6.250000e+01
     vertex  1.559647e+02  8.641331e+00  6.125000e+01
   endloop
 endfacet
 facet normal  8.101422e-02  3.286876e-01  9.409576e-01
   outer loop
     vertex  1.512656e+02  1.042344e+01  6.125000e+01
     vertex  1.508438e+02  6.948962e+00  6.250000e+01
     vertex  1.524822e+02  6.545114e+00  6.250000e+01
   endloop
 endfacet
 facet normal  0.000000e+00  3.385245e-01  9.409576e-01
   outer loop
     vertex  1.512656e+02  1.042344e+01  6.125000e+01
     vertex  1.491562e+02  6.948962e+00  6.250000e+01
     vertex  1.508438e+02  6.948962e+00  6.250000e+01
   endloop
 endfacet
 facet normal  1.106710e-01  2.918156e-01  9.500503e-01
   outer loop
     vertex  1.512656e+02  1.042344e+01  6.125000e+01
     vertex  1.559647e+02  8.641331e+00  6.125000e+01
     vertex  1.549645e+02  1.309023e+01  6.000000e+01
   endloop
 endfacet
 facet normal  8.101422e-02  3.286876e-01  9.409576e-01
   outer loop
     vertex  1.512656e+02  1.042344e+01  6.125000e+01
     vertex  1.549645e+02  1.309023e+01  6.000000e+01
     vertex  1.516875e+02  1.389792e+01  6.000000e+01
   endloop
 endfacet
 facet normal  0.000000e+00  3.385245e-01  9.409576e-01
   outer loop
     vertex  1.512656e+02  1.042344e+01  6.125000e+01
     vertex  1.516875e+02  1.389792e+01  6.000000e+01
     vertex  1.483125e+02  1.389792e+01  6.000000e+01
   endloop
 endfacet
 facet normal -8.101422e-02  3.286876e-01  9.409576e-01
   outer loop
     vertex  1.462766e+02  9.817671e+00  6.125000e+01
     vertex  1.475178e+02  6.545114e+00  6.250000e+01
     vertex  1.491562e+02  6.948962e+00  6.250000e+01
   endloop
 endfacet
 facet normal -1.573202e-01  2.997486e-01  9.409576e-01
   outer loop
     vertex  1.462766e+02  9.817671e+00  6.125000e+01
     vertex  1.460235e+02  5.760887e+00  6.250000e+01
     vertex  1.475178e+02  6.545114e+00  6.250000e+01
   endloop
 endfacet
 facet normal -8.101422e-02  3.286876e-01  9.409576e-01
   outer loop
     vertex  1.462766e+02  9.817671e+00  6.125000e+01
     vertex  1.483125e+02  1.389792e+01  6.000000e+01
     vertex  1.450355e+02  1.309023e+01  6.000000e+01
   endloop
 endfacet
 facet normal -1.573202e-01  2.997486e-01  9.409576e-01
   outer loop
     vertex  1.462766e+02  9.817671e+00  6.125000e+01
     vertex  1.450355e+02  1.309023e+01  6.000000e+01
     vertex  1.420471e+02  1.152177e+01  6.000000e+01
   endloop
 endfacet
 facet normal -4.391819e-02  3.616988e-01  9.312600e-01
   outer loop
     vertex  1.462766e+02  9.817671e+00  6.125000e+01
     vertex  1.491562e+02  6.948962e+00  6.250000e+01
     vertex  1.512656e+02  1.042344e+01  6.125000e+01
   endloop
 endfacet
 facet normal -3.761911e-02  3.098212e-01  9.500503e-01
   outer loop
     vertex  1.462766e+02  9.817671e+00  6.125000e+01
     vertex  1.512656e+02  1.042344e+01  6.125000e+01
     vertex  1.483125e+02  1.389792e+01  6.000000e+01
   endloop
 endfacet
 facet normal -2.244833e-01  2.533892e-01  9.409576e-01
   outer loop
     vertex  1.421406e+02  6.962788e+00  6.125000e+01
     vertex  1.447604e+02  4.641859e+00  6.250000e+01
     vertex  1.460235e+02  5.760887e+00  6.250000e+01
   endloop
 endfacet
 facet normal -2.786002e-01  1.923038e-01  9.409576e-01
   outer loop
     vertex  1.421406e+02  6.962788e+00  6.125000e+01
     vertex  1.438018e+02  3.253062e+00  6.250000e+01
     vertex  1.447604e+02  4.641859e+00  6.250000e+01
   endloop
 endfacet
 facet normal -2.244833e-01  2.533892e-01  9.409576e-01
   outer loop
     vertex  1.421406e+02  6.962788e+00  6.125000e+01
     vertex  1.420471e+02  1.152177e+01  6.000000e+01
     vertex  1.395208e+02  9.283717e+00  6.000000e+01
   endloop
 endfacet
 facet normal -2.786002e-01  1.923038e-01  9.409576e-01
   outer loop
     vertex  1.421406e+02  6.962788e+00  6.125000e+01
     vertex  1.395208e+02  9.283717e+00  6.000000e+01
     vertex  1.376036e+02  6.506124e+00  6.000000e+01
   endloop
 endfacet
 facet normal -2.069774e-01  2.998586e-01  9.312600e-01
   outer loop
     vertex  1.421406e+02  6.962788e+00  6.125000e+01
     vertex  1.460235e+02  5.760887e+00  6.250000e+01
     vertex  1.462766e+02  9.817671e+00  6.125000e+01
   endloop
 endfacet
 facet normal -1.772912e-01  2.568506e-01  9.500503e-01
   outer loop
     vertex  1.421406e+02  6.962788e+00  6.125000e+01
     vertex  1.462766e+02  9.817671e+00  6.125000e+01
     vertex  1.420471e+02  1.152177e+01  6.000000e+01
   endloop
 endfacet
 facet normal -3.165259e-01  1.200424e-01  9.409576e-01
   outer loop
     vertex  1.398051e+02  2.512814e+00  6.125000e+01
     vertex  1.432034e+02  1.675210e+00  6.250000e+01
     vertex  1.438018e+02  3.253062e+00  6.250000e+01
   endloop
 endfacet
 facet normal -3.360563e-01  4.080462e-02  9.409576e-01
   outer loop
     vertex  1.398051e+02  2.512814e+00  6.125000e+01
     vertex  1.430000e+02  7.074502e-15  6.250000e+01
     vertex  1.432034e+02  1.675210e+00  6.250000e+01
   endloop
 endfacet
 facet normal -2.763480e-01  1.450386e-01  9.500503e-01
   outer loop
     vertex  1.398051e+02  2.512814e+00  6.125000e+01
     vertex  1.421406e+02  6.962788e+00  6.125000e+01
     vertex  1.376036e+02  6.506124e+00  6.000000e+01
   endloop
 endfacet
 facet normal -3.165259e-01  1.200424e-01  9.409576e-01
   outer loop
     vertex  1.398051e+02  2.512814e+00  6.125000e+01
     vertex  1.376036e+02  6.506124e+00  6.000000e+01
     vertex  1.364068e+02  3.350419e+00  6.000000e+01
   endloop
 endfacet
 facet normal -3.360563e-01  4.080462e-02  9.409576e-01
   outer loop
     vertex  1.398051e+02  2.512814e+00  6.125000e+01
     vertex  1.364068e+02  3.350419e+00  6.000000e+01
     vertex  1.360000e+02  1.414900e-14  6.000000e+01
   endloop
 endfacet
 facet normal -3.226207e-01  1.693244e-01  9.312600e-01
   outer loop
     vertex  1.398051e+02  2.512814e+00  6.125000e+01
     vertex  1.438018e+02  3.253062e+00  6.250000e+01
     vertex  1.421406e+02  6.962788e+00  6.125000e+01
   endloop
 endfacet
 facet normal -3.120968e-01  1.765018e-15  9.500503e-01
   outer loop
     vertex  1.398051e+02 -2.512814e+00  6.125000e+01
     vertex  1.398051e+02  2.512814e+00  6.125000e+01
     vertex  1.360000e+02  1.414900e-14  6.000000e+01
   endloop
 endfacet
 facet normal -3.360563e-01 -4.080462e-02  9.409576e-01
   outer loop
     vertex  1.398051e+02 -2.512814e+00  6.125000e+01
     vertex  1.432034e+02 -1.675210e+00  6.250000e+01
     vertex  1.430000e+02  7.074502e-15  6.250000e+01
   endloop
 endfacet
 facet normal -3.165259e-01 -1.200424e-01  9.409576e-01
   outer loop
     vertex  1.398051e+02 -2.512814e+00  6.125000e+01
     vertex  1.438018e+02 -3.253062e+00  6.250000e+01
     vertex  1.432034e+02 -1.675210e+00  6.250000e+01
   endloop
 endfacet
 facet normal -3.360563e-01 -4.080462e-02  9.409576e-01
   outer loop
     vertex  1.398051e+02 -2.512814e+00  6.125000e+01
     vertex  1.360000e+02  1.414900e-14  6.000000e+01
     vertex  1.364068e+02 -3.350419e+00  6.000000e+01
   endloop
 endfacet
 facet normal -3.165259e-01 -1.200424e-01  9.409576e-01
   outer loop
     vertex  1.398051e+02 -2.512814e+00  6.125000e+01
     vertex  1.364068e+02 -3.350419e+00  6.000000e+01
     vertex  1.376036e+02 -6.506124e+00  6.000000e+01
   endloop
 endfacet
 facet normal -3.643554e-01  2.060558e-15  9.312600e-01
   outer loop
     vertex  1.398051e+02 -2.512814e+00  6.125000e+01
     vertex  1.430000e+02  7.074502e-15  6.250000e+01
     vertex  1.398051e+02  2.512814e+00  6.125000e+01
   endloop
 endfacet
 facet normal -2.786002e-01 -1.923038e-01  9.409576e-01
   outer loop
     vertex  1.421406e+02 -6.962788e+00  6.125000e+01
     vertex  1.447604e+02 -4.641859e+00  6.250000e+01
     vertex  1.438018e+02 -3.253062e+00  6.250000e+01
   endloop
 endfacet
 facet normal -2.244833e-01 -2.533892e-01  9.409576e-01
   outer loop
     vertex  1.421406e+02 -6.962788e+00  6.125000e+01
     vertex  1.460235e+02 -5.760887e+00  6.250000e+01
     vertex  1.447604e+02 -4.641859e+00  6.250000e+01
   endloop
 endfacet
 facet normal -2.786002e-01 -1.923038e-01  9.409576e-01
   outer loop
     vertex  1.421406e+02 -6.962788e+00  6.125000e+01
     vertex  1.376036e+02 -6.506124e+00  6.000000e+01
     vertex  1.395208e+02 -9.283717e+00  6.000000e+01
   endloop
 endfacet
 facet normal -2.244833e-01 -2.533892e-01  9.409576e-01
   outer loop
     vertex  1.421406e+02 -6.962788e+00  6.125000e+01
     vertex  1.395208e+02 -9.283717e+00  6.000000e+01
     vertex  1.420471e+02 -1.152177e+01  6.000000e+01
   endloop
 endfacet
 facet normal -3.226207e-01 -1.693244e-01  9.312600e-01
   outer loop
     vertex  1.421406e+02 -6.962788e+00  6.125000e+01
     vertex  1.438018e+02 -3.253062e+00  6.250000e+01
     vertex  1.398051e+02 -2.512814e+00  6.125000e+01
   endloop
 endfacet
 facet normal -2.763480e-01 -1.450386e-01  9.500503e-01
   outer loop
     vertex  1.421406e+02 -6.962788e+00  6.125000e+01
     vertex  1.398051e+02 -2.512814e+00  6.125000e+01
     vertex  1.376036e+02 -6.506124e+00  6.000000e+01
   endloop
 endfacet
 facet normal -1.573202e-01 -2.997486e-01  9.409576e-01
   outer loop
     vertex  1.462766e+02 -9.817671e+00  6.125000e+01
     vertex  1.475178e+02 -6.545114e+00  6.250000e+01
     vertex  1.460235e+02 -5.760887e+00  6.250000e+01
   endloop
 endfacet
 facet normal -8.101422e-02 -3.286876e-01  9.409576e-01
   outer loop
     vertex  1.462766e+02 -9.817671e+00  6.125000e+01
     vertex  1.491562e+02 -6.948962e+00  6.250000e+01
     vertex  1.475178e+02 -6.545114e+00  6.250000e+01
   endloop
 endfacet
 facet normal -1.573202e-01 -2.997486e-01  9.409576e-01
   outer loop
     vertex  1.462766e+02 -9.817671e+00  6.125000e+01
     vertex  1.420471e+02 -1.152177e+01  6.000000e+01
     vertex  1.450355e+02 -1.309023e+01  6.000000e+01
   endloop
 endfacet
 facet normal -8.101422e-02 -3.286876e-01  9.409576e-01
   outer loop
     vertex  1.462766e+02 -9.817671e+00  6.125000e+01
     vertex  1.450355e+02 -1.309023e+01  6.000000e+01
     vertex  1.483125e+02 -1.389792e+01  6.000000e+01
   endloop
 endfacet
 facet normal -2.069774e-01 -2.998586e-01  9.312600e-01
   outer loop
     vertex  1.462766e+02 -9.817671e+00  6.125000e+01
     vertex  1.460235e+02 -5.760887e+00  6.250000e+01
     vertex  1.421406e+02 -6.962788e+00  6.125000e+01
   endloop
 endfacet
 facet normal -1.772912e-01 -2.568506e-01  9.500503e-01
   outer loop
     vertex  1.462766e+02 -9.817671e+00  6.125000e+01
     vertex  1.421406e+02 -6.962788e+00  6.125000e+01
     vertex  1.420471e+02 -1.152177e+01  6.000000e+01
   endloop
 endfacet
 facet normal -5.701551e-16 -3.385245e-01  9.409576e-01
   outer loop
     vertex  1.512656e+02 -1.042344e+01  6.125000e+01
     vertex  1.508438e+02 -6.948962e+00  6.250000e+01
     vertex  1.491562e+02 -6.948962e+00  6.250000e+01
   endloop
 endfacet
 facet normal  8.101422e-02 -3.286876e-01  9.409576e-01
   outer loop
     vertex  1.512656e+02 -1.042344e+01  6.125000e+01
     vertex  1.524822e+02 -6.545114e+00  6.250000e+01
     vertex  1.508438e+02 -6.948962e+00  6.250000e+01
   endloop
 endfacet
 facet normal -4.391819e-02 -3.616988e-01  9.312600e-01
   outer loop
     vertex  1.512656e+02 -1.042344e+01  6.125000e+01
     vertex  1.491562e+02 -6.948962e+00  6.250000e+01
     vertex  1.462766e+02 -9.817671e+00  6.125000e+01
   endloop
 endfacet
 facet normal -7.126939e-16 -3.385245e-01  9.409576e-01
   outer loop
     vertex  1.512656e+02 -1.042344e+01  6.125000e+01
     vertex  1.483125e+02 -1.389792e+01  6.000000e+01
     vertex  1.516875e+02 -1.389792e+01  6.000000e+01
   endloop
 endfacet
 facet normal  8.101422e-02 -3.286876e-01  9.409576e-01
   outer loop
     vertex  1.512656e+02 -1.042344e+01  6.125000e+01
     vertex  1.516875e+02 -1.389792e+01  6.000000e+01
     vertex  1.549645e+02 -1.309023e+01  6.000000e+01
   endloop
 endfacet
 facet normal -3.761911e-02 -3.098212e-01  9.500503e-01
   outer loop
     vertex  1.512656e+02 -1.042344e+01  6.125000e+01
     vertex  1.462766e+02 -9.817671e+00  6.125000e+01
     vertex  1.483125e+02 -1.389792e+01  6.000000e+01
   endloop
 endfacet
 facet normal  1.292022e-01 -3.406782e-01  9.312600e-01
   outer loop
     vertex  1.559647e+02 -8.641331e+00  6.125000e+01
     vertex  1.524822e+02 -6.545114e+00  6.250000e+01
     vertex  1.512656e+02 -1.042344e+01  6.125000e+01
   endloop
 endfacet
 facet normal  1.106710e-01 -2.918156e-01  9.500503e-01
   outer loop
     vertex  1.559647e+02 -8.641331e+00  6.125000e+01
     vertex  1.512656e+02 -1.042344e+01  6.125000e+01
     vertex  1.549645e+02 -1.309023e+01  6.000000e+01
   endloop
 endfacet
 facet normal  1.573202e-01 -2.997486e-01  9.409576e-01
   outer loop
     vertex  1.559647e+02 -8.641331e+00  6.125000e+01
     vertex  1.539765e+02 -5.760887e+00  6.250000e+01
     vertex  1.524822e+02 -6.545114e+00  6.250000e+01
   endloop
 endfacet
 facet normal  2.244833e-01 -2.533892e-01  9.409576e-01
   outer loop
     vertex  1.559647e+02 -8.641331e+00  6.125000e+01
     vertex  1.552396e+02 -4.641859e+00  6.250000e+01
     vertex  1.539765e+02 -5.760887e+00  6.250000e+01
   endloop
 endfacet
 facet normal  1.573202e-01 -2.997486e-01  9.409576e-01
   outer loop
     vertex  1.559647e+02 -8.641331e+00  6.125000e+01
     vertex  1.549645e+02 -1.309023e+01  6.000000e+01
     vertex  1.579529e+02 -1.152177e+01  6.000000e+01
   endloop
 endfacet
 facet normal  2.244833e-01 -2.533892e-01  9.409576e-01
   outer loop
     vertex  1.559647e+02 -8.641331e+00  6.125000e+01
     vertex  1.579529e+02 -1.152177e+01  6.000000e+01
     vertex  1.604792e+02 -9.283717e+00  6.000000e+01
   endloop
 endfacet
 facet normal  2.336078e-01 -2.069585e-01  9.500503e-01
   outer loop
     vertex  1.592973e+02 -4.879593e+00  6.125000e+01
     vertex  1.559647e+02 -8.641331e+00  6.125000e+01
     vertex  1.604792e+02 -9.283717e+00  6.000000e+01
   endloop
 endfacet
 facet normal  2.727239e-01 -2.416123e-01  9.312600e-01
   outer loop
     vertex  1.592973e+02 -4.879593e+00  6.125000e+01
     vertex  1.552396e+02 -4.641859e+00  6.250000e+01
     vertex  1.559647e+02 -8.641331e+00  6.125000e+01
   endloop
 endfacet
 facet normal  2.786002e-01 -1.923038e-01  9.409576e-01
   outer loop
     vertex  1.592973e+02 -4.879593e+00  6.125000e+01
     vertex  1.561982e+02 -3.253062e+00  6.250000e+01
     vertex  1.552396e+02 -4.641859e+00  6.250000e+01
   endloop
 endfacet
 facet normal  3.165259e-01 -1.200424e-01  9.409576e-01
   outer loop
     vertex  1.592973e+02 -4.879593e+00  6.125000e+01
     vertex  1.567966e+02 -1.675210e+00  6.250000e+01
     vertex  1.561982e+02 -3.253062e+00  6.250000e+01
   endloop
 endfacet
 facet normal  2.786002e-01 -1.923038e-01  9.409576e-01
   outer loop
     vertex  1.592973e+02 -4.879593e+00  6.125000e+01
     vertex  1.604792e+02 -9.283717e+00  6.000000e+01
     vertex  1.623964e+02 -6.506124e+00  6.000000e+01
   endloop
 endfacet
 facet normal  3.165259e-01 -1.200424e-01  9.409576e-01
   outer loop
     vertex  1.592973e+02 -4.879593e+00  6.125000e+01
     vertex  1.623964e+02 -6.506124e+00  6.000000e+01
     vertex  1.635932e+02 -3.350419e+00  6.000000e+01
   endloop
 endfacet
 facet normal  3.030278e-01 -7.468965e-02  9.500503e-01
   outer loop
     vertex  1.592973e+02 -4.879593e+00  6.125000e+01
     vertex  1.635932e+02 -3.350419e+00  6.000000e+01
     vertex  1.605000e+02 -2.571758e-15  6.125000e+01
   endloop
 endfacet
 facet normal  3.537679e-01 -8.719595e-02  9.312600e-01
   outer loop
     vertex  1.592973e+02 -4.879593e+00  6.125000e+01
     vertex  1.605000e+02 -2.571758e-15  6.125000e+01
     vertex  1.567966e+02 -1.675210e+00  6.250000e+01
   endloop
 endfacet
 facet normal  3.360563e-01  4.080462e-02 -9.409576e-01
   outer loop
     vertex  1.605000e+02 -2.571758e-15  6.375000e+01
     vertex  1.570000e+02 -1.714506e-15  6.250000e+01
     vertex  1.567966e+02  1.675210e+00  6.250000e+01
   endloop
 endfacet
 facet normal  3.360563e-01  4.080462e-02 -9.409576e-01
   outer loop
     vertex  1.635932e+02  3.350419e+00  6.500000e+01
     vertex  1.640000e+02 -3.429011e-15  6.500000e+01
     vertex  1.605000e+02 -2.571758e-15  6.375000e+01
   endloop
 endfacet
 facet normal  3.360563e-01 -4.080462e-02 -9.409576e-01
   outer loop
     vertex  1.605000e+02 -2.571758e-15  6.375000e+01
     vertex  1.567966e+02 -1.675210e+00  6.250000e+01
     vertex  1.570000e+02 -1.714506e-15  6.250000e+01
   endloop
 endfacet
 facet normal  3.360563e-01 -4.080462e-02 -9.409576e-01
   outer loop
     vertex  1.640000e+02 -3.429011e-15  6.500000e+01
     vertex  1.635932e+02 -3.350419e+00  6.500000e+01
     vertex  1.605000e+02 -2.571758e-15  6.375000e+01
   endloop
 endfacet
 facet normal  3.165259e-01  1.200424e-01 -9.409576e-01
   outer loop
     vertex  1.592973e+02  4.879593e+00  6.375000e+01
     vertex  1.623964e+02  6.506124e+00  6.500000e+01
     vertex  1.635932e+02  3.350419e+00  6.500000e+01
   endloop
 endfacet
 facet normal  2.786002e-01  1.923038e-01 -9.409576e-01
   outer loop
     vertex  1.592973e+02  4.879593e+00  6.375000e+01
     vertex  1.604792e+02  9.283717e+00  6.500000e+01
     vertex  1.623964e+02  6.506124e+00  6.500000e+01
   endloop
 endfacet
 facet normal  3.165259e-01  1.200424e-01 -9.409576e-01
   outer loop
     vertex  1.592973e+02  4.879593e+00  6.375000e+01
     vertex  1.567966e+02  1.675210e+00  6.250000e+01
     vertex  1.561982e+02  3.253062e+00  6.250000e+01
   endloop
 endfacet
 facet normal  2.786002e-01  1.923038e-01 -9.409576e-01
   outer loop
     vertex  1.592973e+02  4.879593e+00  6.375000e+01
     vertex  1.561982e+02  3.253062e+00  6.250000e+01
     vertex  1.552396e+02  4.641859e+00  6.250000e+01
   endloop
 endfacet
 facet normal  3.537679e-01  8.719595e-02 -9.312600e-01
   outer loop
     vertex  1.592973e+02  4.879593e+00  6.375000e+01
     vertex  1.605000e+02 -2.571758e-15  6.375000e+01
     vertex  1.567966e+02  1.675210e+00  6.250000e+01
   endloop
 endfacet
 facet normal  3.030278e-01  7.468965e-02 -9.500503e-01
   outer loop
     vertex  1.592973e+02  4.879593e+00  6.375000e+01
     vertex  1.635932e+02  3.350419e+00  6.500000e+01
     vertex  1.605000e+02 -2.571758e-15  6.375000e+01
   endloop
 endfacet
 facet normal  2.244833e-01  2.533892e-01 -9.409576e-01
   outer loop
     vertex  1.559647e+02  8.641331e+00  6.375000e+01
     vertex  1.579529e+02  1.152177e+01  6.500000e+01
     vertex  1.604792e+02  9.283717e+00  6.500000e+01
   endloop
 endfacet
 facet normal  1.573202e-01  2.997486e-01 -9.409576e-01
   outer loop
     vertex  1.559647e+02  8.641331e+00  6.375000e+01
     vertex  1.549645e+02  1.309023e+01  6.500000e+01
     vertex  1.579529e+02  1.152177e+01  6.500000e+01
   endloop
 endfacet
 facet normal  2.244833e-01  2.533892e-01 -9.409576e-01
   outer loop
     vertex  1.559647e+02  8.641331e+00  6.375000e+01
     vertex  1.552396e+02  4.641859e+00  6.250000e+01
     vertex  1.539765e+02  5.760887e+00  6.250000e+01
   endloop
 endfacet
 facet normal  1.573202e-01  2.997486e-01 -9.409576e-01
   outer loop
     vertex  1.559647e+02  8.641331e+00  6.375000e+01
     vertex  1.539765e+02  5.760887e+00  6.250000e+01
     vertex  1.524822e+02  6.545114e+00  6.250000e+01
   endloop
 endfacet
 facet normal  2.336078e-01  2.069585e-01 -9.500503e-01
   outer loop
     vertex  1.559647e+02  8.641331e+00  6.375000e+01
     vertex  1.604792e+02  9.283717e+00  6.500000e+01
     vertex  1.592973e+02  4.879593e+00  6.375000e+01
   endloop
 endfacet
 facet normal  2.727239e-01  2.416123e-01 -9.312600e-01
   outer loop
     vertex  1.559647e+02  8.641331e+00  6.375000e+01
     vertex  1.592973e+02  4.879593e+00  6.375000e+01
     vertex  1.552396e+02  4.641859e+00  6.250000e+01
   endloop
 endfacet
 facet normal  1.106710e-01  2.918156e-01 -9.500503e-01
   outer loop
     vertex  1.512656e+02  1.042344e+01  6.375000e+01
     vertex  1.549645e+02  1.309023e+01  6.500000e+01
     vertex  1.559647e+02  8.641331e+00  6.375000e+01
   endloop
 endfacet
 facet normal  8.101422e-02  3.286876e-01 -9.409576e-01
   outer loop
     vertex  1.512656e+02  1.042344e+01  6.375000e+01
     vertex  1.516875e+02  1.389792e+01  6.500000e+01
     vertex  1.549645e+02  1.309023e+01  6.500000e+01
   endloop
 endfacet
 facet normal  0.000000e+00  3.385245e-01 -9.409576e-01
   outer loop
     vertex  1.512656e+02  1.042344e+01  6.375000e+01
     vertex  1.483125e+02  1.389792e+01  6.500000e+01
     vertex  1.516875e+02  1.389792e+01  6.500000e+01
   endloop
 endfacet
 facet normal  1.292022e-01  3.406782e-01 -9.312600e-01
   outer loop
     vertex  1.512656e+02  1.042344e+01  6.375000e+01
     vertex  1.559647e+02  8.641331e+00  6.375000e+01
     vertex  1.524822e+02  6.545114e+00  6.250000e+01
   endloop
 endfacet
 facet normal  8.101422e-02  3.286876e-01 -9.409576e-01
   outer loop
     vertex  1.512656e+02  1.042344e+01  6.375000e+01
     vertex  1.524822e+02  6.545114e+00  6.250000e+01
     vertex  1.508438e+02  6.948962e+00  6.250000e+01
   endloop
 endfacet
 facet normal  0.000000e+00  3.385245e-01 -9.409576e-01
   outer loop
     vertex  1.512656e+02  1.042344e+01  6.375000e+01
     vertex  1.508438e+02  6.948962e+00  6.250000e+01
     vertex  1.491562e+02  6.948962e+00  6.250000e+01
   endloop
 endfacet
 facet normal -8.101422e-02  3.286876e-01 -9.409576e-01
   outer loop
     vertex  1.462766e+02  9.817671e+00  6.375000e+01
     vertex  1.450355e+02  1.309023e+01  6.500000e+01
     vertex  1.483125e+02  1.389792e+01  6.500000e+01
   endloop
 endfacet
 facet normal -1.573202e-01  2.997486e-01 -9.409576e-01
   outer loop
     vertex  1.462766e+02  9.817671e+00  6.375000e+01
     vertex  1.420471e+02  1.152177e+01  6.500000e+01
     vertex  1.450355e+02  1.309023e+01  6.500000e+01
   endloop
 endfacet
 facet normal -8.101422e-02  3.286876e-01 -9.409576e-01
   outer loop
     vertex  1.462766e+02  9.817671e+00  6.375000e+01
     vertex  1.491562e+02  6.948962e+00  6.250000e+01
     vertex  1.475178e+02  6.545114e+00  6.250000e+01
   endloop
 endfacet
 facet normal -1.573202e-01  2.997486e-01 -9.409576e-01
   outer loop
     vertex  1.462766e+02  9.817671e+00  6.375000e+01
     vertex  1.475178e+02  6.545114e+00  6.250000e+01
     vertex  1.460235e+02  5.760887e+00  6.250000e+01
   endloop
 endfacet
 facet normal -3.761911e-02  3.098212e-01 -9.500503e-01
   outer loop
     vertex  1.462766e+02  9.817671e+00  6.375000e+01
     vertex  1.483125e+02  1.389792e+01  6.500000e+01
     vertex  1.512656e+02  1.042344e+01  6.375000e+01
   endloop
 endfacet
 facet normal -4.391819e-02  3.616988e-01 -9.312600e-01
   outer loop
     vertex  1.462766e+02  9.817671e+00  6.375000e+01
     vertex  1.512656e+02  1.042344e+01  6.375000e+01
     vertex  1.491562e+02  6.948962e+00  6.250000e+01
   endloop
 endfacet
 facet normal -2.244833e-01  2.533892e-01 -9.409576e-01
   outer loop
     vertex  1.421406e+02  6.962788e+00  6.375000e+01
     vertex  1.395208e+02  9.283717e+00  6.500000e+01
     vertex  1.420471e+02  1.152177e+01  6.500000e+01
   endloop
 endfacet
 facet normal -2.786002e-01  1.923038e-01 -9.409576e-01
   outer loop
     vertex  1.421406e+02  6.962788e+00  6.375000e+01
     vertex  1.376036e+02  6.506124e+00  6.500000e+01
     vertex  1.395208e+02  9.283717e+00  6.500000e+01
   endloop
 endfacet
 facet normal -2.244833e-01  2.533892e-01 -9.409576e-01
   outer loop
     vertex  1.421406e+02  6.962788e+00  6.375000e+01
     vertex  1.460235e+02  5.760887e+00  6.250000e+01
     vertex  1.447604e+02  4.641859e+00  6.250000e+01
   endloop
 endfacet
 facet normal -2.786002e-01  1.923038e-01 -9.409576e-01
   outer loop
     vertex  1.421406e+02  6.962788e+00  6.375000e+01
     vertex  1.447604e+02  4.641859e+00  6.250000e+01
     vertex  1.438018e+02  3.253062e+00  6.250000e+01
   endloop
 endfacet
 facet normal -1.772912e-01  2.568506e-01 -9.500503e-01
   outer loop
     vertex  1.421406e+02  6.962788e+00  6.375000e+01
     vertex  1.420471e+02  1.152177e+01  6.500000e+01
     vertex  1.462766e+02  9.817671e+00  6.375000e+01
   endloop
 endfacet
 facet normal -2.069774e-01  2.998586e-01 -9.312600e-01
   outer loop
     vertex  1.421406e+02  6.962788e+00  6.375000e+01
     vertex  1.462766e+02  9.817671e+00  6.375000e+01
     vertex  1.460235e+02  5.760887e+00  6.250000e+01
   endloop
 endfacet
 facet normal -3.165259e-01  1.200424e-01 -9.409576e-01
   outer loop
     vertex  1.398051e+02  2.512814e+00  6.375000e+01
     vertex  1.364068e+02  3.350419e+00  6.500000e+01
     vertex  1.376036e+02  6.506124e+00  6.500000e+01
   endloop
 endfacet
 facet normal -3.360563e-01  4.080462e-02 -9.409576e-01
   outer loop
     vertex  1.398051e+02  2.512814e+00  6.375000e+01
     vertex  1.360000e+02  1.414900e-14  6.500000e+01
     vertex  1.364068e+02  3.350419e+00  6.500000e+01
   endloop
 endfacet
 facet normal -3.226207e-01  1.693244e-01 -9.312600e-01
   outer loop
     vertex  1.398051e+02  2.512814e+00  6.375000e+01
     vertex  1.421406e+02  6.962788e+00  6.375000e+01
     vertex  1.438018e+02  3.253062e+00  6.250000e+01
   endloop
 endfacet
 facet normal -3.165259e-01  1.200424e-01 -9.409576e-01
   outer loop
     vertex  1.398051e+02  2.512814e+00  6.375000e+01
     vertex  1.438018e+02  3.253062e+00  6.250000e+01
     vertex  1.432034e+02  1.675210e+00  6.250000e+01
   endloop
 endfacet
 facet normal -3.360563e-01  4.080462e-02 -9.409576e-01
   outer loop
     vertex  1.398051e+02  2.512814e+00  6.375000e+01
     vertex  1.432034e+02  1.675210e+00  6.250000e+01
     vertex  1.430000e+02  7.074502e-15  6.250000e+01
   endloop
 endfacet
 facet normal -2.763480e-01  1.450386e-01 -9.500503e-01
   outer loop
     vertex  1.398051e+02  2.512814e+00  6.375000e+01
     vertex  1.376036e+02  6.506124e+00  6.500000e+01
     vertex  1.421406e+02  6.962788e+00  6.375000e+01
   endloop
 endfacet
 facet normal -3.643554e-01  2.060558e-15 -9.312600e-01
   outer loop
     vertex  1.398051e+02 -2.512814e+00  6.375000e+01
     vertex  1.398051e+02  2.512814e+00  6.375000e+01
     vertex  1.430000e+02  7.074502e-15  6.250000e+01
   endloop
 endfacet
 facet normal -3.360563e-01 -4.080462e-02 -9.409576e-01
   outer loop
     vertex  1.398051e+02 -2.512814e+00  6.375000e+01
     vertex  1.364068e+02 -3.350419e+00  6.500000e+01
     vertex  1.360000e+02  1.414900e-14  6.500000e+01
   endloop
 endfacet
 facet normal -3.165259e-01 -1.200424e-01 -9.409576e-01
   outer loop
     vertex  1.398051e+02 -2.512814e+00  6.375000e+01
     vertex  1.376036e+02 -6.506124e+00  6.500000e+01
     vertex  1.364068e+02 -3.350419e+00  6.500000e+01
   endloop
 endfacet
 facet normal -3.360563e-01 -4.080462e-02 -9.409576e-01
   outer loop
     vertex  1.398051e+02 -2.512814e+00  6.375000e+01
     vertex  1.430000e+02  7.074502e-15  6.250000e+01
     vertex  1.432034e+02 -1.675210e+00  6.250000e+01
   endloop
 endfacet
 facet normal -3.165259e-01 -1.200424e-01 -9.409576e-01
   outer loop
     vertex  1.398051e+02 -2.512814e+00  6.375000e+01
     vertex  1.432034e+02 -1.675210e+00  6.250000e+01
     vertex  1.438018e+02 -3.253062e+00  6.250000e+01
   endloop
 endfacet
 facet normal -3.120968e-01  1.765018e-15 -9.500503e-01
   outer loop
     vertex  1.398051e+02 -2.512814e+00  6.375000e+01
     vertex  1.360000e+02  1.414900e-14  6.500000e+01
     vertex  1.398051e+02  2.512814e+00  6.375000e+01
   endloop
 endfacet
 facet normal -2.786002e-01 -1.923038e-01 -9.409576e-01
   outer loop
     vertex  1.421406e+02 -6.962788e+00  6.375000e+01
     vertex  1.395208e+02 -9.283717e+00  6.500000e+01
     vertex  1.376036e+02 -6.506124e+00  6.500000e+01
   endloop
 endfacet
 facet normal -2.244833e-01 -2.533892e-01 -9.409576e-01
   outer loop
     vertex  1.421406e+02 -6.962788e+00  6.375000e+01
     vertex  1.420471e+02 -1.152177e+01  6.500000e+01
     vertex  1.395208e+02 -9.283717e+00  6.500000e+01
   endloop
 endfacet
 facet normal -2.786002e-01 -1.923038e-01 -9.409576e-01
   outer loop
     vertex  1.421406e+02 -6.962788e+00  6.375000e+01
     vertex  1.438018e+02 -3.253062e+00  6.250000e+01
     vertex  1.447604e+02 -4.641859e+00  6.250000e+01
   endloop
 endfacet
 facet normal -2.244833e-01 -2.533892e-01 -9.409576e-01
   outer loop
     vertex  1.421406e+02 -6.962788e+00  6.375000e+01
     vertex  1.447604e+02 -4.641859e+00  6.250000e+01
     vertex  1.460235e+02 -5.760887e+00  6.250000e+01
   endloop
 endfacet
 facet normal -2.763480e-01 -1.450386e-01 -9.500503e-01
   outer loop
     vertex  1.421406e+02 -6.962788e+00  6.375000e+01
     vertex  1.376036e+02 -6.506124e+00  6.500000e+01
     vertex  1.398051e+02 -2.512814e+00  6.375000e+01
   endloop
 endfacet
 facet normal -3.226207e-01 -1.693244e-01 -9.312600e-01
   outer loop
     vertex  1.421406e+02 -6.962788e+00  6.375000e+01
     vertex  1.398051e+02 -2.512814e+00  6.375000e+01
     vertex  1.438018e+02 -3.253062e+00  6.250000e+01
   endloop
 endfacet
 facet normal -1.573202e-01 -2.997486e-01 -9.409576e-01
   outer loop
     vertex  1.462766e+02 -9.817671e+00  6.375000e+01
     vertex  1.450355e+02 -1.309023e+01  6.500000e+01
     vertex  1.420471e+02 -1.152177e+01  6.500000e+01
   endloop
 endfacet
 facet normal -8.101422e-02 -3.286876e-01 -9.409576e-01
   outer loop
     vertex  1.462766e+02 -9.817671e+00  6.375000e+01
     vertex  1.483125e+02 -1.389792e+01  6.500000e+01
     vertex  1.450355e+02 -1.309023e+01  6.500000e+01
   endloop
 endfacet
 facet normal -1.573202e-01 -2.997486e-01 -9.409576e-01
   outer loop
     vertex  1.462766e+02 -9.817671e+00  6.375000e+01
     vertex  1.460235e+02 -5.760887e+00  6.250000e+01
     vertex  1.475178e+02 -6.545114e+00  6.250000e+01
   endloop
 endfacet
 facet normal -8.101422e-02 -3.286876e-01 -9.409576e-01
   outer loop
     vertex  1.462766e+02 -9.817671e+00  6.375000e+01
     vertex  1.475178e+02 -6.545114e+00  6.250000e+01
     vertex  1.491562e+02 -6.948962e+00  6.250000e+01
   endloop
 endfacet
 facet normal -1.772912e-01 -2.568506e-01 -9.500503e-01
   outer loop
     vertex  1.462766e+02 -9.817671e+00  6.375000e+01
     vertex  1.420471e+02 -1.152177e+01  6.500000e+01
     vertex  1.421406e+02 -6.962788e+00  6.375000e+01
   endloop
 endfacet
 facet normal -2.069774e-01 -2.998586e-01 -9.312600e-01
   outer loop
     vertex  1.462766e+02 -9.817671e+00  6.375000e+01
     vertex  1.421406e+02 -6.962788e+00  6.375000e+01
     vertex  1.460235e+02 -5.760887e+00  6.250000e+01
   endloop
 endfacet
 facet normal -7.126939e-16 -3.385245e-01 -9.409576e-01
   outer loop
     vertex  1.512656e+02 -1.042344e+01  6.375000e+01
     vertex  1.516875e+02 -1.389792e+01  6.500000e+01
     vertex  1.483125e+02 -1.389792e+01  6.500000e+01
   endloop
 endfacet
 facet normal  8.101422e-02 -3.286876e-01 -9.409576e-01
   outer loop
     vertex  1.512656e+02 -1.042344e+01  6.375000e+01
     vertex  1.549645e+02 -1.309023e+01  6.500000e+01
     vertex  1.516875e+02 -1.389792e+01  6.500000e+01
   endloop
 endfacet
 facet normal -3.761911e-02 -3.098212e-01 -9.500503e-01
   outer loop
     vertex  1.512656e+02 -1.042344e+01  6.375000e+01
     vertex  1.483125e+02 -1.389792e+01  6.500000e+01
     vertex  1.462766e+02 -9.817671e+00  6.375000e+01
   endloop
 endfacet
 facet normal -5.701551e-16 -3.385245e-01 -9.409576e-01
   outer loop
     vertex  1.512656e+02 -1.042344e+01  6.375000e+01
     vertex  1.491562e+02 -6.948962e+00  6.250000e+01
     vertex  1.508438e+02 -6.948962e+00  6.250000e+01
   endloop
 endfacet
 facet normal  8.101422e-02 -3.286876e-01 -9.409576e-01
   outer loop
     vertex  1.512656e+02 -1.042344e+01  6.375000e+01
     vertex  1.508438e+02 -6.948962e+00  6.250000e+01
     vertex  1.524822e+02 -6.545114e+00  6.250000e+01
   endloop
 endfacet
 facet normal -4.391819e-02 -3.616988e-01 -9.312600e-01
   outer loop
     vertex  1.512656e+02 -1.042344e+01  6.375000e+01
     vertex  1.462766e+02 -9.817671e+00  6.375000e+01
     vertex  1.491562e+02 -6.948962e+00  6.250000e+01
   endloop
 endfacet
 facet normal  1.106710e-01 -2.918156e-01 -9.500503e-01
   outer loop
     vertex  1.559647e+02 -8.641331e+00  6.375000e+01
     vertex  1.549645e+02 -1.309023e+01  6.500000e+01
     vertex  1.512656e+02 -1.042344e+01  6.375000e+01
   endloop
 endfacet
 facet normal  1.292022e-01 -3.406782e-01 -9.312600e-01
   outer loop
     vertex  1.559647e+02 -8.641331e+00  6.375000e+01
     vertex  1.512656e+02 -1.042344e+01  6.375000e+01
     vertex  1.524822e+02 -6.545114e+00  6.250000e+01
   endloop
 endfacet
 facet normal  1.573202e-01 -2.997486e-01 -9.409576e-01
   outer loop
     vertex  1.559647e+02 -8.641331e+00  6.375000e+01
     vertex  1.579529e+02 -1.152177e+01  6.500000e+01
     vertex  1.549645e+02 -1.309023e+01  6.500000e+01
   endloop
 endfacet
 facet normal  2.244833e-01 -2.533892e-01 -9.409576e-01
   outer loop
     vertex  1.559647e+02 -8.641331e+00  6.375000e+01
     vertex  1.604792e+02 -9.283717e+00  6.500000e+01
     vertex  1.579529e+02 -1.152177e+01  6.500000e+01
   endloop
 endfacet
 facet normal  1.573202e-01 -2.997486e-01 -9.409576e-01
   outer loop
     vertex  1.559647e+02 -8.641331e+00  6.375000e+01
     vertex  1.524822e+02 -6.545114e+00  6.250000e+01
     vertex  1.539765e+02 -5.760887e+00  6.250000e+01
   endloop
 endfacet
 facet normal  2.244833e-01 -2.533892e-01 -9.409576e-01
   outer loop
     vertex  1.559647e+02 -8.641331e+00  6.375000e+01
     vertex  1.539765e+02 -5.760887e+00  6.250000e+01
     vertex  1.552396e+02 -4.641859e+00  6.250000e+01
   endloop
 endfacet
 facet normal  2.727239e-01 -2.416123e-01 -9.312600e-01
   outer loop
     vertex  1.592973e+02 -4.879593e+00  6.375000e+01
     vertex  1.559647e+02 -8.641331e+00  6.375000e+01
     vertex  1.552396e+02 -4.641859e+00  6.250000e+01
   endloop
 endfacet
 facet normal  2.336078e-01 -2.069585e-01 -9.500503e-01
   outer loop
     vertex  1.592973e+02 -4.879593e+00  6.375000e+01
     vertex  1.604792e+02 -9.283717e+00  6.500000e+01
     vertex  1.559647e+02 -8.641331e+00  6.375000e+01
   endloop
 endfacet
 facet normal  2.786002e-01 -1.923038e-01 -9.409576e-01
   outer loop
     vertex  1.592973e+02 -4.879593e+00  6.375000e+01
     vertex  1.623964e+02 -6.506124e+00  6.500000e+01
     vertex  1.604792e+02 -9.283717e+00  6.500000e+01
   endloop
 endfacet
 facet normal  3.165259e-01 -1.200424e-01 -9.409576e-01
   outer loop
     vertex  1.592973e+02 -4.879593e+00  6.375000e+01
     vertex  1.635932e+02 -3.350419e+00  6.500000e+01
     vertex  1.623964e+02 -6.506124e+00  6.500000e+01
   endloop
 endfacet
 facet normal  2.786002e-01 -1.923038e-01 -9.409576e-01
   outer loop
     vertex  1.592973e+02 -4.879593e+00  6.375000e+01
     vertex  1.552396e+02 -4.641859e+00  6.250000e+01
     vertex  1.561982e+02 -3.253062e+00  6.250000e+01
   endloop
 endfacet
 facet normal  3.165259e-01 -1.200424e-01 -9.409576e-01
   outer loop
     vertex  1.592973e+02 -4.879593e+00  6.375000e+01
     vertex  1.561982e+02 -3.253062e+00  6.250000e+01
     vertex  1.567966e+02 -1.675210e+00  6.250000e+01
   endloop
 endfacet
 facet normal  3.537679e-01 -8.719595e-02 -9.312600e-01
   outer loop
     vertex  1.592973e+02 -4.879593e+00  6.375000e+01
     vertex  1.567966e+02 -1.675210e+00  6.250000e+01
     vertex  1.605000e+02 -2.571758e-15  6.375000e+01
   endloop
 endfacet
 facet normal  3.030278e-01 -7.468965e-02 -9.500503e-01
   outer loop
     vertex  1.592973e+02 -4.879593e+00  6.375000e+01
     vertex  1.605000e+02 -2.571758e-15  6.375000e+01
     vertex  1.635932e+02 -3.350419e+00  6.500000e+01
   endloop
 endfacet
 facet normal  0.000000e+00  0.000000e+00 -1.000000e+00
   outer loop
     vertex  1.494319e+02 -8.229839e-01  6.000000e+01
     vertex  1.420471e+02 -1.152177e+01  6.000000e+01
     vertex  1.395208e+02 -9.283717e+00  6.000000e+01
   endloop
 endfacet
 facet normal -0.000000e+00  0.000000e+00 -1.000000e+00
   outer loop
     vertex  1.494319e+02 -8.229839e-01  6.000000e+01
     vertex  1.395208e+02 -9.283717e+00  6.000000e+01
     vertex  1.492515e+02 -6.631227e-01  6.000000e+01
   endloop
 endfacet
 facet normal  0.000000e+00  0.000000e+00 -1.000000e+00
   outer loop
     vertex  1.491145e+02 -4.647232e-01  6.000000e+01
     vertex  1.376036e+02 -6.506124e+00  6.000000e+01
     vertex  1.364068e+02 -3.350419e+00  6.000000e+01
   endloop
 endfacet
 facet normal  0.000000e+00  0.000000e+00 -1.000000e+00
   outer loop
     vertex  1.491145e+02 -4.647232e-01  6.000000e+01
     vertex  1.395208e+02 -9.283717e+00  6.000000e+01
     vertex  1.376036e+02 -6.506124e+00  6.000000e+01
   endloop
 endfacet
 facet normal  0.000000e+00 -0.000000e+00 -1.000000e+00
   outer loop
     vertex  1.491145e+02 -4.647232e-01  6.000000e+01
     vertex  1.492515e+02 -6.631227e-01  6.000000e+01
     vertex  1.395208e+02 -9.283717e+00  6.000000e+01
   endloop
 endfacet
 facet normal  0.000000e+00  0.000000e+00 -1.000000e+00
   outer loop
     vertex  1.496454e+02 -9.350162e-01  6.000000e+01
     vertex  1.450355e+02 -1.309023e+01  6.000000e+01
     vertex  1.420471e+02 -1.152177e+01  6.000000e+01
   endloop
 endfacet
 facet normal -0.000000e+00  0.000000e+00 -1.000000e+00
   outer loop
     vertex  1.496454e+02 -9.350162e-01  6.000000e+01
     vertex  1.420471e+02 -1.152177e+01  6.000000e+01
     vertex  1.494319e+02 -8.229839e-01  6.000000e+01
   endloop
 endfacet
 facet normal  0.000000e+00 -0.000000e+00 -1.000000e+00
   outer loop
     vertex  1.490291e+02 -2.393157e-01  6.000000e+01
     vertex  1.491145e+02 -4.647232e-01  6.000000e+01
     vertex  1.364068e+02 -3.350419e+00  6.000000e+01
   endloop
 endfacet
 facet normal  0.000000e+00  0.000000e+00 -1.000000e+00
   outer loop
     vertex  1.498795e+02 -9.927089e-01  6.000000e+01
     vertex  1.483125e+02 -1.389792e+01  6.000000e+01
     vertex  1.450355e+02 -1.309023e+01  6.000000e+01
   endloop
 endfacet
 facet normal -0.000000e+00  0.000000e+00 -1.000000e+00
   outer loop
     vertex  1.498795e+02 -9.927089e-01  6.000000e+01
     vertex  1.450355e+02 -1.309023e+01  6.000000e+01
     vertex  1.496454e+02 -9.350162e-01  6.000000e+01
   endloop
 endfacet
 facet normal -0.000000e+00  0.000000e+00 -1.000000e+00
   outer loop
     vertex  1.490000e+02  1.010643e-15  6.000000e+01
     vertex  1.364068e+02 -3.350419e+00  6.000000e+01
     vertex  1.360000e+02  1.414900e-14  6.000000e+01
   endloop
 endfacet
 facet normal  0.000000e+00 -0.000000e+00 -1.000000e+00
   outer loop
     vertex  1.490000e+02  1.010643e-15  6.000000e+01
     vertex  1.490291e+02 -2.393157e-01  6.000000e+01
     vertex  1.364068e+02 -3.350419e+00  6.000000e+01
   endloop
 endfacet
 facet normal  0.000000e+00 -0.000000e+00 -1.000000e+00
   outer loop
     vertex  1.501205e+02 -9.927089e-01  6.000000e+01
     vertex  1.516875e+02 -1.389792e+01  6.000000e+01
     vertex  1.483125e+02 -1.389792e+01  6.000000e+01
   endloop
 endfacet
 facet normal -0.000000e+00  0.000000e+00 -1.000000e+00
   outer loop
     vertex  1.501205e+02 -9.927089e-01  6.000000e+01
     vertex  1.483125e+02 -1.389792e+01  6.000000e+01
     vertex  1.498795e+02 -9.927089e-01  6.000000e+01
   endloop
 endfacet
 facet normal -0.000000e+00  0.000000e+00 -1.000000e+00
   outer loop
     vertex  1.490291e+02  2.393157e-01  6.000000e+01
     vertex  1.360000e+02  1.414900e-14  6.000000e+01
     vertex  1.364068e+02  3.350419e+00  6.000000e+01
   endloop
 endfacet
 facet normal  0.000000e+00  0.000000e+00 -1.000000e+00
   outer loop
     vertex  1.490291e+02  2.393157e-01  6.000000e+01
     vertex  1.490000e+02  1.010643e-15  6.000000e+01
     vertex  1.360000e+02  1.414900e-14  6.000000e+01
   endloop
 endfacet
 facet normal  0.000000e+00  0.000000e+00 -1.000000e+00
   outer loop
     vertex  1.503546e+02 -9.350162e-01  6.000000e+01
     vertex  1.549645e+02 -1.309023e+01  6.000000e+01
     vertex  1.516875e+02 -1.389792e+01  6.000000e+01
   endloop
 endfacet
 facet normal  0.000000e+00 -0.000000e+00 -1.000000e+00
   outer loop
     vertex  1.503546e+02 -9.350162e-01  6.000000e+01
     vertex  1.516875e+02 -1.389792e+01  6.000000e+01
     vertex  1.501205e+02 -9.927089e-01  6.000000e+01
   endloop
 endfacet
 facet normal  0.000000e+00  0.000000e+00 -1.000000e+00
   outer loop
     vertex  1.491145e+02  4.647232e-01  6.000000e+01
     vertex  1.364068e+02  3.350419e+00  6.000000e+01
     vertex  1.376036e+02  6.506124e+00  6.000000e+01
   endloop
 endfacet
 facet normal -0.000000e+00  0.000000e+00 -1.000000e+00
   outer loop
     vertex  1.491145e+02  4.647232e-01  6.000000e+01
     vertex  1.490291e+02  2.393157e-01  6.000000e+01
     vertex  1.364068e+02  3.350419e+00  6.000000e+01
   endloop
 endfacet
 facet normal  0.000000e+00  0.000000e+00 -1.000000e+00
   outer loop
     vertex  1.505681e+02 -8.229839e-01  6.000000e+01
     vertex  1.579529e+02 -1.152177e+01  6.000000e+01
     vertex  1.549645e+02 -1.309023e+01  6.000000e+01
   endloop
 endfacet
 facet normal  0.000000e+00 -0.000000e+00 -1.000000e+00
   outer loop
     vertex  1.505681e+02 -8.229839e-01  6.000000e+01
     vertex  1.549645e+02 -1.309023e+01  6.000000e+01
     vertex  1.503546e+02 -9.350162e-01  6.000000e+01
   endloop
 endfacet
 facet normal  0.000000e+00  0.000000e+00 -1.000000e+00
   outer loop
     vertex  1.492515e+02  6.631227e-01  6.000000e+01
     vertex  1.376036e+02  6.506124e+00  6.000000e+01
     vertex  1.395208e+02  9.283717e+00  6.000000e+01
   endloop
 endfacet
 facet normal -0.000000e+00  0.000000e+00 -1.000000e+00
   outer loop
     vertex  1.492515e+02  6.631227e-01  6.000000e+01
     vertex  1.491145e+02  4.647232e-01  6.000000e+01
     vertex  1.376036e+02  6.506124e+00  6.000000e+01
   endloop
 endfacet
 facet normal -0.000000e+00  0.000000e+00 -1.000000e+00
   outer loop
     vertex  1.604792e+02 -9.283717e+00  6.000000e+01
     vertex  1.579529e+02 -1.152177e+01  6.000000e+01
     vertex  1.505681e+02 -8.229839e-01  6.000000e+01
   endloop
 endfacet
 facet normal  0.000000e+00  0.000000e+00 -1.000000e+00
   outer loop
     vertex  1.604792e+02 -9.283717e+00  6.000000e+01
     vertex  1.505681e+02 -8.229839e-01  6.000000e+01
     vertex  1.507485e+02 -6.631227e-01  6.000000e+01
   endloop
 endfacet
 facet normal  0.000000e+00  0.000000e+00 -1.000000e+00
   outer loop
     vertex  1.604792e+02 -9.283717e+00  6.000000e+01
     vertex  1.507485e+02 -6.631227e-01  6.000000e+01
     vertex  1.508855e+02 -4.647232e-01  6.000000e+01
   endloop
 endfacet
 facet normal  0.000000e+00 -0.000000e+00 -1.000000e+00
   outer loop
     vertex  1.420471e+02  1.152177e+01  6.000000e+01
     vertex  1.492515e+02  6.631227e-01  6.000000e+01
     vertex  1.395208e+02  9.283717e+00  6.000000e+01
   endloop
 endfacet
 facet normal  0.000000e+00  0.000000e+00 -1.000000e+00
   outer loop
     vertex  1.420471e+02  1.152177e+01  6.000000e+01
     vertex  1.496454e+02  9.350162e-01  6.000000e+01
     vertex  1.494319e+02  8.229839e-01  6.000000e+01
   endloop
 endfacet
 facet normal  0.000000e+00  0.000000e+00 -1.000000e+00
   outer loop
     vertex  1.420471e+02  1.152177e+01  6.000000e+01
     vertex  1.494319e+02  8.229839e-01  6.000000e+01
     vertex  1.492515e+02  6.631227e-01  6.000000e+01
   endloop
 endfacet
 facet normal -0.000000e+00  0.000000e+00 -1.000000e+00
   outer loop
     vertex  1.623964e+02 -6.506124e+00  6.000000e+01
     vertex  1.604792e+02 -9.283717e+00  6.000000e+01
     vertex  1.508855e+02 -4.647232e-01  6.000000e+01
   endloop
 endfacet
 facet normal  0.000000e+00  0.000000e+00 -1.000000e+00
   outer loop
     vertex  1.450355e+02  1.309023e+01  6.000000e+01
     vertex  1.498795e+02  9.927089e-01  6.000000e+01
     vertex  1.496454e+02  9.350162e-01  6.000000e+01
   endloop
 endfacet
 facet normal  0.000000e+00 -0.000000e+00 -1.000000e+00
   outer loop
     vertex  1.450355e+02  1.309023e+01  6.000000e+01
     vertex  1.496454e+02  9.350162e-01  6.000000e+01
     vertex  1.420471e+02  1.152177e+01  6.000000e+01
   endloop
 endfacet
 facet normal -0.000000e+00  0.000000e+00 -1.000000e+00
   outer loop
     vertex  1.635932e+02 -3.350419e+00  6.000000e+01
     vertex  1.623964e+02 -6.506124e+00  6.000000e+01
     vertex  1.508855e+02 -4.647232e-01  6.000000e+01
   endloop
 endfacet
 facet normal  0.000000e+00  0.000000e+00 -1.000000e+00
   outer loop
     vertex  1.635932e+02 -3.350419e+00  6.000000e+01
     vertex  1.508855e+02 -4.647232e-01  6.000000e+01
     vertex  1.509709e+02 -2.393157e-01  6.000000e+01
   endloop
 endfacet
 facet normal  0.000000e+00  0.000000e+00 -1.000000e+00
   outer loop
     vertex  1.483125e+02  1.389792e+01  6.000000e+01
     vertex  1.501205e+02  9.927089e-01  6.000000e+01
     vertex  1.498795e+02  9.927089e-01  6.000000e+01
   endloop
 endfacet
 facet normal  0.000000e+00 -0.000000e+00 -1.000000e+00
   outer loop
     vertex  1.483125e+02  1.389792e+01  6.000000e+01
     vertex  1.498795e+02  9.927089e-01  6.000000e+01
     vertex  1.450355e+02  1.309023e+01  6.000000e+01
   endloop
 endfacet
 facet normal  0.000000e+00  0.000000e+00 -1.000000e+00
   outer loop
     vertex  1.640000e+02 -3.429011e-15  6.000000e+01
     vertex  1.510000e+02 -2.449294e-16  6.000000e+01
     vertex  1.509709e+02  2.393157e-01  6.000000e+01
   endloop
 endfacet
 facet normal  0.000000e+00  0.000000e+00 -1.000000e+00
   outer loop
     vertex  1.640000e+02 -3.429011e-15  6.000000e+01
     vertex  1.635932e+02 -3.350419e+00  6.000000e+01
     vertex  1.509709e+02 -2.393157e-01  6.000000e+01
   endloop
 endfacet
 facet normal -0.000000e+00  0.000000e+00 -1.000000e+00
   outer loop
     vertex  1.640000e+02 -3.429011e-15  6.000000e+01
     vertex  1.509709e+02 -2.393157e-01  6.000000e+01
     vertex  1.510000e+02 -2.449294e-16  6.000000e+01
   endloop
 endfacet
 facet normal -0.000000e+00  0.000000e+00 -1.000000e+00
   outer loop
     vertex  1.516875e+02  1.389792e+01  6.000000e+01
     vertex  1.501205e+02  9.927089e-01  6.000000e+01
     vertex  1.483125e+02  1.389792e+01  6.000000e+01
   endloop
 endfacet
 facet normal  0.000000e+00 -0.000000e+00 -1.000000e+00
   outer loop
     vertex  1.635932e+02  3.350419e+00  6.000000e+01
     vertex  1.640000e+02 -3.429011e-15  6.000000e+01
     vertex  1.509709e+02  2.393157e-01  6.000000e+01
   endloop
 endfacet
 facet normal  0.000000e+00  0.000000e+00 -1.000000e+00
   outer loop
     vertex  1.635932e+02  3.350419e+00  6.000000e+01
     vertex  1.509709e+02  2.393157e-01  6.000000e+01
     vertex  1.508855e+02  4.647232e-01  6.000000e+01
   endloop
 endfacet
 facet normal  0.000000e+00  0.000000e+00 -1.000000e+00
   outer loop
     vertex  1.549645e+02  1.309023e+01  6.000000e+01
     vertex  1.503546e+02  9.350162e-01  6.000000e+01
     vertex  1.501205e+02  9.927089e-01  6.000000e+01
   endloop
 endfacet
 facet normal -0.000000e+00  0.000000e+00 -1.000000e+00
   outer loop
     vertex  1.549645e+02  1.309023e+01  6.000000e+01
     vertex  1.501205e+02  9.927089e-01  6.000000e+01
     vertex  1.516875e+02  1.389792e+01  6.000000e+01
   endloop
 endfacet
 facet normal  0.000000e+00 -0.000000e+00 -1.000000e+00
   outer loop
     vertex  1.623964e+02  6.506124e+00  6.000000e+01
     vertex  1.635932e+02  3.350419e+00  6.000000e+01
     vertex  1.508855e+02  4.647232e-01  6.000000e+01
   endloop
 endfacet
 facet normal  0.000000e+00  0.000000e+00 -1.000000e+00
   outer loop
     vertex  1.579529e+02  1.152177e+01  6.000000e+01
     vertex  1.505681e+02  8.229839e-01  6.000000e+01
     vertex  1.503546e+02  9.350162e-01  6.000000e+01
   endloop
 endfacet
 facet normal -0.000000e+00  0.000000e+00 -1.000000e+00
   outer loop
     vertex  1.579529e+02  1.152177e+01  6.000000e+01
     vertex  1.503546e+02  9.350162e-01  6.000000e+01
     vertex  1.549645e+02  1.309023e+01  6.000000e+01
   endloop
 endfacet
 facet normal  0.000000e+00 -0.000000e+00 -1.000000e+00
   outer loop
     vertex  1.604792e+02  9.283717e+00  6.000000e+01
     vertex  1.623964e+02  6.506124e+00  6.000000e+01
     vertex  1.508855e+02  4.647232e-01  6.000000e+01
   endloop
 endfacet
 facet normal  0.000000e+00  0.000000e+00 -1.000000e+00
   outer loop
     vertex  1.604792e+02  9.283717e+00  6.000000e+01
     vertex  1.508855e+02  4.647232e-01  6.000000e+01
     vertex  1.507485e+02  6.631227e-01  6.000000e+01
   endloop
 endfacet
 facet normal  0.000000e+00  0.000000e+00 -1.000000e+00
   outer loop
     vertex  1.604792e+02  9.283717e+00  6.000000e+01
     vertex  1.507485e+02  6.631227e-01  6.000000e+01
     vertex  1.505681e+02  8.229839e-01  6.000000e+01
   endloop
 endfacet
 facet normal -0.000000e+00  0.000000e+00 -1.000000e+00
   outer loop
     vertex  1.604792e+02  9.283717e+00  6.000000e+01
     vertex  1.505681e+02  8.229839e-01  6.000000e+01
     vertex  1.579529e+02  1.152177e+01  6.000000e+01
   endloop
 endfacet
 facet normal  0.000000e+00  0.000000e+00  1.000000e+00
   outer loop
     vertex  1.494319e+02 -8.229839e-01  6.500000e+01
     vertex  1.395208e+02 -9.283717e+00  6.500000e+01
     vertex  1.420471e+02 -1.152177e+01  6.500000e+01
   endloop
 endfacet
 facet normal  0.000000e+00  0.000000e+00  1.000000e+00
   outer loop
     vertex  1.494319e+02 -8.229839e-01  6.500000e+01
     vertex  1.492515e+02 -6.631227e-01  6.500000e+01
     vertex  1.395208e+02 -9.283717e+00  6.500000e+01
   endloop
 endfacet
 facet normal  0.000000e+00  0.000000e+00  1.000000e+00
   outer loop
     vertex  1.491145e+02 -4.647232e-01  6.500000e+01
     vertex  1.364068e+02 -3.350419e+00  6.500000e+01
     vertex  1.376036e+02 -6.506124e+00  6.500000e+01
   endloop
 endfacet
 facet normal  0.000000e+00  0.000000e+00  1.000000e+00
   outer loop
     vertex  1.491145e+02 -4.647232e-01  6.500000e+01
     vertex  1.376036e+02 -6.506124e+00  6.500000e+01
     vertex  1.395208e+02 -9.283717e+00  6.500000e+01
   endloop
 endfacet
 facet normal  0.000000e+00  0.000000e+00  1.000000e+00
   outer loop
     vertex  1.491145e+02 -4.647232e-01  6.500000e+01
     vertex  1.395208e+02 -9.283717e+00  6.500000e+01
     vertex  1.492515e+02 -6.631227e-01  6.500000e+01
   endloop
 endfacet
 facet normal  0.000000e+00  0.000000e+00  1.000000e+00
   outer loop
     vertex  1.496454e+02 -9.350162e-01  6.500000e+01
     vertex  1.420471e+02 -1.152177e+01  6.500000e+01
     vertex  1.450355e+02 -1.309023e+01  6.500000e+01
   endloop
 endfacet
 facet normal  0.000000e+00  0.000000e+00  1.000000e+00
   outer loop
     vertex  1.496454e+02 -9.350162e-01  6.500000e+01
     vertex  1.494319e+02 -8.229839e-01  6.500000e+01
     vertex  1.420471e+02 -1.152177e+01  6.500000e+01
   endloop
 endfacet
 facet normal  0.000000e+00  0.000000e+00  1.000000e+00
   outer loop
     vertex  1.490291e+02 -2.393157e-01  6.500000e+01
     vertex  1.364068e+02 -3.350419e+00  6.500000e+01
     vertex  1.491145e+02 -4.647232e-01  6.500000e+01
   endloop
 endfacet
 facet normal  0.000000e+00  0.000000e+00  1.000000e+00
   outer loop
     vertex  1.498795e+02 -9.927089e-01  6.500000e+01
     vertex  1.450355e+02 -1.309023e+01  6.500000e+01
     vertex  1.483125e+02 -1.389792e+01  6.500000e+01
   endloop
 endfacet
 facet normal  0.000000e+00  0.000000e+00  1.000000e+00
   outer loop
     vertex  1.498795e+02 -9.927089e-01  6.500000e+01
     vertex  1.496454e+02 -9.350162e-01  6.500000e+01
     vertex  1.450355e+02 -1.309023e+01  6.500000e+01
   endloop
 endfacet
 facet normal  0.000000e+00  0.000000e+00  1.000000e+00
   outer loop
     vertex  1.490000e+02  1.010643e-15  6.500000e+01
     vertex  1.360000e+02  1.414900e-14  6.500000e+01
     vertex  1.364068e+02 -3.350419e+00  6.500000e+01
   endloop
 endfacet
 facet normal  0.000000e+00  0.000000e+00  1.000000e+00
   outer loop
     vertex  1.490000e+02  1.010643e-15  6.500000e+01
     vertex  1.364068e+02 -3.350419e+00  6.500000e+01
     vertex  1.490291e+02 -2.393157e-01  6.500000e+01
   endloop
 endfacet
 facet normal  0.000000e+00  0.000000e+00  1.000000e+00
   outer loop
     vertex  1.501205e+02 -9.927089e-01  6.500000e+01
     vertex  1.483125e+02 -1.389792e+01  6.500000e+01
     vertex  1.516875e+02 -1.389792e+01  6.500000e+01
   endloop
 endfacet
 facet normal  0.000000e+00  0.000000e+00  1.000000e+00
   outer loop
     vertex  1.501205e+02 -9.927089e-01  6.500000e+01
     vertex  1.498795e+02 -9.927089e-01  6.500000e+01
     vertex  1.483125e+02 -1.389792e+01  6.500000e+01
   endloop
 endfacet
 facet normal  0.000000e+00  0.000000e+00  1.000000e+00
   outer loop
     vertex  1.490291e+02  2.393157e-01  6.500000e+01
     vertex  1.364068e+02  3.350419e+00  6.500000e+01
     vertex  1.360000e+02  1.414900e-14  6.500000e+01
   endloop
 endfacet
 facet normal  0.000000e+00  0.000000e+00  1.000000e+00
   outer loop
     vertex  1.490291e+02  2.393157e-01  6.500000e+01
     vertex  1.360000e+02  1.414900e-14  6.500000e+01
     vertex  1.490000e+02  1.010643e-15  6.500000e+01
   endloop
 endfacet
 facet normal  0.000000e+00  0.000000e+00  1.000000e+00
   outer loop
     vertex  1.503546e+02 -9.350162e-01  6.500000e+01
     vertex  1.516875e+02 -1.389792e+01  6.500000e+01
     vertex  1.549645e+02 -1.309023e+01  6.500000e+01
   endloop
 endfacet
 facet normal  0.000000e+00  0.000000e+00  1.000000e+00
   outer loop
     vertex  1.503546e+02 -9.350162e-01  6.500000e+01
     vertex  1.501205e+02 -9.927089e-01  6.500000e+01
     vertex  1.516875e+02 -1.389792e+01  6.500000e+01
   endloop
 endfacet
 facet normal  0.000000e+00  0.000000e+00  1.000000e+00
   outer loop
     vertex  1.491145e+02  4.647232e-01  6.500000e+01
     vertex  1.376036e+02  6.506124e+00  6.500000e+01
     vertex  1.364068e+02  3.350419e+00  6.500000e+01
   endloop
 endfacet
 facet normal  0.000000e+00  0.000000e+00  1.000000e+00
   outer loop
     vertex  1.491145e+02  4.647232e-01  6.500000e+01
     vertex  1.364068e+02  3.350419e+00  6.500000e+01
     vertex  1.490291e+02  2.393157e-01  6.500000e+01
   endloop
 endfacet
 facet normal  0.000000e+00  0.000000e+00  1.000000e+00
   outer loop
     vertex  1.505681e+02 -8.229839e-01  6.500000e+01
     vertex  1.549645e+02 -1.309023e+01  6.500000e+01
     vertex  1.579529e+02 -1.152177e+01  6.500000e+01
   endloop
 endfacet
 facet normal  0.000000e+00  0.000000e+00  1.000000e+00
   outer loop
     vertex  1.505681e+02 -8.229839e-01  6.500000e+01
     vertex  1.503546e+02 -9.350162e-01  6.500000e+01
     vertex  1.549645e+02 -1.309023e+01  6.500000e+01
   endloop
 endfacet
 facet normal  0.000000e+00  0.000000e+00  1.000000e+00
   outer loop
     vertex  1.492515e+02  6.631227e-01  6.500000e+01
     vertex  1.395208e+02  9.283717e+00  6.500000e+01
     vertex  1.376036e+02  6.506124e+00  6.500000e+01
   endloop
 endfacet
 facet normal  0.000000e+00  0.000000e+00  1.000000e+00
   outer loop
     vertex  1.492515e+02  6.631227e-01  6.500000e+01
     vertex  1.376036e+02  6.506124e+00  6.500000e+01
     vertex  1.491145e+02  4.647232e-01  6.500000e+01
   endloop
 endfacet
 facet normal  0.000000e+00  0.000000e+00  1.000000e+00
   outer loop
     vertex  1.604792e+02 -9.283717e+00  6.500000e+01
     vertex  1.505681e+02 -8.229839e-01  6.500000e+01
     vertex  1.579529e+02 -1.152177e+01  6.500000e+01
   endloop
 endfacet
 facet normal  0.000000e+00  0.000000e+00  1.000000e+00
   outer loop
     vertex  1.604792e+02 -9.283717e+00  6.500000e+01
     vertex  1.507485e+02 -6.631227e-01  6.500000e+01
     vertex  1.505681e+02 -8.229839e-01  6.500000e+01
   endloop
 endfacet
 facet normal  0.000000e+00  0.000000e+00  1.000000e+00
   outer loop
     vertex  1.604792e+02 -9.283717e+00  6.500000e+01
     vertex  1.508855e+02 -4.647232e-01  6.500000e+01
     vertex  1.507485e+02 -6.631227e-01  6.500000e+01
   endloop
 endfacet
 facet normal  0.000000e+00  0.000000e+00  1.000000e+00
   outer loop
     vertex  1.420471e+02  1.152177e+01  6.500000e+01
     vertex  1.395208e+02  9.283717e+00  6.500000e+01
     vertex  1.492515e+02  6.631227e-01  6.500000e+01
   endloop
 endfacet
 facet normal  0.000000e+00  0.000000e+00  1.000000e+00
   outer loop
     vertex  1.420471e+02  1.152177e+01  6.500000e+01
     vertex  1.494319e+02  8.229839e-01  6.500000e+01
     vertex  1.496454e+02  9.350162e-01  6.500000e+01
   endloop
 endfacet
 facet normal  0.000000e+00  0.000000e+00  1.000000e+00
   outer loop
     vertex  1.420471e+02  1.152177e+01  6.500000e+01
     vertex  1.492515e+02  6.631227e-01  6.500000e+01
     vertex  1.494319e+02  8.229839e-01  6.500000e+01
   endloop
 endfacet
 facet normal  0.000000e+00  0.000000e+00  1.000000e+00
   outer loop
     vertex  1.623964e+02 -6.506124e+00  6.500000e+01
     vertex  1.508855e+02 -4.647232e-01  6.500000e+01
     vertex  1.604792e+02 -9.283717e+00  6.500000e+01
   endloop
 endfacet
 facet normal  0.000000e+00  0.000000e+00  1.000000e+00
   outer loop
     vertex  1.450355e+02  1.309023e+01  6.500000e+01
     vertex  1.496454e+02  9.350162e-01  6.500000e+01
     vertex  1.498795e+02  9.927089e-01  6.500000e+01
   endloop
 endfacet
 facet normal  0.000000e+00  0.000000e+00  1.000000e+00
   outer loop
     vertex  1.450355e+02  1.309023e+01  6.500000e+01
     vertex  1.420471e+02  1.152177e+01  6.500000e+01
     vertex  1.496454e+02  9.350162e-01  6.500000e+01
   endloop
 endfacet
 facet normal  0.000000e+00  0.000000e+00  1.000000e+00
   outer loop
     vertex  1.635932e+02 -3.350419e+00  6.500000e+01
     vertex  1.508855e+02 -4.647232e-01  6.500000e+01
     vertex  1.623964e+02 -6.506124e+00  6.500000e+01
   endloop
 endfacet
 facet normal  0.000000e+00  0.000000e+00  1.000000e+00
   outer loop
     vertex  1.635932e+02 -3.350419e+00  6.500000e+01
     vertex  1.509709e+02 -2.393157e-01  6.500000e+01
     vertex  1.508855e+02 -4.647232e-01  6.500000e+01
   endloop
 endfacet
 facet normal  0.000000e+00  0.000000e+00  1.000000e+00
   outer loop
     vertex  1.483125e+02  1.389792e+01  6.500000e+01
     vertex  1.498795e+02  9.927089e-01  6.500000e+01
     vertex  1.501205e+02  9.927089e-01  6.500000e+01
   endloop
 endfacet
 facet normal  0.000000e+00  0.000000e+00  1.000000e+00
   outer loop
     vertex  1.483125e+02  1.389792e+01  6.500000e+01
     vertex  1.450355e+02  1.309023e+01  6.500000e+01
     vertex  1.498795e+02  9.927089e-01  6.500000e+01
   endloop
 endfacet
 facet normal  0.000000e+00  0.000000e+00  1.000000e+00
   outer loop
     vertex  1.640000e+02 -3.429011e-15  6.500000e+01
     vertex  1.509709e+02  2.393157e-01  6.500000e+01
     vertex  1.510000e+02 -2.449294e-16  6.500000e+01
   endloop
 endfacet
 facet normal  0.000000e+00  0.000000e+00  1.000000e+00
   outer loop
     vertex  1.640000e+02 -3.429011e-15  6.500000e+01
     vertex  1.509709e+02 -2.393157e-01  6.500000e+01
     vertex  1.635932e+02 -3.350419e+00  6.500000e+01
   endloop
 endfacet
 facet normal  0.000000e+00  0.000000e+00  1.000000e+00
   outer loop
     vertex  1.640000e+02 -3.429011e-15  6.500000e+01
     vertex  1.510000e+02 -2.449294e-16  6.500000e+01
     vertex  1.509709e+02 -2.393157e-01  6.500000e+01
   endloop
 endfacet
 facet normal  0.000000e+00  0.000000e+00  1.000000e+00
   outer loop
     vertex  1.516875e+02  1.389792e+01  6.500000e+01
     vertex  1.483125e+02  1.389792e+01  6.500000e+01
     vertex  1.501205e+02  9.927089e-01  6.500000e+01
   endloop
 endfacet
 facet normal  0.000000e+00  0.000000e+00  1.000000e+00
   outer loop
     vertex  1.635932e+02  3.350419e+00  6.500000e+01
     vertex  1.509709e+02  2.393157e-01  6.500000e+01
     vertex  1.640000e+02 -3.429011e-15  6.500000e+01
   endloop
 endfacet
 facet normal  0.000000e+00  0.000000e+00  1.000000e+00
   outer loop
     vertex  1.635932e+02  3.350419e+00  6.500000e+01
     vertex  1.508855e+02  4.647232e-01  6.500000e+01
     vertex  1.509709e+02  2.393157e-01  6.500000e+01
   endloop
 endfacet
 facet normal  0.000000e+00  0.000000e+00  1.000000e+00
   outer loop
     vertex  1.549645e+02  1.309023e+01  6.500000e+01
     vertex  1.501205e+02  9.927089e-01  6.500000e+01
     vertex  1.503546e+02  9.350162e-01  6.500000e+01
   endloop
 endfacet
 facet normal  0.000000e+00  0.000000e+00  1.000000e+00
   outer loop
     vertex  1.549645e+02  1.309023e+01  6.500000e+01
     vertex  1.516875e+02  1.389792e+01  6.500000e+01
     vertex  1.501205e+02  9.927089e-01  6.500000e+01
   endloop
 endfacet
 facet normal  0.000000e+00  0.000000e+00  1.000000e+00
   outer loop
     vertex  1.623964e+02  6.506124e+00  6.500000e+01
     vertex  1.508855e+02  4.647232e-01  6.500000e+01
     vertex  1.635932e+02  3.350419e+00  6.500000e+01
   endloop
 endfacet
 facet normal  0.000000e+00  0.000000e+00  1.000000e+00
   outer loop
     vertex  1.579529e+02  1.152177e+01  6.500000e+01
     vertex  1.503546e+02  9.350162e-01  6.500000e+01
     vertex  1.505681e+02  8.229839e-01  6.500000e+01
   endloop
 endfacet
 facet normal  0.000000e+00  0.000000e+00  1.000000e+00
   outer loop
     vertex  1.579529e+02  1.152177e+01  6.500000e+01
     vertex  1.549645e+02  1.309023e+01  6.500000e+01
     vertex  1.503546e+02  9.350162e-01  6.500000e+01
   endloop
 endfacet
 facet normal  0.000000e+00  0.000000e+00  1.000000e+00
   outer loop
     vertex  1.604792e+02  9.283717e+00  6.500000e+01
     vertex  1.508855e+02  4.647232e-01  6.500000e+01
     vertex  1.623964e+02  6.506124e+00  6.500000e+01
   endloop
 endfacet
 facet normal  0.000000e+00  0.000000e+00  1.000000e+00
   outer loop
     vertex  1.604792e+02  9.283717e+00  6.500000e+01
     vertex  1.507485e+02  6.631227e-01  6.500000e+01
     vertex  1.508855e+02  4.647232e-01  6.500000e+01
   endloop
 endfacet
 facet normal  0.000000e+00  0.000000e+00  1.000000e+00
   outer loop
     vertex  1.604792e+02  9.283717e+00  6.500000e+01
     vertex  1.505681e+02  8.229839e-01  6.500000e+01
     vertex  1.507485e+02  6.631227e-01  6.500000e+01
   endloop
 endfacet
 facet normal  0.000000e+00  0.000000e+00  1.000000e+00
   outer loop
     vertex  1.604792e+02  9.283717e+00  6.500000e+01
     vertex  1.579529e+02  1.152177e+01  6.500000e+01
     vertex  1.505681e+02  8.229839e-01  6.500000e+01
   endloop
 endfacet
 facet normal -9.927089e-01 -1.205367e-01  0.000000e+00
   outer loop
     vertex  1.509709e+02  2.393157e-01  6.500000e+01
     vertex  1.510000e+02 -2.449294e-16  6.000000e+01
     vertex  1.510000e+02 -2.449294e-16  6.500000e+01
   endloop
 endfacet
 facet normal -9.927089e-01 -1.205367e-01 -0.000000e+00
   outer loop
     vertex  1.509709e+02  2.393157e-01  6.500000e+01
     vertex  1.509709e+02  2.393157e-01  6.000000e+01
     vertex  1.510000e+02 -2.449294e-16  6.000000e+01
   endloop
 endfacet
 facet normal -9.350162e-01 -3.546049e-01 -0.000000e+00
   outer loop
     vertex  1.508855e+02  4.647232e-01  6.500000e+01
     vertex  1.508855e+02  4.647232e-01  6.000000e+01
     vertex  1.509709e+02  2.393157e-01  6.000000e+01
   endloop
 endfacet
 facet normal -8.229839e-01 -5.680647e-01 -0.000000e+00
   outer loop
     vertex  1.508855e+02  4.647232e-01  6.500000e+01
     vertex  1.507485e+02  6.631227e-01  6.000000e+01
     vertex  1.508855e+02  4.647232e-01  6.000000e+01
   endloop
 endfacet
 facet normal -9.350162e-01 -3.546049e-01  0.000000e+00
   outer loop
     vertex  1.508855e+02  4.647232e-01  6.500000e+01
     vertex  1.509709e+02  2.393157e-01  6.000000e+01
     vertex  1.509709e+02  2.393157e-01  6.500000e+01
   endloop
 endfacet
 facet normal -8.229839e-01 -5.680647e-01 -0.000000e+00
   outer loop
     vertex  1.507485e+02  6.631227e-01  6.500000e+01
     vertex  1.507485e+02  6.631227e-01  6.000000e+01
     vertex  1.508855e+02  4.647232e-01  6.500000e+01
   endloop
 endfacet
 facet normal -6.631227e-01 -7.485107e-01 -0.000000e+00
   outer loop
     vertex  1.505681e+02  8.229839e-01  6.500000e+01
     vertex  1.505681e+02  8.229839e-01  6.000000e+01
     vertex  1.507485e+02  6.631227e-01  6.000000e+01
   endloop
 endfacet
 facet normal -6.631227e-01 -7.485107e-01  0.000000e+00
   outer loop
     vertex  1.505681e+02  8.229839e-01  6.500000e+01
     vertex  1.507485e+02  6.631227e-01  6.000000e+01
     vertex  1.507485e+02  6.631227e-01  6.500000e+01
   endloop
 endfacet
 facet normal -4.647232e-01 -8.854560e-01 -0.000000e+00
   outer loop
     vertex  1.503546e+02  9.350162e-01  6.500000e+01
     vertex  1.503546e+02  9.350162e-01  6.000000e+01
     vertex  1.505681e+02  8.229839e-01  6.000000e+01
   endloop
 endfacet
 facet normal -2.393157e-01 -9.709418e-01 -0.000000e+00
   outer loop
     vertex  1.503546e+02  9.350162e-01  6.500000e+01
     vertex  1.501205e+02  9.927089e-01  6.000000e+01
     vertex  1.503546e+02  9.350162e-01  6.000000e+01
   endloop
 endfacet
 facet normal -4.647232e-01 -8.854560e-01  0.000000e+00
   outer loop
     vertex  1.503546e+02  9.350162e-01  6.500000e+01
     vertex  1.505681e+02  8.229839e-01  6.000000e+01
     vertex  1.505681e+02  8.229839e-01  6.500000e+01
   endloop
 endfacet
 facet normal -2.393157e-01 -9.709418e-01 -0.000000e+00
   outer loop
     vertex  1.501205e+02  9.927089e-01  6.500000e+01
     vertex  1.501205e+02  9.927089e-01  6.000000e+01
     vertex  1.503546e+02  9.350162e-01  6.500000e+01
   endloop
 endfacet
 facet normal  0.000000e+00 -1.000000e+00  0.000000e+00
   outer loop
     vertex  1.498795e+02  9.927089e-01  6.500000e+01
     vertex  1.498795e+02  9.927089e-01  6.000000e+01
     vertex  1.501205e+02  9.927089e-01  6.000000e+01
   endloop
 endfacet
 facet normal  0.000000e+00 -1.000000e+00  0.000000e+00
   outer loop
     vertex  1.498795e+02  9.927089e-01  6.500000e+01
     vertex  1.501205e+02  9.927089e-01  6.000000e+01
     vertex  1.501205e+02  9.927089e-01  6.500000e+01
   endloop
 endfacet
 facet normal  2.393157e-01 -9.709418e-01  0.000000e+00
   outer loop
     vertex  1.496454e+02  9.350162e-01  6.500000e+01
     vertex  1.496454e+02  9.350162e-01  6.000000e+01
     vertex  1.498795e+02  9.927089e-01  6.000000e+01
   endloop
 endfacet
 facet normal  2.393157e-01 -9.709418e-01  0.000000e+00
   outer loop
     vertex  1.496454e+02  9.350162e-01  6.500000e+01
     vertex  1.498795e+02  9.927089e-01  6.000000e+01
     vertex  1.498795e+02  9.927089e-01  6.500000e+01
   endloop
 endfacet
 facet normal  4.647232e-01 -8.854560e-01  0.000000e+00
   outer loop
     vertex  1.494319e+02  8.229839e-01  6.500000e+01
     vertex  1.494319e+02  8.229839e-01  6.000000e+01
     vertex  1.496454e+02  9.350162e-01  6.000000e+01
   endloop
 endfacet
 facet normal  4.647232e-01 -8.854560e-01  0.000000e+00
   outer loop
     vertex  1.494319e+02  8.229839e-01  6.500000e+01
     vertex  1.496454e+02  9.350162e-01  6.000000e+01
     vertex  1.496454e+02  9.350162e-01  6.500000e+01
   endloop
 endfacet
 facet normal  6.631227e-01 -7.485107e-01  0.000000e+00
   outer loop
     vertex  1.492515e+02  6.631227e-01  6.500000e+01
     vertex  1.492515e+02  6.631227e-01  6.000000e+01
     vertex  1.494319e+02  8.229839e-01  6.000000e+01
   endloop
 endfacet
 facet normal  8.229839e-01 -5.680647e-01  0.000000e+00
   outer loop
     vertex  1.492515e+02  6.631227e-01  6.500000e+01
     vertex  1.491145e+02  4.647232e-01  6.000000e+01
     vertex  1.492515e+02  6.631227e-01  6.000000e+01
   endloop
 endfacet
 facet normal  6.631227e-01 -7.485107e-01  0.000000e+00
   outer loop
     vertex  1.492515e+02  6.631227e-01  6.500000e+01
     vertex  1.494319e+02  8.229839e-01  6.000000e+01
     vertex  1.494319e+02  8.229839e-01  6.500000e+01
   endloop
 endfacet
 facet normal  8.229839e-01 -5.680647e-01  0.000000e+00
   outer loop
     vertex  1.491145e+02  4.647232e-01  6.500000e+01
     vertex  1.491145e+02  4.647232e-01  6.000000e+01
     vertex  1.492515e+02  6.631227e-01  6.500000e+01
   endloop
 endfacet
 facet normal  9.350162e-01 -3.546049e-01  0.000000e+00
   outer loop
     vertex  1.491145e+02  4.647232e-01  6.500000e+01
     vertex  1.490291e+02  2.393157e-01  6.000000e+01
     vertex  1.491145e+02  4.647232e-01  6.000000e+01
   endloop
 endfacet
 facet normal  9.350162e-01 -3.546049e-01  0.000000e+00
   outer loop
     vertex  1.490291e+02  2.393157e-01  6.500000e+01
     vertex  1.490291e+02  2.393157e-01  6.000000e+01
     vertex  1.491145e+02  4.647232e-01  6.500000e+01
   endloop
 endfacet
 facet normal  9.927089e-01 -1.205367e-01  0.000000e+00
   outer loop
     vertex  1.490000e+02  1.010643e-15  6.500000e+01
     vertex  1.490291e+02  2.393157e-01  6.000000e+01
     vertex  1.490291e+02  2.393157e-01  6.500000e+01
   endloop
 endfacet
 facet normal  9.927089e-01 -1.205367e-01  0.000000e+00
   outer loop
     vertex  1.490000e+02  1.010643e-15  6.500000e+01
     vertex  1.490000e+02  1.010643e-15  6.000000e+01
     vertex  1.490291e+02  2.393157e-01  6.000000e+01
   endloop
 endfacet
 facet normal  9.927089e-01  1.205367e-01  0.000000e+00
   outer loop
     vertex  1.490000e+02  1.010643e-15  6.500000e+01
     vertex  1.490291e+02 -2.393157e-01  6.000000e+01
     vertex  1.490000e+02  1.010643e-15  6.000000e+01
   endloop
 endfacet
 facet normal  9.927089e-01  1.205367e-01  0.000000e+00
   outer loop
     vertex  1.490291e+02 -2.393157e-01  6.500000e+01
     vertex  1.490291e+02 -2.393157e-01  6.000000e+01
     vertex  1.490000e+02  1.010643e-15  6.500000e+01
   endloop
 endfacet
 facet normal  9.350162e-01  3.546049e-01  0.000000e+00
   outer loop
     vertex  1.491145e+02 -4.647232e-01  6.500000e+01
     vertex  1.490291e+02 -2.393157e-01  6.000000e+01
     vertex  1.490291e+02 -2.393157e-01  6.500000e+01
   endloop
 endfacet
 facet normal  9.350162e-01  3.546049e-01  0.000000e+00
   outer loop
     vertex  1.491145e+02 -4.647232e-01  6.500000e+01
     vertex  1.491145e+02 -4.647232e-01  6.000000e+01
     vertex  1.490291e+02 -2.393157e-01  6.000000e+01
   endloop
 endfacet
 facet normal  8.229839e-01  5.680647e-01  0.000000e+00
   outer loop
     vertex  1.492515e+02 -6.631227e-01  6.500000e+01
     vertex  1.491145e+02 -4.647232e-01  6.000000e+01
     vertex  1.491145e+02 -4.647232e-01  6.500000e+01
   endloop
 endfacet
 facet normal  8.229839e-01  5.680647e-01  0.000000e+00
   outer loop
     vertex  1.492515e+02 -6.631227e-01  6.500000e+01
     vertex  1.492515e+02 -6.631227e-01  6.000000e+01
     vertex  1.491145e+02 -4.647232e-01  6.000000e+01
   endloop
 endfacet
 facet normal  6.631227e-01  7.485107e-01  0.000000e+00
   outer loop
     vertex  1.494319e+02 -8.229839e-01  6.500000e+01
     vertex  1.492515e+02 -6.631227e-01  6.000000e+01
     vertex  1.492515e+02 -6.631227e-01  6.500000e+01
   endloop
 endfacet
 facet normal  6.631227e-01  7.485107e-01  0.000000e+00
   outer loop
     vertex  1.494319e+02 -8.229839e-01  6.500000e+01
     vertex  1.494319e+02 -8.229839e-01  6.000000e+01
     vertex  1.492515e+02 -6.631227e-01  6.000000e+01
   endloop
 endfacet
 facet normal  4.647232e-01  8.854560e-01  0.000000e+00
   outer loop
     vertex  1.496454e+02 -9.350162e-01  6.500000e+01
     vertex  1.494319e+02 -8.229839e-01  6.000000e+01
     vertex  1.494319e+02 -8.229839e-01  6.500000e+01
   endloop
 endfacet
 facet normal  4.647232e-01  8.854560e-01  0.000000e+00
   outer loop
     vertex  1.496454e+02 -9.350162e-01  6.500000e+01
     vertex  1.496454e+02 -9.350162e-01  6.000000e+01
     vertex  1.494319e+02 -8.229839e-01  6.000000e+01
   endloop
 endfacet
 facet normal  2.393157e-01  9.709418e-01  0.000000e+00
   outer loop
     vertex  1.498795e+02 -9.927089e-01  6.500000e+01
     vertex  1.496454e+02 -9.350162e-01  6.000000e+01
     vertex  1.496454e+02 -9.350162e-01  6.500000e+01
   endloop
 endfacet
 facet normal  2.393157e-01  9.709418e-01  0.000000e+00
   outer loop
     vertex  1.498795e+02 -9.927089e-01  6.500000e+01
     vertex  1.498795e+02 -9.927089e-01  6.000000e+01
     vertex  1.496454e+02 -9.350162e-01  6.000000e+01
   endloop
 endfacet
 facet normal  2.302666e-15  1.000000e+00  0.000000e+00
   outer loop
     vertex  1.498795e+02 -9.927089e-01  6.500000e+01
     vertex  1.501205e+02 -9.927089e-01  6.000000e+01
     vertex  1.498795e+02 -9.927089e-01  6.000000e+01
   endloop
 endfacet
 facet normal  2.302666e-15  1.000000e+00  0.000000e+00
   outer loop
     vertex  1.501205e+02 -9.927089e-01  6.500000e+01
     vertex  1.501205e+02 -9.927089e-01  6.000000e+01
     vertex  1.498795e+02 -9.927089e-01  6.500000e+01
   endloop
 endfacet
 facet normal -2.393157e-01  9.709418e-01  0.000000e+00
   outer loop
     vertex  1.503546e+02 -9.350162e-01  6.500000e+01
     vertex  1.501205e+02 -9.927089e-01  6.000000e+01
     vertex  1.501205e+02 -9.927089e-01  6.500000e+01
   endloop
 endfacet
 facet normal -2.393157e-01  9.709418e-01  0.000000e+00
   outer loop
     vertex  1.503546e+02 -9.350162e-01  6.500000e+01
     vertex  1.503546e+02 -9.350162e-01  6.000000e+01
     vertex  1.501205e+02 -9.927089e-01  6.000000e+01
   endloop
 endfacet
 facet normal -4.647232e-01  8.854560e-01  0.000000e+00
   outer loop
     vertex  1.505681e+02 -8.229839e-01  6.500000e+01
     vertex  1.503546e+02 -9.350162e-01  6.000000e+01
     vertex  1.503546e+02 -9.350162e-01  6.500000e+01
   endloop
 endfacet
 facet normal -4.647232e-01  8.854560e-01  0.000000e+00
   outer loop
     vertex  1.505681e+02 -8.229839e-01  6.500000e+01
     vertex  1.505681e+02 -8.229839e-01  6.000000e+01
     vertex  1.503546e+02 -9.350162e-01  6.000000e+01
   endloop
 endfacet
 facet normal -6.631227e-01  7.485107e-01  0.000000e+00
   outer loop
     vertex  1.505681e+02 -8.229839e-01  6.500000e+01
     vertex  1.507485e+02 -6.631227e-01  6.000000e+01
     vertex  1.505681e+02 -8.229839e-01  6.000000e+01
   endloop
 endfacet
 facet normal -6.631227e-01  7.485107e-01  0.000000e+00
   outer loop
     vertex  1.507485e+02 -6.631227e-01  6.500000e+01
     vertex  1.507485e+02 -6.631227e-01  6.000000e+01
     vertex  1.505681e+02 -8.229839e-01  6.500000e+01
   endloop
 endfacet
 facet normal -8.229839e-01  5.680647e-01  0.000000e+00
   outer loop
     vertex  1.507485e+02 -6.631227e-01  6.500000e+01
     vertex  1.508855e+02 -4.647232e-01  6.000000e+01
     vertex  1.507485e+02 -6.631227e-01  6.000000e+01
   endloop
 endfacet
 facet normal -8.229839e-01  5.680647e-01  0.000000e+00
   outer loop
     vertex  1.508855e+02 -4.647232e-01  6.500000e+01
     vertex  1.508855e+02 -4.647232e-01  6.000000e+01
     vertex  1.507485e+02 -6.631227e-01  6.500000e+01
   endloop
 endfacet
 facet normal -9.350162e-01  3.546049e-01  0.000000e+00
   outer loop
     vertex  1.509709e+02 -2.393157e-01  6.500000e+01
     vertex  1.509709e+02 -2.393157e-01  6.000000e+01
     vertex  1.508855e+02 -4.647232e-01  6.000000e+01
   endloop
 endfacet
 facet normal -9.927089e-01  1.205367e-01  0.000000e+00
   outer loop
     vertex  1.509709e+02 -2.393157e-01  6.500000e+01
     vertex  1.510000e+02 -2.449294e-16  6.000000e+01
     vertex  1.509709e+02 -2.393157e-01  6.000000e+01
   endloop
 endfacet
 facet normal -9.350162e-01  3.546049e-01  0.000000e+00
   outer loop
     vertex  1.509709e+02 -2.393157e-01  6.500000e+01
     vertex  1.508855e+02 -4.647232e-01  6.000000e+01
     vertex  1.508855e+02 -4.647232e-01  6.500000e+01
   endloop
 endfacet
 facet normal -9.927089e-01  1.205367e-01  0.000000e+00
   outer loop
     vertex  1.510000e+02 -2.449294e-16  6.500000e+01
     vertex  1.510000e+02 -2.449294e-16  6.000000e+01
     vertex  1.509709e+02 -2.393157e-01  6.500000e+01
   endloop
 endfacet
endsolid
