solid 
 facet normal  7.045148e-01  8.554359e-02  7.045148e-01
   outer loop
     vertex  1.194188e+02  4.786313e+00  6.500000e+01
     vertex  1.200000e+02 -4.898587e-15  6.500000e+01
     vertex  1.250000e+02 -6.123234e-15  6.000000e+01
   endloop
 endfacet
 facet normal  7.045148e-01  8.554359e-02  7.045148e-01
   outer loop
     vertex  1.194188e+02  4.786313e+00  6.500000e+01
     vertex  1.250000e+02 -6.123234e-15  6.000000e+01
     vertex  1.242735e+02  5.982892e+00  6.000000e+01
   endloop
 endfacet
 facet normal  6.635710e-01  2.516593e-01  7.045148e-01
   outer loop
     vertex  1.177091e+02  9.294463e+00  6.500000e+01
     vertex  1.242735e+02  5.982892e+00  6.000000e+01
     vertex  1.221364e+02  1.161808e+01  6.000000e+01
   endloop
 endfacet
 facet normal  6.635710e-01  2.516593e-01  7.045148e-01
   outer loop
     vertex  1.177091e+02  9.294463e+00  6.500000e+01
     vertex  1.194188e+02  4.786313e+00  6.500000e+01
     vertex  1.242735e+02  5.982892e+00  6.000000e+01
   endloop
 endfacet
 facet normal  5.840628e-01  4.031495e-01  7.045148e-01
   outer loop
     vertex  1.149702e+02  1.326245e+01  6.500000e+01
     vertex  1.221364e+02  1.161808e+01  6.000000e+01
     vertex  1.187128e+02  1.657807e+01  6.000000e+01
   endloop
 endfacet
 facet normal  5.840628e-01  4.031495e-01  7.045148e-01
   outer loop
     vertex  1.149702e+02  1.326245e+01  6.500000e+01
     vertex  1.177091e+02  9.294463e+00  6.500000e+01
     vertex  1.221364e+02  1.161808e+01  6.000000e+01
   endloop
 endfacet
 facet normal  4.706110e-01  5.312100e-01  7.045148e-01
   outer loop
     vertex  1.113613e+02  1.645968e+01  6.500000e+01
     vertex  1.187128e+02  1.657807e+01  6.000000e+01
     vertex  1.142016e+02  2.057460e+01  6.000000e+01
   endloop
 endfacet
 facet normal  4.706110e-01  5.312100e-01  7.045148e-01
   outer loop
     vertex  1.113613e+02  1.645968e+01  6.500000e+01
     vertex  1.149702e+02  1.326245e+01  6.500000e+01
     vertex  1.187128e+02  1.657807e+01  6.000000e+01
   endloop
 endfacet
 facet normal  3.298090e-01  6.283986e-01  7.045148e-01
   outer loop
     vertex  1.070921e+02  1.870032e+01  6.500000e+01
     vertex  1.142016e+02  2.057460e+01  6.000000e+01
     vertex  1.088651e+02  2.337541e+01  6.000000e+01
   endloop
 endfacet
 facet normal  1.698398e-01  6.890670e-01  7.045148e-01
   outer loop
     vertex  1.070921e+02  1.870032e+01  6.500000e+01
     vertex  1.088651e+02  2.337541e+01  6.000000e+01
     vertex  1.030134e+02  2.481772e+01  6.000000e+01
   endloop
 endfacet
 facet normal  3.298090e-01  6.283986e-01  7.045148e-01
   outer loop
     vertex  1.070921e+02  1.870032e+01  6.500000e+01
     vertex  1.113613e+02  1.645968e+01  6.500000e+01
     vertex  1.142016e+02  2.057460e+01  6.000000e+01
   endloop
 endfacet
 facet normal  1.698398e-01  6.890670e-01  7.045148e-01
   outer loop
     vertex  1.024107e+02  1.985418e+01  6.500000e+01
     vertex  1.070921e+02  1.870032e+01  6.500000e+01
     vertex  1.030134e+02  2.481772e+01  6.000000e+01
   endloop
 endfacet
 facet normal  0.000000e+00  7.096893e-01  7.045148e-01
   outer loop
     vertex  9.758927e+01  1.985418e+01  6.500000e+01
     vertex  1.030134e+02  2.481772e+01  6.000000e+01
     vertex  9.698658e+01  2.481772e+01  6.000000e+01
   endloop
 endfacet
 facet normal -0.000000e+00  7.096893e-01  7.045148e-01
   outer loop
     vertex  9.758927e+01  1.985418e+01  6.500000e+01
     vertex  1.024107e+02  1.985418e+01  6.500000e+01
     vertex  1.030134e+02  2.481772e+01  6.000000e+01
   endloop
 endfacet
 facet normal -1.698398e-01  6.890670e-01  7.045148e-01
   outer loop
     vertex  9.290790e+01  1.870032e+01  6.500000e+01
     vertex  9.698658e+01  2.481772e+01  6.000000e+01
     vertex  9.113488e+01  2.337541e+01  6.000000e+01
   endloop
 endfacet
 facet normal -3.298090e-01  6.283986e-01  7.045148e-01
   outer loop
     vertex  9.290790e+01  1.870032e+01  6.500000e+01
     vertex  9.113488e+01  2.337541e+01  6.000000e+01
     vertex  8.579838e+01  2.057460e+01  6.000000e+01
   endloop
 endfacet
 facet normal -1.698398e-01  6.890670e-01  7.045148e-01
   outer loop
     vertex  9.290790e+01  1.870032e+01  6.500000e+01
     vertex  9.758927e+01  1.985418e+01  6.500000e+01
     vertex  9.698658e+01  2.481772e+01  6.000000e+01
   endloop
 endfacet
 facet normal -3.298090e-01  6.283986e-01  7.045148e-01
   outer loop
     vertex  8.863871e+01  1.645968e+01  6.500000e+01
     vertex  9.290790e+01  1.870032e+01  6.500000e+01
     vertex  8.579838e+01  2.057460e+01  6.000000e+01
   endloop
 endfacet
 facet normal -4.706110e-01  5.312100e-01  7.045148e-01
   outer loop
     vertex  8.502979e+01  1.326245e+01  6.500000e+01
     vertex  8.579838e+01  2.057460e+01  6.000000e+01
     vertex  8.128723e+01  1.657807e+01  6.000000e+01
   endloop
 endfacet
 facet normal -4.706110e-01  5.312100e-01  7.045148e-01
   outer loop
     vertex  8.502979e+01  1.326245e+01  6.500000e+01
     vertex  8.863871e+01  1.645968e+01  6.500000e+01
     vertex  8.579838e+01  2.057460e+01  6.000000e+01
   endloop
 endfacet
 facet normal -5.840628e-01  4.031495e-01  7.045148e-01
   outer loop
     vertex  8.229088e+01  9.294463e+00  6.500000e+01
     vertex  8.502979e+01  1.326245e+01  6.500000e+01
     vertex  8.128723e+01  1.657807e+01  6.000000e+01
   endloop
 endfacet
 facet normal -5.840628e-01  4.031495e-01  7.045148e-01
   outer loop
     vertex  8.229088e+01  9.294463e+00  6.500000e+01
     vertex  8.128723e+01  1.657807e+01  6.000000e+01
     vertex  7.786360e+01  1.161808e+01  6.000000e+01
   endloop
 endfacet
 facet normal -6.635710e-01  2.516593e-01  7.045148e-01
   outer loop
     vertex  8.229088e+01  9.294463e+00  6.500000e+01
     vertex  7.786360e+01  1.161808e+01  6.000000e+01
     vertex  7.572645e+01  5.982892e+00  6.000000e+01
   endloop
 endfacet
 facet normal -6.635710e-01  2.516593e-01  7.045148e-01
   outer loop
     vertex  8.058116e+01  4.786313e+00  6.500000e+01
     vertex  8.229088e+01  9.294463e+00  6.500000e+01
     vertex  7.572645e+01  5.982892e+00  6.000000e+01
   endloop
 endfacet
 facet normal -7.045148e-01  8.554359e-02  7.045148e-01
   outer loop
     vertex  8.058116e+01  4.786313e+00  6.500000e+01
     vertex  7.572645e+01  5.982892e+00  6.000000e+01
     vertex  7.500000e+01  2.526608e-14  6.000000e+01
   endloop
 endfacet
 facet normal -7.045148e-01  8.554359e-02  7.045148e-01
   outer loop
     vertex  8.000000e+01  2.021286e-14  6.500000e+01
     vertex  8.058116e+01  4.786313e+00  6.500000e+01
     vertex  7.500000e+01  2.526608e-14  6.000000e+01
   endloop
 endfacet
 facet normal -7.045148e-01 -8.554359e-02  7.045148e-01
   outer loop
     vertex  8.058116e+01 -4.786313e+00  6.500000e+01
     vertex  8.000000e+01  2.021286e-14  6.500000e+01
     vertex  7.500000e+01  2.526608e-14  6.000000e+01
   endloop
 endfacet
 facet normal -7.045148e-01 -8.554359e-02  7.045148e-01
   outer loop
     vertex  8.058116e+01 -4.786313e+00  6.500000e+01
     vertex  7.500000e+01  2.526608e-14  6.000000e+01
     vertex  7.572645e+01 -5.982892e+00  6.000000e+01
   endloop
 endfacet
 facet normal -6.635710e-01 -2.516593e-01  7.045148e-01
   outer loop
     vertex  8.229088e+01 -9.294463e+00  6.500000e+01
     vertex  8.058116e+01 -4.786313e+00  6.500000e+01
     vertex  7.572645e+01 -5.982892e+00  6.000000e+01
   endloop
 endfacet
 facet normal -6.635710e-01 -2.516593e-01  7.045148e-01
   outer loop
     vertex  8.229088e+01 -9.294463e+00  6.500000e+01
     vertex  7.572645e+01 -5.982892e+00  6.000000e+01
     vertex  7.786360e+01 -1.161808e+01  6.000000e+01
   endloop
 endfacet
 facet normal -5.840628e-01 -4.031495e-01  7.045148e-01
   outer loop
     vertex  8.502979e+01 -1.326245e+01  6.500000e+01
     vertex  8.229088e+01 -9.294463e+00  6.500000e+01
     vertex  7.786360e+01 -1.161808e+01  6.000000e+01
   endloop
 endfacet
 facet normal -5.840628e-01 -4.031495e-01  7.045148e-01
   outer loop
     vertex  8.502979e+01 -1.326245e+01  6.500000e+01
     vertex  7.786360e+01 -1.161808e+01  6.000000e+01
     vertex  8.128723e+01 -1.657807e+01  6.000000e+01
   endloop
 endfacet
 facet normal -4.706110e-01 -5.312100e-01  7.045148e-01
   outer loop
     vertex  8.863871e+01 -1.645968e+01  6.500000e+01
     vertex  8.502979e+01 -1.326245e+01  6.500000e+01
     vertex  8.128723e+01 -1.657807e+01  6.000000e+01
   endloop
 endfacet
 facet normal -4.706110e-01 -5.312100e-01  7.045148e-01
   outer loop
     vertex  8.863871e+01 -1.645968e+01  6.500000e+01
     vertex  8.128723e+01 -1.657807e+01  6.000000e+01
     vertex  8.579838e+01 -2.057460e+01  6.000000e+01
   endloop
 endfacet
 facet normal -3.298090e-01 -6.283986e-01  7.045148e-01
   outer loop
     vertex  9.290790e+01 -1.870032e+01  6.500000e+01
     vertex  8.863871e+01 -1.645968e+01  6.500000e+01
     vertex  8.579838e+01 -2.057460e+01  6.000000e+01
   endloop
 endfacet
 facet normal -3.298090e-01 -6.283986e-01  7.045148e-01
   outer loop
     vertex  9.290790e+01 -1.870032e+01  6.500000e+01
     vertex  8.579838e+01 -2.057460e+01  6.000000e+01
     vertex  9.113488e+01 -2.337541e+01  6.000000e+01
   endloop
 endfacet
 facet normal -1.698398e-01 -6.890670e-01  7.045148e-01
   outer loop
     vertex  9.758927e+01 -1.985418e+01  6.500000e+01
     vertex  9.290790e+01 -1.870032e+01  6.500000e+01
     vertex  9.113488e+01 -2.337541e+01  6.000000e+01
   endloop
 endfacet
 facet normal -1.698398e-01 -6.890670e-01  7.045148e-01
   outer loop
     vertex  9.758927e+01 -1.985418e+01  6.500000e+01
     vertex  9.113488e+01 -2.337541e+01  6.000000e+01
     vertex  9.698658e+01 -2.481772e+01  6.000000e+01
   endloop
 endfacet
 facet normal -2.091747e-15 -7.096893e-01  7.045148e-01
   outer loop
     vertex  1.024107e+02 -1.985418e+01  6.500000e+01
     vertex  9.758927e+01 -1.985418e+01  6.500000e+01
     vertex  9.698658e+01 -2.481772e+01  6.000000e+01
   endloop
 endfacet
 facet normal -1.673398e-15 -7.096893e-01  7.045148e-01
   outer loop
     vertex  1.024107e+02 -1.985418e+01  6.500000e+01
     vertex  9.698658e+01 -2.481772e+01  6.000000e+01
     vertex  1.030134e+02 -2.481772e+01  6.000000e+01
   endloop
 endfacet
 facet normal  1.698398e-01 -6.890670e-01  7.045148e-01
   outer loop
     vertex  1.070921e+02 -1.870032e+01  6.500000e+01
     vertex  1.024107e+02 -1.985418e+01  6.500000e+01
     vertex  1.030134e+02 -2.481772e+01  6.000000e+01
   endloop
 endfacet
 facet normal  1.698398e-01 -6.890670e-01  7.045148e-01
   outer loop
     vertex  1.070921e+02 -1.870032e+01  6.500000e+01
     vertex  1.030134e+02 -2.481772e+01  6.000000e+01
     vertex  1.088651e+02 -2.337541e+01  6.000000e+01
   endloop
 endfacet
 facet normal  3.298090e-01 -6.283986e-01  7.045148e-01
   outer loop
     vertex  1.070921e+02 -1.870032e+01  6.500000e+01
     vertex  1.088651e+02 -2.337541e+01  6.000000e+01
     vertex  1.142016e+02 -2.057460e+01  6.000000e+01
   endloop
 endfacet
 facet normal  3.298090e-01 -6.283986e-01  7.045148e-01
   outer loop
     vertex  1.113613e+02 -1.645968e+01  6.500000e+01
     vertex  1.070921e+02 -1.870032e+01  6.500000e+01
     vertex  1.142016e+02 -2.057460e+01  6.000000e+01
   endloop
 endfacet
 facet normal  4.706110e-01 -5.312100e-01  7.045148e-01
   outer loop
     vertex  1.149702e+02 -1.326245e+01  6.500000e+01
     vertex  1.142016e+02 -2.057460e+01  6.000000e+01
     vertex  1.187128e+02 -1.657807e+01  6.000000e+01
   endloop
 endfacet
 facet normal  4.706110e-01 -5.312100e-01  7.045148e-01
   outer loop
     vertex  1.149702e+02 -1.326245e+01  6.500000e+01
     vertex  1.113613e+02 -1.645968e+01  6.500000e+01
     vertex  1.142016e+02 -2.057460e+01  6.000000e+01
   endloop
 endfacet
 facet normal  5.840628e-01 -4.031495e-01  7.045148e-01
   outer loop
     vertex  1.177091e+02 -9.294463e+00  6.500000e+01
     vertex  1.187128e+02 -1.657807e+01  6.000000e+01
     vertex  1.221364e+02 -1.161808e+01  6.000000e+01
   endloop
 endfacet
 facet normal  5.840628e-01 -4.031495e-01  7.045148e-01
   outer loop
     vertex  1.177091e+02 -9.294463e+00  6.500000e+01
     vertex  1.149702e+02 -1.326245e+01  6.500000e+01
     vertex  1.187128e+02 -1.657807e+01  6.000000e+01
   endloop
 endfacet
 facet normal  6.635710e-01 -2.516593e-01  7.045148e-01
   outer loop
     vertex  1.194188e+02 -4.786313e+00  6.500000e+01
     vertex  1.221364e+02 -1.161808e+01  6.000000e+01
     vertex  1.242735e+02 -5.982892e+00  6.000000e+01
   endloop
 endfacet
 facet normal  6.635710e-01 -2.516593e-01  7.045148e-01
   outer loop
     vertex  1.194188e+02 -4.786313e+00  6.500000e+01
     vertex  1.177091e+02 -9.294463e+00  6.500000e+01
     vertex  1.221364e+02 -1.161808e+01  6.000000e+01
   endloop
 endfacet
 facet normal  7.045148e-01 -8.554359e-02  7.045148e-01
   outer loop
     vertex  1.200000e+02 -4.898587e-15  6.500000e+01
     vertex  1.242735e+02 -5.982892e+00  6.000000e+01
     vertex  1.250000e+02 -6.123234e-15  6.000000e+01
   endloop
 endfacet
 facet normal  7.045148e-01 -8.554359e-02  7.045148e-01
   outer loop
     vertex  1.200000e+02 -4.898587e-15  6.500000e+01
     vertex  1.194188e+02 -4.786313e+00  6.500000e+01
     vertex  1.242735e+02 -5.982892e+00  6.000000e+01
   endloop
 endfacet
 facet normal  7.045148e-01  8.554359e-02 -7.045148e-01
   outer loop
     vertex  1.242735e+02  5.982892e+00  7.000000e+01
     vertex  1.250000e+02 -6.123234e-15  7.000000e+01
     vertex  1.200000e+02 -4.898587e-15  6.500000e+01
   endloop
 endfacet
 facet normal  7.045148e-01  8.554359e-02 -7.045148e-01
   outer loop
     vertex  1.242735e+02  5.982892e+00  7.000000e+01
     vertex  1.200000e+02 -4.898587e-15  6.500000e+01
     vertex  1.194188e+02  4.786313e+00  6.500000e+01
   endloop
 endfacet
 facet normal  6.635710e-01  2.516593e-01 -7.045148e-01
   outer loop
     vertex  1.221364e+02  1.161808e+01  7.000000e+01
     vertex  1.194188e+02  4.786313e+00  6.500000e+01
     vertex  1.177091e+02  9.294463e+00  6.500000e+01
   endloop
 endfacet
 facet normal  6.635710e-01  2.516593e-01 -7.045148e-01
   outer loop
     vertex  1.221364e+02  1.161808e+01  7.000000e+01
     vertex  1.242735e+02  5.982892e+00  7.000000e+01
     vertex  1.194188e+02  4.786313e+00  6.500000e+01
   endloop
 endfacet
 facet normal  5.840628e-01  4.031495e-01 -7.045148e-01
   outer loop
     vertex  1.187128e+02  1.657807e+01  7.000000e+01
     vertex  1.177091e+02  9.294463e+00  6.500000e+01
     vertex  1.149702e+02  1.326245e+01  6.500000e+01
   endloop
 endfacet
 facet normal  5.840628e-01  4.031495e-01 -7.045148e-01
   outer loop
     vertex  1.187128e+02  1.657807e+01  7.000000e+01
     vertex  1.221364e+02  1.161808e+01  7.000000e+01
     vertex  1.177091e+02  9.294463e+00  6.500000e+01
   endloop
 endfacet
 facet normal  4.706110e-01  5.312100e-01 -7.045148e-01
   outer loop
     vertex  1.142016e+02  2.057460e+01  7.000000e+01
     vertex  1.149702e+02  1.326245e+01  6.500000e+01
     vertex  1.113613e+02  1.645968e+01  6.500000e+01
   endloop
 endfacet
 facet normal  4.706110e-01  5.312100e-01 -7.045148e-01
   outer loop
     vertex  1.142016e+02  2.057460e+01  7.000000e+01
     vertex  1.187128e+02  1.657807e+01  7.000000e+01
     vertex  1.149702e+02  1.326245e+01  6.500000e+01
   endloop
 endfacet
 facet normal  3.298090e-01  6.283986e-01 -7.045148e-01
   outer loop
     vertex  1.088651e+02  2.337541e+01  7.000000e+01
     vertex  1.113613e+02  1.645968e+01  6.500000e+01
     vertex  1.070921e+02  1.870032e+01  6.500000e+01
   endloop
 endfacet
 facet normal  1.698398e-01  6.890670e-01 -7.045148e-01
   outer loop
     vertex  1.088651e+02  2.337541e+01  7.000000e+01
     vertex  1.070921e+02  1.870032e+01  6.500000e+01
     vertex  1.024107e+02  1.985418e+01  6.500000e+01
   endloop
 endfacet
 facet normal  3.298090e-01  6.283986e-01 -7.045148e-01
   outer loop
     vertex  1.088651e+02  2.337541e+01  7.000000e+01
     vertex  1.142016e+02  2.057460e+01  7.000000e+01
     vertex  1.113613e+02  1.645968e+01  6.500000e+01
   endloop
 endfacet
 facet normal  1.698398e-01  6.890670e-01 -7.045148e-01
   outer loop
     vertex  1.030134e+02  2.481772e+01  7.000000e+01
     vertex  1.088651e+02  2.337541e+01  7.000000e+01
     vertex  1.024107e+02  1.985418e+01  6.500000e+01
   endloop
 endfacet
 facet normal  0.000000e+00  7.096893e-01 -7.045148e-01
   outer loop
     vertex  9.698658e+01  2.481772e+01  7.000000e+01
     vertex  1.024107e+02  1.985418e+01  6.500000e+01
     vertex  9.758927e+01  1.985418e+01  6.500000e+01
   endloop
 endfacet
 facet normal  0.000000e+00  7.096893e-01 -7.045148e-01
   outer loop
     vertex  9.698658e+01  2.481772e+01  7.000000e+01
     vertex  1.030134e+02  2.481772e+01  7.000000e+01
     vertex  1.024107e+02  1.985418e+01  6.500000e+01
   endloop
 endfacet
 facet normal -1.698398e-01  6.890670e-01 -7.045148e-01
   outer loop
     vertex  9.113488e+01  2.337541e+01  7.000000e+01
     vertex  9.758927e+01  1.985418e+01  6.500000e+01
     vertex  9.290790e+01  1.870032e+01  6.500000e+01
   endloop
 endfacet
 facet normal -3.298090e-01  6.283986e-01 -7.045148e-01
   outer loop
     vertex  9.113488e+01  2.337541e+01  7.000000e+01
     vertex  9.290790e+01  1.870032e+01  6.500000e+01
     vertex  8.863871e+01  1.645968e+01  6.500000e+01
   endloop
 endfacet
 facet normal -1.698398e-01  6.890670e-01 -7.045148e-01
   outer loop
     vertex  9.113488e+01  2.337541e+01  7.000000e+01
     vertex  9.698658e+01  2.481772e+01  7.000000e+01
     vertex  9.758927e+01  1.985418e+01  6.500000e+01
   endloop
 endfacet
 facet normal -3.298090e-01  6.283986e-01 -7.045148e-01
   outer loop
     vertex  8.579838e+01  2.057460e+01  7.000000e+01
     vertex  9.113488e+01  2.337541e+01  7.000000e+01
     vertex  8.863871e+01  1.645968e+01  6.500000e+01
   endloop
 endfacet
 facet normal -4.706110e-01  5.312100e-01 -7.045148e-01
   outer loop
     vertex  8.128723e+01  1.657807e+01  7.000000e+01
     vertex  8.863871e+01  1.645968e+01  6.500000e+01
     vertex  8.502979e+01  1.326245e+01  6.500000e+01
   endloop
 endfacet
 facet normal -4.706110e-01  5.312100e-01 -7.045148e-01
   outer loop
     vertex  8.128723e+01  1.657807e+01  7.000000e+01
     vertex  8.579838e+01  2.057460e+01  7.000000e+01
     vertex  8.863871e+01  1.645968e+01  6.500000e+01
   endloop
 endfacet
 facet normal -5.840628e-01  4.031495e-01 -7.045148e-01
   outer loop
     vertex  7.786360e+01  1.161808e+01  7.000000e+01
     vertex  8.128723e+01  1.657807e+01  7.000000e+01
     vertex  8.502979e+01  1.326245e+01  6.500000e+01
   endloop
 endfacet
 facet normal -5.840628e-01  4.031495e-01 -7.045148e-01
   outer loop
     vertex  7.786360e+01  1.161808e+01  7.000000e+01
     vertex  8.502979e+01  1.326245e+01  6.500000e+01
     vertex  8.229088e+01  9.294463e+00  6.500000e+01
   endloop
 endfacet
 facet normal -6.635710e-01  2.516593e-01 -7.045148e-01
   outer loop
     vertex  7.786360e+01  1.161808e+01  7.000000e+01
     vertex  8.229088e+01  9.294463e+00  6.500000e+01
     vertex  8.058116e+01  4.786313e+00  6.500000e+01
   endloop
 endfacet
 facet normal -6.635710e-01  2.516593e-01 -7.045148e-01
   outer loop
     vertex  7.572645e+01  5.982892e+00  7.000000e+01
     vertex  7.786360e+01  1.161808e+01  7.000000e+01
     vertex  8.058116e+01  4.786313e+00  6.500000e+01
   endloop
 endfacet
 facet normal -7.045148e-01  8.554359e-02 -7.045148e-01
   outer loop
     vertex  7.572645e+01  5.982892e+00  7.000000e+01
     vertex  8.058116e+01  4.786313e+00  6.500000e+01
     vertex  8.000000e+01  2.021286e-14  6.500000e+01
   endloop
 endfacet
 facet normal -7.045148e-01  8.554359e-02 -7.045148e-01
   outer loop
     vertex  7.500000e+01  2.526608e-14  7.000000e+01
     vertex  7.572645e+01  5.982892e+00  7.000000e+01
     vertex  8.000000e+01  2.021286e-14  6.500000e+01
   endloop
 endfacet
 facet normal -7.045148e-01 -8.554359e-02 -7.045148e-01
   outer loop
     vertex  7.572645e+01 -5.982892e+00  7.000000e+01
     vertex  7.500000e+01  2.526608e-14  7.000000e+01
     vertex  8.000000e+01  2.021286e-14  6.500000e+01
   endloop
 endfacet
 facet normal -7.045148e-01 -8.554359e-02 -7.045148e-01
   outer loop
     vertex  7.572645e+01 -5.982892e+00  7.000000e+01
     vertex  8.000000e+01  2.021286e-14  6.500000e+01
     vertex  8.058116e+01 -4.786313e+00  6.500000e+01
   endloop
 endfacet
 facet normal -6.635710e-01 -2.516593e-01 -7.045148e-01
   outer loop
     vertex  7.786360e+01 -1.161808e+01  7.000000e+01
     vertex  7.572645e+01 -5.982892e+00  7.000000e+01
     vertex  8.058116e+01 -4.786313e+00  6.500000e+01
   endloop
 endfacet
 facet normal -6.635710e-01 -2.516593e-01 -7.045148e-01
   outer loop
     vertex  7.786360e+01 -1.161808e+01  7.000000e+01
     vertex  8.058116e+01 -4.786313e+00  6.500000e+01
     vertex  8.229088e+01 -9.294463e+00  6.500000e+01
   endloop
 endfacet
 facet normal -5.840628e-01 -4.031495e-01 -7.045148e-01
   outer loop
     vertex  8.128723e+01 -1.657807e+01  7.000000e+01
     vertex  7.786360e+01 -1.161808e+01  7.000000e+01
     vertex  8.229088e+01 -9.294463e+00  6.500000e+01
   endloop
 endfacet
 facet normal -5.840628e-01 -4.031495e-01 -7.045148e-01
   outer loop
     vertex  8.128723e+01 -1.657807e+01  7.000000e+01
     vertex  8.229088e+01 -9.294463e+00  6.500000e+01
     vertex  8.502979e+01 -1.326245e+01  6.500000e+01
   endloop
 endfacet
 facet normal -4.706110e-01 -5.312100e-01 -7.045148e-01
   outer loop
     vertex  8.579838e+01 -2.057460e+01  7.000000e+01
     vertex  8.128723e+01 -1.657807e+01  7.000000e+01
     vertex  8.502979e+01 -1.326245e+01  6.500000e+01
   endloop
 endfacet
 facet normal -4.706110e-01 -5.312100e-01 -7.045148e-01
   outer loop
     vertex  8.579838e+01 -2.057460e+01  7.000000e+01
     vertex  8.502979e+01 -1.326245e+01  6.500000e+01
     vertex  8.863871e+01 -1.645968e+01  6.500000e+01
   endloop
 endfacet
 facet normal -3.298090e-01 -6.283986e-01 -7.045148e-01
   outer loop
     vertex  9.113488e+01 -2.337541e+01  7.000000e+01
     vertex  8.579838e+01 -2.057460e+01  7.000000e+01
     vertex  8.863871e+01 -1.645968e+01  6.500000e+01
   endloop
 endfacet
 facet normal -3.298090e-01 -6.283986e-01 -7.045148e-01
   outer loop
     vertex  9.113488e+01 -2.337541e+01  7.000000e+01
     vertex  8.863871e+01 -1.645968e+01  6.500000e+01
     vertex  9.290790e+01 -1.870032e+01  6.500000e+01
   endloop
 endfacet
 facet normal -1.698398e-01 -6.890670e-01 -7.045148e-01
   outer loop
     vertex  9.698658e+01 -2.481772e+01  7.000000e+01
     vertex  9.113488e+01 -2.337541e+01  7.000000e+01
     vertex  9.290790e+01 -1.870032e+01  6.500000e+01
   endloop
 endfacet
 facet normal -1.698398e-01 -6.890670e-01 -7.045148e-01
   outer loop
     vertex  9.698658e+01 -2.481772e+01  7.000000e+01
     vertex  9.290790e+01 -1.870032e+01  6.500000e+01
     vertex  9.758927e+01 -1.985418e+01  6.500000e+01
   endloop
 endfacet
 facet normal -1.673398e-15 -7.096893e-01 -7.045148e-01
   outer loop
     vertex  1.030134e+02 -2.481772e+01  7.000000e+01
     vertex  9.698658e+01 -2.481772e+01  7.000000e+01
     vertex  9.758927e+01 -1.985418e+01  6.500000e+01
   endloop
 endfacet
 facet normal -2.091747e-15 -7.096893e-01 -7.045148e-01
   outer loop
     vertex  1.030134e+02 -2.481772e+01  7.000000e+01
     vertex  9.758927e+01 -1.985418e+01  6.500000e+01
     vertex  1.024107e+02 -1.985418e+01  6.500000e+01
   endloop
 endfacet
 facet normal  1.698398e-01 -6.890670e-01 -7.045148e-01
   outer loop
     vertex  1.088651e+02 -2.337541e+01  7.000000e+01
     vertex  1.030134e+02 -2.481772e+01  7.000000e+01
     vertex  1.024107e+02 -1.985418e+01  6.500000e+01
   endloop
 endfacet
 facet normal  1.698398e-01 -6.890670e-01 -7.045148e-01
   outer loop
     vertex  1.088651e+02 -2.337541e+01  7.000000e+01
     vertex  1.024107e+02 -1.985418e+01  6.500000e+01
     vertex  1.070921e+02 -1.870032e+01  6.500000e+01
   endloop
 endfacet
 facet normal  3.298090e-01 -6.283986e-01 -7.045148e-01
   outer loop
     vertex  1.088651e+02 -2.337541e+01  7.000000e+01
     vertex  1.070921e+02 -1.870032e+01  6.500000e+01
     vertex  1.113613e+02 -1.645968e+01  6.500000e+01
   endloop
 endfacet
 facet normal  3.298090e-01 -6.283986e-01 -7.045148e-01
   outer loop
     vertex  1.142016e+02 -2.057460e+01  7.000000e+01
     vertex  1.088651e+02 -2.337541e+01  7.000000e+01
     vertex  1.113613e+02 -1.645968e+01  6.500000e+01
   endloop
 endfacet
 facet normal  4.706110e-01 -5.312100e-01 -7.045148e-01
   outer loop
     vertex  1.187128e+02 -1.657807e+01  7.000000e+01
     vertex  1.113613e+02 -1.645968e+01  6.500000e+01
     vertex  1.149702e+02 -1.326245e+01  6.500000e+01
   endloop
 endfacet
 facet normal  4.706110e-01 -5.312100e-01 -7.045148e-01
   outer loop
     vertex  1.187128e+02 -1.657807e+01  7.000000e+01
     vertex  1.142016e+02 -2.057460e+01  7.000000e+01
     vertex  1.113613e+02 -1.645968e+01  6.500000e+01
   endloop
 endfacet
 facet normal  5.840628e-01 -4.031495e-01 -7.045148e-01
   outer loop
     vertex  1.221364e+02 -1.161808e+01  7.000000e+01
     vertex  1.149702e+02 -1.326245e+01  6.500000e+01
     vertex  1.177091e+02 -9.294463e+00  6.500000e+01
   endloop
 endfacet
 facet normal  5.840628e-01 -4.031495e-01 -7.045148e-01
   outer loop
     vertex  1.221364e+02 -1.161808e+01  7.000000e+01
     vertex  1.187128e+02 -1.657807e+01  7.000000e+01
     vertex  1.149702e+02 -1.326245e+01  6.500000e+01
   endloop
 endfacet
 facet normal  6.635710e-01 -2.516593e-01 -7.045148e-01
   outer loop
     vertex  1.242735e+02 -5.982892e+00  7.000000e+01
     vertex  1.177091e+02 -9.294463e+00  6.500000e+01
     vertex  1.194188e+02 -4.786313e+00  6.500000e+01
   endloop
 endfacet
 facet normal  6.635710e-01 -2.516593e-01 -7.045148e-01
   outer loop
     vertex  1.242735e+02 -5.982892e+00  7.000000e+01
     vertex  1.221364e+02 -1.161808e+01  7.000000e+01
     vertex  1.177091e+02 -9.294463e+00  6.500000e+01
   endloop
 endfacet
 facet normal  7.045148e-01 -8.554359e-02 -7.045148e-01
   outer loop
     vertex  1.250000e+02 -6.123234e-15  7.000000e+01
     vertex  1.194188e+02 -4.786313e+00  6.500000e+01
     vertex  1.200000e+02 -4.898587e-15  6.500000e+01
   endloop
 endfacet
 facet normal  7.045148e-01 -8.554359e-02 -7.045148e-01
   outer loop
     vertex  1.250000e+02 -6.123234e-15  7.000000e+01
     vertex  1.242735e+02 -5.982892e+00  7.000000e+01
     vertex  1.194188e+02 -4.786313e+00  6.500000e+01
   endloop
 endfacet
 facet normal  0.000000e+00  0.000000e+00 -1.000000e+00
   outer loop
     vertex  9.925149e+01 -6.631227e-01  6.000000e+01
     vertex  8.128723e+01 -1.657807e+01  6.000000e+01
     vertex  7.786360e+01 -1.161808e+01  6.000000e+01
   endloop
 endfacet
 facet normal  0.000000e+00  0.000000e+00 -1.000000e+00
   outer loop
     vertex  9.925149e+01 -6.631227e-01  6.000000e+01
     vertex  8.579838e+01 -2.057460e+01  6.000000e+01
     vertex  8.128723e+01 -1.657807e+01  6.000000e+01
   endloop
 endfacet
 facet normal -0.000000e+00  0.000000e+00 -1.000000e+00
   outer loop
     vertex  9.943194e+01 -8.229839e-01  6.000000e+01
     vertex  8.579838e+01 -2.057460e+01  6.000000e+01
     vertex  9.925149e+01 -6.631227e-01  6.000000e+01
   endloop
 endfacet
 facet normal  0.000000e+00 -0.000000e+00 -1.000000e+00
   outer loop
     vertex  9.911454e+01 -4.647232e-01  6.000000e+01
     vertex  9.925149e+01 -6.631227e-01  6.000000e+01
     vertex  7.786360e+01 -1.161808e+01  6.000000e+01
   endloop
 endfacet
 facet normal  0.000000e+00  0.000000e+00 -1.000000e+00
   outer loop
     vertex  9.964540e+01 -9.350162e-01  6.000000e+01
     vertex  9.113488e+01 -2.337541e+01  6.000000e+01
     vertex  8.579838e+01 -2.057460e+01  6.000000e+01
   endloop
 endfacet
 facet normal -0.000000e+00  0.000000e+00 -1.000000e+00
   outer loop
     vertex  9.964540e+01 -9.350162e-01  6.000000e+01
     vertex  8.579838e+01 -2.057460e+01  6.000000e+01
     vertex  9.943194e+01 -8.229839e-01  6.000000e+01
   endloop
 endfacet
 facet normal  0.000000e+00  0.000000e+00 -1.000000e+00
   outer loop
     vertex  9.902906e+01 -2.393157e-01  6.000000e+01
     vertex  7.786360e+01 -1.161808e+01  6.000000e+01
     vertex  7.572645e+01 -5.982892e+00  6.000000e+01
   endloop
 endfacet
 facet normal  0.000000e+00 -0.000000e+00 -1.000000e+00
   outer loop
     vertex  9.902906e+01 -2.393157e-01  6.000000e+01
     vertex  9.911454e+01 -4.647232e-01  6.000000e+01
     vertex  7.786360e+01 -1.161808e+01  6.000000e+01
   endloop
 endfacet
 facet normal  0.000000e+00  0.000000e+00 -1.000000e+00
   outer loop
     vertex  9.987946e+01 -9.927089e-01  6.000000e+01
     vertex  9.698658e+01 -2.481772e+01  6.000000e+01
     vertex  9.113488e+01 -2.337541e+01  6.000000e+01
   endloop
 endfacet
 facet normal -0.000000e+00  0.000000e+00 -1.000000e+00
   outer loop
     vertex  9.987946e+01 -9.927089e-01  6.000000e+01
     vertex  9.113488e+01 -2.337541e+01  6.000000e+01
     vertex  9.964540e+01 -9.350162e-01  6.000000e+01
   endloop
 endfacet
 facet normal -0.000000e+00  0.000000e+00 -1.000000e+00
   outer loop
     vertex  9.900000e+01  1.010643e-15  6.000000e+01
     vertex  7.572645e+01 -5.982892e+00  6.000000e+01
     vertex  7.500000e+01  2.526608e-14  6.000000e+01
   endloop
 endfacet
 facet normal  0.000000e+00 -0.000000e+00 -1.000000e+00
   outer loop
     vertex  9.900000e+01  1.010643e-15  6.000000e+01
     vertex  9.902906e+01 -2.393157e-01  6.000000e+01
     vertex  7.572645e+01 -5.982892e+00  6.000000e+01
   endloop
 endfacet
 facet normal  0.000000e+00 -0.000000e+00 -1.000000e+00
   outer loop
     vertex  1.001205e+02 -9.927089e-01  6.000000e+01
     vertex  1.030134e+02 -2.481772e+01  6.000000e+01
     vertex  9.698658e+01 -2.481772e+01  6.000000e+01
   endloop
 endfacet
 facet normal  0.000000e+00  0.000000e+00 -1.000000e+00
   outer loop
     vertex  1.001205e+02 -9.927089e-01  6.000000e+01
     vertex  1.088651e+02 -2.337541e+01  6.000000e+01
     vertex  1.030134e+02 -2.481772e+01  6.000000e+01
   endloop
 endfacet
 facet normal -0.000000e+00  0.000000e+00 -1.000000e+00
   outer loop
     vertex  1.001205e+02 -9.927089e-01  6.000000e+01
     vertex  9.698658e+01 -2.481772e+01  6.000000e+01
     vertex  9.987946e+01 -9.927089e-01  6.000000e+01
   endloop
 endfacet
 facet normal  0.000000e+00  0.000000e+00 -1.000000e+00
   outer loop
     vertex  9.902906e+01  2.393157e-01  6.000000e+01
     vertex  7.572645e+01  5.982892e+00  6.000000e+01
     vertex  7.786360e+01  1.161808e+01  6.000000e+01
   endloop
 endfacet
 facet normal -0.000000e+00  0.000000e+00 -1.000000e+00
   outer loop
     vertex  9.902906e+01  2.393157e-01  6.000000e+01
     vertex  7.500000e+01  2.526608e-14  6.000000e+01
     vertex  7.572645e+01  5.982892e+00  6.000000e+01
   endloop
 endfacet
 facet normal  0.000000e+00  0.000000e+00 -1.000000e+00
   outer loop
     vertex  9.902906e+01  2.393157e-01  6.000000e+01
     vertex  9.900000e+01  1.010643e-15  6.000000e+01
     vertex  7.500000e+01  2.526608e-14  6.000000e+01
   endloop
 endfacet
 facet normal  0.000000e+00 -0.000000e+00 -1.000000e+00
   outer loop
     vertex  1.003546e+02 -9.350162e-01  6.000000e+01
     vertex  1.088651e+02 -2.337541e+01  6.000000e+01
     vertex  1.001205e+02 -9.927089e-01  6.000000e+01
   endloop
 endfacet
 facet normal -0.000000e+00  0.000000e+00 -1.000000e+00
   outer loop
     vertex  9.911454e+01  4.647232e-01  6.000000e+01
     vertex  9.902906e+01  2.393157e-01  6.000000e+01
     vertex  7.786360e+01  1.161808e+01  6.000000e+01
   endloop
 endfacet
 facet normal  0.000000e+00  0.000000e+00 -1.000000e+00
   outer loop
     vertex  1.005681e+02 -8.229839e-01  6.000000e+01
     vertex  1.142016e+02 -2.057460e+01  6.000000e+01
     vertex  1.088651e+02 -2.337541e+01  6.000000e+01
   endloop
 endfacet
 facet normal  0.000000e+00 -0.000000e+00 -1.000000e+00
   outer loop
     vertex  1.005681e+02 -8.229839e-01  6.000000e+01
     vertex  1.088651e+02 -2.337541e+01  6.000000e+01
     vertex  1.003546e+02 -9.350162e-01  6.000000e+01
   endloop
 endfacet
 facet normal -0.000000e+00  0.000000e+00 -1.000000e+00
   outer loop
     vertex  9.925149e+01  6.631227e-01  6.000000e+01
     vertex  9.911454e+01  4.647232e-01  6.000000e+01
     vertex  7.786360e+01  1.161808e+01  6.000000e+01
   endloop
 endfacet
 facet normal  0.000000e+00  0.000000e+00 -1.000000e+00
   outer loop
     vertex  9.925149e+01  6.631227e-01  6.000000e+01
     vertex  7.786360e+01  1.161808e+01  6.000000e+01
     vertex  8.128723e+01  1.657807e+01  6.000000e+01
   endloop
 endfacet
 facet normal -0.000000e+00  0.000000e+00 -1.000000e+00
   outer loop
     vertex  9.943194e+01  8.229839e-01  6.000000e+01
     vertex  9.925149e+01  6.631227e-01  6.000000e+01
     vertex  8.128723e+01  1.657807e+01  6.000000e+01
   endloop
 endfacet
 facet normal -0.000000e+00  0.000000e+00 -1.000000e+00
   outer loop
     vertex  1.187128e+02 -1.657807e+01  6.000000e+01
     vertex  1.142016e+02 -2.057460e+01  6.000000e+01
     vertex  1.005681e+02 -8.229839e-01  6.000000e+01
   endloop
 endfacet
 facet normal  0.000000e+00  0.000000e+00 -1.000000e+00
   outer loop
     vertex  1.187128e+02 -1.657807e+01  6.000000e+01
     vertex  1.005681e+02 -8.229839e-01  6.000000e+01
     vertex  1.007485e+02 -6.631227e-01  6.000000e+01
   endloop
 endfacet
 facet normal  0.000000e+00  0.000000e+00 -1.000000e+00
   outer loop
     vertex  1.187128e+02 -1.657807e+01  6.000000e+01
     vertex  1.007485e+02 -6.631227e-01  6.000000e+01
     vertex  1.008855e+02 -4.647232e-01  6.000000e+01
   endloop
 endfacet
 facet normal  0.000000e+00 -0.000000e+00 -1.000000e+00
   outer loop
     vertex  8.579838e+01  2.057460e+01  6.000000e+01
     vertex  9.943194e+01  8.229839e-01  6.000000e+01
     vertex  8.128723e+01  1.657807e+01  6.000000e+01
   endloop
 endfacet
 facet normal -0.000000e+00  0.000000e+00 -1.000000e+00
   outer loop
     vertex  1.221364e+02 -1.161808e+01  6.000000e+01
     vertex  1.187128e+02 -1.657807e+01  6.000000e+01
     vertex  1.008855e+02 -4.647232e-01  6.000000e+01
   endloop
 endfacet
 facet normal  0.000000e+00 -0.000000e+00 -1.000000e+00
   outer loop
     vertex  9.113488e+01  2.337541e+01  6.000000e+01
     vertex  9.943194e+01  8.229839e-01  6.000000e+01
     vertex  8.579838e+01  2.057460e+01  6.000000e+01
   endloop
 endfacet
 facet normal  0.000000e+00  0.000000e+00 -1.000000e+00
   outer loop
     vertex  9.113488e+01  2.337541e+01  6.000000e+01
     vertex  9.987946e+01  9.927089e-01  6.000000e+01
     vertex  9.964540e+01  9.350162e-01  6.000000e+01
   endloop
 endfacet
 facet normal  0.000000e+00  0.000000e+00 -1.000000e+00
   outer loop
     vertex  9.113488e+01  2.337541e+01  6.000000e+01
     vertex  9.964540e+01  9.350162e-01  6.000000e+01
     vertex  9.943194e+01  8.229839e-01  6.000000e+01
   endloop
 endfacet
 facet normal -0.000000e+00  0.000000e+00 -1.000000e+00
   outer loop
     vertex  1.242735e+02 -5.982892e+00  6.000000e+01
     vertex  1.221364e+02 -1.161808e+01  6.000000e+01
     vertex  1.008855e+02 -4.647232e-01  6.000000e+01
   endloop
 endfacet
 facet normal  0.000000e+00  0.000000e+00 -1.000000e+00
   outer loop
     vertex  1.242735e+02 -5.982892e+00  6.000000e+01
     vertex  1.008855e+02 -4.647232e-01  6.000000e+01
     vertex  1.009709e+02 -2.393157e-01  6.000000e+01
   endloop
 endfacet
 facet normal  0.000000e+00  0.000000e+00 -1.000000e+00
   outer loop
     vertex  1.242735e+02 -5.982892e+00  6.000000e+01
     vertex  1.009709e+02 -2.393157e-01  6.000000e+01
     vertex  1.010000e+02 -2.449294e-16  6.000000e+01
   endloop
 endfacet
 facet normal  0.000000e+00  0.000000e+00 -1.000000e+00
   outer loop
     vertex  9.698658e+01  2.481772e+01  6.000000e+01
     vertex  1.001205e+02  9.927089e-01  6.000000e+01
     vertex  9.987946e+01  9.927089e-01  6.000000e+01
   endloop
 endfacet
 facet normal  0.000000e+00 -0.000000e+00 -1.000000e+00
   outer loop
     vertex  9.698658e+01  2.481772e+01  6.000000e+01
     vertex  9.987946e+01  9.927089e-01  6.000000e+01
     vertex  9.113488e+01  2.337541e+01  6.000000e+01
   endloop
 endfacet
 facet normal -0.000000e+00  0.000000e+00 -1.000000e+00
   outer loop
     vertex  1.250000e+02 -6.123234e-15  6.000000e+01
     vertex  1.242735e+02 -5.982892e+00  6.000000e+01
     vertex  1.010000e+02 -2.449294e-16  6.000000e+01
   endloop
 endfacet
 facet normal  0.000000e+00  0.000000e+00 -1.000000e+00
   outer loop
     vertex  1.030134e+02  2.481772e+01  6.000000e+01
     vertex  1.003546e+02  9.350162e-01  6.000000e+01
     vertex  1.001205e+02  9.927089e-01  6.000000e+01
   endloop
 endfacet
 facet normal -0.000000e+00  0.000000e+00 -1.000000e+00
   outer loop
     vertex  1.030134e+02  2.481772e+01  6.000000e+01
     vertex  1.001205e+02  9.927089e-01  6.000000e+01
     vertex  9.698658e+01  2.481772e+01  6.000000e+01
   endloop
 endfacet
 facet normal  0.000000e+00 -0.000000e+00 -1.000000e+00
   outer loop
     vertex  1.242735e+02  5.982892e+00  6.000000e+01
     vertex  1.250000e+02 -6.123234e-15  6.000000e+01
     vertex  1.010000e+02 -2.449294e-16  6.000000e+01
   endloop
 endfacet
 facet normal  0.000000e+00  0.000000e+00 -1.000000e+00
   outer loop
     vertex  1.242735e+02  5.982892e+00  6.000000e+01
     vertex  1.010000e+02 -2.449294e-16  6.000000e+01
     vertex  1.009709e+02  2.393157e-01  6.000000e+01
   endloop
 endfacet
 facet normal -0.000000e+00  0.000000e+00 -1.000000e+00
   outer loop
     vertex  1.088651e+02  2.337541e+01  6.000000e+01
     vertex  1.003546e+02  9.350162e-01  6.000000e+01
     vertex  1.030134e+02  2.481772e+01  6.000000e+01
   endloop
 endfacet
 facet normal  0.000000e+00 -0.000000e+00 -1.000000e+00
   outer loop
     vertex  1.221364e+02  1.161808e+01  6.000000e+01
     vertex  1.242735e+02  5.982892e+00  6.000000e+01
     vertex  1.009709e+02  2.393157e-01  6.000000e+01
   endloop
 endfacet
 facet normal  0.000000e+00  0.000000e+00 -1.000000e+00
   outer loop
     vertex  1.221364e+02  1.161808e+01  6.000000e+01
     vertex  1.009709e+02  2.393157e-01  6.000000e+01
     vertex  1.008855e+02  4.647232e-01  6.000000e+01
   endloop
 endfacet
 facet normal  0.000000e+00  0.000000e+00 -1.000000e+00
   outer loop
     vertex  1.221364e+02  1.161808e+01  6.000000e+01
     vertex  1.008855e+02  4.647232e-01  6.000000e+01
     vertex  1.007485e+02  6.631227e-01  6.000000e+01
   endloop
 endfacet
 facet normal  0.000000e+00  0.000000e+00 -1.000000e+00
   outer loop
     vertex  1.142016e+02  2.057460e+01  6.000000e+01
     vertex  1.005681e+02  8.229839e-01  6.000000e+01
     vertex  1.003546e+02  9.350162e-01  6.000000e+01
   endloop
 endfacet
 facet normal -0.000000e+00  0.000000e+00 -1.000000e+00
   outer loop
     vertex  1.142016e+02  2.057460e+01  6.000000e+01
     vertex  1.003546e+02  9.350162e-01  6.000000e+01
     vertex  1.088651e+02  2.337541e+01  6.000000e+01
   endloop
 endfacet
 facet normal  0.000000e+00  0.000000e+00 -1.000000e+00
   outer loop
     vertex  1.187128e+02  1.657807e+01  6.000000e+01
     vertex  1.007485e+02  6.631227e-01  6.000000e+01
     vertex  1.005681e+02  8.229839e-01  6.000000e+01
   endloop
 endfacet
 facet normal -0.000000e+00  0.000000e+00 -1.000000e+00
   outer loop
     vertex  1.187128e+02  1.657807e+01  6.000000e+01
     vertex  1.005681e+02  8.229839e-01  6.000000e+01
     vertex  1.142016e+02  2.057460e+01  6.000000e+01
   endloop
 endfacet
 facet normal  0.000000e+00 -0.000000e+00 -1.000000e+00
   outer loop
     vertex  1.187128e+02  1.657807e+01  6.000000e+01
     vertex  1.221364e+02  1.161808e+01  6.000000e+01
     vertex  1.007485e+02  6.631227e-01  6.000000e+01
   endloop
 endfacet
 facet normal  0.000000e+00  0.000000e+00  1.000000e+00
   outer loop
     vertex  9.925149e+01 -6.631227e-01  7.000000e+01
     vertex  7.786360e+01 -1.161808e+01  7.000000e+01
     vertex  8.128723e+01 -1.657807e+01  7.000000e+01
   endloop
 endfacet
 facet normal  0.000000e+00  0.000000e+00  1.000000e+00
   outer loop
     vertex  9.925149e+01 -6.631227e-01  7.000000e+01
     vertex  8.128723e+01 -1.657807e+01  7.000000e+01
     vertex  8.579838e+01 -2.057460e+01  7.000000e+01
   endloop
 endfacet
 facet normal  0.000000e+00  0.000000e+00  1.000000e+00
   outer loop
     vertex  9.943194e+01 -8.229839e-01  7.000000e+01
     vertex  9.925149e+01 -6.631227e-01  7.000000e+01
     vertex  8.579838e+01 -2.057460e+01  7.000000e+01
   endloop
 endfacet
 facet normal  0.000000e+00  0.000000e+00  1.000000e+00
   outer loop
     vertex  9.911454e+01 -4.647232e-01  7.000000e+01
     vertex  7.786360e+01 -1.161808e+01  7.000000e+01
     vertex  9.925149e+01 -6.631227e-01  7.000000e+01
   endloop
 endfacet
 facet normal  0.000000e+00  0.000000e+00  1.000000e+00
   outer loop
     vertex  9.964540e+01 -9.350162e-01  7.000000e+01
     vertex  8.579838e+01 -2.057460e+01  7.000000e+01
     vertex  9.113488e+01 -2.337541e+01  7.000000e+01
   endloop
 endfacet
 facet normal  0.000000e+00  0.000000e+00  1.000000e+00
   outer loop
     vertex  9.964540e+01 -9.350162e-01  7.000000e+01
     vertex  9.943194e+01 -8.229839e-01  7.000000e+01
     vertex  8.579838e+01 -2.057460e+01  7.000000e+01
   endloop
 endfacet
 facet normal  0.000000e+00  0.000000e+00  1.000000e+00
   outer loop
     vertex  9.902906e+01 -2.393157e-01  7.000000e+01
     vertex  7.572645e+01 -5.982892e+00  7.000000e+01
     vertex  7.786360e+01 -1.161808e+01  7.000000e+01
   endloop
 endfacet
 facet normal  0.000000e+00  0.000000e+00  1.000000e+00
   outer loop
     vertex  9.902906e+01 -2.393157e-01  7.000000e+01
     vertex  7.786360e+01 -1.161808e+01  7.000000e+01
     vertex  9.911454e+01 -4.647232e-01  7.000000e+01
   endloop
 endfacet
 facet normal  0.000000e+00  0.000000e+00  1.000000e+00
   outer loop
     vertex  9.987946e+01 -9.927089e-01  7.000000e+01
     vertex  9.113488e+01 -2.337541e+01  7.000000e+01
     vertex  9.698658e+01 -2.481772e+01  7.000000e+01
   endloop
 endfacet
 facet normal  0.000000e+00  0.000000e+00  1.000000e+00
   outer loop
     vertex  9.987946e+01 -9.927089e-01  7.000000e+01
     vertex  9.964540e+01 -9.350162e-01  7.000000e+01
     vertex  9.113488e+01 -2.337541e+01  7.000000e+01
   endloop
 endfacet
 facet normal  0.000000e+00  0.000000e+00  1.000000e+00
   outer loop
     vertex  9.900000e+01  1.010643e-15  7.000000e+01
     vertex  7.500000e+01  2.526608e-14  7.000000e+01
     vertex  7.572645e+01 -5.982892e+00  7.000000e+01
   endloop
 endfacet
 facet normal  0.000000e+00  0.000000e+00  1.000000e+00
   outer loop
     vertex  9.900000e+01  1.010643e-15  7.000000e+01
     vertex  7.572645e+01 -5.982892e+00  7.000000e+01
     vertex  9.902906e+01 -2.393157e-01  7.000000e+01
   endloop
 endfacet
 facet normal  0.000000e+00  0.000000e+00  1.000000e+00
   outer loop
     vertex  1.001205e+02 -9.927089e-01  7.000000e+01
     vertex  9.698658e+01 -2.481772e+01  7.000000e+01
     vertex  1.030134e+02 -2.481772e+01  7.000000e+01
   endloop
 endfacet
 facet normal  0.000000e+00  0.000000e+00  1.000000e+00
   outer loop
     vertex  1.001205e+02 -9.927089e-01  7.000000e+01
     vertex  1.030134e+02 -2.481772e+01  7.000000e+01
     vertex  1.088651e+02 -2.337541e+01  7.000000e+01
   endloop
 endfacet
 facet normal  0.000000e+00  0.000000e+00  1.000000e+00
   outer loop
     vertex  1.001205e+02 -9.927089e-01  7.000000e+01
     vertex  9.987946e+01 -9.927089e-01  7.000000e+01
     vertex  9.698658e+01 -2.481772e+01  7.000000e+01
   endloop
 endfacet
 facet normal  0.000000e+00  0.000000e+00  1.000000e+00
   outer loop
     vertex  9.902906e+01  2.393157e-01  7.000000e+01
     vertex  7.786360e+01  1.161808e+01  7.000000e+01
     vertex  7.572645e+01  5.982892e+00  7.000000e+01
   endloop
 endfacet
 facet normal  0.000000e+00  0.000000e+00  1.000000e+00
   outer loop
     vertex  9.902906e+01  2.393157e-01  7.000000e+01
     vertex  7.572645e+01  5.982892e+00  7.000000e+01
     vertex  7.500000e+01  2.526608e-14  7.000000e+01
   endloop
 endfacet
 facet normal  0.000000e+00  0.000000e+00  1.000000e+00
   outer loop
     vertex  9.902906e+01  2.393157e-01  7.000000e+01
     vertex  7.500000e+01  2.526608e-14  7.000000e+01
     vertex  9.900000e+01  1.010643e-15  7.000000e+01
   endloop
 endfacet
 facet normal  0.000000e+00  0.000000e+00  1.000000e+00
   outer loop
     vertex  1.003546e+02 -9.350162e-01  7.000000e+01
     vertex  1.001205e+02 -9.927089e-01  7.000000e+01
     vertex  1.088651e+02 -2.337541e+01  7.000000e+01
   endloop
 endfacet
 facet normal  0.000000e+00  0.000000e+00  1.000000e+00
   outer loop
     vertex  9.911454e+01  4.647232e-01  7.000000e+01
     vertex  7.786360e+01  1.161808e+01  7.000000e+01
     vertex  9.902906e+01  2.393157e-01  7.000000e+01
   endloop
 endfacet
 facet normal  0.000000e+00  0.000000e+00  1.000000e+00
   outer loop
     vertex  1.005681e+02 -8.229839e-01  7.000000e+01
     vertex  1.088651e+02 -2.337541e+01  7.000000e+01
     vertex  1.142016e+02 -2.057460e+01  7.000000e+01
   endloop
 endfacet
 facet normal  0.000000e+00  0.000000e+00  1.000000e+00
   outer loop
     vertex  1.005681e+02 -8.229839e-01  7.000000e+01
     vertex  1.003546e+02 -9.350162e-01  7.000000e+01
     vertex  1.088651e+02 -2.337541e+01  7.000000e+01
   endloop
 endfacet
 facet normal  0.000000e+00  0.000000e+00  1.000000e+00
   outer loop
     vertex  9.925149e+01  6.631227e-01  7.000000e+01
     vertex  7.786360e+01  1.161808e+01  7.000000e+01
     vertex  9.911454e+01  4.647232e-01  7.000000e+01
   endloop
 endfacet
 facet normal  0.000000e+00  0.000000e+00  1.000000e+00
   outer loop
     vertex  9.925149e+01  6.631227e-01  7.000000e+01
     vertex  8.128723e+01  1.657807e+01  7.000000e+01
     vertex  7.786360e+01  1.161808e+01  7.000000e+01
   endloop
 endfacet
 facet normal  0.000000e+00  0.000000e+00  1.000000e+00
   outer loop
     vertex  9.943194e+01  8.229839e-01  7.000000e+01
     vertex  8.128723e+01  1.657807e+01  7.000000e+01
     vertex  9.925149e+01  6.631227e-01  7.000000e+01
   endloop
 endfacet
 facet normal  0.000000e+00  0.000000e+00  1.000000e+00
   outer loop
     vertex  1.187128e+02 -1.657807e+01  7.000000e+01
     vertex  1.005681e+02 -8.229839e-01  7.000000e+01
     vertex  1.142016e+02 -2.057460e+01  7.000000e+01
   endloop
 endfacet
 facet normal  0.000000e+00  0.000000e+00  1.000000e+00
   outer loop
     vertex  1.187128e+02 -1.657807e+01  7.000000e+01
     vertex  1.007485e+02 -6.631227e-01  7.000000e+01
     vertex  1.005681e+02 -8.229839e-01  7.000000e+01
   endloop
 endfacet
 facet normal  0.000000e+00  0.000000e+00  1.000000e+00
   outer loop
     vertex  1.187128e+02 -1.657807e+01  7.000000e+01
     vertex  1.008855e+02 -4.647232e-01  7.000000e+01
     vertex  1.007485e+02 -6.631227e-01  7.000000e+01
   endloop
 endfacet
 facet normal  0.000000e+00  0.000000e+00  1.000000e+00
   outer loop
     vertex  8.579838e+01  2.057460e+01  7.000000e+01
     vertex  8.128723e+01  1.657807e+01  7.000000e+01
     vertex  9.943194e+01  8.229839e-01  7.000000e+01
   endloop
 endfacet
 facet normal  0.000000e+00  0.000000e+00  1.000000e+00
   outer loop
     vertex  1.221364e+02 -1.161808e+01  7.000000e+01
     vertex  1.008855e+02 -4.647232e-01  7.000000e+01
     vertex  1.187128e+02 -1.657807e+01  7.000000e+01
   endloop
 endfacet
 facet normal  0.000000e+00  0.000000e+00  1.000000e+00
   outer loop
     vertex  9.113488e+01  2.337541e+01  7.000000e+01
     vertex  8.579838e+01  2.057460e+01  7.000000e+01
     vertex  9.943194e+01  8.229839e-01  7.000000e+01
   endloop
 endfacet
 facet normal  0.000000e+00  0.000000e+00  1.000000e+00
   outer loop
     vertex  9.113488e+01  2.337541e+01  7.000000e+01
     vertex  9.964540e+01  9.350162e-01  7.000000e+01
     vertex  9.987946e+01  9.927089e-01  7.000000e+01
   endloop
 endfacet
 facet normal  0.000000e+00  0.000000e+00  1.000000e+00
   outer loop
     vertex  9.113488e+01  2.337541e+01  7.000000e+01
     vertex  9.943194e+01  8.229839e-01  7.000000e+01
     vertex  9.964540e+01  9.350162e-01  7.000000e+01
   endloop
 endfacet
 facet normal  0.000000e+00  0.000000e+00  1.000000e+00
   outer loop
     vertex  1.242735e+02 -5.982892e+00  7.000000e+01
     vertex  1.008855e+02 -4.647232e-01  7.000000e+01
     vertex  1.221364e+02 -1.161808e+01  7.000000e+01
   endloop
 endfacet
 facet normal  0.000000e+00  0.000000e+00  1.000000e+00
   outer loop
     vertex  1.242735e+02 -5.982892e+00  7.000000e+01
     vertex  1.009709e+02 -2.393157e-01  7.000000e+01
     vertex  1.008855e+02 -4.647232e-01  7.000000e+01
   endloop
 endfacet
 facet normal  0.000000e+00  0.000000e+00  1.000000e+00
   outer loop
     vertex  1.242735e+02 -5.982892e+00  7.000000e+01
     vertex  1.010000e+02 -2.449294e-16  7.000000e+01
     vertex  1.009709e+02 -2.393157e-01  7.000000e+01
   endloop
 endfacet
 facet normal  0.000000e+00  0.000000e+00  1.000000e+00
   outer loop
     vertex  9.698658e+01  2.481772e+01  7.000000e+01
     vertex  9.987946e+01  9.927089e-01  7.000000e+01
     vertex  1.001205e+02  9.927089e-01  7.000000e+01
   endloop
 endfacet
 facet normal  0.000000e+00  0.000000e+00  1.000000e+00
   outer loop
     vertex  9.698658e+01  2.481772e+01  7.000000e+01
     vertex  9.113488e+01  2.337541e+01  7.000000e+01
     vertex  9.987946e+01  9.927089e-01  7.000000e+01
   endloop
 endfacet
 facet normal  0.000000e+00  0.000000e+00  1.000000e+00
   outer loop
     vertex  1.250000e+02 -6.123234e-15  7.000000e+01
     vertex  1.010000e+02 -2.449294e-16  7.000000e+01
     vertex  1.242735e+02 -5.982892e+00  7.000000e+01
   endloop
 endfacet
 facet normal  0.000000e+00  0.000000e+00  1.000000e+00
   outer loop
     vertex  1.030134e+02  2.481772e+01  7.000000e+01
     vertex  1.001205e+02  9.927089e-01  7.000000e+01
     vertex  1.003546e+02  9.350162e-01  7.000000e+01
   endloop
 endfacet
 facet normal  0.000000e+00  0.000000e+00  1.000000e+00
   outer loop
     vertex  1.030134e+02  2.481772e+01  7.000000e+01
     vertex  9.698658e+01  2.481772e+01  7.000000e+01
     vertex  1.001205e+02  9.927089e-01  7.000000e+01
   endloop
 endfacet
 facet normal  0.000000e+00  0.000000e+00  1.000000e+00
   outer loop
     vertex  1.242735e+02  5.982892e+00  7.000000e+01
     vertex  1.010000e+02 -2.449294e-16  7.000000e+01
     vertex  1.250000e+02 -6.123234e-15  7.000000e+01
   endloop
 endfacet
 facet normal  0.000000e+00  0.000000e+00  1.000000e+00
   outer loop
     vertex  1.242735e+02  5.982892e+00  7.000000e+01
     vertex  1.009709e+02  2.393157e-01  7.000000e+01
     vertex  1.010000e+02 -2.449294e-16  7.000000e+01
   endloop
 endfacet
 facet normal  0.000000e+00  0.000000e+00  1.000000e+00
   outer loop
     vertex  1.088651e+02  2.337541e+01  7.000000e+01
     vertex  1.030134e+02  2.481772e+01  7.000000e+01
     vertex  1.003546e+02  9.350162e-01  7.000000e+01
   endloop
 endfacet
 facet normal  0.000000e+00  0.000000e+00  1.000000e+00
   outer loop
     vertex  1.221364e+02  1.161808e+01  7.000000e+01
     vertex  1.009709e+02  2.393157e-01  7.000000e+01
     vertex  1.242735e+02  5.982892e+00  7.000000e+01
   endloop
 endfacet
 facet normal  0.000000e+00  0.000000e+00  1.000000e+00
   outer loop
     vertex  1.221364e+02  1.161808e+01  7.000000e+01
     vertex  1.008855e+02  4.647232e-01  7.000000e+01
     vertex  1.009709e+02  2.393157e-01  7.000000e+01
   endloop
 endfacet
 facet normal  0.000000e+00  0.000000e+00  1.000000e+00
   outer loop
     vertex  1.221364e+02  1.161808e+01  7.000000e+01
     vertex  1.007485e+02  6.631227e-01  7.000000e+01
     vertex  1.008855e+02  4.647232e-01  7.000000e+01
   endloop
 endfacet
 facet normal  0.000000e+00  0.000000e+00  1.000000e+00
   outer loop
     vertex  1.142016e+02  2.057460e+01  7.000000e+01
     vertex  1.003546e+02  9.350162e-01  7.000000e+01
     vertex  1.005681e+02  8.229839e-01  7.000000e+01
   endloop
 endfacet
 facet normal  0.000000e+00  0.000000e+00  1.000000e+00
   outer loop
     vertex  1.142016e+02  2.057460e+01  7.000000e+01
     vertex  1.088651e+02  2.337541e+01  7.000000e+01
     vertex  1.003546e+02  9.350162e-01  7.000000e+01
   endloop
 endfacet
 facet normal  0.000000e+00  0.000000e+00  1.000000e+00
   outer loop
     vertex  1.187128e+02  1.657807e+01  7.000000e+01
     vertex  1.005681e+02  8.229839e-01  7.000000e+01
     vertex  1.007485e+02  6.631227e-01  7.000000e+01
   endloop
 endfacet
 facet normal  0.000000e+00  0.000000e+00  1.000000e+00
   outer loop
     vertex  1.187128e+02  1.657807e+01  7.000000e+01
     vertex  1.142016e+02  2.057460e+01  7.000000e+01
     vertex  1.005681e+02  8.229839e-01  7.000000e+01
   endloop
 endfacet
 facet normal  0.000000e+00  0.000000e+00  1.000000e+00
   outer loop
     vertex  1.187128e+02  1.657807e+01  7.000000e+01
     vertex  1.007485e+02  6.631227e-01  7.000000e+01
     vertex  1.221364e+02  1.161808e+01  7.000000e+01
   endloop
 endfacet
 facet normal -9.927089e-01 -1.205367e-01  0.000000e+00
   outer loop
     vertex  1.009709e+02  2.393157e-01  7.000000e+01
     vertex  1.010000e+02 -2.449294e-16  6.000000e+01
     vertex  1.010000e+02 -2.449294e-16  7.000000e+01
   endloop
 endfacet
 facet normal -9.927089e-01 -1.205367e-01 -0.000000e+00
   outer loop
     vertex  1.009709e+02  2.393157e-01  7.000000e+01
     vertex  1.009709e+02  2.393157e-01  6.000000e+01
     vertex  1.010000e+02 -2.449294e-16  6.000000e+01
   endloop
 endfacet
 facet normal -9.350162e-01 -3.546049e-01 -0.000000e+00
   outer loop
     vertex  1.008855e+02  4.647232e-01  7.000000e+01
     vertex  1.008855e+02  4.647232e-01  6.000000e+01
     vertex  1.009709e+02  2.393157e-01  6.000000e+01
   endloop
 endfacet
 facet normal -8.229839e-01 -5.680647e-01 -0.000000e+00
   outer loop
     vertex  1.008855e+02  4.647232e-01  7.000000e+01
     vertex  1.007485e+02  6.631227e-01  6.000000e+01
     vertex  1.008855e+02  4.647232e-01  6.000000e+01
   endloop
 endfacet
 facet normal -9.350162e-01 -3.546049e-01  0.000000e+00
   outer loop
     vertex  1.008855e+02  4.647232e-01  7.000000e+01
     vertex  1.009709e+02  2.393157e-01  6.000000e+01
     vertex  1.009709e+02  2.393157e-01  7.000000e+01
   endloop
 endfacet
 facet normal -8.229839e-01 -5.680647e-01 -0.000000e+00
   outer loop
     vertex  1.007485e+02  6.631227e-01  7.000000e+01
     vertex  1.007485e+02  6.631227e-01  6.000000e+01
     vertex  1.008855e+02  4.647232e-01  7.000000e+01
   endloop
 endfacet
 facet normal -6.631227e-01 -7.485107e-01 -0.000000e+00
   outer loop
     vertex  1.005681e+02  8.229839e-01  7.000000e+01
     vertex  1.005681e+02  8.229839e-01  6.000000e+01
     vertex  1.007485e+02  6.631227e-01  6.000000e+01
   endloop
 endfacet
 facet normal -6.631227e-01 -7.485107e-01  0.000000e+00
   outer loop
     vertex  1.005681e+02  8.229839e-01  7.000000e+01
     vertex  1.007485e+02  6.631227e-01  6.000000e+01
     vertex  1.007485e+02  6.631227e-01  7.000000e+01
   endloop
 endfacet
 facet normal -4.647232e-01 -8.854560e-01 -0.000000e+00
   outer loop
     vertex  1.003546e+02  9.350162e-01  7.000000e+01
     vertex  1.003546e+02  9.350162e-01  6.000000e+01
     vertex  1.005681e+02  8.229839e-01  6.000000e+01
   endloop
 endfacet
 facet normal -2.393157e-01 -9.709418e-01 -0.000000e+00
   outer loop
     vertex  1.003546e+02  9.350162e-01  7.000000e+01
     vertex  1.001205e+02  9.927089e-01  6.000000e+01
     vertex  1.003546e+02  9.350162e-01  6.000000e+01
   endloop
 endfacet
 facet normal -4.647232e-01 -8.854560e-01  0.000000e+00
   outer loop
     vertex  1.003546e+02  9.350162e-01  7.000000e+01
     vertex  1.005681e+02  8.229839e-01  6.000000e+01
     vertex  1.005681e+02  8.229839e-01  7.000000e+01
   endloop
 endfacet
 facet normal -2.393157e-01 -9.709418e-01 -0.000000e+00
   outer loop
     vertex  1.001205e+02  9.927089e-01  7.000000e+01
     vertex  1.001205e+02  9.927089e-01  6.000000e+01
     vertex  1.003546e+02  9.350162e-01  7.000000e+01
   endloop
 endfacet
 facet normal  0.000000e+00 -1.000000e+00  0.000000e+00
   outer loop
     vertex  9.987946e+01  9.927089e-01  7.000000e+01
     vertex  9.987946e+01  9.927089e-01  6.000000e+01
     vertex  1.001205e+02  9.927089e-01  6.000000e+01
   endloop
 endfacet
 facet normal  0.000000e+00 -1.000000e+00  0.000000e+00
   outer loop
     vertex  9.987946e+01  9.927089e-01  7.000000e+01
     vertex  1.001205e+02  9.927089e-01  6.000000e+01
     vertex  1.001205e+02  9.927089e-01  7.000000e+01
   endloop
 endfacet
 facet normal  2.393157e-01 -9.709418e-01  0.000000e+00
   outer loop
     vertex  9.964540e+01  9.350162e-01  7.000000e+01
     vertex  9.964540e+01  9.350162e-01  6.000000e+01
     vertex  9.987946e+01  9.927089e-01  6.000000e+01
   endloop
 endfacet
 facet normal  2.393157e-01 -9.709418e-01  0.000000e+00
   outer loop
     vertex  9.964540e+01  9.350162e-01  7.000000e+01
     vertex  9.987946e+01  9.927089e-01  6.000000e+01
     vertex  9.987946e+01  9.927089e-01  7.000000e+01
   endloop
 endfacet
 facet normal  4.647232e-01 -8.854560e-01  0.000000e+00
   outer loop
     vertex  9.943194e+01  8.229839e-01  7.000000e+01
     vertex  9.943194e+01  8.229839e-01  6.000000e+01
     vertex  9.964540e+01  9.350162e-01  6.000000e+01
   endloop
 endfacet
 facet normal  4.647232e-01 -8.854560e-01  0.000000e+00
   outer loop
     vertex  9.943194e+01  8.229839e-01  7.000000e+01
     vertex  9.964540e+01  9.350162e-01  6.000000e+01
     vertex  9.964540e+01  9.350162e-01  7.000000e+01
   endloop
 endfacet
 facet normal  6.631227e-01 -7.485107e-01  0.000000e+00
   outer loop
     vertex  9.925149e+01  6.631227e-01  7.000000e+01
     vertex  9.925149e+01  6.631227e-01  6.000000e+01
     vertex  9.943194e+01  8.229839e-01  6.000000e+01
   endloop
 endfacet
 facet normal  8.229839e-01 -5.680647e-01  0.000000e+00
   outer loop
     vertex  9.925149e+01  6.631227e-01  7.000000e+01
     vertex  9.911454e+01  4.647232e-01  6.000000e+01
     vertex  9.925149e+01  6.631227e-01  6.000000e+01
   endloop
 endfacet
 facet normal  6.631227e-01 -7.485107e-01  0.000000e+00
   outer loop
     vertex  9.925149e+01  6.631227e-01  7.000000e+01
     vertex  9.943194e+01  8.229839e-01  6.000000e+01
     vertex  9.943194e+01  8.229839e-01  7.000000e+01
   endloop
 endfacet
 facet normal  8.229839e-01 -5.680647e-01  0.000000e+00
   outer loop
     vertex  9.911454e+01  4.647232e-01  7.000000e+01
     vertex  9.911454e+01  4.647232e-01  6.000000e+01
     vertex  9.925149e+01  6.631227e-01  7.000000e+01
   endloop
 endfacet
 facet normal  9.350162e-01 -3.546049e-01  0.000000e+00
   outer loop
     vertex  9.911454e+01  4.647232e-01  7.000000e+01
     vertex  9.902906e+01  2.393157e-01  6.000000e+01
     vertex  9.911454e+01  4.647232e-01  6.000000e+01
   endloop
 endfacet
 facet normal  9.350162e-01 -3.546049e-01  0.000000e+00
   outer loop
     vertex  9.902906e+01  2.393157e-01  7.000000e+01
     vertex  9.902906e+01  2.393157e-01  6.000000e+01
     vertex  9.911454e+01  4.647232e-01  7.000000e+01
   endloop
 endfacet
 facet normal  9.927089e-01 -1.205367e-01  0.000000e+00
   outer loop
     vertex  9.900000e+01  1.010643e-15  7.000000e+01
     vertex  9.902906e+01  2.393157e-01  6.000000e+01
     vertex  9.902906e+01  2.393157e-01  7.000000e+01
   endloop
 endfacet
 facet normal  9.927089e-01 -1.205367e-01  0.000000e+00
   outer loop
     vertex  9.900000e+01  1.010643e-15  7.000000e+01
     vertex  9.900000e+01  1.010643e-15  6.000000e+01
     vertex  9.902906e+01  2.393157e-01  6.000000e+01
   endloop
 endfacet
 facet normal  9.927089e-01  1.205367e-01  0.000000e+00
   outer loop
     vertex  9.900000e+01  1.010643e-15  7.000000e+01
     vertex  9.902906e+01 -2.393157e-01  6.000000e+01
     vertex  9.900000e+01  1.010643e-15  6.000000e+01
   endloop
 endfacet
 facet normal  9.927089e-01  1.205367e-01  0.000000e+00
   outer loop
     vertex  9.902906e+01 -2.393157e-01  7.000000e+01
     vertex  9.902906e+01 -2.393157e-01  6.000000e+01
     vertex  9.900000e+01  1.010643e-15  7.000000e+01
   endloop
 endfacet
 facet normal  9.350162e-01  3.546049e-01  0.000000e+00
   outer loop
     vertex  9.902906e+01 -2.393157e-01  7.000000e+01
     vertex  9.911454e+01 -4.647232e-01  6.000000e+01
     vertex  9.902906e+01 -2.393157e-01  6.000000e+01
   endloop
 endfacet
 facet normal  9.350162e-01  3.546049e-01  0.000000e+00
   outer loop
     vertex  9.911454e+01 -4.647232e-01  7.000000e+01
     vertex  9.911454e+01 -4.647232e-01  6.000000e+01
     vertex  9.902906e+01 -2.393157e-01  7.000000e+01
   endloop
 endfacet
 facet normal  8.229839e-01  5.680647e-01  0.000000e+00
   outer loop
     vertex  9.925149e+01 -6.631227e-01  7.000000e+01
     vertex  9.911454e+01 -4.647232e-01  6.000000e+01
     vertex  9.911454e+01 -4.647232e-01  7.000000e+01
   endloop
 endfacet
 facet normal  8.229839e-01  5.680647e-01  0.000000e+00
   outer loop
     vertex  9.925149e+01 -6.631227e-01  7.000000e+01
     vertex  9.925149e+01 -6.631227e-01  6.000000e+01
     vertex  9.911454e+01 -4.647232e-01  6.000000e+01
   endloop
 endfacet
 facet normal  6.631227e-01  7.485107e-01  0.000000e+00
   outer loop
     vertex  9.943194e+01 -8.229839e-01  7.000000e+01
     vertex  9.925149e+01 -6.631227e-01  6.000000e+01
     vertex  9.925149e+01 -6.631227e-01  7.000000e+01
   endloop
 endfacet
 facet normal  6.631227e-01  7.485107e-01  0.000000e+00
   outer loop
     vertex  9.943194e+01 -8.229839e-01  7.000000e+01
     vertex  9.943194e+01 -8.229839e-01  6.000000e+01
     vertex  9.925149e+01 -6.631227e-01  6.000000e+01
   endloop
 endfacet
 facet normal  4.647232e-01  8.854560e-01  0.000000e+00
   outer loop
     vertex  9.964540e+01 -9.350162e-01  7.000000e+01
     vertex  9.943194e+01 -8.229839e-01  6.000000e+01
     vertex  9.943194e+01 -8.229839e-01  7.000000e+01
   endloop
 endfacet
 facet normal  4.647232e-01  8.854560e-01  0.000000e+00
   outer loop
     vertex  9.964540e+01 -9.350162e-01  7.000000e+01
     vertex  9.964540e+01 -9.350162e-01  6.000000e+01
     vertex  9.943194e+01 -8.229839e-01  6.000000e+01
   endloop
 endfacet
 facet normal  2.393157e-01  9.709418e-01  0.000000e+00
   outer loop
     vertex  9.987946e+01 -9.927089e-01  7.000000e+01
     vertex  9.964540e+01 -9.350162e-01  6.000000e+01
     vertex  9.964540e+01 -9.350162e-01  7.000000e+01
   endloop
 endfacet
 facet normal  2.393157e-01  9.709418e-01  0.000000e+00
   outer loop
     vertex  9.987946e+01 -9.927089e-01  7.000000e+01
     vertex  9.987946e+01 -9.927089e-01  6.000000e+01
     vertex  9.964540e+01 -9.350162e-01  6.000000e+01
   endloop
 endfacet
 facet normal  2.302666e-15  1.000000e+00  0.000000e+00
   outer loop
     vertex  9.987946e+01 -9.927089e-01  7.000000e+01
     vertex  1.001205e+02 -9.927089e-01  6.000000e+01
     vertex  9.987946e+01 -9.927089e-01  6.000000e+01
   endloop
 endfacet
 facet normal  2.302666e-15  1.000000e+00  0.000000e+00
   outer loop
     vertex  1.001205e+02 -9.927089e-01  7.000000e+01
     vertex  1.001205e+02 -9.927089e-01  6.000000e+01
     vertex  9.987946e+01 -9.927089e-01  7.000000e+01
   endloop
 endfacet
 facet normal -2.393157e-01  9.709418e-01  0.000000e+00
   outer loop
     vertex  1.003546e+02 -9.350162e-01  7.000000e+01
     vertex  1.001205e+02 -9.927089e-01  6.000000e+01
     vertex  1.001205e+02 -9.927089e-01  7.000000e+01
   endloop
 endfacet
 facet normal -2.393157e-01  9.709418e-01  0.000000e+00
   outer loop
     vertex  1.003546e+02 -9.350162e-01  7.000000e+01
     vertex  1.003546e+02 -9.350162e-01  6.000000e+01
     vertex  1.001205e+02 -9.927089e-01  6.000000e+01
   endloop
 endfacet
 facet normal -4.647232e-01  8.854560e-01  0.000000e+00
   outer loop
     vertex  1.005681e+02 -8.229839e-01  7.000000e+01
     vertex  1.003546e+02 -9.350162e-01  6.000000e+01
     vertex  1.003546e+02 -9.350162e-01  7.000000e+01
   endloop
 endfacet
 facet normal -4.647232e-01  8.854560e-01  0.000000e+00
   outer loop
     vertex  1.005681e+02 -8.229839e-01  7.000000e+01
     vertex  1.005681e+02 -8.229839e-01  6.000000e+01
     vertex  1.003546e+02 -9.350162e-01  6.000000e+01
   endloop
 endfacet
 facet normal -6.631227e-01  7.485107e-01  0.000000e+00
   outer loop
     vertex  1.005681e+02 -8.229839e-01  7.000000e+01
     vertex  1.007485e+02 -6.631227e-01  6.000000e+01
     vertex  1.005681e+02 -8.229839e-01  6.000000e+01
   endloop
 endfacet
 facet normal -6.631227e-01  7.485107e-01  0.000000e+00
   outer loop
     vertex  1.007485e+02 -6.631227e-01  7.000000e+01
     vertex  1.007485e+02 -6.631227e-01  6.000000e+01
     vertex  1.005681e+02 -8.229839e-01  7.000000e+01
   endloop
 endfacet
 facet normal -8.229839e-01  5.680647e-01  0.000000e+00
   outer loop
     vertex  1.007485e+02 -6.631227e-01  7.000000e+01
     vertex  1.008855e+02 -4.647232e-01  6.000000e+01
     vertex  1.007485e+02 -6.631227e-01  6.000000e+01
   endloop
 endfacet
 facet normal -8.229839e-01  5.680647e-01  0.000000e+00
   outer loop
     vertex  1.008855e+02 -4.647232e-01  7.000000e+01
     vertex  1.008855e+02 -4.647232e-01  6.000000e+01
     vertex  1.007485e+02 -6.631227e-01  7.000000e+01
   endloop
 endfacet
 facet normal -9.350162e-01  3.546049e-01  0.000000e+00
   outer loop
     vertex  1.009709e+02 -2.393157e-01  7.000000e+01
     vertex  1.009709e+02 -2.393157e-01  6.000000e+01
     vertex  1.008855e+02 -4.647232e-01  6.000000e+01
   endloop
 endfacet
 facet normal -9.927089e-01  1.205367e-01  0.000000e+00
   outer loop
     vertex  1.009709e+02 -2.393157e-01  7.000000e+01
     vertex  1.010000e+02 -2.449294e-16  6.000000e+01
     vertex  1.009709e+02 -2.393157e-01  6.000000e+01
   endloop
 endfacet
 facet normal -9.350162e-01  3.546049e-01  0.000000e+00
   outer loop
     vertex  1.009709e+02 -2.393157e-01  7.000000e+01
     vertex  1.008855e+02 -4.647232e-01  6.000000e+01
     vertex  1.008855e+02 -4.647232e-01  7.000000e+01
   endloop
 endfacet
 facet normal -9.927089e-01  1.205367e-01  0.000000e+00
   outer loop
     vertex  1.010000e+02 -2.449294e-16  7.000000e+01
     vertex  1.010000e+02 -2.449294e-16  6.000000e+01
     vertex  1.009709e+02 -2.393157e-01  7.000000e+01
   endloop
 endfacet
endsolid
