solid 
 facet normal  5.797961e-01  7.039999e-02  8.117145e-01
   outer loop
     vertex  1.194188e+02  4.786313e+00  6.500000e+01
     vertex  1.200000e+02 -4.898587e-15  6.500000e+01
     vertex  1.270000e+02 -6.613093e-15  6.000000e+01
   endloop
 endfacet
 facet normal  5.797961e-01  7.039999e-02  8.117145e-01
   outer loop
     vertex  1.194188e+02  4.786313e+00  6.500000e+01
     vertex  1.270000e+02 -6.613093e-15  6.000000e+01
     vertex  1.262154e+02  6.461523e+00  6.000000e+01
   endloop
 endfacet
 facet normal  5.461004e-01  2.071086e-01  8.117145e-01
   outer loop
     vertex  1.177091e+02  9.294463e+00  6.500000e+01
     vertex  1.262154e+02  6.461523e+00  6.000000e+01
     vertex  1.239073e+02  1.254753e+01  6.000000e+01
   endloop
 endfacet
 facet normal  4.806674e-01  3.317808e-01  8.117145e-01
   outer loop
     vertex  1.177091e+02  9.294463e+00  6.500000e+01
     vertex  1.239073e+02  1.254753e+01  6.000000e+01
     vertex  1.202098e+02  1.790431e+01  6.000000e+01
   endloop
 endfacet
 facet normal  5.461004e-01  2.071086e-01  8.117145e-01
   outer loop
     vertex  1.177091e+02  9.294463e+00  6.500000e+01
     vertex  1.194188e+02  4.786313e+00  6.500000e+01
     vertex  1.262154e+02  6.461523e+00  6.000000e+01
   endloop
 endfacet
 facet normal  4.806674e-01  3.317808e-01  8.117145e-01
   outer loop
     vertex  1.149702e+02  1.326245e+01  6.500000e+01
     vertex  1.177091e+02  9.294463e+00  6.500000e+01
     vertex  1.202098e+02  1.790431e+01  6.000000e+01
   endloop
 endfacet
 facet normal  3.872997e-01  4.371710e-01  8.117145e-01
   outer loop
     vertex  1.113613e+02  1.645968e+01  6.500000e+01
     vertex  1.202098e+02  1.790431e+01  6.000000e+01
     vertex  1.153377e+02  2.222056e+01  6.000000e+01
   endloop
 endfacet
 facet normal  3.872997e-01  4.371710e-01  8.117145e-01
   outer loop
     vertex  1.113613e+02  1.645968e+01  6.500000e+01
     vertex  1.149702e+02  1.326245e+01  6.500000e+01
     vertex  1.202098e+02  1.790431e+01  6.000000e+01
   endloop
 endfacet
 facet normal  2.714236e-01  5.171545e-01  8.117145e-01
   outer loop
     vertex  1.070921e+02  1.870032e+01  6.500000e+01
     vertex  1.153377e+02  2.222056e+01  6.000000e+01
     vertex  1.095743e+02  2.524544e+01  6.000000e+01
   endloop
 endfacet
 facet normal  1.397734e-01  5.670829e-01  8.117145e-01
   outer loop
     vertex  1.070921e+02  1.870032e+01  6.500000e+01
     vertex  1.095743e+02  2.524544e+01  6.000000e+01
     vertex  1.032545e+02  2.680314e+01  6.000000e+01
   endloop
 endfacet
 facet normal  2.714236e-01  5.171545e-01  8.117145e-01
   outer loop
     vertex  1.070921e+02  1.870032e+01  6.500000e+01
     vertex  1.113613e+02  1.645968e+01  6.500000e+01
     vertex  1.153377e+02  2.222056e+01  6.000000e+01
   endloop
 endfacet
 facet normal  1.397734e-01  5.670829e-01  8.117145e-01
   outer loop
     vertex  1.024107e+02  1.985418e+01  6.500000e+01
     vertex  1.070921e+02  1.870032e+01  6.500000e+01
     vertex  1.032545e+02  2.680314e+01  6.000000e+01
   endloop
 endfacet
 facet normal  0.000000e+00  5.840545e-01  8.117145e-01
   outer loop
     vertex  9.758927e+01  1.985418e+01  6.500000e+01
     vertex  1.032545e+02  2.680314e+01  6.000000e+01
     vertex  9.674551e+01  2.680314e+01  6.000000e+01
   endloop
 endfacet
 facet normal -0.000000e+00  5.840545e-01  8.117145e-01
   outer loop
     vertex  9.758927e+01  1.985418e+01  6.500000e+01
     vertex  1.024107e+02  1.985418e+01  6.500000e+01
     vertex  1.032545e+02  2.680314e+01  6.000000e+01
   endloop
 endfacet
 facet normal -1.397734e-01  5.670829e-01  8.117145e-01
   outer loop
     vertex  9.290790e+01  1.870032e+01  6.500000e+01
     vertex  9.674551e+01  2.680314e+01  6.000000e+01
     vertex  9.042567e+01  2.524544e+01  6.000000e+01
   endloop
 endfacet
 facet normal -1.397734e-01  5.670829e-01  8.117145e-01
   outer loop
     vertex  9.290790e+01  1.870032e+01  6.500000e+01
     vertex  9.758927e+01  1.985418e+01  6.500000e+01
     vertex  9.674551e+01  2.680314e+01  6.000000e+01
   endloop
 endfacet
 facet normal -2.714236e-01  5.171545e-01  8.117145e-01
   outer loop
     vertex  8.863871e+01  1.645968e+01  6.500000e+01
     vertex  9.042567e+01  2.524544e+01  6.000000e+01
     vertex  8.466225e+01  2.222056e+01  6.000000e+01
   endloop
 endfacet
 facet normal -2.714236e-01  5.171545e-01  8.117145e-01
   outer loop
     vertex  8.863871e+01  1.645968e+01  6.500000e+01
     vertex  9.290790e+01  1.870032e+01  6.500000e+01
     vertex  9.042567e+01  2.524544e+01  6.000000e+01
   endloop
 endfacet
 facet normal -3.872997e-01  4.371710e-01  8.117145e-01
   outer loop
     vertex  8.502979e+01  1.326245e+01  6.500000e+01
     vertex  8.466225e+01  2.222056e+01  6.000000e+01
     vertex  7.979021e+01  1.790431e+01  6.000000e+01
   endloop
 endfacet
 facet normal -4.806674e-01  3.317808e-01  8.117145e-01
   outer loop
     vertex  8.502979e+01  1.326245e+01  6.500000e+01
     vertex  7.979021e+01  1.790431e+01  6.000000e+01
     vertex  7.609269e+01  1.254753e+01  6.000000e+01
   endloop
 endfacet
 facet normal -3.872997e-01  4.371710e-01  8.117145e-01
   outer loop
     vertex  8.502979e+01  1.326245e+01  6.500000e+01
     vertex  8.863871e+01  1.645968e+01  6.500000e+01
     vertex  8.466225e+01  2.222056e+01  6.000000e+01
   endloop
 endfacet
 facet normal -4.806674e-01  3.317808e-01  8.117145e-01
   outer loop
     vertex  8.229088e+01  9.294463e+00  6.500000e+01
     vertex  8.502979e+01  1.326245e+01  6.500000e+01
     vertex  7.609269e+01  1.254753e+01  6.000000e+01
   endloop
 endfacet
 facet normal -5.461004e-01  2.071086e-01  8.117145e-01
   outer loop
     vertex  8.058116e+01  4.786313e+00  6.500000e+01
     vertex  8.229088e+01  9.294463e+00  6.500000e+01
     vertex  7.609269e+01  1.254753e+01  6.000000e+01
   endloop
 endfacet
 facet normal -5.461004e-01  2.071086e-01  8.117145e-01
   outer loop
     vertex  8.058116e+01  4.786313e+00  6.500000e+01
     vertex  7.609269e+01  1.254753e+01  6.000000e+01
     vertex  7.378457e+01  6.461523e+00  6.000000e+01
   endloop
 endfacet
 facet normal -5.797961e-01  7.039999e-02  8.117145e-01
   outer loop
     vertex  8.000000e+01  2.021286e-14  6.500000e+01
     vertex  8.058116e+01  4.786313e+00  6.500000e+01
     vertex  7.378457e+01  6.461523e+00  6.000000e+01
   endloop
 endfacet
 facet normal -5.797961e-01  7.039999e-02  8.117145e-01
   outer loop
     vertex  8.000000e+01  2.021286e-14  6.500000e+01
     vertex  7.378457e+01  6.461523e+00  6.000000e+01
     vertex  7.300000e+01  2.728736e-14  6.000000e+01
   endloop
 endfacet
 facet normal -5.797961e-01 -7.039999e-02  8.117145e-01
   outer loop
     vertex  8.058116e+01 -4.786313e+00  6.500000e+01
     vertex  8.000000e+01  2.021286e-14  6.500000e+01
     vertex  7.300000e+01  2.728736e-14  6.000000e+01
   endloop
 endfacet
 facet normal -5.797961e-01 -7.039999e-02  8.117145e-01
   outer loop
     vertex  8.058116e+01 -4.786313e+00  6.500000e+01
     vertex  7.300000e+01  2.728736e-14  6.000000e+01
     vertex  7.378457e+01 -6.461523e+00  6.000000e+01
   endloop
 endfacet
 facet normal -5.461004e-01 -2.071086e-01  8.117145e-01
   outer loop
     vertex  8.229088e+01 -9.294463e+00  6.500000e+01
     vertex  8.058116e+01 -4.786313e+00  6.500000e+01
     vertex  7.378457e+01 -6.461523e+00  6.000000e+01
   endloop
 endfacet
 facet normal -5.461004e-01 -2.071086e-01  8.117145e-01
   outer loop
     vertex  8.229088e+01 -9.294463e+00  6.500000e+01
     vertex  7.378457e+01 -6.461523e+00  6.000000e+01
     vertex  7.609269e+01 -1.254753e+01  6.000000e+01
   endloop
 endfacet
 facet normal -4.806674e-01 -3.317808e-01  8.117145e-01
   outer loop
     vertex  8.502979e+01 -1.326245e+01  6.500000e+01
     vertex  8.229088e+01 -9.294463e+00  6.500000e+01
     vertex  7.609269e+01 -1.254753e+01  6.000000e+01
   endloop
 endfacet
 facet normal -4.806674e-01 -3.317808e-01  8.117145e-01
   outer loop
     vertex  8.502979e+01 -1.326245e+01  6.500000e+01
     vertex  7.609269e+01 -1.254753e+01  6.000000e+01
     vertex  7.979021e+01 -1.790431e+01  6.000000e+01
   endloop
 endfacet
 facet normal -3.872997e-01 -4.371710e-01  8.117145e-01
   outer loop
     vertex  8.863871e+01 -1.645968e+01  6.500000e+01
     vertex  8.502979e+01 -1.326245e+01  6.500000e+01
     vertex  7.979021e+01 -1.790431e+01  6.000000e+01
   endloop
 endfacet
 facet normal -3.872997e-01 -4.371710e-01  8.117145e-01
   outer loop
     vertex  8.863871e+01 -1.645968e+01  6.500000e+01
     vertex  7.979021e+01 -1.790431e+01  6.000000e+01
     vertex  8.466225e+01 -2.222056e+01  6.000000e+01
   endloop
 endfacet
 facet normal -2.714236e-01 -5.171545e-01  8.117145e-01
   outer loop
     vertex  9.290790e+01 -1.870032e+01  6.500000e+01
     vertex  8.863871e+01 -1.645968e+01  6.500000e+01
     vertex  8.466225e+01 -2.222056e+01  6.000000e+01
   endloop
 endfacet
 facet normal -2.714236e-01 -5.171545e-01  8.117145e-01
   outer loop
     vertex  9.290790e+01 -1.870032e+01  6.500000e+01
     vertex  8.466225e+01 -2.222056e+01  6.000000e+01
     vertex  9.042567e+01 -2.524544e+01  6.000000e+01
   endloop
 endfacet
 facet normal -1.397734e-01 -5.670829e-01  8.117145e-01
   outer loop
     vertex  9.758927e+01 -1.985418e+01  6.500000e+01
     vertex  9.290790e+01 -1.870032e+01  6.500000e+01
     vertex  9.042567e+01 -2.524544e+01  6.000000e+01
   endloop
 endfacet
 facet normal -1.397734e-01 -5.670829e-01  8.117145e-01
   outer loop
     vertex  9.758927e+01 -1.985418e+01  6.500000e+01
     vertex  9.042567e+01 -2.524544e+01  6.000000e+01
     vertex  9.674551e+01 -2.680314e+01  6.000000e+01
   endloop
 endfacet
 facet normal -1.721450e-15 -5.840545e-01  8.117145e-01
   outer loop
     vertex  1.024107e+02 -1.985418e+01  6.500000e+01
     vertex  9.758927e+01 -1.985418e+01  6.500000e+01
     vertex  9.674551e+01 -2.680314e+01  6.000000e+01
   endloop
 endfacet
 facet normal -1.275148e-15 -5.840545e-01  8.117145e-01
   outer loop
     vertex  1.024107e+02 -1.985418e+01  6.500000e+01
     vertex  9.674551e+01 -2.680314e+01  6.000000e+01
     vertex  1.032545e+02 -2.680314e+01  6.000000e+01
   endloop
 endfacet
 facet normal  1.397734e-01 -5.670829e-01  8.117145e-01
   outer loop
     vertex  1.070921e+02 -1.870032e+01  6.500000e+01
     vertex  1.024107e+02 -1.985418e+01  6.500000e+01
     vertex  1.032545e+02 -2.680314e+01  6.000000e+01
   endloop
 endfacet
 facet normal  1.397734e-01 -5.670829e-01  8.117145e-01
   outer loop
     vertex  1.070921e+02 -1.870032e+01  6.500000e+01
     vertex  1.032545e+02 -2.680314e+01  6.000000e+01
     vertex  1.095743e+02 -2.524544e+01  6.000000e+01
   endloop
 endfacet
 facet normal  2.714236e-01 -5.171545e-01  8.117145e-01
   outer loop
     vertex  1.113613e+02 -1.645968e+01  6.500000e+01
     vertex  1.070921e+02 -1.870032e+01  6.500000e+01
     vertex  1.095743e+02 -2.524544e+01  6.000000e+01
   endloop
 endfacet
 facet normal  2.714236e-01 -5.171545e-01  8.117145e-01
   outer loop
     vertex  1.113613e+02 -1.645968e+01  6.500000e+01
     vertex  1.095743e+02 -2.524544e+01  6.000000e+01
     vertex  1.153377e+02 -2.222056e+01  6.000000e+01
   endloop
 endfacet
 facet normal  3.872997e-01 -4.371710e-01  8.117145e-01
   outer loop
     vertex  1.113613e+02 -1.645968e+01  6.500000e+01
     vertex  1.153377e+02 -2.222056e+01  6.000000e+01
     vertex  1.202098e+02 -1.790431e+01  6.000000e+01
   endloop
 endfacet
 facet normal  3.872997e-01 -4.371710e-01  8.117145e-01
   outer loop
     vertex  1.149702e+02 -1.326245e+01  6.500000e+01
     vertex  1.113613e+02 -1.645968e+01  6.500000e+01
     vertex  1.202098e+02 -1.790431e+01  6.000000e+01
   endloop
 endfacet
 facet normal  4.806674e-01 -3.317808e-01  8.117145e-01
   outer loop
     vertex  1.177091e+02 -9.294463e+00  6.500000e+01
     vertex  1.202098e+02 -1.790431e+01  6.000000e+01
     vertex  1.239073e+02 -1.254753e+01  6.000000e+01
   endloop
 endfacet
 facet normal  5.461004e-01 -2.071086e-01  8.117145e-01
   outer loop
     vertex  1.177091e+02 -9.294463e+00  6.500000e+01
     vertex  1.239073e+02 -1.254753e+01  6.000000e+01
     vertex  1.262154e+02 -6.461523e+00  6.000000e+01
   endloop
 endfacet
 facet normal  4.806674e-01 -3.317808e-01  8.117145e-01
   outer loop
     vertex  1.177091e+02 -9.294463e+00  6.500000e+01
     vertex  1.149702e+02 -1.326245e+01  6.500000e+01
     vertex  1.202098e+02 -1.790431e+01  6.000000e+01
   endloop
 endfacet
 facet normal  5.461004e-01 -2.071086e-01  8.117145e-01
   outer loop
     vertex  1.194188e+02 -4.786313e+00  6.500000e+01
     vertex  1.177091e+02 -9.294463e+00  6.500000e+01
     vertex  1.262154e+02 -6.461523e+00  6.000000e+01
   endloop
 endfacet
 facet normal  5.797961e-01 -7.039999e-02  8.117145e-01
   outer loop
     vertex  1.200000e+02 -4.898587e-15  6.500000e+01
     vertex  1.262154e+02 -6.461523e+00  6.000000e+01
     vertex  1.270000e+02 -6.613093e-15  6.000000e+01
   endloop
 endfacet
 facet normal  5.797961e-01 -7.039999e-02  8.117145e-01
   outer loop
     vertex  1.200000e+02 -4.898587e-15  6.500000e+01
     vertex  1.194188e+02 -4.786313e+00  6.500000e+01
     vertex  1.262154e+02 -6.461523e+00  6.000000e+01
   endloop
 endfacet
 facet normal  5.797961e-01  7.039999e-02 -8.117145e-01
   outer loop
     vertex  1.262154e+02  6.461523e+00  7.000000e+01
     vertex  1.270000e+02 -6.613093e-15  7.000000e+01
     vertex  1.200000e+02 -4.898587e-15  6.500000e+01
   endloop
 endfacet
 facet normal  5.797961e-01  7.039999e-02 -8.117145e-01
   outer loop
     vertex  1.262154e+02  6.461523e+00  7.000000e+01
     vertex  1.200000e+02 -4.898587e-15  6.500000e+01
     vertex  1.194188e+02  4.786313e+00  6.500000e+01
   endloop
 endfacet
 facet normal  5.461004e-01  2.071086e-01 -8.117145e-01
   outer loop
     vertex  1.239073e+02  1.254753e+01  7.000000e+01
     vertex  1.194188e+02  4.786313e+00  6.500000e+01
     vertex  1.177091e+02  9.294463e+00  6.500000e+01
   endloop
 endfacet
 facet normal  4.806674e-01  3.317808e-01 -8.117145e-01
   outer loop
     vertex  1.239073e+02  1.254753e+01  7.000000e+01
     vertex  1.177091e+02  9.294463e+00  6.500000e+01
     vertex  1.149702e+02  1.326245e+01  6.500000e+01
   endloop
 endfacet
 facet normal  5.461004e-01  2.071086e-01 -8.117145e-01
   outer loop
     vertex  1.239073e+02  1.254753e+01  7.000000e+01
     vertex  1.262154e+02  6.461523e+00  7.000000e+01
     vertex  1.194188e+02  4.786313e+00  6.500000e+01
   endloop
 endfacet
 facet normal  4.806674e-01  3.317808e-01 -8.117145e-01
   outer loop
     vertex  1.202098e+02  1.790431e+01  7.000000e+01
     vertex  1.239073e+02  1.254753e+01  7.000000e+01
     vertex  1.149702e+02  1.326245e+01  6.500000e+01
   endloop
 endfacet
 facet normal  3.872997e-01  4.371710e-01 -8.117145e-01
   outer loop
     vertex  1.153377e+02  2.222056e+01  7.000000e+01
     vertex  1.149702e+02  1.326245e+01  6.500000e+01
     vertex  1.113613e+02  1.645968e+01  6.500000e+01
   endloop
 endfacet
 facet normal  3.872997e-01  4.371710e-01 -8.117145e-01
   outer loop
     vertex  1.153377e+02  2.222056e+01  7.000000e+01
     vertex  1.202098e+02  1.790431e+01  7.000000e+01
     vertex  1.149702e+02  1.326245e+01  6.500000e+01
   endloop
 endfacet
 facet normal  2.714236e-01  5.171545e-01 -8.117145e-01
   outer loop
     vertex  1.095743e+02  2.524544e+01  7.000000e+01
     vertex  1.113613e+02  1.645968e+01  6.500000e+01
     vertex  1.070921e+02  1.870032e+01  6.500000e+01
   endloop
 endfacet
 facet normal  1.397734e-01  5.670829e-01 -8.117145e-01
   outer loop
     vertex  1.095743e+02  2.524544e+01  7.000000e+01
     vertex  1.070921e+02  1.870032e+01  6.500000e+01
     vertex  1.024107e+02  1.985418e+01  6.500000e+01
   endloop
 endfacet
 facet normal  2.714236e-01  5.171545e-01 -8.117145e-01
   outer loop
     vertex  1.095743e+02  2.524544e+01  7.000000e+01
     vertex  1.153377e+02  2.222056e+01  7.000000e+01
     vertex  1.113613e+02  1.645968e+01  6.500000e+01
   endloop
 endfacet
 facet normal  1.397734e-01  5.670829e-01 -8.117145e-01
   outer loop
     vertex  1.032545e+02  2.680314e+01  7.000000e+01
     vertex  1.095743e+02  2.524544e+01  7.000000e+01
     vertex  1.024107e+02  1.985418e+01  6.500000e+01
   endloop
 endfacet
 facet normal  0.000000e+00  5.840545e-01 -8.117145e-01
   outer loop
     vertex  9.674551e+01  2.680314e+01  7.000000e+01
     vertex  1.024107e+02  1.985418e+01  6.500000e+01
     vertex  9.758927e+01  1.985418e+01  6.500000e+01
   endloop
 endfacet
 facet normal  0.000000e+00  5.840545e-01 -8.117145e-01
   outer loop
     vertex  9.674551e+01  2.680314e+01  7.000000e+01
     vertex  1.032545e+02  2.680314e+01  7.000000e+01
     vertex  1.024107e+02  1.985418e+01  6.500000e+01
   endloop
 endfacet
 facet normal -1.397734e-01  5.670829e-01 -8.117145e-01
   outer loop
     vertex  9.042567e+01  2.524544e+01  7.000000e+01
     vertex  9.758927e+01  1.985418e+01  6.500000e+01
     vertex  9.290790e+01  1.870032e+01  6.500000e+01
   endloop
 endfacet
 facet normal -1.397734e-01  5.670829e-01 -8.117145e-01
   outer loop
     vertex  9.042567e+01  2.524544e+01  7.000000e+01
     vertex  9.674551e+01  2.680314e+01  7.000000e+01
     vertex  9.758927e+01  1.985418e+01  6.500000e+01
   endloop
 endfacet
 facet normal -2.714236e-01  5.171545e-01 -8.117145e-01
   outer loop
     vertex  8.466225e+01  2.222056e+01  7.000000e+01
     vertex  9.290790e+01  1.870032e+01  6.500000e+01
     vertex  8.863871e+01  1.645968e+01  6.500000e+01
   endloop
 endfacet
 facet normal -2.714236e-01  5.171545e-01 -8.117145e-01
   outer loop
     vertex  8.466225e+01  2.222056e+01  7.000000e+01
     vertex  9.042567e+01  2.524544e+01  7.000000e+01
     vertex  9.290790e+01  1.870032e+01  6.500000e+01
   endloop
 endfacet
 facet normal -3.872997e-01  4.371710e-01 -8.117145e-01
   outer loop
     vertex  7.979021e+01  1.790431e+01  7.000000e+01
     vertex  8.863871e+01  1.645968e+01  6.500000e+01
     vertex  8.502979e+01  1.326245e+01  6.500000e+01
   endloop
 endfacet
 facet normal -4.806674e-01  3.317808e-01 -8.117145e-01
   outer loop
     vertex  7.979021e+01  1.790431e+01  7.000000e+01
     vertex  8.502979e+01  1.326245e+01  6.500000e+01
     vertex  8.229088e+01  9.294463e+00  6.500000e+01
   endloop
 endfacet
 facet normal -3.872997e-01  4.371710e-01 -8.117145e-01
   outer loop
     vertex  7.979021e+01  1.790431e+01  7.000000e+01
     vertex  8.466225e+01  2.222056e+01  7.000000e+01
     vertex  8.863871e+01  1.645968e+01  6.500000e+01
   endloop
 endfacet
 facet normal -4.806674e-01  3.317808e-01 -8.117145e-01
   outer loop
     vertex  7.609269e+01  1.254753e+01  7.000000e+01
     vertex  7.979021e+01  1.790431e+01  7.000000e+01
     vertex  8.229088e+01  9.294463e+00  6.500000e+01
   endloop
 endfacet
 facet normal -5.461004e-01  2.071086e-01 -8.117145e-01
   outer loop
     vertex  7.378457e+01  6.461523e+00  7.000000e+01
     vertex  7.609269e+01  1.254753e+01  7.000000e+01
     vertex  8.229088e+01  9.294463e+00  6.500000e+01
   endloop
 endfacet
 facet normal -5.461004e-01  2.071086e-01 -8.117145e-01
   outer loop
     vertex  7.378457e+01  6.461523e+00  7.000000e+01
     vertex  8.229088e+01  9.294463e+00  6.500000e+01
     vertex  8.058116e+01  4.786313e+00  6.500000e+01
   endloop
 endfacet
 facet normal -5.797961e-01  7.039999e-02 -8.117145e-01
   outer loop
     vertex  7.300000e+01  2.728736e-14  7.000000e+01
     vertex  7.378457e+01  6.461523e+00  7.000000e+01
     vertex  8.058116e+01  4.786313e+00  6.500000e+01
   endloop
 endfacet
 facet normal -5.797961e-01  7.039999e-02 -8.117145e-01
   outer loop
     vertex  7.300000e+01  2.728736e-14  7.000000e+01
     vertex  8.058116e+01  4.786313e+00  6.500000e+01
     vertex  8.000000e+01  2.021286e-14  6.500000e+01
   endloop
 endfacet
 facet normal -5.797961e-01 -7.039999e-02 -8.117145e-01
   outer loop
     vertex  7.378457e+01 -6.461523e+00  7.000000e+01
     vertex  7.300000e+01  2.728736e-14  7.000000e+01
     vertex  8.000000e+01  2.021286e-14  6.500000e+01
   endloop
 endfacet
 facet normal -5.797961e-01 -7.039999e-02 -8.117145e-01
   outer loop
     vertex  7.378457e+01 -6.461523e+00  7.000000e+01
     vertex  8.000000e+01  2.021286e-14  6.500000e+01
     vertex  8.058116e+01 -4.786313e+00  6.500000e+01
   endloop
 endfacet
 facet normal -5.461004e-01 -2.071086e-01 -8.117145e-01
   outer loop
     vertex  7.609269e+01 -1.254753e+01  7.000000e+01
     vertex  7.378457e+01 -6.461523e+00  7.000000e+01
     vertex  8.058116e+01 -4.786313e+00  6.500000e+01
   endloop
 endfacet
 facet normal -5.461004e-01 -2.071086e-01 -8.117145e-01
   outer loop
     vertex  7.609269e+01 -1.254753e+01  7.000000e+01
     vertex  8.058116e+01 -4.786313e+00  6.500000e+01
     vertex  8.229088e+01 -9.294463e+00  6.500000e+01
   endloop
 endfacet
 facet normal -4.806674e-01 -3.317808e-01 -8.117145e-01
   outer loop
     vertex  7.979021e+01 -1.790431e+01  7.000000e+01
     vertex  7.609269e+01 -1.254753e+01  7.000000e+01
     vertex  8.229088e+01 -9.294463e+00  6.500000e+01
   endloop
 endfacet
 facet normal -4.806674e-01 -3.317808e-01 -8.117145e-01
   outer loop
     vertex  7.979021e+01 -1.790431e+01  7.000000e+01
     vertex  8.229088e+01 -9.294463e+00  6.500000e+01
     vertex  8.502979e+01 -1.326245e+01  6.500000e+01
   endloop
 endfacet
 facet normal -3.872997e-01 -4.371710e-01 -8.117145e-01
   outer loop
     vertex  8.466225e+01 -2.222056e+01  7.000000e+01
     vertex  7.979021e+01 -1.790431e+01  7.000000e+01
     vertex  8.502979e+01 -1.326245e+01  6.500000e+01
   endloop
 endfacet
 facet normal -3.872997e-01 -4.371710e-01 -8.117145e-01
   outer loop
     vertex  8.466225e+01 -2.222056e+01  7.000000e+01
     vertex  8.502979e+01 -1.326245e+01  6.500000e+01
     vertex  8.863871e+01 -1.645968e+01  6.500000e+01
   endloop
 endfacet
 facet normal -2.714236e-01 -5.171545e-01 -8.117145e-01
   outer loop
     vertex  9.042567e+01 -2.524544e+01  7.000000e+01
     vertex  8.466225e+01 -2.222056e+01  7.000000e+01
     vertex  8.863871e+01 -1.645968e+01  6.500000e+01
   endloop
 endfacet
 facet normal -2.714236e-01 -5.171545e-01 -8.117145e-01
   outer loop
     vertex  9.042567e+01 -2.524544e+01  7.000000e+01
     vertex  8.863871e+01 -1.645968e+01  6.500000e+01
     vertex  9.290790e+01 -1.870032e+01  6.500000e+01
   endloop
 endfacet
 facet normal -1.397734e-01 -5.670829e-01 -8.117145e-01
   outer loop
     vertex  9.674551e+01 -2.680314e+01  7.000000e+01
     vertex  9.042567e+01 -2.524544e+01  7.000000e+01
     vertex  9.290790e+01 -1.870032e+01  6.500000e+01
   endloop
 endfacet
 facet normal -1.397734e-01 -5.670829e-01 -8.117145e-01
   outer loop
     vertex  9.674551e+01 -2.680314e+01  7.000000e+01
     vertex  9.290790e+01 -1.870032e+01  6.500000e+01
     vertex  9.758927e+01 -1.985418e+01  6.500000e+01
   endloop
 endfacet
 facet normal -1.275148e-15 -5.840545e-01 -8.117145e-01
   outer loop
     vertex  1.032545e+02 -2.680314e+01  7.000000e+01
     vertex  9.674551e+01 -2.680314e+01  7.000000e+01
     vertex  9.758927e+01 -1.985418e+01  6.500000e+01
   endloop
 endfacet
 facet normal -1.721450e-15 -5.840545e-01 -8.117145e-01
   outer loop
     vertex  1.032545e+02 -2.680314e+01  7.000000e+01
     vertex  9.758927e+01 -1.985418e+01  6.500000e+01
     vertex  1.024107e+02 -1.985418e+01  6.500000e+01
   endloop
 endfacet
 facet normal  1.397734e-01 -5.670829e-01 -8.117145e-01
   outer loop
     vertex  1.095743e+02 -2.524544e+01  7.000000e+01
     vertex  1.032545e+02 -2.680314e+01  7.000000e+01
     vertex  1.024107e+02 -1.985418e+01  6.500000e+01
   endloop
 endfacet
 facet normal  1.397734e-01 -5.670829e-01 -8.117145e-01
   outer loop
     vertex  1.095743e+02 -2.524544e+01  7.000000e+01
     vertex  1.024107e+02 -1.985418e+01  6.500000e+01
     vertex  1.070921e+02 -1.870032e+01  6.500000e+01
   endloop
 endfacet
 facet normal  2.714236e-01 -5.171545e-01 -8.117145e-01
   outer loop
     vertex  1.153377e+02 -2.222056e+01  7.000000e+01
     vertex  1.095743e+02 -2.524544e+01  7.000000e+01
     vertex  1.070921e+02 -1.870032e+01  6.500000e+01
   endloop
 endfacet
 facet normal  2.714236e-01 -5.171545e-01 -8.117145e-01
   outer loop
     vertex  1.153377e+02 -2.222056e+01  7.000000e+01
     vertex  1.070921e+02 -1.870032e+01  6.500000e+01
     vertex  1.113613e+02 -1.645968e+01  6.500000e+01
   endloop
 endfacet
 facet normal  3.872997e-01 -4.371710e-01 -8.117145e-01
   outer loop
     vertex  1.153377e+02 -2.222056e+01  7.000000e+01
     vertex  1.113613e+02 -1.645968e+01  6.500000e+01
     vertex  1.149702e+02 -1.326245e+01  6.500000e+01
   endloop
 endfacet
 facet normal  3.872997e-01 -4.371710e-01 -8.117145e-01
   outer loop
     vertex  1.202098e+02 -1.790431e+01  7.000000e+01
     vertex  1.153377e+02 -2.222056e+01  7.000000e+01
     vertex  1.149702e+02 -1.326245e+01  6.500000e+01
   endloop
 endfacet
 facet normal  4.806674e-01 -3.317808e-01 -8.117145e-01
   outer loop
     vertex  1.239073e+02 -1.254753e+01  7.000000e+01
     vertex  1.149702e+02 -1.326245e+01  6.500000e+01
     vertex  1.177091e+02 -9.294463e+00  6.500000e+01
   endloop
 endfacet
 facet normal  5.461004e-01 -2.071086e-01 -8.117145e-01
   outer loop
     vertex  1.239073e+02 -1.254753e+01  7.000000e+01
     vertex  1.177091e+02 -9.294463e+00  6.500000e+01
     vertex  1.194188e+02 -4.786313e+00  6.500000e+01
   endloop
 endfacet
 facet normal  4.806674e-01 -3.317808e-01 -8.117145e-01
   outer loop
     vertex  1.239073e+02 -1.254753e+01  7.000000e+01
     vertex  1.202098e+02 -1.790431e+01  7.000000e+01
     vertex  1.149702e+02 -1.326245e+01  6.500000e+01
   endloop
 endfacet
 facet normal  5.461004e-01 -2.071086e-01 -8.117145e-01
   outer loop
     vertex  1.262154e+02 -6.461523e+00  7.000000e+01
     vertex  1.239073e+02 -1.254753e+01  7.000000e+01
     vertex  1.194188e+02 -4.786313e+00  6.500000e+01
   endloop
 endfacet
 facet normal  5.797961e-01 -7.039999e-02 -8.117145e-01
   outer loop
     vertex  1.270000e+02 -6.613093e-15  7.000000e+01
     vertex  1.194188e+02 -4.786313e+00  6.500000e+01
     vertex  1.200000e+02 -4.898587e-15  6.500000e+01
   endloop
 endfacet
 facet normal  5.797961e-01 -7.039999e-02 -8.117145e-01
   outer loop
     vertex  1.270000e+02 -6.613093e-15  7.000000e+01
     vertex  1.262154e+02 -6.461523e+00  7.000000e+01
     vertex  1.194188e+02 -4.786313e+00  6.500000e+01
   endloop
 endfacet
 facet normal  0.000000e+00  0.000000e+00 -1.000000e+00
   outer loop
     vertex  9.943194e+01 -8.229839e-01  6.000000e+01
     vertex  8.466225e+01 -2.222056e+01  6.000000e+01
     vertex  7.979021e+01 -1.790431e+01  6.000000e+01
   endloop
 endfacet
 facet normal -0.000000e+00  0.000000e+00 -1.000000e+00
   outer loop
     vertex  9.943194e+01 -8.229839e-01  6.000000e+01
     vertex  7.979021e+01 -1.790431e+01  6.000000e+01
     vertex  9.925149e+01 -6.631227e-01  6.000000e+01
   endloop
 endfacet
 facet normal  0.000000e+00  0.000000e+00 -1.000000e+00
   outer loop
     vertex  9.911454e+01 -4.647232e-01  6.000000e+01
     vertex  7.979021e+01 -1.790431e+01  6.000000e+01
     vertex  7.609269e+01 -1.254753e+01  6.000000e+01
   endloop
 endfacet
 facet normal  0.000000e+00 -0.000000e+00 -1.000000e+00
   outer loop
     vertex  9.911454e+01 -4.647232e-01  6.000000e+01
     vertex  9.925149e+01 -6.631227e-01  6.000000e+01
     vertex  7.979021e+01 -1.790431e+01  6.000000e+01
   endloop
 endfacet
 facet normal  0.000000e+00  0.000000e+00 -1.000000e+00
   outer loop
     vertex  9.964540e+01 -9.350162e-01  6.000000e+01
     vertex  9.042567e+01 -2.524544e+01  6.000000e+01
     vertex  8.466225e+01 -2.222056e+01  6.000000e+01
   endloop
 endfacet
 facet normal -0.000000e+00  0.000000e+00 -1.000000e+00
   outer loop
     vertex  9.964540e+01 -9.350162e-01  6.000000e+01
     vertex  8.466225e+01 -2.222056e+01  6.000000e+01
     vertex  9.943194e+01 -8.229839e-01  6.000000e+01
   endloop
 endfacet
 facet normal  0.000000e+00  0.000000e+00 -1.000000e+00
   outer loop
     vertex  9.902906e+01 -2.393157e-01  6.000000e+01
     vertex  7.609269e+01 -1.254753e+01  6.000000e+01
     vertex  7.378457e+01 -6.461523e+00  6.000000e+01
   endloop
 endfacet
 facet normal  0.000000e+00 -0.000000e+00 -1.000000e+00
   outer loop
     vertex  9.902906e+01 -2.393157e-01  6.000000e+01
     vertex  9.911454e+01 -4.647232e-01  6.000000e+01
     vertex  7.609269e+01 -1.254753e+01  6.000000e+01
   endloop
 endfacet
 facet normal  0.000000e+00  0.000000e+00 -1.000000e+00
   outer loop
     vertex  9.987946e+01 -9.927089e-01  6.000000e+01
     vertex  9.674551e+01 -2.680314e+01  6.000000e+01
     vertex  9.042567e+01 -2.524544e+01  6.000000e+01
   endloop
 endfacet
 facet normal  0.000000e+00 -0.000000e+00 -1.000000e+00
   outer loop
     vertex  9.987946e+01 -9.927089e-01  6.000000e+01
     vertex  1.032545e+02 -2.680314e+01  6.000000e+01
     vertex  9.674551e+01 -2.680314e+01  6.000000e+01
   endloop
 endfacet
 facet normal -0.000000e+00  0.000000e+00 -1.000000e+00
   outer loop
     vertex  9.987946e+01 -9.927089e-01  6.000000e+01
     vertex  9.042567e+01 -2.524544e+01  6.000000e+01
     vertex  9.964540e+01 -9.350162e-01  6.000000e+01
   endloop
 endfacet
 facet normal -0.000000e+00  0.000000e+00 -1.000000e+00
   outer loop
     vertex  9.900000e+01  1.010643e-15  6.000000e+01
     vertex  7.378457e+01 -6.461523e+00  6.000000e+01
     vertex  7.300000e+01  2.728736e-14  6.000000e+01
   endloop
 endfacet
 facet normal  0.000000e+00 -0.000000e+00 -1.000000e+00
   outer loop
     vertex  9.900000e+01  1.010643e-15  6.000000e+01
     vertex  9.902906e+01 -2.393157e-01  6.000000e+01
     vertex  7.378457e+01 -6.461523e+00  6.000000e+01
   endloop
 endfacet
 facet normal -0.000000e+00 -0.000000e+00 -1.000000e+00
   outer loop
     vertex  1.001205e+02 -9.927089e-01  6.000000e+01
     vertex  1.032545e+02 -2.680314e+01  6.000000e+01
     vertex  9.987946e+01 -9.927089e-01  6.000000e+01
   endloop
 endfacet
 facet normal -0.000000e+00  0.000000e+00 -1.000000e+00
   outer loop
     vertex  9.902906e+01  2.393157e-01  6.000000e+01
     vertex  7.300000e+01  2.728736e-14  6.000000e+01
     vertex  7.378457e+01  6.461523e+00  6.000000e+01
   endloop
 endfacet
 facet normal  0.000000e+00  0.000000e+00 -1.000000e+00
   outer loop
     vertex  9.902906e+01  2.393157e-01  6.000000e+01
     vertex  9.900000e+01  1.010643e-15  6.000000e+01
     vertex  7.300000e+01  2.728736e-14  6.000000e+01
   endloop
 endfacet
 facet normal  0.000000e+00  0.000000e+00 -1.000000e+00
   outer loop
     vertex  1.003546e+02 -9.350162e-01  6.000000e+01
     vertex  1.095743e+02 -2.524544e+01  6.000000e+01
     vertex  1.032545e+02 -2.680314e+01  6.000000e+01
   endloop
 endfacet
 facet normal  0.000000e+00  0.000000e+00 -1.000000e+00
   outer loop
     vertex  1.003546e+02 -9.350162e-01  6.000000e+01
     vertex  1.153377e+02 -2.222056e+01  6.000000e+01
     vertex  1.095743e+02 -2.524544e+01  6.000000e+01
   endloop
 endfacet
 facet normal  0.000000e+00 -0.000000e+00 -1.000000e+00
   outer loop
     vertex  1.003546e+02 -9.350162e-01  6.000000e+01
     vertex  1.032545e+02 -2.680314e+01  6.000000e+01
     vertex  1.001205e+02 -9.927089e-01  6.000000e+01
   endloop
 endfacet
 facet normal  0.000000e+00  0.000000e+00 -1.000000e+00
   outer loop
     vertex  9.911454e+01  4.647232e-01  6.000000e+01
     vertex  7.378457e+01  6.461523e+00  6.000000e+01
     vertex  7.609269e+01  1.254753e+01  6.000000e+01
   endloop
 endfacet
 facet normal -0.000000e+00  0.000000e+00 -1.000000e+00
   outer loop
     vertex  9.911454e+01  4.647232e-01  6.000000e+01
     vertex  9.902906e+01  2.393157e-01  6.000000e+01
     vertex  7.378457e+01  6.461523e+00  6.000000e+01
   endloop
 endfacet
 facet normal  0.000000e+00 -0.000000e+00 -1.000000e+00
   outer loop
     vertex  1.005681e+02 -8.229839e-01  6.000000e+01
     vertex  1.153377e+02 -2.222056e+01  6.000000e+01
     vertex  1.003546e+02 -9.350162e-01  6.000000e+01
   endloop
 endfacet
 facet normal -0.000000e+00  0.000000e+00 -1.000000e+00
   outer loop
     vertex  9.925149e+01  6.631227e-01  6.000000e+01
     vertex  9.911454e+01  4.647232e-01  6.000000e+01
     vertex  7.609269e+01  1.254753e+01  6.000000e+01
   endloop
 endfacet
 facet normal  0.000000e+00  0.000000e+00 -1.000000e+00
   outer loop
     vertex  9.925149e+01  6.631227e-01  6.000000e+01
     vertex  7.609269e+01  1.254753e+01  6.000000e+01
     vertex  7.979021e+01  1.790431e+01  6.000000e+01
   endloop
 endfacet
 facet normal  0.000000e+00 -0.000000e+00 -1.000000e+00
   outer loop
     vertex  1.007485e+02 -6.631227e-01  6.000000e+01
     vertex  1.153377e+02 -2.222056e+01  6.000000e+01
     vertex  1.005681e+02 -8.229839e-01  6.000000e+01
   endloop
 endfacet
 facet normal -0.000000e+00  0.000000e+00 -1.000000e+00
   outer loop
     vertex  1.202098e+02 -1.790431e+01  6.000000e+01
     vertex  1.153377e+02 -2.222056e+01  6.000000e+01
     vertex  1.007485e+02 -6.631227e-01  6.000000e+01
   endloop
 endfacet
 facet normal  0.000000e+00  0.000000e+00 -1.000000e+00
   outer loop
     vertex  8.466225e+01  2.222056e+01  6.000000e+01
     vertex  9.964540e+01  9.350162e-01  6.000000e+01
     vertex  9.943194e+01  8.229839e-01  6.000000e+01
   endloop
 endfacet
 facet normal  0.000000e+00  0.000000e+00 -1.000000e+00
   outer loop
     vertex  8.466225e+01  2.222056e+01  6.000000e+01
     vertex  9.943194e+01  8.229839e-01  6.000000e+01
     vertex  9.925149e+01  6.631227e-01  6.000000e+01
   endloop
 endfacet
 facet normal  0.000000e+00 -0.000000e+00 -1.000000e+00
   outer loop
     vertex  8.466225e+01  2.222056e+01  6.000000e+01
     vertex  9.925149e+01  6.631227e-01  6.000000e+01
     vertex  7.979021e+01  1.790431e+01  6.000000e+01
   endloop
 endfacet
 facet normal  0.000000e+00  0.000000e+00 -1.000000e+00
   outer loop
     vertex  1.239073e+02 -1.254753e+01  6.000000e+01
     vertex  1.007485e+02 -6.631227e-01  6.000000e+01
     vertex  1.008855e+02 -4.647232e-01  6.000000e+01
   endloop
 endfacet
 facet normal -0.000000e+00  0.000000e+00 -1.000000e+00
   outer loop
     vertex  1.239073e+02 -1.254753e+01  6.000000e+01
     vertex  1.202098e+02 -1.790431e+01  6.000000e+01
     vertex  1.007485e+02 -6.631227e-01  6.000000e+01
   endloop
 endfacet
 facet normal  0.000000e+00 -0.000000e+00 -1.000000e+00
   outer loop
     vertex  9.042567e+01  2.524544e+01  6.000000e+01
     vertex  9.964540e+01  9.350162e-01  6.000000e+01
     vertex  8.466225e+01  2.222056e+01  6.000000e+01
   endloop
 endfacet
 facet normal  0.000000e+00  0.000000e+00 -1.000000e+00
   outer loop
     vertex  9.042567e+01  2.524544e+01  6.000000e+01
     vertex  9.987946e+01  9.927089e-01  6.000000e+01
     vertex  9.964540e+01  9.350162e-01  6.000000e+01
   endloop
 endfacet
 facet normal -0.000000e+00  0.000000e+00 -1.000000e+00
   outer loop
     vertex  1.262154e+02 -6.461523e+00  6.000000e+01
     vertex  1.239073e+02 -1.254753e+01  6.000000e+01
     vertex  1.008855e+02 -4.647232e-01  6.000000e+01
   endloop
 endfacet
 facet normal  0.000000e+00  0.000000e+00 -1.000000e+00
   outer loop
     vertex  1.262154e+02 -6.461523e+00  6.000000e+01
     vertex  1.008855e+02 -4.647232e-01  6.000000e+01
     vertex  1.009709e+02 -2.393157e-01  6.000000e+01
   endloop
 endfacet
 facet normal  0.000000e+00 -0.000000e+00 -1.000000e+00
   outer loop
     vertex  9.674551e+01  2.680314e+01  6.000000e+01
     vertex  9.987946e+01  9.927089e-01  6.000000e+01
     vertex  9.042567e+01  2.524544e+01  6.000000e+01
   endloop
 endfacet
 facet normal  0.000000e+00  0.000000e+00 -1.000000e+00
   outer loop
     vertex  1.270000e+02 -6.613093e-15  6.000000e+01
     vertex  1.010000e+02 -2.449294e-16  6.000000e+01
     vertex  1.009709e+02  2.393157e-01  6.000000e+01
   endloop
 endfacet
 facet normal  0.000000e+00  0.000000e+00 -1.000000e+00
   outer loop
     vertex  1.270000e+02 -6.613093e-15  6.000000e+01
     vertex  1.262154e+02 -6.461523e+00  6.000000e+01
     vertex  1.009709e+02 -2.393157e-01  6.000000e+01
   endloop
 endfacet
 facet normal -0.000000e+00  0.000000e+00 -1.000000e+00
   outer loop
     vertex  1.270000e+02 -6.613093e-15  6.000000e+01
     vertex  1.009709e+02 -2.393157e-01  6.000000e+01
     vertex  1.010000e+02 -2.449294e-16  6.000000e+01
   endloop
 endfacet
 facet normal  0.000000e+00  0.000000e+00 -1.000000e+00
   outer loop
     vertex  1.032545e+02  2.680314e+01  6.000000e+01
     vertex  1.003546e+02  9.350162e-01  6.000000e+01
     vertex  1.001205e+02  9.927089e-01  6.000000e+01
   endloop
 endfacet
 facet normal  0.000000e+00  0.000000e+00 -1.000000e+00
   outer loop
     vertex  1.032545e+02  2.680314e+01  6.000000e+01
     vertex  1.001205e+02  9.927089e-01  6.000000e+01
     vertex  9.987946e+01  9.927089e-01  6.000000e+01
   endloop
 endfacet
 facet normal -0.000000e+00  0.000000e+00 -1.000000e+00
   outer loop
     vertex  1.032545e+02  2.680314e+01  6.000000e+01
     vertex  9.987946e+01  9.927089e-01  6.000000e+01
     vertex  9.674551e+01  2.680314e+01  6.000000e+01
   endloop
 endfacet
 facet normal  0.000000e+00 -0.000000e+00 -1.000000e+00
   outer loop
     vertex  1.262154e+02  6.461523e+00  6.000000e+01
     vertex  1.270000e+02 -6.613093e-15  6.000000e+01
     vertex  1.009709e+02  2.393157e-01  6.000000e+01
   endloop
 endfacet
 facet normal  0.000000e+00  0.000000e+00 -1.000000e+00
   outer loop
     vertex  1.095743e+02  2.524544e+01  6.000000e+01
     vertex  1.005681e+02  8.229839e-01  6.000000e+01
     vertex  1.003546e+02  9.350162e-01  6.000000e+01
   endloop
 endfacet
 facet normal -0.000000e+00  0.000000e+00 -1.000000e+00
   outer loop
     vertex  1.095743e+02  2.524544e+01  6.000000e+01
     vertex  1.003546e+02  9.350162e-01  6.000000e+01
     vertex  1.032545e+02  2.680314e+01  6.000000e+01
   endloop
 endfacet
 facet normal  0.000000e+00 -0.000000e+00 -1.000000e+00
   outer loop
     vertex  1.239073e+02  1.254753e+01  6.000000e+01
     vertex  1.262154e+02  6.461523e+00  6.000000e+01
     vertex  1.009709e+02  2.393157e-01  6.000000e+01
   endloop
 endfacet
 facet normal  0.000000e+00  0.000000e+00 -1.000000e+00
   outer loop
     vertex  1.239073e+02  1.254753e+01  6.000000e+01
     vertex  1.009709e+02  2.393157e-01  6.000000e+01
     vertex  1.008855e+02  4.647232e-01  6.000000e+01
   endloop
 endfacet
 facet normal  0.000000e+00  0.000000e+00 -1.000000e+00
   outer loop
     vertex  1.239073e+02  1.254753e+01  6.000000e+01
     vertex  1.008855e+02  4.647232e-01  6.000000e+01
     vertex  1.007485e+02  6.631227e-01  6.000000e+01
   endloop
 endfacet
 facet normal -0.000000e+00  0.000000e+00 -1.000000e+00
   outer loop
     vertex  1.153377e+02  2.222056e+01  6.000000e+01
     vertex  1.005681e+02  8.229839e-01  6.000000e+01
     vertex  1.095743e+02  2.524544e+01  6.000000e+01
   endloop
 endfacet
 facet normal  0.000000e+00 -0.000000e+00 -1.000000e+00
   outer loop
     vertex  1.202098e+02  1.790431e+01  6.000000e+01
     vertex  1.239073e+02  1.254753e+01  6.000000e+01
     vertex  1.007485e+02  6.631227e-01  6.000000e+01
   endloop
 endfacet
 facet normal  0.000000e+00  0.000000e+00 -1.000000e+00
   outer loop
     vertex  1.202098e+02  1.790431e+01  6.000000e+01
     vertex  1.007485e+02  6.631227e-01  6.000000e+01
     vertex  1.005681e+02  8.229839e-01  6.000000e+01
   endloop
 endfacet
 facet normal -0.000000e+00  0.000000e+00 -1.000000e+00
   outer loop
     vertex  1.202098e+02  1.790431e+01  6.000000e+01
     vertex  1.005681e+02  8.229839e-01  6.000000e+01
     vertex  1.153377e+02  2.222056e+01  6.000000e+01
   endloop
 endfacet
 facet normal  0.000000e+00  0.000000e+00  1.000000e+00
   outer loop
     vertex  9.943194e+01 -8.229839e-01  7.000000e+01
     vertex  7.979021e+01 -1.790431e+01  7.000000e+01
     vertex  8.466225e+01 -2.222056e+01  7.000000e+01
   endloop
 endfacet
 facet normal  0.000000e+00  0.000000e+00  1.000000e+00
   outer loop
     vertex  9.943194e+01 -8.229839e-01  7.000000e+01
     vertex  9.925149e+01 -6.631227e-01  7.000000e+01
     vertex  7.979021e+01 -1.790431e+01  7.000000e+01
   endloop
 endfacet
 facet normal  0.000000e+00  0.000000e+00  1.000000e+00
   outer loop
     vertex  9.911454e+01 -4.647232e-01  7.000000e+01
     vertex  7.609269e+01 -1.254753e+01  7.000000e+01
     vertex  7.979021e+01 -1.790431e+01  7.000000e+01
   endloop
 endfacet
 facet normal  0.000000e+00  0.000000e+00  1.000000e+00
   outer loop
     vertex  9.911454e+01 -4.647232e-01  7.000000e+01
     vertex  7.979021e+01 -1.790431e+01  7.000000e+01
     vertex  9.925149e+01 -6.631227e-01  7.000000e+01
   endloop
 endfacet
 facet normal  0.000000e+00  0.000000e+00  1.000000e+00
   outer loop
     vertex  9.964540e+01 -9.350162e-01  7.000000e+01
     vertex  8.466225e+01 -2.222056e+01  7.000000e+01
     vertex  9.042567e+01 -2.524544e+01  7.000000e+01
   endloop
 endfacet
 facet normal  0.000000e+00  0.000000e+00  1.000000e+00
   outer loop
     vertex  9.964540e+01 -9.350162e-01  7.000000e+01
     vertex  9.943194e+01 -8.229839e-01  7.000000e+01
     vertex  8.466225e+01 -2.222056e+01  7.000000e+01
   endloop
 endfacet
 facet normal  0.000000e+00  0.000000e+00  1.000000e+00
   outer loop
     vertex  9.902906e+01 -2.393157e-01  7.000000e+01
     vertex  7.378457e+01 -6.461523e+00  7.000000e+01
     vertex  7.609269e+01 -1.254753e+01  7.000000e+01
   endloop
 endfacet
 facet normal  0.000000e+00  0.000000e+00  1.000000e+00
   outer loop
     vertex  9.902906e+01 -2.393157e-01  7.000000e+01
     vertex  7.609269e+01 -1.254753e+01  7.000000e+01
     vertex  9.911454e+01 -4.647232e-01  7.000000e+01
   endloop
 endfacet
 facet normal  0.000000e+00  0.000000e+00  1.000000e+00
   outer loop
     vertex  9.987946e+01 -9.927089e-01  7.000000e+01
     vertex  9.042567e+01 -2.524544e+01  7.000000e+01
     vertex  9.674551e+01 -2.680314e+01  7.000000e+01
   endloop
 endfacet
 facet normal  0.000000e+00  0.000000e+00  1.000000e+00
   outer loop
     vertex  9.987946e+01 -9.927089e-01  7.000000e+01
     vertex  9.674551e+01 -2.680314e+01  7.000000e+01
     vertex  1.032545e+02 -2.680314e+01  7.000000e+01
   endloop
 endfacet
 facet normal  0.000000e+00  0.000000e+00  1.000000e+00
   outer loop
     vertex  9.987946e+01 -9.927089e-01  7.000000e+01
     vertex  9.964540e+01 -9.350162e-01  7.000000e+01
     vertex  9.042567e+01 -2.524544e+01  7.000000e+01
   endloop
 endfacet
 facet normal  0.000000e+00  0.000000e+00  1.000000e+00
   outer loop
     vertex  9.900000e+01  1.010643e-15  7.000000e+01
     vertex  7.300000e+01  2.728736e-14  7.000000e+01
     vertex  7.378457e+01 -6.461523e+00  7.000000e+01
   endloop
 endfacet
 facet normal  0.000000e+00  0.000000e+00  1.000000e+00
   outer loop
     vertex  9.900000e+01  1.010643e-15  7.000000e+01
     vertex  7.378457e+01 -6.461523e+00  7.000000e+01
     vertex  9.902906e+01 -2.393157e-01  7.000000e+01
   endloop
 endfacet
 facet normal  0.000000e+00  0.000000e+00  1.000000e+00
   outer loop
     vertex  1.001205e+02 -9.927089e-01  7.000000e+01
     vertex  9.987946e+01 -9.927089e-01  7.000000e+01
     vertex  1.032545e+02 -2.680314e+01  7.000000e+01
   endloop
 endfacet
 facet normal  0.000000e+00  0.000000e+00  1.000000e+00
   outer loop
     vertex  9.902906e+01  2.393157e-01  7.000000e+01
     vertex  7.378457e+01  6.461523e+00  7.000000e+01
     vertex  7.300000e+01  2.728736e-14  7.000000e+01
   endloop
 endfacet
 facet normal  0.000000e+00  0.000000e+00  1.000000e+00
   outer loop
     vertex  9.902906e+01  2.393157e-01  7.000000e+01
     vertex  7.300000e+01  2.728736e-14  7.000000e+01
     vertex  9.900000e+01  1.010643e-15  7.000000e+01
   endloop
 endfacet
 facet normal  0.000000e+00  0.000000e+00  1.000000e+00
   outer loop
     vertex  1.003546e+02 -9.350162e-01  7.000000e+01
     vertex  1.032545e+02 -2.680314e+01  7.000000e+01
     vertex  1.095743e+02 -2.524544e+01  7.000000e+01
   endloop
 endfacet
 facet normal  0.000000e+00  0.000000e+00  1.000000e+00
   outer loop
     vertex  1.003546e+02 -9.350162e-01  7.000000e+01
     vertex  1.095743e+02 -2.524544e+01  7.000000e+01
     vertex  1.153377e+02 -2.222056e+01  7.000000e+01
   endloop
 endfacet
 facet normal  0.000000e+00  0.000000e+00  1.000000e+00
   outer loop
     vertex  1.003546e+02 -9.350162e-01  7.000000e+01
     vertex  1.001205e+02 -9.927089e-01  7.000000e+01
     vertex  1.032545e+02 -2.680314e+01  7.000000e+01
   endloop
 endfacet
 facet normal  0.000000e+00  0.000000e+00  1.000000e+00
   outer loop
     vertex  9.911454e+01  4.647232e-01  7.000000e+01
     vertex  7.609269e+01  1.254753e+01  7.000000e+01
     vertex  7.378457e+01  6.461523e+00  7.000000e+01
   endloop
 endfacet
 facet normal  0.000000e+00  0.000000e+00  1.000000e+00
   outer loop
     vertex  9.911454e+01  4.647232e-01  7.000000e+01
     vertex  7.378457e+01  6.461523e+00  7.000000e+01
     vertex  9.902906e+01  2.393157e-01  7.000000e+01
   endloop
 endfacet
 facet normal  0.000000e+00  0.000000e+00  1.000000e+00
   outer loop
     vertex  1.005681e+02 -8.229839e-01  7.000000e+01
     vertex  1.003546e+02 -9.350162e-01  7.000000e+01
     vertex  1.153377e+02 -2.222056e+01  7.000000e+01
   endloop
 endfacet
 facet normal  0.000000e+00  0.000000e+00  1.000000e+00
   outer loop
     vertex  9.925149e+01  6.631227e-01  7.000000e+01
     vertex  7.609269e+01  1.254753e+01  7.000000e+01
     vertex  9.911454e+01  4.647232e-01  7.000000e+01
   endloop
 endfacet
 facet normal  0.000000e+00  0.000000e+00  1.000000e+00
   outer loop
     vertex  9.925149e+01  6.631227e-01  7.000000e+01
     vertex  7.979021e+01  1.790431e+01  7.000000e+01
     vertex  7.609269e+01  1.254753e+01  7.000000e+01
   endloop
 endfacet
 facet normal  0.000000e+00  0.000000e+00  1.000000e+00
   outer loop
     vertex  1.007485e+02 -6.631227e-01  7.000000e+01
     vertex  1.005681e+02 -8.229839e-01  7.000000e+01
     vertex  1.153377e+02 -2.222056e+01  7.000000e+01
   endloop
 endfacet
 facet normal  0.000000e+00  0.000000e+00  1.000000e+00
   outer loop
     vertex  1.202098e+02 -1.790431e+01  7.000000e+01
     vertex  1.007485e+02 -6.631227e-01  7.000000e+01
     vertex  1.153377e+02 -2.222056e+01  7.000000e+01
   endloop
 endfacet
 facet normal  0.000000e+00  0.000000e+00  1.000000e+00
   outer loop
     vertex  8.466225e+01  2.222056e+01  7.000000e+01
     vertex  9.943194e+01  8.229839e-01  7.000000e+01
     vertex  9.964540e+01  9.350162e-01  7.000000e+01
   endloop
 endfacet
 facet normal  0.000000e+00  0.000000e+00  1.000000e+00
   outer loop
     vertex  8.466225e+01  2.222056e+01  7.000000e+01
     vertex  9.925149e+01  6.631227e-01  7.000000e+01
     vertex  9.943194e+01  8.229839e-01  7.000000e+01
   endloop
 endfacet
 facet normal  0.000000e+00  0.000000e+00  1.000000e+00
   outer loop
     vertex  8.466225e+01  2.222056e+01  7.000000e+01
     vertex  7.979021e+01  1.790431e+01  7.000000e+01
     vertex  9.925149e+01  6.631227e-01  7.000000e+01
   endloop
 endfacet
 facet normal  0.000000e+00  0.000000e+00  1.000000e+00
   outer loop
     vertex  1.239073e+02 -1.254753e+01  7.000000e+01
     vertex  1.008855e+02 -4.647232e-01  7.000000e+01
     vertex  1.007485e+02 -6.631227e-01  7.000000e+01
   endloop
 endfacet
 facet normal  0.000000e+00  0.000000e+00  1.000000e+00
   outer loop
     vertex  1.239073e+02 -1.254753e+01  7.000000e+01
     vertex  1.007485e+02 -6.631227e-01  7.000000e+01
     vertex  1.202098e+02 -1.790431e+01  7.000000e+01
   endloop
 endfacet
 facet normal  0.000000e+00  0.000000e+00  1.000000e+00
   outer loop
     vertex  9.042567e+01  2.524544e+01  7.000000e+01
     vertex  8.466225e+01  2.222056e+01  7.000000e+01
     vertex  9.964540e+01  9.350162e-01  7.000000e+01
   endloop
 endfacet
 facet normal  0.000000e+00  0.000000e+00  1.000000e+00
   outer loop
     vertex  9.042567e+01  2.524544e+01  7.000000e+01
     vertex  9.964540e+01  9.350162e-01  7.000000e+01
     vertex  9.987946e+01  9.927089e-01  7.000000e+01
   endloop
 endfacet
 facet normal  0.000000e+00  0.000000e+00  1.000000e+00
   outer loop
     vertex  1.262154e+02 -6.461523e+00  7.000000e+01
     vertex  1.008855e+02 -4.647232e-01  7.000000e+01
     vertex  1.239073e+02 -1.254753e+01  7.000000e+01
   endloop
 endfacet
 facet normal  0.000000e+00  0.000000e+00  1.000000e+00
   outer loop
     vertex  1.262154e+02 -6.461523e+00  7.000000e+01
     vertex  1.009709e+02 -2.393157e-01  7.000000e+01
     vertex  1.008855e+02 -4.647232e-01  7.000000e+01
   endloop
 endfacet
 facet normal  0.000000e+00  0.000000e+00  1.000000e+00
   outer loop
     vertex  9.674551e+01  2.680314e+01  7.000000e+01
     vertex  9.042567e+01  2.524544e+01  7.000000e+01
     vertex  9.987946e+01  9.927089e-01  7.000000e+01
   endloop
 endfacet
 facet normal  0.000000e+00  0.000000e+00  1.000000e+00
   outer loop
     vertex  1.270000e+02 -6.613093e-15  7.000000e+01
     vertex  1.009709e+02  2.393157e-01  7.000000e+01
     vertex  1.010000e+02 -2.449294e-16  7.000000e+01
   endloop
 endfacet
 facet normal  0.000000e+00  0.000000e+00  1.000000e+00
   outer loop
     vertex  1.270000e+02 -6.613093e-15  7.000000e+01
     vertex  1.009709e+02 -2.393157e-01  7.000000e+01
     vertex  1.262154e+02 -6.461523e+00  7.000000e+01
   endloop
 endfacet
 facet normal  0.000000e+00  0.000000e+00  1.000000e+00
   outer loop
     vertex  1.270000e+02 -6.613093e-15  7.000000e+01
     vertex  1.010000e+02 -2.449294e-16  7.000000e+01
     vertex  1.009709e+02 -2.393157e-01  7.000000e+01
   endloop
 endfacet
 facet normal  0.000000e+00  0.000000e+00  1.000000e+00
   outer loop
     vertex  1.032545e+02  2.680314e+01  7.000000e+01
     vertex  1.001205e+02  9.927089e-01  7.000000e+01
     vertex  1.003546e+02  9.350162e-01  7.000000e+01
   endloop
 endfacet
 facet normal  0.000000e+00  0.000000e+00  1.000000e+00
   outer loop
     vertex  1.032545e+02  2.680314e+01  7.000000e+01
     vertex  9.987946e+01  9.927089e-01  7.000000e+01
     vertex  1.001205e+02  9.927089e-01  7.000000e+01
   endloop
 endfacet
 facet normal  0.000000e+00  0.000000e+00  1.000000e+00
   outer loop
     vertex  1.032545e+02  2.680314e+01  7.000000e+01
     vertex  9.674551e+01  2.680314e+01  7.000000e+01
     vertex  9.987946e+01  9.927089e-01  7.000000e+01
   endloop
 endfacet
 facet normal  0.000000e+00  0.000000e+00  1.000000e+00
   outer loop
     vertex  1.262154e+02  6.461523e+00  7.000000e+01
     vertex  1.009709e+02  2.393157e-01  7.000000e+01
     vertex  1.270000e+02 -6.613093e-15  7.000000e+01
   endloop
 endfacet
 facet normal  0.000000e+00  0.000000e+00  1.000000e+00
   outer loop
     vertex  1.095743e+02  2.524544e+01  7.000000e+01
     vertex  1.003546e+02  9.350162e-01  7.000000e+01
     vertex  1.005681e+02  8.229839e-01  7.000000e+01
   endloop
 endfacet
 facet normal  0.000000e+00  0.000000e+00  1.000000e+00
   outer loop
     vertex  1.095743e+02  2.524544e+01  7.000000e+01
     vertex  1.032545e+02  2.680314e+01  7.000000e+01
     vertex  1.003546e+02  9.350162e-01  7.000000e+01
   endloop
 endfacet
 facet normal  0.000000e+00  0.000000e+00  1.000000e+00
   outer loop
     vertex  1.239073e+02  1.254753e+01  7.000000e+01
     vertex  1.009709e+02  2.393157e-01  7.000000e+01
     vertex  1.262154e+02  6.461523e+00  7.000000e+01
   endloop
 endfacet
 facet normal  0.000000e+00  0.000000e+00  1.000000e+00
   outer loop
     vertex  1.239073e+02  1.254753e+01  7.000000e+01
     vertex  1.008855e+02  4.647232e-01  7.000000e+01
     vertex  1.009709e+02  2.393157e-01  7.000000e+01
   endloop
 endfacet
 facet normal  0.000000e+00  0.000000e+00  1.000000e+00
   outer loop
     vertex  1.239073e+02  1.254753e+01  7.000000e+01
     vertex  1.007485e+02  6.631227e-01  7.000000e+01
     vertex  1.008855e+02  4.647232e-01  7.000000e+01
   endloop
 endfacet
 facet normal  0.000000e+00  0.000000e+00  1.000000e+00
   outer loop
     vertex  1.153377e+02  2.222056e+01  7.000000e+01
     vertex  1.095743e+02  2.524544e+01  7.000000e+01
     vertex  1.005681e+02  8.229839e-01  7.000000e+01
   endloop
 endfacet
 facet normal  0.000000e+00  0.000000e+00  1.000000e+00
   outer loop
     vertex  1.202098e+02  1.790431e+01  7.000000e+01
     vertex  1.007485e+02  6.631227e-01  7.000000e+01
     vertex  1.239073e+02  1.254753e+01  7.000000e+01
   endloop
 endfacet
 facet normal  0.000000e+00  0.000000e+00  1.000000e+00
   outer loop
     vertex  1.202098e+02  1.790431e+01  7.000000e+01
     vertex  1.005681e+02  8.229839e-01  7.000000e+01
     vertex  1.007485e+02  6.631227e-01  7.000000e+01
   endloop
 endfacet
 facet normal  0.000000e+00  0.000000e+00  1.000000e+00
   outer loop
     vertex  1.202098e+02  1.790431e+01  7.000000e+01
     vertex  1.153377e+02  2.222056e+01  7.000000e+01
     vertex  1.005681e+02  8.229839e-01  7.000000e+01
   endloop
 endfacet
 facet normal -9.927089e-01 -1.205367e-01  0.000000e+00
   outer loop
     vertex  1.009709e+02  2.393157e-01  7.000000e+01
     vertex  1.010000e+02 -2.449294e-16  6.000000e+01
     vertex  1.010000e+02 -2.449294e-16  7.000000e+01
   endloop
 endfacet
 facet normal -9.927089e-01 -1.205367e-01 -0.000000e+00
   outer loop
     vertex  1.009709e+02  2.393157e-01  7.000000e+01
     vertex  1.009709e+02  2.393157e-01  6.000000e+01
     vertex  1.010000e+02 -2.449294e-16  6.000000e+01
   endloop
 endfacet
 facet normal -9.350162e-01 -3.546049e-01 -0.000000e+00
   outer loop
     vertex  1.008855e+02  4.647232e-01  7.000000e+01
     vertex  1.008855e+02  4.647232e-01  6.000000e+01
     vertex  1.009709e+02  2.393157e-01  6.000000e+01
   endloop
 endfacet
 facet normal -8.229839e-01 -5.680647e-01 -0.000000e+00
   outer loop
     vertex  1.008855e+02  4.647232e-01  7.000000e+01
     vertex  1.007485e+02  6.631227e-01  6.000000e+01
     vertex  1.008855e+02  4.647232e-01  6.000000e+01
   endloop
 endfacet
 facet normal -9.350162e-01 -3.546049e-01  0.000000e+00
   outer loop
     vertex  1.008855e+02  4.647232e-01  7.000000e+01
     vertex  1.009709e+02  2.393157e-01  6.000000e+01
     vertex  1.009709e+02  2.393157e-01  7.000000e+01
   endloop
 endfacet
 facet normal -8.229839e-01 -5.680647e-01 -0.000000e+00
   outer loop
     vertex  1.007485e+02  6.631227e-01  7.000000e+01
     vertex  1.007485e+02  6.631227e-01  6.000000e+01
     vertex  1.008855e+02  4.647232e-01  7.000000e+01
   endloop
 endfacet
 facet normal -6.631227e-01 -7.485107e-01 -0.000000e+00
   outer loop
     vertex  1.005681e+02  8.229839e-01  7.000000e+01
     vertex  1.005681e+02  8.229839e-01  6.000000e+01
     vertex  1.007485e+02  6.631227e-01  6.000000e+01
   endloop
 endfacet
 facet normal -6.631227e-01 -7.485107e-01  0.000000e+00
   outer loop
     vertex  1.005681e+02  8.229839e-01  7.000000e+01
     vertex  1.007485e+02  6.631227e-01  6.000000e+01
     vertex  1.007485e+02  6.631227e-01  7.000000e+01
   endloop
 endfacet
 facet normal -4.647232e-01 -8.854560e-01 -0.000000e+00
   outer loop
     vertex  1.003546e+02  9.350162e-01  7.000000e+01
     vertex  1.003546e+02  9.350162e-01  6.000000e+01
     vertex  1.005681e+02  8.229839e-01  6.000000e+01
   endloop
 endfacet
 facet normal -2.393157e-01 -9.709418e-01 -0.000000e+00
   outer loop
     vertex  1.003546e+02  9.350162e-01  7.000000e+01
     vertex  1.001205e+02  9.927089e-01  6.000000e+01
     vertex  1.003546e+02  9.350162e-01  6.000000e+01
   endloop
 endfacet
 facet normal -4.647232e-01 -8.854560e-01  0.000000e+00
   outer loop
     vertex  1.003546e+02  9.350162e-01  7.000000e+01
     vertex  1.005681e+02  8.229839e-01  6.000000e+01
     vertex  1.005681e+02  8.229839e-01  7.000000e+01
   endloop
 endfacet
 facet normal -2.393157e-01 -9.709418e-01 -0.000000e+00
   outer loop
     vertex  1.001205e+02  9.927089e-01  7.000000e+01
     vertex  1.001205e+02  9.927089e-01  6.000000e+01
     vertex  1.003546e+02  9.350162e-01  7.000000e+01
   endloop
 endfacet
 facet normal  0.000000e+00 -1.000000e+00  0.000000e+00
   outer loop
     vertex  9.987946e+01  9.927089e-01  7.000000e+01
     vertex  9.987946e+01  9.927089e-01  6.000000e+01
     vertex  1.001205e+02  9.927089e-01  6.000000e+01
   endloop
 endfacet
 facet normal  0.000000e+00 -1.000000e+00  0.000000e+00
   outer loop
     vertex  9.987946e+01  9.927089e-01  7.000000e+01
     vertex  1.001205e+02  9.927089e-01  6.000000e+01
     vertex  1.001205e+02  9.927089e-01  7.000000e+01
   endloop
 endfacet
 facet normal  2.393157e-01 -9.709418e-01  0.000000e+00
   outer loop
     vertex  9.964540e+01  9.350162e-01  7.000000e+01
     vertex  9.964540e+01  9.350162e-01  6.000000e+01
     vertex  9.987946e+01  9.927089e-01  6.000000e+01
   endloop
 endfacet
 facet normal  2.393157e-01 -9.709418e-01  0.000000e+00
   outer loop
     vertex  9.964540e+01  9.350162e-01  7.000000e+01
     vertex  9.987946e+01  9.927089e-01  6.000000e+01
     vertex  9.987946e+01  9.927089e-01  7.000000e+01
   endloop
 endfacet
 facet normal  4.647232e-01 -8.854560e-01  0.000000e+00
   outer loop
     vertex  9.943194e+01  8.229839e-01  7.000000e+01
     vertex  9.943194e+01  8.229839e-01  6.000000e+01
     vertex  9.964540e+01  9.350162e-01  6.000000e+01
   endloop
 endfacet
 facet normal  4.647232e-01 -8.854560e-01  0.000000e+00
   outer loop
     vertex  9.943194e+01  8.229839e-01  7.000000e+01
     vertex  9.964540e+01  9.350162e-01  6.000000e+01
     vertex  9.964540e+01  9.350162e-01  7.000000e+01
   endloop
 endfacet
 facet normal  6.631227e-01 -7.485107e-01  0.000000e+00
   outer loop
     vertex  9.925149e+01  6.631227e-01  7.000000e+01
     vertex  9.925149e+01  6.631227e-01  6.000000e+01
     vertex  9.943194e+01  8.229839e-01  6.000000e+01
   endloop
 endfacet
 facet normal  8.229839e-01 -5.680647e-01  0.000000e+00
   outer loop
     vertex  9.925149e+01  6.631227e-01  7.000000e+01
     vertex  9.911454e+01  4.647232e-01  6.000000e+01
     vertex  9.925149e+01  6.631227e-01  6.000000e+01
   endloop
 endfacet
 facet normal  6.631227e-01 -7.485107e-01  0.000000e+00
   outer loop
     vertex  9.925149e+01  6.631227e-01  7.000000e+01
     vertex  9.943194e+01  8.229839e-01  6.000000e+01
     vertex  9.943194e+01  8.229839e-01  7.000000e+01
   endloop
 endfacet
 facet normal  8.229839e-01 -5.680647e-01  0.000000e+00
   outer loop
     vertex  9.911454e+01  4.647232e-01  7.000000e+01
     vertex  9.911454e+01  4.647232e-01  6.000000e+01
     vertex  9.925149e+01  6.631227e-01  7.000000e+01
   endloop
 endfacet
 facet normal  9.350162e-01 -3.546049e-01  0.000000e+00
   outer loop
     vertex  9.911454e+01  4.647232e-01  7.000000e+01
     vertex  9.902906e+01  2.393157e-01  6.000000e+01
     vertex  9.911454e+01  4.647232e-01  6.000000e+01
   endloop
 endfacet
 facet normal  9.350162e-01 -3.546049e-01  0.000000e+00
   outer loop
     vertex  9.902906e+01  2.393157e-01  7.000000e+01
     vertex  9.902906e+01  2.393157e-01  6.000000e+01
     vertex  9.911454e+01  4.647232e-01  7.000000e+01
   endloop
 endfacet
 facet normal  9.927089e-01 -1.205367e-01  0.000000e+00
   outer loop
     vertex  9.900000e+01  1.010643e-15  7.000000e+01
     vertex  9.902906e+01  2.393157e-01  6.000000e+01
     vertex  9.902906e+01  2.393157e-01  7.000000e+01
   endloop
 endfacet
 facet normal  9.927089e-01 -1.205367e-01  0.000000e+00
   outer loop
     vertex  9.900000e+01  1.010643e-15  7.000000e+01
     vertex  9.900000e+01  1.010643e-15  6.000000e+01
     vertex  9.902906e+01  2.393157e-01  6.000000e+01
   endloop
 endfacet
 facet normal  9.927089e-01  1.205367e-01  0.000000e+00
   outer loop
     vertex  9.900000e+01  1.010643e-15  7.000000e+01
     vertex  9.902906e+01 -2.393157e-01  6.000000e+01
     vertex  9.900000e+01  1.010643e-15  6.000000e+01
   endloop
 endfacet
 facet normal  9.927089e-01  1.205367e-01  0.000000e+00
   outer loop
     vertex  9.902906e+01 -2.393157e-01  7.000000e+01
     vertex  9.902906e+01 -2.393157e-01  6.000000e+01
     vertex  9.900000e+01  1.010643e-15  7.000000e+01
   endloop
 endfacet
 facet normal  9.350162e-01  3.546049e-01  0.000000e+00
   outer loop
     vertex  9.902906e+01 -2.393157e-01  7.000000e+01
     vertex  9.911454e+01 -4.647232e-01  6.000000e+01
     vertex  9.902906e+01 -2.393157e-01  6.000000e+01
   endloop
 endfacet
 facet normal  9.350162e-01  3.546049e-01  0.000000e+00
   outer loop
     vertex  9.911454e+01 -4.647232e-01  7.000000e+01
     vertex  9.911454e+01 -4.647232e-01  6.000000e+01
     vertex  9.902906e+01 -2.393157e-01  7.000000e+01
   endloop
 endfacet
 facet normal  8.229839e-01  5.680647e-01  0.000000e+00
   outer loop
     vertex  9.925149e+01 -6.631227e-01  7.000000e+01
     vertex  9.911454e+01 -4.647232e-01  6.000000e+01
     vertex  9.911454e+01 -4.647232e-01  7.000000e+01
   endloop
 endfacet
 facet normal  8.229839e-01  5.680647e-01  0.000000e+00
   outer loop
     vertex  9.925149e+01 -6.631227e-01  7.000000e+01
     vertex  9.925149e+01 -6.631227e-01  6.000000e+01
     vertex  9.911454e+01 -4.647232e-01  6.000000e+01
   endloop
 endfacet
 facet normal  6.631227e-01  7.485107e-01  0.000000e+00
   outer loop
     vertex  9.943194e+01 -8.229839e-01  7.000000e+01
     vertex  9.925149e+01 -6.631227e-01  6.000000e+01
     vertex  9.925149e+01 -6.631227e-01  7.000000e+01
   endloop
 endfacet
 facet normal  6.631227e-01  7.485107e-01  0.000000e+00
   outer loop
     vertex  9.943194e+01 -8.229839e-01  7.000000e+01
     vertex  9.943194e+01 -8.229839e-01  6.000000e+01
     vertex  9.925149e+01 -6.631227e-01  6.000000e+01
   endloop
 endfacet
 facet normal  4.647232e-01  8.854560e-01  0.000000e+00
   outer loop
     vertex  9.964540e+01 -9.350162e-01  7.000000e+01
     vertex  9.943194e+01 -8.229839e-01  6.000000e+01
     vertex  9.943194e+01 -8.229839e-01  7.000000e+01
   endloop
 endfacet
 facet normal  4.647232e-01  8.854560e-01  0.000000e+00
   outer loop
     vertex  9.964540e+01 -9.350162e-01  7.000000e+01
     vertex  9.964540e+01 -9.350162e-01  6.000000e+01
     vertex  9.943194e+01 -8.229839e-01  6.000000e+01
   endloop
 endfacet
 facet normal  2.393157e-01  9.709418e-01  0.000000e+00
   outer loop
     vertex  9.987946e+01 -9.927089e-01  7.000000e+01
     vertex  9.964540e+01 -9.350162e-01  6.000000e+01
     vertex  9.964540e+01 -9.350162e-01  7.000000e+01
   endloop
 endfacet
 facet normal  2.393157e-01  9.709418e-01  0.000000e+00
   outer loop
     vertex  9.987946e+01 -9.927089e-01  7.000000e+01
     vertex  9.987946e+01 -9.927089e-01  6.000000e+01
     vertex  9.964540e+01 -9.350162e-01  6.000000e+01
   endloop
 endfacet
 facet normal  2.302666e-15  1.000000e+00  0.000000e+00
   outer loop
     vertex  9.987946e+01 -9.927089e-01  7.000000e+01
     vertex  1.001205e+02 -9.927089e-01  6.000000e+01
     vertex  9.987946e+01 -9.927089e-01  6.000000e+01
   endloop
 endfacet
 facet normal  2.302666e-15  1.000000e+00  0.000000e+00
   outer loop
     vertex  1.001205e+02 -9.927089e-01  7.000000e+01
     vertex  1.001205e+02 -9.927089e-01  6.000000e+01
     vertex  9.987946e+01 -9.927089e-01  7.000000e+01
   endloop
 endfacet
 facet normal -2.393157e-01  9.709418e-01  0.000000e+00
   outer loop
     vertex  1.003546e+02 -9.350162e-01  7.000000e+01
     vertex  1.001205e+02 -9.927089e-01  6.000000e+01
     vertex  1.001205e+02 -9.927089e-01  7.000000e+01
   endloop
 endfacet
 facet normal -2.393157e-01  9.709418e-01  0.000000e+00
   outer loop
     vertex  1.003546e+02 -9.350162e-01  7.000000e+01
     vertex  1.003546e+02 -9.350162e-01  6.000000e+01
     vertex  1.001205e+02 -9.927089e-01  6.000000e+01
   endloop
 endfacet
 facet normal -4.647232e-01  8.854560e-01  0.000000e+00
   outer loop
     vertex  1.005681e+02 -8.229839e-01  7.000000e+01
     vertex  1.003546e+02 -9.350162e-01  6.000000e+01
     vertex  1.003546e+02 -9.350162e-01  7.000000e+01
   endloop
 endfacet
 facet normal -4.647232e-01  8.854560e-01  0.000000e+00
   outer loop
     vertex  1.005681e+02 -8.229839e-01  7.000000e+01
     vertex  1.005681e+02 -8.229839e-01  6.000000e+01
     vertex  1.003546e+02 -9.350162e-01  6.000000e+01
   endloop
 endfacet
 facet normal -6.631227e-01  7.485107e-01  0.000000e+00
   outer loop
     vertex  1.005681e+02 -8.229839e-01  7.000000e+01
     vertex  1.007485e+02 -6.631227e-01  6.000000e+01
     vertex  1.005681e+02 -8.229839e-01  6.000000e+01
   endloop
 endfacet
 facet normal -6.631227e-01  7.485107e-01  0.000000e+00
   outer loop
     vertex  1.007485e+02 -6.631227e-01  7.000000e+01
     vertex  1.007485e+02 -6.631227e-01  6.000000e+01
     vertex  1.005681e+02 -8.229839e-01  7.000000e+01
   endloop
 endfacet
 facet normal -8.229839e-01  5.680647e-01  0.000000e+00
   outer loop
     vertex  1.007485e+02 -6.631227e-01  7.000000e+01
     vertex  1.008855e+02 -4.647232e-01  6.000000e+01
     vertex  1.007485e+02 -6.631227e-01  6.000000e+01
   endloop
 endfacet
 facet normal -8.229839e-01  5.680647e-01  0.000000e+00
   outer loop
     vertex  1.008855e+02 -4.647232e-01  7.000000e+01
     vertex  1.008855e+02 -4.647232e-01  6.000000e+01
     vertex  1.007485e+02 -6.631227e-01  7.000000e+01
   endloop
 endfacet
 facet normal -9.350162e-01  3.546049e-01  0.000000e+00
   outer loop
     vertex  1.009709e+02 -2.393157e-01  7.000000e+01
     vertex  1.009709e+02 -2.393157e-01  6.000000e+01
     vertex  1.008855e+02 -4.647232e-01  6.000000e+01
   endloop
 endfacet
 facet normal -9.927089e-01  1.205367e-01  0.000000e+00
   outer loop
     vertex  1.009709e+02 -2.393157e-01  7.000000e+01
     vertex  1.010000e+02 -2.449294e-16  6.000000e+01
     vertex  1.009709e+02 -2.393157e-01  6.000000e+01
   endloop
 endfacet
 facet normal -9.350162e-01  3.546049e-01  0.000000e+00
   outer loop
     vertex  1.009709e+02 -2.393157e-01  7.000000e+01
     vertex  1.008855e+02 -4.647232e-01  6.000000e+01
     vertex  1.008855e+02 -4.647232e-01  7.000000e+01
   endloop
 endfacet
 facet normal -9.927089e-01  1.205367e-01  0.000000e+00
   outer loop
     vertex  1.010000e+02 -2.449294e-16  7.000000e+01
     vertex  1.010000e+02 -2.449294e-16  6.000000e+01
     vertex  1.009709e+02 -2.393157e-01  7.000000e+01
   endloop
 endfacet
endsolid
