solid 
 facet normal -0.000000e+00  0.000000e+00 -1.000000e+00
   outer loop
     vertex -2.272259e+00 -3.291935e+00 -1.000000e+01
     vertex -5.303301e+00 -5.303301e+00 -1.000000e+01
     vertex -2.994043e+00 -2.652491e+00 -1.000000e+01
   endloop
 endfacet
 facet normal -0.000000e+00  0.000000e+00 -1.000000e+00
   outer loop
     vertex -3.541824e+00 -1.858893e+00 -1.000000e+01
     vertex -5.303301e+00 -5.303301e+00 -1.000000e+01
     vertex -7.500000e+00  9.184851e-16 -1.000000e+01
   endloop
 endfacet
 facet normal  0.000000e+00 -0.000000e+00 -1.000000e+00
   outer loop
     vertex -3.541824e+00 -1.858893e+00 -1.000000e+01
     vertex -2.994043e+00 -2.652491e+00 -1.000000e+01
     vertex -5.303301e+00 -5.303301e+00 -1.000000e+01
   endloop
 endfacet
 facet normal  0.000000e+00 -0.000000e+00 -1.000000e+00
   outer loop
     vertex -1.418420e+00 -3.740065e+00 -1.000000e+01
     vertex -1.377728e-15 -7.500000e+00 -1.000000e+01
     vertex -5.303301e+00 -5.303301e+00 -1.000000e+01
   endloop
 endfacet
 facet normal -0.000000e+00  0.000000e+00 -1.000000e+00
   outer loop
     vertex -1.418420e+00 -3.740065e+00 -1.000000e+01
     vertex -5.303301e+00 -5.303301e+00 -1.000000e+01
     vertex -2.272259e+00 -3.291935e+00 -1.000000e+01
   endloop
 endfacet
 facet normal -0.000000e+00 -0.000000e+00 -1.000000e+00
   outer loop
     vertex -3.883767e+00 -9.572627e-01 -1.000000e+01
     vertex -3.541824e+00 -1.858893e+00 -1.000000e+01
     vertex -7.500000e+00  9.184851e-16 -1.000000e+01
   endloop
 endfacet
 facet normal -0.000000e+00 -0.000000e+00 -1.000000e+00
   outer loop
     vertex -4.821467e-01 -3.970835e+00 -1.000000e+01
     vertex -1.377728e-15 -7.500000e+00 -1.000000e+01
     vertex -1.418420e+00 -3.740065e+00 -1.000000e+01
   endloop
 endfacet
 facet normal  0.000000e+00 -0.000000e+00 -1.000000e+00
   outer loop
     vertex -4.000000e+00  4.042572e-15 -1.000000e+01
     vertex -3.883767e+00 -9.572627e-01 -1.000000e+01
     vertex -7.500000e+00  9.184851e-16 -1.000000e+01
   endloop
 endfacet
 facet normal -0.000000e+00  0.000000e+00 -1.000000e+00
   outer loop
     vertex  4.821467e-01 -3.970835e+00 -1.000000e+01
     vertex -1.377728e-15 -7.500000e+00 -1.000000e+01
     vertex -4.821467e-01 -3.970835e+00 -1.000000e+01
   endloop
 endfacet
 facet normal  0.000000e+00  0.000000e+00 -1.000000e+00
   outer loop
     vertex -3.883767e+00  9.572627e-01 -1.000000e+01
     vertex -4.000000e+00  4.042572e-15 -1.000000e+01
     vertex -7.500000e+00  9.184851e-16 -1.000000e+01
   endloop
 endfacet
 facet normal  0.000000e+00  0.000000e+00 -1.000000e+00
   outer loop
     vertex  1.418420e+00 -3.740065e+00 -1.000000e+01
     vertex -1.377728e-15 -7.500000e+00 -1.000000e+01
     vertex  4.821467e-01 -3.970835e+00 -1.000000e+01
   endloop
 endfacet
 facet normal  0.000000e+00  0.000000e+00 -1.000000e+00
   outer loop
     vertex -3.541824e+00  1.858893e+00 -1.000000e+01
     vertex -3.883767e+00  9.572627e-01 -1.000000e+01
     vertex -7.500000e+00  9.184851e-16 -1.000000e+01
   endloop
 endfacet
 facet normal  0.000000e+00  0.000000e+00 -1.000000e+00
   outer loop
     vertex  5.303301e+00 -5.303301e+00 -1.000000e+01
     vertex  1.418420e+00 -3.740065e+00 -1.000000e+01
     vertex  2.272259e+00 -3.291935e+00 -1.000000e+01
   endloop
 endfacet
 facet normal -0.000000e+00  0.000000e+00 -1.000000e+00
   outer loop
     vertex  5.303301e+00 -5.303301e+00 -1.000000e+01
     vertex -1.377728e-15 -7.500000e+00 -1.000000e+01
     vertex  1.418420e+00 -3.740065e+00 -1.000000e+01
   endloop
 endfacet
 facet normal  0.000000e+00  0.000000e+00 -1.000000e+00
   outer loop
     vertex -5.303301e+00  5.303301e+00 -1.000000e+01
     vertex -2.994043e+00  2.652491e+00 -1.000000e+01
     vertex -3.541824e+00  1.858893e+00 -1.000000e+01
   endloop
 endfacet
 facet normal  0.000000e+00 -0.000000e+00 -1.000000e+00
   outer loop
     vertex -5.303301e+00  5.303301e+00 -1.000000e+01
     vertex -3.541824e+00  1.858893e+00 -1.000000e+01
     vertex -7.500000e+00  9.184851e-16 -1.000000e+01
   endloop
 endfacet
 facet normal  0.000000e+00 -0.000000e+00 -1.000000e+00
   outer loop
     vertex  2.994043e+00 -2.652491e+00 -1.000000e+01
     vertex  5.303301e+00 -5.303301e+00 -1.000000e+01
     vertex  2.272259e+00 -3.291935e+00 -1.000000e+01
   endloop
 endfacet
 facet normal -0.000000e+00  0.000000e+00 -1.000000e+00
   outer loop
     vertex -2.272259e+00  3.291935e+00 -1.000000e+01
     vertex -2.994043e+00  2.652491e+00 -1.000000e+01
     vertex -5.303301e+00  5.303301e+00 -1.000000e+01
   endloop
 endfacet
 facet normal  0.000000e+00 -0.000000e+00 -1.000000e+00
   outer loop
     vertex  3.541824e+00 -1.858893e+00 -1.000000e+01
     vertex  5.303301e+00 -5.303301e+00 -1.000000e+01
     vertex  2.994043e+00 -2.652491e+00 -1.000000e+01
   endloop
 endfacet
 facet normal -0.000000e+00  0.000000e+00 -1.000000e+00
   outer loop
     vertex -1.418420e+00  3.740065e+00 -1.000000e+01
     vertex -2.272259e+00  3.291935e+00 -1.000000e+01
     vertex -5.303301e+00  5.303301e+00 -1.000000e+01
   endloop
 endfacet
 facet normal -0.000000e+00  0.000000e+00 -1.000000e+00
   outer loop
     vertex  7.500000e+00  0.000000e+00 -1.000000e+01
     vertex  4.000000e+00 -9.797174e-16 -1.000000e+01
     vertex  3.883767e+00  9.572627e-01 -1.000000e+01
   endloop
 endfacet
 facet normal  0.000000e+00  0.000000e+00 -1.000000e+00
   outer loop
     vertex  7.500000e+00  0.000000e+00 -1.000000e+01
     vertex  3.883767e+00  9.572627e-01 -1.000000e+01
     vertex  3.541824e+00  1.858893e+00 -1.000000e+01
   endloop
 endfacet
 facet normal  0.000000e+00  0.000000e+00 -1.000000e+00
   outer loop
     vertex  7.500000e+00  0.000000e+00 -1.000000e+01
     vertex  3.541824e+00 -1.858893e+00 -1.000000e+01
     vertex  3.883767e+00 -9.572627e-01 -1.000000e+01
   endloop
 endfacet
 facet normal  0.000000e+00  0.000000e+00 -1.000000e+00
   outer loop
     vertex  7.500000e+00  0.000000e+00 -1.000000e+01
     vertex  3.883767e+00 -9.572627e-01 -1.000000e+01
     vertex  4.000000e+00 -9.797174e-16 -1.000000e+01
   endloop
 endfacet
 facet normal  0.000000e+00  0.000000e+00 -1.000000e+00
   outer loop
     vertex  7.500000e+00  0.000000e+00 -1.000000e+01
     vertex  5.303301e+00 -5.303301e+00 -1.000000e+01
     vertex  3.541824e+00 -1.858893e+00 -1.000000e+01
   endloop
 endfacet
 facet normal  0.000000e+00  0.000000e+00 -1.000000e+00
   outer loop
     vertex  4.592425e-16  7.500000e+00 -1.000000e+01
     vertex  1.418420e+00  3.740065e+00 -1.000000e+01
     vertex  4.821467e-01  3.970835e+00 -1.000000e+01
   endloop
 endfacet
 facet normal  0.000000e+00 -0.000000e+00 -1.000000e+00
   outer loop
     vertex  4.592425e-16  7.500000e+00 -1.000000e+01
     vertex  4.821467e-01  3.970835e+00 -1.000000e+01
     vertex -4.821467e-01  3.970835e+00 -1.000000e+01
   endloop
 endfacet
 facet normal  0.000000e+00  0.000000e+00 -1.000000e+00
   outer loop
     vertex  4.592425e-16  7.500000e+00 -1.000000e+01
     vertex -4.821467e-01  3.970835e+00 -1.000000e+01
     vertex -1.418420e+00  3.740065e+00 -1.000000e+01
   endloop
 endfacet
 facet normal  0.000000e+00  0.000000e+00 -1.000000e+00
   outer loop
     vertex  4.592425e-16  7.500000e+00 -1.000000e+01
     vertex -1.418420e+00  3.740065e+00 -1.000000e+01
     vertex -5.303301e+00  5.303301e+00 -1.000000e+01
   endloop
 endfacet
 facet normal  0.000000e+00  0.000000e+00 -1.000000e+00
   outer loop
     vertex  5.303301e+00  5.303301e+00 -1.000000e+01
     vertex  3.541824e+00  1.858893e+00 -1.000000e+01
     vertex  2.994043e+00  2.652491e+00 -1.000000e+01
   endloop
 endfacet
 facet normal  0.000000e+00  0.000000e+00 -1.000000e+00
   outer loop
     vertex  5.303301e+00  5.303301e+00 -1.000000e+01
     vertex  2.994043e+00  2.652491e+00 -1.000000e+01
     vertex  2.272259e+00  3.291935e+00 -1.000000e+01
   endloop
 endfacet
 facet normal  0.000000e+00  0.000000e+00 -1.000000e+00
   outer loop
     vertex  5.303301e+00  5.303301e+00 -1.000000e+01
     vertex  2.272259e+00  3.291935e+00 -1.000000e+01
     vertex  1.418420e+00  3.740065e+00 -1.000000e+01
   endloop
 endfacet
 facet normal -0.000000e+00  0.000000e+00 -1.000000e+00
   outer loop
     vertex  5.303301e+00  5.303301e+00 -1.000000e+01
     vertex  1.418420e+00  3.740065e+00 -1.000000e+01
     vertex  4.592425e-16  7.500000e+00 -1.000000e+01
   endloop
 endfacet
 facet normal  0.000000e+00 -0.000000e+00 -1.000000e+00
   outer loop
     vertex  5.303301e+00  5.303301e+00 -1.000000e+01
     vertex  7.500000e+00  0.000000e+00 -1.000000e+01
     vertex  3.541824e+00  1.858893e+00 -1.000000e+01
   endloop
 endfacet
 facet normal  0.000000e+00  0.000000e+00 -1.000000e+00
   outer loop
     vertex -5.303301e+00 -5.303301e+00 -1.000000e+01
     vertex -9.730640e+00 -8.620595e+00 -1.000000e+01
     vertex -1.151093e+01 -6.041401e+00 -1.000000e+01
   endloop
 endfacet
 facet normal  0.000000e+00  0.000000e+00 -1.000000e+00
   outer loop
     vertex -5.303301e+00 -5.303301e+00 -1.000000e+01
     vertex -7.384842e+00 -1.069879e+01 -1.000000e+01
     vertex -9.730640e+00 -8.620595e+00 -1.000000e+01
   endloop
 endfacet
 facet normal  0.000000e+00 -0.000000e+00 -1.000000e+00
   outer loop
     vertex -5.303301e+00 -5.303301e+00 -1.000000e+01
     vertex -4.609864e+00 -1.215521e+01 -1.000000e+01
     vertex -7.384842e+00 -1.069879e+01 -1.000000e+01
   endloop
 endfacet
 facet normal  0.000000e+00  0.000000e+00 -1.000000e+00
   outer loop
     vertex -1.377728e-15 -7.500000e+00 -1.000000e+01
     vertex -1.566977e+00 -1.290522e+01 -1.000000e+01
     vertex -4.609864e+00 -1.215521e+01 -1.000000e+01
   endloop
 endfacet
 facet normal  0.000000e+00 -0.000000e+00 -1.000000e+00
   outer loop
     vertex -1.377728e-15 -7.500000e+00 -1.000000e+01
     vertex  1.566977e+00 -1.290522e+01 -1.000000e+01
     vertex -1.566977e+00 -1.290522e+01 -1.000000e+01
   endloop
 endfacet
 facet normal  0.000000e+00  0.000000e+00 -1.000000e+00
   outer loop
     vertex -1.377728e-15 -7.500000e+00 -1.000000e+01
     vertex  4.609864e+00 -1.215521e+01 -1.000000e+01
     vertex  1.566977e+00 -1.290522e+01 -1.000000e+01
   endloop
 endfacet
 facet normal -0.000000e+00  0.000000e+00 -1.000000e+00
   outer loop
     vertex -1.377728e-15 -7.500000e+00 -1.000000e+01
     vertex -4.609864e+00 -1.215521e+01 -1.000000e+01
     vertex -5.303301e+00 -5.303301e+00 -1.000000e+01
   endloop
 endfacet
 facet normal  0.000000e+00  0.000000e+00 -1.000000e+00
   outer loop
     vertex -7.500000e+00  9.184851e-16 -1.000000e+01
     vertex -1.300000e+01  1.313836e-14 -1.000000e+01
     vertex -1.262224e+01  3.111104e+00 -1.000000e+01
   endloop
 endfacet
 facet normal -0.000000e+00  0.000000e+00 -1.000000e+00
   outer loop
     vertex -7.500000e+00  9.184851e-16 -1.000000e+01
     vertex -1.262224e+01 -3.111104e+00 -1.000000e+01
     vertex -1.300000e+01  1.313836e-14 -1.000000e+01
   endloop
 endfacet
 facet normal  0.000000e+00  0.000000e+00 -1.000000e+00
   outer loop
     vertex -7.500000e+00  9.184851e-16 -1.000000e+01
     vertex -1.151093e+01 -6.041401e+00 -1.000000e+01
     vertex -1.262224e+01 -3.111104e+00 -1.000000e+01
   endloop
 endfacet
 facet normal  0.000000e+00 -0.000000e+00 -1.000000e+00
   outer loop
     vertex -7.500000e+00  9.184851e-16 -1.000000e+01
     vertex -5.303301e+00 -5.303301e+00 -1.000000e+01
     vertex -1.151093e+01 -6.041401e+00 -1.000000e+01
   endloop
 endfacet
 facet normal  0.000000e+00 -0.000000e+00 -1.000000e+00
   outer loop
     vertex -1.151093e+01  6.041401e+00 -1.000000e+01
     vertex -7.500000e+00  9.184851e-16 -1.000000e+01
     vertex -1.262224e+01  3.111104e+00 -1.000000e+01
   endloop
 endfacet
 facet normal  0.000000e+00 -0.000000e+00 -1.000000e+00
   outer loop
     vertex  5.303301e+00 -5.303301e+00 -1.000000e+01
     vertex  7.384842e+00 -1.069879e+01 -1.000000e+01
     vertex  4.609864e+00 -1.215521e+01 -1.000000e+01
   endloop
 endfacet
 facet normal  0.000000e+00  0.000000e+00 -1.000000e+00
   outer loop
     vertex  5.303301e+00 -5.303301e+00 -1.000000e+01
     vertex  4.609864e+00 -1.215521e+01 -1.000000e+01
     vertex -1.377728e-15 -7.500000e+00 -1.000000e+01
   endloop
 endfacet
 facet normal  0.000000e+00  0.000000e+00 -1.000000e+00
   outer loop
     vertex -5.303301e+00  5.303301e+00 -1.000000e+01
     vertex -1.151093e+01  6.041401e+00 -1.000000e+01
     vertex -9.730640e+00  8.620595e+00 -1.000000e+01
   endloop
 endfacet
 facet normal -0.000000e+00  0.000000e+00 -1.000000e+00
   outer loop
     vertex -5.303301e+00  5.303301e+00 -1.000000e+01
     vertex -7.500000e+00  9.184851e-16 -1.000000e+01
     vertex -1.151093e+01  6.041401e+00 -1.000000e+01
   endloop
 endfacet
 facet normal -0.000000e+00  0.000000e+00 -1.000000e+00
   outer loop
     vertex  9.730640e+00 -8.620595e+00 -1.000000e+01
     vertex  7.384842e+00 -1.069879e+01 -1.000000e+01
     vertex  5.303301e+00 -5.303301e+00 -1.000000e+01
   endloop
 endfacet
 facet normal  0.000000e+00 -0.000000e+00 -1.000000e+00
   outer loop
     vertex -7.384842e+00  1.069879e+01 -1.000000e+01
     vertex -5.303301e+00  5.303301e+00 -1.000000e+01
     vertex -9.730640e+00  8.620595e+00 -1.000000e+01
   endloop
 endfacet
 facet normal -0.000000e+00  0.000000e+00 -1.000000e+00
   outer loop
     vertex  1.151093e+01 -6.041401e+00 -1.000000e+01
     vertex  9.730640e+00 -8.620595e+00 -1.000000e+01
     vertex  5.303301e+00 -5.303301e+00 -1.000000e+01
   endloop
 endfacet
 facet normal  0.000000e+00 -0.000000e+00 -1.000000e+00
   outer loop
     vertex  7.500000e+00  0.000000e+00 -1.000000e+01
     vertex  1.151093e+01 -6.041401e+00 -1.000000e+01
     vertex  5.303301e+00 -5.303301e+00 -1.000000e+01
   endloop
 endfacet
 facet normal  0.000000e+00 -0.000000e+00 -1.000000e+00
   outer loop
     vertex -4.609864e+00  1.215521e+01 -1.000000e+01
     vertex  4.592425e-16  7.500000e+00 -1.000000e+01
     vertex -5.303301e+00  5.303301e+00 -1.000000e+01
   endloop
 endfacet
 facet normal  0.000000e+00  0.000000e+00 -1.000000e+00
   outer loop
     vertex -4.609864e+00  1.215521e+01 -1.000000e+01
     vertex -5.303301e+00  5.303301e+00 -1.000000e+01
     vertex -7.384842e+00  1.069879e+01 -1.000000e+01
   endloop
 endfacet
 facet normal -0.000000e+00  0.000000e+00 -1.000000e+00
   outer loop
     vertex  1.262224e+01 -3.111104e+00 -1.000000e+01
     vertex  1.151093e+01 -6.041401e+00 -1.000000e+01
     vertex  7.500000e+00  0.000000e+00 -1.000000e+01
   endloop
 endfacet
 facet normal  0.000000e+00 -0.000000e+00 -1.000000e+00
   outer loop
     vertex -1.566977e+00  1.290522e+01 -1.000000e+01
     vertex  4.592425e-16  7.500000e+00 -1.000000e+01
     vertex -4.609864e+00  1.215521e+01 -1.000000e+01
   endloop
 endfacet
 facet normal -0.000000e+00  0.000000e+00 -1.000000e+00
   outer loop
     vertex  1.300000e+01 -3.184082e-15 -1.000000e+01
     vertex  1.262224e+01 -3.111104e+00 -1.000000e+01
     vertex  7.500000e+00  0.000000e+00 -1.000000e+01
   endloop
 endfacet
 facet normal -0.000000e+00  0.000000e+00 -1.000000e+00
   outer loop
     vertex  1.566977e+00  1.290522e+01 -1.000000e+01
     vertex  4.592425e-16  7.500000e+00 -1.000000e+01
     vertex -1.566977e+00  1.290522e+01 -1.000000e+01
   endloop
 endfacet
 facet normal  0.000000e+00 -0.000000e+00 -1.000000e+00
   outer loop
     vertex  1.262224e+01  3.111104e+00 -1.000000e+01
     vertex  1.300000e+01 -3.184082e-15 -1.000000e+01
     vertex  7.500000e+00  0.000000e+00 -1.000000e+01
   endloop
 endfacet
 facet normal  0.000000e+00 -0.000000e+00 -1.000000e+00
   outer loop
     vertex  4.609864e+00  1.215521e+01 -1.000000e+01
     vertex  5.303301e+00  5.303301e+00 -1.000000e+01
     vertex  4.592425e-16  7.500000e+00 -1.000000e+01
   endloop
 endfacet
 facet normal -0.000000e+00  0.000000e+00 -1.000000e+00
   outer loop
     vertex  4.609864e+00  1.215521e+01 -1.000000e+01
     vertex  4.592425e-16  7.500000e+00 -1.000000e+01
     vertex  1.566977e+00  1.290522e+01 -1.000000e+01
   endloop
 endfacet
 facet normal  0.000000e+00  0.000000e+00 -1.000000e+00
   outer loop
     vertex  1.151093e+01  6.041401e+00 -1.000000e+01
     vertex  7.500000e+00  0.000000e+00 -1.000000e+01
     vertex  5.303301e+00  5.303301e+00 -1.000000e+01
   endloop
 endfacet
 facet normal  0.000000e+00 -0.000000e+00 -1.000000e+00
   outer loop
     vertex  1.151093e+01  6.041401e+00 -1.000000e+01
     vertex  1.262224e+01  3.111104e+00 -1.000000e+01
     vertex  7.500000e+00  0.000000e+00 -1.000000e+01
   endloop
 endfacet
 facet normal -0.000000e+00  0.000000e+00 -1.000000e+00
   outer loop
     vertex  7.384842e+00  1.069879e+01 -1.000000e+01
     vertex  5.303301e+00  5.303301e+00 -1.000000e+01
     vertex  4.609864e+00  1.215521e+01 -1.000000e+01
   endloop
 endfacet
 facet normal -0.000000e+00  0.000000e+00 -1.000000e+00
   outer loop
     vertex  9.730640e+00  8.620595e+00 -1.000000e+01
     vertex  5.303301e+00  5.303301e+00 -1.000000e+01
     vertex  7.384842e+00  1.069879e+01 -1.000000e+01
   endloop
 endfacet
 facet normal  0.000000e+00 -0.000000e+00 -1.000000e+00
   outer loop
     vertex  9.730640e+00  8.620595e+00 -1.000000e+01
     vertex  1.151093e+01  6.041401e+00 -1.000000e+01
     vertex  5.303301e+00  5.303301e+00 -1.000000e+01
   endloop
 endfacet
 facet normal -9.927089e-01 -1.205367e-01  0.000000e+00
   outer loop
     vertex  3.883767e+00  9.572627e-01  1.440000e+02
     vertex  4.000000e+00 -9.797174e-16 -1.000000e+01
     vertex  4.000000e+00 -9.797174e-16  1.440000e+02
   endloop
 endfacet
 facet normal -9.927089e-01 -1.205367e-01 -0.000000e+00
   outer loop
     vertex  3.883767e+00  9.572627e-01  1.440000e+02
     vertex  3.883767e+00  9.572627e-01 -1.000000e+01
     vertex  4.000000e+00 -9.797174e-16 -1.000000e+01
   endloop
 endfacet
 facet normal -9.350162e-01 -3.546049e-01 -0.000000e+00
   outer loop
     vertex  3.541824e+00  1.858893e+00  1.440000e+02
     vertex  3.541824e+00  1.858893e+00 -1.000000e+01
     vertex  3.883767e+00  9.572627e-01 -1.000000e+01
   endloop
 endfacet
 facet normal -9.350162e-01 -3.546049e-01  0.000000e+00
   outer loop
     vertex  3.541824e+00  1.858893e+00  1.440000e+02
     vertex  3.883767e+00  9.572627e-01 -1.000000e+01
     vertex  3.883767e+00  9.572627e-01  1.440000e+02
   endloop
 endfacet
 facet normal -8.229839e-01 -5.680647e-01 -0.000000e+00
   outer loop
     vertex  2.994043e+00  2.652491e+00  1.440000e+02
     vertex  2.994043e+00  2.652491e+00 -1.000000e+01
     vertex  3.541824e+00  1.858893e+00 -1.000000e+01
   endloop
 endfacet
 facet normal -8.229839e-01 -5.680647e-01  0.000000e+00
   outer loop
     vertex  2.994043e+00  2.652491e+00  1.440000e+02
     vertex  3.541824e+00  1.858893e+00 -1.000000e+01
     vertex  3.541824e+00  1.858893e+00  1.440000e+02
   endloop
 endfacet
 facet normal -6.631227e-01 -7.485107e-01 -0.000000e+00
   outer loop
     vertex  2.272259e+00  3.291935e+00  1.440000e+02
     vertex  2.272259e+00  3.291935e+00 -1.000000e+01
     vertex  2.994043e+00  2.652491e+00 -1.000000e+01
   endloop
 endfacet
 facet normal -6.631227e-01 -7.485107e-01  0.000000e+00
   outer loop
     vertex  2.272259e+00  3.291935e+00  1.440000e+02
     vertex  2.994043e+00  2.652491e+00 -1.000000e+01
     vertex  2.994043e+00  2.652491e+00  1.440000e+02
   endloop
 endfacet
 facet normal -4.647232e-01 -8.854560e-01 -0.000000e+00
   outer loop
     vertex  1.418420e+00  3.740065e+00  1.440000e+02
     vertex  1.418420e+00  3.740065e+00 -1.000000e+01
     vertex  2.272259e+00  3.291935e+00 -1.000000e+01
   endloop
 endfacet
 facet normal -4.647232e-01 -8.854560e-01  0.000000e+00
   outer loop
     vertex  1.418420e+00  3.740065e+00  1.440000e+02
     vertex  2.272259e+00  3.291935e+00 -1.000000e+01
     vertex  2.272259e+00  3.291935e+00  1.440000e+02
   endloop
 endfacet
 facet normal -2.393157e-01 -9.709418e-01 -0.000000e+00
   outer loop
     vertex  4.821467e-01  3.970835e+00  1.440000e+02
     vertex  4.821467e-01  3.970835e+00 -1.000000e+01
     vertex  1.418420e+00  3.740065e+00 -1.000000e+01
   endloop
 endfacet
 facet normal -2.393157e-01 -9.709418e-01  0.000000e+00
   outer loop
     vertex  4.821467e-01  3.970835e+00  1.440000e+02
     vertex  1.418420e+00  3.740065e+00 -1.000000e+01
     vertex  1.418420e+00  3.740065e+00  1.440000e+02
   endloop
 endfacet
 facet normal  0.000000e+00 -1.000000e+00  0.000000e+00
   outer loop
     vertex -4.821467e-01  3.970835e+00  1.440000e+02
     vertex -4.821467e-01  3.970835e+00 -1.000000e+01
     vertex  4.821467e-01  3.970835e+00 -1.000000e+01
   endloop
 endfacet
 facet normal  0.000000e+00 -1.000000e+00  0.000000e+00
   outer loop
     vertex -4.821467e-01  3.970835e+00  1.440000e+02
     vertex  4.821467e-01  3.970835e+00 -1.000000e+01
     vertex  4.821467e-01  3.970835e+00  1.440000e+02
   endloop
 endfacet
 facet normal  2.393157e-01 -9.709418e-01  0.000000e+00
   outer loop
     vertex -1.418420e+00  3.740065e+00  1.440000e+02
     vertex -1.418420e+00  3.740065e+00 -1.000000e+01
     vertex -4.821467e-01  3.970835e+00 -1.000000e+01
   endloop
 endfacet
 facet normal  2.393157e-01 -9.709418e-01  0.000000e+00
   outer loop
     vertex -1.418420e+00  3.740065e+00  1.440000e+02
     vertex -4.821467e-01  3.970835e+00 -1.000000e+01
     vertex -4.821467e-01  3.970835e+00  1.440000e+02
   endloop
 endfacet
 facet normal  4.647232e-01 -8.854560e-01  0.000000e+00
   outer loop
     vertex -2.272259e+00  3.291935e+00  1.440000e+02
     vertex -2.272259e+00  3.291935e+00 -1.000000e+01
     vertex -1.418420e+00  3.740065e+00 -1.000000e+01
   endloop
 endfacet
 facet normal  6.631227e-01 -7.485107e-01  0.000000e+00
   outer loop
     vertex -2.272259e+00  3.291935e+00  1.440000e+02
     vertex -2.994043e+00  2.652491e+00 -1.000000e+01
     vertex -2.272259e+00  3.291935e+00 -1.000000e+01
   endloop
 endfacet
 facet normal  4.647232e-01 -8.854560e-01  0.000000e+00
   outer loop
     vertex -2.272259e+00  3.291935e+00  1.440000e+02
     vertex -1.418420e+00  3.740065e+00 -1.000000e+01
     vertex -1.418420e+00  3.740065e+00  1.440000e+02
   endloop
 endfacet
 facet normal  8.229839e-01 -5.680647e-01  0.000000e+00
   outer loop
     vertex -2.994043e+00  2.652491e+00  1.440000e+02
     vertex -3.541824e+00  1.858893e+00 -1.000000e+01
     vertex -2.994043e+00  2.652491e+00 -1.000000e+01
   endloop
 endfacet
 facet normal  6.631227e-01 -7.485107e-01  0.000000e+00
   outer loop
     vertex -2.994043e+00  2.652491e+00  1.440000e+02
     vertex -2.994043e+00  2.652491e+00 -1.000000e+01
     vertex -2.272259e+00  3.291935e+00  1.440000e+02
   endloop
 endfacet
 facet normal  8.229839e-01 -5.680647e-01  0.000000e+00
   outer loop
     vertex -3.541824e+00  1.858893e+00  1.440000e+02
     vertex -3.541824e+00  1.858893e+00 -1.000000e+01
     vertex -2.994043e+00  2.652491e+00  1.440000e+02
   endloop
 endfacet
 facet normal  9.350162e-01 -3.546049e-01  0.000000e+00
   outer loop
     vertex -3.541824e+00  1.858893e+00  1.440000e+02
     vertex -3.883767e+00  9.572627e-01 -1.000000e+01
     vertex -3.541824e+00  1.858893e+00 -1.000000e+01
   endloop
 endfacet
 facet normal  9.350162e-01 -3.546049e-01  0.000000e+00
   outer loop
     vertex -3.883767e+00  9.572627e-01  1.440000e+02
     vertex -3.883767e+00  9.572627e-01 -1.000000e+01
     vertex -3.541824e+00  1.858893e+00  1.440000e+02
   endloop
 endfacet
 facet normal  9.927089e-01 -1.205367e-01  0.000000e+00
   outer loop
     vertex -4.000000e+00  4.042572e-15  1.440000e+02
     vertex -3.883767e+00  9.572627e-01 -1.000000e+01
     vertex -3.883767e+00  9.572627e-01  1.440000e+02
   endloop
 endfacet
 facet normal  9.927089e-01 -1.205367e-01  0.000000e+00
   outer loop
     vertex -4.000000e+00  4.042572e-15  1.440000e+02
     vertex -4.000000e+00  4.042572e-15 -1.000000e+01
     vertex -3.883767e+00  9.572627e-01 -1.000000e+01
   endloop
 endfacet
 facet normal  9.927089e-01  1.205367e-01  0.000000e+00
   outer loop
     vertex -3.883767e+00 -9.572627e-01  1.440000e+02
     vertex -4.000000e+00  4.042572e-15 -1.000000e+01
     vertex -4.000000e+00  4.042572e-15  1.440000e+02
   endloop
 endfacet
 facet normal  9.927089e-01  1.205367e-01  0.000000e+00
   outer loop
     vertex -3.883767e+00 -9.572627e-01  1.440000e+02
     vertex -3.883767e+00 -9.572627e-01 -1.000000e+01
     vertex -4.000000e+00  4.042572e-15 -1.000000e+01
   endloop
 endfacet
 facet normal  9.350162e-01  3.546049e-01  0.000000e+00
   outer loop
     vertex -3.541824e+00 -1.858893e+00  1.440000e+02
     vertex -3.883767e+00 -9.572627e-01 -1.000000e+01
     vertex -3.883767e+00 -9.572627e-01  1.440000e+02
   endloop
 endfacet
 facet normal  9.350162e-01  3.546049e-01  0.000000e+00
   outer loop
     vertex -3.541824e+00 -1.858893e+00  1.440000e+02
     vertex -3.541824e+00 -1.858893e+00 -1.000000e+01
     vertex -3.883767e+00 -9.572627e-01 -1.000000e+01
   endloop
 endfacet
 facet normal  8.229839e-01  5.680647e-01  0.000000e+00
   outer loop
     vertex -2.994043e+00 -2.652491e+00  1.440000e+02
     vertex -3.541824e+00 -1.858893e+00 -1.000000e+01
     vertex -3.541824e+00 -1.858893e+00  1.440000e+02
   endloop
 endfacet
 facet normal  8.229839e-01  5.680647e-01  0.000000e+00
   outer loop
     vertex -2.994043e+00 -2.652491e+00  1.440000e+02
     vertex -2.994043e+00 -2.652491e+00 -1.000000e+01
     vertex -3.541824e+00 -1.858893e+00 -1.000000e+01
   endloop
 endfacet
 facet normal  6.631227e-01  7.485107e-01  0.000000e+00
   outer loop
     vertex -2.994043e+00 -2.652491e+00  1.440000e+02
     vertex -2.272259e+00 -3.291935e+00 -1.000000e+01
     vertex -2.994043e+00 -2.652491e+00 -1.000000e+01
   endloop
 endfacet
 facet normal  6.631227e-01  7.485107e-01  0.000000e+00
   outer loop
     vertex -2.272259e+00 -3.291935e+00  1.440000e+02
     vertex -2.272259e+00 -3.291935e+00 -1.000000e+01
     vertex -2.994043e+00 -2.652491e+00  1.440000e+02
   endloop
 endfacet
 facet normal  4.647232e-01  8.854560e-01  0.000000e+00
   outer loop
     vertex -1.418420e+00 -3.740065e+00  1.440000e+02
     vertex -2.272259e+00 -3.291935e+00 -1.000000e+01
     vertex -2.272259e+00 -3.291935e+00  1.440000e+02
   endloop
 endfacet
 facet normal  4.647232e-01  8.854560e-01  0.000000e+00
   outer loop
     vertex -1.418420e+00 -3.740065e+00  1.440000e+02
     vertex -1.418420e+00 -3.740065e+00 -1.000000e+01
     vertex -2.272259e+00 -3.291935e+00 -1.000000e+01
   endloop
 endfacet
 facet normal  2.393157e-01  9.709418e-01  0.000000e+00
   outer loop
     vertex -4.821467e-01 -3.970835e+00  1.440000e+02
     vertex -1.418420e+00 -3.740065e+00 -1.000000e+01
     vertex -1.418420e+00 -3.740065e+00  1.440000e+02
   endloop
 endfacet
 facet normal  2.393157e-01  9.709418e-01  0.000000e+00
   outer loop
     vertex -4.821467e-01 -3.970835e+00  1.440000e+02
     vertex -4.821467e-01 -3.970835e+00 -1.000000e+01
     vertex -1.418420e+00 -3.740065e+00 -1.000000e+01
   endloop
 endfacet
 facet normal  2.302666e-15  1.000000e+00  0.000000e+00
   outer loop
     vertex -4.821467e-01 -3.970835e+00  1.440000e+02
     vertex  4.821467e-01 -3.970835e+00 -1.000000e+01
     vertex -4.821467e-01 -3.970835e+00 -1.000000e+01
   endloop
 endfacet
 facet normal  2.302666e-15  1.000000e+00  0.000000e+00
   outer loop
     vertex  4.821467e-01 -3.970835e+00  1.440000e+02
     vertex  4.821467e-01 -3.970835e+00 -1.000000e+01
     vertex -4.821467e-01 -3.970835e+00  1.440000e+02
   endloop
 endfacet
 facet normal -2.393157e-01  9.709418e-01  0.000000e+00
   outer loop
     vertex  1.418420e+00 -3.740065e+00  1.440000e+02
     vertex  4.821467e-01 -3.970835e+00 -1.000000e+01
     vertex  4.821467e-01 -3.970835e+00  1.440000e+02
   endloop
 endfacet
 facet normal -2.393157e-01  9.709418e-01  0.000000e+00
   outer loop
     vertex  1.418420e+00 -3.740065e+00  1.440000e+02
     vertex  1.418420e+00 -3.740065e+00 -1.000000e+01
     vertex  4.821467e-01 -3.970835e+00 -1.000000e+01
   endloop
 endfacet
 facet normal -4.647232e-01  8.854560e-01  0.000000e+00
   outer loop
     vertex  1.418420e+00 -3.740065e+00  1.440000e+02
     vertex  2.272259e+00 -3.291935e+00 -1.000000e+01
     vertex  1.418420e+00 -3.740065e+00 -1.000000e+01
   endloop
 endfacet
 facet normal -4.647232e-01  8.854560e-01  0.000000e+00
   outer loop
     vertex  2.272259e+00 -3.291935e+00  1.440000e+02
     vertex  2.272259e+00 -3.291935e+00 -1.000000e+01
     vertex  1.418420e+00 -3.740065e+00  1.440000e+02
   endloop
 endfacet
 facet normal -6.631227e-01  7.485107e-01  0.000000e+00
   outer loop
     vertex  2.994043e+00 -2.652491e+00  1.440000e+02
     vertex  2.272259e+00 -3.291935e+00 -1.000000e+01
     vertex  2.272259e+00 -3.291935e+00  1.440000e+02
   endloop
 endfacet
 facet normal -6.631227e-01  7.485107e-01  0.000000e+00
   outer loop
     vertex  2.994043e+00 -2.652491e+00  1.440000e+02
     vertex  2.994043e+00 -2.652491e+00 -1.000000e+01
     vertex  2.272259e+00 -3.291935e+00 -1.000000e+01
   endloop
 endfacet
 facet normal -8.229839e-01  5.680647e-01  0.000000e+00
   outer loop
     vertex  2.994043e+00 -2.652491e+00  1.440000e+02
     vertex  3.541824e+00 -1.858893e+00 -1.000000e+01
     vertex  2.994043e+00 -2.652491e+00 -1.000000e+01
   endloop
 endfacet
 facet normal -8.229839e-01  5.680647e-01  0.000000e+00
   outer loop
     vertex  3.541824e+00 -1.858893e+00  1.440000e+02
     vertex  3.541824e+00 -1.858893e+00 -1.000000e+01
     vertex  2.994043e+00 -2.652491e+00  1.440000e+02
   endloop
 endfacet
 facet normal -9.350162e-01  3.546049e-01  0.000000e+00
   outer loop
     vertex  3.883767e+00 -9.572627e-01  1.440000e+02
     vertex  3.883767e+00 -9.572627e-01 -1.000000e+01
     vertex  3.541824e+00 -1.858893e+00 -1.000000e+01
   endloop
 endfacet
 facet normal -9.927089e-01  1.205367e-01  0.000000e+00
   outer loop
     vertex  3.883767e+00 -9.572627e-01  1.440000e+02
     vertex  4.000000e+00 -9.797174e-16 -1.000000e+01
     vertex  3.883767e+00 -9.572627e-01 -1.000000e+01
   endloop
 endfacet
 facet normal -9.350162e-01  3.546049e-01  0.000000e+00
   outer loop
     vertex  3.883767e+00 -9.572627e-01  1.440000e+02
     vertex  3.541824e+00 -1.858893e+00 -1.000000e+01
     vertex  3.541824e+00 -1.858893e+00  1.440000e+02
   endloop
 endfacet
 facet normal -9.927089e-01  1.205367e-01  0.000000e+00
   outer loop
     vertex  4.000000e+00 -9.797174e-16  1.440000e+02
     vertex  4.000000e+00 -9.797174e-16 -1.000000e+01
     vertex  3.883767e+00 -9.572627e-01  1.440000e+02
   endloop
 endfacet
 facet normal  9.927089e-01  1.205367e-01  0.000000e+00
   outer loop
     vertex  1.262224e+01  3.111104e+00  0.000000e+00
     vertex  1.300000e+01 -3.184082e-15  0.000000e+00
     vertex  1.300000e+01 -3.184082e-15 -1.000000e+01
   endloop
 endfacet
 facet normal  9.927089e-01  1.205367e-01  0.000000e+00
   outer loop
     vertex  1.262224e+01  3.111104e+00  0.000000e+00
     vertex  1.300000e+01 -3.184082e-15 -1.000000e+01
     vertex  1.262224e+01  3.111104e+00 -1.000000e+01
   endloop
 endfacet
 facet normal  9.350162e-01  3.546049e-01  0.000000e+00
   outer loop
     vertex  1.151093e+01  6.041401e+00  0.000000e+00
     vertex  1.262224e+01  3.111104e+00 -1.000000e+01
     vertex  1.151093e+01  6.041401e+00 -1.000000e+01
   endloop
 endfacet
 facet normal  8.229839e-01  5.680647e-01  0.000000e+00
   outer loop
     vertex  1.151093e+01  6.041401e+00  0.000000e+00
     vertex  1.151093e+01  6.041401e+00 -1.000000e+01
     vertex  9.730640e+00  8.620595e+00 -1.000000e+01
   endloop
 endfacet
 facet normal  9.350162e-01  3.546049e-01  0.000000e+00
   outer loop
     vertex  1.151093e+01  6.041401e+00  0.000000e+00
     vertex  1.262224e+01  3.111104e+00  0.000000e+00
     vertex  1.262224e+01  3.111104e+00 -1.000000e+01
   endloop
 endfacet
 facet normal  8.229839e-01  5.680647e-01  0.000000e+00
   outer loop
     vertex  9.730640e+00  8.620595e+00  0.000000e+00
     vertex  1.151093e+01  6.041401e+00  0.000000e+00
     vertex  9.730640e+00  8.620595e+00 -1.000000e+01
   endloop
 endfacet
 facet normal  6.631227e-01  7.485107e-01  0.000000e+00
   outer loop
     vertex  7.384842e+00  1.069879e+01  0.000000e+00
     vertex  9.730640e+00  8.620595e+00 -1.000000e+01
     vertex  7.384842e+00  1.069879e+01 -1.000000e+01
   endloop
 endfacet
 facet normal  6.631227e-01  7.485107e-01  0.000000e+00
   outer loop
     vertex  7.384842e+00  1.069879e+01  0.000000e+00
     vertex  9.730640e+00  8.620595e+00  0.000000e+00
     vertex  9.730640e+00  8.620595e+00 -1.000000e+01
   endloop
 endfacet
 facet normal  4.647232e-01  8.854560e-01  0.000000e+00
   outer loop
     vertex  4.609864e+00  1.215521e+01  0.000000e+00
     vertex  7.384842e+00  1.069879e+01 -1.000000e+01
     vertex  4.609864e+00  1.215521e+01 -1.000000e+01
   endloop
 endfacet
 facet normal  2.393157e-01  9.709418e-01  0.000000e+00
   outer loop
     vertex  4.609864e+00  1.215521e+01  0.000000e+00
     vertex  4.609864e+00  1.215521e+01 -1.000000e+01
     vertex  1.566977e+00  1.290522e+01 -1.000000e+01
   endloop
 endfacet
 facet normal  4.647232e-01  8.854560e-01  0.000000e+00
   outer loop
     vertex  4.609864e+00  1.215521e+01  0.000000e+00
     vertex  7.384842e+00  1.069879e+01  0.000000e+00
     vertex  7.384842e+00  1.069879e+01 -1.000000e+01
   endloop
 endfacet
 facet normal  2.393157e-01  9.709418e-01  0.000000e+00
   outer loop
     vertex  1.566977e+00  1.290522e+01  0.000000e+00
     vertex  4.609864e+00  1.215521e+01  0.000000e+00
     vertex  1.566977e+00  1.290522e+01 -1.000000e+01
   endloop
 endfacet
 facet normal  0.000000e+00  1.000000e+00  0.000000e+00
   outer loop
     vertex -1.566977e+00  1.290522e+01  0.000000e+00
     vertex  1.566977e+00  1.290522e+01 -1.000000e+01
     vertex -1.566977e+00  1.290522e+01 -1.000000e+01
   endloop
 endfacet
 facet normal -0.000000e+00  1.000000e+00  0.000000e+00
   outer loop
     vertex -1.566977e+00  1.290522e+01  0.000000e+00
     vertex  1.566977e+00  1.290522e+01  0.000000e+00
     vertex  1.566977e+00  1.290522e+01 -1.000000e+01
   endloop
 endfacet
 facet normal -2.393157e-01  9.709418e-01  0.000000e+00
   outer loop
     vertex -4.609864e+00  1.215521e+01  0.000000e+00
     vertex -1.566977e+00  1.290522e+01 -1.000000e+01
     vertex -4.609864e+00  1.215521e+01 -1.000000e+01
   endloop
 endfacet
 facet normal -2.393157e-01  9.709418e-01  0.000000e+00
   outer loop
     vertex -4.609864e+00  1.215521e+01  0.000000e+00
     vertex -1.566977e+00  1.290522e+01  0.000000e+00
     vertex -1.566977e+00  1.290522e+01 -1.000000e+01
   endloop
 endfacet
 facet normal -4.647232e-01  8.854560e-01  0.000000e+00
   outer loop
     vertex -7.384842e+00  1.069879e+01  0.000000e+00
     vertex -4.609864e+00  1.215521e+01 -1.000000e+01
     vertex -7.384842e+00  1.069879e+01 -1.000000e+01
   endloop
 endfacet
 facet normal -4.647232e-01  8.854560e-01  0.000000e+00
   outer loop
     vertex -7.384842e+00  1.069879e+01  0.000000e+00
     vertex -4.609864e+00  1.215521e+01  0.000000e+00
     vertex -4.609864e+00  1.215521e+01 -1.000000e+01
   endloop
 endfacet
 facet normal -6.631227e-01  7.485107e-01  0.000000e+00
   outer loop
     vertex -9.730640e+00  8.620595e+00  0.000000e+00
     vertex -7.384842e+00  1.069879e+01 -1.000000e+01
     vertex -9.730640e+00  8.620595e+00 -1.000000e+01
   endloop
 endfacet
 facet normal -8.229839e-01  5.680647e-01  0.000000e+00
   outer loop
     vertex -9.730640e+00  8.620595e+00  0.000000e+00
     vertex -9.730640e+00  8.620595e+00 -1.000000e+01
     vertex -1.151093e+01  6.041401e+00 -1.000000e+01
   endloop
 endfacet
 facet normal -6.631227e-01  7.485107e-01  0.000000e+00
   outer loop
     vertex -9.730640e+00  8.620595e+00  0.000000e+00
     vertex -7.384842e+00  1.069879e+01  0.000000e+00
     vertex -7.384842e+00  1.069879e+01 -1.000000e+01
   endloop
 endfacet
 facet normal -8.229839e-01  5.680647e-01  0.000000e+00
   outer loop
     vertex -1.151093e+01  6.041401e+00  0.000000e+00
     vertex -9.730640e+00  8.620595e+00  0.000000e+00
     vertex -1.151093e+01  6.041401e+00 -1.000000e+01
   endloop
 endfacet
 facet normal -9.350162e-01  3.546049e-01  0.000000e+00
   outer loop
     vertex -1.151093e+01  6.041401e+00  0.000000e+00
     vertex -1.151093e+01  6.041401e+00 -1.000000e+01
     vertex -1.262224e+01  3.111104e+00 -1.000000e+01
   endloop
 endfacet
 facet normal -9.350162e-01  3.546049e-01  0.000000e+00
   outer loop
     vertex -1.262224e+01  3.111104e+00  0.000000e+00
     vertex -1.151093e+01  6.041401e+00  0.000000e+00
     vertex -1.262224e+01  3.111104e+00 -1.000000e+01
   endloop
 endfacet
 facet normal -9.927089e-01  1.205367e-01  0.000000e+00
   outer loop
     vertex -1.300000e+01  1.313836e-14  0.000000e+00
     vertex -1.262224e+01  3.111104e+00  0.000000e+00
     vertex -1.262224e+01  3.111104e+00 -1.000000e+01
   endloop
 endfacet
 facet normal -9.927089e-01  1.205367e-01  0.000000e+00
   outer loop
     vertex -1.300000e+01  1.313836e-14  0.000000e+00
     vertex -1.262224e+01  3.111104e+00 -1.000000e+01
     vertex -1.300000e+01  1.313836e-14 -1.000000e+01
   endloop
 endfacet
 facet normal -9.927089e-01 -1.205367e-01 -0.000000e+00
   outer loop
     vertex -1.300000e+01  1.313836e-14  0.000000e+00
     vertex -1.300000e+01  1.313836e-14 -1.000000e+01
     vertex -1.262224e+01 -3.111104e+00 -1.000000e+01
   endloop
 endfacet
 facet normal -9.927089e-01 -1.205367e-01 -0.000000e+00
   outer loop
     vertex -1.262224e+01 -3.111104e+00  0.000000e+00
     vertex -1.300000e+01  1.313836e-14  0.000000e+00
     vertex -1.262224e+01 -3.111104e+00 -1.000000e+01
   endloop
 endfacet
 facet normal -9.350162e-01 -3.546049e-01 -0.000000e+00
   outer loop
     vertex -1.262224e+01 -3.111104e+00  0.000000e+00
     vertex -1.262224e+01 -3.111104e+00 -1.000000e+01
     vertex -1.151093e+01 -6.041401e+00 -1.000000e+01
   endloop
 endfacet
 facet normal -9.350162e-01 -3.546049e-01 -0.000000e+00
   outer loop
     vertex -1.151093e+01 -6.041401e+00  0.000000e+00
     vertex -1.262224e+01 -3.111104e+00  0.000000e+00
     vertex -1.151093e+01 -6.041401e+00 -1.000000e+01
   endloop
 endfacet
 facet normal -8.229839e-01 -5.680647e-01  0.000000e+00
   outer loop
     vertex -9.730640e+00 -8.620595e+00  0.000000e+00
     vertex -1.151093e+01 -6.041401e+00  0.000000e+00
     vertex -1.151093e+01 -6.041401e+00 -1.000000e+01
   endloop
 endfacet
 facet normal -8.229839e-01 -5.680647e-01 -0.000000e+00
   outer loop
     vertex -9.730640e+00 -8.620595e+00  0.000000e+00
     vertex -1.151093e+01 -6.041401e+00 -1.000000e+01
     vertex -9.730640e+00 -8.620595e+00 -1.000000e+01
   endloop
 endfacet
 facet normal -6.631227e-01 -7.485107e-01  0.000000e+00
   outer loop
     vertex -7.384842e+00 -1.069879e+01  0.000000e+00
     vertex -9.730640e+00 -8.620595e+00  0.000000e+00
     vertex -9.730640e+00 -8.620595e+00 -1.000000e+01
   endloop
 endfacet
 facet normal -6.631227e-01 -7.485107e-01 -0.000000e+00
   outer loop
     vertex -7.384842e+00 -1.069879e+01  0.000000e+00
     vertex -9.730640e+00 -8.620595e+00 -1.000000e+01
     vertex -7.384842e+00 -1.069879e+01 -1.000000e+01
   endloop
 endfacet
 facet normal -4.647232e-01 -8.854560e-01  0.000000e+00
   outer loop
     vertex -4.609864e+00 -1.215521e+01  0.000000e+00
     vertex -7.384842e+00 -1.069879e+01  0.000000e+00
     vertex -7.384842e+00 -1.069879e+01 -1.000000e+01
   endloop
 endfacet
 facet normal -4.647232e-01 -8.854560e-01 -0.000000e+00
   outer loop
     vertex -4.609864e+00 -1.215521e+01  0.000000e+00
     vertex -7.384842e+00 -1.069879e+01 -1.000000e+01
     vertex -4.609864e+00 -1.215521e+01 -1.000000e+01
   endloop
 endfacet
 facet normal -2.393157e-01 -9.709418e-01  0.000000e+00
   outer loop
     vertex -1.566977e+00 -1.290522e+01  0.000000e+00
     vertex -4.609864e+00 -1.215521e+01  0.000000e+00
     vertex -4.609864e+00 -1.215521e+01 -1.000000e+01
   endloop
 endfacet
 facet normal -2.393157e-01 -9.709418e-01 -0.000000e+00
   outer loop
     vertex -1.566977e+00 -1.290522e+01  0.000000e+00
     vertex -4.609864e+00 -1.215521e+01 -1.000000e+01
     vertex -1.566977e+00 -1.290522e+01 -1.000000e+01
   endloop
 endfacet
 facet normal -2.267241e-15 -1.000000e+00 -0.000000e+00
   outer loop
     vertex -1.566977e+00 -1.290522e+01  0.000000e+00
     vertex -1.566977e+00 -1.290522e+01 -1.000000e+01
     vertex  1.566977e+00 -1.290522e+01 -1.000000e+01
   endloop
 endfacet
 facet normal -2.267241e-15 -1.000000e+00 -0.000000e+00
   outer loop
     vertex  1.566977e+00 -1.290522e+01  0.000000e+00
     vertex -1.566977e+00 -1.290522e+01  0.000000e+00
     vertex  1.566977e+00 -1.290522e+01 -1.000000e+01
   endloop
 endfacet
 facet normal  2.393157e-01 -9.709418e-01  0.000000e+00
   outer loop
     vertex  4.609864e+00 -1.215521e+01  0.000000e+00
     vertex  1.566977e+00 -1.290522e+01  0.000000e+00
     vertex  1.566977e+00 -1.290522e+01 -1.000000e+01
   endloop
 endfacet
 facet normal  2.393157e-01 -9.709418e-01  0.000000e+00
   outer loop
     vertex  4.609864e+00 -1.215521e+01  0.000000e+00
     vertex  1.566977e+00 -1.290522e+01 -1.000000e+01
     vertex  4.609864e+00 -1.215521e+01 -1.000000e+01
   endloop
 endfacet
 facet normal  4.647232e-01 -8.854560e-01  0.000000e+00
   outer loop
     vertex  7.384842e+00 -1.069879e+01  0.000000e+00
     vertex  4.609864e+00 -1.215521e+01  0.000000e+00
     vertex  4.609864e+00 -1.215521e+01 -1.000000e+01
   endloop
 endfacet
 facet normal  4.647232e-01 -8.854560e-01  0.000000e+00
   outer loop
     vertex  7.384842e+00 -1.069879e+01  0.000000e+00
     vertex  4.609864e+00 -1.215521e+01 -1.000000e+01
     vertex  7.384842e+00 -1.069879e+01 -1.000000e+01
   endloop
 endfacet
 facet normal  6.631227e-01 -7.485107e-01  0.000000e+00
   outer loop
     vertex  7.384842e+00 -1.069879e+01  0.000000e+00
     vertex  7.384842e+00 -1.069879e+01 -1.000000e+01
     vertex  9.730640e+00 -8.620595e+00 -1.000000e+01
   endloop
 endfacet
 facet normal  6.631227e-01 -7.485107e-01  0.000000e+00
   outer loop
     vertex  9.730640e+00 -8.620595e+00  0.000000e+00
     vertex  7.384842e+00 -1.069879e+01  0.000000e+00
     vertex  9.730640e+00 -8.620595e+00 -1.000000e+01
   endloop
 endfacet
 facet normal  8.229839e-01 -5.680647e-01  0.000000e+00
   outer loop
     vertex  9.730640e+00 -8.620595e+00  0.000000e+00
     vertex  9.730640e+00 -8.620595e+00 -1.000000e+01
     vertex  1.151093e+01 -6.041401e+00 -1.000000e+01
   endloop
 endfacet
 facet normal  8.229839e-01 -5.680647e-01  0.000000e+00
   outer loop
     vertex  1.151093e+01 -6.041401e+00  0.000000e+00
     vertex  9.730640e+00 -8.620595e+00  0.000000e+00
     vertex  1.151093e+01 -6.041401e+00 -1.000000e+01
   endloop
 endfacet
 facet normal  9.350162e-01 -3.546049e-01  0.000000e+00
   outer loop
     vertex  1.262224e+01 -3.111104e+00  0.000000e+00
     vertex  1.151093e+01 -6.041401e+00 -1.000000e+01
     vertex  1.262224e+01 -3.111104e+00 -1.000000e+01
   endloop
 endfacet
 facet normal  9.927089e-01 -1.205367e-01  0.000000e+00
   outer loop
     vertex  1.262224e+01 -3.111104e+00  0.000000e+00
     vertex  1.262224e+01 -3.111104e+00 -1.000000e+01
     vertex  1.300000e+01 -3.184082e-15 -1.000000e+01
   endloop
 endfacet
 facet normal  9.350162e-01 -3.546049e-01  0.000000e+00
   outer loop
     vertex  1.262224e+01 -3.111104e+00  0.000000e+00
     vertex  1.151093e+01 -6.041401e+00  0.000000e+00
     vertex  1.151093e+01 -6.041401e+00 -1.000000e+01
   endloop
 endfacet
 facet normal  9.927089e-01 -1.205367e-01  0.000000e+00
   outer loop
     vertex  1.300000e+01 -3.184082e-15  0.000000e+00
     vertex  1.262224e+01 -3.111104e+00  0.000000e+00
     vertex  1.300000e+01 -3.184082e-15 -1.000000e+01
   endloop
 endfacet
 facet normal  0.000000e+00  0.000000e+00  1.000000e+00
   outer loop
     vertex -2.272259e+00 -3.291935e+00  1.440000e+02
     vertex -2.994043e+00 -2.652491e+00  1.440000e+02
     vertex -5.303301e+00 -5.303301e+00  1.440000e+02
   endloop
 endfacet
 facet normal  0.000000e+00  0.000000e+00  1.000000e+00
   outer loop
     vertex -3.541824e+00 -1.858893e+00  1.440000e+02
     vertex -7.500000e+00  9.184851e-16  1.440000e+02
     vertex -5.303301e+00 -5.303301e+00  1.440000e+02
   endloop
 endfacet
 facet normal  0.000000e+00  0.000000e+00  1.000000e+00
   outer loop
     vertex -3.541824e+00 -1.858893e+00  1.440000e+02
     vertex -5.303301e+00 -5.303301e+00  1.440000e+02
     vertex -2.994043e+00 -2.652491e+00  1.440000e+02
   endloop
 endfacet
 facet normal  0.000000e+00  0.000000e+00  1.000000e+00
   outer loop
     vertex -1.418420e+00 -3.740065e+00  1.440000e+02
     vertex -5.303301e+00 -5.303301e+00  1.440000e+02
     vertex -1.377728e-15 -7.500000e+00  1.440000e+02
   endloop
 endfacet
 facet normal  0.000000e+00  0.000000e+00  1.000000e+00
   outer loop
     vertex -1.418420e+00 -3.740065e+00  1.440000e+02
     vertex -2.272259e+00 -3.291935e+00  1.440000e+02
     vertex -5.303301e+00 -5.303301e+00  1.440000e+02
   endloop
 endfacet
 facet normal  0.000000e+00  0.000000e+00  1.000000e+00
   outer loop
     vertex -3.883767e+00 -9.572627e-01  1.440000e+02
     vertex -7.500000e+00  9.184851e-16  1.440000e+02
     vertex -3.541824e+00 -1.858893e+00  1.440000e+02
   endloop
 endfacet
 facet normal  0.000000e+00  0.000000e+00  1.000000e+00
   outer loop
     vertex -4.821467e-01 -3.970835e+00  1.440000e+02
     vertex -1.418420e+00 -3.740065e+00  1.440000e+02
     vertex -1.377728e-15 -7.500000e+00  1.440000e+02
   endloop
 endfacet
 facet normal  0.000000e+00  0.000000e+00  1.000000e+00
   outer loop
     vertex -4.000000e+00  4.042572e-15  1.440000e+02
     vertex -7.500000e+00  9.184851e-16  1.440000e+02
     vertex -3.883767e+00 -9.572627e-01  1.440000e+02
   endloop
 endfacet
 facet normal  0.000000e+00  0.000000e+00  1.000000e+00
   outer loop
     vertex  4.821467e-01 -3.970835e+00  1.440000e+02
     vertex -4.821467e-01 -3.970835e+00  1.440000e+02
     vertex -1.377728e-15 -7.500000e+00  1.440000e+02
   endloop
 endfacet
 facet normal  0.000000e+00  0.000000e+00  1.000000e+00
   outer loop
     vertex -3.883767e+00  9.572627e-01  1.440000e+02
     vertex -7.500000e+00  9.184851e-16  1.440000e+02
     vertex -4.000000e+00  4.042572e-15  1.440000e+02
   endloop
 endfacet
 facet normal  0.000000e+00  0.000000e+00  1.000000e+00
   outer loop
     vertex  1.418420e+00 -3.740065e+00  1.440000e+02
     vertex  4.821467e-01 -3.970835e+00  1.440000e+02
     vertex -1.377728e-15 -7.500000e+00  1.440000e+02
   endloop
 endfacet
 facet normal  0.000000e+00  0.000000e+00  1.000000e+00
   outer loop
     vertex -3.541824e+00  1.858893e+00  1.440000e+02
     vertex -7.500000e+00  9.184851e-16  1.440000e+02
     vertex -3.883767e+00  9.572627e-01  1.440000e+02
   endloop
 endfacet
 facet normal  0.000000e+00  0.000000e+00  1.000000e+00
   outer loop
     vertex  5.303301e+00 -5.303301e+00  1.440000e+02
     vertex  2.272259e+00 -3.291935e+00  1.440000e+02
     vertex  1.418420e+00 -3.740065e+00  1.440000e+02
   endloop
 endfacet
 facet normal  0.000000e+00  0.000000e+00  1.000000e+00
   outer loop
     vertex  5.303301e+00 -5.303301e+00  1.440000e+02
     vertex  1.418420e+00 -3.740065e+00  1.440000e+02
     vertex -1.377728e-15 -7.500000e+00  1.440000e+02
   endloop
 endfacet
 facet normal  0.000000e+00  0.000000e+00  1.000000e+00
   outer loop
     vertex -5.303301e+00  5.303301e+00  1.440000e+02
     vertex -3.541824e+00  1.858893e+00  1.440000e+02
     vertex -2.994043e+00  2.652491e+00  1.440000e+02
   endloop
 endfacet
 facet normal  0.000000e+00  0.000000e+00  1.000000e+00
   outer loop
     vertex -5.303301e+00  5.303301e+00  1.440000e+02
     vertex -7.500000e+00  9.184851e-16  1.440000e+02
     vertex -3.541824e+00  1.858893e+00  1.440000e+02
   endloop
 endfacet
 facet normal  0.000000e+00  0.000000e+00  1.000000e+00
   outer loop
     vertex  2.994043e+00 -2.652491e+00  1.440000e+02
     vertex  2.272259e+00 -3.291935e+00  1.440000e+02
     vertex  5.303301e+00 -5.303301e+00  1.440000e+02
   endloop
 endfacet
 facet normal  0.000000e+00  0.000000e+00  1.000000e+00
   outer loop
     vertex -2.272259e+00  3.291935e+00  1.440000e+02
     vertex -5.303301e+00  5.303301e+00  1.440000e+02
     vertex -2.994043e+00  2.652491e+00  1.440000e+02
   endloop
 endfacet
 facet normal  0.000000e+00  0.000000e+00  1.000000e+00
   outer loop
     vertex  3.541824e+00 -1.858893e+00  1.440000e+02
     vertex  2.994043e+00 -2.652491e+00  1.440000e+02
     vertex  5.303301e+00 -5.303301e+00  1.440000e+02
   endloop
 endfacet
 facet normal  0.000000e+00  0.000000e+00  1.000000e+00
   outer loop
     vertex -1.418420e+00  3.740065e+00  1.440000e+02
     vertex -5.303301e+00  5.303301e+00  1.440000e+02
     vertex -2.272259e+00  3.291935e+00  1.440000e+02
   endloop
 endfacet
 facet normal  0.000000e+00  0.000000e+00  1.000000e+00
   outer loop
     vertex  7.500000e+00  0.000000e+00  1.440000e+02
     vertex  3.883767e+00  9.572627e-01  1.440000e+02
     vertex  4.000000e+00 -9.797174e-16  1.440000e+02
   endloop
 endfacet
 facet normal  0.000000e+00  0.000000e+00  1.000000e+00
   outer loop
     vertex  7.500000e+00  0.000000e+00  1.440000e+02
     vertex  3.541824e+00  1.858893e+00  1.440000e+02
     vertex  3.883767e+00  9.572627e-01  1.440000e+02
   endloop
 endfacet
 facet normal  0.000000e+00  0.000000e+00  1.000000e+00
   outer loop
     vertex  7.500000e+00  0.000000e+00  1.440000e+02
     vertex  3.883767e+00 -9.572627e-01  1.440000e+02
     vertex  3.541824e+00 -1.858893e+00  1.440000e+02
   endloop
 endfacet
 facet normal  0.000000e+00  0.000000e+00  1.000000e+00
   outer loop
     vertex  7.500000e+00  0.000000e+00  1.440000e+02
     vertex  4.000000e+00 -9.797174e-16  1.440000e+02
     vertex  3.883767e+00 -9.572627e-01  1.440000e+02
   endloop
 endfacet
 facet normal  0.000000e+00  0.000000e+00  1.000000e+00
   outer loop
     vertex  7.500000e+00  0.000000e+00  1.440000e+02
     vertex  3.541824e+00 -1.858893e+00  1.440000e+02
     vertex  5.303301e+00 -5.303301e+00  1.440000e+02
   endloop
 endfacet
 facet normal  0.000000e+00  0.000000e+00  1.000000e+00
   outer loop
     vertex  4.592425e-16  7.500000e+00  1.440000e+02
     vertex  4.821467e-01  3.970835e+00  1.440000e+02
     vertex  1.418420e+00  3.740065e+00  1.440000e+02
   endloop
 endfacet
 facet normal  0.000000e+00  0.000000e+00  1.000000e+00
   outer loop
     vertex  4.592425e-16  7.500000e+00  1.440000e+02
     vertex -4.821467e-01  3.970835e+00  1.440000e+02
     vertex  4.821467e-01  3.970835e+00  1.440000e+02
   endloop
 endfacet
 facet normal  0.000000e+00  0.000000e+00  1.000000e+00
   outer loop
     vertex  4.592425e-16  7.500000e+00  1.440000e+02
     vertex -1.418420e+00  3.740065e+00  1.440000e+02
     vertex -4.821467e-01  3.970835e+00  1.440000e+02
   endloop
 endfacet
 facet normal  0.000000e+00  0.000000e+00  1.000000e+00
   outer loop
     vertex  4.592425e-16  7.500000e+00  1.440000e+02
     vertex -5.303301e+00  5.303301e+00  1.440000e+02
     vertex -1.418420e+00  3.740065e+00  1.440000e+02
   endloop
 endfacet
 facet normal  0.000000e+00  0.000000e+00  1.000000e+00
   outer loop
     vertex  5.303301e+00  5.303301e+00  1.440000e+02
     vertex  2.994043e+00  2.652491e+00  1.440000e+02
     vertex  3.541824e+00  1.858893e+00  1.440000e+02
   endloop
 endfacet
 facet normal  0.000000e+00  0.000000e+00  1.000000e+00
   outer loop
     vertex  5.303301e+00  5.303301e+00  1.440000e+02
     vertex  2.272259e+00  3.291935e+00  1.440000e+02
     vertex  2.994043e+00  2.652491e+00  1.440000e+02
   endloop
 endfacet
 facet normal  0.000000e+00  0.000000e+00  1.000000e+00
   outer loop
     vertex  5.303301e+00  5.303301e+00  1.440000e+02
     vertex  1.418420e+00  3.740065e+00  1.440000e+02
     vertex  2.272259e+00  3.291935e+00  1.440000e+02
   endloop
 endfacet
 facet normal  0.000000e+00  0.000000e+00  1.000000e+00
   outer loop
     vertex  5.303301e+00  5.303301e+00  1.440000e+02
     vertex  4.592425e-16  7.500000e+00  1.440000e+02
     vertex  1.418420e+00  3.740065e+00  1.440000e+02
   endloop
 endfacet
 facet normal  0.000000e+00  0.000000e+00  1.000000e+00
   outer loop
     vertex  5.303301e+00  5.303301e+00  1.440000e+02
     vertex  3.541824e+00  1.858893e+00  1.440000e+02
     vertex  7.500000e+00  0.000000e+00  1.440000e+02
   endloop
 endfacet
 facet normal  0.000000e+00  0.000000e+00  1.000000e+00
   outer loop
     vertex -5.303301e+00 -5.303301e+00  0.000000e+00
     vertex -1.151093e+01 -6.041401e+00  0.000000e+00
     vertex -9.730640e+00 -8.620595e+00  0.000000e+00
   endloop
 endfacet
 facet normal  0.000000e+00  0.000000e+00  1.000000e+00
   outer loop
     vertex -5.303301e+00 -5.303301e+00  0.000000e+00
     vertex -9.730640e+00 -8.620595e+00  0.000000e+00
     vertex -7.384842e+00 -1.069879e+01  0.000000e+00
   endloop
 endfacet
 facet normal  0.000000e+00  0.000000e+00  1.000000e+00
   outer loop
     vertex -5.303301e+00 -5.303301e+00  0.000000e+00
     vertex -7.384842e+00 -1.069879e+01  0.000000e+00
     vertex -4.609864e+00 -1.215521e+01  0.000000e+00
   endloop
 endfacet
 facet normal  0.000000e+00  0.000000e+00  1.000000e+00
   outer loop
     vertex -7.500000e+00  9.184851e-16  0.000000e+00
     vertex -1.262224e+01  3.111104e+00  0.000000e+00
     vertex -1.300000e+01  1.313836e-14  0.000000e+00
   endloop
 endfacet
 facet normal  0.000000e+00  0.000000e+00  1.000000e+00
   outer loop
     vertex -7.500000e+00  9.184851e-16  0.000000e+00
     vertex -1.300000e+01  1.313836e-14  0.000000e+00
     vertex -1.262224e+01 -3.111104e+00  0.000000e+00
   endloop
 endfacet
 facet normal  0.000000e+00  0.000000e+00  1.000000e+00
   outer loop
     vertex -7.500000e+00  9.184851e-16  0.000000e+00
     vertex -1.262224e+01 -3.111104e+00  0.000000e+00
     vertex -1.151093e+01 -6.041401e+00  0.000000e+00
   endloop
 endfacet
 facet normal  0.000000e+00  0.000000e+00  1.000000e+00
   outer loop
     vertex -7.500000e+00  9.184851e-16  0.000000e+00
     vertex -1.151093e+01 -6.041401e+00  0.000000e+00
     vertex -5.303301e+00 -5.303301e+00  0.000000e+00
   endloop
 endfacet
 facet normal  0.000000e+00  0.000000e+00  1.000000e+00
   outer loop
     vertex -1.377728e-15 -7.500000e+00  0.000000e+00
     vertex -4.609864e+00 -1.215521e+01  0.000000e+00
     vertex -1.566977e+00 -1.290522e+01  0.000000e+00
   endloop
 endfacet
 facet normal  0.000000e+00  0.000000e+00  1.000000e+00
   outer loop
     vertex -1.377728e-15 -7.500000e+00  0.000000e+00
     vertex -1.566977e+00 -1.290522e+01  0.000000e+00
     vertex  1.566977e+00 -1.290522e+01  0.000000e+00
   endloop
 endfacet
 facet normal  0.000000e+00  0.000000e+00  1.000000e+00
   outer loop
     vertex -1.377728e-15 -7.500000e+00  0.000000e+00
     vertex  1.566977e+00 -1.290522e+01  0.000000e+00
     vertex  4.609864e+00 -1.215521e+01  0.000000e+00
   endloop
 endfacet
 facet normal  0.000000e+00  0.000000e+00  1.000000e+00
   outer loop
     vertex -1.377728e-15 -7.500000e+00  0.000000e+00
     vertex -5.303301e+00 -5.303301e+00  0.000000e+00
     vertex -4.609864e+00 -1.215521e+01  0.000000e+00
   endloop
 endfacet
 facet normal  0.000000e+00  0.000000e+00  1.000000e+00
   outer loop
     vertex -1.151093e+01  6.041401e+00  0.000000e+00
     vertex -1.262224e+01  3.111104e+00  0.000000e+00
     vertex -7.500000e+00  9.184851e-16  0.000000e+00
   endloop
 endfacet
 facet normal  0.000000e+00  0.000000e+00  1.000000e+00
   outer loop
     vertex -5.303301e+00  5.303301e+00  0.000000e+00
     vertex -9.730640e+00  8.620595e+00  0.000000e+00
     vertex -1.151093e+01  6.041401e+00  0.000000e+00
   endloop
 endfacet
 facet normal  0.000000e+00  0.000000e+00  1.000000e+00
   outer loop
     vertex -5.303301e+00  5.303301e+00  0.000000e+00
     vertex -1.151093e+01  6.041401e+00  0.000000e+00
     vertex -7.500000e+00  9.184851e-16  0.000000e+00
   endloop
 endfacet
 facet normal  0.000000e+00  0.000000e+00  1.000000e+00
   outer loop
     vertex  5.303301e+00 -5.303301e+00  0.000000e+00
     vertex  4.609864e+00 -1.215521e+01  0.000000e+00
     vertex  7.384842e+00 -1.069879e+01  0.000000e+00
   endloop
 endfacet
 facet normal  0.000000e+00  0.000000e+00  1.000000e+00
   outer loop
     vertex  5.303301e+00 -5.303301e+00  0.000000e+00
     vertex -1.377728e-15 -7.500000e+00  0.000000e+00
     vertex  4.609864e+00 -1.215521e+01  0.000000e+00
   endloop
 endfacet
 facet normal  0.000000e+00  0.000000e+00  1.000000e+00
   outer loop
     vertex  9.730640e+00 -8.620595e+00  0.000000e+00
     vertex  5.303301e+00 -5.303301e+00  0.000000e+00
     vertex  7.384842e+00 -1.069879e+01  0.000000e+00
   endloop
 endfacet
 facet normal  0.000000e+00  0.000000e+00  1.000000e+00
   outer loop
     vertex -7.384842e+00  1.069879e+01  0.000000e+00
     vertex -9.730640e+00  8.620595e+00  0.000000e+00
     vertex -5.303301e+00  5.303301e+00  0.000000e+00
   endloop
 endfacet
 facet normal  0.000000e+00  0.000000e+00  1.000000e+00
   outer loop
     vertex  1.151093e+01 -6.041401e+00  0.000000e+00
     vertex  5.303301e+00 -5.303301e+00  0.000000e+00
     vertex  9.730640e+00 -8.620595e+00  0.000000e+00
   endloop
 endfacet
 facet normal  0.000000e+00  0.000000e+00  1.000000e+00
   outer loop
     vertex  7.500000e+00  0.000000e+00  0.000000e+00
     vertex  5.303301e+00 -5.303301e+00  0.000000e+00
     vertex  1.151093e+01 -6.041401e+00  0.000000e+00
   endloop
 endfacet
 facet normal  0.000000e+00  0.000000e+00  1.000000e+00
   outer loop
     vertex -4.609864e+00  1.215521e+01  0.000000e+00
     vertex -5.303301e+00  5.303301e+00  0.000000e+00
     vertex  4.592425e-16  7.500000e+00  0.000000e+00
   endloop
 endfacet
 facet normal  0.000000e+00  0.000000e+00  1.000000e+00
   outer loop
     vertex -4.609864e+00  1.215521e+01  0.000000e+00
     vertex -7.384842e+00  1.069879e+01  0.000000e+00
     vertex -5.303301e+00  5.303301e+00  0.000000e+00
   endloop
 endfacet
 facet normal  0.000000e+00  0.000000e+00  1.000000e+00
   outer loop
     vertex  1.262224e+01 -3.111104e+00  0.000000e+00
     vertex  7.500000e+00  0.000000e+00  0.000000e+00
     vertex  1.151093e+01 -6.041401e+00  0.000000e+00
   endloop
 endfacet
 facet normal  0.000000e+00  0.000000e+00  1.000000e+00
   outer loop
     vertex -1.566977e+00  1.290522e+01  0.000000e+00
     vertex -4.609864e+00  1.215521e+01  0.000000e+00
     vertex  4.592425e-16  7.500000e+00  0.000000e+00
   endloop
 endfacet
 facet normal  0.000000e+00  0.000000e+00  1.000000e+00
   outer loop
     vertex  1.300000e+01 -3.184082e-15  0.000000e+00
     vertex  7.500000e+00  0.000000e+00  0.000000e+00
     vertex  1.262224e+01 -3.111104e+00  0.000000e+00
   endloop
 endfacet
 facet normal  0.000000e+00  0.000000e+00  1.000000e+00
   outer loop
     vertex  1.566977e+00  1.290522e+01  0.000000e+00
     vertex -1.566977e+00  1.290522e+01  0.000000e+00
     vertex  4.592425e-16  7.500000e+00  0.000000e+00
   endloop
 endfacet
 facet normal  0.000000e+00  0.000000e+00  1.000000e+00
   outer loop
     vertex  1.262224e+01  3.111104e+00  0.000000e+00
     vertex  7.500000e+00  0.000000e+00  0.000000e+00
     vertex  1.300000e+01 -3.184082e-15  0.000000e+00
   endloop
 endfacet
 facet normal  0.000000e+00  0.000000e+00  1.000000e+00
   outer loop
     vertex  4.609864e+00  1.215521e+01  0.000000e+00
     vertex  4.592425e-16  7.500000e+00  0.000000e+00
     vertex  5.303301e+00  5.303301e+00  0.000000e+00
   endloop
 endfacet
 facet normal  0.000000e+00  0.000000e+00  1.000000e+00
   outer loop
     vertex  4.609864e+00  1.215521e+01  0.000000e+00
     vertex  1.566977e+00  1.290522e+01  0.000000e+00
     vertex  4.592425e-16  7.500000e+00  0.000000e+00
   endloop
 endfacet
 facet normal  0.000000e+00  0.000000e+00  1.000000e+00
   outer loop
     vertex  1.151093e+01  6.041401e+00  0.000000e+00
     vertex  5.303301e+00  5.303301e+00  0.000000e+00
     vertex  7.500000e+00  0.000000e+00  0.000000e+00
   endloop
 endfacet
 facet normal  0.000000e+00  0.000000e+00  1.000000e+00
   outer loop
     vertex  1.151093e+01  6.041401e+00  0.000000e+00
     vertex  7.500000e+00  0.000000e+00  0.000000e+00
     vertex  1.262224e+01  3.111104e+00  0.000000e+00
   endloop
 endfacet
 facet normal  0.000000e+00  0.000000e+00  1.000000e+00
   outer loop
     vertex  7.384842e+00  1.069879e+01  0.000000e+00
     vertex  4.609864e+00  1.215521e+01  0.000000e+00
     vertex  5.303301e+00  5.303301e+00  0.000000e+00
   endloop
 endfacet
 facet normal  0.000000e+00  0.000000e+00  1.000000e+00
   outer loop
     vertex  9.730640e+00  8.620595e+00  0.000000e+00
     vertex  7.384842e+00  1.069879e+01  0.000000e+00
     vertex  5.303301e+00  5.303301e+00  0.000000e+00
   endloop
 endfacet
 facet normal  0.000000e+00  0.000000e+00  1.000000e+00
   outer loop
     vertex  9.730640e+00  8.620595e+00  0.000000e+00
     vertex  5.303301e+00  5.303301e+00  0.000000e+00
     vertex  1.151093e+01  6.041401e+00  0.000000e+00
   endloop
 endfacet
 facet normal  9.238795e-01  3.826834e-01 -0.000000e+00
   outer loop
     vertex  7.500000e+00  0.000000e+00  0.000000e+00
     vertex  5.303301e+00  5.303301e+00  1.440000e+02
     vertex  7.500000e+00  0.000000e+00  1.440000e+02
   endloop
 endfacet
 facet normal  9.238795e-01  3.826834e-01 -0.000000e+00
   outer loop
     vertex  5.303301e+00  5.303301e+00  0.000000e+00
     vertex  5.303301e+00  5.303301e+00  1.440000e+02
     vertex  7.500000e+00  0.000000e+00  0.000000e+00
   endloop
 endfacet
 facet normal  9.238795e-01 -3.826834e-01  0.000000e+00
   outer loop
     vertex  5.303301e+00 -5.303301e+00  0.000000e+00
     vertex  7.500000e+00  0.000000e+00  1.440000e+02
     vertex  5.303301e+00 -5.303301e+00  1.440000e+02
   endloop
 endfacet
 facet normal  9.238795e-01 -3.826834e-01  0.000000e+00
   outer loop
     vertex  7.500000e+00  0.000000e+00  0.000000e+00
     vertex  7.500000e+00  0.000000e+00  1.440000e+02
     vertex  5.303301e+00 -5.303301e+00  0.000000e+00
   endloop
 endfacet
 facet normal  3.826834e-01  9.238795e-01  0.000000e+00
   outer loop
     vertex  4.592425e-16  7.500000e+00  0.000000e+00
     vertex  5.303301e+00  5.303301e+00  1.440000e+02
     vertex  5.303301e+00  5.303301e+00  0.000000e+00
   endloop
 endfacet
 facet normal  3.826834e-01  9.238795e-01 -0.000000e+00
   outer loop
     vertex  4.592425e-16  7.500000e+00  0.000000e+00
     vertex  4.592425e-16  7.500000e+00  1.440000e+02
     vertex  5.303301e+00  5.303301e+00  1.440000e+02
   endloop
 endfacet
 facet normal  3.826834e-01 -9.238795e-01  0.000000e+00
   outer loop
     vertex  5.303301e+00 -5.303301e+00  0.000000e+00
     vertex -1.377728e-15 -7.500000e+00  1.440000e+02
     vertex -1.377728e-15 -7.500000e+00  0.000000e+00
   endloop
 endfacet
 facet normal  3.826834e-01 -9.238795e-01  0.000000e+00
   outer loop
     vertex  5.303301e+00 -5.303301e+00  0.000000e+00
     vertex  5.303301e+00 -5.303301e+00  1.440000e+02
     vertex -1.377728e-15 -7.500000e+00  1.440000e+02
   endloop
 endfacet
 facet normal -3.826834e-01  9.238795e-01  0.000000e+00
   outer loop
     vertex  4.592425e-16  7.500000e+00  0.000000e+00
     vertex -5.303301e+00  5.303301e+00  1.440000e+02
     vertex  4.592425e-16  7.500000e+00  1.440000e+02
   endloop
 endfacet
 facet normal -3.826834e-01  9.238795e-01  0.000000e+00
   outer loop
     vertex -5.303301e+00  5.303301e+00  0.000000e+00
     vertex -5.303301e+00  5.303301e+00  1.440000e+02
     vertex  4.592425e-16  7.500000e+00  0.000000e+00
   endloop
 endfacet
 facet normal -3.826834e-01 -9.238795e-01  0.000000e+00
   outer loop
     vertex -1.377728e-15 -7.500000e+00  0.000000e+00
     vertex -5.303301e+00 -5.303301e+00  1.440000e+02
     vertex -5.303301e+00 -5.303301e+00  0.000000e+00
   endloop
 endfacet
 facet normal -3.826834e-01 -9.238795e-01  0.000000e+00
   outer loop
     vertex -1.377728e-15 -7.500000e+00  0.000000e+00
     vertex -1.377728e-15 -7.500000e+00  1.440000e+02
     vertex -5.303301e+00 -5.303301e+00  1.440000e+02
   endloop
 endfacet
 facet normal -9.238795e-01  3.826834e-01  0.000000e+00
   outer loop
     vertex -7.500000e+00  9.184851e-16  0.000000e+00
     vertex -5.303301e+00  5.303301e+00  1.440000e+02
     vertex -5.303301e+00  5.303301e+00  0.000000e+00
   endloop
 endfacet
 facet normal -9.238795e-01  3.826834e-01  0.000000e+00
   outer loop
     vertex -7.500000e+00  9.184851e-16  0.000000e+00
     vertex -7.500000e+00  9.184851e-16  1.440000e+02
     vertex -5.303301e+00  5.303301e+00  1.440000e+02
   endloop
 endfacet
 facet normal -9.238795e-01 -3.826834e-01  0.000000e+00
   outer loop
     vertex -5.303301e+00 -5.303301e+00  0.000000e+00
     vertex -7.500000e+00  9.184851e-16  1.440000e+02
     vertex -7.500000e+00  9.184851e-16  0.000000e+00
   endloop
 endfacet
 facet normal -9.238795e-01 -3.826834e-01  0.000000e+00
   outer loop
     vertex -5.303301e+00 -5.303301e+00  0.000000e+00
     vertex -5.303301e+00 -5.303301e+00  1.440000e+02
     vertex -7.500000e+00  9.184851e-16  1.440000e+02
   endloop
 endfacet
endsolid
