solid 
 facet normal  9.927089e-01  1.205367e-01  0.000000e+00
   outer loop
     vertex  1.165130e+01  2.871788e+00  5.000000e+00
     vertex  1.200000e+01 -2.939152e-15  5.000000e+00
     vertex  1.200000e+01 -2.939152e-15  0.000000e+00
   endloop
 endfacet
 facet normal  9.927089e-01  1.205367e-01  0.000000e+00
   outer loop
     vertex  1.165130e+01  2.871788e+00  5.000000e+00
     vertex  1.200000e+01 -2.939152e-15  0.000000e+00
     vertex  1.165130e+01  2.871788e+00  0.000000e+00
   endloop
 endfacet
 facet normal  9.350162e-01  3.546049e-01  0.000000e+00
   outer loop
     vertex  1.062547e+01  5.576678e+00  5.000000e+00
     vertex  1.165130e+01  2.871788e+00  0.000000e+00
     vertex  1.062547e+01  5.576678e+00  0.000000e+00
   endloop
 endfacet
 facet normal  8.229839e-01  5.680647e-01  0.000000e+00
   outer loop
     vertex  1.062547e+01  5.576678e+00  5.000000e+00
     vertex  1.062547e+01  5.576678e+00  0.000000e+00
     vertex  8.982129e+00  7.957472e+00  0.000000e+00
   endloop
 endfacet
 facet normal  9.350162e-01  3.546049e-01  0.000000e+00
   outer loop
     vertex  1.062547e+01  5.576678e+00  5.000000e+00
     vertex  1.165130e+01  2.871788e+00  5.000000e+00
     vertex  1.165130e+01  2.871788e+00  0.000000e+00
   endloop
 endfacet
 facet normal  8.229839e-01  5.680647e-01  0.000000e+00
   outer loop
     vertex  8.982129e+00  7.957472e+00  5.000000e+00
     vertex  1.062547e+01  5.576678e+00  5.000000e+00
     vertex  8.982129e+00  7.957472e+00  0.000000e+00
   endloop
 endfacet
 facet normal  6.631227e-01  7.485107e-01  0.000000e+00
   outer loop
     vertex  6.816777e+00  9.875806e+00  5.000000e+00
     vertex  8.982129e+00  7.957472e+00  0.000000e+00
     vertex  6.816777e+00  9.875806e+00  0.000000e+00
   endloop
 endfacet
 facet normal  6.631227e-01  7.485107e-01  0.000000e+00
   outer loop
     vertex  6.816777e+00  9.875806e+00  5.000000e+00
     vertex  8.982129e+00  7.957472e+00  5.000000e+00
     vertex  8.982129e+00  7.957472e+00  0.000000e+00
   endloop
 endfacet
 facet normal  4.647232e-01  8.854560e-01  0.000000e+00
   outer loop
     vertex  4.255259e+00  1.122019e+01  5.000000e+00
     vertex  6.816777e+00  9.875806e+00  0.000000e+00
     vertex  4.255259e+00  1.122019e+01  0.000000e+00
   endloop
 endfacet
 facet normal  2.393157e-01  9.709418e-01  0.000000e+00
   outer loop
     vertex  4.255259e+00  1.122019e+01  5.000000e+00
     vertex  4.255259e+00  1.122019e+01  0.000000e+00
     vertex  1.446440e+00  1.191251e+01  0.000000e+00
   endloop
 endfacet
 facet normal  4.647232e-01  8.854560e-01  0.000000e+00
   outer loop
     vertex  4.255259e+00  1.122019e+01  5.000000e+00
     vertex  6.816777e+00  9.875806e+00  5.000000e+00
     vertex  6.816777e+00  9.875806e+00  0.000000e+00
   endloop
 endfacet
 facet normal  2.393157e-01  9.709418e-01  0.000000e+00
   outer loop
     vertex  1.446440e+00  1.191251e+01  5.000000e+00
     vertex  4.255259e+00  1.122019e+01  5.000000e+00
     vertex  1.446440e+00  1.191251e+01  0.000000e+00
   endloop
 endfacet
 facet normal  0.000000e+00  1.000000e+00  0.000000e+00
   outer loop
     vertex -1.446440e+00  1.191251e+01  5.000000e+00
     vertex  1.446440e+00  1.191251e+01  0.000000e+00
     vertex -1.446440e+00  1.191251e+01  0.000000e+00
   endloop
 endfacet
 facet normal -0.000000e+00  1.000000e+00  0.000000e+00
   outer loop
     vertex -1.446440e+00  1.191251e+01  5.000000e+00
     vertex  1.446440e+00  1.191251e+01  5.000000e+00
     vertex  1.446440e+00  1.191251e+01  0.000000e+00
   endloop
 endfacet
 facet normal -2.393157e-01  9.709418e-01  0.000000e+00
   outer loop
     vertex -4.255259e+00  1.122019e+01  5.000000e+00
     vertex -1.446440e+00  1.191251e+01  0.000000e+00
     vertex -4.255259e+00  1.122019e+01  0.000000e+00
   endloop
 endfacet
 facet normal -2.393157e-01  9.709418e-01  0.000000e+00
   outer loop
     vertex -4.255259e+00  1.122019e+01  5.000000e+00
     vertex -1.446440e+00  1.191251e+01  5.000000e+00
     vertex -1.446440e+00  1.191251e+01  0.000000e+00
   endloop
 endfacet
 facet normal -4.647232e-01  8.854560e-01  0.000000e+00
   outer loop
     vertex -6.816777e+00  9.875806e+00  5.000000e+00
     vertex -4.255259e+00  1.122019e+01  0.000000e+00
     vertex -6.816777e+00  9.875806e+00  0.000000e+00
   endloop
 endfacet
 facet normal -4.647232e-01  8.854560e-01  0.000000e+00
   outer loop
     vertex -6.816777e+00  9.875806e+00  5.000000e+00
     vertex -4.255259e+00  1.122019e+01  5.000000e+00
     vertex -4.255259e+00  1.122019e+01  0.000000e+00
   endloop
 endfacet
 facet normal -6.631227e-01  7.485107e-01  0.000000e+00
   outer loop
     vertex -8.982129e+00  7.957472e+00  5.000000e+00
     vertex -6.816777e+00  9.875806e+00  0.000000e+00
     vertex -8.982129e+00  7.957472e+00  0.000000e+00
   endloop
 endfacet
 facet normal -8.229839e-01  5.680647e-01  0.000000e+00
   outer loop
     vertex -8.982129e+00  7.957472e+00  5.000000e+00
     vertex -8.982129e+00  7.957472e+00  0.000000e+00
     vertex -1.062547e+01  5.576678e+00  0.000000e+00
   endloop
 endfacet
 facet normal -6.631227e-01  7.485107e-01  0.000000e+00
   outer loop
     vertex -8.982129e+00  7.957472e+00  5.000000e+00
     vertex -6.816777e+00  9.875806e+00  5.000000e+00
     vertex -6.816777e+00  9.875806e+00  0.000000e+00
   endloop
 endfacet
 facet normal -8.229839e-01  5.680647e-01  0.000000e+00
   outer loop
     vertex -1.062547e+01  5.576678e+00  5.000000e+00
     vertex -8.982129e+00  7.957472e+00  5.000000e+00
     vertex -1.062547e+01  5.576678e+00  0.000000e+00
   endloop
 endfacet
 facet normal -9.350162e-01  3.546049e-01  0.000000e+00
   outer loop
     vertex -1.062547e+01  5.576678e+00  5.000000e+00
     vertex -1.062547e+01  5.576678e+00  0.000000e+00
     vertex -1.165130e+01  2.871788e+00  0.000000e+00
   endloop
 endfacet
 facet normal -9.350162e-01  3.546049e-01  0.000000e+00
   outer loop
     vertex -1.165130e+01  2.871788e+00  5.000000e+00
     vertex -1.062547e+01  5.576678e+00  5.000000e+00
     vertex -1.165130e+01  2.871788e+00  0.000000e+00
   endloop
 endfacet
 facet normal -9.927089e-01  1.205367e-01  0.000000e+00
   outer loop
     vertex -1.200000e+01  1.212772e-14  5.000000e+00
     vertex -1.165130e+01  2.871788e+00  5.000000e+00
     vertex -1.165130e+01  2.871788e+00  0.000000e+00
   endloop
 endfacet
 facet normal -9.927089e-01  1.205367e-01  0.000000e+00
   outer loop
     vertex -1.200000e+01  1.212772e-14  5.000000e+00
     vertex -1.165130e+01  2.871788e+00  0.000000e+00
     vertex -1.200000e+01  1.212772e-14  0.000000e+00
   endloop
 endfacet
 facet normal -9.927089e-01 -1.205367e-01 -0.000000e+00
   outer loop
     vertex -1.200000e+01  1.212772e-14  5.000000e+00
     vertex -1.200000e+01  1.212772e-14  0.000000e+00
     vertex -1.165130e+01 -2.871788e+00  0.000000e+00
   endloop
 endfacet
 facet normal -9.927089e-01 -1.205367e-01 -0.000000e+00
   outer loop
     vertex -1.165130e+01 -2.871788e+00  5.000000e+00
     vertex -1.200000e+01  1.212772e-14  5.000000e+00
     vertex -1.165130e+01 -2.871788e+00  0.000000e+00
   endloop
 endfacet
 facet normal -9.350162e-01 -3.546049e-01  0.000000e+00
   outer loop
     vertex -1.062547e+01 -5.576678e+00  5.000000e+00
     vertex -1.165130e+01 -2.871788e+00  5.000000e+00
     vertex -1.165130e+01 -2.871788e+00  0.000000e+00
   endloop
 endfacet
 facet normal -9.350162e-01 -3.546049e-01 -0.000000e+00
   outer loop
     vertex -1.062547e+01 -5.576678e+00  5.000000e+00
     vertex -1.165130e+01 -2.871788e+00  0.000000e+00
     vertex -1.062547e+01 -5.576678e+00  0.000000e+00
   endloop
 endfacet
 facet normal -8.229839e-01 -5.680647e-01  0.000000e+00
   outer loop
     vertex -8.982129e+00 -7.957472e+00  5.000000e+00
     vertex -1.062547e+01 -5.576678e+00  5.000000e+00
     vertex -1.062547e+01 -5.576678e+00  0.000000e+00
   endloop
 endfacet
 facet normal -8.229839e-01 -5.680647e-01 -0.000000e+00
   outer loop
     vertex -8.982129e+00 -7.957472e+00  5.000000e+00
     vertex -1.062547e+01 -5.576678e+00  0.000000e+00
     vertex -8.982129e+00 -7.957472e+00  0.000000e+00
   endloop
 endfacet
 facet normal -6.631227e-01 -7.485107e-01  0.000000e+00
   outer loop
     vertex -6.816777e+00 -9.875806e+00  5.000000e+00
     vertex -8.982129e+00 -7.957472e+00  5.000000e+00
     vertex -8.982129e+00 -7.957472e+00  0.000000e+00
   endloop
 endfacet
 facet normal -6.631227e-01 -7.485107e-01 -0.000000e+00
   outer loop
     vertex -6.816777e+00 -9.875806e+00  5.000000e+00
     vertex -8.982129e+00 -7.957472e+00  0.000000e+00
     vertex -6.816777e+00 -9.875806e+00  0.000000e+00
   endloop
 endfacet
 facet normal -4.647232e-01 -8.854560e-01  0.000000e+00
   outer loop
     vertex -4.255259e+00 -1.122019e+01  5.000000e+00
     vertex -6.816777e+00 -9.875806e+00  5.000000e+00
     vertex -6.816777e+00 -9.875806e+00  0.000000e+00
   endloop
 endfacet
 facet normal -4.647232e-01 -8.854560e-01 -0.000000e+00
   outer loop
     vertex -4.255259e+00 -1.122019e+01  5.000000e+00
     vertex -6.816777e+00 -9.875806e+00  0.000000e+00
     vertex -4.255259e+00 -1.122019e+01  0.000000e+00
   endloop
 endfacet
 facet normal -2.393157e-01 -9.709418e-01  0.000000e+00
   outer loop
     vertex -1.446440e+00 -1.191251e+01  5.000000e+00
     vertex -4.255259e+00 -1.122019e+01  5.000000e+00
     vertex -4.255259e+00 -1.122019e+01  0.000000e+00
   endloop
 endfacet
 facet normal -2.393157e-01 -9.709418e-01 -0.000000e+00
   outer loop
     vertex -1.446440e+00 -1.191251e+01  5.000000e+00
     vertex -4.255259e+00 -1.122019e+01  0.000000e+00
     vertex -1.446440e+00 -1.191251e+01  0.000000e+00
   endloop
 endfacet
 facet normal -2.456177e-15 -1.000000e+00 -0.000000e+00
   outer loop
     vertex -1.446440e+00 -1.191251e+01  5.000000e+00
     vertex -1.446440e+00 -1.191251e+01  0.000000e+00
     vertex  1.446440e+00 -1.191251e+01  0.000000e+00
   endloop
 endfacet
 facet normal -2.456177e-15 -1.000000e+00 -0.000000e+00
   outer loop
     vertex  1.446440e+00 -1.191251e+01  5.000000e+00
     vertex -1.446440e+00 -1.191251e+01  5.000000e+00
     vertex  1.446440e+00 -1.191251e+01  0.000000e+00
   endloop
 endfacet
 facet normal  2.393157e-01 -9.709418e-01  0.000000e+00
   outer loop
     vertex  4.255259e+00 -1.122019e+01  5.000000e+00
     vertex  1.446440e+00 -1.191251e+01  5.000000e+00
     vertex  1.446440e+00 -1.191251e+01  0.000000e+00
   endloop
 endfacet
 facet normal  2.393157e-01 -9.709418e-01  0.000000e+00
   outer loop
     vertex  4.255259e+00 -1.122019e+01  5.000000e+00
     vertex  1.446440e+00 -1.191251e+01  0.000000e+00
     vertex  4.255259e+00 -1.122019e+01  0.000000e+00
   endloop
 endfacet
 facet normal  4.647232e-01 -8.854560e-01  0.000000e+00
   outer loop
     vertex  6.816777e+00 -9.875806e+00  5.000000e+00
     vertex  4.255259e+00 -1.122019e+01  5.000000e+00
     vertex  4.255259e+00 -1.122019e+01  0.000000e+00
   endloop
 endfacet
 facet normal  4.647232e-01 -8.854560e-01  0.000000e+00
   outer loop
     vertex  6.816777e+00 -9.875806e+00  5.000000e+00
     vertex  4.255259e+00 -1.122019e+01  0.000000e+00
     vertex  6.816777e+00 -9.875806e+00  0.000000e+00
   endloop
 endfacet
 facet normal  6.631227e-01 -7.485107e-01  0.000000e+00
   outer loop
     vertex  6.816777e+00 -9.875806e+00  5.000000e+00
     vertex  6.816777e+00 -9.875806e+00  0.000000e+00
     vertex  8.982129e+00 -7.957472e+00  0.000000e+00
   endloop
 endfacet
 facet normal  6.631227e-01 -7.485107e-01  0.000000e+00
   outer loop
     vertex  8.982129e+00 -7.957472e+00  5.000000e+00
     vertex  6.816777e+00 -9.875806e+00  5.000000e+00
     vertex  8.982129e+00 -7.957472e+00  0.000000e+00
   endloop
 endfacet
 facet normal  8.229839e-01 -5.680647e-01  0.000000e+00
   outer loop
     vertex  8.982129e+00 -7.957472e+00  5.000000e+00
     vertex  8.982129e+00 -7.957472e+00  0.000000e+00
     vertex  1.062547e+01 -5.576678e+00  0.000000e+00
   endloop
 endfacet
 facet normal  8.229839e-01 -5.680647e-01  0.000000e+00
   outer loop
     vertex  1.062547e+01 -5.576678e+00  5.000000e+00
     vertex  8.982129e+00 -7.957472e+00  5.000000e+00
     vertex  1.062547e+01 -5.576678e+00  0.000000e+00
   endloop
 endfacet
 facet normal  9.350162e-01 -3.546049e-01  0.000000e+00
   outer loop
     vertex  1.165130e+01 -2.871788e+00  5.000000e+00
     vertex  1.062547e+01 -5.576678e+00  0.000000e+00
     vertex  1.165130e+01 -2.871788e+00  0.000000e+00
   endloop
 endfacet
 facet normal  9.927089e-01 -1.205367e-01  0.000000e+00
   outer loop
     vertex  1.165130e+01 -2.871788e+00  5.000000e+00
     vertex  1.165130e+01 -2.871788e+00  0.000000e+00
     vertex  1.200000e+01 -2.939152e-15  0.000000e+00
   endloop
 endfacet
 facet normal  9.350162e-01 -3.546049e-01  0.000000e+00
   outer loop
     vertex  1.165130e+01 -2.871788e+00  5.000000e+00
     vertex  1.062547e+01 -5.576678e+00  5.000000e+00
     vertex  1.062547e+01 -5.576678e+00  0.000000e+00
   endloop
 endfacet
 facet normal  9.927089e-01 -1.205367e-01  0.000000e+00
   outer loop
     vertex  1.200000e+01 -2.939152e-15  5.000000e+00
     vertex  1.165130e+01 -2.871788e+00  5.000000e+00
     vertex  1.200000e+01 -2.939152e-15  0.000000e+00
   endloop
 endfacet
 facet normal  0.000000e+00  0.000000e+00  1.000000e+00
   outer loop
     vertex -1.704194e+00 -2.468952e+00  5.000000e+00
     vertex -8.982129e+00 -7.957472e+00  5.000000e+00
     vertex -6.816777e+00 -9.875806e+00  5.000000e+00
   endloop
 endfacet
 facet normal  0.000000e+00  0.000000e+00  1.000000e+00
   outer loop
     vertex -1.704194e+00 -2.468952e+00  5.000000e+00
     vertex -6.816777e+00 -9.875806e+00  5.000000e+00
     vertex -4.255259e+00 -1.122019e+01  5.000000e+00
   endloop
 endfacet
 facet normal  0.000000e+00  0.000000e+00  1.000000e+00
   outer loop
     vertex -1.704194e+00 -2.468952e+00  5.000000e+00
     vertex -2.245532e+00 -1.989368e+00  5.000000e+00
     vertex -8.982129e+00 -7.957472e+00  5.000000e+00
   endloop
 endfacet
 facet normal  0.000000e+00  0.000000e+00  1.000000e+00
   outer loop
     vertex -2.656368e+00 -1.394170e+00  5.000000e+00
     vertex -1.062547e+01 -5.576678e+00  5.000000e+00
     vertex -8.982129e+00 -7.957472e+00  5.000000e+00
   endloop
 endfacet
 facet normal  0.000000e+00  0.000000e+00  1.000000e+00
   outer loop
     vertex -2.656368e+00 -1.394170e+00  5.000000e+00
     vertex -8.982129e+00 -7.957472e+00  5.000000e+00
     vertex -2.245532e+00 -1.989368e+00  5.000000e+00
   endloop
 endfacet
 facet normal  0.000000e+00  0.000000e+00  1.000000e+00
   outer loop
     vertex -1.063815e+00 -2.805049e+00  5.000000e+00
     vertex -1.704194e+00 -2.468952e+00  5.000000e+00
     vertex -4.255259e+00 -1.122019e+01  5.000000e+00
   endloop
 endfacet
 facet normal  0.000000e+00  0.000000e+00  1.000000e+00
   outer loop
     vertex -2.912825e+00 -7.179470e-01  5.000000e+00
     vertex -1.165130e+01 -2.871788e+00  5.000000e+00
     vertex -1.062547e+01 -5.576678e+00  5.000000e+00
   endloop
 endfacet
 facet normal  0.000000e+00  0.000000e+00  1.000000e+00
   outer loop
     vertex -2.912825e+00 -7.179470e-01  5.000000e+00
     vertex -1.062547e+01 -5.576678e+00  5.000000e+00
     vertex -2.656368e+00 -1.394170e+00  5.000000e+00
   endloop
 endfacet
 facet normal  0.000000e+00  0.000000e+00  1.000000e+00
   outer loop
     vertex -3.616100e-01 -2.978127e+00  5.000000e+00
     vertex -4.255259e+00 -1.122019e+01  5.000000e+00
     vertex -1.446440e+00 -1.191251e+01  5.000000e+00
   endloop
 endfacet
 facet normal  0.000000e+00  0.000000e+00  1.000000e+00
   outer loop
     vertex -3.616100e-01 -2.978127e+00  5.000000e+00
     vertex -1.063815e+00 -2.805049e+00  5.000000e+00
     vertex -4.255259e+00 -1.122019e+01  5.000000e+00
   endloop
 endfacet
 facet normal  0.000000e+00  0.000000e+00  1.000000e+00
   outer loop
     vertex -3.000000e+00  3.031929e-15  5.000000e+00
     vertex -1.200000e+01  1.212772e-14  5.000000e+00
     vertex -1.165130e+01 -2.871788e+00  5.000000e+00
   endloop
 endfacet
 facet normal  0.000000e+00  0.000000e+00  1.000000e+00
   outer loop
     vertex -3.000000e+00  3.031929e-15  5.000000e+00
     vertex -1.165130e+01 -2.871788e+00  5.000000e+00
     vertex -2.912825e+00 -7.179470e-01  5.000000e+00
   endloop
 endfacet
 facet normal  0.000000e+00  0.000000e+00  1.000000e+00
   outer loop
     vertex  3.616100e-01 -2.978127e+00  5.000000e+00
     vertex -1.446440e+00 -1.191251e+01  5.000000e+00
     vertex  1.446440e+00 -1.191251e+01  5.000000e+00
   endloop
 endfacet
 facet normal  0.000000e+00  0.000000e+00  1.000000e+00
   outer loop
     vertex  3.616100e-01 -2.978127e+00  5.000000e+00
     vertex  1.446440e+00 -1.191251e+01  5.000000e+00
     vertex  4.255259e+00 -1.122019e+01  5.000000e+00
   endloop
 endfacet
 facet normal  0.000000e+00  0.000000e+00  1.000000e+00
   outer loop
     vertex  3.616100e-01 -2.978127e+00  5.000000e+00
     vertex -3.616100e-01 -2.978127e+00  5.000000e+00
     vertex -1.446440e+00 -1.191251e+01  5.000000e+00
   endloop
 endfacet
 facet normal  0.000000e+00  0.000000e+00  1.000000e+00
   outer loop
     vertex -2.912825e+00  7.179470e-01  5.000000e+00
     vertex -1.165130e+01  2.871788e+00  5.000000e+00
     vertex -1.200000e+01  1.212772e-14  5.000000e+00
   endloop
 endfacet
 facet normal  0.000000e+00  0.000000e+00  1.000000e+00
   outer loop
     vertex -2.912825e+00  7.179470e-01  5.000000e+00
     vertex -1.200000e+01  1.212772e-14  5.000000e+00
     vertex -3.000000e+00  3.031929e-15  5.000000e+00
   endloop
 endfacet
 facet normal  0.000000e+00  0.000000e+00  1.000000e+00
   outer loop
     vertex  1.063815e+00 -2.805049e+00  5.000000e+00
     vertex  3.616100e-01 -2.978127e+00  5.000000e+00
     vertex  4.255259e+00 -1.122019e+01  5.000000e+00
   endloop
 endfacet
 facet normal  0.000000e+00  0.000000e+00  1.000000e+00
   outer loop
     vertex -2.656368e+00  1.394170e+00  5.000000e+00
     vertex -1.062547e+01  5.576678e+00  5.000000e+00
     vertex -1.165130e+01  2.871788e+00  5.000000e+00
   endloop
 endfacet
 facet normal  0.000000e+00  0.000000e+00  1.000000e+00
   outer loop
     vertex -2.656368e+00  1.394170e+00  5.000000e+00
     vertex -1.165130e+01  2.871788e+00  5.000000e+00
     vertex -2.912825e+00  7.179470e-01  5.000000e+00
   endloop
 endfacet
 facet normal  0.000000e+00  0.000000e+00  1.000000e+00
   outer loop
     vertex -8.982129e+00  7.957472e+00  5.000000e+00
     vertex -1.062547e+01  5.576678e+00  5.000000e+00
     vertex -2.656368e+00  1.394170e+00  5.000000e+00
   endloop
 endfacet
 facet normal  0.000000e+00  0.000000e+00  1.000000e+00
   outer loop
     vertex  1.704194e+00 -2.468952e+00  5.000000e+00
     vertex  4.255259e+00 -1.122019e+01  5.000000e+00
     vertex  6.816777e+00 -9.875806e+00  5.000000e+00
   endloop
 endfacet
 facet normal  0.000000e+00  0.000000e+00  1.000000e+00
   outer loop
     vertex  1.704194e+00 -2.468952e+00  5.000000e+00
     vertex  1.063815e+00 -2.805049e+00  5.000000e+00
     vertex  4.255259e+00 -1.122019e+01  5.000000e+00
   endloop
 endfacet
 facet normal  0.000000e+00  0.000000e+00  1.000000e+00
   outer loop
     vertex -2.245532e+00  1.989368e+00  5.000000e+00
     vertex -8.982129e+00  7.957472e+00  5.000000e+00
     vertex -2.656368e+00  1.394170e+00  5.000000e+00
   endloop
 endfacet
 facet normal  0.000000e+00  0.000000e+00  1.000000e+00
   outer loop
     vertex  2.245532e+00 -1.989368e+00  5.000000e+00
     vertex  1.704194e+00 -2.468952e+00  5.000000e+00
     vertex  6.816777e+00 -9.875806e+00  5.000000e+00
   endloop
 endfacet
 facet normal  0.000000e+00  0.000000e+00  1.000000e+00
   outer loop
     vertex -1.704194e+00  2.468952e+00  5.000000e+00
     vertex -8.982129e+00  7.957472e+00  5.000000e+00
     vertex -2.245532e+00  1.989368e+00  5.000000e+00
   endloop
 endfacet
 facet normal  0.000000e+00  0.000000e+00  1.000000e+00
   outer loop
     vertex  8.982129e+00 -7.957472e+00  5.000000e+00
     vertex  2.245532e+00 -1.989368e+00  5.000000e+00
     vertex  6.816777e+00 -9.875806e+00  5.000000e+00
   endloop
 endfacet
 facet normal  0.000000e+00  0.000000e+00  1.000000e+00
   outer loop
     vertex  2.656368e+00 -1.394170e+00  5.000000e+00
     vertex  2.245532e+00 -1.989368e+00  5.000000e+00
     vertex  8.982129e+00 -7.957472e+00  5.000000e+00
   endloop
 endfacet
 facet normal  0.000000e+00  0.000000e+00  1.000000e+00
   outer loop
     vertex -6.816777e+00  9.875806e+00  5.000000e+00
     vertex -8.982129e+00  7.957472e+00  5.000000e+00
     vertex -1.704194e+00  2.468952e+00  5.000000e+00
   endloop
 endfacet
 facet normal  0.000000e+00  0.000000e+00  1.000000e+00
   outer loop
     vertex  1.062547e+01 -5.576678e+00  5.000000e+00
     vertex  2.656368e+00 -1.394170e+00  5.000000e+00
     vertex  8.982129e+00 -7.957472e+00  5.000000e+00
   endloop
 endfacet
 facet normal  0.000000e+00  0.000000e+00  1.000000e+00
   outer loop
     vertex  1.062547e+01 -5.576678e+00  5.000000e+00
     vertex  2.912825e+00 -7.179470e-01  5.000000e+00
     vertex  2.656368e+00 -1.394170e+00  5.000000e+00
   endloop
 endfacet
 facet normal  0.000000e+00  0.000000e+00  1.000000e+00
   outer loop
     vertex -4.255259e+00  1.122019e+01  5.000000e+00
     vertex -6.816777e+00  9.875806e+00  5.000000e+00
     vertex -1.704194e+00  2.468952e+00  5.000000e+00
   endloop
 endfacet
 facet normal  0.000000e+00  0.000000e+00  1.000000e+00
   outer loop
     vertex -4.255259e+00  1.122019e+01  5.000000e+00
     vertex -1.704194e+00  2.468952e+00  5.000000e+00
     vertex -1.063815e+00  2.805049e+00  5.000000e+00
   endloop
 endfacet
 facet normal  0.000000e+00  0.000000e+00  1.000000e+00
   outer loop
     vertex  1.165130e+01 -2.871788e+00  5.000000e+00
     vertex  2.912825e+00 -7.179470e-01  5.000000e+00
     vertex  1.062547e+01 -5.576678e+00  5.000000e+00
   endloop
 endfacet
 facet normal  0.000000e+00  0.000000e+00  1.000000e+00
   outer loop
     vertex  1.165130e+01 -2.871788e+00  5.000000e+00
     vertex  3.000000e+00 -7.347881e-16  5.000000e+00
     vertex  2.912825e+00 -7.179470e-01  5.000000e+00
   endloop
 endfacet
 facet normal  0.000000e+00  0.000000e+00  1.000000e+00
   outer loop
     vertex -1.446440e+00  1.191251e+01  5.000000e+00
     vertex -1.063815e+00  2.805049e+00  5.000000e+00
     vertex -3.616100e-01  2.978127e+00  5.000000e+00
   endloop
 endfacet
 facet normal  0.000000e+00  0.000000e+00  1.000000e+00
   outer loop
     vertex -1.446440e+00  1.191251e+01  5.000000e+00
     vertex -4.255259e+00  1.122019e+01  5.000000e+00
     vertex -1.063815e+00  2.805049e+00  5.000000e+00
   endloop
 endfacet
 facet normal  0.000000e+00  0.000000e+00  1.000000e+00
   outer loop
     vertex  1.200000e+01 -2.939152e-15  5.000000e+00
     vertex  3.000000e+00 -7.347881e-16  5.000000e+00
     vertex  1.165130e+01 -2.871788e+00  5.000000e+00
   endloop
 endfacet
 facet normal  0.000000e+00  0.000000e+00  1.000000e+00
   outer loop
     vertex  1.446440e+00  1.191251e+01  5.000000e+00
     vertex -1.446440e+00  1.191251e+01  5.000000e+00
     vertex -3.616100e-01  2.978127e+00  5.000000e+00
   endloop
 endfacet
 facet normal  0.000000e+00  0.000000e+00  1.000000e+00
   outer loop
     vertex  1.446440e+00  1.191251e+01  5.000000e+00
     vertex -3.616100e-01  2.978127e+00  5.000000e+00
     vertex  3.616100e-01  2.978127e+00  5.000000e+00
   endloop
 endfacet
 facet normal  0.000000e+00  0.000000e+00  1.000000e+00
   outer loop
     vertex  1.165130e+01  2.871788e+00  5.000000e+00
     vertex  2.912825e+00  7.179470e-01  5.000000e+00
     vertex  3.000000e+00 -7.347881e-16  5.000000e+00
   endloop
 endfacet
 facet normal  0.000000e+00  0.000000e+00  1.000000e+00
   outer loop
     vertex  1.165130e+01  2.871788e+00  5.000000e+00
     vertex  2.656368e+00  1.394170e+00  5.000000e+00
     vertex  2.912825e+00  7.179470e-01  5.000000e+00
   endloop
 endfacet
 facet normal  0.000000e+00  0.000000e+00  1.000000e+00
   outer loop
     vertex  1.165130e+01  2.871788e+00  5.000000e+00
     vertex  3.000000e+00 -7.347881e-16  5.000000e+00
     vertex  1.200000e+01 -2.939152e-15  5.000000e+00
   endloop
 endfacet
 facet normal  0.000000e+00  0.000000e+00  1.000000e+00
   outer loop
     vertex  4.255259e+00  1.122019e+01  5.000000e+00
     vertex  1.446440e+00  1.191251e+01  5.000000e+00
     vertex  3.616100e-01  2.978127e+00  5.000000e+00
   endloop
 endfacet
 facet normal  0.000000e+00  0.000000e+00  1.000000e+00
   outer loop
     vertex  4.255259e+00  1.122019e+01  5.000000e+00
     vertex  3.616100e-01  2.978127e+00  5.000000e+00
     vertex  1.063815e+00  2.805049e+00  5.000000e+00
   endloop
 endfacet
 facet normal  0.000000e+00  0.000000e+00  1.000000e+00
   outer loop
     vertex  1.062547e+01  5.576678e+00  5.000000e+00
     vertex  2.656368e+00  1.394170e+00  5.000000e+00
     vertex  1.165130e+01  2.871788e+00  5.000000e+00
   endloop
 endfacet
 facet normal  0.000000e+00  0.000000e+00  1.000000e+00
   outer loop
     vertex  6.816777e+00  9.875806e+00  5.000000e+00
     vertex  4.255259e+00  1.122019e+01  5.000000e+00
     vertex  1.063815e+00  2.805049e+00  5.000000e+00
   endloop
 endfacet
 facet normal  0.000000e+00  0.000000e+00  1.000000e+00
   outer loop
     vertex  6.816777e+00  9.875806e+00  5.000000e+00
     vertex  1.063815e+00  2.805049e+00  5.000000e+00
     vertex  1.704194e+00  2.468952e+00  5.000000e+00
   endloop
 endfacet
 facet normal  0.000000e+00  0.000000e+00  1.000000e+00
   outer loop
     vertex  8.982129e+00  7.957472e+00  5.000000e+00
     vertex  2.656368e+00  1.394170e+00  5.000000e+00
     vertex  1.062547e+01  5.576678e+00  5.000000e+00
   endloop
 endfacet
 facet normal  0.000000e+00  0.000000e+00  1.000000e+00
   outer loop
     vertex  8.982129e+00  7.957472e+00  5.000000e+00
     vertex  2.245532e+00  1.989368e+00  5.000000e+00
     vertex  2.656368e+00  1.394170e+00  5.000000e+00
   endloop
 endfacet
 facet normal  0.000000e+00  0.000000e+00  1.000000e+00
   outer loop
     vertex  8.982129e+00  7.957472e+00  5.000000e+00
     vertex  1.704194e+00  2.468952e+00  5.000000e+00
     vertex  2.245532e+00  1.989368e+00  5.000000e+00
   endloop
 endfacet
 facet normal  0.000000e+00  0.000000e+00  1.000000e+00
   outer loop
     vertex  8.982129e+00  7.957472e+00  5.000000e+00
     vertex  6.816777e+00  9.875806e+00  5.000000e+00
     vertex  1.704194e+00  2.468952e+00  5.000000e+00
   endloop
 endfacet
 facet normal  0.000000e+00  0.000000e+00 -1.000000e+00
   outer loop
     vertex -1.704194e+00 -2.468952e+00  0.000000e+00
     vertex -6.816777e+00 -9.875806e+00  0.000000e+00
     vertex -8.982129e+00 -7.957472e+00  0.000000e+00
   endloop
 endfacet
 facet normal  0.000000e+00  0.000000e+00 -1.000000e+00
   outer loop
     vertex -1.704194e+00 -2.468952e+00  0.000000e+00
     vertex -4.255259e+00 -1.122019e+01  0.000000e+00
     vertex -6.816777e+00 -9.875806e+00  0.000000e+00
   endloop
 endfacet
 facet normal -0.000000e+00  0.000000e+00 -1.000000e+00
   outer loop
     vertex -1.704194e+00 -2.468952e+00  0.000000e+00
     vertex -8.982129e+00 -7.957472e+00  0.000000e+00
     vertex -2.245532e+00 -1.989368e+00  0.000000e+00
   endloop
 endfacet
 facet normal  0.000000e+00  0.000000e+00 -1.000000e+00
   outer loop
     vertex -2.656368e+00 -1.394170e+00  0.000000e+00
     vertex -8.982129e+00 -7.957472e+00  0.000000e+00
     vertex -1.062547e+01 -5.576678e+00  0.000000e+00
   endloop
 endfacet
 facet normal  0.000000e+00 -0.000000e+00 -1.000000e+00
   outer loop
     vertex -2.656368e+00 -1.394170e+00  0.000000e+00
     vertex -2.245532e+00 -1.989368e+00  0.000000e+00
     vertex -8.982129e+00 -7.957472e+00  0.000000e+00
   endloop
 endfacet
 facet normal -0.000000e+00  0.000000e+00 -1.000000e+00
   outer loop
     vertex -1.063815e+00 -2.805049e+00  0.000000e+00
     vertex -4.255259e+00 -1.122019e+01  0.000000e+00
     vertex -1.704194e+00 -2.468952e+00  0.000000e+00
   endloop
 endfacet
 facet normal  0.000000e+00  0.000000e+00 -1.000000e+00
   outer loop
     vertex -2.912825e+00 -7.179470e-01  0.000000e+00
     vertex -1.062547e+01 -5.576678e+00  0.000000e+00
     vertex -1.165130e+01 -2.871788e+00  0.000000e+00
   endloop
 endfacet
 facet normal  0.000000e+00 -0.000000e+00 -1.000000e+00
   outer loop
     vertex -2.912825e+00 -7.179470e-01  0.000000e+00
     vertex -2.656368e+00 -1.394170e+00  0.000000e+00
     vertex -1.062547e+01 -5.576678e+00  0.000000e+00
   endloop
 endfacet
 facet normal  0.000000e+00  0.000000e+00 -1.000000e+00
   outer loop
     vertex -3.616100e-01 -2.978127e+00  0.000000e+00
     vertex -1.446440e+00 -1.191251e+01  0.000000e+00
     vertex -4.255259e+00 -1.122019e+01  0.000000e+00
   endloop
 endfacet
 facet normal -0.000000e+00  0.000000e+00 -1.000000e+00
   outer loop
     vertex -3.616100e-01 -2.978127e+00  0.000000e+00
     vertex -4.255259e+00 -1.122019e+01  0.000000e+00
     vertex -1.063815e+00 -2.805049e+00  0.000000e+00
   endloop
 endfacet
 facet normal -0.000000e+00  0.000000e+00 -1.000000e+00
   outer loop
     vertex -3.000000e+00  3.031929e-15  0.000000e+00
     vertex -1.165130e+01 -2.871788e+00  0.000000e+00
     vertex -1.200000e+01  1.212772e-14  0.000000e+00
   endloop
 endfacet
 facet normal  0.000000e+00 -0.000000e+00 -1.000000e+00
   outer loop
     vertex -3.000000e+00  3.031929e-15  0.000000e+00
     vertex -2.912825e+00 -7.179470e-01  0.000000e+00
     vertex -1.165130e+01 -2.871788e+00  0.000000e+00
   endloop
 endfacet
 facet normal  0.000000e+00 -0.000000e+00 -1.000000e+00
   outer loop
     vertex  3.616100e-01 -2.978127e+00  0.000000e+00
     vertex  1.446440e+00 -1.191251e+01  0.000000e+00
     vertex -1.446440e+00 -1.191251e+01  0.000000e+00
   endloop
 endfacet
 facet normal  0.000000e+00  0.000000e+00 -1.000000e+00
   outer loop
     vertex  3.616100e-01 -2.978127e+00  0.000000e+00
     vertex  4.255259e+00 -1.122019e+01  0.000000e+00
     vertex  1.446440e+00 -1.191251e+01  0.000000e+00
   endloop
 endfacet
 facet normal -0.000000e+00  0.000000e+00 -1.000000e+00
   outer loop
     vertex  3.616100e-01 -2.978127e+00  0.000000e+00
     vertex -1.446440e+00 -1.191251e+01  0.000000e+00
     vertex -3.616100e-01 -2.978127e+00  0.000000e+00
   endloop
 endfacet
 facet normal -0.000000e+00  0.000000e+00 -1.000000e+00
   outer loop
     vertex -2.912825e+00  7.179470e-01  0.000000e+00
     vertex -1.200000e+01  1.212772e-14  0.000000e+00
     vertex -1.165130e+01  2.871788e+00  0.000000e+00
   endloop
 endfacet
 facet normal  0.000000e+00  0.000000e+00 -1.000000e+00
   outer loop
     vertex -2.912825e+00  7.179470e-01  0.000000e+00
     vertex -3.000000e+00  3.031929e-15  0.000000e+00
     vertex -1.200000e+01  1.212772e-14  0.000000e+00
   endloop
 endfacet
 facet normal  0.000000e+00 -0.000000e+00 -1.000000e+00
   outer loop
     vertex  1.063815e+00 -2.805049e+00  0.000000e+00
     vertex  4.255259e+00 -1.122019e+01  0.000000e+00
     vertex  3.616100e-01 -2.978127e+00  0.000000e+00
   endloop
 endfacet
 facet normal  0.000000e+00  0.000000e+00 -1.000000e+00
   outer loop
     vertex -2.656368e+00  1.394170e+00  0.000000e+00
     vertex -1.165130e+01  2.871788e+00  0.000000e+00
     vertex -1.062547e+01  5.576678e+00  0.000000e+00
   endloop
 endfacet
 facet normal -0.000000e+00  0.000000e+00 -1.000000e+00
   outer loop
     vertex -2.656368e+00  1.394170e+00  0.000000e+00
     vertex -2.912825e+00  7.179470e-01  0.000000e+00
     vertex -1.165130e+01  2.871788e+00  0.000000e+00
   endloop
 endfacet
 facet normal  0.000000e+00 -0.000000e+00 -1.000000e+00
   outer loop
     vertex -8.982129e+00  7.957472e+00  0.000000e+00
     vertex -2.656368e+00  1.394170e+00  0.000000e+00
     vertex -1.062547e+01  5.576678e+00  0.000000e+00
   endloop
 endfacet
 facet normal  0.000000e+00  0.000000e+00 -1.000000e+00
   outer loop
     vertex  1.704194e+00 -2.468952e+00  0.000000e+00
     vertex  6.816777e+00 -9.875806e+00  0.000000e+00
     vertex  4.255259e+00 -1.122019e+01  0.000000e+00
   endloop
 endfacet
 facet normal  0.000000e+00 -0.000000e+00 -1.000000e+00
   outer loop
     vertex  1.704194e+00 -2.468952e+00  0.000000e+00
     vertex  4.255259e+00 -1.122019e+01  0.000000e+00
     vertex  1.063815e+00 -2.805049e+00  0.000000e+00
   endloop
 endfacet
 facet normal -0.000000e+00  0.000000e+00 -1.000000e+00
   outer loop
     vertex -2.245532e+00  1.989368e+00  0.000000e+00
     vertex -2.656368e+00  1.394170e+00  0.000000e+00
     vertex -8.982129e+00  7.957472e+00  0.000000e+00
   endloop
 endfacet
 facet normal  0.000000e+00 -0.000000e+00 -1.000000e+00
   outer loop
     vertex  2.245532e+00 -1.989368e+00  0.000000e+00
     vertex  6.816777e+00 -9.875806e+00  0.000000e+00
     vertex  1.704194e+00 -2.468952e+00  0.000000e+00
   endloop
 endfacet
 facet normal -0.000000e+00  0.000000e+00 -1.000000e+00
   outer loop
     vertex -1.704194e+00  2.468952e+00  0.000000e+00
     vertex -2.245532e+00  1.989368e+00  0.000000e+00
     vertex -8.982129e+00  7.957472e+00  0.000000e+00
   endloop
 endfacet
 facet normal -0.000000e+00  0.000000e+00 -1.000000e+00
   outer loop
     vertex  8.982129e+00 -7.957472e+00  0.000000e+00
     vertex  6.816777e+00 -9.875806e+00  0.000000e+00
     vertex  2.245532e+00 -1.989368e+00  0.000000e+00
   endloop
 endfacet
 facet normal  0.000000e+00 -0.000000e+00 -1.000000e+00
   outer loop
     vertex  2.656368e+00 -1.394170e+00  0.000000e+00
     vertex  8.982129e+00 -7.957472e+00  0.000000e+00
     vertex  2.245532e+00 -1.989368e+00  0.000000e+00
   endloop
 endfacet
 facet normal  0.000000e+00 -0.000000e+00 -1.000000e+00
   outer loop
     vertex -6.816777e+00  9.875806e+00  0.000000e+00
     vertex -1.704194e+00  2.468952e+00  0.000000e+00
     vertex -8.982129e+00  7.957472e+00  0.000000e+00
   endloop
 endfacet
 facet normal -0.000000e+00  0.000000e+00 -1.000000e+00
   outer loop
     vertex  1.062547e+01 -5.576678e+00  0.000000e+00
     vertex  8.982129e+00 -7.957472e+00  0.000000e+00
     vertex  2.656368e+00 -1.394170e+00  0.000000e+00
   endloop
 endfacet
 facet normal  0.000000e+00  0.000000e+00 -1.000000e+00
   outer loop
     vertex  1.062547e+01 -5.576678e+00  0.000000e+00
     vertex  2.656368e+00 -1.394170e+00  0.000000e+00
     vertex  2.912825e+00 -7.179470e-01  0.000000e+00
   endloop
 endfacet
 facet normal  0.000000e+00 -0.000000e+00 -1.000000e+00
   outer loop
     vertex -4.255259e+00  1.122019e+01  0.000000e+00
     vertex -1.704194e+00  2.468952e+00  0.000000e+00
     vertex -6.816777e+00  9.875806e+00  0.000000e+00
   endloop
 endfacet
 facet normal  0.000000e+00  0.000000e+00 -1.000000e+00
   outer loop
     vertex -4.255259e+00  1.122019e+01  0.000000e+00
     vertex -1.063815e+00  2.805049e+00  0.000000e+00
     vertex -1.704194e+00  2.468952e+00  0.000000e+00
   endloop
 endfacet
 facet normal -0.000000e+00  0.000000e+00 -1.000000e+00
   outer loop
     vertex  1.165130e+01 -2.871788e+00  0.000000e+00
     vertex  1.062547e+01 -5.576678e+00  0.000000e+00
     vertex  2.912825e+00 -7.179470e-01  0.000000e+00
   endloop
 endfacet
 facet normal  0.000000e+00  0.000000e+00 -1.000000e+00
   outer loop
     vertex  1.165130e+01 -2.871788e+00  0.000000e+00
     vertex  2.912825e+00 -7.179470e-01  0.000000e+00
     vertex  3.000000e+00 -7.347881e-16  0.000000e+00
   endloop
 endfacet
 facet normal  0.000000e+00  0.000000e+00 -1.000000e+00
   outer loop
     vertex -1.446440e+00  1.191251e+01  0.000000e+00
     vertex -3.616100e-01  2.978127e+00  0.000000e+00
     vertex -1.063815e+00  2.805049e+00  0.000000e+00
   endloop
 endfacet
 facet normal  0.000000e+00 -0.000000e+00 -1.000000e+00
   outer loop
     vertex -1.446440e+00  1.191251e+01  0.000000e+00
     vertex -1.063815e+00  2.805049e+00  0.000000e+00
     vertex -4.255259e+00  1.122019e+01  0.000000e+00
   endloop
 endfacet
 facet normal -0.000000e+00  0.000000e+00 -1.000000e+00
   outer loop
     vertex  1.200000e+01 -2.939152e-15  0.000000e+00
     vertex  1.165130e+01 -2.871788e+00  0.000000e+00
     vertex  3.000000e+00 -7.347881e-16  0.000000e+00
   endloop
 endfacet
 facet normal -0.000000e+00  0.000000e+00 -1.000000e+00
   outer loop
     vertex  1.446440e+00  1.191251e+01  0.000000e+00
     vertex -3.616100e-01  2.978127e+00  0.000000e+00
     vertex -1.446440e+00  1.191251e+01  0.000000e+00
   endloop
 endfacet
 facet normal  0.000000e+00  0.000000e+00 -1.000000e+00
   outer loop
     vertex  1.446440e+00  1.191251e+01  0.000000e+00
     vertex  3.616100e-01  2.978127e+00  0.000000e+00
     vertex -3.616100e-01  2.978127e+00  0.000000e+00
   endloop
 endfacet
 facet normal  0.000000e+00  0.000000e+00 -1.000000e+00
   outer loop
     vertex  1.165130e+01  2.871788e+00  0.000000e+00
     vertex  3.000000e+00 -7.347881e-16  0.000000e+00
     vertex  2.912825e+00  7.179470e-01  0.000000e+00
   endloop
 endfacet
 facet normal  0.000000e+00  0.000000e+00 -1.000000e+00
   outer loop
     vertex  1.165130e+01  2.871788e+00  0.000000e+00
     vertex  2.912825e+00  7.179470e-01  0.000000e+00
     vertex  2.656368e+00  1.394170e+00  0.000000e+00
   endloop
 endfacet
 facet normal  0.000000e+00 -0.000000e+00 -1.000000e+00
   outer loop
     vertex  1.165130e+01  2.871788e+00  0.000000e+00
     vertex  1.200000e+01 -2.939152e-15  0.000000e+00
     vertex  3.000000e+00 -7.347881e-16  0.000000e+00
   endloop
 endfacet
 facet normal -0.000000e+00  0.000000e+00 -1.000000e+00
   outer loop
     vertex  4.255259e+00  1.122019e+01  0.000000e+00
     vertex  3.616100e-01  2.978127e+00  0.000000e+00
     vertex  1.446440e+00  1.191251e+01  0.000000e+00
   endloop
 endfacet
 facet normal  0.000000e+00  0.000000e+00 -1.000000e+00
   outer loop
     vertex  4.255259e+00  1.122019e+01  0.000000e+00
     vertex  1.063815e+00  2.805049e+00  0.000000e+00
     vertex  3.616100e-01  2.978127e+00  0.000000e+00
   endloop
 endfacet
 facet normal  0.000000e+00 -0.000000e+00 -1.000000e+00
   outer loop
     vertex  1.062547e+01  5.576678e+00  0.000000e+00
     vertex  1.165130e+01  2.871788e+00  0.000000e+00
     vertex  2.656368e+00  1.394170e+00  0.000000e+00
   endloop
 endfacet
 facet normal -0.000000e+00  0.000000e+00 -1.000000e+00
   outer loop
     vertex  6.816777e+00  9.875806e+00  0.000000e+00
     vertex  1.063815e+00  2.805049e+00  0.000000e+00
     vertex  4.255259e+00  1.122019e+01  0.000000e+00
   endloop
 endfacet
 facet normal  0.000000e+00  0.000000e+00 -1.000000e+00
   outer loop
     vertex  6.816777e+00  9.875806e+00  0.000000e+00
     vertex  1.704194e+00  2.468952e+00  0.000000e+00
     vertex  1.063815e+00  2.805049e+00  0.000000e+00
   endloop
 endfacet
 facet normal  0.000000e+00 -0.000000e+00 -1.000000e+00
   outer loop
     vertex  8.982129e+00  7.957472e+00  0.000000e+00
     vertex  1.062547e+01  5.576678e+00  0.000000e+00
     vertex  2.656368e+00  1.394170e+00  0.000000e+00
   endloop
 endfacet
 facet normal  0.000000e+00  0.000000e+00 -1.000000e+00
   outer loop
     vertex  8.982129e+00  7.957472e+00  0.000000e+00
     vertex  2.656368e+00  1.394170e+00  0.000000e+00
     vertex  2.245532e+00  1.989368e+00  0.000000e+00
   endloop
 endfacet
 facet normal  0.000000e+00  0.000000e+00 -1.000000e+00
   outer loop
     vertex  8.982129e+00  7.957472e+00  0.000000e+00
     vertex  2.245532e+00  1.989368e+00  0.000000e+00
     vertex  1.704194e+00  2.468952e+00  0.000000e+00
   endloop
 endfacet
 facet normal -0.000000e+00  0.000000e+00 -1.000000e+00
   outer loop
     vertex  8.982129e+00  7.957472e+00  0.000000e+00
     vertex  1.704194e+00  2.468952e+00  0.000000e+00
     vertex  6.816777e+00  9.875806e+00  0.000000e+00
   endloop
 endfacet
 facet normal -9.927089e-01 -1.205367e-01  0.000000e+00
   outer loop
     vertex  2.912825e+00  7.179470e-01  5.000000e+00
     vertex  3.000000e+00 -7.347881e-16  0.000000e+00
     vertex  3.000000e+00 -7.347881e-16  5.000000e+00
   endloop
 endfacet
 facet normal -9.927089e-01 -1.205367e-01 -0.000000e+00
   outer loop
     vertex  2.912825e+00  7.179470e-01  5.000000e+00
     vertex  2.912825e+00  7.179470e-01  0.000000e+00
     vertex  3.000000e+00 -7.347881e-16  0.000000e+00
   endloop
 endfacet
 facet normal -9.350162e-01 -3.546049e-01 -0.000000e+00
   outer loop
     vertex  2.656368e+00  1.394170e+00  5.000000e+00
     vertex  2.656368e+00  1.394170e+00  0.000000e+00
     vertex  2.912825e+00  7.179470e-01  0.000000e+00
   endloop
 endfacet
 facet normal -8.229839e-01 -5.680647e-01 -0.000000e+00
   outer loop
     vertex  2.656368e+00  1.394170e+00  5.000000e+00
     vertex  2.245532e+00  1.989368e+00  0.000000e+00
     vertex  2.656368e+00  1.394170e+00  0.000000e+00
   endloop
 endfacet
 facet normal -9.350162e-01 -3.546049e-01  0.000000e+00
   outer loop
     vertex  2.656368e+00  1.394170e+00  5.000000e+00
     vertex  2.912825e+00  7.179470e-01  0.000000e+00
     vertex  2.912825e+00  7.179470e-01  5.000000e+00
   endloop
 endfacet
 facet normal -8.229839e-01 -5.680647e-01 -0.000000e+00
   outer loop
     vertex  2.245532e+00  1.989368e+00  5.000000e+00
     vertex  2.245532e+00  1.989368e+00  0.000000e+00
     vertex  2.656368e+00  1.394170e+00  5.000000e+00
   endloop
 endfacet
 facet normal -6.631227e-01 -7.485107e-01 -0.000000e+00
   outer loop
     vertex  1.704194e+00  2.468952e+00  5.000000e+00
     vertex  1.704194e+00  2.468952e+00  0.000000e+00
     vertex  2.245532e+00  1.989368e+00  0.000000e+00
   endloop
 endfacet
 facet normal -6.631227e-01 -7.485107e-01  0.000000e+00
   outer loop
     vertex  1.704194e+00  2.468952e+00  5.000000e+00
     vertex  2.245532e+00  1.989368e+00  0.000000e+00
     vertex  2.245532e+00  1.989368e+00  5.000000e+00
   endloop
 endfacet
 facet normal -4.647232e-01 -8.854560e-01 -0.000000e+00
   outer loop
     vertex  1.063815e+00  2.805049e+00  5.000000e+00
     vertex  1.063815e+00  2.805049e+00  0.000000e+00
     vertex  1.704194e+00  2.468952e+00  0.000000e+00
   endloop
 endfacet
 facet normal -2.393157e-01 -9.709418e-01 -0.000000e+00
   outer loop
     vertex  1.063815e+00  2.805049e+00  5.000000e+00
     vertex  3.616100e-01  2.978127e+00  0.000000e+00
     vertex  1.063815e+00  2.805049e+00  0.000000e+00
   endloop
 endfacet
 facet normal -4.647232e-01 -8.854560e-01  0.000000e+00
   outer loop
     vertex  1.063815e+00  2.805049e+00  5.000000e+00
     vertex  1.704194e+00  2.468952e+00  0.000000e+00
     vertex  1.704194e+00  2.468952e+00  5.000000e+00
   endloop
 endfacet
 facet normal -2.393157e-01 -9.709418e-01 -0.000000e+00
   outer loop
     vertex  3.616100e-01  2.978127e+00  5.000000e+00
     vertex  3.616100e-01  2.978127e+00  0.000000e+00
     vertex  1.063815e+00  2.805049e+00  5.000000e+00
   endloop
 endfacet
 facet normal  0.000000e+00 -1.000000e+00  0.000000e+00
   outer loop
     vertex -3.616100e-01  2.978127e+00  5.000000e+00
     vertex -3.616100e-01  2.978127e+00  0.000000e+00
     vertex  3.616100e-01  2.978127e+00  0.000000e+00
   endloop
 endfacet
 facet normal  0.000000e+00 -1.000000e+00  0.000000e+00
   outer loop
     vertex -3.616100e-01  2.978127e+00  5.000000e+00
     vertex  3.616100e-01  2.978127e+00  0.000000e+00
     vertex  3.616100e-01  2.978127e+00  5.000000e+00
   endloop
 endfacet
 facet normal  2.393157e-01 -9.709418e-01  0.000000e+00
   outer loop
     vertex -1.063815e+00  2.805049e+00  5.000000e+00
     vertex -1.063815e+00  2.805049e+00  0.000000e+00
     vertex -3.616100e-01  2.978127e+00  0.000000e+00
   endloop
 endfacet
 facet normal  2.393157e-01 -9.709418e-01  0.000000e+00
   outer loop
     vertex -1.063815e+00  2.805049e+00  5.000000e+00
     vertex -3.616100e-01  2.978127e+00  0.000000e+00
     vertex -3.616100e-01  2.978127e+00  5.000000e+00
   endloop
 endfacet
 facet normal  4.647232e-01 -8.854560e-01  0.000000e+00
   outer loop
     vertex -1.704194e+00  2.468952e+00  5.000000e+00
     vertex -1.704194e+00  2.468952e+00  0.000000e+00
     vertex -1.063815e+00  2.805049e+00  0.000000e+00
   endloop
 endfacet
 facet normal  4.647232e-01 -8.854560e-01  0.000000e+00
   outer loop
     vertex -1.704194e+00  2.468952e+00  5.000000e+00
     vertex -1.063815e+00  2.805049e+00  0.000000e+00
     vertex -1.063815e+00  2.805049e+00  5.000000e+00
   endloop
 endfacet
 facet normal  6.631227e-01 -7.485107e-01  0.000000e+00
   outer loop
     vertex -2.245532e+00  1.989368e+00  5.000000e+00
     vertex -2.245532e+00  1.989368e+00  0.000000e+00
     vertex -1.704194e+00  2.468952e+00  0.000000e+00
   endloop
 endfacet
 facet normal  8.229839e-01 -5.680647e-01  0.000000e+00
   outer loop
     vertex -2.245532e+00  1.989368e+00  5.000000e+00
     vertex -2.656368e+00  1.394170e+00  0.000000e+00
     vertex -2.245532e+00  1.989368e+00  0.000000e+00
   endloop
 endfacet
 facet normal  6.631227e-01 -7.485107e-01  0.000000e+00
   outer loop
     vertex -2.245532e+00  1.989368e+00  5.000000e+00
     vertex -1.704194e+00  2.468952e+00  0.000000e+00
     vertex -1.704194e+00  2.468952e+00  5.000000e+00
   endloop
 endfacet
 facet normal  8.229839e-01 -5.680647e-01  0.000000e+00
   outer loop
     vertex -2.656368e+00  1.394170e+00  5.000000e+00
     vertex -2.656368e+00  1.394170e+00  0.000000e+00
     vertex -2.245532e+00  1.989368e+00  5.000000e+00
   endloop
 endfacet
 facet normal  9.350162e-01 -3.546049e-01  0.000000e+00
   outer loop
     vertex -2.656368e+00  1.394170e+00  5.000000e+00
     vertex -2.912825e+00  7.179470e-01  0.000000e+00
     vertex -2.656368e+00  1.394170e+00  0.000000e+00
   endloop
 endfacet
 facet normal  9.350162e-01 -3.546049e-01  0.000000e+00
   outer loop
     vertex -2.912825e+00  7.179470e-01  5.000000e+00
     vertex -2.912825e+00  7.179470e-01  0.000000e+00
     vertex -2.656368e+00  1.394170e+00  5.000000e+00
   endloop
 endfacet
 facet normal  9.927089e-01 -1.205367e-01  0.000000e+00
   outer loop
     vertex -3.000000e+00  3.031929e-15  5.000000e+00
     vertex -2.912825e+00  7.179470e-01  0.000000e+00
     vertex -2.912825e+00  7.179470e-01  5.000000e+00
   endloop
 endfacet
 facet normal  9.927089e-01 -1.205367e-01  0.000000e+00
   outer loop
     vertex -3.000000e+00  3.031929e-15  5.000000e+00
     vertex -3.000000e+00  3.031929e-15  0.000000e+00
     vertex -2.912825e+00  7.179470e-01  0.000000e+00
   endloop
 endfacet
 facet normal  9.927089e-01  1.205367e-01  0.000000e+00
   outer loop
     vertex -3.000000e+00  3.031929e-15  5.000000e+00
     vertex -2.912825e+00 -7.179470e-01  0.000000e+00
     vertex -3.000000e+00  3.031929e-15  0.000000e+00
   endloop
 endfacet
 facet normal  9.927089e-01  1.205367e-01  0.000000e+00
   outer loop
     vertex -2.912825e+00 -7.179470e-01  5.000000e+00
     vertex -2.912825e+00 -7.179470e-01  0.000000e+00
     vertex -3.000000e+00  3.031929e-15  5.000000e+00
   endloop
 endfacet
 facet normal  9.350162e-01  3.546049e-01  0.000000e+00
   outer loop
     vertex -2.656368e+00 -1.394170e+00  5.000000e+00
     vertex -2.912825e+00 -7.179470e-01  0.000000e+00
     vertex -2.912825e+00 -7.179470e-01  5.000000e+00
   endloop
 endfacet
 facet normal  9.350162e-01  3.546049e-01  0.000000e+00
   outer loop
     vertex -2.656368e+00 -1.394170e+00  5.000000e+00
     vertex -2.656368e+00 -1.394170e+00  0.000000e+00
     vertex -2.912825e+00 -7.179470e-01  0.000000e+00
   endloop
 endfacet
 facet normal  8.229839e-01  5.680647e-01  0.000000e+00
   outer loop
     vertex -2.245532e+00 -1.989368e+00  5.000000e+00
     vertex -2.656368e+00 -1.394170e+00  0.000000e+00
     vertex -2.656368e+00 -1.394170e+00  5.000000e+00
   endloop
 endfacet
 facet normal  8.229839e-01  5.680647e-01  0.000000e+00
   outer loop
     vertex -2.245532e+00 -1.989368e+00  5.000000e+00
     vertex -2.245532e+00 -1.989368e+00  0.000000e+00
     vertex -2.656368e+00 -1.394170e+00  0.000000e+00
   endloop
 endfacet
 facet normal  6.631227e-01  7.485107e-01  0.000000e+00
   outer loop
     vertex -1.704194e+00 -2.468952e+00  5.000000e+00
     vertex -2.245532e+00 -1.989368e+00  0.000000e+00
     vertex -2.245532e+00 -1.989368e+00  5.000000e+00
   endloop
 endfacet
 facet normal  6.631227e-01  7.485107e-01  0.000000e+00
   outer loop
     vertex -1.704194e+00 -2.468952e+00  5.000000e+00
     vertex -1.704194e+00 -2.468952e+00  0.000000e+00
     vertex -2.245532e+00 -1.989368e+00  0.000000e+00
   endloop
 endfacet
 facet normal  4.647232e-01  8.854560e-01  0.000000e+00
   outer loop
     vertex -1.063815e+00 -2.805049e+00  5.000000e+00
     vertex -1.704194e+00 -2.468952e+00  0.000000e+00
     vertex -1.704194e+00 -2.468952e+00  5.000000e+00
   endloop
 endfacet
 facet normal  4.647232e-01  8.854560e-01  0.000000e+00
   outer loop
     vertex -1.063815e+00 -2.805049e+00  5.000000e+00
     vertex -1.063815e+00 -2.805049e+00  0.000000e+00
     vertex -1.704194e+00 -2.468952e+00  0.000000e+00
   endloop
 endfacet
 facet normal  2.393157e-01  9.709418e-01  0.000000e+00
   outer loop
     vertex -3.616100e-01 -2.978127e+00  5.000000e+00
     vertex -1.063815e+00 -2.805049e+00  0.000000e+00
     vertex -1.063815e+00 -2.805049e+00  5.000000e+00
   endloop
 endfacet
 facet normal  2.393157e-01  9.709418e-01  0.000000e+00
   outer loop
     vertex -3.616100e-01 -2.978127e+00  5.000000e+00
     vertex -3.616100e-01 -2.978127e+00  0.000000e+00
     vertex -1.063815e+00 -2.805049e+00  0.000000e+00
   endloop
 endfacet
 facet normal  2.456177e-15  1.000000e+00  0.000000e+00
   outer loop
     vertex -3.616100e-01 -2.978127e+00  5.000000e+00
     vertex  3.616100e-01 -2.978127e+00  0.000000e+00
     vertex -3.616100e-01 -2.978127e+00  0.000000e+00
   endloop
 endfacet
 facet normal  2.456177e-15  1.000000e+00  0.000000e+00
   outer loop
     vertex  3.616100e-01 -2.978127e+00  5.000000e+00
     vertex  3.616100e-01 -2.978127e+00  0.000000e+00
     vertex -3.616100e-01 -2.978127e+00  5.000000e+00
   endloop
 endfacet
 facet normal -2.393157e-01  9.709418e-01  0.000000e+00
   outer loop
     vertex  1.063815e+00 -2.805049e+00  5.000000e+00
     vertex  3.616100e-01 -2.978127e+00  0.000000e+00
     vertex  3.616100e-01 -2.978127e+00  5.000000e+00
   endloop
 endfacet
 facet normal -2.393157e-01  9.709418e-01  0.000000e+00
   outer loop
     vertex  1.063815e+00 -2.805049e+00  5.000000e+00
     vertex  1.063815e+00 -2.805049e+00  0.000000e+00
     vertex  3.616100e-01 -2.978127e+00  0.000000e+00
   endloop
 endfacet
 facet normal -4.647232e-01  8.854560e-01  0.000000e+00
   outer loop
     vertex  1.704194e+00 -2.468952e+00  5.000000e+00
     vertex  1.063815e+00 -2.805049e+00  0.000000e+00
     vertex  1.063815e+00 -2.805049e+00  5.000000e+00
   endloop
 endfacet
 facet normal -4.647232e-01  8.854560e-01  0.000000e+00
   outer loop
     vertex  1.704194e+00 -2.468952e+00  5.000000e+00
     vertex  1.704194e+00 -2.468952e+00  0.000000e+00
     vertex  1.063815e+00 -2.805049e+00  0.000000e+00
   endloop
 endfacet
 facet normal -6.631227e-01  7.485107e-01  0.000000e+00
   outer loop
     vertex  1.704194e+00 -2.468952e+00  5.000000e+00
     vertex  2.245532e+00 -1.989368e+00  0.000000e+00
     vertex  1.704194e+00 -2.468952e+00  0.000000e+00
   endloop
 endfacet
 facet normal -6.631227e-01  7.485107e-01  0.000000e+00
   outer loop
     vertex  2.245532e+00 -1.989368e+00  5.000000e+00
     vertex  2.245532e+00 -1.989368e+00  0.000000e+00
     vertex  1.704194e+00 -2.468952e+00  5.000000e+00
   endloop
 endfacet
 facet normal -8.229839e-01  5.680647e-01  0.000000e+00
   outer loop
     vertex  2.245532e+00 -1.989368e+00  5.000000e+00
     vertex  2.656368e+00 -1.394170e+00  0.000000e+00
     vertex  2.245532e+00 -1.989368e+00  0.000000e+00
   endloop
 endfacet
 facet normal -8.229839e-01  5.680647e-01  0.000000e+00
   outer loop
     vertex  2.656368e+00 -1.394170e+00  5.000000e+00
     vertex  2.656368e+00 -1.394170e+00  0.000000e+00
     vertex  2.245532e+00 -1.989368e+00  5.000000e+00
   endloop
 endfacet
 facet normal -9.350162e-01  3.546049e-01  0.000000e+00
   outer loop
     vertex  2.912825e+00 -7.179470e-01  5.000000e+00
     vertex  2.912825e+00 -7.179470e-01  0.000000e+00
     vertex  2.656368e+00 -1.394170e+00  0.000000e+00
   endloop
 endfacet
 facet normal -9.927089e-01  1.205367e-01  0.000000e+00
   outer loop
     vertex  2.912825e+00 -7.179470e-01  5.000000e+00
     vertex  3.000000e+00 -7.347881e-16  0.000000e+00
     vertex  2.912825e+00 -7.179470e-01  0.000000e+00
   endloop
 endfacet
 facet normal -9.350162e-01  3.546049e-01  0.000000e+00
   outer loop
     vertex  2.912825e+00 -7.179470e-01  5.000000e+00
     vertex  2.656368e+00 -1.394170e+00  0.000000e+00
     vertex  2.656368e+00 -1.394170e+00  5.000000e+00
   endloop
 endfacet
 facet normal -9.927089e-01  1.205367e-01  0.000000e+00
   outer loop
     vertex  3.000000e+00 -7.347881e-16  5.000000e+00
     vertex  3.000000e+00 -7.347881e-16  0.000000e+00
     vertex  2.912825e+00 -7.179470e-01  5.000000e+00
   endloop
 endfacet
endsolid
